<svg xmlns="http://www.w3.org/2000/svg" xmlns:xlink="http://www.w3.org/1999/xlink" width="586" zoomAndPan="magnify" viewBox="0 0 439.5 330.749995" height="441" preserveAspectRatio="xMidYMid meet" version="1.0"><defs><g/><clipPath id="f4d8265940"><path d="M 153.089844 75.398438 L 286.589844 75.398438 L 286.589844 213.398438 L 153.089844 213.398438 Z M 153.089844 75.398438 " clip-rule="nonzero"/></clipPath><clipPath id="0fd8655cde"><path d="M 182.605469 162.210938 L 182.605469 160.859375 C 182.605469 158.800781 180.910156 157.113281 178.84375 157.113281 C 176.792969 157.113281 175.105469 158.769531 175.082031 160.808594 L 175.082031 162.289062 C 175.039062 166.167969 171.839844 169.320312 167.945312 169.320312 C 164.015625 169.320312 160.808594 166.121094 160.808594 162.210938 L 160.808594 134.09375 C 160.808594 132.035156 159.113281 130.347656 157.046875 130.347656 C 154.980469 130.347656 153.285156 132.035156 153.285156 134.09375 L 153.285156 162.210938 C 153.285156 170.242188 159.882812 176.8125 167.945312 176.8125 C 170.019531 176.8125 172.058594 176.375 173.949219 175.523438 C 174.386719 175.324219 174.8125 175.109375 175.230469 174.867188 C 179.765625 172.261719 182.605469 167.449219 182.605469 162.210938 Z M 264.835938 113.933594 C 265.652344 110.859375 268.480469 108.644531 271.734375 108.644531 C 274.984375 108.644531 277.8125 110.859375 278.632812 113.933594 L 278.847656 113.933594 L 278.871094 114.707031 C 278.9375 116.714844 280.613281 118.324219 282.632812 118.324219 C 284.546875 118.324219 286.171875 116.867188 286.371094 114.972656 C 286.085938 109.59375 282.800781 104.808594 277.917969 102.523438 C 275.980469 101.617188 273.875 101.152344 271.734375 101.152344 C 269.660156 101.152344 267.617188 101.589844 265.726562 102.441406 C 262.453125 103.917969 259.8125 106.5625 258.34375 109.828125 C 257.503906 111.695312 257.074219 113.707031 257.074219 115.753906 L 257.074219 139.667969 C 257.074219 142.796875 254.507812 145.355469 251.363281 145.355469 C 248.242188 145.355469 245.683594 142.824219 245.65625 139.714844 L 245.65625 108.136719 L 246.046875 107.902344 C 248.53125 106.441406 250.054688 103.796875 250.054688 100.914062 C 250.054688 97.519531 247.933594 94.488281 244.746094 93.308594 L 244.390625 93.175781 L 244.269531 92.820312 C 242.796875 88.554688 240.210938 84.742188 236.804688 81.773438 C 232.09375 77.664062 226.105469 75.398438 219.839844 75.398438 C 213.574219 75.398438 207.582031 77.664062 202.871094 81.773438 C 199.46875 84.742188 196.878906 88.554688 195.40625 92.820312 L 195.285156 93.175781 L 194.929688 93.308594 C 191.742188 94.484375 189.621094 97.519531 189.621094 100.914062 C 189.621094 103.796875 191.148438 106.441406 193.628906 107.902344 L 194.023438 108.136719 L 194.019531 139.714844 C 193.992188 142.824219 191.433594 145.355469 188.3125 145.355469 C 185.171875 145.355469 182.605469 142.796875 182.605469 139.667969 L 182.605469 115.753906 C 182.605469 113.707031 182.175781 111.695312 181.335938 109.828125 C 179.867188 106.5625 177.222656 103.917969 173.949219 102.441406 C 172.058594 101.589844 170.019531 101.152344 167.945312 101.152344 C 165.800781 101.152344 163.695312 101.617188 161.757812 102.523438 C 156.878906 104.808594 153.59375 109.59375 153.304688 114.972656 C 153.507812 116.867188 155.128906 118.324219 157.046875 118.324219 C 159.066406 118.324219 160.738281 116.714844 160.808594 114.703125 L 160.835938 113.933594 L 161.046875 113.933594 C 161.867188 110.859375 164.691406 108.644531 167.945312 108.644531 C 171.195312 108.644531 174.023438 110.859375 174.84375 113.933594 L 175.082031 113.933594 L 175.082031 139.765625 C 175.121094 145.222656 178.578125 150.09375 183.6875 152.011719 C 185.167969 152.566406 186.730469 152.847656 188.3125 152.847656 C 189.894531 152.847656 191.457031 152.566406 192.9375 152.011719 C 198.082031 150.082031 201.542969 145.160156 201.542969 139.667969 L 201.542969 108.117188 L 201.933594 107.886719 C 204.398438 106.421875 205.914062 103.78125 205.914062 100.914062 C 205.914062 98.605469 204.9375 96.425781 203.214844 94.882812 L 202.789062 94.5 L 203.015625 93.976562 C 205.894531 87.292969 212.507812 82.890625 219.839844 82.890625 C 227.167969 82.890625 233.785156 87.292969 236.664062 93.976562 L 236.886719 94.5 L 236.460938 94.882812 C 234.742188 96.425781 233.765625 98.605469 233.765625 100.914062 C 233.765625 103.78125 235.277344 106.421875 237.742188 107.886719 L 238.132812 108.117188 L 238.132812 139.667969 C 238.132812 145.160156 241.597656 150.082031 246.738281 152.011719 C 248.21875 152.566406 249.78125 152.847656 251.363281 152.847656 C 252.945312 152.847656 254.511719 152.566406 255.992188 152.011719 C 261.097656 150.09375 264.554688 145.222656 264.597656 139.765625 L 264.597656 113.933594 Z M 237.699219 100.914062 C 237.699219 98.597656 239.585938 96.71875 241.910156 96.71875 C 244.234375 96.71875 246.121094 98.597656 246.121094 100.914062 C 246.121094 103.230469 244.234375 105.109375 241.910156 105.109375 C 239.585938 105.109375 237.699219 103.230469 237.699219 100.914062 Z M 201.976562 100.914062 C 201.976562 103.230469 200.09375 105.109375 197.765625 105.109375 C 195.441406 105.109375 193.554688 103.230469 193.554688 100.914062 C 193.554688 98.597656 195.441406 96.71875 197.765625 96.71875 C 200.09375 96.71875 201.976562 98.597656 201.976562 100.914062 Z M 257.074219 162.210938 C 257.074219 167.449219 259.914062 172.261719 264.449219 174.867188 C 264.863281 175.105469 265.289062 175.324219 265.726562 175.523438 C 267.617188 176.375 269.660156 176.8125 271.734375 176.8125 C 279.792969 176.8125 286.394531 170.242188 286.394531 162.210938 L 286.394531 134.09375 C 286.394531 132.035156 284.699219 130.34375 282.632812 130.34375 C 280.5625 130.34375 278.871094 132.035156 278.871094 134.09375 L 278.871094 162.210938 C 278.871094 166.121094 275.660156 169.320312 271.734375 169.320312 C 267.835938 169.320312 264.640625 166.167969 264.597656 162.285156 L 264.597656 160.808594 C 264.570312 158.769531 262.882812 157.113281 260.835938 157.113281 C 258.769531 157.113281 257.074219 158.800781 257.074219 160.859375 Z M 245.355469 157.992188 L 245.320312 157.910156 L 245.28125 157.824219 L 245.238281 157.742188 L 245.199219 157.667969 L 245.152344 157.585938 L 245.105469 157.507812 L 245.058594 157.433594 L 245.007812 157.359375 L 244.957031 157.28125 L 244.90625 157.214844 L 244.789062 157.066406 L 244.734375 157 L 244.671875 156.933594 L 244.605469 156.859375 L 244.550781 156.804688 L 244.480469 156.738281 L 244.414062 156.675781 L 244.339844 156.609375 L 244.285156 156.566406 L 244.203125 156.5 L 244.132812 156.445312 L 244.058594 156.394531 L 243.992188 156.347656 L 243.910156 156.292969 L 243.832031 156.242188 L 243.757812 156.199219 L 243.675781 156.15625 L 243.597656 156.113281 L 243.433594 156.035156 L 243.355469 156 L 243.265625 155.964844 L 243.179688 155.929688 L 243.09375 155.902344 L 243.007812 155.871094 L 242.921875 155.847656 L 242.832031 155.824219 L 242.738281 155.800781 L 242.648438 155.78125 L 242.5625 155.765625 L 242.46875 155.75 L 242.378906 155.734375 L 242.273438 155.722656 L 242.085938 155.707031 L 241.992188 155.707031 L 241.894531 155.703125 L 241.699219 155.710938 L 241.605469 155.714844 L 241.511719 155.722656 L 241.332031 155.746094 L 241.3125 155.75 L 241.234375 155.761719 L 241.136719 155.78125 L 241.054688 155.796875 L 240.960938 155.820312 L 240.875 155.84375 L 240.789062 155.871094 L 240.699219 155.898438 L 240.527344 155.960938 L 240.441406 155.996094 L 240.355469 156.035156 L 240.273438 156.070312 L 240.191406 156.113281 L 240.035156 156.199219 L 239.960938 156.238281 L 239.882812 156.289062 L 239.800781 156.34375 L 239.734375 156.390625 L 239.652344 156.445312 L 239.589844 156.496094 L 239.507812 156.5625 L 239.449219 156.609375 L 239.378906 156.671875 L 239.3125 156.734375 L 239.238281 156.804688 L 239.1875 156.859375 L 239.121094 156.925781 L 239.0625 156.992188 L 239.003906 157.0625 L 238.941406 157.136719 L 238.886719 157.207031 L 238.835938 157.277344 L 238.777344 157.359375 L 238.734375 157.425781 L 238.6875 157.5 L 238.640625 157.578125 L 238.59375 157.664062 L 238.554688 157.734375 L 238.511719 157.816406 L 238.472656 157.902344 L 238.429688 157.992188 L 238.402344 158.066406 L 238.367188 158.152344 L 238.335938 158.242188 L 238.308594 158.324219 L 238.28125 158.410156 L 238.269531 158.457031 L 238.253906 158.507812 L 238.230469 158.597656 L 238.195312 158.773438 L 238.179688 158.859375 L 238.164062 158.957031 L 238.15625 159.046875 L 238.148438 159.09375 L 238.144531 159.175781 L 238.136719 159.273438 L 238.132812 159.339844 L 238.132812 189.636719 C 238.132812 195.09375 241.550781 199.992188 246.644531 201.945312 C 248.152344 202.523438 249.75 202.816406 251.363281 202.816406 C 253.339844 202.816406 255.28125 202.378906 257.0625 201.523438 C 261.636719 199.332031 264.597656 194.714844 264.597656 189.636719 L 264.597656 187.769531 C 264.597656 185.710938 262.902344 184.023438 260.835938 184.023438 C 258.765625 184.023438 257.074219 185.710938 257.074219 187.769531 L 257.074219 189.636719 C 257.074219 192.765625 254.507812 195.324219 251.363281 195.324219 C 248.242188 195.324219 245.683594 192.796875 245.65625 189.683594 L 245.65625 159.421875 L 245.652344 159.34375 L 245.648438 159.253906 L 245.644531 159.160156 L 245.632812 159.050781 L 245.628906 159.011719 L 245.625 158.964844 L 245.609375 158.871094 L 245.59375 158.785156 L 245.578125 158.683594 L 245.535156 158.511719 L 245.507812 158.417969 L 245.5 158.382812 L 245.480469 158.328125 L 245.457031 158.25 L 245.421875 158.160156 L 245.390625 158.074219 Z M 223.808594 150.574219 L 223.808594 202.617188 L 223.539062 202.855469 C 222.246094 204.003906 221.511719 205.632812 221.511719 207.363281 C 221.511719 210.695312 224.222656 213.398438 227.570312 213.398438 C 230.914062 213.398438 233.628906 210.695312 233.628906 207.363281 C 233.628906 205.632812 232.894531 204.003906 231.597656 202.855469 L 231.332031 202.617188 L 231.332031 150.574219 C 231.332031 148.515625 229.636719 146.828125 227.570312 146.828125 C 225.503906 146.828125 223.808594 148.515625 223.808594 150.574219 Z M 208.347656 150.574219 L 208.347656 202.617188 L 208.078125 202.855469 C 206.785156 204.003906 206.046875 205.632812 206.046875 207.363281 C 206.046875 210.695312 208.761719 213.398438 212.105469 213.398438 C 215.453125 213.398438 218.167969 210.695312 218.167969 207.363281 C 218.167969 205.632812 217.429688 204.003906 216.136719 202.855469 L 215.867188 202.617188 L 215.867188 150.574219 C 215.867188 148.515625 214.175781 146.828125 212.105469 146.828125 C 210.039062 146.828125 208.347656 148.515625 208.347656 150.574219 Z M 201.246094 157.992188 L 201.210938 157.910156 L 201.167969 157.824219 L 201.128906 157.742188 L 201.089844 157.667969 L 201.039062 157.585938 L 200.996094 157.507812 L 200.945312 157.433594 L 200.898438 157.359375 L 200.84375 157.28125 L 200.796875 157.214844 L 200.679688 157.066406 L 200.5625 156.933594 L 200.492188 156.859375 L 200.371094 156.738281 L 200.304688 156.675781 L 200.226562 156.609375 L 200.171875 156.566406 L 200.09375 156.5 L 200.023438 156.445312 L 199.949219 156.394531 L 199.882812 156.347656 L 199.800781 156.292969 L 199.722656 156.242188 L 199.488281 156.113281 L 199.324219 156.035156 L 199.246094 156 L 199.15625 155.964844 L 199.070312 155.929688 L 198.984375 155.902344 L 198.894531 155.871094 L 198.722656 155.824219 L 198.628906 155.800781 L 198.539062 155.78125 L 198.359375 155.75 L 198.265625 155.734375 L 198.164062 155.722656 L 197.976562 155.707031 L 197.878906 155.707031 L 197.78125 155.703125 L 197.6875 155.707031 L 197.492188 155.714844 L 197.398438 155.722656 L 197.308594 155.734375 L 197.222656 155.746094 L 197.199219 155.75 L 197.125 155.761719 L 197.027344 155.78125 L 196.945312 155.796875 L 196.851562 155.820312 L 196.765625 155.84375 L 196.679688 155.871094 L 196.589844 155.898438 L 196.5 155.929688 L 196.417969 155.960938 L 196.328125 155.996094 L 196.246094 156.035156 L 196.164062 156.070312 L 196 156.15625 L 195.921875 156.199219 L 195.851562 156.238281 L 195.773438 156.289062 L 195.621094 156.390625 L 195.542969 156.445312 L 195.480469 156.496094 L 195.394531 156.5625 L 195.335938 156.609375 L 195.203125 156.734375 L 195.125 156.804688 L 195.074219 156.859375 L 194.949219 156.992188 L 194.890625 157.0625 L 194.832031 157.136719 L 194.777344 157.207031 L 194.726562 157.277344 L 194.667969 157.359375 L 194.621094 157.425781 L 194.574219 157.5 L 194.527344 157.578125 L 194.480469 157.664062 L 194.441406 157.734375 L 194.398438 157.816406 L 194.359375 157.902344 L 194.320312 157.992188 L 194.289062 158.066406 L 194.253906 158.152344 L 194.222656 158.242188 L 194.195312 158.324219 L 194.171875 158.410156 L 194.15625 158.457031 L 194.144531 158.507812 L 194.121094 158.597656 L 194.101562 158.675781 L 194.082031 158.773438 L 194.066406 158.859375 L 194.054688 158.957031 L 194.042969 159.046875 L 194.039062 159.09375 L 194.03125 159.175781 L 194.027344 159.273438 L 194.023438 159.339844 L 194.023438 159.417969 L 194.019531 159.453125 L 194.019531 189.6875 C 193.992188 192.796875 191.433594 195.324219 188.3125 195.324219 C 185.171875 195.324219 182.605469 192.765625 182.605469 189.636719 L 182.605469 187.769531 C 182.605469 185.710938 180.910156 184.023438 178.84375 184.023438 C 176.773438 184.023438 175.082031 185.710938 175.082031 187.769531 L 175.082031 189.636719 C 175.082031 194.714844 178.039062 199.332031 182.613281 201.523438 C 184.394531 202.378906 186.335938 202.816406 188.3125 202.816406 C 189.929688 202.816406 191.523438 202.523438 193.03125 201.945312 C 198.125 199.992188 201.542969 195.09375 201.542969 189.636719 L 201.542969 159.34375 L 201.539062 159.253906 L 201.53125 159.160156 L 201.523438 159.050781 L 201.519531 159.011719 L 201.511719 158.964844 L 201.5 158.871094 L 201.484375 158.785156 L 201.464844 158.683594 L 201.449219 158.605469 L 201.425781 158.511719 L 201.398438 158.417969 L 201.386719 158.382812 L 201.371094 158.328125 L 201.34375 158.25 L 201.3125 158.160156 L 201.277344 158.074219 Z M 201.246094 157.992188 " clip-rule="evenodd"/></clipPath><linearGradient x1="93.835999" gradientTransform="matrix(0.70926, 0, 0, 0.706464, 153.28437, 75.39857)" y1="195.33851" x2="93.835999" gradientUnits="userSpaceOnUse" y2="-0.0000287622" id="94a79910a8"><stop stop-opacity="1" stop-color="rgb(99.998474%, 81.599426%, 27.49939%)" offset="0"/><stop stop-opacity="1" stop-color="rgb(99.607849%, 81.280518%, 27.391052%)" offset="0.00390625"/><stop stop-opacity="1" stop-color="rgb(99.217224%, 80.961609%, 27.284241%)" offset="0.0078125"/><stop stop-opacity="1" stop-color="rgb(98.826599%, 80.6427%, 27.175903%)" offset="0.0117187"/><stop stop-opacity="1" stop-color="rgb(98.435974%, 80.323792%, 27.069092%)" offset="0.015625"/><stop stop-opacity="1" stop-color="rgb(98.045349%, 80.004883%, 26.960754%)" offset="0.0195313"/><stop stop-opacity="1" stop-color="rgb(97.654724%, 79.685974%, 26.853943%)" offset="0.0234375"/><stop stop-opacity="1" stop-color="rgb(97.264099%, 79.367065%, 26.747131%)" offset="0.0273438"/><stop stop-opacity="1" stop-color="rgb(96.873474%, 79.049683%, 26.64032%)" offset="0.03125"/><stop stop-opacity="1" stop-color="rgb(96.482849%, 78.730774%, 26.531982%)" offset="0.0351562"/><stop stop-opacity="1" stop-color="rgb(96.092224%, 78.411865%, 26.425171%)" offset="0.0390625"/><stop stop-opacity="1" stop-color="rgb(95.701599%, 78.092957%, 26.316833%)" offset="0.0429687"/><stop stop-opacity="1" stop-color="rgb(95.310974%, 77.774048%, 26.210022%)" offset="0.046875"/><stop stop-opacity="1" stop-color="rgb(94.920349%, 77.455139%, 26.101685%)" offset="0.0507812"/><stop stop-opacity="1" stop-color="rgb(94.529724%, 77.13623%, 25.994873%)" offset="0.0546875"/><stop stop-opacity="1" stop-color="rgb(94.139099%, 76.817322%, 25.886536%)" offset="0.0585938"/><stop stop-opacity="1" stop-color="rgb(93.748474%, 76.498413%, 25.779724%)" offset="0.0625"/><stop stop-opacity="1" stop-color="rgb(93.357849%, 76.179504%, 25.672913%)" offset="0.0664063"/><stop stop-opacity="1" stop-color="rgb(92.967224%, 75.862122%, 25.566101%)" offset="0.0703125"/><stop stop-opacity="1" stop-color="rgb(92.576599%, 75.543213%, 25.457764%)" offset="0.0742188"/><stop stop-opacity="1" stop-color="rgb(92.185974%, 75.224304%, 25.350952%)" offset="0.078125"/><stop stop-opacity="1" stop-color="rgb(91.795349%, 74.905396%, 25.242615%)" offset="0.0820313"/><stop stop-opacity="1" stop-color="rgb(91.404724%, 74.586487%, 25.135803%)" offset="0.0859375"/><stop stop-opacity="1" stop-color="rgb(91.014099%, 74.267578%, 25.027466%)" offset="0.0898438"/><stop stop-opacity="1" stop-color="rgb(90.623474%, 73.948669%, 24.920654%)" offset="0.09375"/><stop stop-opacity="1" stop-color="rgb(90.232849%, 73.629761%, 24.812317%)" offset="0.0976562"/><stop stop-opacity="1" stop-color="rgb(89.842224%, 73.310852%, 24.705505%)" offset="0.101562"/><stop stop-opacity="1" stop-color="rgb(89.451599%, 72.991943%, 24.598694%)" offset="0.105469"/><stop stop-opacity="1" stop-color="rgb(89.060974%, 72.674561%, 24.491882%)" offset="0.109375"/><stop stop-opacity="1" stop-color="rgb(88.670349%, 72.355652%, 24.383545%)" offset="0.113281"/><stop stop-opacity="1" stop-color="rgb(88.279724%, 72.036743%, 24.276733%)" offset="0.117188"/><stop stop-opacity="1" stop-color="rgb(87.889099%, 71.717834%, 24.168396%)" offset="0.121094"/><stop stop-opacity="1" stop-color="rgb(87.498474%, 71.398926%, 24.061584%)" offset="0.125"/><stop stop-opacity="1" stop-color="rgb(87.107849%, 71.080017%, 23.953247%)" offset="0.128906"/><stop stop-opacity="1" stop-color="rgb(86.717224%, 70.761108%, 23.846436%)" offset="0.132812"/><stop stop-opacity="1" stop-color="rgb(86.326599%, 70.4422%, 23.738098%)" offset="0.136719"/><stop stop-opacity="1" stop-color="rgb(85.935974%, 70.124817%, 23.631287%)" offset="0.140625"/><stop stop-opacity="1" stop-color="rgb(85.545349%, 69.805908%, 23.524475%)" offset="0.144531"/><stop stop-opacity="1" stop-color="rgb(85.154724%, 69.487%, 23.417664%)" offset="0.148438"/><stop stop-opacity="1" stop-color="rgb(84.764099%, 69.168091%, 23.309326%)" offset="0.152344"/><stop stop-opacity="1" stop-color="rgb(84.373474%, 68.849182%, 23.202515%)" offset="0.15625"/><stop stop-opacity="1" stop-color="rgb(83.982849%, 68.530273%, 23.094177%)" offset="0.160156"/><stop stop-opacity="1" stop-color="rgb(83.592224%, 68.211365%, 22.987366%)" offset="0.164062"/><stop stop-opacity="1" stop-color="rgb(83.201599%, 67.892456%, 22.879028%)" offset="0.167969"/><stop stop-opacity="1" stop-color="rgb(82.810974%, 67.573547%, 22.772217%)" offset="0.171875"/><stop stop-opacity="1" stop-color="rgb(82.420349%, 67.254639%, 22.663879%)" offset="0.175781"/><stop stop-opacity="1" stop-color="rgb(82.029724%, 66.937256%, 22.557068%)" offset="0.179688"/><stop stop-opacity="1" stop-color="rgb(81.639099%, 66.618347%, 22.450256%)" offset="0.183594"/><stop stop-opacity="1" stop-color="rgb(81.248474%, 66.299438%, 22.343445%)" offset="0.1875"/><stop stop-opacity="1" stop-color="rgb(80.857849%, 65.98053%, 22.235107%)" offset="0.191406"/><stop stop-opacity="1" stop-color="rgb(80.467224%, 65.661621%, 22.128296%)" offset="0.195312"/><stop stop-opacity="1" stop-color="rgb(80.076599%, 65.342712%, 22.019958%)" offset="0.199219"/><stop stop-opacity="1" stop-color="rgb(79.685974%, 65.023804%, 21.913147%)" offset="0.203125"/><stop stop-opacity="1" stop-color="rgb(79.295349%, 64.704895%, 21.80481%)" offset="0.207031"/><stop stop-opacity="1" stop-color="rgb(78.904724%, 64.385986%, 21.697998%)" offset="0.210937"/><stop stop-opacity="1" stop-color="rgb(78.514099%, 64.067078%, 21.589661%)" offset="0.214844"/><stop stop-opacity="1" stop-color="rgb(78.123474%, 63.749695%, 21.482849%)" offset="0.21875"/><stop stop-opacity="1" stop-color="rgb(77.732849%, 63.430786%, 21.376038%)" offset="0.222656"/><stop stop-opacity="1" stop-color="rgb(77.342224%, 63.111877%, 21.269226%)" offset="0.226562"/><stop stop-opacity="1" stop-color="rgb(76.951599%, 62.792969%, 21.160889%)" offset="0.230469"/><stop stop-opacity="1" stop-color="rgb(76.560974%, 62.47406%, 21.054077%)" offset="0.234375"/><stop stop-opacity="1" stop-color="rgb(76.170349%, 62.155151%, 20.94574%)" offset="0.238281"/><stop stop-opacity="1" stop-color="rgb(75.779724%, 61.836243%, 20.838928%)" offset="0.242187"/><stop stop-opacity="1" stop-color="rgb(75.389099%, 61.517334%, 20.730591%)" offset="0.246094"/><stop stop-opacity="1" stop-color="rgb(74.998474%, 61.198425%, 20.623779%)" offset="0.25"/><stop stop-opacity="1" stop-color="rgb(74.607849%, 60.879517%, 20.515442%)" offset="0.253906"/><stop stop-opacity="1" stop-color="rgb(74.217224%, 60.562134%, 20.40863%)" offset="0.257812"/><stop stop-opacity="1" stop-color="rgb(73.826599%, 60.243225%, 20.301819%)" offset="0.261719"/><stop stop-opacity="1" stop-color="rgb(73.435974%, 59.924316%, 20.195007%)" offset="0.265625"/><stop stop-opacity="1" stop-color="rgb(73.045349%, 59.605408%, 20.08667%)" offset="0.269531"/><stop stop-opacity="1" stop-color="rgb(72.654724%, 59.286499%, 19.979858%)" offset="0.273437"/><stop stop-opacity="1" stop-color="rgb(72.264099%, 58.96759%, 19.871521%)" offset="0.277344"/><stop stop-opacity="1" stop-color="rgb(71.873474%, 58.648682%, 19.764709%)" offset="0.28125"/><stop stop-opacity="1" stop-color="rgb(71.482849%, 58.329773%, 19.656372%)" offset="0.285156"/><stop stop-opacity="1" stop-color="rgb(71.092224%, 58.010864%, 19.549561%)" offset="0.289062"/><stop stop-opacity="1" stop-color="rgb(70.701599%, 57.691956%, 19.441223%)" offset="0.292969"/><stop stop-opacity="1" stop-color="rgb(70.310974%, 57.374573%, 19.334412%)" offset="0.296875"/><stop stop-opacity="1" stop-color="rgb(69.920349%, 57.055664%, 19.2276%)" offset="0.300781"/><stop stop-opacity="1" stop-color="rgb(69.529724%, 56.736755%, 19.120789%)" offset="0.304687"/><stop stop-opacity="1" stop-color="rgb(69.139099%, 56.417847%, 19.012451%)" offset="0.308594"/><stop stop-opacity="1" stop-color="rgb(68.748474%, 56.098938%, 18.90564%)" offset="0.3125"/><stop stop-opacity="1" stop-color="rgb(68.357849%, 55.780029%, 18.797302%)" offset="0.316406"/><stop stop-opacity="1" stop-color="rgb(67.967224%, 55.461121%, 18.690491%)" offset="0.320312"/><stop stop-opacity="1" stop-color="rgb(67.576599%, 55.142212%, 18.582153%)" offset="0.324219"/><stop stop-opacity="1" stop-color="rgb(67.185974%, 54.824829%, 18.475342%)" offset="0.328125"/><stop stop-opacity="1" stop-color="rgb(66.795349%, 54.50592%, 18.367004%)" offset="0.332031"/><stop stop-opacity="1" stop-color="rgb(66.404724%, 54.187012%, 18.260193%)" offset="0.335937"/><stop stop-opacity="1" stop-color="rgb(66.014099%, 53.868103%, 18.153381%)" offset="0.339844"/><stop stop-opacity="1" stop-color="rgb(65.623474%, 53.549194%, 18.04657%)" offset="0.34375"/><stop stop-opacity="1" stop-color="rgb(65.232849%, 53.230286%, 17.938232%)" offset="0.347656"/><stop stop-opacity="1" stop-color="rgb(64.842224%, 52.911377%, 17.831421%)" offset="0.351562"/><stop stop-opacity="1" stop-color="rgb(64.451599%, 52.592468%, 17.723083%)" offset="0.355469"/><stop stop-opacity="1" stop-color="rgb(64.060974%, 52.27356%, 17.616272%)" offset="0.359375"/><stop stop-opacity="1" stop-color="rgb(63.670349%, 51.954651%, 17.507935%)" offset="0.363281"/><stop stop-opacity="1" stop-color="rgb(63.279724%, 51.637268%, 17.401123%)" offset="0.367187"/><stop stop-opacity="1" stop-color="rgb(62.889099%, 51.318359%, 17.292786%)" offset="0.371094"/><stop stop-opacity="1" stop-color="rgb(62.498474%, 50.999451%, 17.185974%)" offset="0.375"/><stop stop-opacity="1" stop-color="rgb(62.107849%, 50.680542%, 17.079163%)" offset="0.378906"/><stop stop-opacity="1" stop-color="rgb(61.717224%, 50.361633%, 16.972351%)" offset="0.382812"/><stop stop-opacity="1" stop-color="rgb(61.326599%, 50.042725%, 16.864014%)" offset="0.386719"/><stop stop-opacity="1" stop-color="rgb(60.935974%, 49.723816%, 16.757202%)" offset="0.390625"/><stop stop-opacity="1" stop-color="rgb(60.545349%, 49.404907%, 16.648865%)" offset="0.394531"/><stop stop-opacity="1" stop-color="rgb(60.154724%, 49.085999%, 16.542053%)" offset="0.398437"/><stop stop-opacity="1" stop-color="rgb(59.764099%, 48.76709%, 16.433716%)" offset="0.402344"/><stop stop-opacity="1" stop-color="rgb(59.373474%, 48.449707%, 16.326904%)" offset="0.40625"/><stop stop-opacity="1" stop-color="rgb(58.982849%, 48.130798%, 16.218567%)" offset="0.410156"/><stop stop-opacity="1" stop-color="rgb(58.592224%, 47.81189%, 16.111755%)" offset="0.414062"/><stop stop-opacity="1" stop-color="rgb(58.201599%, 47.492981%, 16.004944%)" offset="0.417969"/><stop stop-opacity="1" stop-color="rgb(57.810974%, 47.174072%, 15.898132%)" offset="0.421875"/><stop stop-opacity="1" stop-color="rgb(57.420349%, 46.855164%, 15.789795%)" offset="0.425781"/><stop stop-opacity="1" stop-color="rgb(57.029724%, 46.536255%, 15.682983%)" offset="0.429688"/><stop stop-opacity="1" stop-color="rgb(56.639099%, 46.217346%, 15.574646%)" offset="0.433594"/><stop stop-opacity="1" stop-color="rgb(56.248474%, 45.898438%, 15.467834%)" offset="0.4375"/><stop stop-opacity="1" stop-color="rgb(55.857849%, 45.579529%, 15.359497%)" offset="0.441406"/><stop stop-opacity="1" stop-color="rgb(55.467224%, 45.262146%, 15.252686%)" offset="0.445312"/><stop stop-opacity="1" stop-color="rgb(55.076599%, 44.943237%, 15.144348%)" offset="0.449219"/><stop stop-opacity="1" stop-color="rgb(54.685974%, 44.624329%, 15.037537%)" offset="0.453125"/><stop stop-opacity="1" stop-color="rgb(54.295349%, 44.30542%, 14.930725%)" offset="0.457031"/><stop stop-opacity="1" stop-color="rgb(53.904724%, 43.986511%, 14.823914%)" offset="0.460938"/><stop stop-opacity="1" stop-color="rgb(53.514099%, 43.667603%, 14.715576%)" offset="0.464844"/><stop stop-opacity="1" stop-color="rgb(53.123474%, 43.348694%, 14.608765%)" offset="0.46875"/><stop stop-opacity="1" stop-color="rgb(52.732849%, 43.029785%, 14.500427%)" offset="0.472656"/><stop stop-opacity="1" stop-color="rgb(52.342224%, 42.710876%, 14.393616%)" offset="0.476562"/><stop stop-opacity="1" stop-color="rgb(51.951599%, 42.391968%, 14.285278%)" offset="0.480469"/><stop stop-opacity="1" stop-color="rgb(51.560974%, 42.074585%, 14.178467%)" offset="0.484375"/><stop stop-opacity="1" stop-color="rgb(51.170349%, 41.755676%, 14.070129%)" offset="0.488281"/><stop stop-opacity="1" stop-color="rgb(50.779724%, 41.436768%, 13.963318%)" offset="0.492188"/><stop stop-opacity="1" stop-color="rgb(50.389099%, 41.117859%, 13.856506%)" offset="0.496094"/><stop stop-opacity="1" stop-color="rgb(49.998474%, 40.79895%, 13.749695%)" offset="0.5"/><stop stop-opacity="1" stop-color="rgb(49.607849%, 40.480042%, 13.641357%)" offset="0.503906"/><stop stop-opacity="1" stop-color="rgb(49.217224%, 40.161133%, 13.534546%)" offset="0.507813"/><stop stop-opacity="1" stop-color="rgb(48.826599%, 39.842224%, 13.426208%)" offset="0.511719"/><stop stop-opacity="1" stop-color="rgb(48.435974%, 39.524841%, 13.319397%)" offset="0.515625"/><stop stop-opacity="1" stop-color="rgb(48.045349%, 39.205933%, 13.21106%)" offset="0.519531"/><stop stop-opacity="1" stop-color="rgb(47.654724%, 38.887024%, 13.104248%)" offset="0.523438"/><stop stop-opacity="1" stop-color="rgb(47.264099%, 38.568115%, 12.995911%)" offset="0.527344"/><stop stop-opacity="1" stop-color="rgb(46.873474%, 38.249207%, 12.889099%)" offset="0.53125"/><stop stop-opacity="1" stop-color="rgb(46.482849%, 37.930298%, 12.782288%)" offset="0.535156"/><stop stop-opacity="1" stop-color="rgb(46.092224%, 37.611389%, 12.675476%)" offset="0.539063"/><stop stop-opacity="1" stop-color="rgb(45.701599%, 37.29248%, 12.567139%)" offset="0.542969"/><stop stop-opacity="1" stop-color="rgb(45.310974%, 36.973572%, 12.460327%)" offset="0.546875"/><stop stop-opacity="1" stop-color="rgb(44.920349%, 36.654663%, 12.35199%)" offset="0.550781"/><stop stop-opacity="1" stop-color="rgb(44.529724%, 36.33728%, 12.245178%)" offset="0.554688"/><stop stop-opacity="1" stop-color="rgb(44.139099%, 36.018372%, 12.136841%)" offset="0.558594"/><stop stop-opacity="1" stop-color="rgb(43.748474%, 35.699463%, 12.030029%)" offset="0.5625"/><stop stop-opacity="1" stop-color="rgb(43.357849%, 35.380554%, 11.921692%)" offset="0.566406"/><stop stop-opacity="1" stop-color="rgb(42.967224%, 35.061646%, 11.81488%)" offset="0.570313"/><stop stop-opacity="1" stop-color="rgb(42.576599%, 34.742737%, 11.708069%)" offset="0.574219"/><stop stop-opacity="1" stop-color="rgb(42.185974%, 34.423828%, 11.601257%)" offset="0.578125"/><stop stop-opacity="1" stop-color="rgb(41.795349%, 34.104919%, 11.49292%)" offset="0.582031"/><stop stop-opacity="1" stop-color="rgb(41.404724%, 33.786011%, 11.386108%)" offset="0.585938"/><stop stop-opacity="1" stop-color="rgb(41.014099%, 33.467102%, 11.277771%)" offset="0.589844"/><stop stop-opacity="1" stop-color="rgb(40.623474%, 33.149719%, 11.170959%)" offset="0.59375"/><stop stop-opacity="1" stop-color="rgb(40.232849%, 32.830811%, 11.062622%)" offset="0.597656"/><stop stop-opacity="1" stop-color="rgb(39.842224%, 32.511902%, 10.955811%)" offset="0.601563"/><stop stop-opacity="1" stop-color="rgb(39.451599%, 32.192993%, 10.847473%)" offset="0.605469"/><stop stop-opacity="1" stop-color="rgb(39.060974%, 31.874084%, 10.740662%)" offset="0.609375"/><stop stop-opacity="1" stop-color="rgb(38.670349%, 31.555176%, 10.63385%)" offset="0.613281"/><stop stop-opacity="1" stop-color="rgb(38.279724%, 31.236267%, 10.527039%)" offset="0.617188"/><stop stop-opacity="1" stop-color="rgb(37.889099%, 30.917358%, 10.418701%)" offset="0.621094"/><stop stop-opacity="1" stop-color="rgb(37.498474%, 30.59845%, 10.31189%)" offset="0.625"/><stop stop-opacity="1" stop-color="rgb(37.107849%, 30.279541%, 10.203552%)" offset="0.628906"/><stop stop-opacity="1" stop-color="rgb(36.717224%, 29.962158%, 10.096741%)" offset="0.632813"/><stop stop-opacity="1" stop-color="rgb(36.326599%, 29.64325%, 9.988403%)" offset="0.636719"/><stop stop-opacity="1" stop-color="rgb(35.935974%, 29.324341%, 9.881592%)" offset="0.640625"/><stop stop-opacity="1" stop-color="rgb(35.545349%, 29.005432%, 9.773254%)" offset="0.644531"/><stop stop-opacity="1" stop-color="rgb(35.154724%, 28.686523%, 9.666443%)" offset="0.648438"/><stop stop-opacity="1" stop-color="rgb(34.764099%, 28.367615%, 9.559631%)" offset="0.652344"/><stop stop-opacity="1" stop-color="rgb(34.373474%, 28.048706%, 9.45282%)" offset="0.65625"/><stop stop-opacity="1" stop-color="rgb(33.982849%, 27.729797%, 9.344482%)" offset="0.660156"/><stop stop-opacity="1" stop-color="rgb(33.592224%, 27.412415%, 9.237671%)" offset="0.664063"/><stop stop-opacity="1" stop-color="rgb(33.201599%, 27.093506%, 9.129333%)" offset="0.667969"/><stop stop-opacity="1" stop-color="rgb(32.810974%, 26.774597%, 9.022522%)" offset="0.671875"/><stop stop-opacity="1" stop-color="rgb(32.420349%, 26.455688%, 8.914185%)" offset="0.675781"/><stop stop-opacity="1" stop-color="rgb(32.029724%, 26.13678%, 8.807373%)" offset="0.679688"/><stop stop-opacity="1" stop-color="rgb(31.639099%, 25.817871%, 8.699036%)" offset="0.683594"/><stop stop-opacity="1" stop-color="rgb(31.248474%, 25.498962%, 8.592224%)" offset="0.6875"/><stop stop-opacity="1" stop-color="rgb(30.857849%, 25.180054%, 8.485413%)" offset="0.691406"/><stop stop-opacity="1" stop-color="rgb(30.467224%, 24.861145%, 8.378601%)" offset="0.695313"/><stop stop-opacity="1" stop-color="rgb(30.076599%, 24.542236%, 8.270264%)" offset="0.699219"/><stop stop-opacity="1" stop-color="rgb(29.685974%, 24.224854%, 8.163452%)" offset="0.703125"/><stop stop-opacity="1" stop-color="rgb(29.295349%, 23.905945%, 8.055115%)" offset="0.707031"/><stop stop-opacity="1" stop-color="rgb(28.904724%, 23.587036%, 7.948303%)" offset="0.710938"/><stop stop-opacity="1" stop-color="rgb(28.514099%, 23.268127%, 7.839966%)" offset="0.714844"/><stop stop-opacity="1" stop-color="rgb(28.123474%, 22.949219%, 7.733154%)" offset="0.71875"/><stop stop-opacity="1" stop-color="rgb(27.732849%, 22.63031%, 7.624817%)" offset="0.722656"/><stop stop-opacity="1" stop-color="rgb(27.342224%, 22.311401%, 7.518005%)" offset="0.726563"/><stop stop-opacity="1" stop-color="rgb(26.951599%, 21.992493%, 7.411194%)" offset="0.730469"/><stop stop-opacity="1" stop-color="rgb(26.560974%, 21.673584%, 7.304382%)" offset="0.734375"/><stop stop-opacity="1" stop-color="rgb(26.170349%, 21.354675%, 7.196045%)" offset="0.738281"/><stop stop-opacity="1" stop-color="rgb(25.779724%, 21.037292%, 7.089233%)" offset="0.742188"/><stop stop-opacity="1" stop-color="rgb(25.389099%, 20.718384%, 6.980896%)" offset="0.746094"/><stop stop-opacity="1" stop-color="rgb(24.998474%, 20.399475%, 6.874084%)" offset="0.75"/><stop stop-opacity="1" stop-color="rgb(24.607849%, 20.080566%, 6.765747%)" offset="0.753906"/><stop stop-opacity="1" stop-color="rgb(24.217224%, 19.761658%, 6.658936%)" offset="0.757812"/><stop stop-opacity="1" stop-color="rgb(23.826599%, 19.442749%, 6.550598%)" offset="0.761719"/><stop stop-opacity="1" stop-color="rgb(23.435974%, 19.12384%, 6.443787%)" offset="0.765625"/><stop stop-opacity="1" stop-color="rgb(23.045349%, 18.804932%, 6.336975%)" offset="0.769531"/><stop stop-opacity="1" stop-color="rgb(22.654724%, 18.486023%, 6.230164%)" offset="0.773438"/><stop stop-opacity="1" stop-color="rgb(22.264099%, 18.167114%, 6.121826%)" offset="0.777344"/><stop stop-opacity="1" stop-color="rgb(21.873474%, 17.849731%, 6.015015%)" offset="0.78125"/><stop stop-opacity="1" stop-color="rgb(21.482849%, 17.530823%, 5.906677%)" offset="0.785156"/><stop stop-opacity="1" stop-color="rgb(21.092224%, 17.211914%, 5.799866%)" offset="0.789062"/><stop stop-opacity="1" stop-color="rgb(20.701599%, 16.893005%, 5.691528%)" offset="0.792969"/><stop stop-opacity="1" stop-color="rgb(20.310974%, 16.574097%, 5.584717%)" offset="0.796875"/><stop stop-opacity="1" stop-color="rgb(19.920349%, 16.255188%, 5.476379%)" offset="0.800781"/><stop stop-opacity="1" stop-color="rgb(19.529724%, 15.936279%, 5.369568%)" offset="0.804687"/><stop stop-opacity="1" stop-color="rgb(19.139099%, 15.617371%, 5.262756%)" offset="0.808594"/><stop stop-opacity="1" stop-color="rgb(18.748474%, 15.298462%, 5.155945%)" offset="0.8125"/><stop stop-opacity="1" stop-color="rgb(18.357849%, 14.979553%, 5.047607%)" offset="0.816406"/><stop stop-opacity="1" stop-color="rgb(17.967224%, 14.66217%, 4.940796%)" offset="0.820312"/><stop stop-opacity="1" stop-color="rgb(17.576599%, 14.343262%, 4.832458%)" offset="0.824219"/><stop stop-opacity="1" stop-color="rgb(17.185974%, 14.024353%, 4.725647%)" offset="0.828125"/><stop stop-opacity="1" stop-color="rgb(16.795349%, 13.705444%, 4.61731%)" offset="0.832031"/><stop stop-opacity="1" stop-color="rgb(16.404724%, 13.386536%, 4.510498%)" offset="0.835937"/><stop stop-opacity="1" stop-color="rgb(16.014099%, 13.067627%, 4.402161%)" offset="0.839844"/><stop stop-opacity="1" stop-color="rgb(15.623474%, 12.748718%, 4.295349%)" offset="0.84375"/><stop stop-opacity="1" stop-color="rgb(15.232849%, 12.42981%, 4.188538%)" offset="0.847656"/><stop stop-opacity="1" stop-color="rgb(14.842224%, 12.112427%, 4.081726%)" offset="0.851562"/><stop stop-opacity="1" stop-color="rgb(14.451599%, 11.793518%, 3.973389%)" offset="0.855469"/><stop stop-opacity="1" stop-color="rgb(14.060974%, 11.474609%, 3.866577%)" offset="0.859375"/><stop stop-opacity="1" stop-color="rgb(13.670349%, 11.155701%, 3.75824%)" offset="0.863281"/><stop stop-opacity="1" stop-color="rgb(13.279724%, 10.836792%, 3.651428%)" offset="0.867187"/><stop stop-opacity="1" stop-color="rgb(12.889099%, 10.517883%, 3.543091%)" offset="0.871094"/><stop stop-opacity="1" stop-color="rgb(12.498474%, 10.198975%, 3.436279%)" offset="0.875"/><stop stop-opacity="1" stop-color="rgb(12.107849%, 9.880066%, 3.327942%)" offset="0.878906"/><stop stop-opacity="1" stop-color="rgb(11.717224%, 9.561157%, 3.22113%)" offset="0.882812"/><stop stop-opacity="1" stop-color="rgb(11.326599%, 9.242249%, 3.114319%)" offset="0.886719"/><stop stop-opacity="1" stop-color="rgb(10.935974%, 8.924866%, 3.007507%)" offset="0.890625"/><stop stop-opacity="1" stop-color="rgb(10.545349%, 8.605957%, 2.89917%)" offset="0.894531"/><stop stop-opacity="1" stop-color="rgb(10.154724%, 8.287048%, 2.792358%)" offset="0.898437"/><stop stop-opacity="1" stop-color="rgb(9.764099%, 7.96814%, 2.684021%)" offset="0.902344"/><stop stop-opacity="1" stop-color="rgb(9.373474%, 7.649231%, 2.577209%)" offset="0.90625"/><stop stop-opacity="1" stop-color="rgb(8.982849%, 7.330322%, 2.468872%)" offset="0.910156"/><stop stop-opacity="1" stop-color="rgb(8.592224%, 7.011414%, 2.362061%)" offset="0.914062"/><stop stop-opacity="1" stop-color="rgb(8.201599%, 6.692505%, 2.253723%)" offset="0.917969"/><stop stop-opacity="1" stop-color="rgb(7.810974%, 6.373596%, 2.146912%)" offset="0.921875"/><stop stop-opacity="1" stop-color="rgb(7.420349%, 6.054688%, 2.0401%)" offset="0.925781"/><stop stop-opacity="1" stop-color="rgb(7.029724%, 5.737305%, 1.933289%)" offset="0.929687"/><stop stop-opacity="1" stop-color="rgb(6.639099%, 5.418396%, 1.824951%)" offset="0.933594"/><stop stop-opacity="1" stop-color="rgb(6.248474%, 5.099487%, 1.71814%)" offset="0.9375"/><stop stop-opacity="1" stop-color="rgb(5.857849%, 4.780579%, 1.609802%)" offset="0.941406"/><stop stop-opacity="1" stop-color="rgb(5.467224%, 4.46167%, 1.502991%)" offset="0.945312"/><stop stop-opacity="1" stop-color="rgb(5.076599%, 4.142761%, 1.394653%)" offset="0.949219"/><stop stop-opacity="1" stop-color="rgb(4.685974%, 3.823853%, 1.287842%)" offset="0.953125"/><stop stop-opacity="1" stop-color="rgb(4.295349%, 3.504944%, 1.179504%)" offset="0.957031"/><stop stop-opacity="1" stop-color="rgb(3.904724%, 3.186035%, 1.072693%)" offset="0.960937"/><stop stop-opacity="1" stop-color="rgb(3.514099%, 2.867126%, 0.965881%)" offset="0.964844"/><stop stop-opacity="1" stop-color="rgb(3.123474%, 2.549744%, 0.85907%)" offset="0.96875"/><stop stop-opacity="1" stop-color="rgb(2.732849%, 2.230835%, 0.750732%)" offset="0.972656"/><stop stop-opacity="1" stop-color="rgb(2.342224%, 1.911926%, 0.643921%)" offset="0.976562"/><stop stop-opacity="1" stop-color="rgb(1.951599%, 1.593018%, 0.535583%)" offset="0.980469"/><stop stop-opacity="1" stop-color="rgb(1.560974%, 1.274109%, 0.428772%)" offset="0.984375"/><stop stop-opacity="1" stop-color="rgb(1.170349%, 0.9552%, 0.320435%)" offset="0.988281"/><stop stop-opacity="1" stop-color="rgb(0.779724%, 0.636292%, 0.213623%)" offset="0.992187"/><stop stop-opacity="1" stop-color="rgb(0.389099%, 0.317383%, 0.106812%)" offset="0.996094"/><stop stop-opacity="1" stop-color="rgb(0%, 0%, 0%)" offset="1"/></linearGradient></defs><g clip-path="url(#f4d8265940)"><g clip-path="url(#0fd8655cde)"><path fill="url(#94a79910a8)" d="M 153.285156 75.398438 L 153.285156 213.398438 L 286.394531 213.398438 L 286.394531 75.398438 Z M 153.285156 75.398438 " fill-rule="nonzero"/></g></g><g fill="#0085ca" fill-opacity="1"><g transform="translate(100.581149, 249.720916)"><g><path d="M 5.867188 -23.472656 C 3.285156 -23.472656 1.171875 -21.359375 1.171875 -18.777344 L 1.171875 0 L 5.867188 0 L 5.867188 -9.390625 L 19.953125 -9.390625 L 19.953125 0 L 24.644531 0 L 24.644531 -18.777344 C 24.644531 -21.359375 22.53125 -23.472656 19.953125 -23.472656 Z M 5.867188 -18.777344 L 19.953125 -18.777344 L 19.953125 -14.082031 L 5.867188 -14.082031 Z M 5.867188 -18.777344 "/></g></g></g><g fill="#0085ca" fill-opacity="1"><g transform="translate(130.942017, 249.720916)"><g><path d="M 5.867188 -23.472656 C 3.285156 -23.472656 1.171875 -21.359375 1.171875 -18.777344 L 1.171875 -4.695312 C 1.171875 -2.113281 3.285156 0 5.867188 0 L 10.5625 0 L 10.5625 2.347656 L 15.257812 2.347656 L 15.257812 0 L 19.953125 0 C 22.5625 0 24.644531 -2.140625 24.644531 -4.695312 L 24.644531 -18.777344 C 24.644531 -21.359375 22.53125 -23.472656 19.953125 -23.472656 Z M 15.257812 -4.695312 L 15.257812 -9.390625 L 10.5625 -9.390625 L 10.5625 -4.695312 L 5.867188 -4.695312 L 5.867188 -18.777344 L 19.953125 -18.777344 L 19.953125 -4.695312 Z M 15.257812 -4.695312 "/></g></g></g><g fill="#0085ca" fill-opacity="1"><g transform="translate(161.302884, 249.720916)"><g><path d="M 19.953125 0 C 22.53125 0 24.644531 -2.113281 24.644531 -4.695312 L 24.644531 -23.472656 L 19.953125 -23.472656 L 19.953125 -4.695312 L 5.867188 -4.695312 L 5.867188 -23.472656 L 1.171875 -23.472656 L 1.171875 -4.695312 C 1.171875 -2.113281 3.285156 0 5.867188 0 Z M 19.953125 0 "/></g></g></g><g fill="#0085ca" fill-opacity="1"><g transform="translate(191.663754, 249.720916)"><g><path d="M 5.867188 -23.472656 C 3.285156 -23.472656 1.171875 -21.359375 1.171875 -18.777344 L 1.171875 0 L 5.867188 0 L 5.867188 -9.390625 L 19.953125 -9.390625 L 19.953125 0 L 24.644531 0 L 24.644531 -18.777344 C 24.644531 -21.359375 22.53125 -23.472656 19.953125 -23.472656 Z M 5.867188 -18.777344 L 19.953125 -18.777344 L 19.953125 -14.082031 L 5.867188 -14.082031 Z M 5.867188 -18.777344 "/></g></g></g><g fill="#0085ca" fill-opacity="1"><g transform="translate(222.024618, 249.720916)"><g><path d="M 12.910156 0 C 13.9375 0 14.992188 -0.382812 15.84375 -1.113281 L 23.765625 -7.921875 C 24.324219 -8.421875 24.617188 -9.035156 24.617188 -9.800781 L 24.644531 -23.472656 L 19.953125 -23.472656 L 19.953125 -10.855469 L 12.910156 -4.78125 L 5.867188 -10.855469 L 5.867188 -23.472656 L 1.171875 -23.472656 L 1.171875 -9.800781 C 1.171875 -9.066406 1.496094 -8.421875 2.054688 -7.921875 L 9.976562 -1.113281 C 10.855469 -0.382812 11.882812 0 12.910156 0 Z M 12.910156 0 "/></g></g></g><g fill="#0085ca" fill-opacity="1"><g transform="translate(252.385483, 249.720916)"><g><path d="M 24.644531 0 L 24.644531 -4.695312 L 15.257812 -4.695312 L 15.257812 -18.777344 L 24.644531 -18.777344 L 24.644531 -23.472656 L 1.171875 -23.472656 L 1.171875 -18.777344 L 10.5625 -18.777344 L 10.5625 -4.695312 L 1.171875 -4.695312 L 1.171875 0 Z M 24.644531 0 "/></g></g></g><g fill="#0085ca" fill-opacity="1"><g transform="translate(282.746347, 249.720916)"><g><path d="M 24.644531 -23.472656 L 5.867188 -23.472656 C 3.285156 -23.472656 1.171875 -21.359375 1.171875 -18.777344 L 1.171875 -4.695312 C 1.171875 -2.113281 3.285156 0 5.867188 0 L 24.644531 0 L 24.644531 -4.695312 L 5.867188 -4.695312 L 5.867188 -9.390625 L 24.644531 -9.390625 L 24.644531 -14.082031 L 5.867188 -14.082031 L 5.867188 -18.777344 L 24.644531 -18.777344 Z M 24.644531 -23.472656 "/></g></g></g><g fill="#0085ca" fill-opacity="1"><g transform="translate(313.107211, 249.720916)"><g><path d="M 19.953125 -4.695312 L 15.257812 -4.695312 L 15.257812 -23.472656 L 10.5625 -23.472656 L 10.5625 -4.695312 L 5.867188 -4.695312 L 5.867188 -23.472656 L 1.171875 -23.472656 L 1.171875 -4.695312 C 1.171875 -2.113281 3.285156 0 5.867188 0 L 19.953125 0 C 22.53125 0 24.644531 -2.113281 24.644531 -4.695312 L 24.644531 -23.472656 L 19.953125 -23.472656 Z M 19.953125 -4.695312 "/></g></g></g></svg>