<svg xmlns="http://www.w3.org/2000/svg" xmlns:xlink="http://www.w3.org/1999/xlink" width="985" zoomAndPan="magnify" viewBox="0 0 738.75 389.249997" height="519" preserveAspectRatio="xMidYMid meet" version="1.0"><defs><g/><clipPath id="d84a0db26d"><path d="M 95 74.976562 L 294 74.976562 L 294 313.097656 L 95 313.097656 Z M 95 74.976562 " clip-rule="nonzero"/></clipPath><clipPath id="49ccc90347"><path d="M 75.679688 74.976562 L 174 74.976562 L 174 222 L 75.679688 222 Z M 75.679688 74.976562 " clip-rule="nonzero"/></clipPath><clipPath id="9430a58b74"><path d="M 215 74.976562 L 313.800781 74.976562 L 313.800781 222 L 215 222 Z M 215 74.976562 " clip-rule="nonzero"/></clipPath></defs><path fill="#000000" d="M 174.898438 114.664062 L 214.585938 114.664062 L 214.585938 122.601562 L 174.898438 122.601562 Z M 174.898438 114.664062 " fill-opacity="1" fill-rule="nonzero"/><path fill="#000000" d="M 174.898438 130.539062 L 214.585938 130.539062 L 214.585938 138.476562 L 174.898438 138.476562 Z M 174.898438 130.539062 " fill-opacity="1" fill-rule="nonzero"/><g clip-path="url(#d84a0db26d)"><path fill="#000000" d="M 293.957031 281.347656 L 293.957031 249.597656 C 293.957031 247.835938 292.796875 246.285156 291.101562 245.789062 L 198.710938 218.839844 L 198.710938 170.222656 L 226.492188 170.222656 C 228.683594 170.222656 230.460938 168.445312 230.460938 166.253906 L 230.460938 102.757812 C 230.460938 101.703125 230.042969 100.691406 229.296875 99.949219 L 205.484375 76.136719 C 204.742188 75.390625 203.734375 74.976562 202.679688 74.976562 L 162.992188 74.976562 C 160.796875 74.976562 159.023438 76.753906 159.023438 78.945312 L 159.023438 166.253906 C 159.023438 168.445312 160.796875 170.222656 162.992188 170.222656 L 190.773438 170.222656 L 190.773438 218.839844 L 98.378906 245.789062 C 96.6875 246.285156 95.523438 247.835938 95.523438 249.597656 L 95.523438 281.347656 C 95.523438 283.109375 96.6875 284.660156 98.378906 285.15625 L 193.628906 312.9375 C 193.996094 313.046875 194.363281 313.097656 194.742188 313.097656 C 195.117188 313.097656 195.488281 313.046875 195.851562 312.9375 L 291.101562 285.15625 C 292.796875 284.660156 293.957031 283.109375 293.957031 281.347656 Z M 206.648438 88.523438 L 216.910156 98.789062 L 206.648438 98.789062 Z M 166.960938 82.914062 L 198.710938 82.914062 L 198.710938 102.757812 C 198.710938 104.949219 200.484375 106.726562 202.679688 106.726562 L 222.523438 106.726562 L 222.523438 162.289062 L 166.960938 162.289062 Z M 190.773438 227.109375 L 190.773438 247.957031 L 181.671875 238.855469 L 176.058594 244.46875 L 191.933594 260.339844 C 192.707031 261.117188 193.726562 261.503906 194.742188 261.503906 C 195.757812 261.503906 196.773438 261.117188 197.546875 260.339844 L 213.421875 244.46875 L 207.808594 238.855469 L 198.710938 247.957031 L 198.710938 227.109375 L 275.816406 249.597656 L 194.742188 273.242188 L 113.664062 249.597656 Z M 103.460938 254.890625 L 190.773438 280.355469 L 190.773438 303.839844 L 103.460938 278.371094 Z M 198.710938 303.839844 L 198.710938 280.355469 L 286.019531 254.890625 L 286.019531 278.371094 Z M 198.710938 303.839844 " fill-opacity="1" fill-rule="nonzero"/></g><path fill="#000000" d="M 174.898438 98.789062 L 190.773438 98.789062 L 190.773438 106.726562 L 174.898438 106.726562 Z M 174.898438 98.789062 " fill-opacity="1" fill-rule="nonzero"/><g clip-path="url(#49ccc90347)"><path fill="#000000" d="M 79.648438 170.222656 L 107.429688 170.222656 C 107.429688 181.167969 116.332031 190.066406 127.273438 190.066406 L 139.179688 190.066406 C 145.742188 190.066406 151.085938 195.410156 151.085938 201.972656 L 151.085938 208.269531 L 141.984375 199.167969 L 136.375 204.78125 L 152.246094 220.65625 C 153.023438 221.429688 154.039062 221.816406 155.054688 221.816406 C 156.070312 221.816406 157.085938 221.429688 157.859375 220.65625 L 173.734375 204.78125 L 168.121094 199.167969 L 159.023438 208.269531 L 159.023438 201.972656 C 159.023438 191.03125 150.121094 182.128906 139.179688 182.128906 L 127.273438 182.128906 C 120.707031 182.128906 115.367188 176.789062 115.367188 170.222656 L 143.148438 170.222656 C 145.34375 170.222656 147.117188 168.445312 147.117188 166.253906 L 147.117188 102.757812 C 147.117188 101.703125 146.699219 100.691406 145.953125 99.949219 L 122.140625 76.136719 C 121.398438 75.390625 120.390625 74.976562 119.335938 74.976562 L 79.648438 74.976562 C 77.453125 74.976562 75.679688 76.753906 75.679688 78.945312 L 75.679688 166.253906 C 75.679688 168.445312 77.453125 170.222656 79.648438 170.222656 Z M 123.304688 88.523438 L 133.566406 98.789062 L 123.304688 98.789062 Z M 83.617188 82.914062 L 115.367188 82.914062 L 115.367188 102.757812 C 115.367188 104.949219 117.140625 106.726562 119.335938 106.726562 L 139.179688 106.726562 L 139.179688 162.289062 L 83.617188 162.289062 Z M 83.617188 82.914062 " fill-opacity="1" fill-rule="nonzero"/></g><path fill="#000000" d="M 91.554688 114.664062 L 131.242188 114.664062 L 131.242188 122.601562 L 91.554688 122.601562 Z M 91.554688 114.664062 " fill-opacity="1" fill-rule="nonzero"/><path fill="#000000" d="M 91.554688 130.539062 L 131.242188 130.539062 L 131.242188 138.476562 L 91.554688 138.476562 Z M 91.554688 130.539062 " fill-opacity="1" fill-rule="nonzero"/><path fill="#000000" d="M 91.554688 146.414062 L 131.242188 146.414062 L 131.242188 154.351562 L 91.554688 154.351562 Z M 91.554688 146.414062 " fill-opacity="1" fill-rule="nonzero"/><path fill="#000000" d="M 91.554688 98.789062 L 107.429688 98.789062 L 107.429688 106.726562 L 91.554688 106.726562 Z M 91.554688 98.789062 " fill-opacity="1" fill-rule="nonzero"/><g clip-path="url(#9430a58b74)"><path fill="#000000" d="M 313.800781 166.253906 L 313.800781 102.757812 C 313.800781 101.703125 313.386719 100.691406 312.640625 99.949219 L 288.828125 76.136719 C 288.085938 75.390625 287.078125 74.976562 286.019531 74.976562 L 246.332031 74.976562 C 244.140625 74.976562 242.363281 76.753906 242.363281 78.945312 L 242.363281 166.253906 C 242.363281 168.445312 244.140625 170.222656 246.332031 170.222656 L 274.113281 170.222656 C 274.113281 176.789062 268.773438 182.128906 262.207031 182.128906 L 250.300781 182.128906 C 239.359375 182.128906 230.460938 191.03125 230.460938 201.972656 L 230.460938 208.269531 L 221.359375 199.167969 L 215.746094 204.78125 L 231.621094 220.65625 C 232.394531 221.429688 233.410156 221.816406 234.429688 221.816406 C 235.445312 221.816406 236.460938 221.429688 237.234375 220.65625 L 253.109375 204.78125 L 247.496094 199.167969 L 238.394531 208.269531 L 238.394531 201.972656 C 238.394531 195.410156 243.738281 190.066406 250.300781 190.066406 L 262.207031 190.066406 C 273.148438 190.066406 282.050781 181.167969 282.050781 170.222656 L 309.832031 170.222656 C 312.027344 170.222656 313.800781 168.445312 313.800781 166.253906 Z M 289.988281 88.523438 L 300.253906 98.789062 L 289.988281 98.789062 Z M 250.300781 162.289062 L 250.300781 82.914062 L 282.050781 82.914062 L 282.050781 102.757812 C 282.050781 104.949219 283.824219 106.726562 286.019531 106.726562 L 305.863281 106.726562 L 305.863281 162.289062 Z M 250.300781 162.289062 " fill-opacity="1" fill-rule="nonzero"/></g><path fill="#000000" d="M 258.238281 114.664062 L 297.925781 114.664062 L 297.925781 122.601562 L 258.238281 122.601562 Z M 258.238281 114.664062 " fill-opacity="1" fill-rule="nonzero"/><path fill="#000000" d="M 258.238281 130.539062 L 297.925781 130.539062 L 297.925781 138.476562 L 258.238281 138.476562 Z M 258.238281 130.539062 " fill-opacity="1" fill-rule="nonzero"/><path fill="#000000" d="M 258.238281 146.414062 L 297.925781 146.414062 L 297.925781 154.351562 L 258.238281 154.351562 Z M 258.238281 146.414062 " fill-opacity="1" fill-rule="nonzero"/><path fill="#000000" d="M 258.238281 98.789062 L 274.113281 98.789062 L 274.113281 106.726562 L 258.238281 106.726562 Z M 258.238281 98.789062 " fill-opacity="1" fill-rule="nonzero"/><path fill="#000000" d="M 174.898438 146.414062 L 182.835938 146.414062 L 182.835938 154.351562 L 174.898438 154.351562 Z M 174.898438 146.414062 " fill-opacity="1" fill-rule="nonzero"/><path fill="#000000" d="M 190.773438 146.414062 L 198.710938 146.414062 L 198.710938 154.351562 L 190.773438 154.351562 Z M 190.773438 146.414062 " fill-opacity="1" fill-rule="nonzero"/><path fill="#000000" d="M 206.648438 146.414062 L 214.585938 146.414062 L 214.585938 154.351562 L 206.648438 154.351562 Z M 206.648438 146.414062 " fill-opacity="1" fill-rule="nonzero"/><g fill="#000000" fill-opacity="1"><g transform="translate(425.628599, 170.96459)"><g><path d="M 25.71875 -4.59375 C 24.476562 -2.9375 22.894531 -1.660156 20.96875 -0.765625 C 19.039062 0.117188 16.925781 0.5625 14.625 0.5625 C 10.59375 0.5625 7.335938 -0.703125 4.859375 -3.234375 C 2.378906 -5.765625 1.140625 -9.085938 1.140625 -13.203125 C 1.140625 -17.941406 2.722656 -21.628906 5.890625 -24.265625 C 8.492188 -26.398438 11.4375 -27.46875 14.71875 -27.46875 C 16.71875 -27.46875 18.707031 -27.144531 20.6875 -26.5 C 21.332031 -26.25 21.875 -26.125 22.3125 -26.125 C 23.175781 -26.125 23.734375 -26.570312 23.984375 -27.46875 L 24.828125 -27.46875 L 25.203125 -18.28125 L 24.265625 -18.28125 C 23.878906 -19.613281 23.5 -20.628906 23.125 -21.328125 C 22.75 -22.035156 22.234375 -22.71875 21.578125 -23.375 C 19.921875 -25.019531 17.90625 -25.84375 15.53125 -25.84375 C 12.570312 -25.84375 10.21875 -24.742188 8.46875 -22.546875 C 6.726562 -20.359375 5.859375 -17.421875 5.859375 -13.734375 C 5.859375 -8.890625 7.101562 -5.4375 9.59375 -3.375 C 11.320312 -1.9375 13.4375 -1.21875 15.9375 -1.21875 C 19.132812 -1.21875 22.15625 -2.585938 25 -5.328125 Z M 25.71875 -4.59375 "/></g></g></g><g fill="#000000" fill-opacity="1"><g transform="translate(452.728898, 170.96459)"><g><path d="M 19.09375 -9.515625 C 19.09375 -6.691406 18.226562 -4.332031 16.5 -2.4375 C 14.769531 -0.539062 12.628906 0.40625 10.078125 0.40625 C 7.535156 0.40625 5.414062 -0.503906 3.71875 -2.328125 C 2.019531 -4.160156 1.171875 -6.445312 1.171875 -9.1875 C 1.171875 -11.976562 2.003906 -14.257812 3.671875 -16.03125 C 5.335938 -17.800781 7.5 -18.6875 10.15625 -18.6875 C 12.757812 -18.6875 14.898438 -17.820312 16.578125 -16.09375 C 18.253906 -14.363281 19.09375 -12.171875 19.09375 -9.515625 Z M 15.4375 -8.09375 C 15.4375 -10.882812 14.894531 -13.160156 13.8125 -14.921875 C 12.726562 -16.679688 11.332031 -17.5625 9.625 -17.5625 C 8.195312 -17.5625 7.039062 -16.976562 6.15625 -15.8125 C 5.28125 -14.644531 4.84375 -13.097656 4.84375 -11.171875 C 4.84375 -8.171875 5.4375 -5.554688 6.625 -3.328125 C 7.539062 -1.597656 8.851562 -0.734375 10.5625 -0.734375 C 12.082031 -0.734375 13.273438 -1.382812 14.140625 -2.6875 C 15.003906 -3.988281 15.4375 -5.789062 15.4375 -8.09375 Z M 15.4375 -8.09375 "/></g></g></g><g fill="#000000" fill-opacity="1"><g transform="translate(473.04397, 170.96459)"><g><path d="M 31.5 0 L 22.59375 0 L 22.59375 -0.609375 C 23.789062 -0.742188 24.535156 -0.972656 24.828125 -1.296875 C 25.128906 -1.617188 25.28125 -2.363281 25.28125 -3.53125 L 25.28125 -12.109375 C 25.28125 -13.785156 25.0625 -14.945312 24.625 -15.59375 C 24.195312 -16.25 23.398438 -16.578125 22.234375 -16.578125 C 20.441406 -16.578125 18.960938 -15.753906 17.796875 -14.109375 L 17.796875 -3.859375 C 17.796875 -2.585938 17.992188 -1.734375 18.390625 -1.296875 C 18.785156 -0.867188 19.566406 -0.640625 20.734375 -0.609375 L 20.734375 0 L 11.625 0 L 11.625 -0.609375 C 12.789062 -0.691406 13.539062 -0.90625 13.875 -1.25 C 14.21875 -1.601562 14.390625 -2.351562 14.390625 -3.5 L 14.390625 -12.3125 C 14.390625 -15.15625 13.492188 -16.578125 11.703125 -16.578125 C 10.992188 -16.578125 10.25 -16.421875 9.46875 -16.109375 C 8.6875 -15.796875 8.035156 -15.410156 7.515625 -14.953125 L 6.90625 -14.1875 L 6.90625 -2.71875 C 6.90625 -1.9375 7.09375 -1.398438 7.46875 -1.109375 C 7.851562 -0.828125 8.585938 -0.660156 9.671875 -0.609375 L 9.671875 0 L 0.65625 0 L 0.65625 -0.609375 C 1.789062 -0.640625 2.546875 -0.84375 2.921875 -1.21875 C 3.304688 -1.59375 3.5 -2.335938 3.5 -3.453125 L 3.5 -13.734375 C 3.5 -14.710938 3.394531 -15.390625 3.1875 -15.765625 C 2.988281 -16.148438 2.617188 -16.34375 2.078125 -16.34375 C 1.671875 -16.34375 1.234375 -16.285156 0.765625 -16.171875 L 0.765625 -16.859375 C 2.722656 -17.398438 4.625 -18.007812 6.46875 -18.6875 L 6.75 -18.609375 L 6.75 -15.5625 C 8.425781 -16.832031 9.671875 -17.671875 10.484375 -18.078125 C 11.296875 -18.484375 12.148438 -18.6875 13.046875 -18.6875 C 15.179688 -18.6875 16.617188 -17.550781 17.359375 -15.28125 C 19.472656 -17.550781 21.679688 -18.6875 23.984375 -18.6875 C 27.117188 -18.6875 28.6875 -16.273438 28.6875 -11.453125 L 28.6875 -3.09375 C 28.6875 -1.570312 29.269531 -0.769531 30.4375 -0.6875 L 31.5 -0.609375 Z M 31.5 0 "/></g></g></g><g fill="#000000" fill-opacity="1"><g transform="translate(504.654226, 170.96459)"><g><path d="M 19.015625 -9.875 C 19.015625 -6.976562 18.097656 -4.539062 16.265625 -2.5625 C 14.441406 -0.582031 12.191406 0.40625 9.515625 0.40625 C 7.890625 0.40625 6.363281 0.128906 4.9375 -0.421875 C 3.507812 -0.984375 2.796875 -1.570312 2.796875 -2.1875 L 2.796875 -23.28125 C 2.796875 -24.125 2.664062 -24.679688 2.40625 -24.953125 C 2.15625 -25.222656 1.625 -25.359375 0.8125 -25.359375 C 0.507812 -25.359375 0.28125 -25.34375 0.125 -25.3125 L 0.125 -25.96875 L 1.296875 -26.296875 C 3.109375 -26.804688 4.679688 -27.289062 6.015625 -27.75 L 6.21875 -27.671875 L 6.21875 -15.234375 C 6.625 -16.242188 7.351562 -17.070312 8.40625 -17.71875 C 9.46875 -18.363281 10.617188 -18.6875 11.859375 -18.6875 C 13.898438 -18.6875 15.601562 -17.835938 16.96875 -16.140625 C 18.332031 -14.453125 19.015625 -12.363281 19.015625 -9.875 Z M 15.4375 -8 C 15.4375 -10.46875 14.96875 -12.441406 14.03125 -13.921875 C 13.101562 -15.398438 11.835938 -16.140625 10.234375 -16.140625 C 9.179688 -16.140625 8.25 -15.828125 7.4375 -15.203125 C 6.625 -14.578125 6.21875 -13.875 6.21875 -13.09375 L 6.21875 -2.84375 C 6.21875 -2.332031 6.609375 -1.878906 7.390625 -1.484375 C 8.179688 -1.085938 9.101562 -0.890625 10.15625 -0.890625 C 11.84375 -0.890625 13.144531 -1.515625 14.0625 -2.765625 C 14.976562 -4.015625 15.4375 -5.757812 15.4375 -8 Z M 15.4375 -8 "/></g></g></g><g fill="#000000" fill-opacity="1"><g transform="translate(524.969299, 170.96459)"><g><path d="M 10.28125 0 L 0.65625 0 L 0.65625 -0.609375 C 2.0625 -0.691406 2.945312 -0.9375 3.3125 -1.34375 C 3.675781 -1.75 3.859375 -2.679688 3.859375 -4.140625 L 3.859375 -13.578125 C 3.859375 -14.472656 3.753906 -15.101562 3.546875 -15.46875 C 3.347656 -15.832031 3.003906 -16.015625 2.515625 -16.015625 C 2.085938 -16.015625 1.628906 -15.972656 1.140625 -15.890625 L 0.8125 -15.84375 L 0.8125 -16.453125 L 7.109375 -18.6875 L 7.28125 -18.578125 L 7.28125 -4.140625 C 7.28125 -2.679688 7.445312 -1.753906 7.78125 -1.359375 C 8.125 -0.960938 8.957031 -0.710938 10.28125 -0.609375 Z M 7.640625 -23.984375 C 7.640625 -23.378906 7.441406 -22.878906 7.046875 -22.484375 C 6.660156 -22.097656 6.164062 -21.90625 5.5625 -21.90625 C 5 -21.90625 4.515625 -22.097656 4.109375 -22.484375 C 3.703125 -22.878906 3.5 -23.378906 3.5 -23.984375 C 3.5 -24.546875 3.703125 -25.03125 4.109375 -25.4375 C 4.515625 -25.84375 5 -26.046875 5.5625 -26.046875 C 6.164062 -26.046875 6.660156 -25.84375 7.046875 -25.4375 C 7.441406 -25.03125 7.640625 -24.546875 7.640625 -23.984375 Z M 7.640625 -23.984375 "/></g></g></g><g fill="#000000" fill-opacity="1"><g transform="translate(536.264482, 170.96459)"><g><path d="M 19.703125 0 L 11.25 0 L 11.25 -0.609375 C 12.28125 -0.691406 12.960938 -0.960938 13.296875 -1.421875 C 13.640625 -1.878906 13.8125 -2.742188 13.8125 -4.015625 L 13.8125 -12.515625 C 13.8125 -15.140625 12.820312 -16.453125 10.84375 -16.453125 C 10.164062 -16.453125 9.539062 -16.296875 8.96875 -15.984375 C 8.40625 -15.679688 7.640625 -15.066406 6.671875 -14.140625 L 6.671875 -2.71875 C 6.671875 -1.988281 6.859375 -1.472656 7.234375 -1.171875 C 7.609375 -0.878906 8.3125 -0.691406 9.34375 -0.609375 L 9.34375 0 L 0.734375 0 L 0.734375 -0.609375 C 1.765625 -0.691406 2.441406 -0.925781 2.765625 -1.3125 C 3.085938 -1.707031 3.25 -2.488281 3.25 -3.65625 L 3.25 -13.734375 C 3.25 -14.734375 3.140625 -15.414062 2.921875 -15.78125 C 2.703125 -16.15625 2.3125 -16.34375 1.75 -16.34375 C 1.226562 -16.34375 0.863281 -16.285156 0.65625 -16.171875 L 0.65625 -16.859375 C 2.65625 -17.460938 4.523438 -18.070312 6.265625 -18.6875 L 6.546875 -18.609375 L 6.546875 -15.40625 C 7.921875 -16.707031 9.007812 -17.578125 9.8125 -18.015625 C 10.613281 -18.460938 11.488281 -18.6875 12.4375 -18.6875 C 13.925781 -18.6875 15.097656 -18.148438 15.953125 -17.078125 C 16.804688 -16.015625 17.234375 -14.519531 17.234375 -12.59375 L 17.234375 -3.296875 C 17.234375 -2.285156 17.394531 -1.609375 17.71875 -1.265625 C 18.039062 -0.929688 18.703125 -0.710938 19.703125 -0.609375 Z M 19.703125 0 "/></g></g></g><g fill="#000000" fill-opacity="1"><g transform="translate(556.579555, 170.96459)"><g><path d="M 17.234375 -6.375 C 15.472656 -1.851562 12.597656 0.40625 8.609375 0.40625 C 6.285156 0.40625 4.4375 -0.410156 3.0625 -2.046875 C 1.695312 -3.691406 1.015625 -5.910156 1.015625 -8.703125 C 1.015625 -11.648438 1.800781 -14.050781 3.375 -15.90625 C 4.945312 -17.757812 6.992188 -18.6875 9.515625 -18.6875 C 11.679688 -18.6875 13.414062 -17.914062 14.71875 -16.375 C 15.601562 -15.238281 16.179688 -13.53125 16.453125 -11.25 L 3.9375 -11.25 C 4.019531 -8.945312 4.425781 -7.082031 5.15625 -5.65625 C 6.320312 -3.476562 8.03125 -2.390625 10.28125 -2.390625 C 11.582031 -2.390625 12.710938 -2.710938 13.671875 -3.359375 C 14.640625 -4.015625 15.609375 -5.117188 16.578125 -6.671875 Z M 12.3125 -12.5625 C 12.039062 -14.320312 11.617188 -15.539062 11.046875 -16.21875 C 10.484375 -16.894531 9.578125 -17.234375 8.328125 -17.234375 C 5.890625 -17.234375 4.453125 -15.675781 4.015625 -12.5625 Z M 12.3125 -12.5625 "/></g></g></g><g fill="#000000" fill-opacity="1"><g transform="translate(338.804014, 227.109818)"><g><path d="M 12.359375 6.546875 L 11.859375 7.1875 C 10.046875 6.082031 8.4375 4.703125 7.03125 3.046875 C 5.238281 0.984375 3.941406 -1.097656 3.140625 -3.203125 C 2.347656 -5.316406 1.953125 -7.660156 1.953125 -10.234375 C 1.953125 -14.953125 3.390625 -19.070312 6.265625 -22.59375 C 7.015625 -23.539062 7.78125 -24.347656 8.5625 -25.015625 C 9.351562 -25.679688 10.492188 -26.5 11.984375 -27.46875 L 12.359375 -26.828125 C 10.890625 -25.660156 9.78125 -24.625 9.03125 -23.71875 C 8.289062 -22.8125 7.640625 -21.734375 7.078125 -20.484375 C 5.992188 -17.992188 5.453125 -14.617188 5.453125 -10.359375 C 5.453125 -6.429688 5.925781 -3.140625 6.875 -0.484375 C 7.414062 1.023438 8.054688 2.25 8.796875 3.1875 C 9.546875 4.125 10.734375 5.242188 12.359375 6.546875 Z M 12.359375 6.546875 "/></g></g></g><g fill="#000000" fill-opacity="1"><g transform="translate(352.333859, 227.109818)"><g><path d="M 31.5 0 L 22.59375 0 L 22.59375 -0.609375 C 23.789062 -0.742188 24.535156 -0.972656 24.828125 -1.296875 C 25.128906 -1.617188 25.28125 -2.363281 25.28125 -3.53125 L 25.28125 -12.109375 C 25.28125 -13.785156 25.0625 -14.945312 24.625 -15.59375 C 24.195312 -16.25 23.398438 -16.578125 22.234375 -16.578125 C 20.441406 -16.578125 18.960938 -15.753906 17.796875 -14.109375 L 17.796875 -3.859375 C 17.796875 -2.585938 17.992188 -1.734375 18.390625 -1.296875 C 18.785156 -0.867188 19.566406 -0.640625 20.734375 -0.609375 L 20.734375 0 L 11.625 0 L 11.625 -0.609375 C 12.789062 -0.691406 13.539062 -0.90625 13.875 -1.25 C 14.21875 -1.601562 14.390625 -2.351562 14.390625 -3.5 L 14.390625 -12.3125 C 14.390625 -15.15625 13.492188 -16.578125 11.703125 -16.578125 C 10.992188 -16.578125 10.25 -16.421875 9.46875 -16.109375 C 8.6875 -15.796875 8.035156 -15.410156 7.515625 -14.953125 L 6.90625 -14.1875 L 6.90625 -2.71875 C 6.90625 -1.9375 7.09375 -1.398438 7.46875 -1.109375 C 7.851562 -0.828125 8.585938 -0.660156 9.671875 -0.609375 L 9.671875 0 L 0.65625 0 L 0.65625 -0.609375 C 1.789062 -0.640625 2.546875 -0.84375 2.921875 -1.21875 C 3.304688 -1.59375 3.5 -2.335938 3.5 -3.453125 L 3.5 -13.734375 C 3.5 -14.710938 3.394531 -15.390625 3.1875 -15.765625 C 2.988281 -16.148438 2.617188 -16.34375 2.078125 -16.34375 C 1.671875 -16.34375 1.234375 -16.285156 0.765625 -16.171875 L 0.765625 -16.859375 C 2.722656 -17.398438 4.625 -18.007812 6.46875 -18.6875 L 6.75 -18.609375 L 6.75 -15.5625 C 8.425781 -16.832031 9.671875 -17.671875 10.484375 -18.078125 C 11.296875 -18.484375 12.148438 -18.6875 13.046875 -18.6875 C 15.179688 -18.6875 16.617188 -17.550781 17.359375 -15.28125 C 19.472656 -17.550781 21.679688 -18.6875 23.984375 -18.6875 C 27.117188 -18.6875 28.6875 -16.273438 28.6875 -11.453125 L 28.6875 -3.09375 C 28.6875 -1.570312 29.269531 -0.769531 30.4375 -0.6875 L 31.5 -0.609375 Z M 31.5 0 "/></g></g></g><g fill="#000000" fill-opacity="1"><g transform="translate(383.944115, 227.109818)"><g><path d="M 17.234375 -6.375 C 15.472656 -1.851562 12.597656 0.40625 8.609375 0.40625 C 6.285156 0.40625 4.4375 -0.410156 3.0625 -2.046875 C 1.695312 -3.691406 1.015625 -5.910156 1.015625 -8.703125 C 1.015625 -11.648438 1.800781 -14.050781 3.375 -15.90625 C 4.945312 -17.757812 6.992188 -18.6875 9.515625 -18.6875 C 11.679688 -18.6875 13.414062 -17.914062 14.71875 -16.375 C 15.601562 -15.238281 16.179688 -13.53125 16.453125 -11.25 L 3.9375 -11.25 C 4.019531 -8.945312 4.425781 -7.082031 5.15625 -5.65625 C 6.320312 -3.476562 8.03125 -2.390625 10.28125 -2.390625 C 11.582031 -2.390625 12.710938 -2.710938 13.671875 -3.359375 C 14.640625 -4.015625 15.609375 -5.117188 16.578125 -6.671875 Z M 12.3125 -12.5625 C 12.039062 -14.320312 11.617188 -15.539062 11.046875 -16.21875 C 10.484375 -16.894531 9.578125 -17.234375 8.328125 -17.234375 C 5.890625 -17.234375 4.453125 -15.675781 4.015625 -12.5625 Z M 12.3125 -12.5625 "/></g></g></g><g fill="#000000" fill-opacity="1"><g transform="translate(401.983893, 227.109818)"><g><path d="M 11.34375 -2.6875 C 10.039062 -0.625 8.398438 0.40625 6.421875 0.40625 C 4.035156 0.40625 2.84375 -1.3125 2.84375 -4.75 L 2.84375 -16.984375 L 0.6875 -16.984375 C 0.582031 -17.066406 0.53125 -17.160156 0.53125 -17.265625 C 0.53125 -17.484375 0.757812 -17.742188 1.21875 -18.046875 C 2.332031 -18.691406 3.644531 -20.140625 5.15625 -22.390625 C 5.539062 -22.878906 5.8125 -23.257812 5.96875 -23.53125 C 6.164062 -23.53125 6.265625 -23.351562 6.265625 -23 L 6.265625 -18.28125 L 10.359375 -18.28125 L 10.359375 -16.984375 L 6.265625 -16.984375 L 6.265625 -5.359375 C 6.265625 -4.054688 6.425781 -3.117188 6.75 -2.546875 C 7.070312 -1.984375 7.613281 -1.703125 8.375 -1.703125 C 9.1875 -1.703125 10 -2.175781 10.8125 -3.125 Z M 11.34375 -2.6875 "/></g></g></g><g fill="#000000" fill-opacity="1"><g transform="translate(413.279077, 227.109818)"><g><path d="M 17.96875 -1.625 C 17.257812 -0.84375 16.640625 -0.304688 16.109375 -0.015625 C 15.585938 0.265625 14.988281 0.40625 14.3125 0.40625 C 13.46875 0.40625 12.847656 0.179688 12.453125 -0.265625 C 12.054688 -0.710938 11.804688 -1.476562 11.703125 -2.5625 C 9.367188 -0.582031 7.390625 0.40625 5.765625 0.40625 C 4.523438 0.40625 3.503906 0 2.703125 -0.8125 C 1.898438 -1.625 1.5 -2.664062 1.5 -3.9375 C 1.5 -5.40625 1.988281 -6.585938 2.96875 -7.484375 C 3.832031 -8.234375 4.703125 -8.832031 5.578125 -9.28125 C 6.460938 -9.726562 8.488281 -10.585938 11.65625 -11.859375 L 11.65625 -14.34375 C 11.65625 -16.59375 10.628906 -17.71875 8.578125 -17.71875 C 7.765625 -17.71875 7.070312 -17.519531 6.5 -17.125 C 5.9375 -16.738281 5.65625 -16.273438 5.65625 -15.734375 C 5.65625 -15.429688 5.691406 -15.101562 5.765625 -14.75 C 5.828125 -14.375 5.859375 -14.160156 5.859375 -14.109375 C 5.859375 -13.640625 5.671875 -13.234375 5.296875 -12.890625 C 4.929688 -12.554688 4.503906 -12.390625 4.015625 -12.390625 C 3.535156 -12.390625 3.125 -12.566406 2.78125 -12.921875 C 2.445312 -13.273438 2.28125 -13.679688 2.28125 -14.140625 C 2.28125 -15.253906 2.832031 -16.269531 3.9375 -17.1875 C 5.15625 -18.1875 6.878906 -18.6875 9.109375 -18.6875 C 11.628906 -18.6875 13.320312 -17.90625 14.1875 -16.34375 C 14.695312 -15.5 14.953125 -14.113281 14.953125 -12.1875 L 14.953125 -4.265625 C 14.953125 -3.367188 15.039062 -2.75 15.21875 -2.40625 C 15.394531 -2.070312 15.710938 -1.90625 16.171875 -1.90625 C 16.742188 -1.90625 17.34375 -2.164062 17.96875 -2.6875 Z M 11.65625 -5 L 11.65625 -10.890625 C 9.21875 -9.992188 7.507812 -9.125 6.53125 -8.28125 C 5.5625 -7.445312 5.078125 -6.4375 5.078125 -5.25 L 5.078125 -5.078125 C 5.078125 -4.210938 5.328125 -3.472656 5.828125 -2.859375 C 6.328125 -2.253906 6.929688 -1.953125 7.640625 -1.953125 C 8.585938 -1.953125 9.578125 -2.25 10.609375 -2.84375 C 11.035156 -3.113281 11.316406 -3.382812 11.453125 -3.65625 C 11.585938 -3.925781 11.65625 -4.375 11.65625 -5 Z M 11.65625 -5 "/></g></g></g><g fill="#000000" fill-opacity="1"><g transform="translate(431.318855, 227.109818)"><g><path d="M 19.953125 -1.703125 L 13.984375 0.40625 L 13.8125 0.28125 L 13.8125 -2.3125 C 12.507812 -0.5 10.773438 0.40625 8.609375 0.40625 C 6.367188 0.40625 4.554688 -0.398438 3.171875 -2.015625 C 1.785156 -3.628906 1.09375 -5.734375 1.09375 -8.328125 C 1.09375 -11.203125 1.921875 -13.644531 3.578125 -15.65625 C 5.234375 -17.675781 7.222656 -18.6875 9.546875 -18.6875 C 11.015625 -18.6875 12.4375 -18.109375 13.8125 -16.953125 L 13.8125 -23.28125 C 13.8125 -24.125 13.691406 -24.679688 13.453125 -24.953125 C 13.210938 -25.222656 12.710938 -25.359375 11.953125 -25.359375 C 11.566406 -25.359375 11.265625 -25.34375 11.046875 -25.3125 L 11.046875 -25.96875 C 13.515625 -26.613281 15.507812 -27.207031 17.03125 -27.75 L 17.234375 -27.671875 L 17.234375 -4.640625 C 17.234375 -3.679688 17.347656 -3.050781 17.578125 -2.75 C 17.804688 -2.457031 18.285156 -2.3125 19.015625 -2.3125 C 19.148438 -2.3125 19.460938 -2.328125 19.953125 -2.359375 Z M 13.8125 -4.140625 L 13.8125 -13.5 C 13.8125 -14.582031 13.390625 -15.53125 12.546875 -16.34375 C 11.710938 -17.15625 10.753906 -17.5625 9.671875 -17.5625 C 8.128906 -17.5625 6.894531 -16.867188 5.96875 -15.484375 C 5.050781 -14.097656 4.59375 -12.253906 4.59375 -9.953125 C 4.59375 -7.460938 5.109375 -5.460938 6.140625 -3.953125 C 7.171875 -2.453125 8.523438 -1.703125 10.203125 -1.703125 C 11.421875 -1.703125 12.394531 -2.109375 13.125 -2.921875 C 13.582031 -3.441406 13.8125 -3.847656 13.8125 -4.140625 Z M 13.8125 -4.140625 "/></g></g></g><g fill="#000000" fill-opacity="1"><g transform="translate(451.633927, 227.109818)"><g><path d="M 17.96875 -1.625 C 17.257812 -0.84375 16.640625 -0.304688 16.109375 -0.015625 C 15.585938 0.265625 14.988281 0.40625 14.3125 0.40625 C 13.46875 0.40625 12.847656 0.179688 12.453125 -0.265625 C 12.054688 -0.710938 11.804688 -1.476562 11.703125 -2.5625 C 9.367188 -0.582031 7.390625 0.40625 5.765625 0.40625 C 4.523438 0.40625 3.503906 0 2.703125 -0.8125 C 1.898438 -1.625 1.5 -2.664062 1.5 -3.9375 C 1.5 -5.40625 1.988281 -6.585938 2.96875 -7.484375 C 3.832031 -8.234375 4.703125 -8.832031 5.578125 -9.28125 C 6.460938 -9.726562 8.488281 -10.585938 11.65625 -11.859375 L 11.65625 -14.34375 C 11.65625 -16.59375 10.628906 -17.71875 8.578125 -17.71875 C 7.765625 -17.71875 7.070312 -17.519531 6.5 -17.125 C 5.9375 -16.738281 5.65625 -16.273438 5.65625 -15.734375 C 5.65625 -15.429688 5.691406 -15.101562 5.765625 -14.75 C 5.828125 -14.375 5.859375 -14.160156 5.859375 -14.109375 C 5.859375 -13.640625 5.671875 -13.234375 5.296875 -12.890625 C 4.929688 -12.554688 4.503906 -12.390625 4.015625 -12.390625 C 3.535156 -12.390625 3.125 -12.566406 2.78125 -12.921875 C 2.445312 -13.273438 2.28125 -13.679688 2.28125 -14.140625 C 2.28125 -15.253906 2.832031 -16.269531 3.9375 -17.1875 C 5.15625 -18.1875 6.878906 -18.6875 9.109375 -18.6875 C 11.628906 -18.6875 13.320312 -17.90625 14.1875 -16.34375 C 14.695312 -15.5 14.953125 -14.113281 14.953125 -12.1875 L 14.953125 -4.265625 C 14.953125 -3.367188 15.039062 -2.75 15.21875 -2.40625 C 15.394531 -2.070312 15.710938 -1.90625 16.171875 -1.90625 C 16.742188 -1.90625 17.34375 -2.164062 17.96875 -2.6875 Z M 11.65625 -5 L 11.65625 -10.890625 C 9.21875 -9.992188 7.507812 -9.125 6.53125 -8.28125 C 5.5625 -7.445312 5.078125 -6.4375 5.078125 -5.25 L 5.078125 -5.078125 C 5.078125 -4.210938 5.328125 -3.472656 5.828125 -2.859375 C 6.328125 -2.253906 6.929688 -1.953125 7.640625 -1.953125 C 8.585938 -1.953125 9.578125 -2.25 10.609375 -2.84375 C 11.035156 -3.113281 11.316406 -3.382812 11.453125 -3.65625 C 11.585938 -3.925781 11.65625 -4.375 11.65625 -5 Z M 11.65625 -5 "/></g></g></g><g fill="#000000" fill-opacity="1"><g transform="translate(469.673705, 227.109818)"><g><path d="M 11.34375 -2.6875 C 10.039062 -0.625 8.398438 0.40625 6.421875 0.40625 C 4.035156 0.40625 2.84375 -1.3125 2.84375 -4.75 L 2.84375 -16.984375 L 0.6875 -16.984375 C 0.582031 -17.066406 0.53125 -17.160156 0.53125 -17.265625 C 0.53125 -17.484375 0.757812 -17.742188 1.21875 -18.046875 C 2.332031 -18.691406 3.644531 -20.140625 5.15625 -22.390625 C 5.539062 -22.878906 5.8125 -23.257812 5.96875 -23.53125 C 6.164062 -23.53125 6.265625 -23.351562 6.265625 -23 L 6.265625 -18.28125 L 10.359375 -18.28125 L 10.359375 -16.984375 L 6.265625 -16.984375 L 6.265625 -5.359375 C 6.265625 -4.054688 6.425781 -3.117188 6.75 -2.546875 C 7.070312 -1.984375 7.613281 -1.703125 8.375 -1.703125 C 9.1875 -1.703125 10 -2.175781 10.8125 -3.125 Z M 11.34375 -2.6875 "/></g></g></g><g fill="#000000" fill-opacity="1"><g transform="translate(480.968888, 227.109818)"><g><path d="M 17.96875 -1.625 C 17.257812 -0.84375 16.640625 -0.304688 16.109375 -0.015625 C 15.585938 0.265625 14.988281 0.40625 14.3125 0.40625 C 13.46875 0.40625 12.847656 0.179688 12.453125 -0.265625 C 12.054688 -0.710938 11.804688 -1.476562 11.703125 -2.5625 C 9.367188 -0.582031 7.390625 0.40625 5.765625 0.40625 C 4.523438 0.40625 3.503906 0 2.703125 -0.8125 C 1.898438 -1.625 1.5 -2.664062 1.5 -3.9375 C 1.5 -5.40625 1.988281 -6.585938 2.96875 -7.484375 C 3.832031 -8.234375 4.703125 -8.832031 5.578125 -9.28125 C 6.460938 -9.726562 8.488281 -10.585938 11.65625 -11.859375 L 11.65625 -14.34375 C 11.65625 -16.59375 10.628906 -17.71875 8.578125 -17.71875 C 7.765625 -17.71875 7.070312 -17.519531 6.5 -17.125 C 5.9375 -16.738281 5.65625 -16.273438 5.65625 -15.734375 C 5.65625 -15.429688 5.691406 -15.101562 5.765625 -14.75 C 5.828125 -14.375 5.859375 -14.160156 5.859375 -14.109375 C 5.859375 -13.640625 5.671875 -13.234375 5.296875 -12.890625 C 4.929688 -12.554688 4.503906 -12.390625 4.015625 -12.390625 C 3.535156 -12.390625 3.125 -12.566406 2.78125 -12.921875 C 2.445312 -13.273438 2.28125 -13.679688 2.28125 -14.140625 C 2.28125 -15.253906 2.832031 -16.269531 3.9375 -17.1875 C 5.15625 -18.1875 6.878906 -18.6875 9.109375 -18.6875 C 11.628906 -18.6875 13.320312 -17.90625 14.1875 -16.34375 C 14.695312 -15.5 14.953125 -14.113281 14.953125 -12.1875 L 14.953125 -4.265625 C 14.953125 -3.367188 15.039062 -2.75 15.21875 -2.40625 C 15.394531 -2.070312 15.710938 -1.90625 16.171875 -1.90625 C 16.742188 -1.90625 17.34375 -2.164062 17.96875 -2.6875 Z M 11.65625 -5 L 11.65625 -10.890625 C 9.21875 -9.992188 7.507812 -9.125 6.53125 -8.28125 C 5.5625 -7.445312 5.078125 -6.4375 5.078125 -5.25 L 5.078125 -5.078125 C 5.078125 -4.210938 5.328125 -3.472656 5.828125 -2.859375 C 6.328125 -2.253906 6.929688 -1.953125 7.640625 -1.953125 C 8.585938 -1.953125 9.578125 -2.25 10.609375 -2.84375 C 11.035156 -3.113281 11.316406 -3.382812 11.453125 -3.65625 C 11.585938 -3.925781 11.65625 -4.375 11.65625 -5 Z M 11.65625 -5 "/></g></g></g><g fill="#000000" fill-opacity="1"><g transform="translate(499.008666, 227.109818)"><g/></g></g><g fill="#000000" fill-opacity="1"><g transform="translate(509.166215, 227.109818)"><g><path d="M 17.96875 -1.625 C 17.257812 -0.84375 16.640625 -0.304688 16.109375 -0.015625 C 15.585938 0.265625 14.988281 0.40625 14.3125 0.40625 C 13.46875 0.40625 12.847656 0.179688 12.453125 -0.265625 C 12.054688 -0.710938 11.804688 -1.476562 11.703125 -2.5625 C 9.367188 -0.582031 7.390625 0.40625 5.765625 0.40625 C 4.523438 0.40625 3.503906 0 2.703125 -0.8125 C 1.898438 -1.625 1.5 -2.664062 1.5 -3.9375 C 1.5 -5.40625 1.988281 -6.585938 2.96875 -7.484375 C 3.832031 -8.234375 4.703125 -8.832031 5.578125 -9.28125 C 6.460938 -9.726562 8.488281 -10.585938 11.65625 -11.859375 L 11.65625 -14.34375 C 11.65625 -16.59375 10.628906 -17.71875 8.578125 -17.71875 C 7.765625 -17.71875 7.070312 -17.519531 6.5 -17.125 C 5.9375 -16.738281 5.65625 -16.273438 5.65625 -15.734375 C 5.65625 -15.429688 5.691406 -15.101562 5.765625 -14.75 C 5.828125 -14.375 5.859375 -14.160156 5.859375 -14.109375 C 5.859375 -13.640625 5.671875 -13.234375 5.296875 -12.890625 C 4.929688 -12.554688 4.503906 -12.390625 4.015625 -12.390625 C 3.535156 -12.390625 3.125 -12.566406 2.78125 -12.921875 C 2.445312 -13.273438 2.28125 -13.679688 2.28125 -14.140625 C 2.28125 -15.253906 2.832031 -16.269531 3.9375 -17.1875 C 5.15625 -18.1875 6.878906 -18.6875 9.109375 -18.6875 C 11.628906 -18.6875 13.320312 -17.90625 14.1875 -16.34375 C 14.695312 -15.5 14.953125 -14.113281 14.953125 -12.1875 L 14.953125 -4.265625 C 14.953125 -3.367188 15.039062 -2.75 15.21875 -2.40625 C 15.394531 -2.070312 15.710938 -1.90625 16.171875 -1.90625 C 16.742188 -1.90625 17.34375 -2.164062 17.96875 -2.6875 Z M 11.65625 -5 L 11.65625 -10.890625 C 9.21875 -9.992188 7.507812 -9.125 6.53125 -8.28125 C 5.5625 -7.445312 5.078125 -6.4375 5.078125 -5.25 L 5.078125 -5.078125 C 5.078125 -4.210938 5.328125 -3.472656 5.828125 -2.859375 C 6.328125 -2.253906 6.929688 -1.953125 7.640625 -1.953125 C 8.585938 -1.953125 9.578125 -2.25 10.609375 -2.84375 C 11.035156 -3.113281 11.316406 -3.382812 11.453125 -3.65625 C 11.585938 -3.925781 11.65625 -4.375 11.65625 -5 Z M 11.65625 -5 "/></g></g></g><g fill="#000000" fill-opacity="1"><g transform="translate(527.205993, 227.109818)"><g><path d="M 19.703125 0 L 11.25 0 L 11.25 -0.609375 C 12.28125 -0.691406 12.960938 -0.960938 13.296875 -1.421875 C 13.640625 -1.878906 13.8125 -2.742188 13.8125 -4.015625 L 13.8125 -12.515625 C 13.8125 -15.140625 12.820312 -16.453125 10.84375 -16.453125 C 10.164062 -16.453125 9.539062 -16.296875 8.96875 -15.984375 C 8.40625 -15.679688 7.640625 -15.066406 6.671875 -14.140625 L 6.671875 -2.71875 C 6.671875 -1.988281 6.859375 -1.472656 7.234375 -1.171875 C 7.609375 -0.878906 8.3125 -0.691406 9.34375 -0.609375 L 9.34375 0 L 0.734375 0 L 0.734375 -0.609375 C 1.765625 -0.691406 2.441406 -0.925781 2.765625 -1.3125 C 3.085938 -1.707031 3.25 -2.488281 3.25 -3.65625 L 3.25 -13.734375 C 3.25 -14.734375 3.140625 -15.414062 2.921875 -15.78125 C 2.703125 -16.15625 2.3125 -16.34375 1.75 -16.34375 C 1.226562 -16.34375 0.863281 -16.285156 0.65625 -16.171875 L 0.65625 -16.859375 C 2.65625 -17.460938 4.523438 -18.070312 6.265625 -18.6875 L 6.546875 -18.609375 L 6.546875 -15.40625 C 7.921875 -16.707031 9.007812 -17.578125 9.8125 -18.015625 C 10.613281 -18.460938 11.488281 -18.6875 12.4375 -18.6875 C 13.925781 -18.6875 15.097656 -18.148438 15.953125 -17.078125 C 16.804688 -16.015625 17.234375 -14.519531 17.234375 -12.59375 L 17.234375 -3.296875 C 17.234375 -2.285156 17.394531 -1.609375 17.71875 -1.265625 C 18.039062 -0.929688 18.703125 -0.710938 19.703125 -0.609375 Z M 19.703125 0 "/></g></g></g><g fill="#000000" fill-opacity="1"><g transform="translate(547.521065, 227.109818)"><g><path d="M 19.953125 -1.703125 L 13.984375 0.40625 L 13.8125 0.28125 L 13.8125 -2.3125 C 12.507812 -0.5 10.773438 0.40625 8.609375 0.40625 C 6.367188 0.40625 4.554688 -0.398438 3.171875 -2.015625 C 1.785156 -3.628906 1.09375 -5.734375 1.09375 -8.328125 C 1.09375 -11.203125 1.921875 -13.644531 3.578125 -15.65625 C 5.234375 -17.675781 7.222656 -18.6875 9.546875 -18.6875 C 11.015625 -18.6875 12.4375 -18.109375 13.8125 -16.953125 L 13.8125 -23.28125 C 13.8125 -24.125 13.691406 -24.679688 13.453125 -24.953125 C 13.210938 -25.222656 12.710938 -25.359375 11.953125 -25.359375 C 11.566406 -25.359375 11.265625 -25.34375 11.046875 -25.3125 L 11.046875 -25.96875 C 13.515625 -26.613281 15.507812 -27.207031 17.03125 -27.75 L 17.234375 -27.671875 L 17.234375 -4.640625 C 17.234375 -3.679688 17.347656 -3.050781 17.578125 -2.75 C 17.804688 -2.457031 18.285156 -2.3125 19.015625 -2.3125 C 19.148438 -2.3125 19.460938 -2.328125 19.953125 -2.359375 Z M 13.8125 -4.140625 L 13.8125 -13.5 C 13.8125 -14.582031 13.390625 -15.53125 12.546875 -16.34375 C 11.710938 -17.15625 10.753906 -17.5625 9.671875 -17.5625 C 8.128906 -17.5625 6.894531 -16.867188 5.96875 -15.484375 C 5.050781 -14.097656 4.59375 -12.253906 4.59375 -9.953125 C 4.59375 -7.460938 5.109375 -5.460938 6.140625 -3.953125 C 7.171875 -2.453125 8.523438 -1.703125 10.203125 -1.703125 C 11.421875 -1.703125 12.394531 -2.109375 13.125 -2.921875 C 13.582031 -3.441406 13.8125 -3.847656 13.8125 -4.140625 Z M 13.8125 -4.140625 "/></g></g></g><g fill="#000000" fill-opacity="1"><g transform="translate(567.836138, 227.109818)"><g/></g></g><g fill="#000000" fill-opacity="1"><g transform="translate(577.993686, 227.109818)"><g><path d="M 15.5625 -25.234375 C 15.5625 -24.773438 15.398438 -24.382812 15.078125 -24.0625 C 14.753906 -23.738281 14.347656 -23.578125 13.859375 -23.578125 C 13.210938 -23.578125 12.601562 -24.0625 12.03125 -25.03125 C 11.375 -26.09375 10.65625 -26.625 9.875 -26.625 C 8.332031 -26.625 7.5625 -25.414062 7.5625 -23 L 7.5625 -18.28125 L 12.5625 -18.28125 L 12.5625 -16.984375 L 7.59375 -16.984375 L 7.59375 -4.234375 C 7.59375 -2.710938 7.8125 -1.738281 8.25 -1.3125 C 8.6875 -0.894531 9.726562 -0.660156 11.375 -0.609375 L 11.375 0 L 0.8125 0 L 0.8125 -0.609375 C 2.269531 -0.691406 3.195312 -0.941406 3.59375 -1.359375 C 3.988281 -1.773438 4.1875 -2.734375 4.1875 -4.234375 L 4.1875 -16.984375 L 0.859375 -16.984375 L 0.859375 -18.28125 L 4.1875 -18.28125 C 4.21875 -19.914062 4.328125 -21.1875 4.515625 -22.09375 C 4.703125 -23 5.066406 -23.910156 5.609375 -24.828125 C 6.742188 -26.773438 8.65625 -27.75 11.34375 -27.75 C 12.5625 -27.75 13.566406 -27.507812 14.359375 -27.03125 C 15.160156 -26.5625 15.5625 -25.960938 15.5625 -25.234375 Z M 15.5625 -25.234375 "/></g></g></g><g fill="#000000" fill-opacity="1"><g transform="translate(591.523532, 227.109818)"><g><path d="M 10.28125 0 L 0.65625 0 L 0.65625 -0.609375 C 2.0625 -0.691406 2.945312 -0.9375 3.3125 -1.34375 C 3.675781 -1.75 3.859375 -2.679688 3.859375 -4.140625 L 3.859375 -13.578125 C 3.859375 -14.472656 3.753906 -15.101562 3.546875 -15.46875 C 3.347656 -15.832031 3.003906 -16.015625 2.515625 -16.015625 C 2.085938 -16.015625 1.628906 -15.972656 1.140625 -15.890625 L 0.8125 -15.84375 L 0.8125 -16.453125 L 7.109375 -18.6875 L 7.28125 -18.578125 L 7.28125 -4.140625 C 7.28125 -2.679688 7.445312 -1.753906 7.78125 -1.359375 C 8.125 -0.960938 8.957031 -0.710938 10.28125 -0.609375 Z M 7.640625 -23.984375 C 7.640625 -23.378906 7.441406 -22.878906 7.046875 -22.484375 C 6.660156 -22.097656 6.164062 -21.90625 5.5625 -21.90625 C 5 -21.90625 4.515625 -22.097656 4.109375 -22.484375 C 3.703125 -22.878906 3.5 -23.378906 3.5 -23.984375 C 3.5 -24.546875 3.703125 -25.03125 4.109375 -25.4375 C 4.515625 -25.84375 5 -26.046875 5.5625 -26.046875 C 6.164062 -26.046875 6.660156 -25.84375 7.046875 -25.4375 C 7.441406 -25.03125 7.640625 -24.546875 7.640625 -23.984375 Z M 7.640625 -23.984375 "/></g></g></g><g fill="#000000" fill-opacity="1"><g transform="translate(602.818715, 227.109818)"><g><path d="M 10.4375 0 L 0.859375 0 L 0.859375 -0.609375 C 2.128906 -0.710938 2.96875 -0.953125 3.375 -1.328125 C 3.78125 -1.710938 3.984375 -2.445312 3.984375 -3.53125 L 3.984375 -22.921875 C 3.984375 -23.867188 3.859375 -24.519531 3.609375 -24.875 C 3.367188 -25.226562 2.925781 -25.40625 2.28125 -25.40625 C 2.03125 -25.40625 1.609375 -25.375 1.015625 -25.3125 L 0.765625 -25.3125 L 0.765625 -25.96875 C 3.453125 -26.613281 5.609375 -27.207031 7.234375 -27.75 L 7.390625 -27.671875 L 7.390625 -3.40625 C 7.390625 -2.300781 7.570312 -1.578125 7.9375 -1.234375 C 8.3125 -0.898438 9.144531 -0.691406 10.4375 -0.609375 Z M 10.4375 0 "/></g></g></g><g fill="#000000" fill-opacity="1"><g transform="translate(614.113899, 227.109818)"><g><path d="M 17.234375 -6.375 C 15.472656 -1.851562 12.597656 0.40625 8.609375 0.40625 C 6.285156 0.40625 4.4375 -0.410156 3.0625 -2.046875 C 1.695312 -3.691406 1.015625 -5.910156 1.015625 -8.703125 C 1.015625 -11.648438 1.800781 -14.050781 3.375 -15.90625 C 4.945312 -17.757812 6.992188 -18.6875 9.515625 -18.6875 C 11.679688 -18.6875 13.414062 -17.914062 14.71875 -16.375 C 15.601562 -15.238281 16.179688 -13.53125 16.453125 -11.25 L 3.9375 -11.25 C 4.019531 -8.945312 4.425781 -7.082031 5.15625 -5.65625 C 6.320312 -3.476562 8.03125 -2.390625 10.28125 -2.390625 C 11.582031 -2.390625 12.710938 -2.710938 13.671875 -3.359375 C 14.640625 -4.015625 15.609375 -5.117188 16.578125 -6.671875 Z M 12.3125 -12.5625 C 12.039062 -14.320312 11.617188 -15.539062 11.046875 -16.21875 C 10.484375 -16.894531 9.578125 -17.234375 8.328125 -17.234375 C 5.890625 -17.234375 4.453125 -15.675781 4.015625 -12.5625 Z M 12.3125 -12.5625 "/></g></g></g><g fill="#000000" fill-opacity="1"><g transform="translate(632.153676, 227.109818)"><g><path d="M 14.140625 -4.796875 C 14.140625 -3.390625 13.578125 -2.171875 12.453125 -1.140625 C 11.328125 -0.109375 9.992188 0.40625 8.453125 0.40625 C 7.722656 0.40625 6.722656 0.269531 5.453125 0 C 4.578125 -0.21875 3.953125 -0.328125 3.578125 -0.328125 C 3.171875 -0.328125 2.859375 -0.164062 2.640625 0.15625 L 2.109375 0.15625 L 2.109375 -6.171875 L 2.765625 -6.171875 C 3.222656 -4.117188 3.84375 -2.65625 4.625 -1.78125 C 5.414062 -0.914062 6.515625 -0.484375 7.921875 -0.484375 C 8.953125 -0.484375 9.769531 -0.75 10.375 -1.28125 C 10.988281 -1.8125 11.296875 -2.519531 11.296875 -3.40625 C 11.296875 -4.632812 10.59375 -5.65625 9.1875 -6.46875 L 6.828125 -7.796875 C 5.097656 -8.804688 3.875 -9.75 3.15625 -10.625 C 2.4375 -11.507812 2.078125 -12.519531 2.078125 -13.65625 C 2.078125 -15.144531 2.597656 -16.347656 3.640625 -17.265625 C 4.679688 -18.191406 6.03125 -18.65625 7.6875 -18.65625 C 8.6875 -18.65625 9.601562 -18.492188 10.4375 -18.171875 C 10.84375 -17.972656 11.210938 -17.875 11.546875 -17.875 C 11.648438 -17.875 11.835938 -17.984375 12.109375 -18.203125 L 12.1875 -18.28125 L 12.640625 -18.28125 L 12.796875 -12.765625 L 12.1875 -12.765625 C 11.726562 -14.578125 11.160156 -15.863281 10.484375 -16.625 C 9.804688 -17.382812 8.882812 -17.765625 7.71875 -17.765625 C 6.769531 -17.765625 6.007812 -17.507812 5.4375 -17 C 4.875 -16.5 4.59375 -15.832031 4.59375 -15 C 4.59375 -13.832031 5.175781 -12.910156 6.34375 -12.234375 L 10.734375 -9.625 C 11.972656 -8.894531 12.847656 -8.164062 13.359375 -7.4375 C 13.878906 -6.707031 14.140625 -5.828125 14.140625 -4.796875 Z M 14.140625 -4.796875 "/></g></g></g><g fill="#000000" fill-opacity="1"><g transform="translate(647.958817, 227.109818)"><g><path d="M 11.578125 -10.03125 C 11.578125 -5.320312 10.144531 -1.207031 7.28125 2.3125 C 6.519531 3.257812 5.742188 4.066406 4.953125 4.734375 C 4.171875 5.398438 3.035156 6.21875 1.546875 7.1875 L 1.171875 6.546875 C 2.640625 5.347656 3.742188 4.300781 4.484375 3.40625 C 5.234375 2.519531 5.894531 1.4375 6.46875 0.15625 C 7.550781 -2.28125 8.09375 -5.640625 8.09375 -9.921875 C 8.09375 -13.847656 7.617188 -17.140625 6.671875 -19.796875 C 6.097656 -21.304688 5.441406 -22.535156 4.703125 -23.484375 C 3.972656 -24.429688 2.796875 -25.546875 1.171875 -26.828125 L 1.671875 -27.46875 C 3.484375 -26.363281 5.09375 -24.984375 6.5 -23.328125 C 8.289062 -21.265625 9.582031 -19.179688 10.375 -17.078125 C 11.175781 -14.984375 11.578125 -12.632812 11.578125 -10.03125 Z M 11.578125 -10.03125 "/></g></g></g></svg>