<svg xmlns="http://www.w3.org/2000/svg" xmlns:xlink="http://www.w3.org/1999/xlink" width="993" zoomAndPan="magnify" viewBox="0 0 744.75 389.249997" height="519" preserveAspectRatio="xMidYMid meet" version="1.0"><defs><g/><clipPath id="9b6662e647"><path d="M 96 75.09375 L 295 75.09375 L 295 313.214844 L 96 313.214844 Z M 96 75.09375 " clip-rule="nonzero"/></clipPath><clipPath id="a4d467bba6"><path d="M 76.214844 75.09375 L 175 75.09375 L 175 222 L 76.214844 222 Z M 76.214844 75.09375 " clip-rule="nonzero"/></clipPath><clipPath id="2802b9188b"><path d="M 216 75.09375 L 314.335938 75.09375 L 314.335938 222 L 216 222 Z M 216 75.09375 " clip-rule="nonzero"/></clipPath></defs><path fill="#000000" d="M 175.429688 114.777344 L 215.117188 114.777344 L 215.117188 122.714844 L 175.429688 122.714844 Z M 175.429688 114.777344 " fill-opacity="1" fill-rule="nonzero"/><path fill="#000000" d="M 175.429688 130.652344 L 215.117188 130.652344 L 215.117188 138.589844 L 175.429688 138.589844 Z M 175.429688 130.652344 " fill-opacity="1" fill-rule="nonzero"/><g clip-path="url(#9b6662e647)"><path fill="#000000" d="M 294.492188 281.464844 L 294.492188 249.714844 C 294.492188 247.953125 293.328125 246.402344 291.632812 245.90625 L 199.242188 218.957031 L 199.242188 170.339844 L 227.023438 170.339844 C 229.21875 170.339844 230.992188 168.5625 230.992188 166.371094 L 230.992188 102.871094 C 230.992188 101.820312 230.578125 100.808594 229.828125 100.066406 L 206.019531 76.253906 C 205.277344 75.507812 204.269531 75.09375 203.210938 75.09375 L 163.523438 75.09375 C 161.332031 75.09375 159.554688 76.871094 159.554688 79.0625 L 159.554688 166.371094 C 159.554688 168.5625 161.332031 170.339844 163.523438 170.339844 L 191.304688 170.339844 L 191.304688 218.957031 L 98.914062 245.90625 C 97.21875 246.402344 96.058594 247.953125 96.058594 249.714844 L 96.058594 281.464844 C 96.058594 283.226562 97.21875 284.777344 98.914062 285.273438 L 194.164062 313.054688 C 194.527344 313.160156 194.898438 313.214844 195.273438 313.214844 C 195.652344 313.214844 196.019531 313.160156 196.386719 313.054688 L 291.632812 285.273438 C 293.328125 284.777344 294.492188 283.226562 294.492188 281.464844 Z M 207.179688 88.640625 L 217.445312 98.902344 L 207.179688 98.902344 Z M 167.492188 83.03125 L 199.242188 83.03125 L 199.242188 102.871094 C 199.242188 105.0625 201.015625 106.839844 203.210938 106.839844 L 223.054688 106.839844 L 223.054688 162.402344 L 167.492188 162.402344 Z M 191.304688 227.222656 L 191.304688 248.070312 L 182.207031 238.972656 L 176.59375 244.582031 L 192.46875 260.457031 C 193.242188 261.230469 194.257812 261.621094 195.273438 261.621094 C 196.289062 261.621094 197.308594 261.230469 198.082031 260.457031 L 213.957031 244.582031 L 208.34375 238.972656 L 199.242188 248.070312 L 199.242188 227.222656 L 276.351562 249.714844 L 195.273438 273.359375 L 114.199219 249.714844 Z M 103.996094 255.003906 L 191.304688 280.472656 L 191.304688 303.953125 L 103.996094 278.488281 Z M 199.242188 303.953125 L 199.242188 280.472656 L 286.554688 255.003906 L 286.554688 278.488281 Z M 199.242188 303.953125 " fill-opacity="1" fill-rule="nonzero"/></g><path fill="#000000" d="M 175.429688 98.902344 L 191.304688 98.902344 L 191.304688 106.839844 L 175.429688 106.839844 Z M 175.429688 98.902344 " fill-opacity="1" fill-rule="nonzero"/><g clip-path="url(#a4d467bba6)"><path fill="#000000" d="M 80.183594 170.339844 L 107.964844 170.339844 C 107.964844 181.28125 116.867188 190.183594 127.808594 190.183594 L 139.714844 190.183594 C 146.277344 190.183594 151.621094 195.527344 151.621094 202.089844 L 151.621094 208.382812 L 142.519531 199.285156 L 136.90625 204.894531 L 152.78125 220.769531 C 153.554688 221.542969 154.570312 221.933594 155.585938 221.933594 C 156.605469 221.933594 157.621094 221.542969 158.394531 220.769531 L 174.269531 204.894531 L 168.65625 199.285156 L 159.554688 208.382812 L 159.554688 202.089844 C 159.554688 191.148438 150.65625 182.246094 139.714844 182.246094 L 127.808594 182.246094 C 121.242188 182.246094 115.902344 176.90625 115.902344 170.339844 L 143.683594 170.339844 C 145.875 170.339844 147.652344 168.5625 147.652344 166.371094 L 147.652344 102.871094 C 147.652344 101.820312 147.234375 100.808594 146.488281 100.066406 L 122.675781 76.253906 C 121.933594 75.507812 120.925781 75.09375 119.871094 75.09375 L 80.183594 75.09375 C 77.988281 75.09375 76.214844 76.871094 76.214844 79.0625 L 76.214844 166.371094 C 76.214844 168.5625 77.988281 170.339844 80.183594 170.339844 Z M 123.839844 88.640625 L 134.101562 98.902344 L 123.839844 98.902344 Z M 84.152344 83.03125 L 115.902344 83.03125 L 115.902344 102.871094 C 115.902344 105.0625 117.675781 106.839844 119.871094 106.839844 L 139.714844 106.839844 L 139.714844 162.402344 L 84.152344 162.402344 Z M 84.152344 83.03125 " fill-opacity="1" fill-rule="nonzero"/></g><path fill="#000000" d="M 92.089844 114.777344 L 131.777344 114.777344 L 131.777344 122.714844 L 92.089844 122.714844 Z M 92.089844 114.777344 " fill-opacity="1" fill-rule="nonzero"/><path fill="#000000" d="M 92.089844 130.652344 L 131.777344 130.652344 L 131.777344 138.589844 L 92.089844 138.589844 Z M 92.089844 130.652344 " fill-opacity="1" fill-rule="nonzero"/><path fill="#000000" d="M 92.089844 146.527344 L 131.777344 146.527344 L 131.777344 154.464844 L 92.089844 154.464844 Z M 92.089844 146.527344 " fill-opacity="1" fill-rule="nonzero"/><path fill="#000000" d="M 92.089844 98.902344 L 107.964844 98.902344 L 107.964844 106.839844 L 92.089844 106.839844 Z M 92.089844 98.902344 " fill-opacity="1" fill-rule="nonzero"/><g clip-path="url(#2802b9188b)"><path fill="#000000" d="M 314.335938 166.371094 L 314.335938 102.871094 C 314.335938 101.820312 313.917969 100.808594 313.171875 100.066406 L 289.359375 76.253906 C 288.617188 75.507812 287.609375 75.09375 286.554688 75.09375 L 246.867188 75.09375 C 244.671875 75.09375 242.898438 76.871094 242.898438 79.0625 L 242.898438 166.371094 C 242.898438 168.5625 244.671875 170.339844 246.867188 170.339844 L 274.648438 170.339844 C 274.648438 176.90625 269.304688 182.246094 262.742188 182.246094 L 250.835938 182.246094 C 239.894531 182.246094 230.992188 191.148438 230.992188 202.089844 L 230.992188 208.382812 L 221.894531 199.285156 L 216.28125 204.894531 L 232.15625 220.769531 C 232.929688 221.542969 233.945312 221.933594 234.960938 221.933594 C 235.976562 221.933594 236.992188 221.542969 237.765625 220.769531 L 253.640625 204.894531 L 248.03125 199.285156 L 238.929688 208.382812 L 238.929688 202.089844 C 238.929688 195.527344 244.273438 190.183594 250.835938 190.183594 L 262.742188 190.183594 C 273.683594 190.183594 282.585938 181.28125 282.585938 170.339844 L 310.367188 170.339844 C 312.5625 170.339844 314.335938 168.5625 314.335938 166.371094 Z M 290.523438 88.640625 L 300.785156 98.902344 L 290.523438 98.902344 Z M 250.835938 162.402344 L 250.835938 83.03125 L 282.585938 83.03125 L 282.585938 102.871094 C 282.585938 105.0625 284.359375 106.839844 286.554688 106.839844 L 306.398438 106.839844 L 306.398438 162.402344 Z M 250.835938 162.402344 " fill-opacity="1" fill-rule="nonzero"/></g><path fill="#000000" d="M 258.773438 114.777344 L 298.460938 114.777344 L 298.460938 122.714844 L 258.773438 122.714844 Z M 258.773438 114.777344 " fill-opacity="1" fill-rule="nonzero"/><path fill="#000000" d="M 258.773438 130.652344 L 298.460938 130.652344 L 298.460938 138.589844 L 258.773438 138.589844 Z M 258.773438 130.652344 " fill-opacity="1" fill-rule="nonzero"/><path fill="#000000" d="M 258.773438 146.527344 L 298.460938 146.527344 L 298.460938 154.464844 L 258.773438 154.464844 Z M 258.773438 146.527344 " fill-opacity="1" fill-rule="nonzero"/><path fill="#000000" d="M 258.773438 98.902344 L 274.648438 98.902344 L 274.648438 106.839844 L 258.773438 106.839844 Z M 258.773438 98.902344 " fill-opacity="1" fill-rule="nonzero"/><path fill="#000000" d="M 175.429688 146.527344 L 183.367188 146.527344 L 183.367188 154.464844 L 175.429688 154.464844 Z M 175.429688 146.527344 " fill-opacity="1" fill-rule="nonzero"/><path fill="#000000" d="M 191.304688 146.527344 L 199.242188 146.527344 L 199.242188 154.464844 L 191.304688 154.464844 Z M 191.304688 146.527344 " fill-opacity="1" fill-rule="nonzero"/><path fill="#000000" d="M 207.179688 146.527344 L 215.117188 146.527344 L 215.117188 154.464844 L 207.179688 154.464844 Z M 207.179688 146.527344 " fill-opacity="1" fill-rule="nonzero"/><g fill="#000000" fill-opacity="1"><g transform="translate(431.623644, 151.624298)"><g><path d="M 25.71875 -4.59375 C 24.476562 -2.9375 22.894531 -1.660156 20.96875 -0.765625 C 19.039062 0.117188 16.925781 0.5625 14.625 0.5625 C 10.59375 0.5625 7.335938 -0.703125 4.859375 -3.234375 C 2.378906 -5.765625 1.140625 -9.085938 1.140625 -13.203125 C 1.140625 -17.941406 2.722656 -21.628906 5.890625 -24.265625 C 8.492188 -26.398438 11.4375 -27.46875 14.71875 -27.46875 C 16.71875 -27.46875 18.707031 -27.144531 20.6875 -26.5 C 21.332031 -26.25 21.875 -26.125 22.3125 -26.125 C 23.175781 -26.125 23.734375 -26.570312 23.984375 -27.46875 L 24.828125 -27.46875 L 25.203125 -18.28125 L 24.265625 -18.28125 C 23.878906 -19.613281 23.5 -20.628906 23.125 -21.328125 C 22.75 -22.035156 22.234375 -22.71875 21.578125 -23.375 C 19.921875 -25.019531 17.90625 -25.84375 15.53125 -25.84375 C 12.570312 -25.84375 10.21875 -24.742188 8.46875 -22.546875 C 6.726562 -20.359375 5.859375 -17.421875 5.859375 -13.734375 C 5.859375 -8.890625 7.101562 -5.4375 9.59375 -3.375 C 11.320312 -1.9375 13.4375 -1.21875 15.9375 -1.21875 C 19.132812 -1.21875 22.15625 -2.585938 25 -5.328125 Z M 25.71875 -4.59375 "/></g></g></g><g fill="#000000" fill-opacity="1"><g transform="translate(458.723869, 151.624298)"><g><path d="M 19.09375 -9.515625 C 19.09375 -6.691406 18.226562 -4.332031 16.5 -2.4375 C 14.769531 -0.539062 12.628906 0.40625 10.078125 0.40625 C 7.535156 0.40625 5.414062 -0.503906 3.71875 -2.328125 C 2.019531 -4.160156 1.171875 -6.445312 1.171875 -9.1875 C 1.171875 -11.976562 2.003906 -14.257812 3.671875 -16.03125 C 5.335938 -17.800781 7.5 -18.6875 10.15625 -18.6875 C 12.757812 -18.6875 14.898438 -17.820312 16.578125 -16.09375 C 18.253906 -14.363281 19.09375 -12.171875 19.09375 -9.515625 Z M 15.4375 -8.09375 C 15.4375 -10.882812 14.894531 -13.160156 13.8125 -14.921875 C 12.726562 -16.679688 11.332031 -17.5625 9.625 -17.5625 C 8.195312 -17.5625 7.039062 -16.976562 6.15625 -15.8125 C 5.28125 -14.644531 4.84375 -13.097656 4.84375 -11.171875 C 4.84375 -8.171875 5.4375 -5.554688 6.625 -3.328125 C 7.539062 -1.597656 8.851562 -0.734375 10.5625 -0.734375 C 12.082031 -0.734375 13.273438 -1.382812 14.140625 -2.6875 C 15.003906 -3.988281 15.4375 -5.789062 15.4375 -8.09375 Z M 15.4375 -8.09375 "/></g></g></g><g fill="#000000" fill-opacity="1"><g transform="translate(479.038887, 151.624298)"><g><path d="M 31.5 0 L 22.59375 0 L 22.59375 -0.609375 C 23.789062 -0.742188 24.535156 -0.972656 24.828125 -1.296875 C 25.128906 -1.617188 25.28125 -2.363281 25.28125 -3.53125 L 25.28125 -12.109375 C 25.28125 -13.785156 25.0625 -14.945312 24.625 -15.59375 C 24.195312 -16.25 23.398438 -16.578125 22.234375 -16.578125 C 20.441406 -16.578125 18.960938 -15.753906 17.796875 -14.109375 L 17.796875 -3.859375 C 17.796875 -2.585938 17.992188 -1.734375 18.390625 -1.296875 C 18.785156 -0.867188 19.566406 -0.640625 20.734375 -0.609375 L 20.734375 0 L 11.625 0 L 11.625 -0.609375 C 12.789062 -0.691406 13.539062 -0.90625 13.875 -1.25 C 14.21875 -1.601562 14.390625 -2.351562 14.390625 -3.5 L 14.390625 -12.3125 C 14.390625 -15.15625 13.492188 -16.578125 11.703125 -16.578125 C 10.992188 -16.578125 10.25 -16.421875 9.46875 -16.109375 C 8.6875 -15.796875 8.035156 -15.410156 7.515625 -14.953125 L 6.90625 -14.1875 L 6.90625 -2.71875 C 6.90625 -1.9375 7.09375 -1.398438 7.46875 -1.109375 C 7.851562 -0.828125 8.585938 -0.660156 9.671875 -0.609375 L 9.671875 0 L 0.65625 0 L 0.65625 -0.609375 C 1.789062 -0.640625 2.546875 -0.84375 2.921875 -1.21875 C 3.304688 -1.59375 3.5 -2.335938 3.5 -3.453125 L 3.5 -13.734375 C 3.5 -14.710938 3.394531 -15.390625 3.1875 -15.765625 C 2.988281 -16.148438 2.617188 -16.34375 2.078125 -16.34375 C 1.671875 -16.34375 1.234375 -16.285156 0.765625 -16.171875 L 0.765625 -16.859375 C 2.722656 -17.398438 4.625 -18.007812 6.46875 -18.6875 L 6.75 -18.609375 L 6.75 -15.5625 C 8.425781 -16.832031 9.671875 -17.671875 10.484375 -18.078125 C 11.296875 -18.484375 12.148438 -18.6875 13.046875 -18.6875 C 15.179688 -18.6875 16.617188 -17.550781 17.359375 -15.28125 C 19.472656 -17.550781 21.679688 -18.6875 23.984375 -18.6875 C 27.117188 -18.6875 28.6875 -16.273438 28.6875 -11.453125 L 28.6875 -3.09375 C 28.6875 -1.570312 29.269531 -0.769531 30.4375 -0.6875 L 31.5 -0.609375 Z M 31.5 0 "/></g></g></g><g fill="#000000" fill-opacity="1"><g transform="translate(510.649057, 151.624298)"><g><path d="M 19.015625 -9.875 C 19.015625 -6.976562 18.097656 -4.539062 16.265625 -2.5625 C 14.441406 -0.582031 12.191406 0.40625 9.515625 0.40625 C 7.890625 0.40625 6.363281 0.128906 4.9375 -0.421875 C 3.507812 -0.984375 2.796875 -1.570312 2.796875 -2.1875 L 2.796875 -23.28125 C 2.796875 -24.125 2.664062 -24.679688 2.40625 -24.953125 C 2.15625 -25.222656 1.625 -25.359375 0.8125 -25.359375 C 0.507812 -25.359375 0.28125 -25.34375 0.125 -25.3125 L 0.125 -25.96875 L 1.296875 -26.296875 C 3.109375 -26.804688 4.679688 -27.289062 6.015625 -27.75 L 6.21875 -27.671875 L 6.21875 -15.234375 C 6.625 -16.242188 7.351562 -17.070312 8.40625 -17.71875 C 9.46875 -18.363281 10.617188 -18.6875 11.859375 -18.6875 C 13.898438 -18.6875 15.601562 -17.835938 16.96875 -16.140625 C 18.332031 -14.453125 19.015625 -12.363281 19.015625 -9.875 Z M 15.4375 -8 C 15.4375 -10.46875 14.96875 -12.441406 14.03125 -13.921875 C 13.101562 -15.398438 11.835938 -16.140625 10.234375 -16.140625 C 9.179688 -16.140625 8.25 -15.828125 7.4375 -15.203125 C 6.625 -14.578125 6.21875 -13.875 6.21875 -13.09375 L 6.21875 -2.84375 C 6.21875 -2.332031 6.609375 -1.878906 7.390625 -1.484375 C 8.179688 -1.085938 9.101562 -0.890625 10.15625 -0.890625 C 11.84375 -0.890625 13.144531 -1.515625 14.0625 -2.765625 C 14.976562 -4.015625 15.4375 -5.757812 15.4375 -8 Z M 15.4375 -8 "/></g></g></g><g fill="#000000" fill-opacity="1"><g transform="translate(530.964074, 151.624298)"><g><path d="M 10.28125 0 L 0.65625 0 L 0.65625 -0.609375 C 2.0625 -0.691406 2.945312 -0.9375 3.3125 -1.34375 C 3.675781 -1.75 3.859375 -2.679688 3.859375 -4.140625 L 3.859375 -13.578125 C 3.859375 -14.472656 3.753906 -15.101562 3.546875 -15.46875 C 3.347656 -15.832031 3.003906 -16.015625 2.515625 -16.015625 C 2.085938 -16.015625 1.628906 -15.972656 1.140625 -15.890625 L 0.8125 -15.84375 L 0.8125 -16.453125 L 7.109375 -18.6875 L 7.28125 -18.578125 L 7.28125 -4.140625 C 7.28125 -2.679688 7.445312 -1.753906 7.78125 -1.359375 C 8.125 -0.960938 8.957031 -0.710938 10.28125 -0.609375 Z M 7.640625 -23.984375 C 7.640625 -23.378906 7.441406 -22.878906 7.046875 -22.484375 C 6.660156 -22.097656 6.164062 -21.90625 5.5625 -21.90625 C 5 -21.90625 4.515625 -22.097656 4.109375 -22.484375 C 3.703125 -22.878906 3.5 -23.378906 3.5 -23.984375 C 3.5 -24.546875 3.703125 -25.03125 4.109375 -25.4375 C 4.515625 -25.84375 5 -26.046875 5.5625 -26.046875 C 6.164062 -26.046875 6.660156 -25.84375 7.046875 -25.4375 C 7.441406 -25.03125 7.640625 -24.546875 7.640625 -23.984375 Z M 7.640625 -23.984375 "/></g></g></g><g fill="#000000" fill-opacity="1"><g transform="translate(542.259227, 151.624298)"><g><path d="M 19.703125 0 L 11.25 0 L 11.25 -0.609375 C 12.28125 -0.691406 12.960938 -0.960938 13.296875 -1.421875 C 13.640625 -1.878906 13.8125 -2.742188 13.8125 -4.015625 L 13.8125 -12.515625 C 13.8125 -15.140625 12.820312 -16.453125 10.84375 -16.453125 C 10.164062 -16.453125 9.539062 -16.296875 8.96875 -15.984375 C 8.40625 -15.679688 7.640625 -15.066406 6.671875 -14.140625 L 6.671875 -2.71875 C 6.671875 -1.988281 6.859375 -1.472656 7.234375 -1.171875 C 7.609375 -0.878906 8.3125 -0.691406 9.34375 -0.609375 L 9.34375 0 L 0.734375 0 L 0.734375 -0.609375 C 1.765625 -0.691406 2.441406 -0.925781 2.765625 -1.3125 C 3.085938 -1.707031 3.25 -2.488281 3.25 -3.65625 L 3.25 -13.734375 C 3.25 -14.734375 3.140625 -15.414062 2.921875 -15.78125 C 2.703125 -16.15625 2.3125 -16.34375 1.75 -16.34375 C 1.226562 -16.34375 0.863281 -16.285156 0.65625 -16.171875 L 0.65625 -16.859375 C 2.65625 -17.460938 4.523438 -18.070312 6.265625 -18.6875 L 6.546875 -18.609375 L 6.546875 -15.40625 C 7.921875 -16.707031 9.007812 -17.578125 9.8125 -18.015625 C 10.613281 -18.460938 11.488281 -18.6875 12.4375 -18.6875 C 13.925781 -18.6875 15.097656 -18.148438 15.953125 -17.078125 C 16.804688 -16.015625 17.234375 -14.519531 17.234375 -12.59375 L 17.234375 -3.296875 C 17.234375 -2.285156 17.394531 -1.609375 17.71875 -1.265625 C 18.039062 -0.929688 18.703125 -0.710938 19.703125 -0.609375 Z M 19.703125 0 "/></g></g></g><g fill="#000000" fill-opacity="1"><g transform="translate(562.574244, 151.624298)"><g><path d="M 17.234375 -6.375 C 15.472656 -1.851562 12.597656 0.40625 8.609375 0.40625 C 6.285156 0.40625 4.4375 -0.410156 3.0625 -2.046875 C 1.695312 -3.691406 1.015625 -5.910156 1.015625 -8.703125 C 1.015625 -11.648438 1.800781 -14.050781 3.375 -15.90625 C 4.945312 -17.757812 6.992188 -18.6875 9.515625 -18.6875 C 11.679688 -18.6875 13.414062 -17.914062 14.71875 -16.375 C 15.601562 -15.238281 16.179688 -13.53125 16.453125 -11.25 L 3.9375 -11.25 C 4.019531 -8.945312 4.425781 -7.082031 5.15625 -5.65625 C 6.320312 -3.476562 8.03125 -2.390625 10.28125 -2.390625 C 11.582031 -2.390625 12.710938 -2.710938 13.671875 -3.359375 C 14.640625 -4.015625 15.609375 -5.117188 16.578125 -6.671875 Z M 12.3125 -12.5625 C 12.039062 -14.320312 11.617188 -15.539062 11.046875 -16.21875 C 10.484375 -16.894531 9.578125 -17.234375 8.328125 -17.234375 C 5.890625 -17.234375 4.453125 -15.675781 4.015625 -12.5625 Z M 12.3125 -12.5625 "/></g></g></g><g fill="#000000" fill-opacity="1"><g transform="translate(367.934074, 207.769373)"><g><path d="M 31.5 0 L 22.59375 0 L 22.59375 -0.609375 C 23.789062 -0.742188 24.535156 -0.972656 24.828125 -1.296875 C 25.128906 -1.617188 25.28125 -2.363281 25.28125 -3.53125 L 25.28125 -12.109375 C 25.28125 -13.785156 25.0625 -14.945312 24.625 -15.59375 C 24.195312 -16.25 23.398438 -16.578125 22.234375 -16.578125 C 20.441406 -16.578125 18.960938 -15.753906 17.796875 -14.109375 L 17.796875 -3.859375 C 17.796875 -2.585938 17.992188 -1.734375 18.390625 -1.296875 C 18.785156 -0.867188 19.566406 -0.640625 20.734375 -0.609375 L 20.734375 0 L 11.625 0 L 11.625 -0.609375 C 12.789062 -0.691406 13.539062 -0.90625 13.875 -1.25 C 14.21875 -1.601562 14.390625 -2.351562 14.390625 -3.5 L 14.390625 -12.3125 C 14.390625 -15.15625 13.492188 -16.578125 11.703125 -16.578125 C 10.992188 -16.578125 10.25 -16.421875 9.46875 -16.109375 C 8.6875 -15.796875 8.035156 -15.410156 7.515625 -14.953125 L 6.90625 -14.1875 L 6.90625 -2.71875 C 6.90625 -1.9375 7.09375 -1.398438 7.46875 -1.109375 C 7.851562 -0.828125 8.585938 -0.660156 9.671875 -0.609375 L 9.671875 0 L 0.65625 0 L 0.65625 -0.609375 C 1.789062 -0.640625 2.546875 -0.84375 2.921875 -1.21875 C 3.304688 -1.59375 3.5 -2.335938 3.5 -3.453125 L 3.5 -13.734375 C 3.5 -14.710938 3.394531 -15.390625 3.1875 -15.765625 C 2.988281 -16.148438 2.617188 -16.34375 2.078125 -16.34375 C 1.671875 -16.34375 1.234375 -16.285156 0.765625 -16.171875 L 0.765625 -16.859375 C 2.722656 -17.398438 4.625 -18.007812 6.46875 -18.6875 L 6.75 -18.609375 L 6.75 -15.5625 C 8.425781 -16.832031 9.671875 -17.671875 10.484375 -18.078125 C 11.296875 -18.484375 12.148438 -18.6875 13.046875 -18.6875 C 15.179688 -18.6875 16.617188 -17.550781 17.359375 -15.28125 C 19.472656 -17.550781 21.679688 -18.6875 23.984375 -18.6875 C 27.117188 -18.6875 28.6875 -16.273438 28.6875 -11.453125 L 28.6875 -3.09375 C 28.6875 -1.570312 29.269531 -0.769531 30.4375 -0.6875 L 31.5 -0.609375 Z M 31.5 0 "/></g></g></g><g fill="#000000" fill-opacity="1"><g transform="translate(399.544244, 207.769373)"><g><path d="M 17.234375 -6.375 C 15.472656 -1.851562 12.597656 0.40625 8.609375 0.40625 C 6.285156 0.40625 4.4375 -0.410156 3.0625 -2.046875 C 1.695312 -3.691406 1.015625 -5.910156 1.015625 -8.703125 C 1.015625 -11.648438 1.800781 -14.050781 3.375 -15.90625 C 4.945312 -17.757812 6.992188 -18.6875 9.515625 -18.6875 C 11.679688 -18.6875 13.414062 -17.914062 14.71875 -16.375 C 15.601562 -15.238281 16.179688 -13.53125 16.453125 -11.25 L 3.9375 -11.25 C 4.019531 -8.945312 4.425781 -7.082031 5.15625 -5.65625 C 6.320312 -3.476562 8.03125 -2.390625 10.28125 -2.390625 C 11.582031 -2.390625 12.710938 -2.710938 13.671875 -3.359375 C 14.640625 -4.015625 15.609375 -5.117188 16.578125 -6.671875 Z M 12.3125 -12.5625 C 12.039062 -14.320312 11.617188 -15.539062 11.046875 -16.21875 C 10.484375 -16.894531 9.578125 -17.234375 8.328125 -17.234375 C 5.890625 -17.234375 4.453125 -15.675781 4.015625 -12.5625 Z M 12.3125 -12.5625 "/></g></g></g><g fill="#000000" fill-opacity="1"><g transform="translate(417.583973, 207.769373)"><g><path d="M 11.34375 -2.6875 C 10.039062 -0.625 8.398438 0.40625 6.421875 0.40625 C 4.035156 0.40625 2.84375 -1.3125 2.84375 -4.75 L 2.84375 -16.984375 L 0.6875 -16.984375 C 0.582031 -17.066406 0.53125 -17.160156 0.53125 -17.265625 C 0.53125 -17.484375 0.757812 -17.742188 1.21875 -18.046875 C 2.332031 -18.691406 3.644531 -20.140625 5.15625 -22.390625 C 5.539062 -22.878906 5.8125 -23.257812 5.96875 -23.53125 C 6.164062 -23.53125 6.265625 -23.351562 6.265625 -23 L 6.265625 -18.28125 L 10.359375 -18.28125 L 10.359375 -16.984375 L 6.265625 -16.984375 L 6.265625 -5.359375 C 6.265625 -4.054688 6.425781 -3.117188 6.75 -2.546875 C 7.070312 -1.984375 7.613281 -1.703125 8.375 -1.703125 C 9.1875 -1.703125 10 -2.175781 10.8125 -3.125 Z M 11.34375 -2.6875 "/></g></g></g><g fill="#000000" fill-opacity="1"><g transform="translate(428.879125, 207.769373)"><g><path d="M 17.96875 -1.625 C 17.257812 -0.84375 16.640625 -0.304688 16.109375 -0.015625 C 15.585938 0.265625 14.988281 0.40625 14.3125 0.40625 C 13.46875 0.40625 12.847656 0.179688 12.453125 -0.265625 C 12.054688 -0.710938 11.804688 -1.476562 11.703125 -2.5625 C 9.367188 -0.582031 7.390625 0.40625 5.765625 0.40625 C 4.523438 0.40625 3.503906 0 2.703125 -0.8125 C 1.898438 -1.625 1.5 -2.664062 1.5 -3.9375 C 1.5 -5.40625 1.988281 -6.585938 2.96875 -7.484375 C 3.832031 -8.234375 4.703125 -8.832031 5.578125 -9.28125 C 6.460938 -9.726562 8.488281 -10.585938 11.65625 -11.859375 L 11.65625 -14.34375 C 11.65625 -16.59375 10.628906 -17.71875 8.578125 -17.71875 C 7.765625 -17.71875 7.070312 -17.519531 6.5 -17.125 C 5.9375 -16.738281 5.65625 -16.273438 5.65625 -15.734375 C 5.65625 -15.429688 5.691406 -15.101562 5.765625 -14.75 C 5.828125 -14.375 5.859375 -14.160156 5.859375 -14.109375 C 5.859375 -13.640625 5.671875 -13.234375 5.296875 -12.890625 C 4.929688 -12.554688 4.503906 -12.390625 4.015625 -12.390625 C 3.535156 -12.390625 3.125 -12.566406 2.78125 -12.921875 C 2.445312 -13.273438 2.28125 -13.679688 2.28125 -14.140625 C 2.28125 -15.253906 2.832031 -16.269531 3.9375 -17.1875 C 5.15625 -18.1875 6.878906 -18.6875 9.109375 -18.6875 C 11.628906 -18.6875 13.320312 -17.90625 14.1875 -16.34375 C 14.695312 -15.5 14.953125 -14.113281 14.953125 -12.1875 L 14.953125 -4.265625 C 14.953125 -3.367188 15.039062 -2.75 15.21875 -2.40625 C 15.394531 -2.070312 15.710938 -1.90625 16.171875 -1.90625 C 16.742188 -1.90625 17.34375 -2.164062 17.96875 -2.6875 Z M 11.65625 -5 L 11.65625 -10.890625 C 9.21875 -9.992188 7.507812 -9.125 6.53125 -8.28125 C 5.5625 -7.445312 5.078125 -6.4375 5.078125 -5.25 L 5.078125 -5.078125 C 5.078125 -4.210938 5.328125 -3.472656 5.828125 -2.859375 C 6.328125 -2.253906 6.929688 -1.953125 7.640625 -1.953125 C 8.585938 -1.953125 9.578125 -2.25 10.609375 -2.84375 C 11.035156 -3.113281 11.316406 -3.382812 11.453125 -3.65625 C 11.585938 -3.925781 11.65625 -4.375 11.65625 -5 Z M 11.65625 -5 "/></g></g></g><g fill="#000000" fill-opacity="1"><g transform="translate(446.918854, 207.769373)"><g><path d="M 19.953125 -1.703125 L 13.984375 0.40625 L 13.8125 0.28125 L 13.8125 -2.3125 C 12.507812 -0.5 10.773438 0.40625 8.609375 0.40625 C 6.367188 0.40625 4.554688 -0.398438 3.171875 -2.015625 C 1.785156 -3.628906 1.09375 -5.734375 1.09375 -8.328125 C 1.09375 -11.203125 1.921875 -13.644531 3.578125 -15.65625 C 5.234375 -17.675781 7.222656 -18.6875 9.546875 -18.6875 C 11.015625 -18.6875 12.4375 -18.109375 13.8125 -16.953125 L 13.8125 -23.28125 C 13.8125 -24.125 13.691406 -24.679688 13.453125 -24.953125 C 13.210938 -25.222656 12.710938 -25.359375 11.953125 -25.359375 C 11.566406 -25.359375 11.265625 -25.34375 11.046875 -25.3125 L 11.046875 -25.96875 C 13.515625 -26.613281 15.507812 -27.207031 17.03125 -27.75 L 17.234375 -27.671875 L 17.234375 -4.640625 C 17.234375 -3.679688 17.347656 -3.050781 17.578125 -2.75 C 17.804688 -2.457031 18.285156 -2.3125 19.015625 -2.3125 C 19.148438 -2.3125 19.460938 -2.328125 19.953125 -2.359375 Z M 13.8125 -4.140625 L 13.8125 -13.5 C 13.8125 -14.582031 13.390625 -15.53125 12.546875 -16.34375 C 11.710938 -17.15625 10.753906 -17.5625 9.671875 -17.5625 C 8.128906 -17.5625 6.894531 -16.867188 5.96875 -15.484375 C 5.050781 -14.097656 4.59375 -12.253906 4.59375 -9.953125 C 4.59375 -7.460938 5.109375 -5.460938 6.140625 -3.953125 C 7.171875 -2.453125 8.523438 -1.703125 10.203125 -1.703125 C 11.421875 -1.703125 12.394531 -2.109375 13.125 -2.921875 C 13.582031 -3.441406 13.8125 -3.847656 13.8125 -4.140625 Z M 13.8125 -4.140625 "/></g></g></g><g fill="#000000" fill-opacity="1"><g transform="translate(467.233871, 207.769373)"><g><path d="M 17.96875 -1.625 C 17.257812 -0.84375 16.640625 -0.304688 16.109375 -0.015625 C 15.585938 0.265625 14.988281 0.40625 14.3125 0.40625 C 13.46875 0.40625 12.847656 0.179688 12.453125 -0.265625 C 12.054688 -0.710938 11.804688 -1.476562 11.703125 -2.5625 C 9.367188 -0.582031 7.390625 0.40625 5.765625 0.40625 C 4.523438 0.40625 3.503906 0 2.703125 -0.8125 C 1.898438 -1.625 1.5 -2.664062 1.5 -3.9375 C 1.5 -5.40625 1.988281 -6.585938 2.96875 -7.484375 C 3.832031 -8.234375 4.703125 -8.832031 5.578125 -9.28125 C 6.460938 -9.726562 8.488281 -10.585938 11.65625 -11.859375 L 11.65625 -14.34375 C 11.65625 -16.59375 10.628906 -17.71875 8.578125 -17.71875 C 7.765625 -17.71875 7.070312 -17.519531 6.5 -17.125 C 5.9375 -16.738281 5.65625 -16.273438 5.65625 -15.734375 C 5.65625 -15.429688 5.691406 -15.101562 5.765625 -14.75 C 5.828125 -14.375 5.859375 -14.160156 5.859375 -14.109375 C 5.859375 -13.640625 5.671875 -13.234375 5.296875 -12.890625 C 4.929688 -12.554688 4.503906 -12.390625 4.015625 -12.390625 C 3.535156 -12.390625 3.125 -12.566406 2.78125 -12.921875 C 2.445312 -13.273438 2.28125 -13.679688 2.28125 -14.140625 C 2.28125 -15.253906 2.832031 -16.269531 3.9375 -17.1875 C 5.15625 -18.1875 6.878906 -18.6875 9.109375 -18.6875 C 11.628906 -18.6875 13.320312 -17.90625 14.1875 -16.34375 C 14.695312 -15.5 14.953125 -14.113281 14.953125 -12.1875 L 14.953125 -4.265625 C 14.953125 -3.367188 15.039062 -2.75 15.21875 -2.40625 C 15.394531 -2.070312 15.710938 -1.90625 16.171875 -1.90625 C 16.742188 -1.90625 17.34375 -2.164062 17.96875 -2.6875 Z M 11.65625 -5 L 11.65625 -10.890625 C 9.21875 -9.992188 7.507812 -9.125 6.53125 -8.28125 C 5.5625 -7.445312 5.078125 -6.4375 5.078125 -5.25 L 5.078125 -5.078125 C 5.078125 -4.210938 5.328125 -3.472656 5.828125 -2.859375 C 6.328125 -2.253906 6.929688 -1.953125 7.640625 -1.953125 C 8.585938 -1.953125 9.578125 -2.25 10.609375 -2.84375 C 11.035156 -3.113281 11.316406 -3.382812 11.453125 -3.65625 C 11.585938 -3.925781 11.65625 -4.375 11.65625 -5 Z M 11.65625 -5 "/></g></g></g><g fill="#000000" fill-opacity="1"><g transform="translate(485.2736, 207.769373)"><g><path d="M 11.34375 -2.6875 C 10.039062 -0.625 8.398438 0.40625 6.421875 0.40625 C 4.035156 0.40625 2.84375 -1.3125 2.84375 -4.75 L 2.84375 -16.984375 L 0.6875 -16.984375 C 0.582031 -17.066406 0.53125 -17.160156 0.53125 -17.265625 C 0.53125 -17.484375 0.757812 -17.742188 1.21875 -18.046875 C 2.332031 -18.691406 3.644531 -20.140625 5.15625 -22.390625 C 5.539062 -22.878906 5.8125 -23.257812 5.96875 -23.53125 C 6.164062 -23.53125 6.265625 -23.351562 6.265625 -23 L 6.265625 -18.28125 L 10.359375 -18.28125 L 10.359375 -16.984375 L 6.265625 -16.984375 L 6.265625 -5.359375 C 6.265625 -4.054688 6.425781 -3.117188 6.75 -2.546875 C 7.070312 -1.984375 7.613281 -1.703125 8.375 -1.703125 C 9.1875 -1.703125 10 -2.175781 10.8125 -3.125 Z M 11.34375 -2.6875 "/></g></g></g><g fill="#000000" fill-opacity="1"><g transform="translate(496.568753, 207.769373)"><g><path d="M 17.96875 -1.625 C 17.257812 -0.84375 16.640625 -0.304688 16.109375 -0.015625 C 15.585938 0.265625 14.988281 0.40625 14.3125 0.40625 C 13.46875 0.40625 12.847656 0.179688 12.453125 -0.265625 C 12.054688 -0.710938 11.804688 -1.476562 11.703125 -2.5625 C 9.367188 -0.582031 7.390625 0.40625 5.765625 0.40625 C 4.523438 0.40625 3.503906 0 2.703125 -0.8125 C 1.898438 -1.625 1.5 -2.664062 1.5 -3.9375 C 1.5 -5.40625 1.988281 -6.585938 2.96875 -7.484375 C 3.832031 -8.234375 4.703125 -8.832031 5.578125 -9.28125 C 6.460938 -9.726562 8.488281 -10.585938 11.65625 -11.859375 L 11.65625 -14.34375 C 11.65625 -16.59375 10.628906 -17.71875 8.578125 -17.71875 C 7.765625 -17.71875 7.070312 -17.519531 6.5 -17.125 C 5.9375 -16.738281 5.65625 -16.273438 5.65625 -15.734375 C 5.65625 -15.429688 5.691406 -15.101562 5.765625 -14.75 C 5.828125 -14.375 5.859375 -14.160156 5.859375 -14.109375 C 5.859375 -13.640625 5.671875 -13.234375 5.296875 -12.890625 C 4.929688 -12.554688 4.503906 -12.390625 4.015625 -12.390625 C 3.535156 -12.390625 3.125 -12.566406 2.78125 -12.921875 C 2.445312 -13.273438 2.28125 -13.679688 2.28125 -14.140625 C 2.28125 -15.253906 2.832031 -16.269531 3.9375 -17.1875 C 5.15625 -18.1875 6.878906 -18.6875 9.109375 -18.6875 C 11.628906 -18.6875 13.320312 -17.90625 14.1875 -16.34375 C 14.695312 -15.5 14.953125 -14.113281 14.953125 -12.1875 L 14.953125 -4.265625 C 14.953125 -3.367188 15.039062 -2.75 15.21875 -2.40625 C 15.394531 -2.070312 15.710938 -1.90625 16.171875 -1.90625 C 16.742188 -1.90625 17.34375 -2.164062 17.96875 -2.6875 Z M 11.65625 -5 L 11.65625 -10.890625 C 9.21875 -9.992188 7.507812 -9.125 6.53125 -8.28125 C 5.5625 -7.445312 5.078125 -6.4375 5.078125 -5.25 L 5.078125 -5.078125 C 5.078125 -4.210938 5.328125 -3.472656 5.828125 -2.859375 C 6.328125 -2.253906 6.929688 -1.953125 7.640625 -1.953125 C 8.585938 -1.953125 9.578125 -2.25 10.609375 -2.84375 C 11.035156 -3.113281 11.316406 -3.382812 11.453125 -3.65625 C 11.585938 -3.925781 11.65625 -4.375 11.65625 -5 Z M 11.65625 -5 "/></g></g></g><g fill="#000000" fill-opacity="1"><g transform="translate(514.608482, 207.769373)"><g/></g></g><g fill="#000000" fill-opacity="1"><g transform="translate(524.766003, 207.769373)"><g><path d="M 13.609375 -16.546875 C 13.609375 -15.972656 13.46875 -15.523438 13.1875 -15.203125 C 12.90625 -14.878906 12.519531 -14.71875 12.03125 -14.71875 C 11.570312 -14.71875 11.03125 -14.988281 10.40625 -15.53125 C 9.96875 -15.9375 9.613281 -16.140625 9.34375 -16.140625 C 8.800781 -16.140625 8.191406 -15.742188 7.515625 -14.953125 C 6.835938 -14.171875 6.5 -13.453125 6.5 -12.796875 L 6.5 -3.65625 C 6.5 -2.488281 6.726562 -1.703125 7.1875 -1.296875 C 7.65625 -0.890625 8.578125 -0.660156 9.953125 -0.609375 L 9.953125 0 L 0.203125 0 L 0.203125 -0.609375 C 1.503906 -0.847656 2.3125 -1.117188 2.625 -1.421875 C 2.9375 -1.722656 3.09375 -2.382812 3.09375 -3.40625 L 3.09375 -13.578125 C 3.09375 -14.472656 2.988281 -15.101562 2.78125 -15.46875 C 2.582031 -15.832031 2.222656 -16.015625 1.703125 -16.015625 C 1.273438 -16.015625 0.800781 -15.957031 0.28125 -15.84375 L 0.28125 -16.5 C 2.445312 -17.207031 4.453125 -17.9375 6.296875 -18.6875 L 6.5 -18.609375 L 6.5 -14.875 C 7.5 -16.3125 8.351562 -17.304688 9.0625 -17.859375 C 9.769531 -18.410156 10.539062 -18.6875 11.375 -18.6875 C 12.082031 -18.6875 12.628906 -18.5 13.015625 -18.125 C 13.410156 -17.75 13.609375 -17.222656 13.609375 -16.546875 Z M 13.609375 -16.546875 "/></g></g></g><g fill="#000000" fill-opacity="1"><g transform="translate(538.295812, 207.769373)"><g><path d="M 17.234375 -6.375 C 15.472656 -1.851562 12.597656 0.40625 8.609375 0.40625 C 6.285156 0.40625 4.4375 -0.410156 3.0625 -2.046875 C 1.695312 -3.691406 1.015625 -5.910156 1.015625 -8.703125 C 1.015625 -11.648438 1.800781 -14.050781 3.375 -15.90625 C 4.945312 -17.757812 6.992188 -18.6875 9.515625 -18.6875 C 11.679688 -18.6875 13.414062 -17.914062 14.71875 -16.375 C 15.601562 -15.238281 16.179688 -13.53125 16.453125 -11.25 L 3.9375 -11.25 C 4.019531 -8.945312 4.425781 -7.082031 5.15625 -5.65625 C 6.320312 -3.476562 8.03125 -2.390625 10.28125 -2.390625 C 11.582031 -2.390625 12.710938 -2.710938 13.671875 -3.359375 C 14.640625 -4.015625 15.609375 -5.117188 16.578125 -6.671875 Z M 12.3125 -12.5625 C 12.039062 -14.320312 11.617188 -15.539062 11.046875 -16.21875 C 10.484375 -16.894531 9.578125 -17.234375 8.328125 -17.234375 C 5.890625 -17.234375 4.453125 -15.675781 4.015625 -12.5625 Z M 12.3125 -12.5625 "/></g></g></g><g fill="#000000" fill-opacity="1"><g transform="translate(556.33554, 207.769373)"><g><path d="M 16.75 -5.96875 C 15.582031 -3.695312 14.46875 -2.140625 13.40625 -1.296875 C 12.03125 -0.160156 10.472656 0.40625 8.734375 0.40625 C 6.484375 0.40625 4.632812 -0.4375 3.1875 -2.125 C 1.738281 -3.820312 1.015625 -5.984375 1.015625 -8.609375 C 1.015625 -12.054688 2.15625 -14.726562 4.4375 -16.625 C 6.113281 -18 7.941406 -18.6875 9.921875 -18.6875 C 11.628906 -18.6875 13.097656 -18.273438 14.328125 -17.453125 C 15.554688 -16.628906 16.171875 -15.648438 16.171875 -14.515625 C 16.171875 -14.046875 15.976562 -13.640625 15.59375 -13.296875 C 15.21875 -12.960938 14.773438 -12.796875 14.265625 -12.796875 C 13.316406 -12.796875 12.664062 -13.421875 12.3125 -14.671875 L 12.0625 -15.5625 C 11.851562 -16.320312 11.582031 -16.835938 11.25 -17.109375 C 10.925781 -17.378906 10.398438 -17.515625 9.671875 -17.515625 C 8.015625 -17.515625 6.675781 -16.863281 5.65625 -15.5625 C 4.644531 -14.257812 4.140625 -12.550781 4.140625 -10.4375 C 4.140625 -8.113281 4.722656 -6.210938 5.890625 -4.734375 C 7.054688 -3.253906 8.570312 -2.515625 10.4375 -2.515625 C 11.601562 -2.515625 12.609375 -2.789062 13.453125 -3.34375 C 14.296875 -3.90625 15.203125 -4.90625 16.171875 -6.34375 Z M 16.75 -5.96875 "/></g></g></g><g fill="#000000" fill-opacity="1"><g transform="translate(574.375269, 207.769373)"><g><path d="M 19.09375 -9.515625 C 19.09375 -6.691406 18.226562 -4.332031 16.5 -2.4375 C 14.769531 -0.539062 12.628906 0.40625 10.078125 0.40625 C 7.535156 0.40625 5.414062 -0.503906 3.71875 -2.328125 C 2.019531 -4.160156 1.171875 -6.445312 1.171875 -9.1875 C 1.171875 -11.976562 2.003906 -14.257812 3.671875 -16.03125 C 5.335938 -17.800781 7.5 -18.6875 10.15625 -18.6875 C 12.757812 -18.6875 14.898438 -17.820312 16.578125 -16.09375 C 18.253906 -14.363281 19.09375 -12.171875 19.09375 -9.515625 Z M 15.4375 -8.09375 C 15.4375 -10.882812 14.894531 -13.160156 13.8125 -14.921875 C 12.726562 -16.679688 11.332031 -17.5625 9.625 -17.5625 C 8.195312 -17.5625 7.039062 -16.976562 6.15625 -15.8125 C 5.28125 -14.644531 4.84375 -13.097656 4.84375 -11.171875 C 4.84375 -8.171875 5.4375 -5.554688 6.625 -3.328125 C 7.539062 -1.597656 8.851562 -0.734375 10.5625 -0.734375 C 12.082031 -0.734375 13.273438 -1.382812 14.140625 -2.6875 C 15.003906 -3.988281 15.4375 -5.789062 15.4375 -8.09375 Z M 15.4375 -8.09375 "/></g></g></g><g fill="#000000" fill-opacity="1"><g transform="translate(594.690287, 207.769373)"><g><path d="M 13.609375 -16.546875 C 13.609375 -15.972656 13.46875 -15.523438 13.1875 -15.203125 C 12.90625 -14.878906 12.519531 -14.71875 12.03125 -14.71875 C 11.570312 -14.71875 11.03125 -14.988281 10.40625 -15.53125 C 9.96875 -15.9375 9.613281 -16.140625 9.34375 -16.140625 C 8.800781 -16.140625 8.191406 -15.742188 7.515625 -14.953125 C 6.835938 -14.171875 6.5 -13.453125 6.5 -12.796875 L 6.5 -3.65625 C 6.5 -2.488281 6.726562 -1.703125 7.1875 -1.296875 C 7.65625 -0.890625 8.578125 -0.660156 9.953125 -0.609375 L 9.953125 0 L 0.203125 0 L 0.203125 -0.609375 C 1.503906 -0.847656 2.3125 -1.117188 2.625 -1.421875 C 2.9375 -1.722656 3.09375 -2.382812 3.09375 -3.40625 L 3.09375 -13.578125 C 3.09375 -14.472656 2.988281 -15.101562 2.78125 -15.46875 C 2.582031 -15.832031 2.222656 -16.015625 1.703125 -16.015625 C 1.273438 -16.015625 0.800781 -15.957031 0.28125 -15.84375 L 0.28125 -16.5 C 2.445312 -17.207031 4.453125 -17.9375 6.296875 -18.6875 L 6.5 -18.609375 L 6.5 -14.875 C 7.5 -16.3125 8.351562 -17.304688 9.0625 -17.859375 C 9.769531 -18.410156 10.539062 -18.6875 11.375 -18.6875 C 12.082031 -18.6875 12.628906 -18.5 13.015625 -18.125 C 13.410156 -17.75 13.609375 -17.222656 13.609375 -16.546875 Z M 13.609375 -16.546875 "/></g></g></g><g fill="#000000" fill-opacity="1"><g transform="translate(608.220095, 207.769373)"><g><path d="M 19.953125 -1.703125 L 13.984375 0.40625 L 13.8125 0.28125 L 13.8125 -2.3125 C 12.507812 -0.5 10.773438 0.40625 8.609375 0.40625 C 6.367188 0.40625 4.554688 -0.398438 3.171875 -2.015625 C 1.785156 -3.628906 1.09375 -5.734375 1.09375 -8.328125 C 1.09375 -11.203125 1.921875 -13.644531 3.578125 -15.65625 C 5.234375 -17.675781 7.222656 -18.6875 9.546875 -18.6875 C 11.015625 -18.6875 12.4375 -18.109375 13.8125 -16.953125 L 13.8125 -23.28125 C 13.8125 -24.125 13.691406 -24.679688 13.453125 -24.953125 C 13.210938 -25.222656 12.710938 -25.359375 11.953125 -25.359375 C 11.566406 -25.359375 11.265625 -25.34375 11.046875 -25.3125 L 11.046875 -25.96875 C 13.515625 -26.613281 15.507812 -27.207031 17.03125 -27.75 L 17.234375 -27.671875 L 17.234375 -4.640625 C 17.234375 -3.679688 17.347656 -3.050781 17.578125 -2.75 C 17.804688 -2.457031 18.285156 -2.3125 19.015625 -2.3125 C 19.148438 -2.3125 19.460938 -2.328125 19.953125 -2.359375 Z M 13.8125 -4.140625 L 13.8125 -13.5 C 13.8125 -14.582031 13.390625 -15.53125 12.546875 -16.34375 C 11.710938 -17.15625 10.753906 -17.5625 9.671875 -17.5625 C 8.128906 -17.5625 6.894531 -16.867188 5.96875 -15.484375 C 5.050781 -14.097656 4.59375 -12.253906 4.59375 -9.953125 C 4.59375 -7.460938 5.109375 -5.460938 6.140625 -3.953125 C 7.171875 -2.453125 8.523438 -1.703125 10.203125 -1.703125 C 11.421875 -1.703125 12.394531 -2.109375 13.125 -2.921875 C 13.582031 -3.441406 13.8125 -3.847656 13.8125 -4.140625 Z M 13.8125 -4.140625 "/></g></g></g><g fill="#000000" fill-opacity="1"><g transform="translate(628.535113, 207.769373)"><g><path d="M 14.140625 -4.796875 C 14.140625 -3.390625 13.578125 -2.171875 12.453125 -1.140625 C 11.328125 -0.109375 9.992188 0.40625 8.453125 0.40625 C 7.722656 0.40625 6.722656 0.269531 5.453125 0 C 4.578125 -0.21875 3.953125 -0.328125 3.578125 -0.328125 C 3.171875 -0.328125 2.859375 -0.164062 2.640625 0.15625 L 2.109375 0.15625 L 2.109375 -6.171875 L 2.765625 -6.171875 C 3.222656 -4.117188 3.84375 -2.65625 4.625 -1.78125 C 5.414062 -0.914062 6.515625 -0.484375 7.921875 -0.484375 C 8.953125 -0.484375 9.769531 -0.75 10.375 -1.28125 C 10.988281 -1.8125 11.296875 -2.519531 11.296875 -3.40625 C 11.296875 -4.632812 10.59375 -5.65625 9.1875 -6.46875 L 6.828125 -7.796875 C 5.097656 -8.804688 3.875 -9.75 3.15625 -10.625 C 2.4375 -11.507812 2.078125 -12.519531 2.078125 -13.65625 C 2.078125 -15.144531 2.597656 -16.347656 3.640625 -17.265625 C 4.679688 -18.191406 6.03125 -18.65625 7.6875 -18.65625 C 8.6875 -18.65625 9.601562 -18.492188 10.4375 -18.171875 C 10.84375 -17.972656 11.210938 -17.875 11.546875 -17.875 C 11.648438 -17.875 11.835938 -17.984375 12.109375 -18.203125 L 12.1875 -18.28125 L 12.640625 -18.28125 L 12.796875 -12.765625 L 12.1875 -12.765625 C 11.726562 -14.578125 11.160156 -15.863281 10.484375 -16.625 C 9.804688 -17.382812 8.882812 -17.765625 7.71875 -17.765625 C 6.769531 -17.765625 6.007812 -17.507812 5.4375 -17 C 4.875 -16.5 4.59375 -15.832031 4.59375 -15 C 4.59375 -13.832031 5.175781 -12.910156 6.34375 -12.234375 L 10.734375 -9.625 C 11.972656 -8.894531 12.847656 -8.164062 13.359375 -7.4375 C 13.878906 -6.707031 14.140625 -5.828125 14.140625 -4.796875 Z M 14.140625 -4.796875 "/></g></g></g><g fill="#000000" fill-opacity="1"><g transform="translate(379.163089, 263.914449)"><g><path d="M 17.96875 -1.625 C 17.257812 -0.84375 16.640625 -0.304688 16.109375 -0.015625 C 15.585938 0.265625 14.988281 0.40625 14.3125 0.40625 C 13.46875 0.40625 12.847656 0.179688 12.453125 -0.265625 C 12.054688 -0.710938 11.804688 -1.476562 11.703125 -2.5625 C 9.367188 -0.582031 7.390625 0.40625 5.765625 0.40625 C 4.523438 0.40625 3.503906 0 2.703125 -0.8125 C 1.898438 -1.625 1.5 -2.664062 1.5 -3.9375 C 1.5 -5.40625 1.988281 -6.585938 2.96875 -7.484375 C 3.832031 -8.234375 4.703125 -8.832031 5.578125 -9.28125 C 6.460938 -9.726562 8.488281 -10.585938 11.65625 -11.859375 L 11.65625 -14.34375 C 11.65625 -16.59375 10.628906 -17.71875 8.578125 -17.71875 C 7.765625 -17.71875 7.070312 -17.519531 6.5 -17.125 C 5.9375 -16.738281 5.65625 -16.273438 5.65625 -15.734375 C 5.65625 -15.429688 5.691406 -15.101562 5.765625 -14.75 C 5.828125 -14.375 5.859375 -14.160156 5.859375 -14.109375 C 5.859375 -13.640625 5.671875 -13.234375 5.296875 -12.890625 C 4.929688 -12.554688 4.503906 -12.390625 4.015625 -12.390625 C 3.535156 -12.390625 3.125 -12.566406 2.78125 -12.921875 C 2.445312 -13.273438 2.28125 -13.679688 2.28125 -14.140625 C 2.28125 -15.253906 2.832031 -16.269531 3.9375 -17.1875 C 5.15625 -18.1875 6.878906 -18.6875 9.109375 -18.6875 C 11.628906 -18.6875 13.320312 -17.90625 14.1875 -16.34375 C 14.695312 -15.5 14.953125 -14.113281 14.953125 -12.1875 L 14.953125 -4.265625 C 14.953125 -3.367188 15.039062 -2.75 15.21875 -2.40625 C 15.394531 -2.070312 15.710938 -1.90625 16.171875 -1.90625 C 16.742188 -1.90625 17.34375 -2.164062 17.96875 -2.6875 Z M 11.65625 -5 L 11.65625 -10.890625 C 9.21875 -9.992188 7.507812 -9.125 6.53125 -8.28125 C 5.5625 -7.445312 5.078125 -6.4375 5.078125 -5.25 L 5.078125 -5.078125 C 5.078125 -4.210938 5.328125 -3.472656 5.828125 -2.859375 C 6.328125 -2.253906 6.929688 -1.953125 7.640625 -1.953125 C 8.585938 -1.953125 9.578125 -2.25 10.609375 -2.84375 C 11.035156 -3.113281 11.316406 -3.382812 11.453125 -3.65625 C 11.585938 -3.925781 11.65625 -4.375 11.65625 -5 Z M 11.65625 -5 "/></g></g></g><g fill="#000000" fill-opacity="1"><g transform="translate(397.202818, 263.914449)"><g><path d="M 19.703125 0 L 11.25 0 L 11.25 -0.609375 C 12.28125 -0.691406 12.960938 -0.960938 13.296875 -1.421875 C 13.640625 -1.878906 13.8125 -2.742188 13.8125 -4.015625 L 13.8125 -12.515625 C 13.8125 -15.140625 12.820312 -16.453125 10.84375 -16.453125 C 10.164062 -16.453125 9.539062 -16.296875 8.96875 -15.984375 C 8.40625 -15.679688 7.640625 -15.066406 6.671875 -14.140625 L 6.671875 -2.71875 C 6.671875 -1.988281 6.859375 -1.472656 7.234375 -1.171875 C 7.609375 -0.878906 8.3125 -0.691406 9.34375 -0.609375 L 9.34375 0 L 0.734375 0 L 0.734375 -0.609375 C 1.765625 -0.691406 2.441406 -0.925781 2.765625 -1.3125 C 3.085938 -1.707031 3.25 -2.488281 3.25 -3.65625 L 3.25 -13.734375 C 3.25 -14.734375 3.140625 -15.414062 2.921875 -15.78125 C 2.703125 -16.15625 2.3125 -16.34375 1.75 -16.34375 C 1.226562 -16.34375 0.863281 -16.285156 0.65625 -16.171875 L 0.65625 -16.859375 C 2.65625 -17.460938 4.523438 -18.070312 6.265625 -18.6875 L 6.546875 -18.609375 L 6.546875 -15.40625 C 7.921875 -16.707031 9.007812 -17.578125 9.8125 -18.015625 C 10.613281 -18.460938 11.488281 -18.6875 12.4375 -18.6875 C 13.925781 -18.6875 15.097656 -18.148438 15.953125 -17.078125 C 16.804688 -16.015625 17.234375 -14.519531 17.234375 -12.59375 L 17.234375 -3.296875 C 17.234375 -2.285156 17.394531 -1.609375 17.71875 -1.265625 C 18.039062 -0.929688 18.703125 -0.710938 19.703125 -0.609375 Z M 19.703125 0 "/></g></g></g><g fill="#000000" fill-opacity="1"><g transform="translate(417.517835, 263.914449)"><g><path d="M 19.953125 -1.703125 L 13.984375 0.40625 L 13.8125 0.28125 L 13.8125 -2.3125 C 12.507812 -0.5 10.773438 0.40625 8.609375 0.40625 C 6.367188 0.40625 4.554688 -0.398438 3.171875 -2.015625 C 1.785156 -3.628906 1.09375 -5.734375 1.09375 -8.328125 C 1.09375 -11.203125 1.921875 -13.644531 3.578125 -15.65625 C 5.234375 -17.675781 7.222656 -18.6875 9.546875 -18.6875 C 11.015625 -18.6875 12.4375 -18.109375 13.8125 -16.953125 L 13.8125 -23.28125 C 13.8125 -24.125 13.691406 -24.679688 13.453125 -24.953125 C 13.210938 -25.222656 12.710938 -25.359375 11.953125 -25.359375 C 11.566406 -25.359375 11.265625 -25.34375 11.046875 -25.3125 L 11.046875 -25.96875 C 13.515625 -26.613281 15.507812 -27.207031 17.03125 -27.75 L 17.234375 -27.671875 L 17.234375 -4.640625 C 17.234375 -3.679688 17.347656 -3.050781 17.578125 -2.75 C 17.804688 -2.457031 18.285156 -2.3125 19.015625 -2.3125 C 19.148438 -2.3125 19.460938 -2.328125 19.953125 -2.359375 Z M 13.8125 -4.140625 L 13.8125 -13.5 C 13.8125 -14.582031 13.390625 -15.53125 12.546875 -16.34375 C 11.710938 -17.15625 10.753906 -17.5625 9.671875 -17.5625 C 8.128906 -17.5625 6.894531 -16.867188 5.96875 -15.484375 C 5.050781 -14.097656 4.59375 -12.253906 4.59375 -9.953125 C 4.59375 -7.460938 5.109375 -5.460938 6.140625 -3.953125 C 7.171875 -2.453125 8.523438 -1.703125 10.203125 -1.703125 C 11.421875 -1.703125 12.394531 -2.109375 13.125 -2.921875 C 13.582031 -3.441406 13.8125 -3.847656 13.8125 -4.140625 Z M 13.8125 -4.140625 "/></g></g></g><g fill="#000000" fill-opacity="1"><g transform="translate(437.832852, 263.914449)"><g/></g></g><g fill="#000000" fill-opacity="1"><g transform="translate(447.990373, 263.914449)"><g><path d="M 10.4375 0 L 0.859375 0 L 0.859375 -0.609375 C 2.128906 -0.710938 2.96875 -0.953125 3.375 -1.328125 C 3.78125 -1.710938 3.984375 -2.445312 3.984375 -3.53125 L 3.984375 -22.921875 C 3.984375 -23.867188 3.859375 -24.519531 3.609375 -24.875 C 3.367188 -25.226562 2.925781 -25.40625 2.28125 -25.40625 C 2.03125 -25.40625 1.609375 -25.375 1.015625 -25.3125 L 0.765625 -25.3125 L 0.765625 -25.96875 C 3.453125 -26.613281 5.609375 -27.207031 7.234375 -27.75 L 7.390625 -27.671875 L 7.390625 -3.40625 C 7.390625 -2.300781 7.570312 -1.578125 7.9375 -1.234375 C 8.3125 -0.898438 9.144531 -0.691406 10.4375 -0.609375 Z M 10.4375 0 "/></g></g></g><g fill="#000000" fill-opacity="1"><g transform="translate(459.285526, 263.914449)"><g><path d="M 10.28125 0 L 0.65625 0 L 0.65625 -0.609375 C 2.0625 -0.691406 2.945312 -0.9375 3.3125 -1.34375 C 3.675781 -1.75 3.859375 -2.679688 3.859375 -4.140625 L 3.859375 -13.578125 C 3.859375 -14.472656 3.753906 -15.101562 3.546875 -15.46875 C 3.347656 -15.832031 3.003906 -16.015625 2.515625 -16.015625 C 2.085938 -16.015625 1.628906 -15.972656 1.140625 -15.890625 L 0.8125 -15.84375 L 0.8125 -16.453125 L 7.109375 -18.6875 L 7.28125 -18.578125 L 7.28125 -4.140625 C 7.28125 -2.679688 7.445312 -1.753906 7.78125 -1.359375 C 8.125 -0.960938 8.957031 -0.710938 10.28125 -0.609375 Z M 7.640625 -23.984375 C 7.640625 -23.378906 7.441406 -22.878906 7.046875 -22.484375 C 6.660156 -22.097656 6.164062 -21.90625 5.5625 -21.90625 C 5 -21.90625 4.515625 -22.097656 4.109375 -22.484375 C 3.703125 -22.878906 3.5 -23.378906 3.5 -23.984375 C 3.5 -24.546875 3.703125 -25.03125 4.109375 -25.4375 C 4.515625 -25.84375 5 -26.046875 5.5625 -26.046875 C 6.164062 -26.046875 6.660156 -25.84375 7.046875 -25.4375 C 7.441406 -25.03125 7.640625 -24.546875 7.640625 -23.984375 Z M 7.640625 -23.984375 "/></g></g></g><g fill="#000000" fill-opacity="1"><g transform="translate(470.580679, 263.914449)"><g><path d="M 19.703125 0 L 11.25 0 L 11.25 -0.609375 C 12.28125 -0.691406 12.960938 -0.960938 13.296875 -1.421875 C 13.640625 -1.878906 13.8125 -2.742188 13.8125 -4.015625 L 13.8125 -12.515625 C 13.8125 -15.140625 12.820312 -16.453125 10.84375 -16.453125 C 10.164062 -16.453125 9.539062 -16.296875 8.96875 -15.984375 C 8.40625 -15.679688 7.640625 -15.066406 6.671875 -14.140625 L 6.671875 -2.71875 C 6.671875 -1.988281 6.859375 -1.472656 7.234375 -1.171875 C 7.609375 -0.878906 8.3125 -0.691406 9.34375 -0.609375 L 9.34375 0 L 0.734375 0 L 0.734375 -0.609375 C 1.765625 -0.691406 2.441406 -0.925781 2.765625 -1.3125 C 3.085938 -1.707031 3.25 -2.488281 3.25 -3.65625 L 3.25 -13.734375 C 3.25 -14.734375 3.140625 -15.414062 2.921875 -15.78125 C 2.703125 -16.15625 2.3125 -16.34375 1.75 -16.34375 C 1.226562 -16.34375 0.863281 -16.285156 0.65625 -16.171875 L 0.65625 -16.859375 C 2.65625 -17.460938 4.523438 -18.070312 6.265625 -18.6875 L 6.546875 -18.609375 L 6.546875 -15.40625 C 7.921875 -16.707031 9.007812 -17.578125 9.8125 -18.015625 C 10.613281 -18.460938 11.488281 -18.6875 12.4375 -18.6875 C 13.925781 -18.6875 15.097656 -18.148438 15.953125 -17.078125 C 16.804688 -16.015625 17.234375 -14.519531 17.234375 -12.59375 L 17.234375 -3.296875 C 17.234375 -2.285156 17.394531 -1.609375 17.71875 -1.265625 C 18.039062 -0.929688 18.703125 -0.710938 19.703125 -0.609375 Z M 19.703125 0 "/></g></g></g><g fill="#000000" fill-opacity="1"><g transform="translate(490.895696, 263.914449)"><g><path d="M 20.53125 0 L 11.65625 0 L 11.65625 -0.609375 L 12.4375 -0.609375 C 13.007812 -0.609375 13.296875 -0.8125 13.296875 -1.21875 C 13.296875 -1.40625 13.144531 -1.691406 12.84375 -2.078125 C 12.757812 -2.148438 12.664062 -2.269531 12.5625 -2.4375 L 12.4375 -2.59375 L 6.75 -10.203125 L 6.75 -2.71875 C 6.75 -2.019531 6.914062 -1.503906 7.25 -1.171875 C 7.59375 -0.847656 8.171875 -0.675781 8.984375 -0.65625 L 9.796875 -0.609375 L 9.796875 0 L 0.28125 0 L 0.28125 -0.609375 C 1.75 -0.847656 2.625 -1.097656 2.90625 -1.359375 C 3.1875 -1.617188 3.328125 -2.273438 3.328125 -3.328125 L 3.328125 -22.921875 C 3.328125 -23.898438 3.203125 -24.554688 2.953125 -24.890625 C 2.710938 -25.234375 2.253906 -25.40625 1.578125 -25.40625 C 1.421875 -25.40625 0.988281 -25.375 0.28125 -25.3125 L 0.28125 -25.96875 L 1.5 -26.296875 L 6.578125 -27.75 L 6.75 -27.671875 L 6.75 -10.609375 L 12.3125 -15.5625 C 12.9375 -16.101562 13.25 -16.566406 13.25 -16.953125 C 13.25 -17.222656 13.101562 -17.410156 12.8125 -17.515625 C 12.53125 -17.617188 12 -17.6875 11.21875 -17.71875 L 11.21875 -18.28125 L 19.5 -18.28125 L 19.5 -17.671875 L 19.1875 -17.671875 C 18.53125 -17.671875 17.90625 -17.59375 17.3125 -17.4375 C 16.039062 -17.082031 13.847656 -15.457031 10.734375 -12.5625 L 9.546875 -11.453125 L 15.765625 -3.578125 C 16.609375 -2.546875 17.390625 -1.804688 18.109375 -1.359375 C 18.828125 -0.910156 19.632812 -0.660156 20.53125 -0.609375 Z M 20.53125 0 "/></g></g></g><g fill="#000000" fill-opacity="1"><g transform="translate(511.210713, 263.914449)"><g/></g></g><g fill="#000000" fill-opacity="1"><g transform="translate(521.368234, 263.914449)"><g><path d="M 11.34375 -2.6875 C 10.039062 -0.625 8.398438 0.40625 6.421875 0.40625 C 4.035156 0.40625 2.84375 -1.3125 2.84375 -4.75 L 2.84375 -16.984375 L 0.6875 -16.984375 C 0.582031 -17.066406 0.53125 -17.160156 0.53125 -17.265625 C 0.53125 -17.484375 0.757812 -17.742188 1.21875 -18.046875 C 2.332031 -18.691406 3.644531 -20.140625 5.15625 -22.390625 C 5.539062 -22.878906 5.8125 -23.257812 5.96875 -23.53125 C 6.164062 -23.53125 6.265625 -23.351562 6.265625 -23 L 6.265625 -18.28125 L 10.359375 -18.28125 L 10.359375 -16.984375 L 6.265625 -16.984375 L 6.265625 -5.359375 C 6.265625 -4.054688 6.425781 -3.117188 6.75 -2.546875 C 7.070312 -1.984375 7.613281 -1.703125 8.375 -1.703125 C 9.1875 -1.703125 10 -2.175781 10.8125 -3.125 Z M 11.34375 -2.6875 "/></g></g></g><g fill="#000000" fill-opacity="1"><g transform="translate(532.663387, 263.914449)"><g><path d="M 19.09375 -9.515625 C 19.09375 -6.691406 18.226562 -4.332031 16.5 -2.4375 C 14.769531 -0.539062 12.628906 0.40625 10.078125 0.40625 C 7.535156 0.40625 5.414062 -0.503906 3.71875 -2.328125 C 2.019531 -4.160156 1.171875 -6.445312 1.171875 -9.1875 C 1.171875 -11.976562 2.003906 -14.257812 3.671875 -16.03125 C 5.335938 -17.800781 7.5 -18.6875 10.15625 -18.6875 C 12.757812 -18.6875 14.898438 -17.820312 16.578125 -16.09375 C 18.253906 -14.363281 19.09375 -12.171875 19.09375 -9.515625 Z M 15.4375 -8.09375 C 15.4375 -10.882812 14.894531 -13.160156 13.8125 -14.921875 C 12.726562 -16.679688 11.332031 -17.5625 9.625 -17.5625 C 8.195312 -17.5625 7.039062 -16.976562 6.15625 -15.8125 C 5.28125 -14.644531 4.84375 -13.097656 4.84375 -11.171875 C 4.84375 -8.171875 5.4375 -5.554688 6.625 -3.328125 C 7.539062 -1.597656 8.851562 -0.734375 10.5625 -0.734375 C 12.082031 -0.734375 13.273438 -1.382812 14.140625 -2.6875 C 15.003906 -3.988281 15.4375 -5.789062 15.4375 -8.09375 Z M 15.4375 -8.09375 "/></g></g></g><g fill="#000000" fill-opacity="1"><g transform="translate(552.978404, 263.914449)"><g/></g></g><g fill="#000000" fill-opacity="1"><g transform="translate(563.135925, 263.914449)"><g><path d="M 15.5625 -25.234375 C 15.5625 -24.773438 15.398438 -24.382812 15.078125 -24.0625 C 14.753906 -23.738281 14.347656 -23.578125 13.859375 -23.578125 C 13.210938 -23.578125 12.601562 -24.0625 12.03125 -25.03125 C 11.375 -26.09375 10.65625 -26.625 9.875 -26.625 C 8.332031 -26.625 7.5625 -25.414062 7.5625 -23 L 7.5625 -18.28125 L 12.5625 -18.28125 L 12.5625 -16.984375 L 7.59375 -16.984375 L 7.59375 -4.234375 C 7.59375 -2.710938 7.8125 -1.738281 8.25 -1.3125 C 8.6875 -0.894531 9.726562 -0.660156 11.375 -0.609375 L 11.375 0 L 0.8125 0 L 0.8125 -0.609375 C 2.269531 -0.691406 3.195312 -0.941406 3.59375 -1.359375 C 3.988281 -1.773438 4.1875 -2.734375 4.1875 -4.234375 L 4.1875 -16.984375 L 0.859375 -16.984375 L 0.859375 -18.28125 L 4.1875 -18.28125 C 4.21875 -19.914062 4.328125 -21.1875 4.515625 -22.09375 C 4.703125 -23 5.066406 -23.910156 5.609375 -24.828125 C 6.742188 -26.773438 8.65625 -27.75 11.34375 -27.75 C 12.5625 -27.75 13.566406 -27.507812 14.359375 -27.03125 C 15.160156 -26.5625 15.5625 -25.960938 15.5625 -25.234375 Z M 15.5625 -25.234375 "/></g></g></g><g fill="#000000" fill-opacity="1"><g transform="translate(576.665734, 263.914449)"><g><path d="M 10.28125 0 L 0.65625 0 L 0.65625 -0.609375 C 2.0625 -0.691406 2.945312 -0.9375 3.3125 -1.34375 C 3.675781 -1.75 3.859375 -2.679688 3.859375 -4.140625 L 3.859375 -13.578125 C 3.859375 -14.472656 3.753906 -15.101562 3.546875 -15.46875 C 3.347656 -15.832031 3.003906 -16.015625 2.515625 -16.015625 C 2.085938 -16.015625 1.628906 -15.972656 1.140625 -15.890625 L 0.8125 -15.84375 L 0.8125 -16.453125 L 7.109375 -18.6875 L 7.28125 -18.578125 L 7.28125 -4.140625 C 7.28125 -2.679688 7.445312 -1.753906 7.78125 -1.359375 C 8.125 -0.960938 8.957031 -0.710938 10.28125 -0.609375 Z M 7.640625 -23.984375 C 7.640625 -23.378906 7.441406 -22.878906 7.046875 -22.484375 C 6.660156 -22.097656 6.164062 -21.90625 5.5625 -21.90625 C 5 -21.90625 4.515625 -22.097656 4.109375 -22.484375 C 3.703125 -22.878906 3.5 -23.378906 3.5 -23.984375 C 3.5 -24.546875 3.703125 -25.03125 4.109375 -25.4375 C 4.515625 -25.84375 5 -26.046875 5.5625 -26.046875 C 6.164062 -26.046875 6.660156 -25.84375 7.046875 -25.4375 C 7.441406 -25.03125 7.640625 -24.546875 7.640625 -23.984375 Z M 7.640625 -23.984375 "/></g></g></g><g fill="#000000" fill-opacity="1"><g transform="translate(587.960887, 263.914449)"><g><path d="M 10.4375 0 L 0.859375 0 L 0.859375 -0.609375 C 2.128906 -0.710938 2.96875 -0.953125 3.375 -1.328125 C 3.78125 -1.710938 3.984375 -2.445312 3.984375 -3.53125 L 3.984375 -22.921875 C 3.984375 -23.867188 3.859375 -24.519531 3.609375 -24.875 C 3.367188 -25.226562 2.925781 -25.40625 2.28125 -25.40625 C 2.03125 -25.40625 1.609375 -25.375 1.015625 -25.3125 L 0.765625 -25.3125 L 0.765625 -25.96875 C 3.453125 -26.613281 5.609375 -27.207031 7.234375 -27.75 L 7.390625 -27.671875 L 7.390625 -3.40625 C 7.390625 -2.300781 7.570312 -1.578125 7.9375 -1.234375 C 8.3125 -0.898438 9.144531 -0.691406 10.4375 -0.609375 Z M 10.4375 0 "/></g></g></g><g fill="#000000" fill-opacity="1"><g transform="translate(599.256039, 263.914449)"><g><path d="M 17.234375 -6.375 C 15.472656 -1.851562 12.597656 0.40625 8.609375 0.40625 C 6.285156 0.40625 4.4375 -0.410156 3.0625 -2.046875 C 1.695312 -3.691406 1.015625 -5.910156 1.015625 -8.703125 C 1.015625 -11.648438 1.800781 -14.050781 3.375 -15.90625 C 4.945312 -17.757812 6.992188 -18.6875 9.515625 -18.6875 C 11.679688 -18.6875 13.414062 -17.914062 14.71875 -16.375 C 15.601562 -15.238281 16.179688 -13.53125 16.453125 -11.25 L 3.9375 -11.25 C 4.019531 -8.945312 4.425781 -7.082031 5.15625 -5.65625 C 6.320312 -3.476562 8.03125 -2.390625 10.28125 -2.390625 C 11.582031 -2.390625 12.710938 -2.710938 13.671875 -3.359375 C 14.640625 -4.015625 15.609375 -5.117188 16.578125 -6.671875 Z M 12.3125 -12.5625 C 12.039062 -14.320312 11.617188 -15.539062 11.046875 -16.21875 C 10.484375 -16.894531 9.578125 -17.234375 8.328125 -17.234375 C 5.890625 -17.234375 4.453125 -15.675781 4.015625 -12.5625 Z M 12.3125 -12.5625 "/></g></g></g><g fill="#000000" fill-opacity="1"><g transform="translate(617.295768, 263.914449)"><g><path d="M 14.140625 -4.796875 C 14.140625 -3.390625 13.578125 -2.171875 12.453125 -1.140625 C 11.328125 -0.109375 9.992188 0.40625 8.453125 0.40625 C 7.722656 0.40625 6.722656 0.269531 5.453125 0 C 4.578125 -0.21875 3.953125 -0.328125 3.578125 -0.328125 C 3.171875 -0.328125 2.859375 -0.164062 2.640625 0.15625 L 2.109375 0.15625 L 2.109375 -6.171875 L 2.765625 -6.171875 C 3.222656 -4.117188 3.84375 -2.65625 4.625 -1.78125 C 5.414062 -0.914062 6.515625 -0.484375 7.921875 -0.484375 C 8.953125 -0.484375 9.769531 -0.75 10.375 -1.28125 C 10.988281 -1.8125 11.296875 -2.519531 11.296875 -3.40625 C 11.296875 -4.632812 10.59375 -5.65625 9.1875 -6.46875 L 6.828125 -7.796875 C 5.097656 -8.804688 3.875 -9.75 3.15625 -10.625 C 2.4375 -11.507812 2.078125 -12.519531 2.078125 -13.65625 C 2.078125 -15.144531 2.597656 -16.347656 3.640625 -17.265625 C 4.679688 -18.191406 6.03125 -18.65625 7.6875 -18.65625 C 8.6875 -18.65625 9.601562 -18.492188 10.4375 -18.171875 C 10.84375 -17.972656 11.210938 -17.875 11.546875 -17.875 C 11.648438 -17.875 11.835938 -17.984375 12.109375 -18.203125 L 12.1875 -18.28125 L 12.640625 -18.28125 L 12.796875 -12.765625 L 12.1875 -12.765625 C 11.726562 -14.578125 11.160156 -15.863281 10.484375 -16.625 C 9.804688 -17.382812 8.882812 -17.765625 7.71875 -17.765625 C 6.769531 -17.765625 6.007812 -17.507812 5.4375 -17 C 4.875 -16.5 4.59375 -15.832031 4.59375 -15 C 4.59375 -13.832031 5.175781 -12.910156 6.34375 -12.234375 L 10.734375 -9.625 C 11.972656 -8.894531 12.847656 -8.164062 13.359375 -7.4375 C 13.878906 -6.707031 14.140625 -5.828125 14.140625 -4.796875 Z M 14.140625 -4.796875 "/></g></g></g></svg>