<svg xmlns="http://www.w3.org/2000/svg" xmlns:xlink="http://www.w3.org/1999/xlink" width="1040" zoomAndPan="magnify" viewBox="0 0 780 347.999987" height="464" preserveAspectRatio="xMidYMid meet" version="1.0"><defs><g/><clipPath id="37c0d892ea"><path d="M 335.921875 75.09375 L 503.921875 75.09375 L 503.921875 243.09375 L 335.921875 243.09375 Z M 335.921875 75.09375 " clip-rule="nonzero"/></clipPath><clipPath id="937d7e726f"><path d="M 75.691406 90.148438 L 266.941406 90.148438 L 266.941406 210 L 75.691406 210 Z M 75.691406 90.148438 " clip-rule="nonzero"/></clipPath><clipPath id="4268e4311a"><path d="M 193 221 L 218 221 L 218 227.398438 L 193 227.398438 Z M 193 221 " clip-rule="nonzero"/></clipPath><clipPath id="5f8aa211fc"><path d="M 125 221 L 149 221 L 149 227.398438 L 125 227.398438 Z M 125 221 " clip-rule="nonzero"/></clipPath></defs><g clip-path="url(#37c0d892ea)"><path fill="#040606" d="M 492.722656 237.496094 L 347.121094 237.496094 C 344.039062 237.496094 341.523438 234.980469 341.523438 231.894531 L 341.523438 103.09375 L 498.324219 103.09375 L 498.324219 231.894531 C 498.324219 234.980469 495.808594 237.496094 492.722656 237.496094 Z M 347.121094 80.695312 L 492.722656 80.695312 C 495.808594 80.695312 498.324219 83.210938 498.324219 86.296875 L 498.324219 97.496094 L 341.523438 97.496094 L 341.523438 86.296875 C 341.523438 83.210938 344.039062 80.695312 347.121094 80.695312 Z M 492.722656 75.09375 L 347.121094 75.09375 C 340.941406 75.09375 335.921875 80.117188 335.921875 86.296875 L 335.921875 231.894531 C 335.921875 238.074219 340.941406 243.09375 347.121094 243.09375 L 492.722656 243.09375 C 498.902344 243.09375 503.921875 238.074219 503.921875 231.894531 L 503.921875 86.296875 C 503.921875 80.117188 498.902344 75.09375 492.722656 75.09375 " fill-opacity="1" fill-rule="nonzero"/></g><path fill="#040606" d="M 349.921875 91.894531 L 352.722656 91.894531 C 354.265625 91.894531 355.523438 90.636719 355.523438 89.09375 C 355.523438 87.554688 354.265625 86.296875 352.722656 86.296875 L 349.921875 86.296875 C 348.378906 86.296875 347.121094 87.554688 347.121094 89.09375 C 347.121094 90.636719 348.378906 91.894531 349.921875 91.894531 " fill-opacity="1" fill-rule="nonzero"/><path fill="#040606" d="M 363.921875 91.894531 L 366.722656 91.894531 C 368.265625 91.894531 369.523438 90.636719 369.523438 89.09375 C 369.523438 87.554688 368.265625 86.296875 366.722656 86.296875 L 363.921875 86.296875 C 362.378906 86.296875 361.121094 87.554688 361.121094 89.09375 C 361.121094 90.636719 362.378906 91.894531 363.921875 91.894531 " fill-opacity="1" fill-rule="nonzero"/><path fill="#040606" d="M 377.921875 91.894531 L 380.722656 91.894531 C 382.265625 91.894531 383.523438 90.636719 383.523438 89.09375 C 383.523438 87.554688 382.265625 86.296875 380.722656 86.296875 L 377.921875 86.296875 C 376.378906 86.296875 375.121094 87.554688 375.121094 89.09375 C 375.121094 90.636719 376.378906 91.894531 377.921875 91.894531 " fill-opacity="1" fill-rule="nonzero"/><path fill="#040606" d="M 473.121094 91.894531 L 489.921875 91.894531 C 491.464844 91.894531 492.722656 90.636719 492.722656 89.09375 C 492.722656 87.554688 491.464844 86.296875 489.921875 86.296875 L 473.121094 86.296875 C 471.582031 86.296875 470.324219 87.554688 470.324219 89.09375 C 470.324219 90.636719 471.582031 91.894531 473.121094 91.894531 " fill-opacity="1" fill-rule="nonzero"/><path fill="#040606" d="M 475.921875 223.496094 L 453.523438 223.496094 C 451.980469 223.496094 450.722656 222.238281 450.722656 220.695312 C 450.722656 219.152344 451.980469 217.894531 453.523438 217.894531 L 475.921875 217.894531 C 477.464844 217.894531 478.722656 219.152344 478.722656 220.695312 C 478.722656 222.238281 477.464844 223.496094 475.921875 223.496094 Z M 475.921875 212.296875 L 453.523438 212.296875 C 448.886719 212.296875 445.121094 216.058594 445.121094 220.695312 C 445.121094 225.332031 448.886719 229.09375 453.523438 229.09375 L 475.921875 229.09375 C 480.558594 229.09375 484.324219 225.332031 484.324219 220.695312 C 484.324219 216.058594 480.558594 212.296875 475.921875 212.296875 " fill-opacity="1" fill-rule="nonzero"/><path fill="#040606" d="M 481.523438 195.496094 L 456.324219 195.496094 L 456.3125 189.894531 L 481.523438 189.894531 Z M 481.523438 184.296875 L 456.324219 184.296875 C 453.238281 184.296875 450.722656 186.8125 450.722656 189.894531 L 450.722656 195.496094 C 450.722656 198.578125 453.238281 201.09375 456.324219 201.09375 L 481.523438 201.09375 C 484.605469 201.09375 487.121094 198.578125 487.121094 195.496094 L 487.121094 189.894531 C 487.121094 186.8125 484.605469 184.296875 481.523438 184.296875 " fill-opacity="1" fill-rule="nonzero"/><path fill="#040606" d="M 439.523438 195.496094 L 358.324219 195.496094 L 358.324219 189.894531 L 439.523438 189.894531 Z M 445.121094 189.894531 C 445.121094 186.8125 442.605469 184.296875 439.523438 184.296875 L 358.324219 184.296875 C 355.238281 184.296875 352.722656 186.8125 352.722656 189.894531 L 352.722656 195.496094 C 352.722656 198.578125 355.238281 201.09375 358.324219 201.09375 L 439.523438 201.09375 C 442.605469 201.09375 445.121094 198.578125 445.121094 195.496094 L 445.121094 189.894531 " fill-opacity="1" fill-rule="nonzero"/><path fill="#040606" d="M 358.324219 145.09375 L 394.722656 145.09375 L 394.722656 150.695312 L 358.324219 150.695312 Z M 358.324219 156.296875 L 394.722656 156.296875 C 397.808594 156.296875 400.324219 153.78125 400.324219 150.695312 L 400.324219 145.09375 C 400.324219 142.011719 397.808594 139.496094 394.722656 139.496094 L 358.324219 139.496094 C 355.238281 139.496094 352.722656 142.011719 352.722656 145.09375 L 352.722656 150.695312 C 352.722656 153.78125 355.238281 156.296875 358.324219 156.296875 " fill-opacity="1" fill-rule="nonzero"/><path fill="#040606" d="M 481.523438 150.695312 L 411.523438 150.695312 L 411.523438 145.09375 L 481.523438 145.09375 Z M 481.523438 139.496094 L 411.523438 139.496094 C 408.4375 139.496094 405.921875 142.011719 405.921875 145.09375 L 405.921875 150.695312 C 405.921875 153.78125 408.4375 156.296875 411.523438 156.296875 L 481.523438 156.296875 C 484.605469 156.296875 487.121094 153.78125 487.121094 150.695312 L 487.121094 145.09375 C 487.121094 142.011719 484.605469 139.496094 481.523438 139.496094 " fill-opacity="1" fill-rule="nonzero"/><path fill="#040606" d="M 481.523438 128.296875 L 428.324219 128.296875 L 428.324219 122.695312 L 481.523438 122.695312 Z M 481.523438 117.09375 L 428.324219 117.09375 C 425.238281 117.09375 422.722656 119.609375 422.722656 122.695312 L 422.722656 128.296875 C 422.722656 131.378906 425.238281 133.894531 428.324219 133.894531 L 481.523438 133.894531 C 484.605469 133.894531 487.121094 131.378906 487.121094 128.296875 L 487.121094 122.695312 C 487.121094 119.609375 484.605469 117.09375 481.523438 117.09375 " fill-opacity="1" fill-rule="nonzero"/><path fill="#040606" d="M 358.324219 122.695312 L 411.523438 122.695312 L 411.523438 128.296875 L 358.324219 128.296875 Z M 358.324219 133.894531 L 411.523438 133.894531 C 414.605469 133.894531 417.121094 131.378906 417.121094 128.296875 L 417.121094 122.695312 C 417.121094 119.609375 414.605469 117.09375 411.523438 117.09375 L 358.324219 117.09375 C 355.238281 117.09375 352.722656 119.609375 352.722656 122.695312 L 352.722656 128.296875 C 352.722656 131.378906 355.238281 133.894531 358.324219 133.894531 " fill-opacity="1" fill-rule="nonzero"/><path fill="#040606" d="M 481.523438 173.09375 L 358.324219 173.09375 L 358.324219 167.496094 L 481.523438 167.496094 Z M 481.523438 161.894531 L 358.324219 161.894531 C 355.238281 161.894531 352.722656 164.410156 352.722656 167.496094 L 352.722656 173.09375 C 352.722656 176.179688 355.238281 178.695312 358.324219 178.695312 L 481.523438 178.695312 C 484.605469 178.695312 487.121094 176.179688 487.121094 173.09375 L 487.121094 167.496094 C 487.121094 164.410156 484.605469 161.894531 481.523438 161.894531 " fill-opacity="1" fill-rule="nonzero"/><path stroke-linecap="butt" transform="matrix(0.751048, 0.000000000000000382, -0.000000000000000381, 0.75, 280.537843, 157.41274)" fill="none" stroke-linejoin="miter" d="M 0.00162383 2.001763 L 53.926294 2.001763 " stroke="#000000" stroke-width="4" stroke-opacity="1" stroke-miterlimit="4"/><path stroke-linecap="round" transform="matrix(3.004191, 0.000000000000001527, -0.000000000000001525, 3, 322.54294, 158.91274)" fill="none" stroke-linejoin="round" d="M -2.500404 -1.499559 L -0.500593 0.000440814 L -2.500404 1.500441 " stroke="#000000" stroke-width="1" stroke-opacity="1" stroke-miterlimit="4"/><path fill="#000000" d="M 166.835938 203.527344 L 175.796875 203.527344 L 175.796875 209.496094 L 166.835938 209.496094 Z M 166.835938 203.527344 " fill-opacity="1" fill-rule="nonzero"/><g clip-path="url(#937d7e726f)"><path fill="#000000" d="M 235.5625 146.539062 L 232.125 146.539062 C 231.675781 126.546875 215.242188 110.4375 195.222656 110.4375 C 190.589844 110.4375 186.109375 111.332031 181.773438 112.972656 C 173.855469 98.949219 159.066406 90.148438 142.929688 90.148438 C 118.425781 90.148438 98.554688 110.136719 98.554688 134.605469 C 98.554688 138.929688 99.152344 143.257812 100.347656 147.285156 C 86.15625 150.269531 75.699219 162.949219 75.699219 178.015625 C 75.699219 195.324219 89.742188 209.496094 107.074219 209.496094 L 107.074219 203.527344 C 93.027344 203.527344 81.675781 192.039062 81.675781 178.015625 C 81.675781 164.890625 91.386719 154 104.382812 152.65625 C 105.28125 153.550781 106.324219 154.445312 107.671875 155.191406 C 108.117188 155.492188 108.714844 155.640625 109.3125 155.640625 C 110.359375 155.640625 111.257812 155.191406 111.855469 154.296875 C 112.75 152.953125 112.300781 151.015625 110.957031 150.121094 C 108.566406 148.628906 107.074219 146.390625 106.324219 145.195312 C 106.324219 145.046875 106.175781 145.046875 106.175781 144.898438 C 105.28125 141.46875 104.683594 138.035156 104.683594 134.457031 C 104.53125 113.421875 121.714844 96.113281 142.929688 96.113281 C 157.722656 96.113281 171.316406 104.769531 177.589844 118.195312 C 177.890625 118.941406 178.488281 119.535156 179.234375 119.6875 C 179.980469 119.984375 180.878906 119.835938 181.476562 119.535156 C 185.660156 117.449219 190.289062 116.402344 195.070312 116.402344 C 212.105469 116.402344 226 130.277344 226 147.433594 C 226 148.03125 226 148.777344 226 149.375 C 226 150.269531 226.296875 151.015625 226.746094 151.613281 C 227.195312 152.207031 228.089844 152.507812 228.988281 152.507812 L 235.5625 152.507812 C 249.605469 152.507812 260.960938 163.996094 260.960938 178.015625 C 260.960938 192.039062 249.605469 203.527344 235.5625 203.527344 L 235.5625 209.496094 C 252.890625 209.496094 266.933594 195.324219 266.933594 178.015625 C 266.933594 160.710938 252.890625 146.539062 235.5625 146.539062 Z M 235.5625 146.539062 " fill-opacity="1" fill-rule="nonzero"/></g><path fill="#000000" d="M 154.882812 185.625 L 119.023438 185.625 C 115.738281 185.625 113.050781 188.3125 113.050781 191.59375 L 113.050781 212.480469 C 113.050781 215.761719 115.738281 218.445312 119.023438 218.445312 L 154.882812 218.445312 C 158.167969 218.445312 160.859375 215.761719 160.859375 212.480469 L 160.859375 191.59375 C 160.859375 188.3125 158.167969 185.625 154.882812 185.625 Z M 119.023438 212.480469 L 119.023438 191.59375 L 154.882812 191.59375 L 154.882812 212.480469 Z M 119.023438 212.480469 " fill-opacity="1" fill-rule="nonzero"/><g clip-path="url(#4268e4311a)"><path fill="#000000" d="M 214.644531 221.429688 L 196.714844 221.429688 C 195.070312 221.429688 193.726562 222.773438 193.726562 224.414062 C 193.726562 226.054688 195.070312 227.398438 196.714844 227.398438 L 214.644531 227.398438 C 216.289062 227.398438 217.632812 226.054688 217.632812 224.414062 C 217.632812 222.773438 216.289062 221.429688 214.644531 221.429688 Z M 214.644531 221.429688 " fill-opacity="1" fill-rule="nonzero"/></g><path fill="#000000" d="M 223.609375 185.625 L 187.75 185.625 C 184.464844 185.625 181.773438 188.3125 181.773438 191.59375 L 181.773438 212.480469 C 181.773438 215.761719 184.464844 218.445312 187.75 218.445312 L 223.609375 218.445312 C 226.894531 218.445312 229.585938 215.761719 229.585938 212.480469 L 229.585938 191.59375 C 229.585938 188.3125 226.894531 185.625 223.609375 185.625 Z M 187.75 212.480469 L 187.75 191.59375 L 223.609375 191.59375 L 223.609375 212.480469 Z M 187.75 212.480469 " fill-opacity="1" fill-rule="nonzero"/><path fill="#000000" d="M 189.246094 170.707031 C 192.53125 170.707031 195.222656 168.023438 195.222656 164.738281 L 195.222656 143.855469 C 195.222656 140.570312 192.53125 137.886719 189.246094 137.886719 L 153.386719 137.886719 C 150.101562 137.886719 147.410156 140.570312 147.410156 143.855469 L 147.410156 164.738281 C 147.410156 168.023438 150.101562 170.707031 153.386719 170.707031 Z M 153.386719 143.855469 L 189.246094 143.855469 L 189.246094 164.738281 L 153.386719 164.738281 Z M 153.386719 143.855469 " fill-opacity="1" fill-rule="nonzero"/><path fill="#000000" d="M 183.269531 176.675781 C 183.269531 175.035156 181.925781 173.691406 180.28125 173.691406 L 162.351562 173.691406 C 160.707031 173.691406 159.363281 175.035156 159.363281 176.675781 C 159.363281 178.316406 160.707031 179.660156 162.351562 179.660156 L 180.28125 179.660156 C 181.925781 179.660156 183.269531 178.316406 183.269531 176.675781 Z M 183.269531 176.675781 " fill-opacity="1" fill-rule="nonzero"/><path fill="#000000" d="M 116.035156 175.628906 C 116.035156 176.226562 116.035156 176.675781 116.035156 176.675781 C 116.035156 178.316406 117.382812 179.660156 119.023438 179.660156 C 120.667969 179.660156 122.011719 178.316406 122.011719 176.675781 C 122.011719 176.675781 122.011719 176.375 122.011719 176.226562 C 122.164062 174.585938 120.96875 173.09375 119.324219 172.945312 C 117.679688 172.796875 116.1875 173.988281 116.035156 175.628906 Z M 116.035156 175.628906 " fill-opacity="1" fill-rule="nonzero"/><path fill="#000000" d="M 127.390625 163.25 C 127.988281 163.25 128.738281 163.097656 129.183594 162.652344 C 129.484375 162.351562 129.78125 162.203125 130.230469 161.90625 C 131.574219 161.011719 131.875 159.070312 130.976562 157.726562 C 130.082031 156.386719 128.140625 156.085938 126.792969 156.984375 C 126.347656 157.28125 125.898438 157.578125 125.449219 157.878906 C 124.105469 158.921875 123.957031 160.710938 125 162.054688 C 125.597656 162.949219 126.496094 163.25 127.390625 163.25 Z M 127.390625 163.25 " fill-opacity="1" fill-rule="nonzero"/><path fill="#000000" d="M 123.507812 163.996094 C 122.011719 163.25 120.21875 163.695312 119.472656 165.1875 C 119.175781 165.636719 119.023438 166.082031 118.726562 166.53125 C 117.980469 168.023438 118.578125 169.8125 120.070312 170.558594 C 120.519531 170.707031 120.96875 170.855469 121.414062 170.855469 C 122.460938 170.855469 123.65625 170.261719 124.105469 169.214844 C 124.253906 168.917969 124.402344 168.46875 124.703125 168.171875 C 125.449219 166.679688 124.851562 164.890625 123.507812 163.996094 Z M 123.507812 163.996094 " fill-opacity="1" fill-rule="nonzero"/><path fill="#000000" d="M 136.207031 158.921875 C 136.503906 158.921875 136.804688 158.921875 136.953125 158.773438 C 137.101562 158.773438 137.402344 158.625 137.550781 158.625 C 139.195312 158.175781 140.089844 156.535156 139.644531 155.042969 C 139.195312 153.402344 137.550781 152.507812 136.058594 152.953125 C 135.757812 152.953125 135.460938 153.105469 135.308594 153.105469 C 133.667969 153.550781 132.769531 155.191406 133.21875 156.832031 C 133.667969 158.175781 134.863281 158.921875 136.207031 158.921875 Z M 136.207031 158.921875 " fill-opacity="1" fill-rule="nonzero"/><path fill="#000000" d="M 219.125 176.226562 C 219.125 176.527344 219.125 176.675781 219.125 176.675781 C 219.125 178.316406 220.472656 179.660156 222.113281 179.660156 C 223.757812 179.660156 225.101562 178.316406 225.101562 176.675781 C 225.101562 176.675781 225.101562 176.375 225.101562 175.628906 C 224.953125 173.988281 223.609375 172.796875 221.816406 172.945312 C 220.171875 173.09375 218.976562 174.585938 219.125 176.226562 Z M 219.125 176.226562 " fill-opacity="1" fill-rule="nonzero"/><path fill="#000000" d="M 221.816406 165.1875 C 221.066406 163.695312 219.125 163.25 217.78125 163.996094 C 216.289062 164.738281 215.839844 166.679688 216.585938 168.023438 C 216.734375 168.320312 217.035156 168.769531 217.183594 169.066406 C 217.632812 170.109375 218.828125 170.707031 219.875 170.707031 C 220.320312 170.707031 220.769531 170.558594 221.21875 170.410156 C 222.710938 169.664062 223.308594 167.871094 222.5625 166.382812 C 222.261719 166.082031 222.113281 165.636719 221.816406 165.1875 Z M 221.816406 165.1875 " fill-opacity="1" fill-rule="nonzero"/><path fill="#000000" d="M 215.539062 157.878906 C 215.09375 157.578125 214.644531 157.28125 214.195312 156.984375 C 212.851562 156.085938 210.910156 156.386719 210.011719 157.726562 C 209.117188 159.070312 209.414062 161.011719 210.757812 161.90625 C 211.058594 162.203125 211.355469 162.351562 211.804688 162.652344 C 212.402344 163.097656 213 163.25 213.597656 163.25 C 214.496094 163.25 215.390625 162.800781 215.988281 162.054688 C 217.035156 160.859375 216.886719 158.921875 215.539062 157.878906 Z M 215.539062 157.878906 " fill-opacity="1" fill-rule="nonzero"/><path fill="#000000" d="M 204.035156 158.921875 C 204.335938 159.070312 204.632812 159.070312 204.785156 159.070312 C 206.128906 159.070312 207.324219 158.175781 207.621094 156.832031 C 208.070312 155.191406 207.171875 153.550781 205.53125 153.105469 C 205.230469 153.105469 204.933594 152.953125 204.785156 152.953125 C 203.140625 152.507812 201.496094 153.550781 201.199219 155.042969 C 200.75 156.683594 201.796875 158.324219 203.289062 158.625 C 203.589844 158.773438 203.886719 158.773438 204.035156 158.921875 Z M 204.035156 158.921875 " fill-opacity="1" fill-rule="nonzero"/><g clip-path="url(#5f8aa211fc)"><path fill="#000000" d="M 145.917969 221.429688 L 127.988281 221.429688 C 126.347656 221.429688 125 222.773438 125 224.414062 C 125 226.054688 126.347656 227.398438 127.988281 227.398438 L 145.917969 227.398438 C 147.5625 227.398438 148.90625 226.054688 148.90625 224.414062 C 148.90625 222.773438 147.5625 221.429688 145.917969 221.429688 Z M 145.917969 221.429688 " fill-opacity="1" fill-rule="nonzero"/></g><g fill="#000000" fill-opacity="1"><g transform="translate(553.90443, 153.28728)"><g><path d="M 24.296875 -6.875 L 22.46875 0 L 0.484375 0 L 0.484375 -0.765625 C 1.984375 -0.878906 2.945312 -1.160156 3.375 -1.609375 C 3.8125 -2.054688 4.03125 -3 4.03125 -4.4375 L 4.03125 -22.515625 C 4.03125 -23.953125 3.816406 -24.882812 3.390625 -25.3125 C 2.972656 -25.75 2.003906 -26.035156 0.484375 -26.171875 L 0.484375 -26.953125 L 22.109375 -26.953125 L 22.21875 -21.125 L 21.203125 -21.125 C 20.847656 -22.945312 20.304688 -24.113281 19.578125 -24.625 C 18.847656 -25.144531 17.328125 -25.40625 15.015625 -25.40625 L 9.53125 -25.40625 C 8.976562 -25.40625 8.613281 -25.316406 8.4375 -25.140625 C 8.269531 -24.960938 8.1875 -24.585938 8.1875 -24.015625 L 8.1875 -14.984375 L 14.453125 -14.984375 C 16.109375 -14.984375 17.195312 -15.210938 17.71875 -15.671875 C 18.25 -16.128906 18.648438 -17.1875 18.921875 -18.84375 L 19.859375 -18.84375 L 19.859375 -9.40625 L 18.921875 -9.40625 C 18.648438 -11.082031 18.253906 -12.148438 17.734375 -12.609375 C 17.222656 -13.078125 16.128906 -13.3125 14.453125 -13.3125 L 8.1875 -13.3125 L 8.1875 -3.25 C 8.1875 -2.519531 8.289062 -2.085938 8.5 -1.953125 C 8.882812 -1.648438 10.203125 -1.5 12.453125 -1.5 L 13.546875 -1.5 C 16.453125 -1.5 18.53125 -1.84375 19.78125 -2.53125 C 21.03125 -3.226562 22.15625 -4.675781 23.15625 -6.875 Z M 24.296875 -6.875 "/></g></g></g><g fill="#000000" fill-opacity="1"><g transform="translate(578.768878, 153.28728)"><g><path d="M 19.5 0 L 11.3125 0 L 11.3125 -0.609375 C 11.988281 -0.660156 12.425781 -0.75 12.625 -0.875 C 12.832031 -1 12.9375 -1.238281 12.9375 -1.59375 C 12.9375 -1.832031 12.859375 -2.070312 12.703125 -2.3125 L 9 -8.015625 L 5.78125 -3.015625 C 5.238281 -2.171875 4.96875 -1.613281 4.96875 -1.34375 C 4.96875 -0.851562 5.507812 -0.609375 6.59375 -0.609375 L 6.59375 0 L 0.6875 0 L 0.6875 -0.609375 C 1.363281 -0.660156 1.875 -0.804688 2.21875 -1.046875 C 2.5625 -1.296875 3.039062 -1.84375 3.65625 -2.6875 L 8.296875 -9.40625 L 4.484375 -15.265625 C 3.859375 -16.210938 3.328125 -16.851562 2.890625 -17.1875 C 2.453125 -17.53125 1.9375 -17.703125 1.34375 -17.703125 L 0.984375 -17.703125 L 0.984375 -18.3125 L 9.40625 -18.3125 L 9.40625 -17.703125 C 8.238281 -17.679688 7.65625 -17.382812 7.65625 -16.8125 C 7.65625 -16.269531 8.28125 -15.0625 9.53125 -13.1875 L 10.09375 -12.375 C 10.75 -13.351562 11.15625 -13.953125 11.3125 -14.171875 C 12.320312 -15.410156 12.828125 -16.285156 12.828125 -16.796875 C 12.828125 -17.316406 12.28125 -17.617188 11.1875 -17.703125 L 11.1875 -18.3125 L 17.625 -18.3125 L 17.625 -17.703125 C 16.238281 -17.648438 15.140625 -17.054688 14.328125 -15.921875 L 10.953125 -11.03125 L 16.15625 -3.046875 C 16.8125 -2.128906 17.375 -1.492188 17.84375 -1.140625 C 18.320312 -0.785156 18.875 -0.609375 19.5 -0.609375 Z M 19.5 0 "/></g></g></g><g fill="#000000" fill-opacity="1"><g transform="translate(599.116208, 153.28728)"><g><path d="M 11.359375 -2.6875 C 10.054688 -0.625 8.414062 0.40625 6.4375 0.40625 C 4.039062 0.40625 2.84375 -1.316406 2.84375 -4.765625 L 2.84375 -17.015625 L 0.6875 -17.015625 C 0.582031 -17.097656 0.53125 -17.191406 0.53125 -17.296875 C 0.53125 -17.515625 0.757812 -17.773438 1.21875 -18.078125 C 2.332031 -18.722656 3.648438 -20.171875 5.171875 -22.421875 C 5.546875 -22.910156 5.816406 -23.289062 5.984375 -23.5625 C 6.171875 -23.5625 6.265625 -23.382812 6.265625 -23.03125 L 6.265625 -18.3125 L 10.375 -18.3125 L 10.375 -17.015625 L 6.265625 -17.015625 L 6.265625 -5.375 C 6.265625 -4.070312 6.425781 -3.132812 6.75 -2.5625 C 7.082031 -1.988281 7.628906 -1.703125 8.390625 -1.703125 C 9.203125 -1.703125 10.015625 -2.179688 10.828125 -3.140625 Z M 11.359375 -2.6875 "/></g></g></g><g fill="#000000" fill-opacity="1"><g transform="translate(610.429327, 153.28728)"><g><path d="M 13.640625 -16.5625 C 13.640625 -16 13.492188 -15.550781 13.203125 -15.21875 C 12.921875 -14.894531 12.535156 -14.734375 12.046875 -14.734375 C 11.585938 -14.734375 11.046875 -15.003906 10.421875 -15.546875 C 9.984375 -15.953125 9.628906 -16.15625 9.359375 -16.15625 C 8.816406 -16.15625 8.207031 -15.757812 7.53125 -14.96875 C 6.851562 -14.1875 6.515625 -13.472656 6.515625 -12.828125 L 6.515625 -3.65625 C 6.515625 -2.488281 6.742188 -1.703125 7.203125 -1.296875 C 7.660156 -0.890625 8.582031 -0.660156 9.96875 -0.609375 L 9.96875 0 L 0.203125 0 L 0.203125 -0.609375 C 1.503906 -0.859375 2.3125 -1.128906 2.625 -1.421875 C 2.9375 -1.722656 3.09375 -2.390625 3.09375 -3.421875 L 3.09375 -13.59375 C 3.09375 -14.488281 2.988281 -15.117188 2.78125 -15.484375 C 2.582031 -15.847656 2.222656 -16.03125 1.703125 -16.03125 C 1.273438 -16.03125 0.800781 -15.976562 0.28125 -15.875 L 0.28125 -16.53125 C 2.457031 -17.226562 4.46875 -17.957031 6.3125 -18.71875 L 6.515625 -18.640625 L 6.515625 -14.890625 C 7.515625 -16.328125 8.367188 -17.320312 9.078125 -17.875 C 9.785156 -18.4375 10.554688 -18.71875 11.390625 -18.71875 C 12.097656 -18.71875 12.648438 -18.523438 13.046875 -18.140625 C 13.441406 -17.765625 13.640625 -17.238281 13.640625 -16.5625 Z M 13.640625 -16.5625 "/></g></g></g><g fill="#000000" fill-opacity="1"><g transform="translate(623.980657, 153.28728)"><g><path d="M 17.984375 -1.625 C 17.285156 -0.84375 16.671875 -0.304688 16.140625 -0.015625 C 15.609375 0.265625 15.003906 0.40625 14.328125 0.40625 C 13.484375 0.40625 12.863281 0.179688 12.46875 -0.265625 C 12.082031 -0.710938 11.832031 -1.476562 11.71875 -2.5625 C 9.382812 -0.582031 7.40625 0.40625 5.78125 0.40625 C 4.53125 0.40625 3.503906 0 2.703125 -0.8125 C 1.898438 -1.625 1.5 -2.671875 1.5 -3.953125 C 1.5 -5.410156 1.988281 -6.585938 2.96875 -7.484375 C 3.84375 -8.242188 4.71875 -8.847656 5.59375 -9.296875 C 6.476562 -9.742188 8.507812 -10.609375 11.6875 -11.890625 L 11.6875 -14.375 C 11.6875 -16.625 10.65625 -17.75 8.59375 -17.75 C 7.78125 -17.75 7.085938 -17.550781 6.515625 -17.15625 C 5.941406 -16.757812 5.65625 -16.289062 5.65625 -15.75 C 5.65625 -15.445312 5.695312 -15.125 5.78125 -14.78125 C 5.832031 -14.394531 5.859375 -14.175781 5.859375 -14.125 C 5.859375 -13.664062 5.675781 -13.265625 5.3125 -12.921875 C 4.945312 -12.585938 4.519531 -12.421875 4.03125 -12.421875 C 3.539062 -12.421875 3.125 -12.59375 2.78125 -12.9375 C 2.445312 -13.289062 2.28125 -13.703125 2.28125 -14.171875 C 2.28125 -15.273438 2.835938 -16.289062 3.953125 -17.21875 C 5.171875 -18.21875 6.894531 -18.71875 9.125 -18.71875 C 11.644531 -18.71875 13.335938 -17.929688 14.203125 -16.359375 C 14.722656 -15.515625 14.984375 -14.128906 14.984375 -12.203125 L 14.984375 -4.28125 C 14.984375 -3.382812 15.070312 -2.765625 15.25 -2.421875 C 15.425781 -2.078125 15.742188 -1.90625 16.203125 -1.90625 C 16.765625 -1.90625 17.359375 -2.164062 17.984375 -2.6875 Z M 11.6875 -5 L 11.6875 -10.90625 C 9.238281 -10.007812 7.523438 -9.140625 6.546875 -8.296875 C 5.578125 -7.460938 5.09375 -6.445312 5.09375 -5.25 L 5.09375 -5.09375 C 5.09375 -4.21875 5.34375 -3.472656 5.84375 -2.859375 C 6.34375 -2.253906 6.945312 -1.953125 7.65625 -1.953125 C 8.601562 -1.953125 9.59375 -2.25 10.625 -2.84375 C 11.0625 -3.113281 11.347656 -3.382812 11.484375 -3.65625 C 11.617188 -3.925781 11.6875 -4.375 11.6875 -5 Z M 11.6875 -5 "/></g></g></g><g fill="#000000" fill-opacity="1"><g transform="translate(642.049079, 153.28728)"><g><path d="M 16.765625 -5.984375 C 15.597656 -3.703125 14.488281 -2.140625 13.4375 -1.296875 C 12.050781 -0.160156 10.488281 0.40625 8.75 0.40625 C 6.5 0.40625 4.644531 -0.441406 3.1875 -2.140625 C 1.738281 -3.835938 1.015625 -6 1.015625 -8.625 C 1.015625 -12.070312 2.15625 -14.742188 4.4375 -16.640625 C 6.113281 -18.023438 7.945312 -18.71875 9.9375 -18.71875 C 11.644531 -18.71875 13.113281 -18.300781 14.34375 -17.46875 C 15.582031 -16.644531 16.203125 -15.664062 16.203125 -14.53125 C 16.203125 -14.070312 16.007812 -13.671875 15.625 -13.328125 C 15.25 -12.992188 14.800781 -12.828125 14.28125 -12.828125 C 13.332031 -12.828125 12.679688 -13.445312 12.328125 -14.6875 L 12.09375 -15.59375 C 11.875 -16.351562 11.597656 -16.867188 11.265625 -17.140625 C 10.941406 -17.410156 10.414062 -17.546875 9.6875 -17.546875 C 8.03125 -17.546875 6.691406 -16.894531 5.671875 -15.59375 C 4.660156 -14.289062 4.15625 -12.578125 4.15625 -10.453125 C 4.15625 -8.117188 4.738281 -6.210938 5.90625 -4.734375 C 7.070312 -3.265625 8.585938 -2.53125 10.453125 -2.53125 C 11.617188 -2.53125 12.625 -2.804688 13.46875 -3.359375 C 14.3125 -3.910156 15.222656 -4.90625 16.203125 -6.34375 Z M 16.765625 -5.984375 "/></g></g></g><g fill="#000000" fill-opacity="1"><g transform="translate(660.117502, 153.28728)"><g><path d="M 11.359375 -2.6875 C 10.054688 -0.625 8.414062 0.40625 6.4375 0.40625 C 4.039062 0.40625 2.84375 -1.316406 2.84375 -4.765625 L 2.84375 -17.015625 L 0.6875 -17.015625 C 0.582031 -17.097656 0.53125 -17.191406 0.53125 -17.296875 C 0.53125 -17.515625 0.757812 -17.773438 1.21875 -18.078125 C 2.332031 -18.722656 3.648438 -20.171875 5.171875 -22.421875 C 5.546875 -22.910156 5.816406 -23.289062 5.984375 -23.5625 C 6.171875 -23.5625 6.265625 -23.382812 6.265625 -23.03125 L 6.265625 -18.3125 L 10.375 -18.3125 L 10.375 -17.015625 L 6.265625 -17.015625 L 6.265625 -5.375 C 6.265625 -4.070312 6.425781 -3.132812 6.75 -2.5625 C 7.082031 -1.988281 7.628906 -1.703125 8.390625 -1.703125 C 9.203125 -1.703125 10.015625 -2.179688 10.828125 -3.140625 Z M 11.359375 -2.6875 "/></g></g></g><g fill="#000000" fill-opacity="1"><g transform="translate(671.419221, 153.28728)"><g/></g></g><g fill="#000000" fill-opacity="1"><g transform="translate(544.289355, 209.52166)"><g><path d="M 31.546875 0 L 22.625 0 L 22.625 -0.609375 C 23.820312 -0.742188 24.566406 -0.972656 24.859375 -1.296875 C 25.160156 -1.628906 25.3125 -2.378906 25.3125 -3.546875 L 25.3125 -12.125 C 25.3125 -13.8125 25.09375 -14.976562 24.65625 -15.625 C 24.226562 -16.28125 23.429688 -16.609375 22.265625 -16.609375 C 20.472656 -16.609375 18.992188 -15.78125 17.828125 -14.125 L 17.828125 -3.859375 C 17.828125 -2.585938 18.023438 -1.734375 18.421875 -1.296875 C 18.816406 -0.867188 19.597656 -0.640625 20.765625 -0.609375 L 20.765625 0 L 11.640625 0 L 11.640625 -0.609375 C 12.804688 -0.691406 13.554688 -0.910156 13.890625 -1.265625 C 14.234375 -1.617188 14.40625 -2.363281 14.40625 -3.5 L 14.40625 -12.328125 C 14.40625 -15.179688 13.507812 -16.609375 11.71875 -16.609375 C 11.019531 -16.609375 10.273438 -16.453125 9.484375 -16.140625 C 8.691406 -15.828125 8.039062 -15.441406 7.53125 -14.984375 L 6.921875 -14.203125 L 6.921875 -2.734375 C 6.921875 -1.941406 7.109375 -1.398438 7.484375 -1.109375 C 7.867188 -0.828125 8.601562 -0.660156 9.6875 -0.609375 L 9.6875 0 L 0.65625 0 L 0.65625 -0.609375 C 1.789062 -0.640625 2.546875 -0.84375 2.921875 -1.21875 C 3.304688 -1.601562 3.5 -2.347656 3.5 -3.453125 L 3.5 -13.75 C 3.5 -14.726562 3.394531 -15.40625 3.1875 -15.78125 C 2.988281 -16.164062 2.617188 -16.359375 2.078125 -16.359375 C 1.671875 -16.359375 1.234375 -16.304688 0.765625 -16.203125 L 0.765625 -16.890625 C 2.722656 -17.429688 4.625 -18.039062 6.46875 -18.71875 L 6.75 -18.640625 L 6.75 -15.59375 C 8.4375 -16.863281 9.6875 -17.703125 10.5 -18.109375 C 11.3125 -18.515625 12.164062 -18.71875 13.0625 -18.71875 C 15.207031 -18.71875 16.644531 -17.578125 17.375 -15.296875 C 19.5 -17.578125 21.710938 -18.71875 24.015625 -18.71875 C 27.160156 -18.71875 28.734375 -16.304688 28.734375 -11.484375 L 28.734375 -3.09375 C 28.734375 -1.570312 29.316406 -0.769531 30.484375 -0.6875 L 31.546875 -0.609375 Z M 31.546875 0 "/></g></g></g><g fill="#000000" fill-opacity="1"><g transform="translate(575.949804, 209.52166)"><g><path d="M 17.265625 -6.390625 C 15.492188 -1.859375 12.613281 0.40625 8.625 0.40625 C 6.289062 0.40625 4.4375 -0.410156 3.0625 -2.046875 C 1.695312 -3.691406 1.015625 -5.910156 1.015625 -8.703125 C 1.015625 -11.660156 1.800781 -14.066406 3.375 -15.921875 C 4.945312 -17.785156 7 -18.71875 9.53125 -18.71875 C 11.695312 -18.71875 13.429688 -17.945312 14.734375 -16.40625 C 15.628906 -15.257812 16.210938 -13.550781 16.484375 -11.28125 L 3.953125 -11.28125 C 4.023438 -8.96875 4.429688 -7.09375 5.171875 -5.65625 C 6.335938 -3.488281 8.046875 -2.40625 10.296875 -2.40625 C 11.597656 -2.40625 12.726562 -2.726562 13.6875 -3.375 C 14.65625 -4.03125 15.628906 -5.128906 16.609375 -6.671875 Z M 12.328125 -12.578125 C 12.054688 -14.335938 11.632812 -15.554688 11.0625 -16.234375 C 10.5 -16.921875 9.59375 -17.265625 8.34375 -17.265625 C 5.90625 -17.265625 4.46875 -15.703125 4.03125 -12.578125 Z M 12.328125 -12.578125 "/></g></g></g><g fill="#000000" fill-opacity="1"><g transform="translate(594.018227, 209.52166)"><g><path d="M 11.359375 -2.6875 C 10.054688 -0.625 8.414062 0.40625 6.4375 0.40625 C 4.039062 0.40625 2.84375 -1.316406 2.84375 -4.765625 L 2.84375 -17.015625 L 0.6875 -17.015625 C 0.582031 -17.097656 0.53125 -17.191406 0.53125 -17.296875 C 0.53125 -17.515625 0.757812 -17.773438 1.21875 -18.078125 C 2.332031 -18.722656 3.648438 -20.171875 5.171875 -22.421875 C 5.546875 -22.910156 5.816406 -23.289062 5.984375 -23.5625 C 6.171875 -23.5625 6.265625 -23.382812 6.265625 -23.03125 L 6.265625 -18.3125 L 10.375 -18.3125 L 10.375 -17.015625 L 6.265625 -17.015625 L 6.265625 -5.375 C 6.265625 -4.070312 6.425781 -3.132812 6.75 -2.5625 C 7.082031 -1.988281 7.628906 -1.703125 8.390625 -1.703125 C 9.203125 -1.703125 10.015625 -2.179688 10.828125 -3.140625 Z M 11.359375 -2.6875 "/></g></g></g><g fill="#000000" fill-opacity="1"><g transform="translate(605.331346, 209.52166)"><g><path d="M 17.984375 -1.625 C 17.285156 -0.84375 16.671875 -0.304688 16.140625 -0.015625 C 15.609375 0.265625 15.003906 0.40625 14.328125 0.40625 C 13.484375 0.40625 12.863281 0.179688 12.46875 -0.265625 C 12.082031 -0.710938 11.832031 -1.476562 11.71875 -2.5625 C 9.382812 -0.582031 7.40625 0.40625 5.78125 0.40625 C 4.53125 0.40625 3.503906 0 2.703125 -0.8125 C 1.898438 -1.625 1.5 -2.671875 1.5 -3.953125 C 1.5 -5.410156 1.988281 -6.585938 2.96875 -7.484375 C 3.84375 -8.242188 4.71875 -8.847656 5.59375 -9.296875 C 6.476562 -9.742188 8.507812 -10.609375 11.6875 -11.890625 L 11.6875 -14.375 C 11.6875 -16.625 10.65625 -17.75 8.59375 -17.75 C 7.78125 -17.75 7.085938 -17.550781 6.515625 -17.15625 C 5.941406 -16.757812 5.65625 -16.289062 5.65625 -15.75 C 5.65625 -15.445312 5.695312 -15.125 5.78125 -14.78125 C 5.832031 -14.394531 5.859375 -14.175781 5.859375 -14.125 C 5.859375 -13.664062 5.675781 -13.265625 5.3125 -12.921875 C 4.945312 -12.585938 4.519531 -12.421875 4.03125 -12.421875 C 3.539062 -12.421875 3.125 -12.59375 2.78125 -12.9375 C 2.445312 -13.289062 2.28125 -13.703125 2.28125 -14.171875 C 2.28125 -15.273438 2.835938 -16.289062 3.953125 -17.21875 C 5.171875 -18.21875 6.894531 -18.71875 9.125 -18.71875 C 11.644531 -18.71875 13.335938 -17.929688 14.203125 -16.359375 C 14.722656 -15.515625 14.984375 -14.128906 14.984375 -12.203125 L 14.984375 -4.28125 C 14.984375 -3.382812 15.070312 -2.765625 15.25 -2.421875 C 15.425781 -2.078125 15.742188 -1.90625 16.203125 -1.90625 C 16.765625 -1.90625 17.359375 -2.164062 17.984375 -2.6875 Z M 11.6875 -5 L 11.6875 -10.90625 C 9.238281 -10.007812 7.523438 -9.140625 6.546875 -8.296875 C 5.578125 -7.460938 5.09375 -6.445312 5.09375 -5.25 L 5.09375 -5.09375 C 5.09375 -4.21875 5.34375 -3.472656 5.84375 -2.859375 C 6.34375 -2.253906 6.945312 -1.953125 7.65625 -1.953125 C 8.601562 -1.953125 9.59375 -2.25 10.625 -2.84375 C 11.0625 -3.113281 11.347656 -3.382812 11.484375 -3.65625 C 11.617188 -3.925781 11.6875 -4.375 11.6875 -5 Z M 11.6875 -5 "/></g></g></g><g fill="#000000" fill-opacity="1"><g transform="translate(623.399769, 209.52166)"><g><path d="M 19.984375 -1.703125 L 14 0.40625 L 13.84375 0.28125 L 13.84375 -2.3125 C 12.539062 -0.5 10.800781 0.40625 8.625 0.40625 C 6.375 0.40625 4.554688 -0.398438 3.171875 -2.015625 C 1.785156 -3.628906 1.09375 -5.738281 1.09375 -8.34375 C 1.09375 -11.21875 1.921875 -13.664062 3.578125 -15.6875 C 5.234375 -17.707031 7.226562 -18.71875 9.5625 -18.71875 C 11.03125 -18.71875 12.457031 -18.132812 13.84375 -16.96875 L 13.84375 -23.328125 C 13.84375 -24.160156 13.71875 -24.710938 13.46875 -24.984375 C 13.226562 -25.265625 12.726562 -25.40625 11.96875 -25.40625 C 11.582031 -25.40625 11.285156 -25.390625 11.078125 -25.359375 L 11.078125 -26.015625 C 13.546875 -26.660156 15.535156 -27.253906 17.046875 -27.796875 L 17.265625 -27.71875 L 17.265625 -4.640625 C 17.265625 -3.691406 17.378906 -3.066406 17.609375 -2.765625 C 17.835938 -2.460938 18.316406 -2.3125 19.046875 -2.3125 C 19.179688 -2.3125 19.492188 -2.328125 19.984375 -2.359375 Z M 13.84375 -4.15625 L 13.84375 -13.515625 C 13.84375 -14.597656 13.421875 -15.546875 12.578125 -16.359375 C 11.734375 -17.171875 10.769531 -17.578125 9.6875 -17.578125 C 8.144531 -17.578125 6.910156 -16.882812 5.984375 -15.5 C 5.054688 -14.125 4.59375 -12.28125 4.59375 -9.96875 C 4.59375 -7.476562 5.109375 -5.476562 6.140625 -3.96875 C 7.171875 -2.457031 8.53125 -1.703125 10.21875 -1.703125 C 11.4375 -1.703125 12.410156 -2.113281 13.140625 -2.9375 C 13.609375 -3.445312 13.84375 -3.851562 13.84375 -4.15625 Z M 13.84375 -4.15625 "/></g></g></g><g fill="#000000" fill-opacity="1"><g transform="translate(643.747099, 209.52166)"><g><path d="M 17.984375 -1.625 C 17.285156 -0.84375 16.671875 -0.304688 16.140625 -0.015625 C 15.609375 0.265625 15.003906 0.40625 14.328125 0.40625 C 13.484375 0.40625 12.863281 0.179688 12.46875 -0.265625 C 12.082031 -0.710938 11.832031 -1.476562 11.71875 -2.5625 C 9.382812 -0.582031 7.40625 0.40625 5.78125 0.40625 C 4.53125 0.40625 3.503906 0 2.703125 -0.8125 C 1.898438 -1.625 1.5 -2.671875 1.5 -3.953125 C 1.5 -5.410156 1.988281 -6.585938 2.96875 -7.484375 C 3.84375 -8.242188 4.71875 -8.847656 5.59375 -9.296875 C 6.476562 -9.742188 8.507812 -10.609375 11.6875 -11.890625 L 11.6875 -14.375 C 11.6875 -16.625 10.65625 -17.75 8.59375 -17.75 C 7.78125 -17.75 7.085938 -17.550781 6.515625 -17.15625 C 5.941406 -16.757812 5.65625 -16.289062 5.65625 -15.75 C 5.65625 -15.445312 5.695312 -15.125 5.78125 -14.78125 C 5.832031 -14.394531 5.859375 -14.175781 5.859375 -14.125 C 5.859375 -13.664062 5.675781 -13.265625 5.3125 -12.921875 C 4.945312 -12.585938 4.519531 -12.421875 4.03125 -12.421875 C 3.539062 -12.421875 3.125 -12.59375 2.78125 -12.9375 C 2.445312 -13.289062 2.28125 -13.703125 2.28125 -14.171875 C 2.28125 -15.273438 2.835938 -16.289062 3.953125 -17.21875 C 5.171875 -18.21875 6.894531 -18.71875 9.125 -18.71875 C 11.644531 -18.71875 13.335938 -17.929688 14.203125 -16.359375 C 14.722656 -15.515625 14.984375 -14.128906 14.984375 -12.203125 L 14.984375 -4.28125 C 14.984375 -3.382812 15.070312 -2.765625 15.25 -2.421875 C 15.425781 -2.078125 15.742188 -1.90625 16.203125 -1.90625 C 16.765625 -1.90625 17.359375 -2.164062 17.984375 -2.6875 Z M 11.6875 -5 L 11.6875 -10.90625 C 9.238281 -10.007812 7.523438 -9.140625 6.546875 -8.296875 C 5.578125 -7.460938 5.09375 -6.445312 5.09375 -5.25 L 5.09375 -5.09375 C 5.09375 -4.21875 5.34375 -3.472656 5.84375 -2.859375 C 6.34375 -2.253906 6.945312 -1.953125 7.65625 -1.953125 C 8.601562 -1.953125 9.59375 -2.25 10.625 -2.84375 C 11.0625 -3.113281 11.347656 -3.382812 11.484375 -3.65625 C 11.617188 -3.925781 11.6875 -4.375 11.6875 -5 Z M 11.6875 -5 "/></g></g></g><g fill="#000000" fill-opacity="1"><g transform="translate(661.815522, 209.52166)"><g><path d="M 11.359375 -2.6875 C 10.054688 -0.625 8.414062 0.40625 6.4375 0.40625 C 4.039062 0.40625 2.84375 -1.316406 2.84375 -4.765625 L 2.84375 -17.015625 L 0.6875 -17.015625 C 0.582031 -17.097656 0.53125 -17.191406 0.53125 -17.296875 C 0.53125 -17.515625 0.757812 -17.773438 1.21875 -18.078125 C 2.332031 -18.722656 3.648438 -20.171875 5.171875 -22.421875 C 5.546875 -22.910156 5.816406 -23.289062 5.984375 -23.5625 C 6.171875 -23.5625 6.265625 -23.382812 6.265625 -23.03125 L 6.265625 -18.3125 L 10.375 -18.3125 L 10.375 -17.015625 L 6.265625 -17.015625 L 6.265625 -5.375 C 6.265625 -4.070312 6.425781 -3.132812 6.75 -2.5625 C 7.082031 -1.988281 7.628906 -1.703125 8.390625 -1.703125 C 9.203125 -1.703125 10.015625 -2.179688 10.828125 -3.140625 Z M 11.359375 -2.6875 "/></g></g></g><g fill="#000000" fill-opacity="1"><g transform="translate(673.128641, 209.52166)"><g><path d="M 17.984375 -1.625 C 17.285156 -0.84375 16.671875 -0.304688 16.140625 -0.015625 C 15.609375 0.265625 15.003906 0.40625 14.328125 0.40625 C 13.484375 0.40625 12.863281 0.179688 12.46875 -0.265625 C 12.082031 -0.710938 11.832031 -1.476562 11.71875 -2.5625 C 9.382812 -0.582031 7.40625 0.40625 5.78125 0.40625 C 4.53125 0.40625 3.503906 0 2.703125 -0.8125 C 1.898438 -1.625 1.5 -2.671875 1.5 -3.953125 C 1.5 -5.410156 1.988281 -6.585938 2.96875 -7.484375 C 3.84375 -8.242188 4.71875 -8.847656 5.59375 -9.296875 C 6.476562 -9.742188 8.507812 -10.609375 11.6875 -11.890625 L 11.6875 -14.375 C 11.6875 -16.625 10.65625 -17.75 8.59375 -17.75 C 7.78125 -17.75 7.085938 -17.550781 6.515625 -17.15625 C 5.941406 -16.757812 5.65625 -16.289062 5.65625 -15.75 C 5.65625 -15.445312 5.695312 -15.125 5.78125 -14.78125 C 5.832031 -14.394531 5.859375 -14.175781 5.859375 -14.125 C 5.859375 -13.664062 5.675781 -13.265625 5.3125 -12.921875 C 4.945312 -12.585938 4.519531 -12.421875 4.03125 -12.421875 C 3.539062 -12.421875 3.125 -12.59375 2.78125 -12.9375 C 2.445312 -13.289062 2.28125 -13.703125 2.28125 -14.171875 C 2.28125 -15.273438 2.835938 -16.289062 3.953125 -17.21875 C 5.171875 -18.21875 6.894531 -18.71875 9.125 -18.71875 C 11.644531 -18.71875 13.335938 -17.929688 14.203125 -16.359375 C 14.722656 -15.515625 14.984375 -14.128906 14.984375 -12.203125 L 14.984375 -4.28125 C 14.984375 -3.382812 15.070312 -2.765625 15.25 -2.421875 C 15.425781 -2.078125 15.742188 -1.90625 16.203125 -1.90625 C 16.765625 -1.90625 17.359375 -2.164062 17.984375 -2.6875 Z M 11.6875 -5 L 11.6875 -10.90625 C 9.238281 -10.007812 7.523438 -9.140625 6.546875 -8.296875 C 5.578125 -7.460938 5.09375 -6.445312 5.09375 -5.25 L 5.09375 -5.09375 C 5.09375 -4.21875 5.34375 -3.472656 5.84375 -2.859375 C 6.34375 -2.253906 6.945312 -1.953125 7.65625 -1.953125 C 8.601562 -1.953125 9.59375 -2.25 10.625 -2.84375 C 11.0625 -3.113281 11.347656 -3.382812 11.484375 -3.65625 C 11.617188 -3.925781 11.6875 -4.375 11.6875 -5 Z M 11.6875 -5 "/></g></g></g><g fill="#000000" fill-opacity="1"><g transform="translate(161.899279, 269.044841)"><g><path d="M 6.546875 -6.234375 L 6.25 -6.234375 C 6.144531 -6.765625 5.984375 -7.101562 5.765625 -7.25 C 5.554688 -7.40625 5.109375 -7.484375 4.421875 -7.484375 L 2.796875 -7.484375 C 2.640625 -7.484375 2.535156 -7.457031 2.484375 -7.40625 C 2.429688 -7.351562 2.40625 -7.242188 2.40625 -7.078125 L 2.40625 -4.421875 L 4.15625 -4.421875 C 4.632812 -4.421875 4.953125 -4.488281 5.109375 -4.625 C 5.273438 -4.769531 5.394531 -5.082031 5.46875 -5.5625 L 5.75 -5.5625 L 5.75 -2.765625 L 5.46875 -2.765625 C 5.394531 -3.253906 5.28125 -3.566406 5.125 -3.703125 C 4.96875 -3.847656 4.644531 -3.921875 4.15625 -3.921875 L 2.40625 -3.921875 L 2.40625 -1.3125 C 2.40625 -0.875 2.472656 -0.585938 2.609375 -0.453125 C 2.742188 -0.328125 3.039062 -0.253906 3.5 -0.234375 L 3.5 0 L 0.140625 0 L 0.140625 -0.234375 C 0.597656 -0.265625 0.882812 -0.347656 1 -0.484375 C 1.125 -0.628906 1.1875 -0.945312 1.1875 -1.4375 L 1.1875 -6.640625 C 1.1875 -7.054688 1.117188 -7.332031 0.984375 -7.46875 C 0.859375 -7.601562 0.578125 -7.6875 0.140625 -7.71875 L 0.140625 -7.9375 L 6.515625 -7.9375 Z M 6.546875 -6.234375 "/></g></g></g><g fill="#000000" fill-opacity="1"><g transform="translate(168.571287, 269.044841)"><g><path d="M 3.03125 0 L 0.1875 0 L 0.1875 -0.1875 C 0.601562 -0.207031 0.863281 -0.273438 0.96875 -0.390625 C 1.082031 -0.515625 1.140625 -0.789062 1.140625 -1.21875 L 1.140625 -4.015625 C 1.140625 -4.273438 1.109375 -4.457031 1.046875 -4.5625 C 0.984375 -4.675781 0.882812 -4.734375 0.75 -4.734375 C 0.613281 -4.734375 0.476562 -4.71875 0.34375 -4.6875 L 0.234375 -4.6875 L 0.234375 -4.859375 L 2.09375 -5.515625 L 2.140625 -5.484375 L 2.140625 -1.21875 C 2.140625 -0.789062 2.191406 -0.519531 2.296875 -0.40625 C 2.398438 -0.289062 2.644531 -0.21875 3.03125 -0.1875 Z M 2.25 -7.078125 C 2.25 -6.898438 2.191406 -6.753906 2.078125 -6.640625 C 1.960938 -6.523438 1.816406 -6.46875 1.640625 -6.46875 C 1.472656 -6.46875 1.328125 -6.523438 1.203125 -6.640625 C 1.085938 -6.753906 1.03125 -6.898438 1.03125 -7.078125 C 1.03125 -7.242188 1.085938 -7.382812 1.203125 -7.5 C 1.328125 -7.625 1.472656 -7.6875 1.640625 -7.6875 C 1.816406 -7.6875 1.960938 -7.625 2.078125 -7.5 C 2.191406 -7.382812 2.25 -7.242188 2.25 -7.078125 Z M 2.25 -7.078125 "/></g></g></g><g fill="#000000" fill-opacity="1"><g transform="translate(171.907297, 269.044841)"><g><path d="M 3.078125 0 L 0.25 0 L 0.25 -0.1875 C 0.625 -0.21875 0.867188 -0.285156 0.984375 -0.390625 C 1.109375 -0.503906 1.171875 -0.722656 1.171875 -1.046875 L 1.171875 -6.765625 C 1.171875 -7.046875 1.132812 -7.238281 1.0625 -7.34375 C 0.988281 -7.445312 0.859375 -7.5 0.671875 -7.5 C 0.597656 -7.5 0.472656 -7.488281 0.296875 -7.46875 L 0.234375 -7.46875 L 0.234375 -7.671875 C 1.023438 -7.859375 1.660156 -8.035156 2.140625 -8.203125 L 2.1875 -8.171875 L 2.1875 -1.015625 C 2.1875 -0.679688 2.238281 -0.460938 2.34375 -0.359375 C 2.457031 -0.265625 2.703125 -0.207031 3.078125 -0.1875 Z M 3.078125 0 "/></g></g></g><g fill="#000000" fill-opacity="1"><g transform="translate(175.243306, 269.044841)"><g><path d="M 5.09375 -1.890625 C 4.570312 -0.546875 3.722656 0.125 2.546875 0.125 C 1.859375 0.125 1.3125 -0.113281 0.90625 -0.59375 C 0.5 -1.082031 0.296875 -1.738281 0.296875 -2.5625 C 0.296875 -3.4375 0.523438 -4.144531 0.984375 -4.6875 C 1.453125 -5.238281 2.0625 -5.515625 2.8125 -5.515625 C 3.445312 -5.515625 3.957031 -5.289062 4.34375 -4.84375 C 4.601562 -4.5 4.773438 -3.992188 4.859375 -3.328125 L 1.15625 -3.328125 C 1.1875 -2.640625 1.3125 -2.085938 1.53125 -1.671875 C 1.875 -1.023438 2.375 -0.703125 3.03125 -0.703125 C 3.414062 -0.703125 3.75 -0.796875 4.03125 -0.984375 C 4.320312 -1.179688 4.609375 -1.507812 4.890625 -1.96875 Z M 3.640625 -3.703125 C 3.554688 -4.222656 3.429688 -4.582031 3.265625 -4.78125 C 3.097656 -4.988281 2.828125 -5.09375 2.453125 -5.09375 C 1.734375 -5.09375 1.3125 -4.628906 1.1875 -3.703125 Z M 3.640625 -3.703125 "/></g></g></g><g fill="#000000" fill-opacity="1"><g transform="translate(180.57132, 269.044841)"><g><path d="M 4.171875 -1.421875 C 4.171875 -1.003906 4.003906 -0.640625 3.671875 -0.328125 C 3.347656 -0.0234375 2.957031 0.125 2.5 0.125 C 2.28125 0.125 1.984375 0.0820312 1.609375 0 C 1.347656 -0.0625 1.164062 -0.09375 1.0625 -0.09375 C 0.9375 -0.09375 0.84375 -0.046875 0.78125 0.046875 L 0.625 0.046875 L 0.625 -1.828125 L 0.8125 -1.828125 C 0.945312 -1.210938 1.128906 -0.773438 1.359375 -0.515625 C 1.597656 -0.265625 1.925781 -0.140625 2.34375 -0.140625 C 2.644531 -0.140625 2.882812 -0.21875 3.0625 -0.375 C 3.25 -0.53125 3.34375 -0.742188 3.34375 -1.015625 C 3.34375 -1.367188 3.132812 -1.664062 2.71875 -1.90625 L 2.015625 -2.296875 C 1.503906 -2.597656 1.140625 -2.878906 0.921875 -3.140625 C 0.710938 -3.398438 0.609375 -3.695312 0.609375 -4.03125 C 0.609375 -4.46875 0.757812 -4.820312 1.0625 -5.09375 C 1.375 -5.375 1.773438 -5.515625 2.265625 -5.515625 C 2.566406 -5.515625 2.835938 -5.460938 3.078125 -5.359375 C 3.203125 -5.304688 3.3125 -5.28125 3.40625 -5.28125 C 3.4375 -5.28125 3.492188 -5.3125 3.578125 -5.375 L 3.59375 -5.40625 L 3.734375 -5.40625 L 3.78125 -3.765625 L 3.59375 -3.765625 C 3.457031 -4.304688 3.289062 -4.6875 3.09375 -4.90625 C 2.894531 -5.132812 2.625 -5.25 2.28125 -5.25 C 2 -5.25 1.773438 -5.171875 1.609375 -5.015625 C 1.441406 -4.867188 1.359375 -4.671875 1.359375 -4.421875 C 1.359375 -4.078125 1.53125 -3.804688 1.875 -3.609375 L 3.171875 -2.84375 C 3.535156 -2.625 3.789062 -2.40625 3.9375 -2.1875 C 4.09375 -1.976562 4.171875 -1.722656 4.171875 -1.421875 Z M 4.171875 -1.421875 "/></g></g></g><g fill="#000000" fill-opacity="1"><g transform="translate(344.077987, 269.044841)"><g><path d="M 10.359375 0 L 7 0 L 7 -0.234375 C 7.46875 -0.265625 7.765625 -0.347656 7.890625 -0.484375 C 8.023438 -0.628906 8.09375 -0.945312 8.09375 -1.4375 L 8.09375 -6.875 L 5.015625 0 L 4.84375 0 L 1.84375 -6.59375 L 1.84375 -1.765625 C 1.84375 -1.160156 1.910156 -0.757812 2.046875 -0.5625 C 2.191406 -0.363281 2.5 -0.253906 2.96875 -0.234375 L 2.96875 0 L 0.140625 0 L 0.140625 -0.234375 C 0.640625 -0.265625 0.957031 -0.375 1.09375 -0.5625 C 1.238281 -0.75 1.3125 -1.148438 1.3125 -1.765625 L 1.3125 -6.640625 C 1.3125 -7.078125 1.242188 -7.359375 1.109375 -7.484375 C 0.972656 -7.609375 0.660156 -7.6875 0.171875 -7.71875 L 0.171875 -7.9375 L 2.546875 -7.9375 L 5.3125 -1.890625 L 7.96875 -7.9375 L 10.359375 -7.9375 L 10.359375 -7.71875 C 9.910156 -7.675781 9.625 -7.585938 9.5 -7.453125 C 9.375 -7.328125 9.3125 -7.054688 9.3125 -6.640625 L 9.3125 -1.3125 C 9.3125 -0.882812 9.375 -0.601562 9.5 -0.46875 C 9.632812 -0.34375 9.921875 -0.265625 10.359375 -0.234375 Z M 10.359375 0 "/></g></g></g><g fill="#000000" fill-opacity="1"><g transform="translate(354.746008, 269.044841)"><g><path d="M 5.09375 -1.890625 C 4.570312 -0.546875 3.722656 0.125 2.546875 0.125 C 1.859375 0.125 1.3125 -0.113281 0.90625 -0.59375 C 0.5 -1.082031 0.296875 -1.738281 0.296875 -2.5625 C 0.296875 -3.4375 0.523438 -4.144531 0.984375 -4.6875 C 1.453125 -5.238281 2.0625 -5.515625 2.8125 -5.515625 C 3.445312 -5.515625 3.957031 -5.289062 4.34375 -4.84375 C 4.601562 -4.5 4.773438 -3.992188 4.859375 -3.328125 L 1.15625 -3.328125 C 1.1875 -2.640625 1.3125 -2.085938 1.53125 -1.671875 C 1.875 -1.023438 2.375 -0.703125 3.03125 -0.703125 C 3.414062 -0.703125 3.75 -0.796875 4.03125 -0.984375 C 4.320312 -1.179688 4.609375 -1.507812 4.890625 -1.96875 Z M 3.640625 -3.703125 C 3.554688 -4.222656 3.429688 -4.582031 3.265625 -4.78125 C 3.097656 -4.988281 2.828125 -5.09375 2.453125 -5.09375 C 1.734375 -5.09375 1.3125 -4.628906 1.1875 -3.703125 Z M 3.640625 -3.703125 "/></g></g></g><g fill="#000000" fill-opacity="1"><g transform="translate(360.074022, 269.044841)"><g><path d="M 3.34375 -0.796875 C 2.957031 -0.179688 2.472656 0.125 1.890625 0.125 C 1.191406 0.125 0.84375 -0.382812 0.84375 -1.40625 L 0.84375 -5.015625 L 0.203125 -5.015625 C 0.171875 -5.035156 0.15625 -5.0625 0.15625 -5.09375 C 0.15625 -5.164062 0.222656 -5.242188 0.359375 -5.328125 C 0.691406 -5.515625 1.082031 -5.941406 1.53125 -6.609375 C 1.632812 -6.753906 1.710938 -6.867188 1.765625 -6.953125 C 1.816406 -6.953125 1.84375 -6.898438 1.84375 -6.796875 L 1.84375 -5.40625 L 3.0625 -5.40625 L 3.0625 -5.015625 L 1.84375 -5.015625 L 1.84375 -1.578125 C 1.84375 -1.203125 1.890625 -0.925781 1.984375 -0.75 C 2.085938 -0.582031 2.25 -0.5 2.46875 -0.5 C 2.707031 -0.5 2.945312 -0.640625 3.1875 -0.921875 Z M 3.34375 -0.796875 "/></g></g></g><g fill="#000000" fill-opacity="1"><g transform="translate(363.410032, 269.044841)"><g><path d="M 5.296875 -0.484375 C 5.085938 -0.242188 4.90625 -0.0820312 4.75 0 C 4.601562 0.0820312 4.425781 0.125 4.21875 0.125 C 3.976562 0.125 3.796875 0.0546875 3.671875 -0.078125 C 3.554688 -0.210938 3.484375 -0.4375 3.453125 -0.75 C 2.765625 -0.164062 2.179688 0.125 1.703125 0.125 C 1.335938 0.125 1.035156 0.00390625 0.796875 -0.234375 C 0.554688 -0.472656 0.4375 -0.78125 0.4375 -1.15625 C 0.4375 -1.59375 0.582031 -1.941406 0.875 -2.203125 C 1.132812 -2.429688 1.394531 -2.609375 1.65625 -2.734375 C 1.914062 -2.867188 2.507812 -3.125 3.4375 -3.5 L 3.4375 -4.234375 C 3.4375 -4.898438 3.132812 -5.234375 2.53125 -5.234375 C 2.289062 -5.234375 2.085938 -5.175781 1.921875 -5.0625 C 1.753906 -4.945312 1.671875 -4.804688 1.671875 -4.640625 C 1.671875 -4.554688 1.679688 -4.460938 1.703125 -4.359375 C 1.722656 -4.242188 1.734375 -4.175781 1.734375 -4.15625 C 1.734375 -4.019531 1.675781 -3.898438 1.5625 -3.796875 C 1.457031 -3.703125 1.332031 -3.65625 1.1875 -3.65625 C 1.039062 -3.65625 0.914062 -3.707031 0.8125 -3.8125 C 0.71875 -3.914062 0.671875 -4.035156 0.671875 -4.171875 C 0.671875 -4.503906 0.832031 -4.804688 1.15625 -5.078125 C 1.519531 -5.367188 2.03125 -5.515625 2.6875 -5.515625 C 3.425781 -5.515625 3.925781 -5.285156 4.1875 -4.828125 C 4.34375 -4.578125 4.421875 -4.164062 4.421875 -3.59375 L 4.421875 -1.265625 C 4.421875 -0.992188 4.445312 -0.804688 4.5 -0.703125 C 4.550781 -0.609375 4.644531 -0.5625 4.78125 -0.5625 C 4.945312 -0.5625 5.117188 -0.640625 5.296875 -0.796875 Z M 3.4375 -1.46875 L 3.4375 -3.21875 C 2.71875 -2.945312 2.210938 -2.6875 1.921875 -2.4375 C 1.640625 -2.195312 1.5 -1.898438 1.5 -1.546875 L 1.5 -1.5 C 1.5 -1.238281 1.570312 -1.019531 1.71875 -0.84375 C 1.863281 -0.664062 2.039062 -0.578125 2.25 -0.578125 C 2.53125 -0.578125 2.820312 -0.664062 3.125 -0.84375 C 3.257812 -0.914062 3.34375 -0.992188 3.375 -1.078125 C 3.414062 -1.160156 3.4375 -1.289062 3.4375 -1.46875 Z M 3.4375 -1.46875 "/></g></g></g><g fill="#000000" fill-opacity="1"><g transform="translate(368.738046, 269.044841)"><g><path d="M 5.890625 -0.5 L 4.125 0.125 L 4.078125 0.078125 L 4.078125 -0.6875 C 3.691406 -0.144531 3.179688 0.125 2.546875 0.125 C 1.878906 0.125 1.34375 -0.113281 0.9375 -0.59375 C 0.53125 -1.070312 0.328125 -1.691406 0.328125 -2.453125 C 0.328125 -3.304688 0.566406 -4.03125 1.046875 -4.625 C 1.535156 -5.21875 2.125 -5.515625 2.8125 -5.515625 C 3.25 -5.515625 3.671875 -5.34375 4.078125 -5 L 4.078125 -6.875 C 4.078125 -7.125 4.039062 -7.285156 3.96875 -7.359375 C 3.894531 -7.441406 3.75 -7.484375 3.53125 -7.484375 C 3.414062 -7.484375 3.328125 -7.476562 3.265625 -7.46875 L 3.265625 -7.671875 C 3.992188 -7.859375 4.582031 -8.035156 5.03125 -8.203125 L 5.09375 -8.171875 L 5.09375 -1.375 C 5.09375 -1.09375 5.125 -0.90625 5.1875 -0.8125 C 5.257812 -0.726562 5.398438 -0.6875 5.609375 -0.6875 C 5.648438 -0.6875 5.742188 -0.691406 5.890625 -0.703125 Z M 4.078125 -1.21875 L 4.078125 -3.984375 C 4.078125 -4.304688 3.953125 -4.585938 3.703125 -4.828125 C 3.460938 -5.066406 3.179688 -5.1875 2.859375 -5.1875 C 2.398438 -5.1875 2.035156 -4.976562 1.765625 -4.5625 C 1.492188 -4.15625 1.359375 -3.613281 1.359375 -2.9375 C 1.359375 -2.207031 1.507812 -1.617188 1.8125 -1.171875 C 2.113281 -0.722656 2.515625 -0.5 3.015625 -0.5 C 3.367188 -0.5 3.65625 -0.617188 3.875 -0.859375 C 4.007812 -1.015625 4.078125 -1.132812 4.078125 -1.21875 Z M 4.078125 -1.21875 "/></g></g></g><g fill="#000000" fill-opacity="1"><g transform="translate(374.738057, 269.044841)"><g><path d="M 5.296875 -0.484375 C 5.085938 -0.242188 4.90625 -0.0820312 4.75 0 C 4.601562 0.0820312 4.425781 0.125 4.21875 0.125 C 3.976562 0.125 3.796875 0.0546875 3.671875 -0.078125 C 3.554688 -0.210938 3.484375 -0.4375 3.453125 -0.75 C 2.765625 -0.164062 2.179688 0.125 1.703125 0.125 C 1.335938 0.125 1.035156 0.00390625 0.796875 -0.234375 C 0.554688 -0.472656 0.4375 -0.78125 0.4375 -1.15625 C 0.4375 -1.59375 0.582031 -1.941406 0.875 -2.203125 C 1.132812 -2.429688 1.394531 -2.609375 1.65625 -2.734375 C 1.914062 -2.867188 2.507812 -3.125 3.4375 -3.5 L 3.4375 -4.234375 C 3.4375 -4.898438 3.132812 -5.234375 2.53125 -5.234375 C 2.289062 -5.234375 2.085938 -5.175781 1.921875 -5.0625 C 1.753906 -4.945312 1.671875 -4.804688 1.671875 -4.640625 C 1.671875 -4.554688 1.679688 -4.460938 1.703125 -4.359375 C 1.722656 -4.242188 1.734375 -4.175781 1.734375 -4.15625 C 1.734375 -4.019531 1.675781 -3.898438 1.5625 -3.796875 C 1.457031 -3.703125 1.332031 -3.65625 1.1875 -3.65625 C 1.039062 -3.65625 0.914062 -3.707031 0.8125 -3.8125 C 0.71875 -3.914062 0.671875 -4.035156 0.671875 -4.171875 C 0.671875 -4.503906 0.832031 -4.804688 1.15625 -5.078125 C 1.519531 -5.367188 2.03125 -5.515625 2.6875 -5.515625 C 3.425781 -5.515625 3.925781 -5.285156 4.1875 -4.828125 C 4.34375 -4.578125 4.421875 -4.164062 4.421875 -3.59375 L 4.421875 -1.265625 C 4.421875 -0.992188 4.445312 -0.804688 4.5 -0.703125 C 4.550781 -0.609375 4.644531 -0.5625 4.78125 -0.5625 C 4.945312 -0.5625 5.117188 -0.640625 5.296875 -0.796875 Z M 3.4375 -1.46875 L 3.4375 -3.21875 C 2.71875 -2.945312 2.210938 -2.6875 1.921875 -2.4375 C 1.640625 -2.195312 1.5 -1.898438 1.5 -1.546875 L 1.5 -1.5 C 1.5 -1.238281 1.570312 -1.019531 1.71875 -0.84375 C 1.863281 -0.664062 2.039062 -0.578125 2.25 -0.578125 C 2.53125 -0.578125 2.820312 -0.664062 3.125 -0.84375 C 3.257812 -0.914062 3.34375 -0.992188 3.375 -1.078125 C 3.414062 -1.160156 3.4375 -1.289062 3.4375 -1.46875 Z M 3.4375 -1.46875 "/></g></g></g><g fill="#000000" fill-opacity="1"><g transform="translate(380.066071, 269.044841)"><g><path d="M 3.34375 -0.796875 C 2.957031 -0.179688 2.472656 0.125 1.890625 0.125 C 1.191406 0.125 0.84375 -0.382812 0.84375 -1.40625 L 0.84375 -5.015625 L 0.203125 -5.015625 C 0.171875 -5.035156 0.15625 -5.0625 0.15625 -5.09375 C 0.15625 -5.164062 0.222656 -5.242188 0.359375 -5.328125 C 0.691406 -5.515625 1.082031 -5.941406 1.53125 -6.609375 C 1.632812 -6.753906 1.710938 -6.867188 1.765625 -6.953125 C 1.816406 -6.953125 1.84375 -6.898438 1.84375 -6.796875 L 1.84375 -5.40625 L 3.0625 -5.40625 L 3.0625 -5.015625 L 1.84375 -5.015625 L 1.84375 -1.578125 C 1.84375 -1.203125 1.890625 -0.925781 1.984375 -0.75 C 2.085938 -0.582031 2.25 -0.5 2.46875 -0.5 C 2.707031 -0.5 2.945312 -0.640625 3.1875 -0.921875 Z M 3.34375 -0.796875 "/></g></g></g><g fill="#000000" fill-opacity="1"><g transform="translate(383.40208, 269.044841)"><g><path d="M 5.296875 -0.484375 C 5.085938 -0.242188 4.90625 -0.0820312 4.75 0 C 4.601562 0.0820312 4.425781 0.125 4.21875 0.125 C 3.976562 0.125 3.796875 0.0546875 3.671875 -0.078125 C 3.554688 -0.210938 3.484375 -0.4375 3.453125 -0.75 C 2.765625 -0.164062 2.179688 0.125 1.703125 0.125 C 1.335938 0.125 1.035156 0.00390625 0.796875 -0.234375 C 0.554688 -0.472656 0.4375 -0.78125 0.4375 -1.15625 C 0.4375 -1.59375 0.582031 -1.941406 0.875 -2.203125 C 1.132812 -2.429688 1.394531 -2.609375 1.65625 -2.734375 C 1.914062 -2.867188 2.507812 -3.125 3.4375 -3.5 L 3.4375 -4.234375 C 3.4375 -4.898438 3.132812 -5.234375 2.53125 -5.234375 C 2.289062 -5.234375 2.085938 -5.175781 1.921875 -5.0625 C 1.753906 -4.945312 1.671875 -4.804688 1.671875 -4.640625 C 1.671875 -4.554688 1.679688 -4.460938 1.703125 -4.359375 C 1.722656 -4.242188 1.734375 -4.175781 1.734375 -4.15625 C 1.734375 -4.019531 1.675781 -3.898438 1.5625 -3.796875 C 1.457031 -3.703125 1.332031 -3.65625 1.1875 -3.65625 C 1.039062 -3.65625 0.914062 -3.707031 0.8125 -3.8125 C 0.71875 -3.914062 0.671875 -4.035156 0.671875 -4.171875 C 0.671875 -4.503906 0.832031 -4.804688 1.15625 -5.078125 C 1.519531 -5.367188 2.03125 -5.515625 2.6875 -5.515625 C 3.425781 -5.515625 3.925781 -5.285156 4.1875 -4.828125 C 4.34375 -4.578125 4.421875 -4.164062 4.421875 -3.59375 L 4.421875 -1.265625 C 4.421875 -0.992188 4.445312 -0.804688 4.5 -0.703125 C 4.550781 -0.609375 4.644531 -0.5625 4.78125 -0.5625 C 4.945312 -0.5625 5.117188 -0.640625 5.296875 -0.796875 Z M 3.4375 -1.46875 L 3.4375 -3.21875 C 2.71875 -2.945312 2.210938 -2.6875 1.921875 -2.4375 C 1.640625 -2.195312 1.5 -1.898438 1.5 -1.546875 L 1.5 -1.5 C 1.5 -1.238281 1.570312 -1.019531 1.71875 -0.84375 C 1.863281 -0.664062 2.039062 -0.578125 2.25 -0.578125 C 2.53125 -0.578125 2.820312 -0.664062 3.125 -0.84375 C 3.257812 -0.914062 3.34375 -0.992188 3.375 -1.078125 C 3.414062 -1.160156 3.4375 -1.289062 3.4375 -1.46875 Z M 3.4375 -1.46875 "/></g></g></g><g fill="#000000" fill-opacity="1"><g transform="translate(388.730094, 269.044841)"><g/></g></g><g fill="#000000" fill-opacity="1"><g transform="translate(391.730105, 269.044841)"><g><path d="M 8.40625 2.125 L 8.34375 2.125 C 8.25 2.132812 8.109375 2.140625 7.921875 2.140625 C 5.972656 2.140625 4.582031 1.648438 3.75 0.671875 L 3.1875 0.015625 C 2.757812 -0.128906 2.425781 -0.273438 2.1875 -0.421875 C 1.957031 -0.566406 1.71875 -0.765625 1.46875 -1.015625 C 0.757812 -1.796875 0.40625 -2.773438 0.40625 -3.953125 C 0.40625 -5.160156 0.769531 -6.15625 1.5 -6.9375 C 2.238281 -7.71875 3.179688 -8.109375 4.328125 -8.109375 C 5.472656 -8.109375 6.410156 -7.71875 7.140625 -6.9375 C 7.878906 -6.164062 8.25 -5.175781 8.25 -3.96875 C 8.25 -2.625 7.800781 -1.550781 6.90625 -0.75 C 6.625 -0.507812 6.351562 -0.328125 6.09375 -0.203125 C 5.84375 -0.0859375 5.515625 0.00390625 5.109375 0.078125 C 5.597656 0.722656 6.097656 1.1875 6.609375 1.46875 C 7.128906 1.757812 7.726562 1.90625 8.40625 1.90625 Z M 6.890625 -4 C 6.890625 -4.675781 6.796875 -5.285156 6.609375 -5.828125 C 6.429688 -6.367188 6.179688 -6.785156 5.859375 -7.078125 C 5.410156 -7.484375 4.914062 -7.6875 4.375 -7.6875 C 3.6875 -7.6875 3.097656 -7.425781 2.609375 -6.90625 C 2.367188 -6.625 2.171875 -6.21875 2.015625 -5.6875 C 1.859375 -5.15625 1.78125 -4.597656 1.78125 -4.015625 C 1.78125 -3.316406 1.867188 -2.679688 2.046875 -2.109375 C 2.222656 -1.546875 2.472656 -1.128906 2.796875 -0.859375 C 3.234375 -0.460938 3.742188 -0.265625 4.328125 -0.265625 C 5.015625 -0.265625 5.59375 -0.519531 6.0625 -1.03125 C 6.300781 -1.3125 6.5 -1.726562 6.65625 -2.28125 C 6.8125 -2.832031 6.890625 -3.40625 6.890625 -4 Z M 6.890625 -4 "/></g></g></g><g fill="#000000" fill-opacity="1"><g transform="translate(400.394118, 269.044841)"><g><path d="M 5.75 -0.4375 C 5.125 -0.269531 4.578125 -0.0859375 4.109375 0.109375 L 4.0625 0.078125 L 4.0625 -0.90625 L 3.546875 -0.390625 C 3.203125 -0.046875 2.785156 0.125 2.296875 0.125 C 1.859375 0.125 1.507812 -0.015625 1.25 -0.296875 C 0.988281 -0.585938 0.859375 -0.96875 0.859375 -1.4375 L 0.859375 -4.46875 C 0.859375 -4.75 0.804688 -4.941406 0.703125 -5.046875 C 0.597656 -5.148438 0.398438 -5.210938 0.109375 -5.234375 L 0.109375 -5.40625 L 1.859375 -5.40625 L 1.859375 -1.484375 C 1.859375 -1.234375 1.941406 -1.019531 2.109375 -0.84375 C 2.273438 -0.664062 2.476562 -0.578125 2.71875 -0.578125 C 3.09375 -0.578125 3.453125 -0.722656 3.796875 -1.015625 C 3.929688 -1.109375 4 -1.3125 4 -1.625 L 4 -4.4375 C 4 -4.738281 3.941406 -4.9375 3.828125 -5.03125 C 3.722656 -5.125 3.484375 -5.179688 3.109375 -5.203125 L 3.109375 -5.40625 L 5 -5.40625 L 5 -1.28125 C 5 -1 5.046875 -0.8125 5.140625 -0.71875 C 5.234375 -0.632812 5.414062 -0.59375 5.6875 -0.59375 L 5.75 -0.59375 Z M 5.75 -0.4375 "/></g></g></g><g fill="#000000" fill-opacity="1"><g transform="translate(406.394129, 269.044841)"><g><path d="M 5.296875 -0.484375 C 5.085938 -0.242188 4.90625 -0.0820312 4.75 0 C 4.601562 0.0820312 4.425781 0.125 4.21875 0.125 C 3.976562 0.125 3.796875 0.0546875 3.671875 -0.078125 C 3.554688 -0.210938 3.484375 -0.4375 3.453125 -0.75 C 2.765625 -0.164062 2.179688 0.125 1.703125 0.125 C 1.335938 0.125 1.035156 0.00390625 0.796875 -0.234375 C 0.554688 -0.472656 0.4375 -0.78125 0.4375 -1.15625 C 0.4375 -1.59375 0.582031 -1.941406 0.875 -2.203125 C 1.132812 -2.429688 1.394531 -2.609375 1.65625 -2.734375 C 1.914062 -2.867188 2.507812 -3.125 3.4375 -3.5 L 3.4375 -4.234375 C 3.4375 -4.898438 3.132812 -5.234375 2.53125 -5.234375 C 2.289062 -5.234375 2.085938 -5.175781 1.921875 -5.0625 C 1.753906 -4.945312 1.671875 -4.804688 1.671875 -4.640625 C 1.671875 -4.554688 1.679688 -4.460938 1.703125 -4.359375 C 1.722656 -4.242188 1.734375 -4.175781 1.734375 -4.15625 C 1.734375 -4.019531 1.675781 -3.898438 1.5625 -3.796875 C 1.457031 -3.703125 1.332031 -3.65625 1.1875 -3.65625 C 1.039062 -3.65625 0.914062 -3.707031 0.8125 -3.8125 C 0.71875 -3.914062 0.671875 -4.035156 0.671875 -4.171875 C 0.671875 -4.503906 0.832031 -4.804688 1.15625 -5.078125 C 1.519531 -5.367188 2.03125 -5.515625 2.6875 -5.515625 C 3.425781 -5.515625 3.925781 -5.285156 4.1875 -4.828125 C 4.34375 -4.578125 4.421875 -4.164062 4.421875 -3.59375 L 4.421875 -1.265625 C 4.421875 -0.992188 4.445312 -0.804688 4.5 -0.703125 C 4.550781 -0.609375 4.644531 -0.5625 4.78125 -0.5625 C 4.945312 -0.5625 5.117188 -0.640625 5.296875 -0.796875 Z M 3.4375 -1.46875 L 3.4375 -3.21875 C 2.71875 -2.945312 2.210938 -2.6875 1.921875 -2.4375 C 1.640625 -2.195312 1.5 -1.898438 1.5 -1.546875 L 1.5 -1.5 C 1.5 -1.238281 1.570312 -1.019531 1.71875 -0.84375 C 1.863281 -0.664062 2.039062 -0.578125 2.25 -0.578125 C 2.53125 -0.578125 2.820312 -0.664062 3.125 -0.84375 C 3.257812 -0.914062 3.34375 -0.992188 3.375 -1.078125 C 3.414062 -1.160156 3.4375 -1.289062 3.4375 -1.46875 Z M 3.4375 -1.46875 "/></g></g></g><g fill="#000000" fill-opacity="1"><g transform="translate(411.722143, 269.044841)"><g><path d="M 3.078125 0 L 0.25 0 L 0.25 -0.1875 C 0.625 -0.21875 0.867188 -0.285156 0.984375 -0.390625 C 1.109375 -0.503906 1.171875 -0.722656 1.171875 -1.046875 L 1.171875 -6.765625 C 1.171875 -7.046875 1.132812 -7.238281 1.0625 -7.34375 C 0.988281 -7.445312 0.859375 -7.5 0.671875 -7.5 C 0.597656 -7.5 0.472656 -7.488281 0.296875 -7.46875 L 0.234375 -7.46875 L 0.234375 -7.671875 C 1.023438 -7.859375 1.660156 -8.035156 2.140625 -8.203125 L 2.1875 -8.171875 L 2.1875 -1.015625 C 2.1875 -0.679688 2.238281 -0.460938 2.34375 -0.359375 C 2.457031 -0.265625 2.703125 -0.207031 3.078125 -0.1875 Z M 3.078125 0 "/></g></g></g><g fill="#000000" fill-opacity="1"><g transform="translate(415.058152, 269.044841)"><g><path d="M 3.03125 0 L 0.1875 0 L 0.1875 -0.1875 C 0.601562 -0.207031 0.863281 -0.273438 0.96875 -0.390625 C 1.082031 -0.515625 1.140625 -0.789062 1.140625 -1.21875 L 1.140625 -4.015625 C 1.140625 -4.273438 1.109375 -4.457031 1.046875 -4.5625 C 0.984375 -4.675781 0.882812 -4.734375 0.75 -4.734375 C 0.613281 -4.734375 0.476562 -4.71875 0.34375 -4.6875 L 0.234375 -4.6875 L 0.234375 -4.859375 L 2.09375 -5.515625 L 2.140625 -5.484375 L 2.140625 -1.21875 C 2.140625 -0.789062 2.191406 -0.519531 2.296875 -0.40625 C 2.398438 -0.289062 2.644531 -0.21875 3.03125 -0.1875 Z M 2.25 -7.078125 C 2.25 -6.898438 2.191406 -6.753906 2.078125 -6.640625 C 1.960938 -6.523438 1.816406 -6.46875 1.640625 -6.46875 C 1.472656 -6.46875 1.328125 -6.523438 1.203125 -6.640625 C 1.085938 -6.753906 1.03125 -6.898438 1.03125 -7.078125 C 1.03125 -7.242188 1.085938 -7.382812 1.203125 -7.5 C 1.328125 -7.625 1.472656 -7.6875 1.640625 -7.6875 C 1.816406 -7.6875 1.960938 -7.625 2.078125 -7.5 C 2.191406 -7.382812 2.25 -7.242188 2.25 -7.078125 Z M 2.25 -7.078125 "/></g></g></g><g fill="#000000" fill-opacity="1"><g transform="translate(418.394162, 269.044841)"><g><path d="M 3.34375 -0.796875 C 2.957031 -0.179688 2.472656 0.125 1.890625 0.125 C 1.191406 0.125 0.84375 -0.382812 0.84375 -1.40625 L 0.84375 -5.015625 L 0.203125 -5.015625 C 0.171875 -5.035156 0.15625 -5.0625 0.15625 -5.09375 C 0.15625 -5.164062 0.222656 -5.242188 0.359375 -5.328125 C 0.691406 -5.515625 1.082031 -5.941406 1.53125 -6.609375 C 1.632812 -6.753906 1.710938 -6.867188 1.765625 -6.953125 C 1.816406 -6.953125 1.84375 -6.898438 1.84375 -6.796875 L 1.84375 -5.40625 L 3.0625 -5.40625 L 3.0625 -5.015625 L 1.84375 -5.015625 L 1.84375 -1.578125 C 1.84375 -1.203125 1.890625 -0.925781 1.984375 -0.75 C 2.085938 -0.582031 2.25 -0.5 2.46875 -0.5 C 2.707031 -0.5 2.945312 -0.640625 3.1875 -0.921875 Z M 3.34375 -0.796875 "/></g></g></g><g fill="#000000" fill-opacity="1"><g transform="translate(421.730172, 269.044841)"><g><path d="M 5.703125 -5.21875 C 5.554688 -5.207031 5.441406 -5.160156 5.359375 -5.078125 C 5.285156 -5.003906 5.207031 -4.875 5.125 -4.6875 L 3.28125 0.21875 C 2.957031 1.082031 2.632812 1.695312 2.3125 2.0625 C 2 2.425781 1.644531 2.609375 1.25 2.609375 C 0.988281 2.609375 0.773438 2.539062 0.609375 2.40625 C 0.441406 2.28125 0.359375 2.117188 0.359375 1.921875 C 0.359375 1.773438 0.410156 1.648438 0.515625 1.546875 C 0.617188 1.441406 0.738281 1.390625 0.875 1.390625 C 1.0625 1.390625 1.273438 1.4375 1.515625 1.53125 C 1.628906 1.582031 1.726562 1.609375 1.8125 1.609375 C 1.894531 1.609375 1.992188 1.554688 2.109375 1.453125 C 2.234375 1.347656 2.332031 1.21875 2.40625 1.0625 C 2.507812 0.882812 2.613281 0.644531 2.71875 0.34375 C 2.832031 0.0507812 2.890625 -0.140625 2.890625 -0.234375 C 2.890625 -0.304688 2.847656 -0.453125 2.765625 -0.671875 L 0.78125 -4.84375 C 0.6875 -5.050781 0.484375 -5.179688 0.171875 -5.234375 L 0.171875 -5.40625 L 2.640625 -5.40625 L 2.640625 -5.21875 C 2.378906 -5.207031 2.195312 -5.175781 2.09375 -5.125 C 1.988281 -5.082031 1.9375 -5.003906 1.9375 -4.890625 C 1.9375 -4.773438 1.976562 -4.625 2.0625 -4.4375 L 3.4375 -1.40625 L 4.609375 -4.71875 C 4.640625 -4.789062 4.65625 -4.859375 4.65625 -4.921875 C 4.65625 -5.117188 4.460938 -5.21875 4.078125 -5.21875 L 4.078125 -5.40625 L 5.703125 -5.40625 Z M 5.703125 -5.21875 "/></g></g></g><g fill="#000000" fill-opacity="1"><g transform="translate(427.730183, 269.044841)"><g/></g></g><g fill="#000000" fill-opacity="1"><g transform="translate(430.730194, 269.044841)"><g><path d="M 7.59375 -1.359375 C 7.226562 -0.867188 6.757812 -0.488281 6.1875 -0.21875 C 5.625 0.0390625 5 0.171875 4.3125 0.171875 C 3.125 0.171875 2.164062 -0.203125 1.4375 -0.953125 C 0.707031 -1.703125 0.34375 -2.6875 0.34375 -3.90625 C 0.34375 -5.300781 0.804688 -6.382812 1.734375 -7.15625 C 2.503906 -7.789062 3.375 -8.109375 4.34375 -8.109375 C 4.9375 -8.109375 5.523438 -8.015625 6.109375 -7.828125 C 6.296875 -7.753906 6.457031 -7.71875 6.59375 -7.71875 C 6.84375 -7.71875 7.003906 -7.847656 7.078125 -8.109375 L 7.328125 -8.109375 L 7.4375 -5.40625 L 7.15625 -5.40625 C 7.050781 -5.789062 6.941406 -6.085938 6.828125 -6.296875 C 6.710938 -6.503906 6.5625 -6.707031 6.375 -6.90625 C 5.882812 -7.382812 5.285156 -7.625 4.578125 -7.625 C 3.710938 -7.625 3.019531 -7.300781 2.5 -6.65625 C 1.988281 -6.007812 1.734375 -5.144531 1.734375 -4.0625 C 1.734375 -2.625 2.097656 -1.601562 2.828125 -1 C 3.335938 -0.570312 3.960938 -0.359375 4.703125 -0.359375 C 5.648438 -0.359375 6.539062 -0.765625 7.375 -1.578125 Z M 7.59375 -1.359375 "/></g></g></g><g fill="#000000" fill-opacity="1"><g transform="translate(438.734214, 269.044841)"><g><path d="M 5.640625 -2.8125 C 5.640625 -1.976562 5.382812 -1.28125 4.875 -0.71875 C 4.363281 -0.15625 3.726562 0.125 2.96875 0.125 C 2.21875 0.125 1.59375 -0.144531 1.09375 -0.6875 C 0.59375 -1.226562 0.34375 -1.90625 0.34375 -2.71875 C 0.34375 -3.539062 0.585938 -4.210938 1.078125 -4.734375 C 1.578125 -5.253906 2.21875 -5.515625 3 -5.515625 C 3.769531 -5.515625 4.398438 -5.257812 4.890625 -4.75 C 5.390625 -4.238281 5.640625 -3.59375 5.640625 -2.8125 Z M 4.5625 -2.390625 C 4.5625 -3.210938 4.398438 -3.882812 4.078125 -4.40625 C 3.753906 -4.925781 3.34375 -5.1875 2.84375 -5.1875 C 2.414062 -5.1875 2.070312 -5.015625 1.8125 -4.671875 C 1.550781 -4.328125 1.421875 -3.867188 1.421875 -3.296875 C 1.421875 -2.410156 1.597656 -1.640625 1.953125 -0.984375 C 2.222656 -0.472656 2.613281 -0.21875 3.125 -0.21875 C 3.570312 -0.21875 3.921875 -0.410156 4.171875 -0.796875 C 4.429688 -1.179688 4.5625 -1.710938 4.5625 -2.390625 Z M 4.5625 -2.390625 "/></g></g></g><g fill="#000000" fill-opacity="1"><g transform="translate(444.734225, 269.044841)"><g><path d="M 5.8125 0 L 3.328125 0 L 3.328125 -0.1875 C 3.628906 -0.207031 3.828125 -0.285156 3.921875 -0.421875 C 4.023438 -0.554688 4.078125 -0.8125 4.078125 -1.1875 L 4.078125 -3.703125 C 4.078125 -4.472656 3.785156 -4.859375 3.203125 -4.859375 C 3.003906 -4.859375 2.820312 -4.8125 2.65625 -4.71875 C 2.488281 -4.625 2.257812 -4.441406 1.96875 -4.171875 L 1.96875 -0.796875 C 1.96875 -0.585938 2.019531 -0.4375 2.125 -0.34375 C 2.238281 -0.257812 2.453125 -0.207031 2.765625 -0.1875 L 2.765625 0 L 0.21875 0 L 0.21875 -0.1875 C 0.519531 -0.207031 0.71875 -0.273438 0.8125 -0.390625 C 0.90625 -0.503906 0.953125 -0.734375 0.953125 -1.078125 L 0.953125 -4.0625 C 0.953125 -4.351562 0.921875 -4.550781 0.859375 -4.65625 C 0.796875 -4.769531 0.679688 -4.828125 0.515625 -4.828125 C 0.359375 -4.828125 0.25 -4.8125 0.1875 -4.78125 L 0.1875 -4.984375 C 0.78125 -5.160156 1.332031 -5.335938 1.84375 -5.515625 L 1.9375 -5.5 L 1.9375 -4.546875 C 2.34375 -4.929688 2.660156 -5.1875 2.890625 -5.3125 C 3.128906 -5.445312 3.390625 -5.515625 3.671875 -5.515625 C 4.109375 -5.515625 4.453125 -5.359375 4.703125 -5.046875 C 4.960938 -4.734375 5.09375 -4.289062 5.09375 -3.71875 L 5.09375 -0.96875 C 5.09375 -0.675781 5.140625 -0.476562 5.234375 -0.375 C 5.328125 -0.28125 5.519531 -0.21875 5.8125 -0.1875 Z M 5.8125 0 "/></g></g></g><g fill="#000000" fill-opacity="1"><g transform="translate(450.734236, 269.044841)"><g><path d="M 4.59375 -7.453125 C 4.59375 -7.316406 4.546875 -7.195312 4.453125 -7.09375 C 4.359375 -7 4.238281 -6.953125 4.09375 -6.953125 C 3.894531 -6.953125 3.710938 -7.097656 3.546875 -7.390625 C 3.359375 -7.703125 3.148438 -7.859375 2.921875 -7.859375 C 2.460938 -7.859375 2.234375 -7.503906 2.234375 -6.796875 L 2.234375 -5.40625 L 3.703125 -5.40625 L 3.703125 -5.015625 L 2.25 -5.015625 L 2.25 -1.25 C 2.25 -0.800781 2.3125 -0.515625 2.4375 -0.390625 C 2.5625 -0.265625 2.867188 -0.195312 3.359375 -0.1875 L 3.359375 0 L 0.234375 0 L 0.234375 -0.1875 C 0.671875 -0.207031 0.945312 -0.28125 1.0625 -0.40625 C 1.175781 -0.53125 1.234375 -0.8125 1.234375 -1.25 L 1.234375 -5.015625 L 0.25 -5.015625 L 0.25 -5.40625 L 1.234375 -5.40625 C 1.242188 -5.882812 1.273438 -6.253906 1.328125 -6.515625 C 1.390625 -6.785156 1.5 -7.054688 1.65625 -7.328125 C 1.988281 -7.910156 2.550781 -8.203125 3.34375 -8.203125 C 3.707031 -8.203125 4.003906 -8.128906 4.234375 -7.984375 C 4.472656 -7.847656 4.59375 -7.671875 4.59375 -7.453125 Z M 4.59375 -7.453125 "/></g></g></g><g fill="#000000" fill-opacity="1"><g transform="translate(454.730249, 269.044841)"><g><path d="M 3.03125 0 L 0.1875 0 L 0.1875 -0.1875 C 0.601562 -0.207031 0.863281 -0.273438 0.96875 -0.390625 C 1.082031 -0.515625 1.140625 -0.789062 1.140625 -1.21875 L 1.140625 -4.015625 C 1.140625 -4.273438 1.109375 -4.457031 1.046875 -4.5625 C 0.984375 -4.675781 0.882812 -4.734375 0.75 -4.734375 C 0.613281 -4.734375 0.476562 -4.71875 0.34375 -4.6875 L 0.234375 -4.6875 L 0.234375 -4.859375 L 2.09375 -5.515625 L 2.140625 -5.484375 L 2.140625 -1.21875 C 2.140625 -0.789062 2.191406 -0.519531 2.296875 -0.40625 C 2.398438 -0.289062 2.644531 -0.21875 3.03125 -0.1875 Z M 2.25 -7.078125 C 2.25 -6.898438 2.191406 -6.753906 2.078125 -6.640625 C 1.960938 -6.523438 1.816406 -6.46875 1.640625 -6.46875 C 1.472656 -6.46875 1.328125 -6.523438 1.203125 -6.640625 C 1.085938 -6.753906 1.03125 -6.898438 1.03125 -7.078125 C 1.03125 -7.242188 1.085938 -7.382812 1.203125 -7.5 C 1.328125 -7.625 1.472656 -7.6875 1.640625 -7.6875 C 1.816406 -7.6875 1.960938 -7.625 2.078125 -7.5 C 2.191406 -7.382812 2.25 -7.242188 2.25 -7.078125 Z M 2.25 -7.078125 "/></g></g></g><g fill="#000000" fill-opacity="1"><g transform="translate(458.066259, 269.044841)"><g><path d="M 4.015625 -4.890625 C 4.015625 -4.710938 3.972656 -4.578125 3.890625 -4.484375 C 3.804688 -4.390625 3.691406 -4.34375 3.546875 -4.34375 C 3.410156 -4.34375 3.253906 -4.421875 3.078125 -4.578125 C 2.941406 -4.703125 2.835938 -4.765625 2.765625 -4.765625 C 2.597656 -4.765625 2.414062 -4.644531 2.21875 -4.40625 C 2.019531 -4.175781 1.921875 -3.96875 1.921875 -3.78125 L 1.921875 -1.078125 C 1.921875 -0.734375 1.988281 -0.5 2.125 -0.375 C 2.257812 -0.257812 2.53125 -0.195312 2.9375 -0.1875 L 2.9375 0 L 0.0625 0 L 0.0625 -0.1875 C 0.445312 -0.25 0.679688 -0.320312 0.765625 -0.40625 C 0.859375 -0.5 0.90625 -0.703125 0.90625 -1.015625 L 0.90625 -4.015625 C 0.90625 -4.273438 0.875 -4.457031 0.8125 -4.5625 C 0.757812 -4.675781 0.65625 -4.734375 0.5 -4.734375 C 0.375 -4.734375 0.234375 -4.71875 0.078125 -4.6875 L 0.078125 -4.875 C 0.722656 -5.082031 1.316406 -5.296875 1.859375 -5.515625 L 1.921875 -5.5 L 1.921875 -4.390625 C 2.210938 -4.816406 2.460938 -5.109375 2.671875 -5.265625 C 2.878906 -5.429688 3.109375 -5.515625 3.359375 -5.515625 C 3.566406 -5.515625 3.726562 -5.457031 3.84375 -5.34375 C 3.957031 -5.238281 4.015625 -5.085938 4.015625 -4.890625 Z M 4.015625 -4.890625 "/></g></g></g><g fill="#000000" fill-opacity="1"><g transform="translate(462.062272, 269.044841)"><g><path d="M 9.296875 0 L 6.671875 0 L 6.671875 -0.1875 C 7.023438 -0.21875 7.242188 -0.28125 7.328125 -0.375 C 7.421875 -0.476562 7.46875 -0.703125 7.46875 -1.046875 L 7.46875 -3.578125 C 7.46875 -4.066406 7.398438 -4.40625 7.265625 -4.59375 C 7.140625 -4.789062 6.90625 -4.890625 6.5625 -4.890625 C 6.03125 -4.890625 5.59375 -4.644531 5.25 -4.15625 L 5.25 -1.140625 C 5.25 -0.765625 5.304688 -0.507812 5.421875 -0.375 C 5.546875 -0.25 5.78125 -0.1875 6.125 -0.1875 L 6.125 0 L 3.4375 0 L 3.4375 -0.1875 C 3.78125 -0.207031 4 -0.269531 4.09375 -0.375 C 4.195312 -0.476562 4.25 -0.695312 4.25 -1.03125 L 4.25 -3.640625 C 4.25 -4.472656 3.984375 -4.890625 3.453125 -4.890625 C 3.242188 -4.890625 3.023438 -4.84375 2.796875 -4.75 C 2.566406 -4.664062 2.375 -4.554688 2.21875 -4.421875 L 2.046875 -4.1875 L 2.046875 -0.796875 C 2.046875 -0.566406 2.097656 -0.410156 2.203125 -0.328125 C 2.316406 -0.242188 2.535156 -0.195312 2.859375 -0.1875 L 2.859375 0 L 0.1875 0 L 0.1875 -0.1875 C 0.53125 -0.1875 0.753906 -0.242188 0.859375 -0.359375 C 0.972656 -0.472656 1.03125 -0.691406 1.03125 -1.015625 L 1.03125 -4.0625 C 1.03125 -4.34375 1 -4.539062 0.9375 -4.65625 C 0.882812 -4.769531 0.773438 -4.828125 0.609375 -4.828125 C 0.492188 -4.828125 0.367188 -4.8125 0.234375 -4.78125 L 0.234375 -4.984375 C 0.804688 -5.140625 1.363281 -5.316406 1.90625 -5.515625 L 1.984375 -5.5 L 1.984375 -4.59375 C 2.484375 -4.96875 2.851562 -5.210938 3.09375 -5.328125 C 3.332031 -5.453125 3.585938 -5.515625 3.859375 -5.515625 C 4.484375 -5.515625 4.90625 -5.179688 5.125 -4.515625 C 5.75 -5.179688 6.398438 -5.515625 7.078125 -5.515625 C 8.003906 -5.515625 8.46875 -4.804688 8.46875 -3.390625 L 8.46875 -0.90625 C 8.46875 -0.457031 8.640625 -0.222656 8.984375 -0.203125 L 9.296875 -0.1875 Z M 9.296875 0 "/></g></g></g><g fill="#000000" fill-opacity="1"><g transform="translate(471.398293, 269.044841)"><g><path d="M 5.296875 -0.484375 C 5.085938 -0.242188 4.90625 -0.0820312 4.75 0 C 4.601562 0.0820312 4.425781 0.125 4.21875 0.125 C 3.976562 0.125 3.796875 0.0546875 3.671875 -0.078125 C 3.554688 -0.210938 3.484375 -0.4375 3.453125 -0.75 C 2.765625 -0.164062 2.179688 0.125 1.703125 0.125 C 1.335938 0.125 1.035156 0.00390625 0.796875 -0.234375 C 0.554688 -0.472656 0.4375 -0.78125 0.4375 -1.15625 C 0.4375 -1.59375 0.582031 -1.941406 0.875 -2.203125 C 1.132812 -2.429688 1.394531 -2.609375 1.65625 -2.734375 C 1.914062 -2.867188 2.507812 -3.125 3.4375 -3.5 L 3.4375 -4.234375 C 3.4375 -4.898438 3.132812 -5.234375 2.53125 -5.234375 C 2.289062 -5.234375 2.085938 -5.175781 1.921875 -5.0625 C 1.753906 -4.945312 1.671875 -4.804688 1.671875 -4.640625 C 1.671875 -4.554688 1.679688 -4.460938 1.703125 -4.359375 C 1.722656 -4.242188 1.734375 -4.175781 1.734375 -4.15625 C 1.734375 -4.019531 1.675781 -3.898438 1.5625 -3.796875 C 1.457031 -3.703125 1.332031 -3.65625 1.1875 -3.65625 C 1.039062 -3.65625 0.914062 -3.707031 0.8125 -3.8125 C 0.71875 -3.914062 0.671875 -4.035156 0.671875 -4.171875 C 0.671875 -4.503906 0.832031 -4.804688 1.15625 -5.078125 C 1.519531 -5.367188 2.03125 -5.515625 2.6875 -5.515625 C 3.425781 -5.515625 3.925781 -5.285156 4.1875 -4.828125 C 4.34375 -4.578125 4.421875 -4.164062 4.421875 -3.59375 L 4.421875 -1.265625 C 4.421875 -0.992188 4.445312 -0.804688 4.5 -0.703125 C 4.550781 -0.609375 4.644531 -0.5625 4.78125 -0.5625 C 4.945312 -0.5625 5.117188 -0.640625 5.296875 -0.796875 Z M 3.4375 -1.46875 L 3.4375 -3.21875 C 2.71875 -2.945312 2.210938 -2.6875 1.921875 -2.4375 C 1.640625 -2.195312 1.5 -1.898438 1.5 -1.546875 L 1.5 -1.5 C 1.5 -1.238281 1.570312 -1.019531 1.71875 -0.84375 C 1.863281 -0.664062 2.039062 -0.578125 2.25 -0.578125 C 2.53125 -0.578125 2.820312 -0.664062 3.125 -0.84375 C 3.257812 -0.914062 3.34375 -0.992188 3.375 -1.078125 C 3.414062 -1.160156 3.4375 -1.289062 3.4375 -1.46875 Z M 3.4375 -1.46875 "/></g></g></g><g fill="#000000" fill-opacity="1"><g transform="translate(476.726307, 269.044841)"><g><path d="M 3.34375 -0.796875 C 2.957031 -0.179688 2.472656 0.125 1.890625 0.125 C 1.191406 0.125 0.84375 -0.382812 0.84375 -1.40625 L 0.84375 -5.015625 L 0.203125 -5.015625 C 0.171875 -5.035156 0.15625 -5.0625 0.15625 -5.09375 C 0.15625 -5.164062 0.222656 -5.242188 0.359375 -5.328125 C 0.691406 -5.515625 1.082031 -5.941406 1.53125 -6.609375 C 1.632812 -6.753906 1.710938 -6.867188 1.765625 -6.953125 C 1.816406 -6.953125 1.84375 -6.898438 1.84375 -6.796875 L 1.84375 -5.40625 L 3.0625 -5.40625 L 3.0625 -5.015625 L 1.84375 -5.015625 L 1.84375 -1.578125 C 1.84375 -1.203125 1.890625 -0.925781 1.984375 -0.75 C 2.085938 -0.582031 2.25 -0.5 2.46875 -0.5 C 2.707031 -0.5 2.945312 -0.640625 3.1875 -0.921875 Z M 3.34375 -0.796875 "/></g></g></g><g fill="#000000" fill-opacity="1"><g transform="translate(480.062317, 269.044841)"><g><path d="M 3.03125 0 L 0.1875 0 L 0.1875 -0.1875 C 0.601562 -0.207031 0.863281 -0.273438 0.96875 -0.390625 C 1.082031 -0.515625 1.140625 -0.789062 1.140625 -1.21875 L 1.140625 -4.015625 C 1.140625 -4.273438 1.109375 -4.457031 1.046875 -4.5625 C 0.984375 -4.675781 0.882812 -4.734375 0.75 -4.734375 C 0.613281 -4.734375 0.476562 -4.71875 0.34375 -4.6875 L 0.234375 -4.6875 L 0.234375 -4.859375 L 2.09375 -5.515625 L 2.140625 -5.484375 L 2.140625 -1.21875 C 2.140625 -0.789062 2.191406 -0.519531 2.296875 -0.40625 C 2.398438 -0.289062 2.644531 -0.21875 3.03125 -0.1875 Z M 2.25 -7.078125 C 2.25 -6.898438 2.191406 -6.753906 2.078125 -6.640625 C 1.960938 -6.523438 1.816406 -6.46875 1.640625 -6.46875 C 1.472656 -6.46875 1.328125 -6.523438 1.203125 -6.640625 C 1.085938 -6.753906 1.03125 -6.898438 1.03125 -7.078125 C 1.03125 -7.242188 1.085938 -7.382812 1.203125 -7.5 C 1.328125 -7.625 1.472656 -7.6875 1.640625 -7.6875 C 1.816406 -7.6875 1.960938 -7.625 2.078125 -7.5 C 2.191406 -7.382812 2.25 -7.242188 2.25 -7.078125 Z M 2.25 -7.078125 "/></g></g></g><g fill="#000000" fill-opacity="1"><g transform="translate(483.398326, 269.044841)"><g><path d="M 5.640625 -2.8125 C 5.640625 -1.976562 5.382812 -1.28125 4.875 -0.71875 C 4.363281 -0.15625 3.726562 0.125 2.96875 0.125 C 2.21875 0.125 1.59375 -0.144531 1.09375 -0.6875 C 0.59375 -1.226562 0.34375 -1.90625 0.34375 -2.71875 C 0.34375 -3.539062 0.585938 -4.210938 1.078125 -4.734375 C 1.578125 -5.253906 2.21875 -5.515625 3 -5.515625 C 3.769531 -5.515625 4.398438 -5.257812 4.890625 -4.75 C 5.390625 -4.238281 5.640625 -3.59375 5.640625 -2.8125 Z M 4.5625 -2.390625 C 4.5625 -3.210938 4.398438 -3.882812 4.078125 -4.40625 C 3.753906 -4.925781 3.34375 -5.1875 2.84375 -5.1875 C 2.414062 -5.1875 2.070312 -5.015625 1.8125 -4.671875 C 1.550781 -4.328125 1.421875 -3.867188 1.421875 -3.296875 C 1.421875 -2.410156 1.597656 -1.640625 1.953125 -0.984375 C 2.222656 -0.472656 2.613281 -0.21875 3.125 -0.21875 C 3.570312 -0.21875 3.921875 -0.410156 4.171875 -0.796875 C 4.429688 -1.179688 4.5625 -1.710938 4.5625 -2.390625 Z M 4.5625 -2.390625 "/></g></g></g><g fill="#000000" fill-opacity="1"><g transform="translate(489.398337, 269.044841)"><g><path d="M 5.8125 0 L 3.328125 0 L 3.328125 -0.1875 C 3.628906 -0.207031 3.828125 -0.285156 3.921875 -0.421875 C 4.023438 -0.554688 4.078125 -0.8125 4.078125 -1.1875 L 4.078125 -3.703125 C 4.078125 -4.472656 3.785156 -4.859375 3.203125 -4.859375 C 3.003906 -4.859375 2.820312 -4.8125 2.65625 -4.71875 C 2.488281 -4.625 2.257812 -4.441406 1.96875 -4.171875 L 1.96875 -0.796875 C 1.96875 -0.585938 2.019531 -0.4375 2.125 -0.34375 C 2.238281 -0.257812 2.453125 -0.207031 2.765625 -0.1875 L 2.765625 0 L 0.21875 0 L 0.21875 -0.1875 C 0.519531 -0.207031 0.71875 -0.273438 0.8125 -0.390625 C 0.90625 -0.503906 0.953125 -0.734375 0.953125 -1.078125 L 0.953125 -4.0625 C 0.953125 -4.351562 0.921875 -4.550781 0.859375 -4.65625 C 0.796875 -4.769531 0.679688 -4.828125 0.515625 -4.828125 C 0.359375 -4.828125 0.25 -4.8125 0.1875 -4.78125 L 0.1875 -4.984375 C 0.78125 -5.160156 1.332031 -5.335938 1.84375 -5.515625 L 1.9375 -5.5 L 1.9375 -4.546875 C 2.34375 -4.929688 2.660156 -5.1875 2.890625 -5.3125 C 3.128906 -5.445312 3.390625 -5.515625 3.671875 -5.515625 C 4.109375 -5.515625 4.453125 -5.359375 4.703125 -5.046875 C 4.960938 -4.734375 5.09375 -4.289062 5.09375 -3.71875 L 5.09375 -0.96875 C 5.09375 -0.675781 5.140625 -0.476562 5.234375 -0.375 C 5.328125 -0.28125 5.519531 -0.21875 5.8125 -0.1875 Z M 5.8125 0 "/></g></g></g><g fill="#000000" fill-opacity="1"><g transform="translate(305.260831, 222.450919)"><g><path d="M -2.03125 -7.15625 L 0 -6.625 L 0 -0.140625 L -0.234375 -0.140625 C -0.265625 -0.578125 -0.34375 -0.859375 -0.46875 -0.984375 C -0.601562 -1.117188 -0.882812 -1.1875 -1.3125 -1.1875 L -6.640625 -1.1875 C -7.054688 -1.1875 -7.328125 -1.125 -7.453125 -1 C -7.585938 -0.875 -7.675781 -0.585938 -7.71875 -0.140625 L -7.9375 -0.140625 L -7.9375 -6.515625 L -6.234375 -6.546875 L -6.234375 -6.25 C -6.765625 -6.144531 -7.101562 -5.984375 -7.25 -5.765625 C -7.40625 -5.554688 -7.484375 -5.109375 -7.484375 -4.421875 L -7.484375 -2.8125 C -7.484375 -2.644531 -7.457031 -2.535156 -7.40625 -2.484375 C -7.351562 -2.429688 -7.242188 -2.40625 -7.078125 -2.40625 L -4.421875 -2.40625 L -4.421875 -4.265625 C -4.421875 -4.742188 -4.488281 -5.0625 -4.625 -5.21875 C -4.757812 -5.375 -5.070312 -5.492188 -5.5625 -5.578125 L -5.5625 -5.859375 L -2.765625 -5.859375 L -2.765625 -5.578125 C -3.265625 -5.492188 -3.582031 -5.375 -3.71875 -5.21875 C -3.851562 -5.070312 -3.921875 -4.753906 -3.921875 -4.265625 L -3.921875 -2.40625 L -0.953125 -2.40625 C -0.742188 -2.40625 -0.617188 -2.441406 -0.578125 -2.515625 C -0.484375 -2.617188 -0.4375 -3.003906 -0.4375 -3.671875 L -0.4375 -4 C -0.4375 -4.851562 -0.539062 -5.460938 -0.75 -5.828125 C -0.957031 -6.203125 -1.382812 -6.535156 -2.03125 -6.828125 Z M -2.03125 -7.15625 "/></g></g></g><g fill="#000000" fill-opacity="1"><g transform="translate(305.260831, 215.118908)"><g><path d="M 0 -5.75 L 0 -3.34375 L -0.1875 -3.34375 C -0.195312 -3.539062 -0.21875 -3.664062 -0.25 -3.71875 C -0.289062 -3.78125 -0.363281 -3.8125 -0.46875 -3.8125 C -0.539062 -3.8125 -0.613281 -3.789062 -0.6875 -3.75 L -2.359375 -2.65625 L -0.890625 -1.703125 C -0.640625 -1.546875 -0.472656 -1.46875 -0.390625 -1.46875 C -0.253906 -1.46875 -0.1875 -1.625 -0.1875 -1.9375 L 0 -1.9375 L 0 -0.203125 L -0.1875 -0.203125 C -0.195312 -0.398438 -0.238281 -0.546875 -0.3125 -0.640625 C -0.382812 -0.742188 -0.546875 -0.890625 -0.796875 -1.078125 L -2.765625 -2.453125 L -4.5 -1.3125 C -4.78125 -1.132812 -4.96875 -0.976562 -5.0625 -0.84375 C -5.164062 -0.71875 -5.21875 -0.566406 -5.21875 -0.390625 L -5.21875 -0.28125 L -5.40625 -0.28125 L -5.40625 -2.765625 L -5.21875 -2.765625 C -5.207031 -2.421875 -5.117188 -2.25 -4.953125 -2.25 C -4.796875 -2.25 -4.441406 -2.4375 -3.890625 -2.8125 L -3.640625 -2.96875 C -3.929688 -3.164062 -4.109375 -3.289062 -4.171875 -3.34375 C -4.546875 -3.632812 -4.804688 -3.78125 -4.953125 -3.78125 C -5.109375 -3.78125 -5.195312 -3.617188 -5.21875 -3.296875 L -5.40625 -3.296875 L -5.40625 -5.203125 L -5.21875 -5.203125 C -5.207031 -4.785156 -5.03125 -4.457031 -4.6875 -4.21875 L -3.25 -3.234375 L -0.90625 -4.765625 C -0.625 -4.953125 -0.429688 -5.113281 -0.328125 -5.25 C -0.234375 -5.394531 -0.1875 -5.5625 -0.1875 -5.75 Z M 0 -5.75 "/></g></g></g><g fill="#000000" fill-opacity="1"><g transform="translate(305.260831, 209.118897)"><g><path d="M -0.796875 -3.34375 C -0.179688 -2.957031 0.125 -2.472656 0.125 -1.890625 C 0.125 -1.191406 -0.382812 -0.84375 -1.40625 -0.84375 L -5.015625 -0.84375 L -5.015625 -0.203125 C -5.035156 -0.171875 -5.0625 -0.15625 -5.09375 -0.15625 C -5.164062 -0.15625 -5.242188 -0.222656 -5.328125 -0.359375 C -5.515625 -0.691406 -5.941406 -1.082031 -6.609375 -1.53125 C -6.753906 -1.632812 -6.867188 -1.710938 -6.953125 -1.765625 C -6.953125 -1.816406 -6.898438 -1.84375 -6.796875 -1.84375 L -5.40625 -1.84375 L -5.40625 -3.0625 L -5.015625 -3.0625 L -5.015625 -1.84375 L -1.578125 -1.84375 C -1.203125 -1.84375 -0.925781 -1.890625 -0.75 -1.984375 C -0.582031 -2.085938 -0.5 -2.25 -0.5 -2.46875 C -0.5 -2.707031 -0.640625 -2.945312 -0.921875 -3.1875 Z M -0.796875 -3.34375 "/></g></g></g><g fill="#000000" fill-opacity="1"><g transform="translate(305.260831, 205.782887)"><g><path d="M -4.890625 -4.015625 C -4.710938 -4.015625 -4.578125 -3.972656 -4.484375 -3.890625 C -4.390625 -3.804688 -4.34375 -3.691406 -4.34375 -3.546875 C -4.34375 -3.410156 -4.421875 -3.253906 -4.578125 -3.078125 C -4.703125 -2.941406 -4.765625 -2.835938 -4.765625 -2.765625 C -4.765625 -2.597656 -4.644531 -2.414062 -4.40625 -2.21875 C -4.175781 -2.019531 -3.96875 -1.921875 -3.78125 -1.921875 L -1.078125 -1.921875 C -0.734375 -1.921875 -0.5 -1.988281 -0.375 -2.125 C -0.257812 -2.257812 -0.195312 -2.53125 -0.1875 -2.9375 L 0 -2.9375 L 0 -0.0625 L -0.1875 -0.0625 C -0.25 -0.445312 -0.320312 -0.679688 -0.40625 -0.765625 C -0.5 -0.859375 -0.703125 -0.90625 -1.015625 -0.90625 L -4.015625 -0.90625 C -4.273438 -0.90625 -4.457031 -0.875 -4.5625 -0.8125 C -4.675781 -0.757812 -4.734375 -0.65625 -4.734375 -0.5 C -4.734375 -0.375 -4.71875 -0.234375 -4.6875 -0.078125 L -4.875 -0.078125 C -5.082031 -0.722656 -5.296875 -1.316406 -5.515625 -1.859375 L -5.5 -1.921875 L -4.390625 -1.921875 C -4.816406 -2.210938 -5.109375 -2.460938 -5.265625 -2.671875 C -5.429688 -2.878906 -5.515625 -3.109375 -5.515625 -3.359375 C -5.515625 -3.566406 -5.457031 -3.726562 -5.34375 -3.84375 C -5.238281 -3.957031 -5.085938 -4.015625 -4.890625 -4.015625 Z M -4.890625 -4.015625 "/></g></g></g><g fill="#000000" fill-opacity="1"><g transform="translate(305.260831, 201.786873)"><g><path d="M -0.484375 -5.296875 C -0.242188 -5.085938 -0.0820312 -4.90625 0 -4.75 C 0.0820312 -4.601562 0.125 -4.425781 0.125 -4.21875 C 0.125 -3.976562 0.0546875 -3.796875 -0.078125 -3.671875 C -0.210938 -3.554688 -0.4375 -3.484375 -0.75 -3.453125 C -0.164062 -2.765625 0.125 -2.179688 0.125 -1.703125 C 0.125 -1.335938 0.00390625 -1.035156 -0.234375 -0.796875 C -0.472656 -0.554688 -0.78125 -0.4375 -1.15625 -0.4375 C -1.59375 -0.4375 -1.941406 -0.582031 -2.203125 -0.875 C -2.429688 -1.132812 -2.609375 -1.394531 -2.734375 -1.65625 C -2.867188 -1.914062 -3.125 -2.507812 -3.5 -3.4375 L -4.234375 -3.4375 C -4.898438 -3.4375 -5.234375 -3.132812 -5.234375 -2.53125 C -5.234375 -2.289062 -5.175781 -2.085938 -5.0625 -1.921875 C -4.945312 -1.753906 -4.804688 -1.671875 -4.640625 -1.671875 C -4.554688 -1.671875 -4.460938 -1.679688 -4.359375 -1.703125 C -4.242188 -1.722656 -4.175781 -1.734375 -4.15625 -1.734375 C -4.019531 -1.734375 -3.898438 -1.675781 -3.796875 -1.5625 C -3.703125 -1.457031 -3.65625 -1.332031 -3.65625 -1.1875 C -3.65625 -1.039062 -3.707031 -0.914062 -3.8125 -0.8125 C -3.914062 -0.71875 -4.035156 -0.671875 -4.171875 -0.671875 C -4.503906 -0.671875 -4.804688 -0.832031 -5.078125 -1.15625 C -5.367188 -1.519531 -5.515625 -2.03125 -5.515625 -2.6875 C -5.515625 -3.425781 -5.285156 -3.925781 -4.828125 -4.1875 C -4.578125 -4.34375 -4.164062 -4.421875 -3.59375 -4.421875 L -1.265625 -4.421875 C -0.992188 -4.421875 -0.804688 -4.445312 -0.703125 -4.5 C -0.609375 -4.550781 -0.5625 -4.644531 -0.5625 -4.78125 C -0.5625 -4.945312 -0.640625 -5.117188 -0.796875 -5.296875 Z M -1.46875 -3.4375 L -3.21875 -3.4375 C -2.945312 -2.71875 -2.6875 -2.210938 -2.4375 -1.921875 C -2.195312 -1.640625 -1.898438 -1.5 -1.546875 -1.5 L -1.5 -1.5 C -1.238281 -1.5 -1.019531 -1.570312 -0.84375 -1.71875 C -0.664062 -1.863281 -0.578125 -2.039062 -0.578125 -2.25 C -0.578125 -2.53125 -0.664062 -2.820312 -0.84375 -3.125 C -0.914062 -3.257812 -0.992188 -3.34375 -1.078125 -3.375 C -1.160156 -3.414062 -1.289062 -3.4375 -1.46875 -3.4375 Z M -1.46875 -3.4375 "/></g></g></g><g fill="#000000" fill-opacity="1"><g transform="translate(305.260831, 196.458859)"><g><path d="M -1.765625 -4.9375 C -1.085938 -4.59375 -0.628906 -4.265625 -0.390625 -3.953125 C -0.046875 -3.546875 0.125 -3.085938 0.125 -2.578125 C 0.125 -1.910156 -0.125 -1.363281 -0.625 -0.9375 C -1.125 -0.507812 -1.765625 -0.296875 -2.546875 -0.296875 C -3.554688 -0.296875 -4.34375 -0.632812 -4.90625 -1.3125 C -5.3125 -1.800781 -5.515625 -2.335938 -5.515625 -2.921875 C -5.515625 -3.429688 -5.390625 -3.867188 -5.140625 -4.234375 C -4.898438 -4.597656 -4.613281 -4.78125 -4.28125 -4.78125 C -4.144531 -4.78125 -4.023438 -4.722656 -3.921875 -4.609375 C -3.828125 -4.492188 -3.78125 -4.363281 -3.78125 -4.21875 C -3.78125 -3.9375 -3.960938 -3.742188 -4.328125 -3.640625 L -4.59375 -3.5625 C -4.820312 -3.5 -4.972656 -3.421875 -5.046875 -3.328125 C -5.128906 -3.234375 -5.171875 -3.078125 -5.171875 -2.859375 C -5.171875 -2.367188 -4.976562 -1.972656 -4.59375 -1.671875 C -4.207031 -1.367188 -3.703125 -1.21875 -3.078125 -1.21875 C -2.390625 -1.21875 -1.828125 -1.390625 -1.390625 -1.734375 C -0.960938 -2.078125 -0.75 -2.523438 -0.75 -3.078125 C -0.75 -3.421875 -0.828125 -3.71875 -0.984375 -3.96875 C -1.148438 -4.21875 -1.445312 -4.488281 -1.875 -4.78125 Z M -1.765625 -4.9375 "/></g></g></g><g fill="#000000" fill-opacity="1"><g transform="translate(305.260831, 191.130846)"><g><path d="M -0.796875 -3.34375 C -0.179688 -2.957031 0.125 -2.472656 0.125 -1.890625 C 0.125 -1.191406 -0.382812 -0.84375 -1.40625 -0.84375 L -5.015625 -0.84375 L -5.015625 -0.203125 C -5.035156 -0.171875 -5.0625 -0.15625 -5.09375 -0.15625 C -5.164062 -0.15625 -5.242188 -0.222656 -5.328125 -0.359375 C -5.515625 -0.691406 -5.941406 -1.082031 -6.609375 -1.53125 C -6.753906 -1.632812 -6.867188 -1.710938 -6.953125 -1.765625 C -6.953125 -1.816406 -6.898438 -1.84375 -6.796875 -1.84375 L -5.40625 -1.84375 L -5.40625 -3.0625 L -5.015625 -3.0625 L -5.015625 -1.84375 L -1.578125 -1.84375 C -1.203125 -1.84375 -0.925781 -1.890625 -0.75 -1.984375 C -0.582031 -2.085938 -0.5 -2.25 -0.5 -2.46875 C -0.5 -2.707031 -0.640625 -2.945312 -0.921875 -3.1875 Z M -0.796875 -3.34375 "/></g></g></g><g fill="#000000" fill-opacity="1"><g transform="translate(305.260831, 187.794836)"><g><path d="M 0 -3.03125 L 0 -0.1875 L -0.1875 -0.1875 C -0.207031 -0.601562 -0.273438 -0.863281 -0.390625 -0.96875 C -0.515625 -1.082031 -0.789062 -1.140625 -1.21875 -1.140625 L -4.015625 -1.140625 C -4.273438 -1.140625 -4.457031 -1.109375 -4.5625 -1.046875 C -4.675781 -0.984375 -4.734375 -0.882812 -4.734375 -0.75 C -4.734375 -0.613281 -4.71875 -0.476562 -4.6875 -0.34375 L -4.6875 -0.234375 L -4.859375 -0.234375 L -5.515625 -2.09375 L -5.484375 -2.140625 L -1.21875 -2.140625 C -0.789062 -2.140625 -0.519531 -2.191406 -0.40625 -2.296875 C -0.289062 -2.398438 -0.21875 -2.644531 -0.1875 -3.03125 Z M -7.078125 -2.25 C -6.898438 -2.25 -6.753906 -2.191406 -6.640625 -2.078125 C -6.523438 -1.960938 -6.46875 -1.816406 -6.46875 -1.640625 C -6.46875 -1.472656 -6.523438 -1.328125 -6.640625 -1.203125 C -6.753906 -1.085938 -6.898438 -1.03125 -7.078125 -1.03125 C -7.242188 -1.03125 -7.382812 -1.085938 -7.5 -1.203125 C -7.625 -1.328125 -7.6875 -1.472656 -7.6875 -1.640625 C -7.6875 -1.816406 -7.625 -1.960938 -7.5 -2.078125 C -7.382812 -2.191406 -7.242188 -2.25 -7.078125 -2.25 Z M -7.078125 -2.25 "/></g></g></g><g fill="#000000" fill-opacity="1"><g transform="translate(305.260831, 184.458826)"><g><path d="M -2.8125 -5.640625 C -1.976562 -5.640625 -1.28125 -5.382812 -0.71875 -4.875 C -0.15625 -4.363281 0.125 -3.726562 0.125 -2.96875 C 0.125 -2.21875 -0.144531 -1.59375 -0.6875 -1.09375 C -1.226562 -0.59375 -1.90625 -0.34375 -2.71875 -0.34375 C -3.539062 -0.34375 -4.210938 -0.585938 -4.734375 -1.078125 C -5.253906 -1.578125 -5.515625 -2.21875 -5.515625 -3 C -5.515625 -3.769531 -5.257812 -4.398438 -4.75 -4.890625 C -4.238281 -5.390625 -3.59375 -5.640625 -2.8125 -5.640625 Z M -2.390625 -4.5625 C -3.210938 -4.5625 -3.882812 -4.398438 -4.40625 -4.078125 C -4.925781 -3.753906 -5.1875 -3.34375 -5.1875 -2.84375 C -5.1875 -2.414062 -5.015625 -2.070312 -4.671875 -1.8125 C -4.328125 -1.550781 -3.867188 -1.421875 -3.296875 -1.421875 C -2.410156 -1.421875 -1.640625 -1.597656 -0.984375 -1.953125 C -0.472656 -2.222656 -0.21875 -2.613281 -0.21875 -3.125 C -0.21875 -3.570312 -0.410156 -3.921875 -0.796875 -4.171875 C -1.179688 -4.429688 -1.710938 -4.5625 -2.390625 -4.5625 Z M -2.390625 -4.5625 "/></g></g></g><g fill="#000000" fill-opacity="1"><g transform="translate(305.260831, 178.458815)"><g><path d="M 0 -5.8125 L 0 -3.328125 L -0.1875 -3.328125 C -0.207031 -3.628906 -0.285156 -3.828125 -0.421875 -3.921875 C -0.554688 -4.023438 -0.8125 -4.078125 -1.1875 -4.078125 L -3.703125 -4.078125 C -4.472656 -4.078125 -4.859375 -3.785156 -4.859375 -3.203125 C -4.859375 -3.003906 -4.8125 -2.820312 -4.71875 -2.65625 C -4.625 -2.488281 -4.441406 -2.257812 -4.171875 -1.96875 L -0.796875 -1.96875 C -0.585938 -1.96875 -0.4375 -2.019531 -0.34375 -2.125 C -0.257812 -2.238281 -0.207031 -2.453125 -0.1875 -2.765625 L 0 -2.765625 L 0 -0.21875 L -0.1875 -0.21875 C -0.207031 -0.519531 -0.273438 -0.71875 -0.390625 -0.8125 C -0.503906 -0.90625 -0.734375 -0.953125 -1.078125 -0.953125 L -4.0625 -0.953125 C -4.351562 -0.953125 -4.550781 -0.921875 -4.65625 -0.859375 C -4.769531 -0.796875 -4.828125 -0.679688 -4.828125 -0.515625 C -4.828125 -0.359375 -4.8125 -0.25 -4.78125 -0.1875 L -4.984375 -0.1875 C -5.160156 -0.78125 -5.335938 -1.332031 -5.515625 -1.84375 L -5.5 -1.9375 L -4.546875 -1.9375 C -4.929688 -2.34375 -5.1875 -2.660156 -5.3125 -2.890625 C -5.445312 -3.128906 -5.515625 -3.390625 -5.515625 -3.671875 C -5.515625 -4.109375 -5.359375 -4.453125 -5.046875 -4.703125 C -4.734375 -4.960938 -4.289062 -5.09375 -3.71875 -5.09375 L -0.96875 -5.09375 C -0.675781 -5.09375 -0.476562 -5.140625 -0.375 -5.234375 C -0.28125 -5.328125 -0.21875 -5.519531 -0.1875 -5.8125 Z M 0 -5.8125 "/></g></g></g></svg>