<svg xmlns="http://www.w3.org/2000/svg" xmlns:xlink="http://www.w3.org/1999/xlink" width="972" zoomAndPan="magnify" viewBox="0 0 729 320.999992" height="428" preserveAspectRatio="xMidYMid meet" version="1.0"><defs><g/><clipPath id="8df988550d"><path d="M 278.222656 75.164062 L 446.222656 75.164062 L 446.222656 243.164062 L 278.222656 243.164062 Z M 278.222656 75.164062 " clip-rule="nonzero"/></clipPath><clipPath id="94f95480ef"><path d="M 223 82 L 231.03125 82 L 231.03125 90 L 223 90 Z M 223 82 " clip-rule="nonzero"/></clipPath><clipPath id="5243b7f718"><path d="M 75.03125 176 L 224 176 L 224 184 L 75.03125 184 Z M 75.03125 176 " clip-rule="nonzero"/></clipPath><clipPath id="49ba6eaff4"><path d="M 75.03125 89 L 224 89 L 224 202 L 75.03125 202 Z M 75.03125 89 " clip-rule="nonzero"/></clipPath><clipPath id="78ebd4dfca"><path d="M 122 209 L 177 209 L 177 245.414062 L 122 245.414062 Z M 122 209 " clip-rule="nonzero"/></clipPath><clipPath id="1dec788990"><path d="M 75.03125 230 L 130 230 L 130 239 L 75.03125 239 Z M 75.03125 230 " clip-rule="nonzero"/></clipPath><clipPath id="8655e67a1b"><path d="M 75.03125 205 L 94 205 L 94 224 L 75.03125 224 Z M 75.03125 205 " clip-rule="nonzero"/></clipPath><clipPath id="b162d9269e"><path d="M 147 75.164062 L 170 75.164062 L 170 97 L 147 97 Z M 147 75.164062 " clip-rule="nonzero"/></clipPath></defs><g clip-path="url(#8df988550d)"><path fill="#040606" d="M 435.023438 237.5625 L 289.421875 237.5625 C 286.335938 237.5625 283.820312 235.046875 283.820312 231.964844 L 283.820312 103.164062 L 440.621094 103.164062 L 440.621094 231.964844 C 440.621094 235.046875 438.105469 237.5625 435.023438 237.5625 Z M 289.421875 80.765625 L 435.023438 80.765625 C 438.105469 80.765625 440.621094 83.28125 440.621094 86.363281 L 440.621094 97.5625 L 283.820312 97.5625 L 283.820312 86.363281 C 283.820312 83.28125 286.335938 80.765625 289.421875 80.765625 Z M 435.023438 75.164062 L 289.421875 75.164062 C 283.242188 75.164062 278.222656 80.183594 278.222656 86.363281 L 278.222656 231.964844 C 278.222656 238.144531 283.242188 243.164062 289.421875 243.164062 L 435.023438 243.164062 C 441.203125 243.164062 446.222656 238.144531 446.222656 231.964844 L 446.222656 86.363281 C 446.222656 80.183594 441.203125 75.164062 435.023438 75.164062 " fill-opacity="1" fill-rule="nonzero"/></g><path fill="#040606" d="M 292.222656 91.964844 L 295.023438 91.964844 C 296.5625 91.964844 297.820312 90.707031 297.820312 89.164062 C 297.820312 87.621094 296.5625 86.363281 295.023438 86.363281 L 292.222656 86.363281 C 290.679688 86.363281 289.421875 87.621094 289.421875 89.164062 C 289.421875 90.707031 290.679688 91.964844 292.222656 91.964844 " fill-opacity="1" fill-rule="nonzero"/><path fill="#040606" d="M 306.222656 91.964844 L 309.023438 91.964844 C 310.5625 91.964844 311.820312 90.707031 311.820312 89.164062 C 311.820312 87.621094 310.5625 86.363281 309.023438 86.363281 L 306.222656 86.363281 C 304.679688 86.363281 303.421875 87.621094 303.421875 89.164062 C 303.421875 90.707031 304.679688 91.964844 306.222656 91.964844 " fill-opacity="1" fill-rule="nonzero"/><path fill="#040606" d="M 320.222656 91.964844 L 323.023438 91.964844 C 324.5625 91.964844 325.820312 90.707031 325.820312 89.164062 C 325.820312 87.621094 324.5625 86.363281 323.023438 86.363281 L 320.222656 86.363281 C 318.679688 86.363281 317.421875 87.621094 317.421875 89.164062 C 317.421875 90.707031 318.679688 91.964844 320.222656 91.964844 " fill-opacity="1" fill-rule="nonzero"/><path fill="#040606" d="M 415.421875 91.964844 L 432.222656 91.964844 C 433.765625 91.964844 435.023438 90.707031 435.023438 89.164062 C 435.023438 87.621094 433.765625 86.363281 432.222656 86.363281 L 415.421875 86.363281 C 413.878906 86.363281 412.621094 87.621094 412.621094 89.164062 C 412.621094 90.707031 413.878906 91.964844 415.421875 91.964844 " fill-opacity="1" fill-rule="nonzero"/><path fill="#040606" d="M 418.222656 223.5625 L 395.820312 223.5625 C 394.28125 223.5625 393.023438 222.304688 393.023438 220.765625 C 393.023438 219.222656 394.28125 217.964844 395.820312 217.964844 L 418.222656 217.964844 C 419.765625 217.964844 421.023438 219.222656 421.023438 220.765625 C 421.023438 222.304688 419.765625 223.5625 418.222656 223.5625 Z M 418.222656 212.363281 L 395.820312 212.363281 C 391.183594 212.363281 387.421875 216.125 387.421875 220.765625 C 387.421875 225.402344 391.183594 229.164062 395.820312 229.164062 L 418.222656 229.164062 C 422.859375 229.164062 426.621094 225.402344 426.621094 220.765625 C 426.621094 216.125 422.859375 212.363281 418.222656 212.363281 " fill-opacity="1" fill-rule="nonzero"/><path fill="#040606" d="M 423.820312 195.5625 L 398.621094 195.5625 L 398.609375 189.964844 L 423.820312 189.964844 Z M 423.820312 184.363281 L 398.621094 184.363281 C 395.539062 184.363281 393.023438 186.878906 393.023438 189.964844 L 393.023438 195.5625 C 393.023438 198.648438 395.539062 201.164062 398.621094 201.164062 L 423.820312 201.164062 C 426.90625 201.164062 429.421875 198.648438 429.421875 195.5625 L 429.421875 189.964844 C 429.421875 186.878906 426.90625 184.363281 423.820312 184.363281 " fill-opacity="1" fill-rule="nonzero"/><path fill="#040606" d="M 381.820312 195.5625 L 300.621094 195.5625 L 300.621094 189.964844 L 381.820312 189.964844 Z M 387.421875 189.964844 C 387.421875 186.878906 384.90625 184.363281 381.820312 184.363281 L 300.621094 184.363281 C 297.539062 184.363281 295.023438 186.878906 295.023438 189.964844 L 295.023438 195.5625 C 295.023438 198.648438 297.539062 201.164062 300.621094 201.164062 L 381.820312 201.164062 C 384.90625 201.164062 387.421875 198.648438 387.421875 195.5625 L 387.421875 189.964844 " fill-opacity="1" fill-rule="nonzero"/><path fill="#040606" d="M 300.621094 145.164062 L 337.023438 145.164062 L 337.023438 150.765625 L 300.621094 150.765625 Z M 300.621094 156.363281 L 337.023438 156.363281 C 340.105469 156.363281 342.621094 153.847656 342.621094 150.765625 L 342.621094 145.164062 C 342.621094 142.078125 340.105469 139.5625 337.023438 139.5625 L 300.621094 139.5625 C 297.539062 139.5625 295.023438 142.078125 295.023438 145.164062 L 295.023438 150.765625 C 295.023438 153.847656 297.539062 156.363281 300.621094 156.363281 " fill-opacity="1" fill-rule="nonzero"/><path fill="#040606" d="M 423.820312 150.765625 L 353.820312 150.765625 L 353.820312 145.164062 L 423.820312 145.164062 Z M 423.820312 139.5625 L 353.820312 139.5625 C 350.738281 139.5625 348.222656 142.078125 348.222656 145.164062 L 348.222656 150.765625 C 348.222656 153.847656 350.738281 156.363281 353.820312 156.363281 L 423.820312 156.363281 C 426.90625 156.363281 429.421875 153.847656 429.421875 150.765625 L 429.421875 145.164062 C 429.421875 142.078125 426.90625 139.5625 423.820312 139.5625 " fill-opacity="1" fill-rule="nonzero"/><path fill="#040606" d="M 423.820312 128.363281 L 370.621094 128.363281 L 370.621094 122.765625 L 423.820312 122.765625 Z M 423.820312 117.164062 L 370.621094 117.164062 C 367.539062 117.164062 365.023438 119.679688 365.023438 122.765625 L 365.023438 128.363281 C 365.023438 131.449219 367.539062 133.964844 370.621094 133.964844 L 423.820312 133.964844 C 426.90625 133.964844 429.421875 131.449219 429.421875 128.363281 L 429.421875 122.765625 C 429.421875 119.679688 426.90625 117.164062 423.820312 117.164062 " fill-opacity="1" fill-rule="nonzero"/><path fill="#040606" d="M 300.621094 122.765625 L 353.820312 122.765625 L 353.820312 128.363281 L 300.621094 128.363281 Z M 300.621094 133.964844 L 353.820312 133.964844 C 356.90625 133.964844 359.421875 131.449219 359.421875 128.363281 L 359.421875 122.765625 C 359.421875 119.679688 356.90625 117.164062 353.820312 117.164062 L 300.621094 117.164062 C 297.539062 117.164062 295.023438 119.679688 295.023438 122.765625 L 295.023438 128.363281 C 295.023438 131.449219 297.539062 133.964844 300.621094 133.964844 " fill-opacity="1" fill-rule="nonzero"/><path fill="#040606" d="M 423.820312 173.164062 L 300.621094 173.164062 L 300.621094 167.5625 L 423.820312 167.5625 Z M 423.820312 161.964844 L 300.621094 161.964844 C 297.539062 161.964844 295.023438 164.480469 295.023438 167.5625 L 295.023438 173.164062 C 295.023438 176.25 297.539062 178.765625 300.621094 178.765625 L 423.820312 178.765625 C 426.90625 178.765625 429.421875 176.25 429.421875 173.164062 L 429.421875 167.5625 C 429.421875 164.480469 426.90625 161.964844 423.820312 161.964844 " fill-opacity="1" fill-rule="nonzero"/><path fill="#80affa" d="M 170.859375 229.425781 C 172.171875 230.738281 172.984375 232.546875 172.984375 234.546875 C 172.984375 238.550781 169.738281 241.792969 165.730469 241.792969 L 133.082031 241.792969 C 131.078125 241.792969 129.265625 240.980469 127.953125 239.667969 C 126.640625 238.359375 125.828125 236.546875 125.828125 234.546875 C 125.828125 230.542969 129.074219 227.300781 133.082031 227.300781 L 142.148438 227.300781 L 142.148438 220.058594 C 142.148438 218.058594 142.960938 216.246094 144.277344 214.9375 C 145.589844 213.625 147.402344 212.8125 149.40625 212.8125 C 153.414062 212.8125 156.660156 216.054688 156.660156 220.058594 L 156.660156 227.300781 L 165.730469 227.300781 C 167.730469 227.300781 169.546875 228.113281 170.859375 229.425781 Z M 170.859375 229.425781 " fill-opacity="1" fill-rule="nonzero"/><path fill="#ffffff" d="M 89.550781 214.625 C 89.550781 214.980469 89.515625 215.335938 89.445312 215.683594 C 89.375 216.035156 89.273438 216.375 89.136719 216.703125 C 89 217.035156 88.832031 217.347656 88.632812 217.644531 C 88.433594 217.941406 88.210938 218.214844 87.957031 218.464844 C 87.703125 218.71875 87.429688 218.945312 87.132812 219.140625 C 86.835938 219.339844 86.519531 219.507812 86.191406 219.644531 C 85.859375 219.78125 85.519531 219.882812 85.171875 219.953125 C 84.820312 220.023438 84.464844 220.058594 84.109375 220.058594 C 83.75 220.058594 83.398438 220.023438 83.046875 219.953125 C 82.695312 219.882812 82.355469 219.78125 82.027344 219.644531 C 81.695312 219.507812 81.382812 219.339844 81.085938 219.140625 C 80.789062 218.945312 80.515625 218.71875 80.261719 218.464844 C 80.007812 218.214844 79.785156 217.941406 79.585938 217.644531 C 79.386719 217.347656 79.21875 217.035156 79.082031 216.703125 C 78.945312 216.375 78.84375 216.035156 78.773438 215.683594 C 78.703125 215.335938 78.667969 214.980469 78.667969 214.625 C 78.667969 214.265625 78.703125 213.914062 78.773438 213.5625 C 78.84375 213.214844 78.945312 212.875 79.082031 212.546875 C 79.21875 212.214844 79.386719 211.902344 79.585938 211.605469 C 79.785156 211.308594 80.007812 211.035156 80.261719 210.78125 C 80.515625 210.53125 80.789062 210.304688 81.085938 210.105469 C 81.382812 209.910156 81.695312 209.742188 82.027344 209.605469 C 82.355469 209.46875 82.695312 209.363281 83.046875 209.296875 C 83.398438 209.226562 83.75 209.191406 84.109375 209.191406 C 84.464844 209.191406 84.820312 209.226562 85.171875 209.296875 C 85.519531 209.363281 85.859375 209.46875 86.191406 209.605469 C 86.519531 209.742188 86.835938 209.910156 87.132812 210.105469 C 87.429688 210.304688 87.703125 210.53125 87.957031 210.78125 C 88.210938 211.035156 88.433594 211.308594 88.632812 211.605469 C 88.832031 211.902344 89 212.214844 89.136719 212.546875 C 89.273438 212.875 89.375 213.214844 89.445312 213.5625 C 89.515625 213.914062 89.550781 214.265625 89.550781 214.625 Z M 89.550781 214.625 " fill-opacity="1" fill-rule="nonzero"/><path fill="#ffffff" d="M 220.144531 216.433594 C 220.144531 216.910156 220.097656 217.382812 220.003906 217.847656 C 219.910156 218.316406 219.773438 218.769531 219.589844 219.207031 C 219.410156 219.648438 219.183594 220.066406 218.921875 220.460938 C 218.65625 220.855469 218.355469 221.222656 218.019531 221.558594 C 217.679688 221.894531 217.316406 222.195312 216.917969 222.460938 C 216.523438 222.722656 216.105469 222.945312 215.664062 223.128906 C 215.222656 223.3125 214.769531 223.449219 214.304688 223.539062 C 213.835938 223.632812 213.363281 223.679688 212.886719 223.679688 C 212.410156 223.679688 211.941406 223.632812 211.472656 223.539062 C 211.003906 223.449219 210.550781 223.3125 210.113281 223.128906 C 209.671875 222.945312 209.253906 222.722656 208.855469 222.460938 C 208.460938 222.195312 208.09375 221.894531 207.757812 221.558594 C 207.421875 221.222656 207.121094 220.855469 206.855469 220.460938 C 206.589844 220.066406 206.367188 219.648438 206.183594 219.207031 C 206.003906 218.769531 205.863281 218.316406 205.773438 217.847656 C 205.679688 217.382812 205.632812 216.910156 205.632812 216.433594 C 205.632812 215.960938 205.679688 215.488281 205.773438 215.023438 C 205.863281 214.554688 206.003906 214.101562 206.183594 213.664062 C 206.367188 213.222656 206.589844 212.804688 206.855469 212.410156 C 207.121094 212.015625 207.421875 211.648438 207.757812 211.3125 C 208.09375 210.976562 208.460938 210.675781 208.855469 210.410156 C 209.253906 210.148438 209.671875 209.925781 210.113281 209.742188 C 210.550781 209.558594 211.003906 209.421875 211.472656 209.328125 C 211.941406 209.238281 212.410156 209.191406 212.886719 209.191406 C 213.363281 209.191406 213.835938 209.238281 214.304688 209.328125 C 214.769531 209.421875 215.222656 209.558594 215.664062 209.742188 C 216.105469 209.925781 216.523438 210.148438 216.917969 210.410156 C 217.316406 210.675781 217.679688 210.976562 218.019531 211.3125 C 218.355469 211.648438 218.65625 212.015625 218.921875 212.410156 C 219.183594 212.804688 219.410156 213.222656 219.589844 213.664062 C 219.773438 214.101562 219.910156 214.554688 220.003906 215.023438 C 220.097656 215.488281 220.144531 215.960938 220.144531 216.433594 Z M 220.144531 216.433594 " fill-opacity="1" fill-rule="nonzero"/><path fill="#ffffff" d="M 165.730469 86.03125 C 165.730469 86.507812 165.683594 86.976562 165.589844 87.445312 C 165.496094 87.910156 165.359375 88.363281 165.175781 88.804688 C 164.996094 89.242188 164.769531 89.660156 164.507812 90.054688 C 164.242188 90.453125 163.941406 90.816406 163.605469 91.152344 C 163.269531 91.492188 162.902344 91.789062 162.503906 92.054688 C 162.109375 92.320312 161.691406 92.542969 161.25 92.722656 C 160.8125 92.90625 160.355469 93.042969 159.890625 93.136719 C 159.421875 93.230469 158.949219 93.277344 158.472656 93.277344 C 157.996094 93.277344 157.527344 93.230469 157.058594 93.136719 C 156.589844 93.042969 156.136719 92.90625 155.699219 92.722656 C 155.257812 92.542969 154.839844 92.320312 154.445312 92.054688 C 154.046875 91.789062 153.679688 91.492188 153.34375 91.152344 C 153.007812 90.816406 152.707031 90.453125 152.441406 90.054688 C 152.175781 89.660156 151.953125 89.242188 151.769531 88.804688 C 151.589844 88.363281 151.453125 87.910156 151.359375 87.445312 C 151.265625 86.976562 151.21875 86.507812 151.21875 86.03125 C 151.21875 85.554688 151.265625 85.085938 151.359375 84.617188 C 151.453125 84.152344 151.589844 83.699219 151.769531 83.257812 C 151.953125 82.820312 152.175781 82.402344 152.441406 82.007812 C 152.707031 81.609375 153.007812 81.246094 153.34375 80.910156 C 153.679688 80.570312 154.046875 80.273438 154.445312 80.007812 C 154.839844 79.742188 155.257812 79.519531 155.699219 79.339844 C 156.136719 79.15625 156.589844 79.019531 157.058594 78.925781 C 157.527344 78.832031 157.996094 78.785156 158.472656 78.785156 C 158.949219 78.785156 159.421875 78.832031 159.890625 78.925781 C 160.355469 79.019531 160.8125 79.15625 161.25 79.339844 C 161.691406 79.519531 162.109375 79.742188 162.503906 80.007812 C 162.902344 80.273438 163.269531 80.570312 163.605469 80.910156 C 163.941406 81.246094 164.242188 81.609375 164.507812 82.007812 C 164.769531 82.402344 164.996094 82.820312 165.175781 83.257812 C 165.359375 83.699219 165.496094 84.152344 165.589844 84.617188 C 165.683594 85.085938 165.730469 85.554688 165.730469 86.03125 Z M 165.730469 86.03125 " fill-opacity="1" fill-rule="nonzero"/><path fill="#ffffff" d="M 220.144531 180.210938 L 220.144531 198.324219 L 78.667969 198.292969 L 78.667969 180.210938 Z M 220.144531 180.210938 " fill-opacity="1" fill-rule="nonzero"/><path fill="#a7c7fc" d="M 129.453125 107.765625 L 114.945312 93.277344 L 78.667969 93.277344 L 78.667969 180.210938 L 220.144531 180.210938 L 220.144531 107.765625 Z M 129.453125 107.765625 " fill-opacity="1" fill-rule="nonzero"/><g clip-path="url(#94f95480ef)"><path fill="#4d80c9" d="M 231.027344 86.03125 C 231.027344 86.511719 230.933594 86.972656 230.75 87.417969 C 230.566406 87.859375 230.304688 88.253906 229.964844 88.59375 C 229.625 88.933594 229.230469 89.195312 228.785156 89.378906 C 228.34375 89.5625 227.878906 89.652344 227.398438 89.652344 C 226.917969 89.652344 226.453125 89.5625 226.011719 89.378906 C 225.566406 89.195312 225.171875 88.933594 224.832031 88.59375 C 224.492188 88.253906 224.230469 87.859375 224.046875 87.417969 C 223.863281 86.972656 223.769531 86.511719 223.769531 86.03125 C 223.769531 85.550781 223.863281 85.089844 224.046875 84.644531 C 224.230469 84.203125 224.492188 83.808594 224.832031 83.46875 C 225.171875 83.128906 225.566406 82.867188 226.011719 82.683594 C 226.453125 82.5 226.917969 82.410156 227.398438 82.410156 C 227.878906 82.410156 228.34375 82.5 228.785156 82.683594 C 229.230469 82.867188 229.625 83.128906 229.964844 83.46875 C 230.304688 83.808594 230.566406 84.203125 230.75 84.644531 C 230.933594 85.089844 231.027344 85.550781 231.027344 86.03125 Z M 231.027344 86.03125 " fill-opacity="1" fill-rule="nonzero"/></g><path fill="#4d80c9" d="M 180.238281 129.5 L 209.261719 129.5 L 209.261719 136.742188 L 180.238281 136.742188 Z M 180.238281 129.5 " fill-opacity="1" fill-rule="nonzero"/><path fill="#4d80c9" d="M 180.238281 118.632812 L 209.261719 118.632812 L 209.261719 125.878906 L 180.238281 125.878906 Z M 180.238281 118.632812 " fill-opacity="1" fill-rule="nonzero"/><path fill="#4d80c9" d="M 187.496094 93.277344 C 187.496094 93.757812 187.402344 94.21875 187.21875 94.664062 C 187.035156 95.105469 186.773438 95.496094 186.433594 95.835938 C 186.09375 96.175781 185.699219 96.4375 185.253906 96.621094 C 184.8125 96.804688 184.347656 96.898438 183.867188 96.898438 C 183.386719 96.898438 182.921875 96.804688 182.480469 96.621094 C 182.035156 96.4375 181.640625 96.175781 181.300781 95.835938 C 180.960938 95.496094 180.699219 95.105469 180.515625 94.664062 C 180.332031 94.21875 180.238281 93.757812 180.238281 93.277344 C 180.238281 92.796875 180.332031 92.332031 180.515625 91.890625 C 180.699219 91.445312 180.960938 91.054688 181.300781 90.714844 C 181.640625 90.375 182.035156 90.113281 182.480469 89.929688 C 182.921875 89.746094 183.386719 89.652344 183.867188 89.652344 C 184.347656 89.652344 184.8125 89.746094 185.253906 89.929688 C 185.699219 90.113281 186.09375 90.375 186.433594 90.714844 C 186.773438 91.054688 187.035156 91.445312 187.21875 91.890625 C 187.402344 92.332031 187.496094 92.796875 187.496094 93.277344 Z M 187.496094 93.277344 " fill-opacity="1" fill-rule="nonzero"/><path fill="#4d80c9" d="M 181.890625 151.667969 C 181.890625 152.84375 181.683594 153.976562 181.269531 155.050781 C 180.855469 156.128906 180.277344 157.097656 179.535156 157.949219 C 178.796875 158.800781 177.898438 159.476562 176.84375 159.980469 C 175.789062 160.480469 174.621094 160.730469 173.339844 160.730469 L 167.917969 160.730469 L 167.917969 169.34375 L 161.738281 169.34375 L 161.738281 142.640625 L 173.152344 142.640625 C 174.4375 142.640625 175.609375 142.90625 176.675781 143.429688 C 177.742188 143.957031 178.65625 144.648438 179.421875 145.5 C 180.1875 146.355469 180.792969 147.316406 181.234375 148.398438 C 181.671875 149.472656 181.890625 150.5625 181.890625 151.667969 Z M 175.640625 151.667969 C 175.640625 151.042969 175.554688 150.5 175.394531 150.050781 C 175.230469 149.601562 175.011719 149.222656 174.734375 148.921875 C 174.457031 148.621094 174.144531 148.402344 173.792969 148.261719 C 173.441406 148.125 173.089844 148.054688 172.738281 148.054688 L 167.917969 148.054688 L 167.917969 155.355469 L 172.964844 155.355469 C 173.691406 155.355469 174.320312 155.039062 174.847656 154.414062 C 175.375 153.785156 175.640625 152.871094 175.640625 151.667969 Z M 175.640625 151.667969 " fill-opacity="1" fill-rule="nonzero"/><path fill="#4d80c9" d="M 180.238281 212.8125 C 180.238281 213.292969 180.148438 213.753906 179.964844 214.199219 C 179.78125 214.644531 179.515625 215.035156 179.175781 215.375 C 178.835938 215.714844 178.445312 215.976562 178 216.160156 C 177.554688 216.34375 177.09375 216.433594 176.613281 216.433594 C 176.132812 216.433594 175.667969 216.34375 175.222656 216.160156 C 174.78125 215.976562 174.386719 215.714844 174.046875 215.375 C 173.707031 215.035156 173.445312 214.644531 173.261719 214.199219 C 173.078125 213.753906 172.984375 213.292969 172.984375 212.8125 C 172.984375 212.332031 173.078125 211.871094 173.261719 211.425781 C 173.445312 210.984375 173.707031 210.589844 174.046875 210.25 C 174.386719 209.910156 174.78125 209.648438 175.222656 209.464844 C 175.667969 209.28125 176.132812 209.191406 176.613281 209.191406 C 177.09375 209.191406 177.554688 209.28125 178 209.464844 C 178.445312 209.648438 178.835938 209.910156 179.175781 210.25 C 179.515625 210.589844 179.78125 210.984375 179.964844 211.425781 C 180.148438 211.871094 180.238281 212.332031 180.238281 212.8125 Z M 180.238281 212.8125 " fill-opacity="1" fill-rule="nonzero"/><path fill="#4d80c9" d="M 158.726562 142.640625 L 158.726562 148.054688 L 150.589844 148.054688 L 150.589844 169.34375 L 144.414062 169.34375 L 144.414062 148.054688 L 136.242188 148.054688 L 136.242188 142.640625 Z M 158.726562 142.640625 " fill-opacity="1" fill-rule="nonzero"/><path fill="#4d80c9" d="M 133.097656 142.640625 L 133.097656 148.054688 L 121.121094 148.054688 L 121.121094 153.8125 L 130.988281 153.8125 L 130.988281 158.816406 L 121.121094 158.816406 L 121.121094 169.34375 L 114.945312 169.34375 L 114.945312 142.640625 Z M 133.097656 142.640625 " fill-opacity="1" fill-rule="nonzero"/><path fill="#4d80c9" d="M 125.828125 82.410156 C 125.828125 82.890625 125.734375 83.351562 125.550781 83.796875 C 125.367188 84.238281 125.105469 84.628906 124.765625 84.96875 C 124.421875 85.308594 124.03125 85.570312 123.585938 85.753906 C 123.140625 85.9375 122.679688 86.03125 122.199219 86.03125 C 121.71875 86.03125 121.253906 85.9375 120.808594 85.753906 C 120.367188 85.570312 119.972656 85.308594 119.632812 84.96875 C 119.292969 84.628906 119.03125 84.238281 118.847656 83.796875 C 118.664062 83.351562 118.570312 82.890625 118.570312 82.410156 C 118.570312 81.929688 118.664062 81.464844 118.847656 81.023438 C 119.03125 80.578125 119.292969 80.1875 119.632812 79.847656 C 119.972656 79.507812 120.367188 79.246094 120.808594 79.0625 C 121.253906 78.878906 121.71875 78.785156 122.199219 78.785156 C 122.679688 78.785156 123.140625 78.878906 123.585938 79.0625 C 124.03125 79.246094 124.421875 79.507812 124.765625 79.847656 C 125.105469 80.1875 125.367188 80.578125 125.550781 81.023438 C 125.734375 81.464844 125.828125 81.929688 125.828125 82.410156 Z M 125.828125 82.410156 " fill-opacity="1" fill-rule="nonzero"/><path fill="#4d80c9" d="M 122.199219 216.433594 C 122.199219 216.914062 122.105469 217.378906 121.921875 217.820312 C 121.738281 218.265625 121.476562 218.65625 121.136719 218.996094 C 120.796875 219.335938 120.402344 219.597656 119.960938 219.78125 C 119.515625 219.964844 119.050781 220.058594 118.570312 220.058594 C 118.089844 220.058594 117.628906 219.964844 117.183594 219.78125 C 116.738281 219.597656 116.347656 219.335938 116.007812 218.996094 C 115.664062 218.65625 115.402344 218.265625 115.21875 217.820312 C 115.035156 217.378906 114.945312 216.914062 114.945312 216.433594 C 114.945312 215.957031 115.035156 215.492188 115.21875 215.050781 C 115.402344 214.605469 115.664062 214.214844 116.007812 213.875 C 116.347656 213.535156 116.738281 213.273438 117.183594 213.089844 C 117.628906 212.90625 118.089844 212.8125 118.570312 212.8125 C 119.050781 212.8125 119.515625 212.90625 119.960938 213.089844 C 120.402344 213.273438 120.796875 213.535156 121.136719 213.875 C 121.476562 214.214844 121.738281 214.605469 121.921875 215.050781 C 122.105469 215.492188 122.199219 215.957031 122.199219 216.433594 Z M 122.199219 216.433594 " fill-opacity="1" fill-rule="nonzero"/><path fill="#4d80c9" d="M 107.6875 104.144531 L 114.945312 104.144531 L 114.945312 111.386719 L 107.6875 111.386719 Z M 107.6875 104.144531 " fill-opacity="1" fill-rule="nonzero"/><path fill="#4d80c9" d="M 96.804688 104.144531 L 104.0625 104.144531 L 104.0625 111.386719 L 96.804688 111.386719 Z M 96.804688 104.144531 " fill-opacity="1" fill-rule="nonzero"/><path fill="#4d80c9" d="M 85.921875 104.144531 L 93.179688 104.144531 L 93.179688 111.386719 L 85.921875 111.386719 Z M 85.921875 104.144531 " fill-opacity="1" fill-rule="nonzero"/><g clip-path="url(#5243b7f718)"><path fill="#4d80c9" d="M 220.144531 183.835938 L 78.667969 183.835938 C 76.664062 183.835938 75.039062 182.210938 75.039062 180.210938 C 75.039062 178.210938 76.664062 176.589844 78.667969 176.589844 L 220.144531 176.589844 C 222.144531 176.589844 223.769531 178.210938 223.769531 180.210938 C 223.769531 182.210938 222.144531 183.835938 220.144531 183.835938 Z M 220.144531 183.835938 " fill-opacity="1" fill-rule="nonzero"/></g><g clip-path="url(#49ba6eaff4)"><path fill="#4d80c9" d="M 220.144531 201.945312 C 220.144531 201.945312 220.144531 201.945312 220.140625 201.945312 L 78.667969 201.917969 C 76.664062 201.917969 75.039062 200.296875 75.039062 198.292969 L 75.039062 93.277344 C 75.039062 91.273438 76.664062 89.652344 78.667969 89.652344 L 114.945312 89.652344 C 115.90625 89.652344 116.828125 90.035156 117.507812 90.714844 L 130.957031 104.144531 L 220.144531 104.144531 C 222.144531 104.144531 223.769531 105.765625 223.769531 107.765625 L 223.769531 198.324219 C 223.769531 199.285156 223.386719 200.207031 222.707031 200.886719 C 222.027344 201.5625 221.105469 201.945312 220.144531 201.945312 Z M 82.296875 194.671875 L 216.515625 194.699219 L 216.515625 111.386719 L 129.453125 111.386719 C 128.492188 111.386719 127.570312 111.003906 126.890625 110.328125 L 113.441406 96.898438 L 82.296875 96.898438 Z M 82.296875 194.671875 " fill-opacity="1" fill-rule="nonzero"/></g><g clip-path="url(#78ebd4dfca)"><path fill="#4d80c9" d="M 165.730469 245.414062 L 133.082031 245.414062 C 130.175781 245.414062 127.441406 244.285156 125.386719 242.230469 C 123.332031 240.175781 122.199219 237.449219 122.199219 234.546875 C 122.199219 228.554688 127.082031 223.679688 133.082031 223.679688 L 138.523438 223.679688 L 138.523438 220.058594 C 138.523438 217.15625 139.65625 214.429688 141.710938 212.375 C 143.765625 210.320312 146.5 209.191406 149.40625 209.191406 C 155.40625 209.191406 160.289062 214.066406 160.289062 220.058594 L 160.289062 223.679688 L 165.730469 223.679688 C 168.636719 223.679688 171.367188 224.8125 173.425781 226.863281 C 175.480469 228.917969 176.613281 231.644531 176.613281 234.546875 C 176.613281 240.539062 171.730469 245.414062 165.730469 245.414062 Z M 133.082031 230.925781 C 131.082031 230.925781 129.453125 232.550781 129.453125 234.546875 C 129.453125 235.511719 129.832031 236.421875 130.515625 237.109375 C 131.203125 237.792969 132.113281 238.167969 133.082031 238.167969 L 165.730469 238.167969 C 167.730469 238.167969 169.355469 236.542969 169.355469 234.546875 C 169.355469 233.582031 168.980469 232.671875 168.292969 231.988281 C 167.609375 231.300781 166.699219 230.925781 165.730469 230.925781 L 156.660156 230.925781 C 154.65625 230.925781 153.03125 229.304688 153.03125 227.300781 L 153.03125 220.058594 C 153.03125 218.058594 151.40625 216.433594 149.40625 216.433594 C 148.4375 216.433594 147.527344 216.8125 146.839844 217.496094 C 146.15625 218.183594 145.777344 219.089844 145.777344 220.058594 L 145.777344 227.300781 C 145.777344 229.304688 144.152344 230.925781 142.148438 230.925781 Z M 133.082031 230.925781 " fill-opacity="1" fill-rule="nonzero"/></g><path fill="#4d80c9" d="M 149.40625 216.433594 C 147.402344 216.433594 145.777344 214.8125 145.777344 212.8125 L 145.777344 198.324219 C 145.777344 196.324219 147.402344 194.703125 149.40625 194.703125 C 151.410156 194.703125 153.03125 196.324219 153.03125 198.324219 L 153.03125 212.8125 C 153.03125 214.8125 151.410156 216.433594 149.40625 216.433594 Z M 149.40625 216.433594 " fill-opacity="1" fill-rule="nonzero"/><path fill="#4d80c9" d="M 220.144531 238.167969 L 172.984375 238.167969 C 170.980469 238.167969 169.355469 236.546875 169.355469 234.546875 C 169.355469 232.546875 170.980469 230.925781 172.984375 230.925781 L 220.144531 230.925781 C 222.144531 230.925781 223.769531 232.546875 223.769531 234.546875 C 223.769531 236.546875 222.144531 238.167969 220.144531 238.167969 Z M 220.144531 238.167969 " fill-opacity="1" fill-rule="nonzero"/><g clip-path="url(#1dec788990)"><path fill="#4d80c9" d="M 125.828125 238.167969 L 78.667969 238.167969 C 76.664062 238.167969 75.039062 236.546875 75.039062 234.546875 C 75.039062 232.546875 76.664062 230.925781 78.667969 230.925781 L 125.828125 230.925781 C 127.828125 230.925781 129.453125 232.546875 129.453125 234.546875 C 129.453125 236.546875 127.828125 238.167969 125.828125 238.167969 Z M 125.828125 238.167969 " fill-opacity="1" fill-rule="nonzero"/></g><g clip-path="url(#8655e67a1b)"><path fill="#4d80c9" d="M 84.109375 223.679688 C 79.109375 223.679688 75.039062 219.617188 75.039062 214.625 C 75.039062 209.632812 79.109375 205.570312 84.109375 205.570312 C 89.109375 205.570312 93.179688 209.632812 93.179688 214.625 C 93.179688 219.617188 89.109375 223.679688 84.109375 223.679688 Z M 84.109375 212.8125 C 83.109375 212.8125 82.296875 213.625 82.296875 214.625 C 82.296875 215.621094 83.109375 216.433594 84.109375 216.433594 C 85.109375 216.433594 85.921875 215.621094 85.921875 214.625 C 85.921875 213.625 85.109375 212.8125 84.109375 212.8125 Z M 84.109375 212.8125 " fill-opacity="1" fill-rule="nonzero"/></g><g clip-path="url(#b162d9269e)"><path fill="#4d80c9" d="M 158.472656 96.898438 C 152.472656 96.898438 147.589844 92.023438 147.589844 86.03125 C 147.589844 80.039062 152.472656 75.164062 158.472656 75.164062 C 164.476562 75.164062 169.355469 80.039062 169.355469 86.03125 C 169.355469 92.023438 164.476562 96.898438 158.472656 96.898438 Z M 158.472656 82.410156 C 156.472656 82.410156 154.847656 84.035156 154.847656 86.03125 C 154.847656 88.027344 156.472656 89.652344 158.472656 89.652344 C 160.476562 89.652344 162.101562 88.027344 162.101562 86.03125 C 162.101562 84.035156 160.476562 82.410156 158.472656 82.410156 Z M 158.472656 82.410156 " fill-opacity="1" fill-rule="nonzero"/></g><path fill="#4d80c9" d="M 212.886719 227.300781 C 206.886719 227.300781 202.003906 222.425781 202.003906 216.433594 C 202.003906 210.445312 206.886719 205.570312 212.886719 205.570312 C 218.890625 205.570312 223.769531 210.445312 223.769531 216.433594 C 223.769531 222.425781 218.890625 227.300781 212.886719 227.300781 Z M 212.886719 212.8125 C 210.886719 212.8125 209.261719 214.4375 209.261719 216.433594 C 209.261719 218.433594 210.886719 220.058594 212.886719 220.058594 C 214.886719 220.058594 216.515625 218.433594 216.515625 216.433594 C 216.515625 214.4375 214.886719 212.8125 212.886719 212.8125 Z M 212.886719 212.8125 " fill-opacity="1" fill-rule="nonzero"/><g fill="#000000" fill-opacity="1"><g transform="translate(502.508051, 179.036921)"><g><path d="M 24.296875 -6.875 L 22.46875 0 L 0.484375 0 L 0.484375 -0.765625 C 1.984375 -0.878906 2.945312 -1.160156 3.375 -1.609375 C 3.8125 -2.054688 4.03125 -3 4.03125 -4.4375 L 4.03125 -22.515625 C 4.03125 -23.953125 3.816406 -24.882812 3.390625 -25.3125 C 2.972656 -25.75 2.003906 -26.035156 0.484375 -26.171875 L 0.484375 -26.953125 L 22.109375 -26.953125 L 22.21875 -21.125 L 21.203125 -21.125 C 20.847656 -22.945312 20.304688 -24.113281 19.578125 -24.625 C 18.847656 -25.144531 17.328125 -25.40625 15.015625 -25.40625 L 9.53125 -25.40625 C 8.976562 -25.40625 8.613281 -25.316406 8.4375 -25.140625 C 8.269531 -24.960938 8.1875 -24.585938 8.1875 -24.015625 L 8.1875 -14.984375 L 14.453125 -14.984375 C 16.109375 -14.984375 17.195312 -15.210938 17.71875 -15.671875 C 18.25 -16.128906 18.648438 -17.1875 18.921875 -18.84375 L 19.859375 -18.84375 L 19.859375 -9.40625 L 18.921875 -9.40625 C 18.648438 -11.082031 18.253906 -12.148438 17.734375 -12.609375 C 17.222656 -13.078125 16.128906 -13.3125 14.453125 -13.3125 L 8.1875 -13.3125 L 8.1875 -3.25 C 8.1875 -2.519531 8.289062 -2.085938 8.5 -1.953125 C 8.882812 -1.648438 10.203125 -1.5 12.453125 -1.5 L 13.546875 -1.5 C 16.453125 -1.5 18.53125 -1.84375 19.78125 -2.53125 C 21.03125 -3.226562 22.15625 -4.675781 23.15625 -6.875 Z M 24.296875 -6.875 "/></g></g></g><g fill="#000000" fill-opacity="1"><g transform="translate(527.372499, 179.036921)"><g><path d="M 19.5 0 L 11.3125 0 L 11.3125 -0.609375 C 11.988281 -0.660156 12.425781 -0.75 12.625 -0.875 C 12.832031 -1 12.9375 -1.238281 12.9375 -1.59375 C 12.9375 -1.832031 12.859375 -2.070312 12.703125 -2.3125 L 9 -8.015625 L 5.78125 -3.015625 C 5.238281 -2.171875 4.96875 -1.613281 4.96875 -1.34375 C 4.96875 -0.851562 5.507812 -0.609375 6.59375 -0.609375 L 6.59375 0 L 0.6875 0 L 0.6875 -0.609375 C 1.363281 -0.660156 1.875 -0.804688 2.21875 -1.046875 C 2.5625 -1.296875 3.039062 -1.84375 3.65625 -2.6875 L 8.296875 -9.40625 L 4.484375 -15.265625 C 3.859375 -16.210938 3.328125 -16.851562 2.890625 -17.1875 C 2.453125 -17.53125 1.9375 -17.703125 1.34375 -17.703125 L 0.984375 -17.703125 L 0.984375 -18.3125 L 9.40625 -18.3125 L 9.40625 -17.703125 C 8.238281 -17.679688 7.65625 -17.382812 7.65625 -16.8125 C 7.65625 -16.269531 8.28125 -15.0625 9.53125 -13.1875 L 10.09375 -12.375 C 10.75 -13.351562 11.15625 -13.953125 11.3125 -14.171875 C 12.320312 -15.410156 12.828125 -16.285156 12.828125 -16.796875 C 12.828125 -17.316406 12.28125 -17.617188 11.1875 -17.703125 L 11.1875 -18.3125 L 17.625 -18.3125 L 17.625 -17.703125 C 16.238281 -17.648438 15.140625 -17.054688 14.328125 -15.921875 L 10.953125 -11.03125 L 16.15625 -3.046875 C 16.8125 -2.128906 17.375 -1.492188 17.84375 -1.140625 C 18.320312 -0.785156 18.875 -0.609375 19.5 -0.609375 Z M 19.5 0 "/></g></g></g><g fill="#000000" fill-opacity="1"><g transform="translate(547.71983, 179.036921)"><g><path d="M 11.359375 -2.6875 C 10.054688 -0.625 8.414062 0.40625 6.4375 0.40625 C 4.039062 0.40625 2.84375 -1.316406 2.84375 -4.765625 L 2.84375 -17.015625 L 0.6875 -17.015625 C 0.582031 -17.097656 0.53125 -17.191406 0.53125 -17.296875 C 0.53125 -17.515625 0.757812 -17.773438 1.21875 -18.078125 C 2.332031 -18.722656 3.648438 -20.171875 5.171875 -22.421875 C 5.546875 -22.910156 5.816406 -23.289062 5.984375 -23.5625 C 6.171875 -23.5625 6.265625 -23.382812 6.265625 -23.03125 L 6.265625 -18.3125 L 10.375 -18.3125 L 10.375 -17.015625 L 6.265625 -17.015625 L 6.265625 -5.375 C 6.265625 -4.070312 6.425781 -3.132812 6.75 -2.5625 C 7.082031 -1.988281 7.628906 -1.703125 8.390625 -1.703125 C 9.203125 -1.703125 10.015625 -2.179688 10.828125 -3.140625 Z M 11.359375 -2.6875 "/></g></g></g><g fill="#000000" fill-opacity="1"><g transform="translate(559.032949, 179.036921)"><g><path d="M 13.640625 -16.5625 C 13.640625 -16 13.492188 -15.550781 13.203125 -15.21875 C 12.921875 -14.894531 12.535156 -14.734375 12.046875 -14.734375 C 11.585938 -14.734375 11.046875 -15.003906 10.421875 -15.546875 C 9.984375 -15.953125 9.628906 -16.15625 9.359375 -16.15625 C 8.816406 -16.15625 8.207031 -15.757812 7.53125 -14.96875 C 6.851562 -14.1875 6.515625 -13.472656 6.515625 -12.828125 L 6.515625 -3.65625 C 6.515625 -2.488281 6.742188 -1.703125 7.203125 -1.296875 C 7.660156 -0.890625 8.582031 -0.660156 9.96875 -0.609375 L 9.96875 0 L 0.203125 0 L 0.203125 -0.609375 C 1.503906 -0.859375 2.3125 -1.128906 2.625 -1.421875 C 2.9375 -1.722656 3.09375 -2.390625 3.09375 -3.421875 L 3.09375 -13.59375 C 3.09375 -14.488281 2.988281 -15.117188 2.78125 -15.484375 C 2.582031 -15.847656 2.222656 -16.03125 1.703125 -16.03125 C 1.273438 -16.03125 0.800781 -15.976562 0.28125 -15.875 L 0.28125 -16.53125 C 2.457031 -17.226562 4.46875 -17.957031 6.3125 -18.71875 L 6.515625 -18.640625 L 6.515625 -14.890625 C 7.515625 -16.328125 8.367188 -17.320312 9.078125 -17.875 C 9.785156 -18.4375 10.554688 -18.71875 11.390625 -18.71875 C 12.097656 -18.71875 12.648438 -18.523438 13.046875 -18.140625 C 13.441406 -17.765625 13.640625 -17.238281 13.640625 -16.5625 Z M 13.640625 -16.5625 "/></g></g></g><g fill="#000000" fill-opacity="1"><g transform="translate(572.584279, 179.036921)"><g><path d="M 17.984375 -1.625 C 17.285156 -0.84375 16.671875 -0.304688 16.140625 -0.015625 C 15.609375 0.265625 15.003906 0.40625 14.328125 0.40625 C 13.484375 0.40625 12.863281 0.179688 12.46875 -0.265625 C 12.082031 -0.710938 11.832031 -1.476562 11.71875 -2.5625 C 9.382812 -0.582031 7.40625 0.40625 5.78125 0.40625 C 4.53125 0.40625 3.503906 0 2.703125 -0.8125 C 1.898438 -1.625 1.5 -2.671875 1.5 -3.953125 C 1.5 -5.410156 1.988281 -6.585938 2.96875 -7.484375 C 3.84375 -8.242188 4.71875 -8.847656 5.59375 -9.296875 C 6.476562 -9.742188 8.507812 -10.609375 11.6875 -11.890625 L 11.6875 -14.375 C 11.6875 -16.625 10.65625 -17.75 8.59375 -17.75 C 7.78125 -17.75 7.085938 -17.550781 6.515625 -17.15625 C 5.941406 -16.757812 5.65625 -16.289062 5.65625 -15.75 C 5.65625 -15.445312 5.695312 -15.125 5.78125 -14.78125 C 5.832031 -14.394531 5.859375 -14.175781 5.859375 -14.125 C 5.859375 -13.664062 5.675781 -13.265625 5.3125 -12.921875 C 4.945312 -12.585938 4.519531 -12.421875 4.03125 -12.421875 C 3.539062 -12.421875 3.125 -12.59375 2.78125 -12.9375 C 2.445312 -13.289062 2.28125 -13.703125 2.28125 -14.171875 C 2.28125 -15.273438 2.835938 -16.289062 3.953125 -17.21875 C 5.171875 -18.21875 6.894531 -18.71875 9.125 -18.71875 C 11.644531 -18.71875 13.335938 -17.929688 14.203125 -16.359375 C 14.722656 -15.515625 14.984375 -14.128906 14.984375 -12.203125 L 14.984375 -4.28125 C 14.984375 -3.382812 15.070312 -2.765625 15.25 -2.421875 C 15.425781 -2.078125 15.742188 -1.90625 16.203125 -1.90625 C 16.765625 -1.90625 17.359375 -2.164062 17.984375 -2.6875 Z M 11.6875 -5 L 11.6875 -10.90625 C 9.238281 -10.007812 7.523438 -9.140625 6.546875 -8.296875 C 5.578125 -7.460938 5.09375 -6.445312 5.09375 -5.25 L 5.09375 -5.09375 C 5.09375 -4.21875 5.34375 -3.472656 5.84375 -2.859375 C 6.34375 -2.253906 6.945312 -1.953125 7.65625 -1.953125 C 8.601562 -1.953125 9.59375 -2.25 10.625 -2.84375 C 11.0625 -3.113281 11.347656 -3.382812 11.484375 -3.65625 C 11.617188 -3.925781 11.6875 -4.375 11.6875 -5 Z M 11.6875 -5 "/></g></g></g><g fill="#000000" fill-opacity="1"><g transform="translate(590.652702, 179.036921)"><g><path d="M 16.765625 -5.984375 C 15.597656 -3.703125 14.488281 -2.140625 13.4375 -1.296875 C 12.050781 -0.160156 10.488281 0.40625 8.75 0.40625 C 6.5 0.40625 4.644531 -0.441406 3.1875 -2.140625 C 1.738281 -3.835938 1.015625 -6 1.015625 -8.625 C 1.015625 -12.070312 2.15625 -14.742188 4.4375 -16.640625 C 6.113281 -18.023438 7.945312 -18.71875 9.9375 -18.71875 C 11.644531 -18.71875 13.113281 -18.300781 14.34375 -17.46875 C 15.582031 -16.644531 16.203125 -15.664062 16.203125 -14.53125 C 16.203125 -14.070312 16.007812 -13.671875 15.625 -13.328125 C 15.25 -12.992188 14.800781 -12.828125 14.28125 -12.828125 C 13.332031 -12.828125 12.679688 -13.445312 12.328125 -14.6875 L 12.09375 -15.59375 C 11.875 -16.351562 11.597656 -16.867188 11.265625 -17.140625 C 10.941406 -17.410156 10.414062 -17.546875 9.6875 -17.546875 C 8.03125 -17.546875 6.691406 -16.894531 5.671875 -15.59375 C 4.660156 -14.289062 4.15625 -12.578125 4.15625 -10.453125 C 4.15625 -8.117188 4.738281 -6.210938 5.90625 -4.734375 C 7.070312 -3.265625 8.585938 -2.53125 10.453125 -2.53125 C 11.617188 -2.53125 12.625 -2.804688 13.46875 -3.359375 C 14.3125 -3.910156 15.222656 -4.90625 16.203125 -6.34375 Z M 16.765625 -5.984375 "/></g></g></g><g fill="#000000" fill-opacity="1"><g transform="translate(608.721125, 179.036921)"><g><path d="M 11.359375 -2.6875 C 10.054688 -0.625 8.414062 0.40625 6.4375 0.40625 C 4.039062 0.40625 2.84375 -1.316406 2.84375 -4.765625 L 2.84375 -17.015625 L 0.6875 -17.015625 C 0.582031 -17.097656 0.53125 -17.191406 0.53125 -17.296875 C 0.53125 -17.515625 0.757812 -17.773438 1.21875 -18.078125 C 2.332031 -18.722656 3.648438 -20.171875 5.171875 -22.421875 C 5.546875 -22.910156 5.816406 -23.289062 5.984375 -23.5625 C 6.171875 -23.5625 6.265625 -23.382812 6.265625 -23.03125 L 6.265625 -18.3125 L 10.375 -18.3125 L 10.375 -17.015625 L 6.265625 -17.015625 L 6.265625 -5.375 C 6.265625 -4.070312 6.425781 -3.132812 6.75 -2.5625 C 7.082031 -1.988281 7.628906 -1.703125 8.390625 -1.703125 C 9.203125 -1.703125 10.015625 -2.179688 10.828125 -3.140625 Z M 11.359375 -2.6875 "/></g></g></g><g fill="#000000" fill-opacity="1"><g transform="translate(620.022844, 179.036921)"><g/></g></g><g fill="#000000" fill-opacity="1"><g transform="translate(479.336473, 235.271302)"><g><path d="M 12.375 6.546875 L 11.890625 7.203125 C 10.066406 6.085938 8.453125 4.703125 7.046875 3.046875 C 5.253906 0.984375 3.957031 -1.101562 3.15625 -3.21875 C 2.351562 -5.332031 1.953125 -7.675781 1.953125 -10.25 C 1.953125 -14.976562 3.390625 -19.101562 6.265625 -22.625 C 7.023438 -23.582031 7.796875 -24.390625 8.578125 -25.046875 C 9.367188 -25.710938 10.507812 -26.535156 12 -27.515625 L 12.375 -26.859375 C 10.90625 -25.691406 9.796875 -24.65625 9.046875 -23.75 C 8.304688 -22.84375 7.648438 -21.765625 7.078125 -20.515625 C 5.992188 -18.015625 5.453125 -14.632812 5.453125 -10.375 C 5.453125 -6.445312 5.925781 -3.148438 6.875 -0.484375 C 7.414062 1.035156 8.0625 2.257812 8.8125 3.1875 C 9.5625 4.125 10.75 5.242188 12.375 6.546875 Z M 12.375 6.546875 "/></g></g></g><g fill="#000000" fill-opacity="1"><g transform="translate(492.887803, 235.271302)"><g><path d="M 31.546875 0 L 22.625 0 L 22.625 -0.609375 C 23.820312 -0.742188 24.566406 -0.972656 24.859375 -1.296875 C 25.160156 -1.628906 25.3125 -2.378906 25.3125 -3.546875 L 25.3125 -12.125 C 25.3125 -13.8125 25.09375 -14.976562 24.65625 -15.625 C 24.226562 -16.28125 23.429688 -16.609375 22.265625 -16.609375 C 20.472656 -16.609375 18.992188 -15.78125 17.828125 -14.125 L 17.828125 -3.859375 C 17.828125 -2.585938 18.023438 -1.734375 18.421875 -1.296875 C 18.816406 -0.867188 19.597656 -0.640625 20.765625 -0.609375 L 20.765625 0 L 11.640625 0 L 11.640625 -0.609375 C 12.804688 -0.691406 13.554688 -0.910156 13.890625 -1.265625 C 14.234375 -1.617188 14.40625 -2.363281 14.40625 -3.5 L 14.40625 -12.328125 C 14.40625 -15.179688 13.507812 -16.609375 11.71875 -16.609375 C 11.019531 -16.609375 10.273438 -16.453125 9.484375 -16.140625 C 8.691406 -15.828125 8.039062 -15.441406 7.53125 -14.984375 L 6.921875 -14.203125 L 6.921875 -2.734375 C 6.921875 -1.941406 7.109375 -1.398438 7.484375 -1.109375 C 7.867188 -0.828125 8.601562 -0.660156 9.6875 -0.609375 L 9.6875 0 L 0.65625 0 L 0.65625 -0.609375 C 1.789062 -0.640625 2.546875 -0.84375 2.921875 -1.21875 C 3.304688 -1.601562 3.5 -2.347656 3.5 -3.453125 L 3.5 -13.75 C 3.5 -14.726562 3.394531 -15.40625 3.1875 -15.78125 C 2.988281 -16.164062 2.617188 -16.359375 2.078125 -16.359375 C 1.671875 -16.359375 1.234375 -16.304688 0.765625 -16.203125 L 0.765625 -16.890625 C 2.722656 -17.429688 4.625 -18.039062 6.46875 -18.71875 L 6.75 -18.640625 L 6.75 -15.59375 C 8.4375 -16.863281 9.6875 -17.703125 10.5 -18.109375 C 11.3125 -18.515625 12.164062 -18.71875 13.0625 -18.71875 C 15.207031 -18.71875 16.644531 -17.578125 17.375 -15.296875 C 19.5 -17.578125 21.710938 -18.71875 24.015625 -18.71875 C 27.160156 -18.71875 28.734375 -16.304688 28.734375 -11.484375 L 28.734375 -3.09375 C 28.734375 -1.570312 29.316406 -0.769531 30.484375 -0.6875 L 31.546875 -0.609375 Z M 31.546875 0 "/></g></g></g><g fill="#000000" fill-opacity="1"><g transform="translate(524.548252, 235.271302)"><g><path d="M 17.265625 -6.390625 C 15.492188 -1.859375 12.613281 0.40625 8.625 0.40625 C 6.289062 0.40625 4.4375 -0.410156 3.0625 -2.046875 C 1.695312 -3.691406 1.015625 -5.910156 1.015625 -8.703125 C 1.015625 -11.660156 1.800781 -14.066406 3.375 -15.921875 C 4.945312 -17.785156 7 -18.71875 9.53125 -18.71875 C 11.695312 -18.71875 13.429688 -17.945312 14.734375 -16.40625 C 15.628906 -15.257812 16.210938 -13.550781 16.484375 -11.28125 L 3.953125 -11.28125 C 4.023438 -8.96875 4.429688 -7.09375 5.171875 -5.65625 C 6.335938 -3.488281 8.046875 -2.40625 10.296875 -2.40625 C 11.597656 -2.40625 12.726562 -2.726562 13.6875 -3.375 C 14.65625 -4.03125 15.628906 -5.128906 16.609375 -6.671875 Z M 12.328125 -12.578125 C 12.054688 -14.335938 11.632812 -15.554688 11.0625 -16.234375 C 10.5 -16.921875 9.59375 -17.265625 8.34375 -17.265625 C 5.90625 -17.265625 4.46875 -15.703125 4.03125 -12.578125 Z M 12.328125 -12.578125 "/></g></g></g><g fill="#000000" fill-opacity="1"><g transform="translate(542.616676, 235.271302)"><g><path d="M 11.359375 -2.6875 C 10.054688 -0.625 8.414062 0.40625 6.4375 0.40625 C 4.039062 0.40625 2.84375 -1.316406 2.84375 -4.765625 L 2.84375 -17.015625 L 0.6875 -17.015625 C 0.582031 -17.097656 0.53125 -17.191406 0.53125 -17.296875 C 0.53125 -17.515625 0.757812 -17.773438 1.21875 -18.078125 C 2.332031 -18.722656 3.648438 -20.171875 5.171875 -22.421875 C 5.546875 -22.910156 5.816406 -23.289062 5.984375 -23.5625 C 6.171875 -23.5625 6.265625 -23.382812 6.265625 -23.03125 L 6.265625 -18.3125 L 10.375 -18.3125 L 10.375 -17.015625 L 6.265625 -17.015625 L 6.265625 -5.375 C 6.265625 -4.070312 6.425781 -3.132812 6.75 -2.5625 C 7.082031 -1.988281 7.628906 -1.703125 8.390625 -1.703125 C 9.203125 -1.703125 10.015625 -2.179688 10.828125 -3.140625 Z M 11.359375 -2.6875 "/></g></g></g><g fill="#000000" fill-opacity="1"><g transform="translate(553.929795, 235.271302)"><g><path d="M 17.984375 -1.625 C 17.285156 -0.84375 16.671875 -0.304688 16.140625 -0.015625 C 15.609375 0.265625 15.003906 0.40625 14.328125 0.40625 C 13.484375 0.40625 12.863281 0.179688 12.46875 -0.265625 C 12.082031 -0.710938 11.832031 -1.476562 11.71875 -2.5625 C 9.382812 -0.582031 7.40625 0.40625 5.78125 0.40625 C 4.53125 0.40625 3.503906 0 2.703125 -0.8125 C 1.898438 -1.625 1.5 -2.671875 1.5 -3.953125 C 1.5 -5.410156 1.988281 -6.585938 2.96875 -7.484375 C 3.84375 -8.242188 4.71875 -8.847656 5.59375 -9.296875 C 6.476562 -9.742188 8.507812 -10.609375 11.6875 -11.890625 L 11.6875 -14.375 C 11.6875 -16.625 10.65625 -17.75 8.59375 -17.75 C 7.78125 -17.75 7.085938 -17.550781 6.515625 -17.15625 C 5.941406 -16.757812 5.65625 -16.289062 5.65625 -15.75 C 5.65625 -15.445312 5.695312 -15.125 5.78125 -14.78125 C 5.832031 -14.394531 5.859375 -14.175781 5.859375 -14.125 C 5.859375 -13.664062 5.675781 -13.265625 5.3125 -12.921875 C 4.945312 -12.585938 4.519531 -12.421875 4.03125 -12.421875 C 3.539062 -12.421875 3.125 -12.59375 2.78125 -12.9375 C 2.445312 -13.289062 2.28125 -13.703125 2.28125 -14.171875 C 2.28125 -15.273438 2.835938 -16.289062 3.953125 -17.21875 C 5.171875 -18.21875 6.894531 -18.71875 9.125 -18.71875 C 11.644531 -18.71875 13.335938 -17.929688 14.203125 -16.359375 C 14.722656 -15.515625 14.984375 -14.128906 14.984375 -12.203125 L 14.984375 -4.28125 C 14.984375 -3.382812 15.070312 -2.765625 15.25 -2.421875 C 15.425781 -2.078125 15.742188 -1.90625 16.203125 -1.90625 C 16.765625 -1.90625 17.359375 -2.164062 17.984375 -2.6875 Z M 11.6875 -5 L 11.6875 -10.90625 C 9.238281 -10.007812 7.523438 -9.140625 6.546875 -8.296875 C 5.578125 -7.460938 5.09375 -6.445312 5.09375 -5.25 L 5.09375 -5.09375 C 5.09375 -4.21875 5.34375 -3.472656 5.84375 -2.859375 C 6.34375 -2.253906 6.945312 -1.953125 7.65625 -1.953125 C 8.601562 -1.953125 9.59375 -2.25 10.625 -2.84375 C 11.0625 -3.113281 11.347656 -3.382812 11.484375 -3.65625 C 11.617188 -3.925781 11.6875 -4.375 11.6875 -5 Z M 11.6875 -5 "/></g></g></g><g fill="#000000" fill-opacity="1"><g transform="translate(571.998218, 235.271302)"><g><path d="M 19.984375 -1.703125 L 14 0.40625 L 13.84375 0.28125 L 13.84375 -2.3125 C 12.539062 -0.5 10.800781 0.40625 8.625 0.40625 C 6.375 0.40625 4.554688 -0.398438 3.171875 -2.015625 C 1.785156 -3.628906 1.09375 -5.738281 1.09375 -8.34375 C 1.09375 -11.21875 1.921875 -13.664062 3.578125 -15.6875 C 5.234375 -17.707031 7.226562 -18.71875 9.5625 -18.71875 C 11.03125 -18.71875 12.457031 -18.132812 13.84375 -16.96875 L 13.84375 -23.328125 C 13.84375 -24.160156 13.71875 -24.710938 13.46875 -24.984375 C 13.226562 -25.265625 12.726562 -25.40625 11.96875 -25.40625 C 11.582031 -25.40625 11.285156 -25.390625 11.078125 -25.359375 L 11.078125 -26.015625 C 13.546875 -26.660156 15.535156 -27.253906 17.046875 -27.796875 L 17.265625 -27.71875 L 17.265625 -4.640625 C 17.265625 -3.691406 17.378906 -3.066406 17.609375 -2.765625 C 17.835938 -2.460938 18.316406 -2.3125 19.046875 -2.3125 C 19.179688 -2.3125 19.492188 -2.328125 19.984375 -2.359375 Z M 13.84375 -4.15625 L 13.84375 -13.515625 C 13.84375 -14.597656 13.421875 -15.546875 12.578125 -16.359375 C 11.734375 -17.171875 10.769531 -17.578125 9.6875 -17.578125 C 8.144531 -17.578125 6.910156 -16.882812 5.984375 -15.5 C 5.054688 -14.125 4.59375 -12.28125 4.59375 -9.96875 C 4.59375 -7.476562 5.109375 -5.476562 6.140625 -3.96875 C 7.171875 -2.457031 8.53125 -1.703125 10.21875 -1.703125 C 11.4375 -1.703125 12.410156 -2.113281 13.140625 -2.9375 C 13.609375 -3.445312 13.84375 -3.851562 13.84375 -4.15625 Z M 13.84375 -4.15625 "/></g></g></g><g fill="#000000" fill-opacity="1"><g transform="translate(592.345548, 235.271302)"><g><path d="M 17.984375 -1.625 C 17.285156 -0.84375 16.671875 -0.304688 16.140625 -0.015625 C 15.609375 0.265625 15.003906 0.40625 14.328125 0.40625 C 13.484375 0.40625 12.863281 0.179688 12.46875 -0.265625 C 12.082031 -0.710938 11.832031 -1.476562 11.71875 -2.5625 C 9.382812 -0.582031 7.40625 0.40625 5.78125 0.40625 C 4.53125 0.40625 3.503906 0 2.703125 -0.8125 C 1.898438 -1.625 1.5 -2.671875 1.5 -3.953125 C 1.5 -5.410156 1.988281 -6.585938 2.96875 -7.484375 C 3.84375 -8.242188 4.71875 -8.847656 5.59375 -9.296875 C 6.476562 -9.742188 8.507812 -10.609375 11.6875 -11.890625 L 11.6875 -14.375 C 11.6875 -16.625 10.65625 -17.75 8.59375 -17.75 C 7.78125 -17.75 7.085938 -17.550781 6.515625 -17.15625 C 5.941406 -16.757812 5.65625 -16.289062 5.65625 -15.75 C 5.65625 -15.445312 5.695312 -15.125 5.78125 -14.78125 C 5.832031 -14.394531 5.859375 -14.175781 5.859375 -14.125 C 5.859375 -13.664062 5.675781 -13.265625 5.3125 -12.921875 C 4.945312 -12.585938 4.519531 -12.421875 4.03125 -12.421875 C 3.539062 -12.421875 3.125 -12.59375 2.78125 -12.9375 C 2.445312 -13.289062 2.28125 -13.703125 2.28125 -14.171875 C 2.28125 -15.273438 2.835938 -16.289062 3.953125 -17.21875 C 5.171875 -18.21875 6.894531 -18.71875 9.125 -18.71875 C 11.644531 -18.71875 13.335938 -17.929688 14.203125 -16.359375 C 14.722656 -15.515625 14.984375 -14.128906 14.984375 -12.203125 L 14.984375 -4.28125 C 14.984375 -3.382812 15.070312 -2.765625 15.25 -2.421875 C 15.425781 -2.078125 15.742188 -1.90625 16.203125 -1.90625 C 16.765625 -1.90625 17.359375 -2.164062 17.984375 -2.6875 Z M 11.6875 -5 L 11.6875 -10.90625 C 9.238281 -10.007812 7.523438 -9.140625 6.546875 -8.296875 C 5.578125 -7.460938 5.09375 -6.445312 5.09375 -5.25 L 5.09375 -5.09375 C 5.09375 -4.21875 5.34375 -3.472656 5.84375 -2.859375 C 6.34375 -2.253906 6.945312 -1.953125 7.65625 -1.953125 C 8.601562 -1.953125 9.59375 -2.25 10.625 -2.84375 C 11.0625 -3.113281 11.347656 -3.382812 11.484375 -3.65625 C 11.617188 -3.925781 11.6875 -4.375 11.6875 -5 Z M 11.6875 -5 "/></g></g></g><g fill="#000000" fill-opacity="1"><g transform="translate(610.413971, 235.271302)"><g><path d="M 11.359375 -2.6875 C 10.054688 -0.625 8.414062 0.40625 6.4375 0.40625 C 4.039062 0.40625 2.84375 -1.316406 2.84375 -4.765625 L 2.84375 -17.015625 L 0.6875 -17.015625 C 0.582031 -17.097656 0.53125 -17.191406 0.53125 -17.296875 C 0.53125 -17.515625 0.757812 -17.773438 1.21875 -18.078125 C 2.332031 -18.722656 3.648438 -20.171875 5.171875 -22.421875 C 5.546875 -22.910156 5.816406 -23.289062 5.984375 -23.5625 C 6.171875 -23.5625 6.265625 -23.382812 6.265625 -23.03125 L 6.265625 -18.3125 L 10.375 -18.3125 L 10.375 -17.015625 L 6.265625 -17.015625 L 6.265625 -5.375 C 6.265625 -4.070312 6.425781 -3.132812 6.75 -2.5625 C 7.082031 -1.988281 7.628906 -1.703125 8.390625 -1.703125 C 9.203125 -1.703125 10.015625 -2.179688 10.828125 -3.140625 Z M 11.359375 -2.6875 "/></g></g></g><g fill="#000000" fill-opacity="1"><g transform="translate(621.72709, 235.271302)"><g><path d="M 17.984375 -1.625 C 17.285156 -0.84375 16.671875 -0.304688 16.140625 -0.015625 C 15.609375 0.265625 15.003906 0.40625 14.328125 0.40625 C 13.484375 0.40625 12.863281 0.179688 12.46875 -0.265625 C 12.082031 -0.710938 11.832031 -1.476562 11.71875 -2.5625 C 9.382812 -0.582031 7.40625 0.40625 5.78125 0.40625 C 4.53125 0.40625 3.503906 0 2.703125 -0.8125 C 1.898438 -1.625 1.5 -2.671875 1.5 -3.953125 C 1.5 -5.410156 1.988281 -6.585938 2.96875 -7.484375 C 3.84375 -8.242188 4.71875 -8.847656 5.59375 -9.296875 C 6.476562 -9.742188 8.507812 -10.609375 11.6875 -11.890625 L 11.6875 -14.375 C 11.6875 -16.625 10.65625 -17.75 8.59375 -17.75 C 7.78125 -17.75 7.085938 -17.550781 6.515625 -17.15625 C 5.941406 -16.757812 5.65625 -16.289062 5.65625 -15.75 C 5.65625 -15.445312 5.695312 -15.125 5.78125 -14.78125 C 5.832031 -14.394531 5.859375 -14.175781 5.859375 -14.125 C 5.859375 -13.664062 5.675781 -13.265625 5.3125 -12.921875 C 4.945312 -12.585938 4.519531 -12.421875 4.03125 -12.421875 C 3.539062 -12.421875 3.125 -12.59375 2.78125 -12.9375 C 2.445312 -13.289062 2.28125 -13.703125 2.28125 -14.171875 C 2.28125 -15.273438 2.835938 -16.289062 3.953125 -17.21875 C 5.171875 -18.21875 6.894531 -18.71875 9.125 -18.71875 C 11.644531 -18.71875 13.335938 -17.929688 14.203125 -16.359375 C 14.722656 -15.515625 14.984375 -14.128906 14.984375 -12.203125 L 14.984375 -4.28125 C 14.984375 -3.382812 15.070312 -2.765625 15.25 -2.421875 C 15.425781 -2.078125 15.742188 -1.90625 16.203125 -1.90625 C 16.765625 -1.90625 17.359375 -2.164062 17.984375 -2.6875 Z M 11.6875 -5 L 11.6875 -10.90625 C 9.238281 -10.007812 7.523438 -9.140625 6.546875 -8.296875 C 5.578125 -7.460938 5.09375 -6.445312 5.09375 -5.25 L 5.09375 -5.09375 C 5.09375 -4.21875 5.34375 -3.472656 5.84375 -2.859375 C 6.34375 -2.253906 6.945312 -1.953125 7.65625 -1.953125 C 8.601562 -1.953125 9.59375 -2.25 10.625 -2.84375 C 11.0625 -3.113281 11.347656 -3.382812 11.484375 -3.65625 C 11.617188 -3.925781 11.6875 -4.375 11.6875 -5 Z M 11.6875 -5 "/></g></g></g><g fill="#000000" fill-opacity="1"><g transform="translate(639.795514, 235.271302)"><g><path d="M 11.59375 -10.046875 C 11.59375 -5.328125 10.15625 -1.207031 7.28125 2.3125 C 6.519531 3.269531 5.742188 4.078125 4.953125 4.734375 C 4.171875 5.398438 3.035156 6.222656 1.546875 7.203125 L 1.1875 6.546875 C 2.644531 5.359375 3.742188 4.316406 4.484375 3.421875 C 5.234375 2.523438 5.894531 1.4375 6.46875 0.15625 C 7.550781 -2.28125 8.09375 -5.644531 8.09375 -9.9375 C 8.09375 -13.863281 7.617188 -17.160156 6.671875 -19.828125 C 6.109375 -21.347656 5.457031 -22.582031 4.71875 -23.53125 C 3.988281 -24.476562 2.8125 -25.585938 1.1875 -26.859375 L 1.671875 -27.515625 C 3.484375 -26.398438 5.097656 -25.015625 6.515625 -23.359375 C 8.304688 -21.296875 9.597656 -19.210938 10.390625 -17.109375 C 11.191406 -15.015625 11.59375 -12.660156 11.59375 -10.046875 Z M 11.59375 -10.046875 "/></g></g></g></svg>