<svg xmlns="http://www.w3.org/2000/svg" xmlns:xlink="http://www.w3.org/1999/xlink" width="670" zoomAndPan="magnify" viewBox="0 0 502.5 516.74999" height="689" preserveAspectRatio="xMidYMid meet" version="1.0"><defs><g/><clipPath id="116df043ed"><path d="M 159 75.613281 L 231 75.613281 L 231 147 L 159 147 Z M 159 75.613281 " clip-rule="nonzero"/></clipPath><clipPath id="d3d96224c1"><path d="M 271 75.613281 L 342 75.613281 L 342 147 L 271 147 Z M 271 75.613281 " clip-rule="nonzero"/></clipPath><clipPath id="5dca853e6c"><path d="M 188 294 L 316 294 L 316 399.613281 L 188 399.613281 Z M 188 294 " clip-rule="nonzero"/></clipPath><clipPath id="bd0146d544"><path d="M 75.164062 251 L 201 251 L 201 358 L 75.164062 358 Z M 75.164062 251 " clip-rule="nonzero"/></clipPath><clipPath id="de55c61b99"><path d="M 302 251 L 427.664062 251 L 427.664062 358 L 302 358 Z M 302 251 " clip-rule="nonzero"/></clipPath><clipPath id="f929629a15"><path d="M 102 217 L 174 217 L 174 233 L 102 233 Z M 102 217 " clip-rule="nonzero"/></clipPath><clipPath id="aa59975880"><path d="M 157.265625 251.21875 L 101.148438 220.976562 L 117.871094 189.945312 L 173.988281 220.1875 Z M 157.265625 251.21875 " clip-rule="nonzero"/></clipPath><clipPath id="4b75b0f7f9"><path d="M 157.265625 251.21875 L 101.148438 220.976562 L 117.871094 189.945312 L 173.988281 220.1875 Z M 157.265625 251.21875 " clip-rule="nonzero"/></clipPath><clipPath id="aa5dd4a424"><path d="M 216 256 L 288 256 L 288 272 L 216 272 Z M 216 256 " clip-rule="nonzero"/></clipPath><clipPath id="6b96a5a65e"><path d="M 272.492188 289.078125 L 214.769531 262.019531 L 229.730469 230.101562 L 287.457031 257.160156 Z M 272.492188 289.078125 " clip-rule="nonzero"/></clipPath><clipPath id="f76c3d140c"><path d="M 272.492188 289.078125 L 214.769531 262.019531 L 229.730469 230.101562 L 287.457031 257.160156 Z M 272.492188 289.078125 " clip-rule="nonzero"/></clipPath><clipPath id="5366760087"><path d="M 330 217 L 401 217 L 401 233 L 330 233 Z M 330 217 " clip-rule="nonzero"/></clipPath><clipPath id="e3d69a8bd2"><path d="M 386.46875 249.804688 L 328.402344 223.484375 L 342.957031 191.378906 L 401.019531 217.699219 Z M 386.46875 249.804688 " clip-rule="nonzero"/></clipPath><clipPath id="efdda95bd1"><path d="M 386.46875 249.804688 L 328.402344 223.484375 L 342.957031 191.378906 L 401.019531 217.699219 Z M 386.46875 249.804688 " clip-rule="nonzero"/></clipPath><clipPath id="e096be9275"><path d="M 159 119 L 231 119 L 231 136 L 159 136 Z M 159 119 " clip-rule="nonzero"/></clipPath><clipPath id="d9e18a8d93"><path d="M 214.148438 153.746094 L 158.144531 123.285156 L 174.988281 92.320312 L 230.992188 122.777344 Z M 214.148438 153.746094 " clip-rule="nonzero"/></clipPath><clipPath id="ad5c760073"><path d="M 214.148438 153.746094 L 158.144531 123.285156 L 174.988281 92.320312 L 230.992188 122.777344 Z M 214.148438 153.746094 " clip-rule="nonzero"/></clipPath><clipPath id="520f761c6e"><path d="M 273 119 L 345 119 L 345 136 L 273 136 Z M 273 119 " clip-rule="nonzero"/></clipPath><clipPath id="bdb76468f3"><path d="M 330.335938 151.953125 L 271.917969 126.4375 L 286.023438 94.132812 L 344.445312 119.648438 Z M 330.335938 151.953125 " clip-rule="nonzero"/></clipPath><clipPath id="18ac6ffef8"><path d="M 330.335938 151.953125 L 271.917969 126.4375 L 286.023438 94.132812 L 344.445312 119.648438 Z M 330.335938 151.953125 " clip-rule="nonzero"/></clipPath></defs><g clip-path="url(#116df043ed)"><path fill="#000000" d="M 230.261719 110.832031 C 230.261719 111.984375 230.207031 113.136719 230.09375 114.285156 C 229.980469 115.433594 229.8125 116.570312 229.585938 117.703125 C 229.359375 118.835938 229.082031 119.953125 228.746094 121.054688 C 228.410156 122.160156 228.023438 123.242188 227.578125 124.308594 C 227.136719 125.375 226.644531 126.417969 226.101562 127.433594 C 225.554688 128.449219 224.964844 129.4375 224.324219 130.398438 C 223.679688 131.355469 222.992188 132.28125 222.261719 133.175781 C 221.527344 134.066406 220.753906 134.917969 219.9375 135.734375 C 219.121094 136.550781 218.269531 137.324219 217.375 138.054688 C 216.484375 138.789062 215.558594 139.472656 214.597656 140.113281 C 213.636719 140.753906 212.648438 141.347656 211.628906 141.890625 C 210.613281 142.433594 209.570312 142.925781 208.503906 143.367188 C 207.4375 143.808594 206.351562 144.199219 205.246094 144.535156 C 204.140625 144.867188 203.023438 145.148438 201.890625 145.375 C 200.757812 145.597656 199.617188 145.765625 198.46875 145.878906 C 197.320312 145.992188 196.167969 146.050781 195.011719 146.050781 C 193.859375 146.050781 192.707031 145.992188 191.558594 145.878906 C 190.410156 145.765625 189.269531 145.597656 188.136719 145.371094 C 187.003906 145.148438 185.886719 144.867188 184.78125 144.535156 C 183.675781 144.199219 182.589844 143.808594 181.523438 143.367188 C 180.457031 142.925781 179.414062 142.433594 178.394531 141.890625 C 177.378906 141.347656 176.390625 140.753906 175.429688 140.113281 C 174.46875 139.472656 173.542969 138.789062 172.652344 138.054688 C 171.757812 137.324219 170.902344 136.550781 170.085938 135.734375 C 169.269531 134.917969 168.496094 134.066406 167.765625 133.175781 C 167.03125 132.28125 166.34375 131.355469 165.703125 130.398438 C 165.0625 129.4375 164.46875 128.449219 163.925781 127.433594 C 163.382812 126.417969 162.886719 125.375 162.445312 124.308594 C 162.003906 123.242188 161.617188 122.160156 161.28125 121.054688 C 160.945312 119.953125 160.664062 118.835938 160.441406 117.703125 C 160.214844 116.570312 160.046875 115.433594 159.933594 114.285156 C 159.820312 113.136719 159.761719 111.984375 159.761719 110.832031 C 159.761719 109.679688 159.820312 108.527344 159.933594 107.378906 C 160.046875 106.234375 160.214844 105.09375 160.441406 103.960938 C 160.664062 102.832031 160.945312 101.714844 161.28125 100.609375 C 161.617188 99.503906 162.003906 98.421875 162.445312 97.355469 C 162.886719 96.289062 163.382812 95.25 163.925781 94.230469 C 164.46875 93.214844 165.0625 92.226562 165.703125 91.265625 C 166.34375 90.308594 167.03125 89.382812 167.765625 88.492188 C 168.496094 87.597656 169.269531 86.746094 170.085938 85.929688 C 170.902344 85.113281 171.757812 84.339844 172.652344 83.609375 C 173.542969 82.878906 174.46875 82.191406 175.429688 81.550781 C 176.390625 80.910156 177.378906 80.316406 178.394531 79.773438 C 179.414062 79.230469 180.457031 78.738281 181.523438 78.296875 C 182.589844 77.855469 183.675781 77.464844 184.78125 77.132812 C 185.886719 76.796875 187.003906 76.515625 188.136719 76.292969 C 189.269531 76.066406 190.410156 75.898438 191.558594 75.785156 C 192.707031 75.671875 193.859375 75.617188 195.011719 75.617188 C 196.167969 75.617188 197.320312 75.671875 198.46875 75.785156 C 199.617188 75.898438 200.757812 76.066406 201.890625 76.292969 C 203.023438 76.515625 204.140625 76.796875 205.246094 77.132812 C 206.351562 77.464844 207.4375 77.855469 208.503906 78.296875 C 209.570312 78.738281 210.613281 79.230469 211.628906 79.773438 C 212.648438 80.316406 213.636719 80.910156 214.597656 81.550781 C 215.558594 82.191406 216.484375 82.878906 217.375 83.609375 C 218.269531 84.339844 219.121094 85.113281 219.9375 85.929688 C 220.753906 86.746094 221.527344 87.597656 222.261719 88.492188 C 222.992188 89.382812 223.679688 90.308594 224.324219 91.265625 C 224.964844 92.226562 225.554688 93.214844 226.101562 94.230469 C 226.644531 95.25 227.136719 96.289062 227.578125 97.355469 C 228.023438 98.421875 228.410156 99.503906 228.746094 100.609375 C 229.082031 101.714844 229.359375 102.832031 229.585938 103.960938 C 229.8125 105.09375 229.980469 106.234375 230.09375 107.378906 C 230.207031 108.527344 230.261719 109.679688 230.261719 110.832031 Z M 230.261719 110.832031 " fill-opacity="1" fill-rule="nonzero"/></g><g clip-path="url(#d3d96224c1)"><path fill="#000000" d="M 341.652344 110.832031 C 341.652344 111.984375 341.597656 113.136719 341.484375 114.285156 C 341.371094 115.433594 341.199219 116.570312 340.976562 117.703125 C 340.75 118.835938 340.46875 119.953125 340.136719 121.054688 C 339.800781 122.160156 339.410156 123.242188 338.96875 124.308594 C 338.527344 125.375 338.035156 126.417969 337.492188 127.433594 C 336.945312 128.449219 336.355469 129.4375 335.710938 130.398438 C 335.070312 131.355469 334.382812 132.28125 333.652344 133.175781 C 332.917969 134.066406 332.144531 134.917969 331.328125 135.734375 C 330.511719 136.550781 329.65625 137.324219 328.765625 138.054688 C 327.871094 138.789062 326.945312 139.472656 325.988281 140.113281 C 325.027344 140.753906 324.039062 141.347656 323.019531 141.890625 C 322 142.433594 320.960938 142.925781 319.890625 143.367188 C 318.824219 143.808594 317.742188 144.199219 316.636719 144.535156 C 315.53125 144.867188 314.414062 145.148438 313.28125 145.375 C 312.148438 145.597656 311.007812 145.765625 309.859375 145.878906 C 308.710938 145.992188 307.558594 146.050781 306.402344 146.050781 C 305.25 146.050781 304.097656 145.992188 302.949219 145.878906 C 301.800781 145.765625 300.660156 145.597656 299.527344 145.371094 C 298.394531 145.148438 297.273438 144.867188 296.171875 144.535156 C 295.066406 144.199219 293.980469 143.808594 292.914062 143.367188 C 291.847656 142.925781 290.804688 142.433594 289.785156 141.890625 C 288.769531 141.347656 287.777344 140.753906 286.820312 140.113281 C 285.859375 139.472656 284.933594 138.789062 284.039062 138.054688 C 283.148438 137.324219 282.292969 136.550781 281.476562 135.734375 C 280.660156 134.917969 279.886719 134.066406 279.15625 133.175781 C 278.421875 132.28125 277.734375 131.355469 277.09375 130.398438 C 276.453125 129.4375 275.859375 128.449219 275.316406 127.433594 C 274.769531 126.417969 274.277344 125.375 273.835938 124.308594 C 273.394531 123.242188 273.007812 122.160156 272.671875 121.054688 C 272.335938 119.953125 272.054688 118.835938 271.832031 117.703125 C 271.605469 116.570312 271.4375 115.433594 271.324219 114.285156 C 271.210938 113.136719 271.152344 111.984375 271.152344 110.832031 C 271.152344 109.679688 271.210938 108.527344 271.324219 107.378906 C 271.4375 106.234375 271.605469 105.09375 271.832031 103.960938 C 272.054688 102.832031 272.335938 101.714844 272.671875 100.609375 C 273.007812 99.503906 273.394531 98.421875 273.835938 97.355469 C 274.277344 96.289062 274.769531 95.25 275.316406 94.230469 C 275.859375 93.214844 276.453125 92.226562 277.09375 91.265625 C 277.734375 90.308594 278.421875 89.382812 279.15625 88.492188 C 279.886719 87.597656 280.660156 86.746094 281.476562 85.929688 C 282.292969 85.113281 283.148438 84.339844 284.039062 83.609375 C 284.933594 82.878906 285.859375 82.191406 286.820312 81.550781 C 287.777344 80.910156 288.769531 80.316406 289.785156 79.773438 C 290.804688 79.230469 291.847656 78.738281 292.914062 78.296875 C 293.980469 77.855469 295.066406 77.464844 296.171875 77.132812 C 297.273438 76.796875 298.394531 76.515625 299.527344 76.292969 C 300.660156 76.066406 301.800781 75.898438 302.949219 75.785156 C 304.097656 75.671875 305.25 75.617188 306.402344 75.617188 C 307.558594 75.617188 308.710938 75.671875 309.859375 75.785156 C 311.007812 75.898438 312.148438 76.066406 313.28125 76.292969 C 314.414062 76.515625 315.53125 76.796875 316.636719 77.132812 C 317.742188 77.464844 318.824219 77.855469 319.890625 78.296875 C 320.960938 78.738281 322 79.230469 323.019531 79.773438 C 324.039062 80.316406 325.027344 80.910156 325.988281 81.550781 C 326.945312 82.191406 327.871094 82.878906 328.765625 83.609375 C 329.65625 84.339844 330.511719 85.113281 331.328125 85.929688 C 332.144531 86.746094 332.917969 87.597656 333.652344 88.492188 C 334.382812 89.382812 335.070312 90.308594 335.710938 91.265625 C 336.355469 92.226562 336.945312 93.214844 337.492188 94.230469 C 338.035156 95.25 338.527344 96.289062 338.96875 97.355469 C 339.410156 98.421875 339.800781 99.503906 340.136719 100.609375 C 340.46875 101.714844 340.75 102.832031 340.976562 103.960938 C 341.199219 105.09375 341.371094 106.234375 341.484375 107.378906 C 341.597656 108.527344 341.652344 109.679688 341.652344 110.832031 Z M 341.652344 110.832031 " fill-opacity="1" fill-rule="nonzero"/></g><path fill="#000000" d="M 293.902344 244.847656 C 293.902344 246.230469 293.835938 247.613281 293.699219 248.992188 C 293.5625 250.367188 293.359375 251.734375 293.089844 253.09375 C 292.820312 254.449219 292.484375 255.792969 292.082031 257.117188 C 291.679688 258.441406 291.214844 259.742188 290.683594 261.019531 C 290.152344 262.300781 289.5625 263.550781 288.910156 264.769531 C 288.253906 265.988281 287.542969 267.175781 286.773438 268.328125 C 286.003906 269.476562 285.179688 270.589844 284.300781 271.65625 C 283.421875 272.726562 282.492188 273.753906 281.515625 274.730469 C 280.535156 275.710938 279.507812 276.636719 278.4375 277.515625 C 277.367188 278.394531 276.257812 279.21875 275.105469 279.988281 C 273.953125 280.753906 272.765625 281.464844 271.542969 282.117188 C 270.320312 282.769531 269.070312 283.363281 267.789062 283.890625 C 266.511719 284.421875 265.207031 284.886719 263.882812 285.289062 C 262.558594 285.691406 261.214844 286.027344 259.855469 286.296875 C 258.496094 286.566406 257.128906 286.769531 255.75 286.90625 C 254.371094 287.039062 252.988281 287.109375 251.601562 287.109375 C 250.21875 287.109375 248.835938 287.039062 247.457031 286.90625 C 246.078125 286.769531 244.710938 286.566406 243.351562 286.296875 C 241.992188 286.027344 240.648438 285.691406 239.324219 285.289062 C 238 284.886719 236.695312 284.421875 235.414062 283.890625 C 234.136719 283.363281 232.886719 282.769531 231.664062 282.117188 C 230.441406 281.464844 229.253906 280.753906 228.101562 279.988281 C 226.949219 279.21875 225.839844 278.394531 224.769531 277.515625 C 223.699219 276.636719 222.671875 275.710938 221.691406 274.730469 C 220.714844 273.753906 219.785156 272.726562 218.90625 271.65625 C 218.027344 270.589844 217.203125 269.476562 216.433594 268.328125 C 215.664062 267.175781 214.949219 265.988281 214.296875 264.769531 C 213.644531 263.550781 213.054688 262.300781 212.523438 261.019531 C 211.992188 259.742188 211.527344 258.441406 211.125 257.117188 C 210.722656 255.792969 210.386719 254.449219 210.117188 253.09375 C 209.847656 251.734375 209.644531 250.367188 209.507812 248.992188 C 209.371094 247.613281 209.304688 246.230469 209.304688 244.847656 C 209.304688 243.464844 209.371094 242.082031 209.507812 240.707031 C 209.644531 239.328125 209.847656 237.960938 210.117188 236.601562 C 210.386719 235.246094 210.722656 233.90625 211.125 232.582031 C 211.527344 231.257812 211.992188 229.953125 212.523438 228.675781 C 213.054688 227.398438 213.644531 226.148438 214.296875 224.925781 C 214.949219 223.707031 215.664062 222.519531 216.433594 221.371094 C 217.203125 220.21875 218.027344 219.109375 218.90625 218.039062 C 219.785156 216.96875 220.714844 215.945312 221.691406 214.964844 C 222.671875 213.988281 223.699219 213.058594 224.769531 212.179688 C 225.839844 211.300781 226.949219 210.480469 228.101562 209.710938 C 229.253906 208.941406 230.441406 208.230469 231.664062 207.578125 C 232.886719 206.925781 234.136719 206.332031 235.414062 205.804688 C 236.695312 205.273438 238 204.808594 239.324219 204.40625 C 240.648438 204.003906 241.992188 203.667969 243.351562 203.398438 C 244.710938 203.128906 246.078125 202.925781 247.457031 202.789062 C 248.835938 202.65625 250.21875 202.585938 251.601562 202.585938 C 252.988281 202.585938 254.371094 202.65625 255.75 202.789062 C 257.128906 202.925781 258.496094 203.128906 259.855469 203.398438 C 261.214844 203.667969 262.558594 204.003906 263.882812 204.40625 C 265.207031 204.808594 266.511719 205.273438 267.789062 205.804688 C 269.070312 206.332031 270.320312 206.925781 271.542969 207.578125 C 272.765625 208.230469 273.953125 208.941406 275.105469 209.710938 C 276.257812 210.480469 277.367188 211.300781 278.4375 212.179688 C 279.507812 213.058594 280.535156 213.988281 281.515625 214.964844 C 282.492188 215.945312 283.421875 216.96875 284.300781 218.039062 C 285.179688 219.109375 286.003906 220.21875 286.773438 221.371094 C 287.542969 222.519531 288.253906 223.707031 288.910156 224.925781 C 289.5625 226.148438 290.152344 227.398438 290.683594 228.675781 C 291.214844 229.953125 291.679688 231.257812 292.082031 232.582031 C 292.484375 233.90625 292.820312 235.246094 293.089844 236.601562 C 293.359375 237.960938 293.5625 239.328125 293.699219 240.707031 C 293.835938 242.082031 293.902344 243.464844 293.902344 244.847656 Z M 293.902344 244.847656 " fill-opacity="1" fill-rule="nonzero"/><g clip-path="url(#5dca853e6c)"><path fill="#000000" d="M 251.601562 399.804688 C 208.203125 399.804688 192.609375 389.054688 190.972656 387.828125 C 189.195312 386.503906 188.152344 384.414062 188.152344 382.195312 L 188.152344 357.542969 C 188.152344 322.585938 216.621094 294.152344 251.601562 294.152344 C 286.59375 294.152344 315.054688 322.585938 315.054688 357.542969 L 315.054688 382.195312 C 315.054688 384.40625 314.011719 386.5 312.234375 387.828125 C 310.605469 389.054688 295.003906 399.804688 251.601562 399.804688 Z M 251.601562 399.804688 " fill-opacity="1" fill-rule="nonzero"/></g><g clip-path="url(#bd0146d544)"><path fill="#000000" d="M 200.109375 299.773438 C 193.230469 272.210938 168.300781 251.703125 138.613281 251.703125 C 103.632812 251.703125 75.164062 280.136719 75.164062 315.09375 L 75.164062 339.746094 C 75.164062 341.957031 76.207031 344.046875 77.984375 345.378906 C 79.617188 346.605469 95.214844 357.351562 138.613281 357.351562 C 153.652344 357.351562 165.28125 356.050781 174.222656 354.308594 C 175.117188 332.652344 184.925781 313.296875 200.109375 299.773438 Z M 200.109375 299.773438 " fill-opacity="1" fill-rule="nonzero"/></g><g clip-path="url(#de55c61b99)"><path fill="#000000" d="M 364.214844 251.703125 C 334.625 251.703125 309.773438 272.070312 302.785156 299.492188 C 318.167969 313.042969 328.109375 332.546875 329 354.386719 C 337.886719 356.085938 349.394531 357.351562 364.214844 357.351562 C 407.605469 357.351562 423.207031 346.605469 424.84375 345.378906 C 426.621094 344.054688 427.664062 341.964844 427.664062 339.746094 L 427.664062 315.09375 C 427.664062 280.136719 399.203125 251.703125 364.214844 251.703125 Z M 364.214844 251.703125 " fill-opacity="1" fill-rule="nonzero"/></g><path fill="#000000" d="M 406.703125 202.585938 C 406.703125 203.972656 406.636719 205.351562 406.5 206.730469 C 406.363281 208.105469 406.160156 209.472656 405.890625 210.832031 C 405.621094 212.191406 405.285156 213.53125 404.882812 214.855469 C 404.480469 216.179688 404.011719 217.480469 403.484375 218.761719 C 402.953125 220.039062 402.363281 221.289062 401.707031 222.507812 C 401.054688 223.730469 400.34375 224.914062 399.574219 226.066406 C 398.804688 227.21875 397.980469 228.328125 397.101562 229.398438 C 396.222656 230.46875 395.292969 231.492188 394.3125 232.46875 C 393.335938 233.449219 392.308594 234.378906 391.238281 235.253906 C 390.167969 236.132812 389.054688 236.957031 387.902344 237.726562 C 386.753906 238.496094 385.566406 239.207031 384.34375 239.859375 C 383.121094 240.511719 381.871094 241.101562 380.589844 241.632812 C 379.3125 242.160156 378.007812 242.625 376.683594 243.027344 C 375.355469 243.429688 374.015625 243.765625 372.65625 244.035156 C 371.296875 244.304688 369.929688 244.507812 368.550781 244.644531 C 367.171875 244.78125 365.789062 244.847656 364.402344 244.847656 C 363.019531 244.847656 361.636719 244.78125 360.257812 244.644531 C 358.878906 244.507812 357.511719 244.304688 356.152344 244.035156 C 354.792969 243.765625 353.449219 243.429688 352.125 243.027344 C 350.796875 242.625 349.496094 242.160156 348.214844 241.632812 C 346.9375 241.101562 345.683594 240.511719 344.464844 239.859375 C 343.242188 239.207031 342.054688 238.496094 340.902344 237.726562 C 339.75 236.957031 338.640625 236.132812 337.570312 235.253906 C 336.496094 234.378906 335.472656 233.449219 334.492188 232.46875 C 333.511719 231.492188 332.582031 230.46875 331.703125 229.398438 C 330.824219 228.328125 330 227.21875 329.230469 226.066406 C 328.460938 224.914062 327.75 223.730469 327.097656 222.507812 C 326.445312 221.289062 325.851562 220.039062 325.324219 218.761719 C 324.792969 217.480469 324.328125 216.179688 323.925781 214.855469 C 323.523438 213.53125 323.1875 212.191406 322.917969 210.832031 C 322.644531 209.472656 322.441406 208.105469 322.308594 206.730469 C 322.171875 205.351562 322.101562 203.972656 322.101562 202.585938 C 322.101562 201.203125 322.171875 199.824219 322.308594 198.445312 C 322.441406 197.066406 322.644531 195.699219 322.917969 194.34375 C 323.1875 192.984375 323.523438 191.644531 323.925781 190.320312 C 324.328125 188.996094 324.792969 187.695312 325.324219 186.414062 C 325.851562 185.136719 326.445312 183.886719 327.097656 182.664062 C 327.75 181.445312 328.460938 180.257812 329.230469 179.109375 C 330 177.957031 330.824219 176.847656 331.703125 175.777344 C 332.582031 174.707031 333.511719 173.683594 334.492188 172.703125 C 335.472656 171.726562 336.496094 170.796875 337.570312 169.917969 C 338.640625 169.042969 339.75 168.21875 340.902344 167.449219 C 342.054688 166.679688 343.242188 165.96875 344.464844 165.316406 C 345.683594 164.664062 346.9375 164.074219 348.214844 163.542969 C 349.496094 163.015625 350.796875 162.546875 352.125 162.148438 C 353.449219 161.746094 354.792969 161.410156 356.152344 161.140625 C 357.511719 160.867188 358.878906 160.664062 360.257812 160.53125 C 361.636719 160.394531 363.019531 160.328125 364.402344 160.328125 C 365.789062 160.328125 367.171875 160.394531 368.550781 160.53125 C 369.929688 160.664062 371.296875 160.867188 372.65625 161.140625 C 374.015625 161.410156 375.355469 161.746094 376.683594 162.148438 C 378.007812 162.546875 379.3125 163.015625 380.589844 163.542969 C 381.871094 164.074219 383.121094 164.664062 384.34375 165.316406 C 385.566406 165.96875 386.753906 166.679688 387.902344 167.449219 C 389.054688 168.21875 390.167969 169.042969 391.238281 169.917969 C 392.308594 170.796875 393.335938 171.726562 394.3125 172.703125 C 395.292969 173.683594 396.222656 174.707031 397.101562 175.777344 C 397.980469 176.847656 398.804688 177.957031 399.574219 179.109375 C 400.34375 180.257812 401.054688 181.445312 401.707031 182.664062 C 402.363281 183.886719 402.953125 185.136719 403.484375 186.414062 C 404.011719 187.695312 404.480469 188.996094 404.882812 190.320312 C 405.285156 191.644531 405.621094 192.984375 405.890625 194.34375 C 406.160156 195.699219 406.363281 197.066406 406.5 198.445312 C 406.636719 199.824219 406.703125 201.203125 406.703125 202.585938 Z M 406.703125 202.585938 " fill-opacity="1" fill-rule="nonzero"/><path fill="#000000" d="M 181.101562 202.585938 C 181.101562 203.972656 181.035156 205.351562 180.898438 206.730469 C 180.765625 208.105469 180.5625 209.472656 180.289062 210.832031 C 180.019531 212.191406 179.683594 213.53125 179.28125 214.855469 C 178.878906 216.179688 178.414062 217.480469 177.882812 218.761719 C 177.351562 220.039062 176.761719 221.289062 176.109375 222.507812 C 175.457031 223.730469 174.746094 224.914062 173.972656 226.066406 C 173.203125 227.21875 172.378906 228.328125 171.5 229.398438 C 170.621094 230.46875 169.695312 231.492188 168.714844 232.46875 C 167.734375 233.449219 166.710938 234.378906 165.636719 235.253906 C 164.566406 236.132812 163.457031 236.957031 162.304688 237.726562 C 161.152344 238.496094 159.964844 239.207031 158.742188 239.859375 C 157.523438 240.511719 156.269531 241.101562 154.992188 241.632812 C 153.710938 242.160156 152.40625 242.625 151.082031 243.027344 C 149.757812 243.429688 148.414062 243.765625 147.054688 244.035156 C 145.695312 244.304688 144.328125 244.507812 142.949219 244.644531 C 141.570312 244.78125 140.1875 244.847656 138.804688 244.847656 C 137.417969 244.847656 136.035156 244.78125 134.65625 244.644531 C 133.277344 244.507812 131.910156 244.304688 130.550781 244.035156 C 129.191406 243.765625 127.851562 243.429688 126.523438 243.027344 C 125.199219 242.625 123.894531 242.160156 122.617188 241.632812 C 121.335938 241.101562 120.085938 240.511719 118.863281 239.859375 C 117.640625 239.207031 116.453125 238.496094 115.304688 237.726562 C 114.152344 236.957031 113.039062 236.132812 111.96875 235.253906 C 110.898438 234.378906 109.871094 233.449219 108.894531 232.46875 C 107.914062 231.492188 106.984375 230.46875 106.105469 229.398438 C 105.226562 228.328125 104.402344 227.21875 103.632812 226.066406 C 102.863281 224.914062 102.152344 223.730469 101.5 222.507812 C 100.84375 221.289062 100.253906 220.039062 99.722656 218.761719 C 99.191406 217.480469 98.726562 216.179688 98.324219 214.855469 C 97.921875 213.53125 97.585938 212.191406 97.316406 210.832031 C 97.046875 209.472656 96.84375 208.105469 96.707031 206.730469 C 96.570312 205.351562 96.503906 203.972656 96.503906 202.585938 C 96.503906 201.203125 96.570312 199.824219 96.707031 198.445312 C 96.84375 197.066406 97.046875 195.699219 97.316406 194.34375 C 97.585938 192.984375 97.921875 191.644531 98.324219 190.320312 C 98.726562 188.996094 99.191406 187.695312 99.722656 186.414062 C 100.253906 185.136719 100.84375 183.886719 101.5 182.664062 C 102.152344 181.445312 102.863281 180.257812 103.632812 179.109375 C 104.402344 177.957031 105.226562 176.847656 106.105469 175.777344 C 106.984375 174.707031 107.914062 173.683594 108.894531 172.703125 C 109.871094 171.726562 110.898438 170.796875 111.96875 169.917969 C 113.039062 169.042969 114.152344 168.21875 115.304688 167.449219 C 116.453125 166.679688 117.640625 165.96875 118.863281 165.316406 C 120.085938 164.664062 121.335938 164.074219 122.617188 163.542969 C 123.894531 163.015625 125.199219 162.546875 126.523438 162.148438 C 127.851562 161.746094 129.191406 161.410156 130.550781 161.140625 C 131.910156 160.867188 133.277344 160.664062 134.65625 160.53125 C 136.035156 160.394531 137.417969 160.328125 138.804688 160.328125 C 140.1875 160.328125 141.570312 160.394531 142.949219 160.53125 C 144.328125 160.664062 145.695312 160.867188 147.054688 161.140625 C 148.414062 161.410156 149.757812 161.746094 151.082031 162.148438 C 152.40625 162.546875 153.710938 163.015625 154.992188 163.542969 C 156.269531 164.074219 157.523438 164.664062 158.742188 165.316406 C 159.964844 165.96875 161.152344 166.679688 162.304688 167.449219 C 163.457031 168.21875 164.566406 169.042969 165.636719 169.917969 C 166.710938 170.796875 167.734375 171.726562 168.714844 172.703125 C 169.695312 173.683594 170.621094 174.707031 171.5 175.777344 C 172.378906 176.847656 173.203125 177.957031 173.972656 179.109375 C 174.746094 180.257812 175.457031 181.445312 176.109375 182.664062 C 176.761719 183.886719 177.351562 185.136719 177.882812 186.414062 C 178.414062 187.695312 178.878906 188.996094 179.28125 190.320312 C 179.683594 191.644531 180.019531 192.984375 180.289062 194.34375 C 180.5625 195.699219 180.765625 197.066406 180.898438 198.445312 C 181.035156 199.824219 181.101562 201.203125 181.101562 202.585938 Z M 181.101562 202.585938 " fill-opacity="1" fill-rule="nonzero"/><path fill="#000000" d="M 308.003906 244.847656 C 308.003906 252.742188 306.359375 260.257812 303.414062 267.078125 C 310.289062 258.378906 318.964844 251.292969 328.792969 246.230469 C 316.117188 235.890625 308.011719 220.167969 308.011719 202.585938 C 308.011719 184.902344 316.222656 169.117188 329.019531 158.777344 C 322.28125 155.183594 314.671875 153.09375 306.402344 153.09375 C 283.566406 153.09375 264.710938 168.195312 258.957031 189.035156 C 286.578125 192.65625 308.003906 216.273438 308.003906 244.847656 Z M 308.003906 244.847656 " fill-opacity="1" fill-rule="nonzero"/><path fill="#000000" d="M 195.203125 202.585938 C 195.203125 220.230469 187.023438 236 174.273438 246.339844 C 184.535156 251.667969 193.503906 259.222656 200.484375 268.5 C 197.128906 261.300781 195.203125 253.300781 195.203125 244.847656 C 195.203125 216.863281 215.746094 193.648438 242.535156 189.296875 C 236.875 168.320312 217.945312 153.09375 195.011719 153.09375 C 187.171875 153.09375 179.90625 154.953125 173.425781 158.207031 C 186.652344 168.523438 195.203125 184.5625 195.203125 202.585938 Z M 195.203125 202.585938 " fill-opacity="1" fill-rule="nonzero"/><g clip-path="url(#f929629a15)"><g clip-path="url(#aa59975880)"><g clip-path="url(#4b75b0f7f9)"><path fill="#ffffff" d="M 173.078125 219.738281 C 173.226562 219.820312 173.347656 219.933594 173.441406 220.078125 C 173.53125 220.226562 173.582031 220.382812 173.589844 220.554688 C 173.59375 220.726562 173.558594 220.890625 173.480469 221.042969 C 173.402344 221.195312 173.292969 221.320312 173.148438 221.414062 C 164 227.445312 154.628906 231.070312 145.304688 232.183594 C 137.765625 233.085938 130.378906 232.378906 123.140625 230.0625 C 110.839844 226.152344 103.558594 219.097656 103.253906 218.796875 C 103.0625 218.609375 102.964844 218.378906 102.960938 218.109375 C 102.957031 217.839844 103.050781 217.605469 103.242188 217.414062 C 103.429688 217.222656 103.660156 217.125 103.929688 217.121094 C 104.199219 217.121094 104.433594 217.214844 104.625 217.402344 C 104.722656 217.5 111.953125 224.472656 123.816406 228.222656 C 134.746094 231.679688 151.992188 233.015625 172.070312 219.78125 C 172.398438 219.566406 172.734375 219.550781 173.078125 219.738281 Z M 173.078125 219.738281 " fill-opacity="1" fill-rule="nonzero"/></g></g></g><g fill="#000000" fill-opacity="1"><g transform="translate(144.681486, 436.067918)"><g><path d="M 19.109375 -13.1875 C 18.554688 -13.070312 18.179688 -12.929688 17.984375 -12.765625 C 17.785156 -12.609375 17.59375 -12.257812 17.40625 -11.71875 L 13.21875 0.21875 L 12.921875 0.21875 L 9.640625 -8.453125 L 6.484375 0.21875 L 6.171875 0.21875 L 2.21875 -10.78125 C 1.832031 -11.75 1.507812 -12.375 1.25 -12.65625 C 1 -12.945312 0.617188 -13.125 0.109375 -13.1875 L 0.109375 -13.578125 L 5.125 -13.578125 L 5.125 -13.1875 C 4.601562 -13.15625 4.25 -13.09375 4.0625 -13 C 3.882812 -12.914062 3.796875 -12.757812 3.796875 -12.53125 C 3.796875 -12.28125 3.867188 -11.960938 4.015625 -11.578125 L 6.96875 -3.875 L 9.15625 -9.65625 L 8.484375 -11.34375 C 8.128906 -12.15625 7.84375 -12.660156 7.625 -12.859375 C 7.40625 -13.054688 7.003906 -13.164062 6.421875 -13.1875 L 6.421875 -13.578125 L 11.890625 -13.578125 L 11.890625 -13.1875 C 10.835938 -13.164062 10.3125 -12.925781 10.3125 -12.46875 C 10.3125 -12.25 10.414062 -11.898438 10.625 -11.421875 L 10.859375 -10.796875 L 13.578125 -3.8125 L 16.140625 -10.765625 C 16.359375 -11.378906 16.46875 -11.890625 16.46875 -12.296875 C 16.46875 -12.566406 16.359375 -12.765625 16.140625 -12.890625 C 15.929688 -13.023438 15.566406 -13.125 15.046875 -13.1875 L 15.046875 -13.578125 L 19.109375 -13.578125 Z M 19.109375 -13.1875 "/></g></g></g><g fill="#000000" fill-opacity="1"><g transform="translate(164.037226, 436.067918)"><g><path d="M 9.984375 0 L 5.640625 0 L 5.640625 -0.3125 C 6.222656 -0.363281 6.597656 -0.5 6.765625 -0.71875 C 6.941406 -0.9375 7.03125 -1.394531 7.03125 -2.09375 L 7.03125 -6.15625 C 7.03125 -7.601562 6.519531 -8.328125 5.5 -8.328125 C 5.101562 -8.328125 4.726562 -8.226562 4.375 -8.03125 C 4.03125 -7.832031 3.644531 -7.5 3.21875 -7.03125 L 3.21875 -2.09375 C 3.21875 -1.382812 3.296875 -0.925781 3.453125 -0.71875 C 3.617188 -0.507812 4.003906 -0.375 4.609375 -0.3125 L 4.609375 0 L 0.1875 0 L 0.1875 -0.3125 C 0.769531 -0.394531 1.132812 -0.53125 1.28125 -0.71875 C 1.425781 -0.90625 1.5 -1.363281 1.5 -2.09375 L 1.5 -11.75 C 1.5 -12.1875 1.429688 -12.46875 1.296875 -12.59375 C 1.171875 -12.726562 0.890625 -12.796875 0.453125 -12.796875 C 0.335938 -12.796875 0.253906 -12.785156 0.203125 -12.765625 L 0.203125 -13.09375 L 0.765625 -13.265625 C 1.691406 -13.523438 2.472656 -13.769531 3.109375 -14 L 3.21875 -13.9375 L 3.21875 -7.703125 C 3.695312 -8.316406 4.164062 -8.757812 4.625 -9.03125 C 5.09375 -9.300781 5.628906 -9.4375 6.234375 -9.4375 C 7.910156 -9.4375 8.75 -8.347656 8.75 -6.171875 L 8.75 -2.09375 C 8.75 -1.382812 8.8125 -0.9375 8.9375 -0.75 C 9.070312 -0.5625 9.421875 -0.414062 9.984375 -0.3125 Z M 9.984375 0 "/></g></g></g><g fill="#000000" fill-opacity="1"><g transform="translate(174.289203, 436.067918)"><g><path d="M 9.0625 -0.8125 C 8.707031 -0.414062 8.394531 -0.144531 8.125 0 C 7.863281 0.132812 7.5625 0.203125 7.21875 0.203125 C 6.789062 0.203125 6.476562 0.09375 6.28125 -0.125 C 6.082031 -0.351562 5.957031 -0.742188 5.90625 -1.296875 C 4.726562 -0.296875 3.726562 0.203125 2.90625 0.203125 C 2.28125 0.203125 1.765625 0 1.359375 -0.40625 C 0.960938 -0.820312 0.765625 -1.347656 0.765625 -1.984375 C 0.765625 -2.722656 1.007812 -3.316406 1.5 -3.765625 C 1.9375 -4.148438 2.375 -4.453125 2.8125 -4.671875 C 3.257812 -4.898438 4.285156 -5.335938 5.890625 -5.984375 L 5.890625 -7.234375 C 5.890625 -8.367188 5.367188 -8.9375 4.328125 -8.9375 C 3.910156 -8.9375 3.554688 -8.835938 3.265625 -8.640625 C 2.984375 -8.441406 2.84375 -8.207031 2.84375 -7.9375 C 2.84375 -7.78125 2.863281 -7.613281 2.90625 -7.4375 C 2.9375 -7.25 2.953125 -7.140625 2.953125 -7.109375 C 2.953125 -6.878906 2.859375 -6.675781 2.671875 -6.5 C 2.492188 -6.332031 2.28125 -6.25 2.03125 -6.25 C 1.78125 -6.25 1.566406 -6.335938 1.390625 -6.515625 C 1.222656 -6.691406 1.140625 -6.898438 1.140625 -7.140625 C 1.140625 -7.691406 1.421875 -8.203125 1.984375 -8.671875 C 2.597656 -9.179688 3.46875 -9.4375 4.59375 -9.4375 C 5.863281 -9.4375 6.71875 -9.035156 7.15625 -8.234375 C 7.414062 -7.816406 7.546875 -7.125 7.546875 -6.15625 L 7.546875 -2.15625 C 7.546875 -1.695312 7.585938 -1.382812 7.671875 -1.21875 C 7.765625 -1.050781 7.925781 -0.96875 8.15625 -0.96875 C 8.445312 -0.96875 8.75 -1.097656 9.0625 -1.359375 Z M 5.890625 -2.515625 L 5.890625 -5.5 C 4.648438 -5.039062 3.785156 -4.597656 3.296875 -4.171875 C 2.804688 -3.753906 2.5625 -3.242188 2.5625 -2.640625 L 2.5625 -2.5625 C 2.5625 -2.125 2.6875 -1.75 2.9375 -1.4375 C 3.195312 -1.132812 3.503906 -0.984375 3.859375 -0.984375 C 4.335938 -0.984375 4.832031 -1.132812 5.34375 -1.4375 C 5.5625 -1.570312 5.707031 -1.707031 5.78125 -1.84375 C 5.851562 -1.976562 5.890625 -2.203125 5.890625 -2.515625 Z M 5.890625 -2.515625 "/></g></g></g><g fill="#000000" fill-opacity="1"><g transform="translate(183.392966, 436.067918)"><g><path d="M 5.71875 -1.359375 C 5.0625 -0.316406 4.234375 0.203125 3.234375 0.203125 C 2.035156 0.203125 1.4375 -0.664062 1.4375 -2.40625 L 1.4375 -8.5625 L 0.34375 -8.5625 C 0.289062 -8.601562 0.265625 -8.65625 0.265625 -8.71875 C 0.265625 -8.820312 0.378906 -8.953125 0.609375 -9.109375 C 1.171875 -9.429688 1.835938 -10.160156 2.609375 -11.296875 C 2.796875 -11.546875 2.929688 -11.738281 3.015625 -11.875 C 3.109375 -11.875 3.15625 -11.785156 3.15625 -11.609375 L 3.15625 -9.21875 L 5.234375 -9.21875 L 5.234375 -8.5625 L 3.15625 -8.5625 L 3.15625 -2.703125 C 3.15625 -2.046875 3.238281 -1.570312 3.40625 -1.28125 C 3.570312 -1 3.84375 -0.859375 4.21875 -0.859375 C 4.632812 -0.859375 5.046875 -1.097656 5.453125 -1.578125 Z M 5.71875 -1.359375 "/></g></g></g><g fill="#000000" fill-opacity="1"><g transform="translate(189.093071, 436.067918)"><g/></g></g><g fill="#000000" fill-opacity="1"><g transform="translate(194.219069, 436.067918)"><g><path d="M 9.0625 -0.8125 C 8.707031 -0.414062 8.394531 -0.144531 8.125 0 C 7.863281 0.132812 7.5625 0.203125 7.21875 0.203125 C 6.789062 0.203125 6.476562 0.09375 6.28125 -0.125 C 6.082031 -0.351562 5.957031 -0.742188 5.90625 -1.296875 C 4.726562 -0.296875 3.726562 0.203125 2.90625 0.203125 C 2.28125 0.203125 1.765625 0 1.359375 -0.40625 C 0.960938 -0.820312 0.765625 -1.347656 0.765625 -1.984375 C 0.765625 -2.722656 1.007812 -3.316406 1.5 -3.765625 C 1.9375 -4.148438 2.375 -4.453125 2.8125 -4.671875 C 3.257812 -4.898438 4.285156 -5.335938 5.890625 -5.984375 L 5.890625 -7.234375 C 5.890625 -8.367188 5.367188 -8.9375 4.328125 -8.9375 C 3.910156 -8.9375 3.554688 -8.835938 3.265625 -8.640625 C 2.984375 -8.441406 2.84375 -8.207031 2.84375 -7.9375 C 2.84375 -7.78125 2.863281 -7.613281 2.90625 -7.4375 C 2.9375 -7.25 2.953125 -7.140625 2.953125 -7.109375 C 2.953125 -6.878906 2.859375 -6.675781 2.671875 -6.5 C 2.492188 -6.332031 2.28125 -6.25 2.03125 -6.25 C 1.78125 -6.25 1.566406 -6.335938 1.390625 -6.515625 C 1.222656 -6.691406 1.140625 -6.898438 1.140625 -7.140625 C 1.140625 -7.691406 1.421875 -8.203125 1.984375 -8.671875 C 2.597656 -9.179688 3.46875 -9.4375 4.59375 -9.4375 C 5.863281 -9.4375 6.71875 -9.035156 7.15625 -8.234375 C 7.414062 -7.816406 7.546875 -7.125 7.546875 -6.15625 L 7.546875 -2.15625 C 7.546875 -1.695312 7.585938 -1.382812 7.671875 -1.21875 C 7.765625 -1.050781 7.925781 -0.96875 8.15625 -0.96875 C 8.445312 -0.96875 8.75 -1.097656 9.0625 -1.359375 Z M 5.890625 -2.515625 L 5.890625 -5.5 C 4.648438 -5.039062 3.785156 -4.597656 3.296875 -4.171875 C 2.804688 -3.753906 2.5625 -3.242188 2.5625 -2.640625 L 2.5625 -2.5625 C 2.5625 -2.125 2.6875 -1.75 2.9375 -1.4375 C 3.195312 -1.132812 3.503906 -0.984375 3.859375 -0.984375 C 4.335938 -0.984375 4.832031 -1.132812 5.34375 -1.4375 C 5.5625 -1.570312 5.707031 -1.707031 5.78125 -1.84375 C 5.851562 -1.976562 5.890625 -2.203125 5.890625 -2.515625 Z M 5.890625 -2.515625 "/></g></g></g><g fill="#000000" fill-opacity="1"><g transform="translate(203.322832, 436.067918)"><g><path d="M 9.59375 -4.984375 C 9.59375 -3.515625 9.128906 -2.28125 8.203125 -1.28125 C 7.285156 -0.289062 6.148438 0.203125 4.796875 0.203125 C 3.972656 0.203125 3.203125 0.0625 2.484375 -0.21875 C 1.773438 -0.5 1.421875 -0.796875 1.421875 -1.109375 L 1.421875 -11.75 C 1.421875 -12.164062 1.351562 -12.441406 1.21875 -12.578125 C 1.09375 -12.722656 0.820312 -12.796875 0.40625 -12.796875 C 0.257812 -12.796875 0.144531 -12.785156 0.0625 -12.765625 L 0.0625 -13.09375 L 0.65625 -13.265625 C 1.570312 -13.523438 2.363281 -13.769531 3.03125 -14 L 3.140625 -13.953125 L 3.140625 -7.6875 C 3.335938 -8.195312 3.703125 -8.613281 4.234375 -8.9375 C 4.773438 -9.269531 5.359375 -9.4375 5.984375 -9.4375 C 7.015625 -9.4375 7.875 -9.007812 8.5625 -8.15625 C 9.25 -7.300781 9.59375 -6.242188 9.59375 -4.984375 Z M 7.796875 -4.03125 C 7.796875 -5.28125 7.554688 -6.273438 7.078125 -7.015625 C 6.609375 -7.765625 5.972656 -8.140625 5.171875 -8.140625 C 4.628906 -8.140625 4.15625 -7.984375 3.75 -7.671875 C 3.34375 -7.359375 3.140625 -7 3.140625 -6.59375 L 3.140625 -1.4375 C 3.140625 -1.175781 3.335938 -0.945312 3.734375 -0.75 C 4.128906 -0.550781 4.59375 -0.453125 5.125 -0.453125 C 5.96875 -0.453125 6.625 -0.765625 7.09375 -1.390625 C 7.5625 -2.023438 7.796875 -2.90625 7.796875 -4.03125 Z M 7.796875 -4.03125 "/></g></g></g><g fill="#000000" fill-opacity="1"><g transform="translate(213.574809, 436.067918)"><g><path d="M 9.640625 -4.796875 C 9.640625 -3.378906 9.203125 -2.191406 8.328125 -1.234375 C 7.453125 -0.273438 6.367188 0.203125 5.078125 0.203125 C 3.796875 0.203125 2.726562 -0.253906 1.875 -1.171875 C 1.019531 -2.097656 0.59375 -3.253906 0.59375 -4.640625 C 0.59375 -6.046875 1.007812 -7.195312 1.84375 -8.09375 C 2.6875 -8.988281 3.78125 -9.4375 5.125 -9.4375 C 6.4375 -9.4375 7.515625 -9 8.359375 -8.125 C 9.210938 -7.25 9.640625 -6.140625 9.640625 -4.796875 Z M 7.796875 -4.078125 C 7.796875 -5.484375 7.519531 -6.628906 6.96875 -7.515625 C 6.425781 -8.410156 5.722656 -8.859375 4.859375 -8.859375 C 4.128906 -8.859375 3.539062 -8.5625 3.09375 -7.96875 C 2.65625 -7.382812 2.4375 -6.609375 2.4375 -5.640625 C 2.4375 -4.117188 2.738281 -2.800781 3.34375 -1.6875 C 3.800781 -0.8125 4.460938 -0.375 5.328125 -0.375 C 6.097656 -0.375 6.703125 -0.703125 7.140625 -1.359375 C 7.578125 -2.015625 7.796875 -2.921875 7.796875 -4.078125 Z M 7.796875 -4.078125 "/></g></g></g><g fill="#000000" fill-opacity="1"><g transform="translate(223.826786, 436.067918)"><g><path d="M 9.8125 -0.734375 C 8.75 -0.453125 7.816406 -0.144531 7.015625 0.1875 L 6.921875 0.140625 L 6.921875 -1.5625 L 6.046875 -0.671875 C 5.460938 -0.0859375 4.757812 0.203125 3.9375 0.203125 C 3.1875 0.203125 2.582031 -0.0351562 2.125 -0.515625 C 1.675781 -1.003906 1.453125 -1.648438 1.453125 -2.453125 L 1.453125 -7.625 C 1.453125 -8.101562 1.363281 -8.429688 1.1875 -8.609375 C 1.007812 -8.796875 0.675781 -8.90625 0.1875 -8.9375 L 0.1875 -9.21875 L 3.171875 -9.21875 L 3.171875 -2.546875 C 3.171875 -2.117188 3.3125 -1.75 3.59375 -1.4375 C 3.882812 -1.132812 4.234375 -0.984375 4.640625 -0.984375 C 5.285156 -0.984375 5.898438 -1.226562 6.484375 -1.71875 C 6.710938 -1.894531 6.828125 -2.242188 6.828125 -2.765625 L 6.828125 -7.578125 C 6.828125 -8.085938 6.734375 -8.421875 6.546875 -8.578125 C 6.359375 -8.742188 5.945312 -8.84375 5.3125 -8.875 L 5.3125 -9.21875 L 8.546875 -9.21875 L 8.546875 -2.1875 C 8.546875 -1.707031 8.625 -1.394531 8.78125 -1.25 C 8.9375 -1.101562 9.25 -1.03125 9.71875 -1.03125 L 9.8125 -1.03125 Z M 9.8125 -0.734375 "/></g></g></g><g fill="#000000" fill-opacity="1"><g transform="translate(234.078763, 436.067918)"><g><path d="M 5.71875 -1.359375 C 5.0625 -0.316406 4.234375 0.203125 3.234375 0.203125 C 2.035156 0.203125 1.4375 -0.664062 1.4375 -2.40625 L 1.4375 -8.5625 L 0.34375 -8.5625 C 0.289062 -8.601562 0.265625 -8.65625 0.265625 -8.71875 C 0.265625 -8.820312 0.378906 -8.953125 0.609375 -9.109375 C 1.171875 -9.429688 1.835938 -10.160156 2.609375 -11.296875 C 2.796875 -11.546875 2.929688 -11.738281 3.015625 -11.875 C 3.109375 -11.875 3.15625 -11.785156 3.15625 -11.609375 L 3.15625 -9.21875 L 5.234375 -9.21875 L 5.234375 -8.5625 L 3.15625 -8.5625 L 3.15625 -2.703125 C 3.15625 -2.046875 3.238281 -1.570312 3.40625 -1.28125 C 3.570312 -1 3.84375 -0.859375 4.21875 -0.859375 C 4.632812 -0.859375 5.046875 -1.097656 5.453125 -1.578125 Z M 5.71875 -1.359375 "/></g></g></g><g fill="#000000" fill-opacity="1"><g transform="translate(239.778869, 436.067918)"><g/></g></g><g fill="#000000" fill-opacity="1"><g transform="translate(244.904867, 436.067918)"><g><path d="M 14.46875 0 L 9.25 0 L 9.25 -0.390625 C 9.8125 -0.390625 10.191406 -0.453125 10.390625 -0.578125 C 10.585938 -0.671875 10.6875 -0.832031 10.6875 -1.0625 C 10.6875 -1.394531 10.554688 -1.859375 10.296875 -2.453125 L 9.453125 -4.421875 L 4.078125 -4.421875 L 3.140625 -2.03125 C 3.023438 -1.738281 2.96875 -1.472656 2.96875 -1.234375 C 2.96875 -0.671875 3.429688 -0.390625 4.359375 -0.390625 L 4.359375 0 L 0.3125 0 L 0.3125 -0.390625 C 0.800781 -0.421875 1.179688 -0.613281 1.453125 -0.96875 C 1.722656 -1.332031 2.1875 -2.257812 2.84375 -3.75 L 7.109375 -13.8125 L 7.53125 -13.8125 L 12.625 -2.171875 C 12.976562 -1.410156 13.257812 -0.929688 13.46875 -0.734375 C 13.675781 -0.535156 14.007812 -0.421875 14.46875 -0.390625 Z M 9.15625 -5.265625 L 6.78125 -10.90625 L 4.421875 -5.265625 Z M 9.15625 -5.265625 "/></g></g></g><g fill="#000000" fill-opacity="1"><g transform="translate(259.708716, 436.067918)"><g><path d="M 14.375 3.625 L 14.25 3.625 C 14.09375 3.644531 13.851562 3.65625 13.53125 3.65625 C 10.207031 3.65625 7.828125 2.816406 6.390625 1.140625 L 5.4375 0.015625 C 4.707031 -0.222656 4.140625 -0.46875 3.734375 -0.71875 C 3.335938 -0.96875 2.929688 -1.3125 2.515625 -1.75 C 1.304688 -3.070312 0.703125 -4.738281 0.703125 -6.75 C 0.703125 -8.820312 1.328125 -10.523438 2.578125 -11.859375 C 3.835938 -13.191406 5.441406 -13.859375 7.390625 -13.859375 C 9.347656 -13.859375 10.957031 -13.191406 12.21875 -11.859375 C 13.476562 -10.535156 14.109375 -8.84375 14.109375 -6.78125 C 14.109375 -4.488281 13.34375 -2.660156 11.8125 -1.296875 C 11.332031 -0.878906 10.875 -0.566406 10.4375 -0.359375 C 10 -0.160156 9.429688 0.00390625 8.734375 0.140625 C 9.566406 1.234375 10.421875 2.023438 11.296875 2.515625 C 12.179688 3.015625 13.207031 3.265625 14.375 3.265625 Z M 11.765625 -6.828125 C 11.765625 -7.984375 11.609375 -9.023438 11.296875 -9.953125 C 10.984375 -10.890625 10.550781 -11.601562 10 -12.09375 C 9.238281 -12.78125 8.394531 -13.125 7.46875 -13.125 C 6.300781 -13.125 5.300781 -12.675781 4.46875 -11.78125 C 4.039062 -11.300781 3.691406 -10.609375 3.421875 -9.703125 C 3.160156 -8.796875 3.03125 -7.851562 3.03125 -6.875 C 3.03125 -5.664062 3.179688 -4.578125 3.484375 -3.609375 C 3.796875 -2.648438 4.226562 -1.929688 4.78125 -1.453125 C 5.53125 -0.785156 6.40625 -0.453125 7.40625 -0.453125 C 8.570312 -0.453125 9.554688 -0.890625 10.359375 -1.765625 C 10.765625 -2.242188 11.097656 -2.953125 11.359375 -3.890625 C 11.628906 -4.835938 11.765625 -5.816406 11.765625 -6.828125 Z M 11.765625 -6.828125 "/></g></g></g><g fill="#000000" fill-opacity="1"><g transform="translate(274.512564, 436.067918)"><g><path d="M 14.453125 -13.1875 C 13.609375 -13.070312 13.078125 -12.863281 12.859375 -12.5625 C 12.640625 -12.257812 12.53125 -11.59375 12.53125 -10.5625 L 12.53125 -5.203125 C 12.53125 -3.742188 12.300781 -2.617188 11.84375 -1.828125 C 11.039062 -0.421875 9.519531 0.28125 7.28125 0.28125 C 5.53125 0.28125 4.234375 -0.144531 3.390625 -1 C 2.546875 -1.851562 2.125 -3.164062 2.125 -4.9375 L 2.125 -11.34375 C 2.125 -12.09375 2.019531 -12.566406 1.8125 -12.765625 C 1.601562 -12.972656 1.09375 -13.113281 0.28125 -13.1875 L 0.28125 -13.578125 L 6.09375 -13.578125 L 6.09375 -13.1875 C 5.269531 -13.113281 4.75 -12.96875 4.53125 -12.75 C 4.320312 -12.539062 4.21875 -12.070312 4.21875 -11.34375 L 4.21875 -4.78125 C 4.21875 -3.570312 4.390625 -2.671875 4.734375 -2.078125 C 5.296875 -1.097656 6.300781 -0.609375 7.75 -0.609375 C 8.507812 -0.609375 9.195312 -0.753906 9.8125 -1.046875 C 10.425781 -1.347656 10.875 -1.742188 11.15625 -2.234375 C 11.46875 -2.816406 11.625 -3.742188 11.625 -5.015625 L 11.625 -10.5625 C 11.625 -11.582031 11.5 -12.257812 11.25 -12.59375 C 11.007812 -12.925781 10.492188 -13.125 9.703125 -13.1875 L 9.703125 -13.578125 L 14.453125 -13.578125 Z M 14.453125 -13.1875 "/></g></g></g><g fill="#000000" fill-opacity="1"><g transform="translate(289.316413, 436.067918)"><g><path d="M 14.46875 0 L 9.25 0 L 9.25 -0.390625 C 9.8125 -0.390625 10.191406 -0.453125 10.390625 -0.578125 C 10.585938 -0.671875 10.6875 -0.832031 10.6875 -1.0625 C 10.6875 -1.394531 10.554688 -1.859375 10.296875 -2.453125 L 9.453125 -4.421875 L 4.078125 -4.421875 L 3.140625 -2.03125 C 3.023438 -1.738281 2.96875 -1.472656 2.96875 -1.234375 C 2.96875 -0.671875 3.429688 -0.390625 4.359375 -0.390625 L 4.359375 0 L 0.3125 0 L 0.3125 -0.390625 C 0.800781 -0.421875 1.179688 -0.613281 1.453125 -0.96875 C 1.722656 -1.332031 2.1875 -2.257812 2.84375 -3.75 L 7.109375 -13.8125 L 7.53125 -13.8125 L 12.625 -2.171875 C 12.976562 -1.410156 13.257812 -0.929688 13.46875 -0.734375 C 13.675781 -0.535156 14.007812 -0.421875 14.46875 -0.390625 Z M 9.15625 -5.265625 L 6.78125 -10.90625 L 4.421875 -5.265625 Z M 9.15625 -5.265625 "/></g></g></g><g fill="#000000" fill-opacity="1"><g transform="translate(304.120262, 436.067918)"><g><path d="M 14.28125 -13.1875 C 13.789062 -13.15625 13.441406 -13.03125 13.234375 -12.8125 C 13.023438 -12.59375 12.75 -12.082031 12.40625 -11.28125 L 7.84375 0.21875 L 7.546875 0.21875 L 2.5 -11.03125 C 2.0625 -11.945312 1.71875 -12.53125 1.46875 -12.78125 C 1.21875 -13.03125 0.835938 -13.164062 0.328125 -13.1875 L 0.328125 -13.578125 L 5.78125 -13.578125 L 5.78125 -13.1875 C 5.394531 -13.15625 5.195312 -13.140625 5.1875 -13.140625 C 4.5625 -13.097656 4.25 -12.882812 4.25 -12.5 C 4.25 -12.226562 4.523438 -11.472656 5.078125 -10.234375 L 8.171875 -3.296875 L 11.1875 -10.828125 C 11.445312 -11.484375 11.578125 -11.984375 11.578125 -12.328125 C 11.578125 -12.609375 11.46875 -12.8125 11.25 -12.9375 C 11.03125 -13.070312 10.644531 -13.15625 10.09375 -13.1875 L 10.09375 -13.578125 L 14.28125 -13.578125 Z M 14.28125 -13.1875 "/></g></g></g><g fill="#000000" fill-opacity="1"><g transform="translate(318.92411, 436.067918)"><g><path d="M 6.453125 0 L 0.375 0 L 0.375 -0.390625 C 1.226562 -0.421875 1.769531 -0.546875 2 -0.765625 C 2.238281 -0.984375 2.359375 -1.472656 2.359375 -2.234375 L 2.359375 -11.34375 C 2.359375 -12.09375 2.242188 -12.570312 2.015625 -12.78125 C 1.796875 -12.988281 1.25 -13.125 0.375 -13.1875 L 0.375 -13.578125 L 6.453125 -13.578125 L 6.453125 -13.1875 C 5.597656 -13.144531 5.050781 -13.015625 4.8125 -12.796875 C 4.570312 -12.578125 4.453125 -12.09375 4.453125 -11.34375 L 4.453125 -2.234375 C 4.453125 -1.484375 4.570312 -0.992188 4.8125 -0.765625 C 5.0625 -0.546875 5.609375 -0.421875 6.453125 -0.390625 Z M 6.453125 0 "/></g></g></g><g fill="#000000" fill-opacity="1"><g transform="translate(325.751937, 436.067918)"><g><path d="M 12.234375 -3.46875 L 11.3125 0 L 0.25 0 L 0.25 -0.390625 C 1 -0.441406 1.484375 -0.578125 1.703125 -0.796875 C 1.921875 -1.023438 2.03125 -1.503906 2.03125 -2.234375 L 2.03125 -11.34375 C 2.03125 -12.0625 1.921875 -12.53125 1.703125 -12.75 C 1.492188 -12.96875 1.007812 -13.113281 0.25 -13.1875 L 0.25 -13.578125 L 11.125 -13.578125 L 11.1875 -10.640625 L 10.6875 -10.640625 C 10.5 -11.554688 10.222656 -12.144531 9.859375 -12.40625 C 9.492188 -12.664062 8.726562 -12.796875 7.5625 -12.796875 L 4.796875 -12.796875 C 4.523438 -12.796875 4.34375 -12.75 4.25 -12.65625 C 4.164062 -12.570312 4.125 -12.382812 4.125 -12.09375 L 4.125 -7.546875 L 7.28125 -7.546875 C 8.113281 -7.546875 8.660156 -7.660156 8.921875 -7.890625 C 9.191406 -8.117188 9.394531 -8.648438 9.53125 -9.484375 L 10 -9.484375 L 10 -4.734375 L 9.53125 -4.734375 C 9.394531 -5.578125 9.195312 -6.113281 8.9375 -6.34375 C 8.675781 -6.582031 8.125 -6.703125 7.28125 -6.703125 L 4.125 -6.703125 L 4.125 -1.640625 C 4.125 -1.273438 4.175781 -1.054688 4.28125 -0.984375 C 4.476562 -0.835938 5.140625 -0.765625 6.265625 -0.765625 L 6.828125 -0.765625 C 8.285156 -0.765625 9.328125 -0.9375 9.953125 -1.28125 C 10.585938 -1.625 11.160156 -2.351562 11.671875 -3.46875 Z M 12.234375 -3.46875 "/></g></g></g><g fill="#000000" fill-opacity="1"><g transform="translate(338.27985, 436.067918)"><g><path d="M 19.109375 -13.1875 C 18.554688 -13.070312 18.179688 -12.929688 17.984375 -12.765625 C 17.785156 -12.609375 17.59375 -12.257812 17.40625 -11.71875 L 13.21875 0.21875 L 12.921875 0.21875 L 9.640625 -8.453125 L 6.484375 0.21875 L 6.171875 0.21875 L 2.21875 -10.78125 C 1.832031 -11.75 1.507812 -12.375 1.25 -12.65625 C 1 -12.945312 0.617188 -13.125 0.109375 -13.1875 L 0.109375 -13.578125 L 5.125 -13.578125 L 5.125 -13.1875 C 4.601562 -13.15625 4.25 -13.09375 4.0625 -13 C 3.882812 -12.914062 3.796875 -12.757812 3.796875 -12.53125 C 3.796875 -12.28125 3.867188 -11.960938 4.015625 -11.578125 L 6.96875 -3.875 L 9.15625 -9.65625 L 8.484375 -11.34375 C 8.128906 -12.15625 7.84375 -12.660156 7.625 -12.859375 C 7.40625 -13.054688 7.003906 -13.164062 6.421875 -13.1875 L 6.421875 -13.578125 L 11.890625 -13.578125 L 11.890625 -13.1875 C 10.835938 -13.164062 10.3125 -12.925781 10.3125 -12.46875 C 10.3125 -12.25 10.414062 -11.898438 10.625 -11.421875 L 10.859375 -10.796875 L 13.578125 -3.8125 L 16.140625 -10.765625 C 16.359375 -11.378906 16.46875 -11.890625 16.46875 -12.296875 C 16.46875 -12.566406 16.359375 -12.765625 16.140625 -12.890625 C 15.929688 -13.023438 15.566406 -13.125 15.046875 -13.1875 L 15.046875 -13.578125 L 19.109375 -13.578125 Z M 19.109375 -13.1875 "/></g></g></g><g fill="#000000" fill-opacity="1"><g transform="translate(357.63559, 436.067918)"><g><path d="M 8.484375 -10.6875 C 8.484375 -9.90625 8.175781 -9.039062 7.5625 -8.09375 C 7.375 -7.8125 6.960938 -7.285156 6.328125 -6.515625 C 5.648438 -5.640625 5.207031 -4.585938 5 -3.359375 L 4.65625 -3.359375 C 4.675781 -4.304688 4.878906 -5.273438 5.265625 -6.265625 L 5.84375 -7.578125 C 6.34375 -8.742188 6.59375 -9.8125 6.59375 -10.78125 C 6.59375 -11.46875 6.378906 -12.050781 5.953125 -12.53125 C 5.523438 -13.007812 5.003906 -13.25 4.390625 -13.25 C 3.878906 -13.25 3.425781 -13.117188 3.03125 -12.859375 C 2.632812 -12.597656 2.4375 -12.300781 2.4375 -11.96875 C 2.4375 -11.820312 2.550781 -11.613281 2.78125 -11.34375 C 3.070312 -11.007812 3.21875 -10.710938 3.21875 -10.453125 C 3.21875 -10.210938 3.140625 -10.007812 2.984375 -9.84375 C 2.828125 -9.6875 2.625 -9.609375 2.375 -9.609375 C 1.71875 -9.609375 1.390625 -10.03125 1.390625 -10.875 C 1.390625 -11.726562 1.707031 -12.4375 2.34375 -13 C 2.976562 -13.570312 3.769531 -13.859375 4.71875 -13.859375 C 5.28125 -13.859375 5.835938 -13.75 6.390625 -13.53125 C 6.941406 -13.3125 7.394531 -13.023438 7.75 -12.671875 C 8.238281 -12.179688 8.484375 -11.519531 8.484375 -10.6875 Z M 5.96875 -0.90625 C 5.96875 -0.59375 5.859375 -0.335938 5.640625 -0.140625 C 5.429688 0.0546875 5.164062 0.15625 4.84375 0.15625 C 4.539062 0.15625 4.285156 0.0546875 4.078125 -0.140625 C 3.867188 -0.335938 3.765625 -0.582031 3.765625 -0.875 C 3.765625 -1.207031 3.867188 -1.484375 4.078125 -1.703125 C 4.285156 -1.921875 4.546875 -2.03125 4.859375 -2.03125 C 5.160156 -2.03125 5.421875 -1.914062 5.640625 -1.6875 C 5.859375 -1.46875 5.96875 -1.207031 5.96875 -0.90625 Z M 5.96875 -0.90625 "/></g></g></g><g fill="#000000" fill-opacity="1"><g transform="translate(366.739353, 436.067918)"><g><path d="M 4.84375 -12.21875 C 4.84375 -12.039062 4.828125 -11.785156 4.796875 -11.453125 L 3.875 -3.609375 L 3.609375 -3.609375 L 3.421875 -5.828125 C 3.367188 -6.546875 3.253906 -7.488281 3.078125 -8.65625 C 2.804688 -10.445312 2.671875 -11.65625 2.671875 -12.28125 C 2.671875 -12.757812 2.765625 -13.140625 2.953125 -13.421875 C 3.140625 -13.710938 3.40625 -13.859375 3.75 -13.859375 C 4.476562 -13.859375 4.84375 -13.3125 4.84375 -12.21875 Z M 4.53125 -1.6875 C 4.75 -1.46875 4.859375 -1.195312 4.859375 -0.875 C 4.859375 -0.5625 4.75 -0.304688 4.53125 -0.109375 C 4.320312 0.0859375 4.054688 0.1875 3.734375 0.1875 C 3.429688 0.1875 3.175781 0.0859375 2.96875 -0.109375 C 2.769531 -0.304688 2.671875 -0.5625 2.671875 -0.875 C 2.671875 -1.195312 2.773438 -1.46875 2.984375 -1.6875 C 3.191406 -1.90625 3.445312 -2.015625 3.75 -2.015625 C 4.050781 -2.015625 4.3125 -1.90625 4.53125 -1.6875 Z M 4.53125 -1.6875 "/></g></g></g><g clip-path="url(#aa5dd4a424)"><g clip-path="url(#6b96a5a65e)"><g clip-path="url(#f76c3d140c)"><path fill="#ffffff" d="M 286.519531 256.761719 C 286.675781 256.835938 286.800781 256.941406 286.902344 257.082031 C 287 257.222656 287.058594 257.378906 287.074219 257.550781 C 287.09375 257.722656 287.066406 257.886719 286.996094 258.042969 C 286.925781 258.199219 286.824219 258.328125 286.6875 258.433594 C 277.886719 264.964844 268.734375 269.109375 259.484375 270.742188 C 252.007812 272.0625 244.59375 271.769531 237.238281 269.863281 C 224.738281 266.644531 217.074219 260.007812 216.753906 259.726562 C 216.550781 259.546875 216.4375 259.324219 216.421875 259.054688 C 216.402344 258.785156 216.484375 258.550781 216.664062 258.347656 C 216.839844 258.144531 217.066406 258.03125 217.335938 258.015625 C 217.605469 258 217.839844 258.078125 218.042969 258.257812 C 218.148438 258.347656 225.753906 264.90625 237.808594 267.988281 C 248.917969 270.824219 266.207031 271.199219 285.515625 256.859375 C 285.832031 256.628906 286.164062 256.59375 286.519531 256.761719 Z M 286.519531 256.761719 " fill-opacity="1" fill-rule="nonzero"/></g></g></g><g clip-path="url(#5366760087)"><g clip-path="url(#e3d69a8bd2)"><g clip-path="url(#efdda95bd1)"><path fill="#ffffff" d="M 400.078125 217.3125 C 400.234375 217.382812 400.363281 217.488281 400.464844 217.628906 C 400.566406 217.765625 400.625 217.921875 400.644531 218.09375 C 400.664062 218.261719 400.640625 218.429688 400.574219 218.585938 C 400.503906 218.742188 400.402344 218.875 400.265625 218.980469 C 391.550781 225.625 382.453125 229.882812 373.226562 231.632812 C 365.765625 233.050781 358.347656 232.855469 350.972656 231.039062 C 338.429688 227.984375 330.683594 221.445312 330.355469 221.167969 C 330.152344 220.992188 330.039062 220.769531 330.015625 220.5 C 329.996094 220.230469 330.074219 219.992188 330.25 219.789062 C 330.425781 219.582031 330.648438 219.46875 330.917969 219.449219 C 331.1875 219.429688 331.421875 219.503906 331.628906 219.679688 C 331.734375 219.769531 339.425781 226.230469 351.515625 229.15625 C 362.660156 231.855469 379.953125 232.003906 399.078125 217.421875 C 399.390625 217.1875 399.722656 217.148438 400.078125 217.3125 Z M 400.078125 217.3125 " fill-opacity="1" fill-rule="nonzero"/></g></g></g><g clip-path="url(#e096be9275)"><g clip-path="url(#d9e18a8d93)"><g clip-path="url(#ad5c760073)"><path fill="#ffffff" d="M 230.082031 122.324219 C 230.230469 122.40625 230.351562 122.523438 230.441406 122.667969 C 230.53125 122.816406 230.582031 122.972656 230.589844 123.144531 C 230.59375 123.316406 230.558594 123.480469 230.480469 123.632812 C 230.402344 123.785156 230.289062 123.910156 230.148438 124.003906 C 220.972656 130 211.589844 133.585938 202.257812 134.664062 C 194.714844 135.535156 187.332031 134.800781 180.105469 132.457031 C 167.820312 128.5 160.566406 121.414062 160.261719 121.113281 C 160.070312 120.925781 159.972656 120.695312 159.972656 120.421875 C 159.96875 120.152344 160.0625 119.921875 160.253906 119.730469 C 160.445312 119.539062 160.675781 119.441406 160.945312 119.441406 C 161.214844 119.441406 161.445312 119.535156 161.640625 119.722656 C 161.734375 119.820312 168.9375 126.824219 180.785156 130.617188 C 191.703125 134.117188 208.941406 135.523438 229.074219 122.363281 C 229.402344 122.152344 229.738281 122.136719 230.082031 122.324219 Z M 230.082031 122.324219 " fill-opacity="1" fill-rule="nonzero"/></g></g></g><g clip-path="url(#520f761c6e)"><g clip-path="url(#bdb76468f3)"><g clip-path="url(#18ac6ffef8)"><path fill="#ffffff" d="M 343.5 119.277344 C 343.65625 119.34375 343.785156 119.449219 343.890625 119.585938 C 343.992188 119.722656 344.054688 119.878906 344.078125 120.050781 C 344.097656 120.21875 344.078125 120.382812 344.011719 120.542969 C 343.945312 120.703125 343.84375 120.835938 343.710938 120.941406 C 335.085938 127.707031 326.046875 132.089844 316.847656 133.96875 C 309.40625 135.488281 301.988281 135.390625 294.585938 133.679688 C 282.003906 130.796875 274.164062 124.367188 273.835938 124.09375 C 273.628906 123.917969 273.511719 123.699219 273.488281 123.429688 C 273.460938 123.160156 273.535156 122.921875 273.710938 122.714844 C 273.882812 122.507812 274.105469 122.390625 274.371094 122.367188 C 274.640625 122.34375 274.878906 122.414062 275.089844 122.589844 C 275.191406 122.675781 282.972656 129.03125 295.105469 131.789062 C 306.285156 134.332031 323.578125 134.246094 342.5 119.402344 C 342.808594 119.160156 343.140625 119.117188 343.5 119.277344 Z M 343.5 119.277344 " fill-opacity="1" fill-rule="nonzero"/></g></g></g></svg>