<svg xmlns="http://www.w3.org/2000/svg" xmlns:xlink="http://www.w3.org/1999/xlink" width="671" zoomAndPan="magnify" viewBox="0 0 503.25 520.499984" height="694" preserveAspectRatio="xMidYMid meet" version="1.0"><defs><g/><clipPath id="07d8695941"><path d="M 159 75.027344 L 231 75.027344 L 231 146 L 159 146 Z M 159 75.027344 " clip-rule="nonzero"/></clipPath><clipPath id="30367adccb"><path d="M 271 75.027344 L 342 75.027344 L 342 146 L 271 146 Z M 271 75.027344 " clip-rule="nonzero"/></clipPath><clipPath id="1d6583194f"><path d="M 188 293 L 315 293 L 315 398.542969 L 188 398.542969 Z M 188 293 " clip-rule="nonzero"/></clipPath><clipPath id="55a8822f3f"><path d="M 75.425781 250 L 201 250 L 201 357 L 75.425781 357 Z M 75.425781 250 " clip-rule="nonzero"/></clipPath><clipPath id="c0ab95a7a5"><path d="M 302 250 L 427.402344 250 L 427.402344 357 L 302 357 Z M 302 250 " clip-rule="nonzero"/></clipPath></defs><g clip-path="url(#07d8695941)"><path fill="#000000" d="M 230.292969 110.191406 C 230.292969 111.34375 230.238281 112.492188 230.125 113.636719 C 230.011719 114.785156 229.84375 115.921875 229.617188 117.050781 C 229.394531 118.179688 229.113281 119.296875 228.777344 120.398438 C 228.445312 121.5 228.058594 122.585938 227.617188 123.648438 C 227.175781 124.710938 226.683594 125.753906 226.140625 126.769531 C 225.59375 127.785156 225.003906 128.769531 224.363281 129.726562 C 223.722656 130.6875 223.035156 131.609375 222.304688 132.5 C 221.574219 133.390625 220.800781 134.242188 219.984375 135.058594 C 219.171875 135.871094 218.316406 136.644531 217.425781 137.375 C 216.535156 138.105469 215.609375 138.789062 214.652344 139.429688 C 213.695312 140.070312 212.707031 140.660156 211.6875 141.203125 C 210.671875 141.746094 209.632812 142.238281 208.566406 142.679688 C 207.5 143.121094 206.417969 143.507812 205.316406 143.84375 C 204.210938 144.175781 203.09375 144.457031 201.964844 144.679688 C 200.832031 144.90625 199.695312 145.074219 198.546875 145.1875 C 197.398438 145.300781 196.25 145.355469 195.097656 145.355469 C 193.945312 145.355469 192.792969 145.300781 191.648438 145.1875 C 190.5 145.074219 189.359375 144.90625 188.230469 144.679688 C 187.101562 144.457031 185.984375 144.175781 184.878906 143.84375 C 183.777344 143.507812 182.691406 143.121094 181.628906 142.679688 C 180.5625 142.238281 179.523438 141.746094 178.503906 141.203125 C 177.488281 140.660156 176.5 140.070312 175.542969 139.429688 C 174.585938 138.789062 173.660156 138.105469 172.769531 137.375 C 171.878906 136.644531 171.023438 135.871094 170.207031 135.058594 C 169.394531 134.242188 168.621094 133.390625 167.890625 132.5 C 167.15625 131.609375 166.472656 130.6875 165.832031 129.726562 C 165.191406 128.769531 164.597656 127.785156 164.054688 126.769531 C 163.511719 125.753906 163.019531 124.710938 162.578125 123.648438 C 162.136719 122.585938 161.75 121.5 161.414062 120.398438 C 161.082031 119.296875 160.800781 118.179688 160.574219 117.050781 C 160.351562 115.921875 160.183594 114.785156 160.070312 113.636719 C 159.957031 112.492188 159.898438 111.34375 159.898438 110.191406 C 159.898438 109.039062 159.957031 107.890625 160.070312 106.746094 C 160.183594 105.597656 160.351562 104.460938 160.574219 103.332031 C 160.800781 102.203125 161.082031 101.085938 161.414062 99.984375 C 161.75 98.882812 162.136719 97.796875 162.578125 96.734375 C 163.019531 95.671875 163.511719 94.632812 164.054688 93.613281 C 164.597656 92.597656 165.191406 91.613281 165.832031 90.65625 C 166.472656 89.699219 167.15625 88.773438 167.890625 87.882812 C 168.621094 86.992188 169.394531 86.140625 170.207031 85.328125 C 171.023438 84.511719 171.878906 83.738281 172.769531 83.007812 C 173.660156 82.277344 174.585938 81.59375 175.542969 80.953125 C 176.5 80.3125 177.488281 79.722656 178.503906 79.179688 C 179.523438 78.636719 180.5625 78.144531 181.628906 77.703125 C 182.691406 77.261719 183.777344 76.875 184.878906 76.542969 C 185.984375 76.207031 187.101562 75.925781 188.230469 75.703125 C 189.359375 75.476562 190.5 75.308594 191.648438 75.195312 C 192.792969 75.082031 193.945312 75.027344 195.097656 75.027344 C 196.25 75.027344 197.398438 75.082031 198.546875 75.195312 C 199.695312 75.308594 200.832031 75.476562 201.964844 75.703125 C 203.09375 75.925781 204.210938 76.207031 205.316406 76.542969 C 206.417969 76.875 207.5 77.261719 208.566406 77.703125 C 209.632812 78.144531 210.671875 78.636719 211.6875 79.179688 C 212.707031 79.722656 213.695312 80.3125 214.652344 80.953125 C 215.609375 81.59375 216.535156 82.277344 217.425781 83.007812 C 218.316406 83.738281 219.171875 84.511719 219.984375 85.328125 C 220.800781 86.140625 221.574219 86.992188 222.304688 87.882812 C 223.035156 88.773438 223.722656 89.699219 224.363281 90.65625 C 225.003906 91.613281 225.59375 92.597656 226.140625 93.613281 C 226.683594 94.632812 227.175781 95.671875 227.617188 96.734375 C 228.058594 97.796875 228.445312 98.882812 228.777344 99.984375 C 229.113281 101.085938 229.394531 102.203125 229.617188 103.332031 C 229.84375 104.460938 230.011719 105.597656 230.125 106.746094 C 230.238281 107.890625 230.292969 109.039062 230.292969 110.191406 Z M 230.292969 110.191406 " fill-opacity="1" fill-rule="nonzero"/></g><g clip-path="url(#30367adccb)"><path fill="#000000" d="M 341.519531 110.191406 C 341.519531 111.34375 341.460938 112.492188 341.347656 113.636719 C 341.238281 114.785156 341.066406 115.921875 340.84375 117.050781 C 340.617188 118.179688 340.339844 119.296875 340.003906 120.398438 C 339.667969 121.5 339.28125 122.585938 338.839844 123.648438 C 338.398438 124.710938 337.90625 125.753906 337.363281 126.769531 C 336.820312 127.785156 336.226562 128.769531 335.585938 129.726562 C 334.945312 130.6875 334.261719 131.609375 333.53125 132.5 C 332.796875 133.390625 332.023438 134.242188 331.210938 135.058594 C 330.394531 135.871094 329.542969 136.644531 328.652344 137.375 C 327.757812 138.105469 326.835938 138.789062 325.875 139.429688 C 324.917969 140.070312 323.929688 140.660156 322.914062 141.203125 C 321.898438 141.746094 320.855469 142.238281 319.792969 142.679688 C 318.726562 143.121094 317.640625 143.507812 316.539062 143.84375 C 315.4375 144.175781 314.320312 144.457031 313.1875 144.679688 C 312.058594 144.90625 310.917969 145.074219 309.773438 145.1875 C 308.625 145.300781 307.472656 145.355469 306.320312 145.355469 C 305.167969 145.355469 304.019531 145.300781 302.871094 145.1875 C 301.722656 145.074219 300.585938 144.90625 299.453125 144.679688 C 298.324219 144.457031 297.207031 144.175781 296.105469 143.84375 C 295 143.507812 293.917969 143.121094 292.851562 142.679688 C 291.785156 142.238281 290.746094 141.746094 289.730469 141.203125 C 288.710938 140.660156 287.726562 140.070312 286.765625 139.429688 C 285.808594 138.789062 284.882812 138.105469 283.992188 137.375 C 283.101562 136.644531 282.25 135.871094 281.433594 135.058594 C 280.617188 134.242188 279.84375 133.390625 279.113281 132.5 C 278.382812 131.609375 277.695312 130.6875 277.054688 129.726562 C 276.414062 128.769531 275.824219 127.785156 275.28125 126.769531 C 274.738281 125.753906 274.246094 124.710938 273.804688 123.648438 C 273.363281 122.585938 272.972656 121.5 272.640625 120.398438 C 272.304688 119.296875 272.023438 118.179688 271.800781 117.050781 C 271.574219 115.921875 271.40625 114.785156 271.292969 113.636719 C 271.179688 112.492188 271.125 111.34375 271.125 110.191406 C 271.125 109.039062 271.179688 107.890625 271.292969 106.746094 C 271.40625 105.597656 271.574219 104.460938 271.800781 103.332031 C 272.023438 102.203125 272.304688 101.085938 272.640625 99.984375 C 272.972656 98.882812 273.363281 97.796875 273.804688 96.734375 C 274.246094 95.671875 274.738281 94.632812 275.28125 93.613281 C 275.824219 92.597656 276.414062 91.613281 277.054688 90.65625 C 277.695312 89.699219 278.382812 88.773438 279.113281 87.882812 C 279.84375 86.992188 280.617188 86.140625 281.433594 85.328125 C 282.25 84.511719 283.101562 83.738281 283.992188 83.007812 C 284.882812 82.277344 285.808594 81.59375 286.765625 80.953125 C 287.726562 80.3125 288.710938 79.722656 289.730469 79.179688 C 290.746094 78.636719 291.785156 78.144531 292.851562 77.703125 C 293.917969 77.261719 295 76.875 296.105469 76.542969 C 297.207031 76.207031 298.324219 75.925781 299.453125 75.703125 C 300.585938 75.476562 301.722656 75.308594 302.871094 75.195312 C 304.019531 75.082031 305.167969 75.027344 306.320312 75.027344 C 307.472656 75.027344 308.625 75.082031 309.773438 75.195312 C 310.917969 75.308594 312.058594 75.476562 313.1875 75.703125 C 314.320312 75.925781 315.4375 76.207031 316.539062 76.542969 C 317.640625 76.875 318.726562 77.261719 319.789062 77.703125 C 320.855469 78.144531 321.898438 78.636719 322.914062 79.179688 C 323.929688 79.722656 324.917969 80.3125 325.875 80.953125 C 326.835938 81.59375 327.757812 82.277344 328.652344 83.007812 C 329.542969 83.738281 330.394531 84.511719 331.210938 85.328125 C 332.023438 86.140625 332.796875 86.992188 333.53125 87.882812 C 334.261719 88.773438 334.945312 89.699219 335.585938 90.65625 C 336.226562 91.613281 336.820312 92.597656 337.363281 93.613281 C 337.90625 94.632812 338.398438 95.671875 338.839844 96.734375 C 339.28125 97.796875 339.667969 98.882812 340.003906 99.984375 C 340.339844 101.085938 340.617188 102.203125 340.84375 103.332031 C 341.066406 104.460938 341.238281 105.597656 341.347656 106.746094 C 341.460938 107.890625 341.519531 109.039062 341.519531 110.191406 Z M 341.519531 110.191406 " fill-opacity="1" fill-rule="nonzero"/></g><path fill="#000000" d="M 293.839844 244.007812 C 293.839844 245.390625 293.773438 246.769531 293.636719 248.144531 C 293.5 249.519531 293.296875 250.882812 293.027344 252.238281 C 292.757812 253.59375 292.421875 254.933594 292.023438 256.257812 C 291.621094 257.578125 291.15625 258.878906 290.625 260.15625 C 290.097656 261.433594 289.503906 262.679688 288.851562 263.898438 C 288.199219 265.117188 287.492188 266.300781 286.722656 267.453125 C 285.953125 268.601562 285.128906 269.710938 284.253906 270.777344 C 283.375 271.847656 282.449219 272.867188 281.46875 273.847656 C 280.492188 274.824219 279.46875 275.75 278.398438 276.628906 C 277.328125 277.503906 276.21875 278.324219 275.070312 279.09375 C 273.917969 279.863281 272.734375 280.570312 271.515625 281.222656 C 270.292969 281.875 269.042969 282.464844 267.765625 282.992188 C 266.488281 283.523438 265.1875 283.988281 263.863281 284.386719 C 262.539062 284.789062 261.199219 285.125 259.84375 285.394531 C 258.488281 285.664062 257.121094 285.867188 255.742188 286.003906 C 254.367188 286.136719 252.988281 286.207031 251.601562 286.207031 C 250.21875 286.207031 248.839844 286.136719 247.464844 286.003906 C 246.085938 285.867188 244.71875 285.664062 243.363281 285.394531 C 242.007812 285.125 240.667969 284.789062 239.34375 284.386719 C 238.019531 283.988281 236.71875 283.523438 235.441406 282.992188 C 234.160156 282.464844 232.914062 281.875 231.691406 281.222656 C 230.472656 280.570312 229.289062 279.863281 228.136719 279.09375 C 226.988281 278.324219 225.878906 277.503906 224.808594 276.628906 C 223.738281 275.75 222.714844 274.824219 221.738281 273.847656 C 220.757812 272.867188 219.832031 271.847656 218.953125 270.777344 C 218.074219 269.710938 217.253906 268.601562 216.484375 267.453125 C 215.714844 266.300781 215.003906 265.117188 214.355469 263.898438 C 213.703125 262.679688 213.109375 261.433594 212.582031 260.15625 C 212.050781 258.878906 211.585938 257.578125 211.183594 256.257812 C 210.785156 254.933594 210.449219 253.59375 210.179688 252.238281 C 209.90625 250.882812 209.707031 249.519531 209.570312 248.144531 C 209.433594 246.769531 209.367188 245.390625 209.367188 244.007812 C 209.367188 242.625 209.433594 241.246094 209.570312 239.871094 C 209.707031 238.496094 209.90625 237.132812 210.179688 235.777344 C 210.449219 234.421875 210.785156 233.082031 211.183594 231.757812 C 211.585938 230.4375 212.050781 229.136719 212.582031 227.859375 C 213.109375 226.582031 213.703125 225.335938 214.355469 224.117188 C 215.003906 222.898438 215.714844 221.714844 216.484375 220.5625 C 217.253906 219.414062 218.074219 218.304688 218.953125 217.238281 C 219.832031 216.167969 220.757812 215.148438 221.738281 214.167969 C 222.714844 213.191406 223.738281 212.265625 224.808594 211.386719 C 225.878906 210.511719 226.988281 209.691406 228.136719 208.921875 C 229.289062 208.152344 230.472656 207.445312 231.691406 206.792969 C 232.914062 206.140625 234.160156 205.550781 235.441406 205.023438 C 236.71875 204.492188 238.019531 204.027344 239.34375 203.628906 C 240.667969 203.226562 242.007812 202.890625 243.363281 202.621094 C 244.71875 202.351562 246.085938 202.148438 247.464844 202.011719 C 248.839844 201.878906 250.21875 201.808594 251.601562 201.808594 C 252.988281 201.808594 254.367188 201.878906 255.742188 202.011719 C 257.121094 202.148438 258.488281 202.351562 259.84375 202.621094 C 261.199219 202.890625 262.539062 203.226562 263.863281 203.628906 C 265.1875 204.027344 266.488281 204.492188 267.765625 205.023438 C 269.042969 205.550781 270.292969 206.140625 271.515625 206.792969 C 272.734375 207.445312 273.917969 208.152344 275.070312 208.921875 C 276.21875 209.691406 277.328125 210.511719 278.398438 211.386719 C 279.46875 212.265625 280.492188 213.191406 281.46875 214.167969 C 282.449219 215.148438 283.375 216.167969 284.253906 217.238281 C 285.128906 218.304688 285.953125 219.414062 286.722656 220.5625 C 287.492188 221.714844 288.199219 222.898438 288.851562 224.117188 C 289.503906 225.335938 290.097656 226.582031 290.625 227.859375 C 291.15625 229.136719 291.621094 230.4375 292.023438 231.757812 C 292.421875 233.082031 292.757812 234.421875 293.027344 235.777344 C 293.296875 237.132812 293.5 238.496094 293.636719 239.871094 C 293.773438 241.246094 293.839844 242.625 293.839844 244.007812 Z M 293.839844 244.007812 " fill-opacity="1" fill-rule="nonzero"/><g clip-path="url(#1d6583194f)"><path fill="#000000" d="M 251.601562 398.734375 C 208.269531 398.734375 192.695312 388 191.0625 386.777344 C 189.289062 385.453125 188.246094 383.367188 188.246094 381.152344 L 188.246094 356.535156 C 188.246094 321.628906 216.671875 293.238281 251.601562 293.238281 C 286.539062 293.238281 314.960938 321.628906 314.960938 356.535156 L 314.960938 381.152344 C 314.960938 383.359375 313.917969 385.449219 312.144531 386.777344 C 310.515625 388 294.9375 398.734375 251.601562 398.734375 Z M 251.601562 398.734375 " fill-opacity="1" fill-rule="nonzero"/></g><g clip-path="url(#55a8822f3f)"><path fill="#000000" d="M 200.1875 298.851562 C 193.316406 271.332031 168.425781 250.851562 138.78125 250.851562 C 103.851562 250.851562 75.425781 279.242188 75.425781 314.148438 L 75.425781 338.761719 C 75.425781 340.972656 76.46875 343.058594 78.242188 344.390625 C 79.875 345.613281 95.445312 356.34375 138.78125 356.34375 C 153.796875 356.34375 165.410156 355.042969 174.335938 353.308594 C 175.230469 331.679688 185.023438 312.355469 200.1875 298.851562 Z M 200.1875 298.851562 " fill-opacity="1" fill-rule="nonzero"/></g><g clip-path="url(#c0ab95a7a5)"><path fill="#000000" d="M 364.046875 250.851562 C 334.5 250.851562 309.6875 271.191406 302.710938 298.570312 C 318.070312 312.101562 327.996094 331.574219 328.882812 353.382812 C 337.761719 355.078125 349.25 356.34375 364.046875 356.34375 C 407.375 356.34375 422.953125 345.613281 424.585938 344.390625 C 426.359375 343.066406 427.402344 340.976562 427.402344 338.761719 L 427.402344 314.148438 C 427.402344 279.242188 398.984375 250.851562 364.046875 250.851562 Z M 364.046875 250.851562 " fill-opacity="1" fill-rule="nonzero"/></g><path fill="#000000" d="M 406.472656 201.808594 C 406.472656 203.191406 406.40625 204.570312 406.269531 205.945312 C 406.132812 207.320312 405.929688 208.6875 405.660156 210.042969 C 405.390625 211.398438 405.054688 212.738281 404.652344 214.058594 C 404.253906 215.382812 403.785156 216.679688 403.257812 217.957031 C 402.726562 219.234375 402.136719 220.484375 401.484375 221.703125 C 400.832031 222.921875 400.121094 224.105469 399.355469 225.253906 C 398.585938 226.402344 397.761719 227.511719 396.886719 228.578125 C 396.007812 229.648438 395.078125 230.671875 394.101562 231.648438 C 393.125 232.625 392.101562 233.550781 391.03125 234.429688 C 389.960938 235.304688 388.851562 236.128906 387.699219 236.894531 C 386.550781 237.664062 385.367188 238.375 384.144531 239.023438 C 382.925781 239.675781 381.675781 240.265625 380.398438 240.796875 C 379.121094 241.324219 377.820312 241.789062 376.496094 242.191406 C 375.171875 242.59375 373.832031 242.925781 372.476562 243.195312 C 371.117188 243.464844 369.753906 243.667969 368.375 243.804688 C 367 243.941406 365.617188 244.007812 364.234375 244.007812 C 362.851562 244.007812 361.472656 243.941406 360.09375 243.804688 C 358.71875 243.667969 357.351562 243.464844 355.996094 243.195312 C 354.640625 242.925781 353.296875 242.59375 351.976562 242.191406 C 350.652344 241.789062 349.351562 241.324219 348.070312 240.796875 C 346.792969 240.265625 345.546875 239.675781 344.324219 239.023438 C 343.105469 238.375 341.921875 237.664062 340.769531 236.894531 C 339.621094 236.128906 338.511719 235.304688 337.441406 234.429688 C 336.371094 233.550781 335.347656 232.625 334.371094 231.648438 C 333.390625 230.671875 332.464844 229.648438 331.585938 228.578125 C 330.707031 227.511719 329.886719 226.402344 329.117188 225.253906 C 328.347656 224.105469 327.636719 222.921875 326.984375 221.703125 C 326.332031 220.484375 325.742188 219.234375 325.214844 217.957031 C 324.683594 216.679688 324.21875 215.382812 323.816406 214.058594 C 323.414062 212.738281 323.078125 211.398438 322.808594 210.042969 C 322.539062 208.6875 322.335938 207.320312 322.203125 205.945312 C 322.066406 204.570312 322 203.191406 322 201.808594 C 322 200.429688 322.066406 199.050781 322.203125 197.675781 C 322.335938 196.296875 322.539062 194.933594 322.808594 193.578125 C 323.078125 192.222656 323.414062 190.882812 323.816406 189.5625 C 324.21875 188.238281 324.683594 186.9375 325.214844 185.660156 C 325.742188 184.386719 326.332031 183.136719 326.984375 181.917969 C 327.636719 180.699219 328.347656 179.515625 329.117188 178.367188 C 329.886719 177.21875 330.707031 176.109375 331.585938 175.039062 C 332.464844 173.972656 333.390625 172.949219 334.371094 171.972656 C 335.347656 170.996094 336.371094 170.066406 337.441406 169.191406 C 338.511719 168.3125 339.621094 167.492188 340.769531 166.722656 C 341.921875 165.957031 343.105469 165.246094 344.324219 164.59375 C 345.546875 163.945312 346.792969 163.351562 348.070312 162.824219 C 349.351562 162.296875 350.652344 161.832031 351.976562 161.429688 C 353.296875 161.027344 354.640625 160.691406 355.996094 160.421875 C 357.351562 160.152344 358.71875 159.949219 360.09375 159.816406 C 361.472656 159.679688 362.851562 159.613281 364.234375 159.613281 C 365.617188 159.613281 367 159.679688 368.375 159.816406 C 369.753906 159.949219 371.117188 160.152344 372.476562 160.421875 C 373.832031 160.691406 375.171875 161.027344 376.496094 161.429688 C 377.820312 161.832031 379.121094 162.296875 380.398438 162.824219 C 381.675781 163.351562 382.925781 163.945312 384.144531 164.59375 C 385.367188 165.246094 386.550781 165.957031 387.703125 166.722656 C 388.851562 167.492188 389.960938 168.3125 391.03125 169.191406 C 392.101562 170.066406 393.125 170.996094 394.101562 171.972656 C 395.078125 172.949219 396.007812 173.972656 396.886719 175.039062 C 397.761719 176.109375 398.585938 177.21875 399.355469 178.367188 C 400.121094 179.515625 400.832031 180.699219 401.484375 181.917969 C 402.136719 183.136719 402.726562 184.386719 403.257812 185.660156 C 403.785156 186.9375 404.253906 188.238281 404.652344 189.5625 C 405.054688 190.882812 405.390625 192.222656 405.660156 193.578125 C 405.929688 194.933594 406.132812 196.296875 406.269531 197.675781 C 406.40625 199.050781 406.472656 200.429688 406.472656 201.808594 Z M 406.472656 201.808594 " fill-opacity="1" fill-rule="nonzero"/><path fill="#000000" d="M 181.207031 201.808594 C 181.207031 203.191406 181.140625 204.570312 181.003906 205.945312 C 180.871094 207.320312 180.667969 208.6875 180.398438 210.042969 C 180.125 211.398438 179.792969 212.738281 179.390625 214.058594 C 178.988281 215.382812 178.523438 216.679688 177.992188 217.957031 C 177.464844 219.234375 176.875 220.484375 176.222656 221.703125 C 175.570312 222.921875 174.859375 224.105469 174.089844 225.253906 C 173.320312 226.402344 172.5 227.511719 171.621094 228.578125 C 170.742188 229.648438 169.816406 230.671875 168.835938 231.648438 C 167.859375 232.625 166.835938 233.550781 165.765625 234.429688 C 164.695312 235.304688 163.585938 236.128906 162.4375 236.894531 C 161.285156 237.664062 160.101562 238.375 158.882812 239.023438 C 157.660156 239.675781 156.414062 240.265625 155.132812 240.796875 C 153.855469 241.324219 152.554688 241.789062 151.230469 242.191406 C 149.910156 242.59375 148.566406 242.925781 147.210938 243.195312 C 145.855469 243.464844 144.488281 243.667969 143.109375 243.804688 C 141.734375 243.941406 140.355469 244.007812 138.972656 244.007812 C 137.589844 244.007812 136.207031 243.941406 134.832031 243.804688 C 133.453125 243.667969 132.089844 243.464844 130.730469 243.195312 C 129.375 242.925781 128.035156 242.59375 126.710938 242.191406 C 125.386719 241.789062 124.085938 241.324219 122.808594 240.796875 C 121.53125 240.265625 120.28125 239.675781 119.0625 239.023438 C 117.839844 238.375 116.65625 237.664062 115.503906 236.894531 C 114.355469 236.128906 113.246094 235.304688 112.175781 234.429688 C 111.105469 233.550781 110.082031 232.625 109.105469 231.648438 C 108.128906 230.671875 107.199219 229.648438 106.320312 228.578125 C 105.445312 227.511719 104.621094 226.402344 103.851562 225.253906 C 103.082031 224.105469 102.375 222.921875 101.722656 221.703125 C 101.070312 220.484375 100.480469 219.234375 99.949219 217.957031 C 99.421875 216.679688 98.953125 215.382812 98.554688 214.058594 C 98.152344 212.738281 97.816406 211.398438 97.546875 210.042969 C 97.277344 208.6875 97.074219 207.320312 96.9375 205.945312 C 96.800781 204.570312 96.734375 203.191406 96.734375 201.808594 C 96.734375 200.429688 96.800781 199.050781 96.9375 197.675781 C 97.074219 196.296875 97.277344 194.933594 97.546875 193.578125 C 97.816406 192.222656 98.152344 190.882812 98.554688 189.5625 C 98.953125 188.238281 99.421875 186.9375 99.949219 185.660156 C 100.480469 184.386719 101.070312 183.136719 101.722656 181.917969 C 102.375 180.699219 103.082031 179.515625 103.851562 178.367188 C 104.621094 177.21875 105.445312 176.109375 106.320312 175.039062 C 107.199219 173.972656 108.128906 172.949219 109.105469 171.972656 C 110.082031 170.996094 111.105469 170.066406 112.175781 169.191406 C 113.246094 168.3125 114.355469 167.492188 115.503906 166.722656 C 116.65625 165.957031 117.839844 165.246094 119.0625 164.59375 C 120.28125 163.945312 121.53125 163.351562 122.808594 162.824219 C 124.085938 162.296875 125.386719 161.832031 126.710938 161.429688 C 128.035156 161.027344 129.375 160.691406 130.730469 160.421875 C 132.089844 160.152344 133.453125 159.949219 134.832031 159.816406 C 136.207031 159.679688 137.589844 159.613281 138.972656 159.613281 C 140.355469 159.613281 141.734375 159.679688 143.109375 159.816406 C 144.488281 159.949219 145.855469 160.152344 147.210938 160.421875 C 148.566406 160.691406 149.910156 161.027344 151.230469 161.429688 C 152.554688 161.832031 153.855469 162.296875 155.132812 162.824219 C 156.414062 163.351562 157.660156 163.945312 158.882812 164.59375 C 160.101562 165.246094 161.285156 165.957031 162.4375 166.722656 C 163.585938 167.492188 164.695312 168.3125 165.765625 169.191406 C 166.835938 170.066406 167.859375 170.996094 168.835938 171.972656 C 169.816406 172.949219 170.742188 173.972656 171.621094 175.039062 C 172.5 176.109375 173.320312 177.21875 174.089844 178.367188 C 174.859375 179.515625 175.570312 180.699219 176.222656 181.917969 C 176.875 183.136719 177.464844 184.386719 177.992188 185.660156 C 178.523438 186.9375 178.988281 188.238281 179.390625 189.5625 C 179.792969 190.882812 180.125 192.222656 180.398438 193.578125 C 180.667969 194.933594 180.871094 196.296875 181.003906 197.675781 C 181.140625 199.050781 181.207031 200.429688 181.207031 201.808594 Z M 181.207031 201.808594 " fill-opacity="1" fill-rule="nonzero"/><path fill="#000000" d="M 307.917969 244.007812 C 307.917969 251.890625 306.277344 259.394531 303.335938 266.203125 C 310.199219 257.519531 318.867188 250.441406 328.679688 245.386719 C 316.023438 235.0625 307.925781 219.363281 307.925781 201.808594 C 307.925781 184.148438 316.128906 168.390625 328.902344 158.066406 C 322.175781 154.476562 314.578125 152.390625 306.320312 152.390625 C 283.519531 152.390625 264.691406 167.46875 258.945312 188.277344 C 286.527344 191.894531 307.917969 215.476562 307.917969 244.007812 Z M 307.917969 244.007812 " fill-opacity="1" fill-rule="nonzero"/><path fill="#000000" d="M 195.289062 201.808594 C 195.289062 219.425781 187.121094 235.175781 174.386719 245.5 C 184.636719 250.816406 193.589844 258.363281 200.558594 267.625 C 197.210938 260.4375 195.289062 252.449219 195.289062 244.007812 C 195.289062 216.066406 215.800781 192.886719 242.550781 188.539062 C 236.898438 167.59375 217.996094 152.390625 195.097656 152.390625 C 187.269531 152.390625 180.011719 154.246094 173.542969 157.496094 C 186.75 167.796875 195.289062 183.8125 195.289062 201.808594 Z M 195.289062 201.808594 " fill-opacity="1" fill-rule="nonzero"/><g fill="#000000" fill-opacity="1"><g transform="translate(98.793883, 438.278745)"><g><path d="M 14.328125 -11.890625 L 13.75 -11.890625 C 13.476562 -13.234375 13.113281 -14.082031 12.65625 -14.4375 C 12.195312 -14.800781 11.28125 -14.984375 9.90625 -14.984375 L 8.609375 -14.984375 L 8.609375 -2.640625 C 8.609375 -1.753906 8.742188 -1.179688 9.015625 -0.921875 C 9.285156 -0.660156 9.921875 -0.503906 10.921875 -0.453125 L 10.921875 0 L 3.875 0 L 3.875 -0.453125 C 4.863281 -0.523438 5.488281 -0.691406 5.75 -0.953125 C 6.007812 -1.222656 6.140625 -1.875 6.140625 -2.90625 L 6.140625 -14.984375 L 4.828125 -14.984375 C 3.472656 -14.984375 2.566406 -14.796875 2.109375 -14.421875 C 1.648438 -14.054688 1.273438 -13.210938 0.984375 -11.890625 L 0.40625 -11.890625 L 0.5625 -16 L 14.1875 -16 Z M 14.328125 -11.890625 "/></g></g></g><g fill="#000000" fill-opacity="1"><g transform="translate(113.567646, 438.278745)"><g><path d="M 11.765625 0 L 6.640625 0 L 6.640625 -0.359375 C 7.335938 -0.421875 7.785156 -0.582031 7.984375 -0.84375 C 8.191406 -1.101562 8.296875 -1.644531 8.296875 -2.46875 L 8.296875 -7.25 C 8.296875 -8.957031 7.691406 -9.8125 6.484375 -9.8125 C 6.015625 -9.8125 5.570312 -9.691406 5.15625 -9.453125 C 4.75 -9.222656 4.296875 -8.835938 3.796875 -8.296875 L 3.796875 -2.46875 C 3.796875 -1.625 3.890625 -1.082031 4.078125 -0.84375 C 4.273438 -0.601562 4.726562 -0.441406 5.4375 -0.359375 L 5.4375 0 L 0.21875 0 L 0.21875 -0.359375 C 0.90625 -0.453125 1.332031 -0.613281 1.5 -0.84375 C 1.675781 -1.070312 1.765625 -1.613281 1.765625 -2.46875 L 1.765625 -13.84375 C 1.765625 -14.363281 1.6875 -14.695312 1.53125 -14.84375 C 1.382812 -15 1.050781 -15.078125 0.53125 -15.078125 C 0.40625 -15.078125 0.304688 -15.070312 0.234375 -15.0625 L 0.234375 -15.453125 L 0.890625 -15.640625 C 1.984375 -15.941406 2.910156 -16.234375 3.671875 -16.515625 L 3.796875 -16.4375 L 3.796875 -9.09375 C 4.359375 -9.8125 4.910156 -10.328125 5.453125 -10.640625 C 6.003906 -10.960938 6.632812 -11.125 7.34375 -11.125 C 9.332031 -11.125 10.328125 -9.84375 10.328125 -7.28125 L 10.328125 -2.46875 C 10.328125 -1.625 10.398438 -1.09375 10.546875 -0.875 C 10.703125 -0.664062 11.109375 -0.492188 11.765625 -0.359375 Z M 11.765625 0 "/></g></g></g><g fill="#000000" fill-opacity="1"><g transform="translate(125.657472, 438.278745)"><g><path d="M 6.109375 0 L 0.390625 0 L 0.390625 -0.359375 C 1.222656 -0.410156 1.75 -0.554688 1.96875 -0.796875 C 2.1875 -1.035156 2.296875 -1.59375 2.296875 -2.46875 L 2.296875 -8.078125 C 2.296875 -8.609375 2.234375 -8.984375 2.109375 -9.203125 C 1.992188 -9.421875 1.789062 -9.53125 1.5 -9.53125 C 1.238281 -9.53125 0.960938 -9.503906 0.671875 -9.453125 L 0.484375 -9.421875 L 0.484375 -9.796875 L 4.234375 -11.125 L 4.328125 -11.046875 L 4.328125 -2.46875 C 4.328125 -1.59375 4.425781 -1.035156 4.625 -0.796875 C 4.832031 -0.566406 5.328125 -0.421875 6.109375 -0.359375 Z M 4.546875 -14.265625 C 4.546875 -13.910156 4.425781 -13.613281 4.1875 -13.375 C 3.957031 -13.144531 3.664062 -13.03125 3.3125 -13.03125 C 2.96875 -13.03125 2.675781 -13.144531 2.4375 -13.375 C 2.195312 -13.613281 2.078125 -13.910156 2.078125 -14.265625 C 2.078125 -14.597656 2.195312 -14.882812 2.4375 -15.125 C 2.675781 -15.375 2.96875 -15.5 3.3125 -15.5 C 3.664062 -15.5 3.957031 -15.375 4.1875 -15.125 C 4.425781 -14.882812 4.546875 -14.597656 4.546875 -14.265625 Z M 4.546875 -14.265625 "/></g></g></g><g fill="#000000" fill-opacity="1"><g transform="translate(132.379422, 438.278745)"><g><path d="M 8.40625 -2.859375 C 8.40625 -2.015625 8.070312 -1.285156 7.40625 -0.671875 C 6.738281 -0.0664062 5.945312 0.234375 5.03125 0.234375 C 4.59375 0.234375 3.992188 0.15625 3.234375 0 C 2.722656 -0.125 2.351562 -0.1875 2.125 -0.1875 C 1.882812 -0.1875 1.703125 -0.09375 1.578125 0.09375 L 1.25 0.09375 L 1.25 -3.671875 L 1.640625 -3.671875 C 1.910156 -2.453125 2.28125 -1.582031 2.75 -1.0625 C 3.21875 -0.550781 3.875 -0.296875 4.71875 -0.296875 C 5.320312 -0.296875 5.804688 -0.453125 6.171875 -0.765625 C 6.535156 -1.078125 6.71875 -1.5 6.71875 -2.03125 C 6.71875 -2.757812 6.300781 -3.363281 5.46875 -3.84375 L 4.0625 -4.640625 C 3.03125 -5.234375 2.300781 -5.789062 1.875 -6.3125 C 1.445312 -6.84375 1.234375 -7.445312 1.234375 -8.125 C 1.234375 -9.007812 1.539062 -9.722656 2.15625 -10.265625 C 2.78125 -10.816406 3.582031 -11.09375 4.5625 -11.09375 C 5.164062 -11.09375 5.71875 -11 6.21875 -10.8125 C 6.457031 -10.695312 6.671875 -10.640625 6.859375 -10.640625 C 6.929688 -10.640625 7.046875 -10.703125 7.203125 -10.828125 L 7.25 -10.875 L 7.515625 -10.875 L 7.609375 -7.59375 L 7.25 -7.59375 C 6.976562 -8.664062 6.640625 -9.425781 6.234375 -9.875 C 5.828125 -10.332031 5.28125 -10.5625 4.59375 -10.5625 C 4.03125 -10.5625 3.578125 -10.410156 3.234375 -10.109375 C 2.898438 -9.816406 2.734375 -9.421875 2.734375 -8.921875 C 2.734375 -8.222656 3.078125 -7.675781 3.765625 -7.28125 L 6.375 -5.734375 C 7.125 -5.296875 7.648438 -4.859375 7.953125 -4.421875 C 8.253906 -3.984375 8.40625 -3.460938 8.40625 -2.859375 Z M 8.40625 -2.859375 "/></g></g></g><g fill="#000000" fill-opacity="1"><g transform="translate(141.78531, 438.278745)"><g/></g></g><g fill="#000000" fill-opacity="1"><g transform="translate(147.830235, 438.278745)"><g><path d="M 6.109375 0 L 0.390625 0 L 0.390625 -0.359375 C 1.222656 -0.410156 1.75 -0.554688 1.96875 -0.796875 C 2.1875 -1.035156 2.296875 -1.59375 2.296875 -2.46875 L 2.296875 -8.078125 C 2.296875 -8.609375 2.234375 -8.984375 2.109375 -9.203125 C 1.992188 -9.421875 1.789062 -9.53125 1.5 -9.53125 C 1.238281 -9.53125 0.960938 -9.503906 0.671875 -9.453125 L 0.484375 -9.421875 L 0.484375 -9.796875 L 4.234375 -11.125 L 4.328125 -11.046875 L 4.328125 -2.46875 C 4.328125 -1.59375 4.425781 -1.035156 4.625 -0.796875 C 4.832031 -0.566406 5.328125 -0.421875 6.109375 -0.359375 Z M 4.546875 -14.265625 C 4.546875 -13.910156 4.425781 -13.613281 4.1875 -13.375 C 3.957031 -13.144531 3.664062 -13.03125 3.3125 -13.03125 C 2.96875 -13.03125 2.675781 -13.144531 2.4375 -13.375 C 2.195312 -13.613281 2.078125 -13.910156 2.078125 -14.265625 C 2.078125 -14.597656 2.195312 -14.882812 2.4375 -15.125 C 2.675781 -15.375 2.96875 -15.5 3.3125 -15.5 C 3.664062 -15.5 3.957031 -15.375 4.1875 -15.125 C 4.425781 -14.882812 4.546875 -14.597656 4.546875 -14.265625 Z M 4.546875 -14.265625 "/></g></g></g><g fill="#000000" fill-opacity="1"><g transform="translate(154.552185, 438.278745)"><g><path d="M 8.40625 -2.859375 C 8.40625 -2.015625 8.070312 -1.285156 7.40625 -0.671875 C 6.738281 -0.0664062 5.945312 0.234375 5.03125 0.234375 C 4.59375 0.234375 3.992188 0.15625 3.234375 0 C 2.722656 -0.125 2.351562 -0.1875 2.125 -0.1875 C 1.882812 -0.1875 1.703125 -0.09375 1.578125 0.09375 L 1.25 0.09375 L 1.25 -3.671875 L 1.640625 -3.671875 C 1.910156 -2.453125 2.28125 -1.582031 2.75 -1.0625 C 3.21875 -0.550781 3.875 -0.296875 4.71875 -0.296875 C 5.320312 -0.296875 5.804688 -0.453125 6.171875 -0.765625 C 6.535156 -1.078125 6.71875 -1.5 6.71875 -2.03125 C 6.71875 -2.757812 6.300781 -3.363281 5.46875 -3.84375 L 4.0625 -4.640625 C 3.03125 -5.234375 2.300781 -5.789062 1.875 -6.3125 C 1.445312 -6.84375 1.234375 -7.445312 1.234375 -8.125 C 1.234375 -9.007812 1.539062 -9.722656 2.15625 -10.265625 C 2.78125 -10.816406 3.582031 -11.09375 4.5625 -11.09375 C 5.164062 -11.09375 5.71875 -11 6.21875 -10.8125 C 6.457031 -10.695312 6.671875 -10.640625 6.859375 -10.640625 C 6.929688 -10.640625 7.046875 -10.703125 7.203125 -10.828125 L 7.25 -10.875 L 7.515625 -10.875 L 7.609375 -7.59375 L 7.25 -7.59375 C 6.976562 -8.664062 6.640625 -9.425781 6.234375 -9.875 C 5.828125 -10.332031 5.28125 -10.5625 4.59375 -10.5625 C 4.03125 -10.5625 3.578125 -10.410156 3.234375 -10.109375 C 2.898438 -9.816406 2.734375 -9.421875 2.734375 -8.921875 C 2.734375 -8.222656 3.078125 -7.675781 3.765625 -7.28125 L 6.375 -5.734375 C 7.125 -5.296875 7.648438 -4.859375 7.953125 -4.421875 C 8.253906 -3.984375 8.40625 -3.460938 8.40625 -2.859375 Z M 8.40625 -2.859375 "/></g></g></g><g fill="#000000" fill-opacity="1"><g transform="translate(163.958073, 438.278745)"><g/></g></g><g fill="#000000" fill-opacity="1"><g transform="translate(170.002997, 438.278745)"><g><path d="M 10.6875 -0.96875 C 10.269531 -0.5 9.898438 -0.179688 9.578125 -0.015625 C 9.265625 0.148438 8.910156 0.234375 8.515625 0.234375 C 8.015625 0.234375 7.644531 0.101562 7.40625 -0.15625 C 7.175781 -0.425781 7.03125 -0.878906 6.96875 -1.515625 C 5.570312 -0.347656 4.394531 0.234375 3.4375 0.234375 C 2.695312 0.234375 2.085938 -0.00390625 1.609375 -0.484375 C 1.128906 -0.960938 0.890625 -1.582031 0.890625 -2.34375 C 0.890625 -3.21875 1.179688 -3.921875 1.765625 -4.453125 C 2.273438 -4.898438 2.789062 -5.253906 3.3125 -5.515625 C 3.84375 -5.785156 5.050781 -6.300781 6.9375 -7.0625 L 6.9375 -8.53125 C 6.9375 -9.863281 6.320312 -10.53125 5.09375 -10.53125 C 4.613281 -10.53125 4.203125 -10.414062 3.859375 -10.1875 C 3.523438 -9.957031 3.359375 -9.679688 3.359375 -9.359375 C 3.359375 -9.179688 3.382812 -8.988281 3.4375 -8.78125 C 3.46875 -8.550781 3.484375 -8.421875 3.484375 -8.390625 C 3.484375 -8.117188 3.375 -7.878906 3.15625 -7.671875 C 2.9375 -7.472656 2.679688 -7.375 2.390625 -7.375 C 2.097656 -7.375 1.851562 -7.476562 1.65625 -7.6875 C 1.457031 -7.894531 1.359375 -8.132812 1.359375 -8.40625 C 1.359375 -9.070312 1.6875 -9.675781 2.34375 -10.21875 C 3.070312 -10.820312 4.097656 -11.125 5.421875 -11.125 C 6.910156 -11.125 7.914062 -10.65625 8.4375 -9.71875 C 8.738281 -9.21875 8.890625 -8.394531 8.890625 -7.25 L 8.890625 -2.53125 C 8.890625 -2 8.941406 -1.632812 9.046875 -1.4375 C 9.148438 -1.238281 9.34375 -1.140625 9.625 -1.140625 C 9.957031 -1.140625 10.3125 -1.289062 10.6875 -1.59375 Z M 6.9375 -2.96875 L 6.9375 -6.484375 C 5.488281 -5.953125 4.472656 -5.4375 3.890625 -4.9375 C 3.304688 -4.4375 3.015625 -3.832031 3.015625 -3.125 L 3.015625 -3.015625 C 3.015625 -2.503906 3.164062 -2.066406 3.46875 -1.703125 C 3.769531 -1.335938 4.128906 -1.15625 4.546875 -1.15625 C 5.109375 -1.15625 5.695312 -1.332031 6.3125 -1.6875 C 6.570312 -1.851562 6.738281 -2.015625 6.8125 -2.171875 C 6.894531 -2.335938 6.9375 -2.601562 6.9375 -2.96875 Z M 6.9375 -2.96875 "/></g></g></g><g fill="#000000" fill-opacity="1"><g transform="translate(180.738771, 438.278745)"><g/></g></g><g fill="#000000" fill-opacity="1"><g transform="translate(186.783695, 438.278745)"><g><path d="M 11.359375 -9.375 L 9.359375 -9.375 C 9.660156 -8.6875 9.8125 -8.007812 9.8125 -7.34375 C 9.8125 -6.1875 9.425781 -5.273438 8.65625 -4.609375 C 7.882812 -3.941406 7.015625 -3.609375 6.046875 -3.609375 C 5.878906 -3.609375 5.570312 -3.628906 5.125 -3.671875 C 5.101562 -3.671875 4.953125 -3.6875 4.671875 -3.71875 C 4.347656 -3.625 4.023438 -3.40625 3.703125 -3.0625 C 3.378906 -2.726562 3.21875 -2.441406 3.21875 -2.203125 C 3.21875 -1.816406 3.84375 -1.597656 5.09375 -1.546875 L 8.21875 -1.40625 C 9.101562 -1.375 9.8125 -1.125 10.34375 -0.65625 C 10.875 -0.1875 11.140625 0.425781 11.140625 1.1875 C 11.140625 2.082031 10.695312 2.894531 9.8125 3.625 C 8.457031 4.71875 6.804688 5.265625 4.859375 5.265625 C 3.710938 5.265625 2.726562 5.035156 1.90625 4.578125 C 1.082031 4.117188 0.671875 3.566406 0.671875 2.921875 C 0.671875 2.472656 0.851562 2.023438 1.21875 1.578125 C 1.582031 1.140625 2.191406 0.601562 3.046875 -0.03125 C 2.546875 -0.269531 2.207031 -0.476562 2.03125 -0.65625 C 1.851562 -0.832031 1.765625 -1.050781 1.765625 -1.3125 C 1.765625 -1.769531 2.132812 -2.320312 2.875 -2.96875 L 3.921875 -3.9375 C 3.109375 -4.34375 2.53125 -4.796875 2.1875 -5.296875 C 1.84375 -5.796875 1.671875 -6.421875 1.671875 -7.171875 C 1.671875 -8.273438 2.0625 -9.207031 2.84375 -9.96875 C 3.625 -10.738281 4.578125 -11.125 5.703125 -11.125 C 6.347656 -11.125 6.992188 -11 7.640625 -10.75 L 8.171875 -10.5625 C 8.640625 -10.40625 9.082031 -10.328125 9.5 -10.328125 L 11.359375 -10.328125 Z M 10.46875 1.546875 C 10.46875 1.109375 10.238281 0.800781 9.78125 0.625 C 9.332031 0.445312 8.5625 0.359375 7.46875 0.359375 C 5.84375 0.359375 4.535156 0.253906 3.546875 0.046875 C 3.046875 0.640625 2.722656 1.066406 2.578125 1.328125 C 2.441406 1.585938 2.375 1.851562 2.375 2.125 C 2.375 2.65625 2.691406 3.082031 3.328125 3.40625 C 3.972656 3.726562 4.828125 3.890625 5.890625 3.890625 C 7.265625 3.890625 8.367188 3.671875 9.203125 3.234375 C 10.046875 2.804688 10.46875 2.242188 10.46875 1.546875 Z M 7.953125 -6.40625 C 7.953125 -7.40625 7.710938 -8.375 7.234375 -9.3125 C 6.828125 -10.0625 6.238281 -10.4375 5.46875 -10.4375 C 4.894531 -10.4375 4.453125 -10.234375 4.140625 -9.828125 C 3.828125 -9.429688 3.671875 -8.878906 3.671875 -8.171875 L 3.671875 -8.09375 C 3.671875 -6.9375 3.898438 -6 4.359375 -5.28125 C 4.816406 -4.5625 5.410156 -4.203125 6.140625 -4.203125 C 6.703125 -4.203125 7.144531 -4.398438 7.46875 -4.796875 C 7.789062 -5.191406 7.953125 -5.726562 7.953125 -6.40625 Z M 7.953125 -6.40625 "/></g></g></g><g fill="#000000" fill-opacity="1"><g transform="translate(198.873521, 438.278745)"><g><path d="M 8.09375 -9.84375 C 8.09375 -9.5 8.007812 -9.226562 7.84375 -9.03125 C 7.675781 -8.84375 7.445312 -8.75 7.15625 -8.75 C 6.882812 -8.75 6.5625 -8.910156 6.1875 -9.234375 C 5.925781 -9.472656 5.71875 -9.59375 5.5625 -9.59375 C 5.238281 -9.59375 4.875 -9.359375 4.46875 -8.890625 C 4.070312 -8.421875 3.875 -7.992188 3.875 -7.609375 L 3.875 -2.171875 C 3.875 -1.484375 4.007812 -1.015625 4.28125 -0.765625 C 4.550781 -0.523438 5.097656 -0.390625 5.921875 -0.359375 L 5.921875 0 L 0.125 0 L 0.125 -0.359375 C 0.894531 -0.503906 1.375 -0.664062 1.5625 -0.84375 C 1.75 -1.019531 1.84375 -1.414062 1.84375 -2.03125 L 1.84375 -8.078125 C 1.84375 -8.609375 1.78125 -8.984375 1.65625 -9.203125 C 1.53125 -9.421875 1.316406 -9.53125 1.015625 -9.53125 C 0.753906 -9.53125 0.472656 -9.492188 0.171875 -9.421875 L 0.171875 -9.8125 C 1.460938 -10.226562 2.65625 -10.664062 3.75 -11.125 L 3.875 -11.078125 L 3.875 -8.84375 C 4.46875 -9.695312 4.972656 -10.289062 5.390625 -10.625 C 5.804688 -10.957031 6.265625 -11.125 6.765625 -11.125 C 7.179688 -11.125 7.503906 -11.007812 7.734375 -10.78125 C 7.972656 -10.550781 8.09375 -10.238281 8.09375 -9.84375 Z M 8.09375 -9.84375 "/></g></g></g><g fill="#000000" fill-opacity="1"><g transform="translate(206.925357, 438.278745)"><g><path d="M 11.359375 -5.65625 C 11.359375 -3.976562 10.84375 -2.578125 9.8125 -1.453125 C 8.78125 -0.328125 7.503906 0.234375 5.984375 0.234375 C 4.472656 0.234375 3.210938 -0.304688 2.203125 -1.390625 C 1.203125 -2.472656 0.703125 -3.832031 0.703125 -5.46875 C 0.703125 -7.125 1.195312 -8.476562 2.1875 -9.53125 C 3.175781 -10.59375 4.460938 -11.125 6.046875 -11.125 C 7.585938 -11.125 8.859375 -10.609375 9.859375 -9.578125 C 10.859375 -8.546875 11.359375 -7.238281 11.359375 -5.65625 Z M 9.1875 -4.8125 C 9.1875 -6.46875 8.863281 -7.816406 8.21875 -8.859375 C 7.570312 -9.910156 6.742188 -10.4375 5.734375 -10.4375 C 4.878906 -10.4375 4.1875 -10.085938 3.65625 -9.390625 C 3.132812 -8.703125 2.875 -7.785156 2.875 -6.640625 C 2.875 -4.859375 3.226562 -3.304688 3.9375 -1.984375 C 4.488281 -0.953125 5.269531 -0.4375 6.28125 -0.4375 C 7.1875 -0.4375 7.894531 -0.820312 8.40625 -1.59375 C 8.925781 -2.363281 9.1875 -3.4375 9.1875 -4.8125 Z M 9.1875 -4.8125 "/></g></g></g><g fill="#000000" fill-opacity="1"><g transform="translate(219.015183, 438.278745)"><g><path d="M 11.578125 -0.875 C 10.316406 -0.53125 9.210938 -0.164062 8.265625 0.21875 L 8.171875 0.171875 L 8.171875 -1.84375 L 7.125 -0.796875 C 6.4375 -0.109375 5.609375 0.234375 4.640625 0.234375 C 3.753906 0.234375 3.046875 -0.046875 2.515625 -0.609375 C 1.984375 -1.179688 1.71875 -1.945312 1.71875 -2.90625 L 1.71875 -8.984375 C 1.71875 -9.554688 1.613281 -9.945312 1.40625 -10.15625 C 1.195312 -10.375 0.800781 -10.5 0.21875 -10.53125 L 0.21875 -10.875 L 3.75 -10.875 L 3.75 -3 C 3.75 -2.5 3.914062 -2.066406 4.25 -1.703125 C 4.59375 -1.335938 5 -1.15625 5.46875 -1.15625 C 6.238281 -1.15625 6.960938 -1.445312 7.640625 -2.03125 C 7.910156 -2.238281 8.046875 -2.648438 8.046875 -3.265625 L 8.046875 -8.9375 C 8.046875 -9.539062 7.9375 -9.9375 7.71875 -10.125 C 7.5 -10.320312 7.015625 -10.4375 6.265625 -10.46875 L 6.265625 -10.875 L 10.078125 -10.875 L 10.078125 -2.59375 C 10.078125 -2.019531 10.171875 -1.644531 10.359375 -1.46875 C 10.546875 -1.289062 10.910156 -1.203125 11.453125 -1.203125 L 11.578125 -1.203125 Z M 11.578125 -0.875 "/></g></g></g><g fill="#000000" fill-opacity="1"><g transform="translate(231.105009, 438.278745)"><g><path d="M 11.359375 -5.96875 C 11.359375 -4.207031 10.867188 -2.734375 9.890625 -1.546875 C 8.921875 -0.359375 7.71875 0.234375 6.28125 0.234375 C 5.769531 0.234375 5.335938 0.160156 4.984375 0.015625 C 4.640625 -0.117188 4.257812 -0.390625 3.84375 -0.796875 L 3.84375 3 C 3.84375 3.757812 3.96875 4.242188 4.21875 4.453125 C 4.476562 4.671875 5.0625 4.789062 5.96875 4.8125 L 5.96875 5.25 L 0.125 5.25 L 0.125 4.828125 C 0.832031 4.765625 1.289062 4.628906 1.5 4.421875 C 1.707031 4.210938 1.8125 3.796875 1.8125 3.171875 L 1.8125 -8.140625 C 1.8125 -8.703125 1.742188 -9.070312 1.609375 -9.25 C 1.484375 -9.4375 1.222656 -9.53125 0.828125 -9.53125 C 0.566406 -9.53125 0.363281 -9.519531 0.21875 -9.5 L 0.21875 -9.890625 C 1.226562 -10.191406 2.390625 -10.601562 3.703125 -11.125 L 3.84375 -11.078125 L 3.84375 -9.203125 C 4.875 -10.484375 6.035156 -11.125 7.328125 -11.125 C 8.503906 -11.125 9.46875 -10.640625 10.21875 -9.671875 C 10.976562 -8.703125 11.359375 -7.46875 11.359375 -5.96875 Z M 9.28125 -5.03125 C 9.28125 -6.425781 9.007812 -7.546875 8.46875 -8.390625 C 7.925781 -9.242188 7.207031 -9.671875 6.3125 -9.671875 C 5.75 -9.671875 5.195312 -9.492188 4.65625 -9.140625 C 4.113281 -8.785156 3.84375 -8.429688 3.84375 -8.078125 L 3.84375 -2.125 C 3.84375 -1.769531 4.117188 -1.414062 4.671875 -1.0625 C 5.234375 -0.707031 5.796875 -0.53125 6.359375 -0.53125 C 7.222656 -0.53125 7.925781 -0.941406 8.46875 -1.765625 C 9.007812 -2.597656 9.28125 -3.6875 9.28125 -5.03125 Z M 9.28125 -5.03125 "/></g></g></g><g fill="#000000" fill-opacity="1"><g transform="translate(243.194834, 438.278745)"><g/></g></g><g fill="#000000" fill-opacity="1"><g transform="translate(249.239759, 438.278745)"><g><path d="M 11.359375 -5.65625 C 11.359375 -3.976562 10.84375 -2.578125 9.8125 -1.453125 C 8.78125 -0.328125 7.503906 0.234375 5.984375 0.234375 C 4.472656 0.234375 3.210938 -0.304688 2.203125 -1.390625 C 1.203125 -2.472656 0.703125 -3.832031 0.703125 -5.46875 C 0.703125 -7.125 1.195312 -8.476562 2.1875 -9.53125 C 3.175781 -10.59375 4.460938 -11.125 6.046875 -11.125 C 7.585938 -11.125 8.859375 -10.609375 9.859375 -9.578125 C 10.859375 -8.546875 11.359375 -7.238281 11.359375 -5.65625 Z M 9.1875 -4.8125 C 9.1875 -6.46875 8.863281 -7.816406 8.21875 -8.859375 C 7.570312 -9.910156 6.742188 -10.4375 5.734375 -10.4375 C 4.878906 -10.4375 4.1875 -10.085938 3.65625 -9.390625 C 3.132812 -8.703125 2.875 -7.785156 2.875 -6.640625 C 2.875 -4.859375 3.226562 -3.304688 3.9375 -1.984375 C 4.488281 -0.953125 5.269531 -0.4375 6.28125 -0.4375 C 7.1875 -0.4375 7.894531 -0.820312 8.40625 -1.59375 C 8.925781 -2.363281 9.1875 -3.4375 9.1875 -4.8125 Z M 9.1875 -4.8125 "/></g></g></g><g fill="#000000" fill-opacity="1"><g transform="translate(261.329584, 438.278745)"><g><path d="M 9.25 -15.015625 C 9.25 -14.734375 9.148438 -14.492188 8.953125 -14.296875 C 8.765625 -14.109375 8.53125 -14.015625 8.25 -14.015625 C 7.851562 -14.015625 7.488281 -14.304688 7.15625 -14.890625 C 6.769531 -15.515625 6.34375 -15.828125 5.875 -15.828125 C 4.957031 -15.828125 4.5 -15.113281 4.5 -13.6875 L 4.5 -10.875 L 7.46875 -10.875 L 7.46875 -10.109375 L 4.515625 -10.109375 L 4.515625 -2.515625 C 4.515625 -1.609375 4.644531 -1.03125 4.90625 -0.78125 C 5.164062 -0.53125 5.785156 -0.390625 6.765625 -0.359375 L 6.765625 0 L 0.484375 0 L 0.484375 -0.359375 C 1.347656 -0.410156 1.894531 -0.5625 2.125 -0.8125 C 2.363281 -1.0625 2.484375 -1.628906 2.484375 -2.515625 L 2.484375 -10.109375 L 0.5 -10.109375 L 0.5 -10.875 L 2.484375 -10.875 C 2.503906 -11.84375 2.570312 -12.597656 2.6875 -13.140625 C 2.800781 -13.679688 3.015625 -14.222656 3.328125 -14.765625 C 4.003906 -15.929688 5.144531 -16.515625 6.75 -16.515625 C 7.46875 -16.515625 8.0625 -16.367188 8.53125 -16.078125 C 9.007812 -15.796875 9.25 -15.441406 9.25 -15.015625 Z M 9.25 -15.015625 "/></g></g></g><g fill="#000000" fill-opacity="1"><g transform="translate(269.38142, 438.278745)"><g/></g></g><g fill="#000000" fill-opacity="1"><g transform="translate(275.426345, 438.278745)"><g><path d="M 11.359375 -9.375 L 9.359375 -9.375 C 9.660156 -8.6875 9.8125 -8.007812 9.8125 -7.34375 C 9.8125 -6.1875 9.425781 -5.273438 8.65625 -4.609375 C 7.882812 -3.941406 7.015625 -3.609375 6.046875 -3.609375 C 5.878906 -3.609375 5.570312 -3.628906 5.125 -3.671875 C 5.101562 -3.671875 4.953125 -3.6875 4.671875 -3.71875 C 4.347656 -3.625 4.023438 -3.40625 3.703125 -3.0625 C 3.378906 -2.726562 3.21875 -2.441406 3.21875 -2.203125 C 3.21875 -1.816406 3.84375 -1.597656 5.09375 -1.546875 L 8.21875 -1.40625 C 9.101562 -1.375 9.8125 -1.125 10.34375 -0.65625 C 10.875 -0.1875 11.140625 0.425781 11.140625 1.1875 C 11.140625 2.082031 10.695312 2.894531 9.8125 3.625 C 8.457031 4.71875 6.804688 5.265625 4.859375 5.265625 C 3.710938 5.265625 2.726562 5.035156 1.90625 4.578125 C 1.082031 4.117188 0.671875 3.566406 0.671875 2.921875 C 0.671875 2.472656 0.851562 2.023438 1.21875 1.578125 C 1.582031 1.140625 2.191406 0.601562 3.046875 -0.03125 C 2.546875 -0.269531 2.207031 -0.476562 2.03125 -0.65625 C 1.851562 -0.832031 1.765625 -1.050781 1.765625 -1.3125 C 1.765625 -1.769531 2.132812 -2.320312 2.875 -2.96875 L 3.921875 -3.9375 C 3.109375 -4.34375 2.53125 -4.796875 2.1875 -5.296875 C 1.84375 -5.796875 1.671875 -6.421875 1.671875 -7.171875 C 1.671875 -8.273438 2.0625 -9.207031 2.84375 -9.96875 C 3.625 -10.738281 4.578125 -11.125 5.703125 -11.125 C 6.347656 -11.125 6.992188 -11 7.640625 -10.75 L 8.171875 -10.5625 C 8.640625 -10.40625 9.082031 -10.328125 9.5 -10.328125 L 11.359375 -10.328125 Z M 10.46875 1.546875 C 10.46875 1.109375 10.238281 0.800781 9.78125 0.625 C 9.332031 0.445312 8.5625 0.359375 7.46875 0.359375 C 5.84375 0.359375 4.535156 0.253906 3.546875 0.046875 C 3.046875 0.640625 2.722656 1.066406 2.578125 1.328125 C 2.441406 1.585938 2.375 1.851562 2.375 2.125 C 2.375 2.65625 2.691406 3.082031 3.328125 3.40625 C 3.972656 3.726562 4.828125 3.890625 5.890625 3.890625 C 7.265625 3.890625 8.367188 3.671875 9.203125 3.234375 C 10.046875 2.804688 10.46875 2.242188 10.46875 1.546875 Z M 7.953125 -6.40625 C 7.953125 -7.40625 7.710938 -8.375 7.234375 -9.3125 C 6.828125 -10.0625 6.238281 -10.4375 5.46875 -10.4375 C 4.894531 -10.4375 4.453125 -10.234375 4.140625 -9.828125 C 3.828125 -9.429688 3.671875 -8.878906 3.671875 -8.171875 L 3.671875 -8.09375 C 3.671875 -6.9375 3.898438 -6 4.359375 -5.28125 C 4.816406 -4.5625 5.410156 -4.203125 6.140625 -4.203125 C 6.703125 -4.203125 7.144531 -4.398438 7.46875 -4.796875 C 7.789062 -5.191406 7.953125 -5.726562 7.953125 -6.40625 Z M 7.953125 -6.40625 "/></g></g></g><g fill="#000000" fill-opacity="1"><g transform="translate(287.516171, 438.278745)"><g><path d="M 8.09375 -9.84375 C 8.09375 -9.5 8.007812 -9.226562 7.84375 -9.03125 C 7.675781 -8.84375 7.445312 -8.75 7.15625 -8.75 C 6.882812 -8.75 6.5625 -8.910156 6.1875 -9.234375 C 5.925781 -9.472656 5.71875 -9.59375 5.5625 -9.59375 C 5.238281 -9.59375 4.875 -9.359375 4.46875 -8.890625 C 4.070312 -8.421875 3.875 -7.992188 3.875 -7.609375 L 3.875 -2.171875 C 3.875 -1.484375 4.007812 -1.015625 4.28125 -0.765625 C 4.550781 -0.523438 5.097656 -0.390625 5.921875 -0.359375 L 5.921875 0 L 0.125 0 L 0.125 -0.359375 C 0.894531 -0.503906 1.375 -0.664062 1.5625 -0.84375 C 1.75 -1.019531 1.84375 -1.414062 1.84375 -2.03125 L 1.84375 -8.078125 C 1.84375 -8.609375 1.78125 -8.984375 1.65625 -9.203125 C 1.53125 -9.421875 1.316406 -9.53125 1.015625 -9.53125 C 0.753906 -9.53125 0.472656 -9.492188 0.171875 -9.421875 L 0.171875 -9.8125 C 1.460938 -10.226562 2.65625 -10.664062 3.75 -11.125 L 3.875 -11.078125 L 3.875 -8.84375 C 4.46875 -9.695312 4.972656 -10.289062 5.390625 -10.625 C 5.804688 -10.957031 6.265625 -11.125 6.765625 -11.125 C 7.179688 -11.125 7.503906 -11.007812 7.734375 -10.78125 C 7.972656 -10.550781 8.09375 -10.238281 8.09375 -9.84375 Z M 8.09375 -9.84375 "/></g></g></g><g fill="#000000" fill-opacity="1"><g transform="translate(295.568007, 438.278745)"><g><path d="M 10.6875 -0.96875 C 10.269531 -0.5 9.898438 -0.179688 9.578125 -0.015625 C 9.265625 0.148438 8.910156 0.234375 8.515625 0.234375 C 8.015625 0.234375 7.644531 0.101562 7.40625 -0.15625 C 7.175781 -0.425781 7.03125 -0.878906 6.96875 -1.515625 C 5.570312 -0.347656 4.394531 0.234375 3.4375 0.234375 C 2.695312 0.234375 2.085938 -0.00390625 1.609375 -0.484375 C 1.128906 -0.960938 0.890625 -1.582031 0.890625 -2.34375 C 0.890625 -3.21875 1.179688 -3.921875 1.765625 -4.453125 C 2.273438 -4.898438 2.789062 -5.253906 3.3125 -5.515625 C 3.84375 -5.785156 5.050781 -6.300781 6.9375 -7.0625 L 6.9375 -8.53125 C 6.9375 -9.863281 6.320312 -10.53125 5.09375 -10.53125 C 4.613281 -10.53125 4.203125 -10.414062 3.859375 -10.1875 C 3.523438 -9.957031 3.359375 -9.679688 3.359375 -9.359375 C 3.359375 -9.179688 3.382812 -8.988281 3.4375 -8.78125 C 3.46875 -8.550781 3.484375 -8.421875 3.484375 -8.390625 C 3.484375 -8.117188 3.375 -7.878906 3.15625 -7.671875 C 2.9375 -7.472656 2.679688 -7.375 2.390625 -7.375 C 2.097656 -7.375 1.851562 -7.476562 1.65625 -7.6875 C 1.457031 -7.894531 1.359375 -8.132812 1.359375 -8.40625 C 1.359375 -9.070312 1.6875 -9.675781 2.34375 -10.21875 C 3.070312 -10.820312 4.097656 -11.125 5.421875 -11.125 C 6.910156 -11.125 7.914062 -10.65625 8.4375 -9.71875 C 8.738281 -9.21875 8.890625 -8.394531 8.890625 -7.25 L 8.890625 -2.53125 C 8.890625 -2 8.941406 -1.632812 9.046875 -1.4375 C 9.148438 -1.238281 9.34375 -1.140625 9.625 -1.140625 C 9.957031 -1.140625 10.3125 -1.289062 10.6875 -1.59375 Z M 6.9375 -2.96875 L 6.9375 -6.484375 C 5.488281 -5.953125 4.472656 -5.4375 3.890625 -4.9375 C 3.304688 -4.4375 3.015625 -3.832031 3.015625 -3.125 L 3.015625 -3.015625 C 3.015625 -2.503906 3.164062 -2.066406 3.46875 -1.703125 C 3.769531 -1.335938 4.128906 -1.15625 4.546875 -1.15625 C 5.109375 -1.15625 5.695312 -1.332031 6.3125 -1.6875 C 6.570312 -1.851562 6.738281 -2.015625 6.8125 -2.171875 C 6.894531 -2.335938 6.9375 -2.601562 6.9375 -2.96875 Z M 6.9375 -2.96875 "/></g></g></g><g fill="#000000" fill-opacity="1"><g transform="translate(306.30378, 438.278745)"><g><path d="M 11.875 -1.015625 L 8.3125 0.234375 L 8.21875 0.171875 L 8.21875 -1.375 C 7.445312 -0.300781 6.414062 0.234375 5.125 0.234375 C 3.789062 0.234375 2.710938 -0.242188 1.890625 -1.203125 C 1.066406 -2.160156 0.65625 -3.410156 0.65625 -4.953125 C 0.65625 -6.660156 1.144531 -8.113281 2.125 -9.3125 C 3.113281 -10.519531 4.300781 -11.125 5.6875 -11.125 C 6.550781 -11.125 7.394531 -10.773438 8.21875 -10.078125 L 8.21875 -13.84375 C 8.21875 -14.34375 8.144531 -14.671875 8 -14.828125 C 7.851562 -14.992188 7.554688 -15.078125 7.109375 -15.078125 C 6.878906 -15.078125 6.703125 -15.070312 6.578125 -15.0625 L 6.578125 -15.453125 C 8.046875 -15.835938 9.226562 -16.191406 10.125 -16.515625 L 10.25 -16.46875 L 10.25 -2.75 C 10.25 -2.1875 10.316406 -1.816406 10.453125 -1.640625 C 10.585938 -1.460938 10.875 -1.375 11.3125 -1.375 C 11.394531 -1.375 11.582031 -1.382812 11.875 -1.40625 Z M 8.21875 -2.46875 L 8.21875 -8.03125 C 8.21875 -8.664062 7.96875 -9.222656 7.46875 -9.703125 C 6.96875 -10.191406 6.394531 -10.4375 5.75 -10.4375 C 4.832031 -10.4375 4.097656 -10.023438 3.546875 -9.203125 C 3.003906 -8.390625 2.734375 -7.296875 2.734375 -5.921875 C 2.734375 -4.441406 3.035156 -3.253906 3.640625 -2.359375 C 4.253906 -1.460938 5.0625 -1.015625 6.0625 -1.015625 C 6.789062 -1.015625 7.375 -1.253906 7.8125 -1.734375 C 8.082031 -2.046875 8.21875 -2.289062 8.21875 -2.46875 Z M 8.21875 -2.46875 "/></g></g></g><g fill="#000000" fill-opacity="1"><g transform="translate(318.393606, 438.278745)"><g/></g></g><g fill="#000000" fill-opacity="1"><g transform="translate(324.43853, 438.278745)"><g><path d="M 8.40625 -2.859375 C 8.40625 -2.015625 8.070312 -1.285156 7.40625 -0.671875 C 6.738281 -0.0664062 5.945312 0.234375 5.03125 0.234375 C 4.59375 0.234375 3.992188 0.15625 3.234375 0 C 2.722656 -0.125 2.351562 -0.1875 2.125 -0.1875 C 1.882812 -0.1875 1.703125 -0.09375 1.578125 0.09375 L 1.25 0.09375 L 1.25 -3.671875 L 1.640625 -3.671875 C 1.910156 -2.453125 2.28125 -1.582031 2.75 -1.0625 C 3.21875 -0.550781 3.875 -0.296875 4.71875 -0.296875 C 5.320312 -0.296875 5.804688 -0.453125 6.171875 -0.765625 C 6.535156 -1.078125 6.71875 -1.5 6.71875 -2.03125 C 6.71875 -2.757812 6.300781 -3.363281 5.46875 -3.84375 L 4.0625 -4.640625 C 3.03125 -5.234375 2.300781 -5.789062 1.875 -6.3125 C 1.445312 -6.84375 1.234375 -7.445312 1.234375 -8.125 C 1.234375 -9.007812 1.539062 -9.722656 2.15625 -10.265625 C 2.78125 -10.816406 3.582031 -11.09375 4.5625 -11.09375 C 5.164062 -11.09375 5.71875 -11 6.21875 -10.8125 C 6.457031 -10.695312 6.671875 -10.640625 6.859375 -10.640625 C 6.929688 -10.640625 7.046875 -10.703125 7.203125 -10.828125 L 7.25 -10.875 L 7.515625 -10.875 L 7.609375 -7.59375 L 7.25 -7.59375 C 6.976562 -8.664062 6.640625 -9.425781 6.234375 -9.875 C 5.828125 -10.332031 5.28125 -10.5625 4.59375 -10.5625 C 4.03125 -10.5625 3.578125 -10.410156 3.234375 -10.109375 C 2.898438 -9.816406 2.734375 -9.421875 2.734375 -8.921875 C 2.734375 -8.222656 3.078125 -7.675781 3.765625 -7.28125 L 6.375 -5.734375 C 7.125 -5.296875 7.648438 -4.859375 7.953125 -4.421875 C 8.253906 -3.984375 8.40625 -3.460938 8.40625 -2.859375 Z M 8.40625 -2.859375 "/></g></g></g><g fill="#000000" fill-opacity="1"><g transform="translate(333.844418, 438.278745)"><g><path d="M 6.75 -1.59375 C 5.96875 -0.375 4.988281 0.234375 3.8125 0.234375 C 2.394531 0.234375 1.6875 -0.785156 1.6875 -2.828125 L 1.6875 -10.109375 L 0.40625 -10.109375 C 0.34375 -10.148438 0.3125 -10.203125 0.3125 -10.265625 C 0.3125 -10.398438 0.445312 -10.554688 0.71875 -10.734375 C 1.382812 -11.117188 2.164062 -11.976562 3.0625 -13.3125 C 3.289062 -13.601562 3.453125 -13.832031 3.546875 -14 C 3.660156 -14 3.71875 -13.894531 3.71875 -13.6875 L 3.71875 -10.875 L 6.15625 -10.875 L 6.15625 -10.109375 L 3.71875 -10.109375 L 3.71875 -3.1875 C 3.71875 -2.414062 3.8125 -1.859375 4 -1.515625 C 4.195312 -1.179688 4.523438 -1.015625 4.984375 -1.015625 C 5.460938 -1.015625 5.945312 -1.296875 6.4375 -1.859375 Z M 6.75 -1.59375 "/></g></g></g><g fill="#000000" fill-opacity="1"><g transform="translate(340.566369, 438.278745)"><g><path d="M 11.578125 -0.875 C 10.316406 -0.53125 9.210938 -0.164062 8.265625 0.21875 L 8.171875 0.171875 L 8.171875 -1.84375 L 7.125 -0.796875 C 6.4375 -0.109375 5.609375 0.234375 4.640625 0.234375 C 3.753906 0.234375 3.046875 -0.046875 2.515625 -0.609375 C 1.984375 -1.179688 1.71875 -1.945312 1.71875 -2.90625 L 1.71875 -8.984375 C 1.71875 -9.554688 1.613281 -9.945312 1.40625 -10.15625 C 1.195312 -10.375 0.800781 -10.5 0.21875 -10.53125 L 0.21875 -10.875 L 3.75 -10.875 L 3.75 -3 C 3.75 -2.5 3.914062 -2.066406 4.25 -1.703125 C 4.59375 -1.335938 5 -1.15625 5.46875 -1.15625 C 6.238281 -1.15625 6.960938 -1.445312 7.640625 -2.03125 C 7.910156 -2.238281 8.046875 -2.648438 8.046875 -3.265625 L 8.046875 -8.9375 C 8.046875 -9.539062 7.9375 -9.9375 7.71875 -10.125 C 7.5 -10.320312 7.015625 -10.4375 6.265625 -10.46875 L 6.265625 -10.875 L 10.078125 -10.875 L 10.078125 -2.59375 C 10.078125 -2.019531 10.171875 -1.644531 10.359375 -1.46875 C 10.546875 -1.289062 10.910156 -1.203125 11.453125 -1.203125 L 11.578125 -1.203125 Z M 11.578125 -0.875 "/></g></g></g><g fill="#000000" fill-opacity="1"><g transform="translate(352.656194, 438.278745)"><g><path d="M 11.875 -1.015625 L 8.3125 0.234375 L 8.21875 0.171875 L 8.21875 -1.375 C 7.445312 -0.300781 6.414062 0.234375 5.125 0.234375 C 3.789062 0.234375 2.710938 -0.242188 1.890625 -1.203125 C 1.066406 -2.160156 0.65625 -3.410156 0.65625 -4.953125 C 0.65625 -6.660156 1.144531 -8.113281 2.125 -9.3125 C 3.113281 -10.519531 4.300781 -11.125 5.6875 -11.125 C 6.550781 -11.125 7.394531 -10.773438 8.21875 -10.078125 L 8.21875 -13.84375 C 8.21875 -14.34375 8.144531 -14.671875 8 -14.828125 C 7.851562 -14.992188 7.554688 -15.078125 7.109375 -15.078125 C 6.878906 -15.078125 6.703125 -15.070312 6.578125 -15.0625 L 6.578125 -15.453125 C 8.046875 -15.835938 9.226562 -16.191406 10.125 -16.515625 L 10.25 -16.46875 L 10.25 -2.75 C 10.25 -2.1875 10.316406 -1.816406 10.453125 -1.640625 C 10.585938 -1.460938 10.875 -1.375 11.3125 -1.375 C 11.394531 -1.375 11.582031 -1.382812 11.875 -1.40625 Z M 8.21875 -2.46875 L 8.21875 -8.03125 C 8.21875 -8.664062 7.96875 -9.222656 7.46875 -9.703125 C 6.96875 -10.191406 6.394531 -10.4375 5.75 -10.4375 C 4.832031 -10.4375 4.097656 -10.023438 3.546875 -9.203125 C 3.003906 -8.390625 2.734375 -7.296875 2.734375 -5.921875 C 2.734375 -4.441406 3.035156 -3.253906 3.640625 -2.359375 C 4.253906 -1.460938 5.0625 -1.015625 6.0625 -1.015625 C 6.789062 -1.015625 7.375 -1.253906 7.8125 -1.734375 C 8.082031 -2.046875 8.21875 -2.289062 8.21875 -2.46875 Z M 8.21875 -2.46875 "/></g></g></g><g fill="#000000" fill-opacity="1"><g transform="translate(364.74602, 438.278745)"><g><path d="M 10.25 -3.796875 C 9.195312 -1.109375 7.488281 0.234375 5.125 0.234375 C 3.738281 0.234375 2.640625 -0.25 1.828125 -1.21875 C 1.015625 -2.195312 0.609375 -3.515625 0.609375 -5.171875 C 0.609375 -6.929688 1.070312 -8.363281 2 -9.46875 C 2.9375 -10.570312 4.15625 -11.125 5.65625 -11.125 C 6.945312 -11.125 7.976562 -10.660156 8.75 -9.734375 C 9.28125 -9.054688 9.628906 -8.046875 9.796875 -6.703125 L 2.34375 -6.703125 C 2.394531 -5.328125 2.632812 -4.210938 3.0625 -3.359375 C 3.757812 -2.066406 4.773438 -1.421875 6.109375 -1.421875 C 6.890625 -1.421875 7.5625 -1.613281 8.125 -2 C 8.695312 -2.394531 9.273438 -3.050781 9.859375 -3.96875 Z M 7.328125 -7.46875 C 7.160156 -8.519531 6.90625 -9.242188 6.5625 -9.640625 C 6.226562 -10.046875 5.691406 -10.25 4.953125 -10.25 C 3.503906 -10.25 2.648438 -9.320312 2.390625 -7.46875 Z M 7.328125 -7.46875 "/></g></g></g><g fill="#000000" fill-opacity="1"><g transform="translate(375.481794, 438.278745)"><g><path d="M 11.71875 0 L 6.703125 0 L 6.703125 -0.359375 C 7.304688 -0.410156 7.707031 -0.570312 7.90625 -0.84375 C 8.113281 -1.113281 8.21875 -1.628906 8.21875 -2.390625 L 8.21875 -7.4375 C 8.21875 -9.007812 7.628906 -9.796875 6.453125 -9.796875 C 6.046875 -9.796875 5.671875 -9.703125 5.328125 -9.515625 C 4.992188 -9.328125 4.539062 -8.957031 3.96875 -8.40625 L 3.96875 -1.625 C 3.96875 -1.1875 4.078125 -0.878906 4.296875 -0.703125 C 4.523438 -0.523438 4.945312 -0.410156 5.5625 -0.359375 L 5.5625 0 L 0.4375 0 L 0.4375 -0.359375 C 1.050781 -0.410156 1.453125 -0.550781 1.640625 -0.78125 C 1.835938 -1.019531 1.9375 -1.484375 1.9375 -2.171875 L 1.9375 -8.171875 C 1.9375 -8.765625 1.867188 -9.171875 1.734375 -9.390625 C 1.609375 -9.609375 1.378906 -9.71875 1.046875 -9.71875 C 0.734375 -9.71875 0.515625 -9.6875 0.390625 -9.625 L 0.390625 -10.03125 C 1.578125 -10.382812 2.6875 -10.75 3.71875 -11.125 L 3.890625 -11.078125 L 3.890625 -9.15625 C 4.710938 -9.9375 5.359375 -10.457031 5.828125 -10.71875 C 6.304688 -10.988281 6.828125 -11.125 7.390625 -11.125 C 8.273438 -11.125 8.972656 -10.800781 9.484375 -10.15625 C 9.992188 -9.519531 10.25 -8.632812 10.25 -7.5 L 10.25 -1.953125 C 10.25 -1.359375 10.34375 -0.957031 10.53125 -0.75 C 10.726562 -0.550781 11.125 -0.421875 11.71875 -0.359375 Z M 11.71875 0 "/></g></g></g><g fill="#000000" fill-opacity="1"><g transform="translate(387.571619, 438.278745)"><g><path d="M 6.75 -1.59375 C 5.96875 -0.375 4.988281 0.234375 3.8125 0.234375 C 2.394531 0.234375 1.6875 -0.785156 1.6875 -2.828125 L 1.6875 -10.109375 L 0.40625 -10.109375 C 0.34375 -10.148438 0.3125 -10.203125 0.3125 -10.265625 C 0.3125 -10.398438 0.445312 -10.554688 0.71875 -10.734375 C 1.382812 -11.117188 2.164062 -11.976562 3.0625 -13.3125 C 3.289062 -13.601562 3.453125 -13.832031 3.546875 -14 C 3.660156 -14 3.71875 -13.894531 3.71875 -13.6875 L 3.71875 -10.875 L 6.15625 -10.875 L 6.15625 -10.109375 L 3.71875 -10.109375 L 3.71875 -3.1875 C 3.71875 -2.414062 3.8125 -1.859375 4 -1.515625 C 4.195312 -1.179688 4.523438 -1.015625 4.984375 -1.015625 C 5.460938 -1.015625 5.945312 -1.296875 6.4375 -1.859375 Z M 6.75 -1.59375 "/></g></g></g><g fill="#000000" fill-opacity="1"><g transform="translate(394.29357, 438.278745)"><g><path d="M 8.40625 -2.859375 C 8.40625 -2.015625 8.070312 -1.285156 7.40625 -0.671875 C 6.738281 -0.0664062 5.945312 0.234375 5.03125 0.234375 C 4.59375 0.234375 3.992188 0.15625 3.234375 0 C 2.722656 -0.125 2.351562 -0.1875 2.125 -0.1875 C 1.882812 -0.1875 1.703125 -0.09375 1.578125 0.09375 L 1.25 0.09375 L 1.25 -3.671875 L 1.640625 -3.671875 C 1.910156 -2.453125 2.28125 -1.582031 2.75 -1.0625 C 3.21875 -0.550781 3.875 -0.296875 4.71875 -0.296875 C 5.320312 -0.296875 5.804688 -0.453125 6.171875 -0.765625 C 6.535156 -1.078125 6.71875 -1.5 6.71875 -2.03125 C 6.71875 -2.757812 6.300781 -3.363281 5.46875 -3.84375 L 4.0625 -4.640625 C 3.03125 -5.234375 2.300781 -5.789062 1.875 -6.3125 C 1.445312 -6.84375 1.234375 -7.445312 1.234375 -8.125 C 1.234375 -9.007812 1.539062 -9.722656 2.15625 -10.265625 C 2.78125 -10.816406 3.582031 -11.09375 4.5625 -11.09375 C 5.164062 -11.09375 5.71875 -11 6.21875 -10.8125 C 6.457031 -10.695312 6.671875 -10.640625 6.859375 -10.640625 C 6.929688 -10.640625 7.046875 -10.703125 7.203125 -10.828125 L 7.25 -10.875 L 7.515625 -10.875 L 7.609375 -7.59375 L 7.25 -7.59375 C 6.976562 -8.664062 6.640625 -9.425781 6.234375 -9.875 C 5.828125 -10.332031 5.28125 -10.5625 4.59375 -10.5625 C 4.03125 -10.5625 3.578125 -10.410156 3.234375 -10.109375 C 2.898438 -9.816406 2.734375 -9.421875 2.734375 -8.921875 C 2.734375 -8.222656 3.078125 -7.675781 3.765625 -7.28125 L 6.375 -5.734375 C 7.125 -5.296875 7.648438 -4.859375 7.953125 -4.421875 C 8.253906 -3.984375 8.40625 -3.460938 8.40625 -2.859375 Z M 8.40625 -2.859375 "/></g></g></g></svg>