<svg xmlns="http://www.w3.org/2000/svg" xmlns:xlink="http://www.w3.org/1999/xlink" width="671" zoomAndPan="magnify" viewBox="0 0 503.25 516.74999" height="689" preserveAspectRatio="xMidYMid meet" version="1.0"><defs><g/><clipPath id="2b10eaceee"><path d="M 159 75.148438 L 231 75.148438 L 231 146 L 159 146 Z M 159 75.148438 " clip-rule="nonzero"/></clipPath><clipPath id="d482f5c3b0"><path d="M 271 75.148438 L 342 75.148438 L 342 146 L 271 146 Z M 271 75.148438 " clip-rule="nonzero"/></clipPath><clipPath id="2838a9e155"><path d="M 188 293 L 315 293 L 315 398.664062 L 188 398.664062 Z M 188 293 " clip-rule="nonzero"/></clipPath><clipPath id="b62086c06c"><path d="M 75.425781 250 L 201 250 L 201 357 L 75.425781 357 Z M 75.425781 250 " clip-rule="nonzero"/></clipPath><clipPath id="6189d1d1ce"><path d="M 302 250 L 427.402344 250 L 427.402344 357 L 302 357 Z M 302 250 " clip-rule="nonzero"/></clipPath></defs><g clip-path="url(#2b10eaceee)"><path fill="#000000" d="M 230.292969 110.3125 C 230.292969 111.464844 230.238281 112.613281 230.125 113.761719 C 230.011719 114.90625 229.84375 116.042969 229.617188 117.175781 C 229.394531 118.304688 229.113281 119.417969 228.777344 120.523438 C 228.445312 121.625 228.058594 122.707031 227.617188 123.769531 C 227.175781 124.835938 226.683594 125.875 226.140625 126.890625 C 225.59375 127.90625 225.003906 128.894531 224.363281 129.851562 C 223.722656 130.808594 223.035156 131.730469 222.304688 132.621094 C 221.574219 133.511719 220.800781 134.363281 219.984375 135.179688 C 219.171875 135.992188 218.316406 136.765625 217.425781 137.496094 C 216.535156 138.226562 215.609375 138.914062 214.652344 139.550781 C 213.695312 140.191406 212.707031 140.785156 211.6875 141.328125 C 210.671875 141.871094 209.632812 142.359375 208.566406 142.800781 C 207.5 143.242188 206.417969 143.628906 205.316406 143.964844 C 204.210938 144.296875 203.09375 144.578125 201.964844 144.804688 C 200.832031 145.027344 199.695312 145.195312 198.546875 145.308594 C 197.398438 145.421875 196.25 145.480469 195.097656 145.480469 C 193.945312 145.480469 192.792969 145.421875 191.648438 145.308594 C 190.5 145.195312 189.359375 145.027344 188.230469 144.804688 C 187.101562 144.578125 185.984375 144.296875 184.878906 143.964844 C 183.777344 143.628906 182.691406 143.242188 181.628906 142.800781 C 180.5625 142.359375 179.523438 141.871094 178.503906 141.328125 C 177.488281 140.785156 176.5 140.191406 175.542969 139.550781 C 174.585938 138.914062 173.660156 138.226562 172.769531 137.496094 C 171.878906 136.765625 171.023438 135.992188 170.207031 135.179688 C 169.394531 134.363281 168.621094 133.511719 167.890625 132.621094 C 167.15625 131.730469 166.472656 130.808594 165.832031 129.851562 C 165.191406 128.894531 164.597656 127.90625 164.054688 126.890625 C 163.511719 125.875 163.019531 124.835938 162.578125 123.769531 C 162.136719 122.707031 161.75 121.625 161.414062 120.523438 C 161.082031 119.417969 160.800781 118.304688 160.574219 117.175781 C 160.351562 116.042969 160.183594 114.90625 160.070312 113.761719 C 159.957031 112.613281 159.898438 111.464844 159.898438 110.3125 C 159.898438 109.160156 159.957031 108.011719 160.070312 106.867188 C 160.183594 105.722656 160.351562 104.582031 160.574219 103.453125 C 160.800781 102.324219 161.082031 101.207031 161.414062 100.105469 C 161.75 99.003906 162.136719 97.921875 162.578125 96.855469 C 163.019531 95.792969 163.511719 94.753906 164.054688 93.738281 C 164.597656 92.722656 165.191406 91.734375 165.832031 90.777344 C 166.472656 89.820312 167.15625 88.894531 167.890625 88.003906 C 168.621094 87.113281 169.394531 86.261719 170.207031 85.449219 C 171.023438 84.632812 171.878906 83.863281 172.769531 83.132812 C 173.660156 82.402344 174.585938 81.714844 175.542969 81.074219 C 176.5 80.433594 177.488281 79.84375 178.503906 79.300781 C 179.523438 78.757812 180.5625 78.265625 181.628906 77.824219 C 182.691406 77.386719 183.777344 76.996094 184.878906 76.664062 C 185.984375 76.328125 187.101562 76.050781 188.230469 75.824219 C 189.359375 75.601562 190.5 75.429688 191.648438 75.316406 C 192.792969 75.207031 193.945312 75.148438 195.097656 75.148438 C 196.25 75.148438 197.398438 75.207031 198.546875 75.316406 C 199.695312 75.429688 200.832031 75.601562 201.964844 75.824219 C 203.09375 76.050781 204.210938 76.328125 205.316406 76.664062 C 206.417969 76.996094 207.5 77.386719 208.566406 77.824219 C 209.632812 78.265625 210.671875 78.757812 211.6875 79.300781 C 212.707031 79.84375 213.695312 80.433594 214.652344 81.074219 C 215.609375 81.714844 216.535156 82.402344 217.425781 83.132812 C 218.316406 83.863281 219.171875 84.632812 219.984375 85.449219 C 220.800781 86.261719 221.574219 87.113281 222.304688 88.003906 C 223.035156 88.894531 223.722656 89.820312 224.363281 90.777344 C 225.003906 91.734375 225.59375 92.722656 226.140625 93.738281 C 226.683594 94.753906 227.175781 95.792969 227.617188 96.855469 C 228.058594 97.921875 228.445312 99.003906 228.777344 100.105469 C 229.113281 101.207031 229.394531 102.324219 229.617188 103.453125 C 229.84375 104.582031 230.011719 105.722656 230.125 106.867188 C 230.238281 108.011719 230.292969 109.160156 230.292969 110.3125 Z M 230.292969 110.3125 " fill-opacity="1" fill-rule="nonzero"/></g><g clip-path="url(#d482f5c3b0)"><path fill="#000000" d="M 341.519531 110.3125 C 341.519531 111.464844 341.460938 112.613281 341.347656 113.761719 C 341.238281 114.90625 341.066406 116.042969 340.84375 117.175781 C 340.617188 118.304688 340.339844 119.417969 340.003906 120.523438 C 339.667969 121.625 339.28125 122.707031 338.839844 123.769531 C 338.398438 124.835938 337.90625 125.875 337.363281 126.890625 C 336.820312 127.90625 336.226562 128.894531 335.585938 129.851562 C 334.945312 130.808594 334.261719 131.730469 333.53125 132.621094 C 332.796875 133.511719 332.023438 134.363281 331.210938 135.179688 C 330.394531 135.992188 329.542969 136.765625 328.652344 137.496094 C 327.757812 138.226562 326.835938 138.914062 325.875 139.550781 C 324.917969 140.191406 323.929688 140.785156 322.914062 141.328125 C 321.898438 141.871094 320.855469 142.359375 319.792969 142.800781 C 318.726562 143.242188 317.640625 143.628906 316.539062 143.964844 C 315.4375 144.296875 314.320312 144.578125 313.1875 144.804688 C 312.058594 145.027344 310.917969 145.195312 309.773438 145.308594 C 308.625 145.421875 307.472656 145.480469 306.320312 145.480469 C 305.167969 145.480469 304.019531 145.421875 302.871094 145.308594 C 301.722656 145.195312 300.585938 145.027344 299.453125 144.804688 C 298.324219 144.578125 297.207031 144.296875 296.105469 143.964844 C 295 143.628906 293.917969 143.242188 292.851562 142.800781 C 291.785156 142.359375 290.746094 141.871094 289.730469 141.328125 C 288.710938 140.785156 287.726562 140.191406 286.765625 139.550781 C 285.808594 138.914062 284.882812 138.226562 283.992188 137.496094 C 283.101562 136.765625 282.25 135.992188 281.433594 135.179688 C 280.617188 134.363281 279.84375 133.511719 279.113281 132.621094 C 278.382812 131.730469 277.695312 130.808594 277.054688 129.851562 C 276.414062 128.894531 275.824219 127.90625 275.28125 126.890625 C 274.738281 125.875 274.246094 124.835938 273.804688 123.769531 C 273.363281 122.707031 272.972656 121.625 272.640625 120.523438 C 272.304688 119.417969 272.023438 118.304688 271.800781 117.175781 C 271.574219 116.042969 271.40625 114.90625 271.292969 113.761719 C 271.179688 112.613281 271.125 111.464844 271.125 110.3125 C 271.125 109.160156 271.179688 108.011719 271.292969 106.867188 C 271.40625 105.722656 271.574219 104.582031 271.800781 103.453125 C 272.023438 102.324219 272.304688 101.207031 272.640625 100.105469 C 272.972656 99.003906 273.363281 97.921875 273.804688 96.855469 C 274.246094 95.792969 274.738281 94.753906 275.28125 93.738281 C 275.824219 92.722656 276.414062 91.734375 277.054688 90.777344 C 277.695312 89.820312 278.382812 88.894531 279.113281 88.003906 C 279.84375 87.113281 280.617188 86.261719 281.433594 85.449219 C 282.25 84.632812 283.101562 83.863281 283.992188 83.132812 C 284.882812 82.402344 285.808594 81.714844 286.765625 81.074219 C 287.726562 80.433594 288.710938 79.84375 289.730469 79.300781 C 290.746094 78.757812 291.785156 78.265625 292.851562 77.824219 C 293.917969 77.386719 295 76.996094 296.105469 76.664062 C 297.207031 76.328125 298.324219 76.050781 299.453125 75.824219 C 300.585938 75.601562 301.722656 75.429688 302.871094 75.316406 C 304.019531 75.207031 305.167969 75.148438 306.320312 75.148438 C 307.472656 75.148438 308.625 75.207031 309.773438 75.316406 C 310.917969 75.429688 312.058594 75.601562 313.1875 75.824219 C 314.320312 76.050781 315.4375 76.328125 316.539062 76.664062 C 317.640625 76.996094 318.726562 77.386719 319.789062 77.824219 C 320.855469 78.265625 321.898438 78.757812 322.914062 79.300781 C 323.929688 79.84375 324.917969 80.433594 325.875 81.074219 C 326.835938 81.714844 327.757812 82.402344 328.652344 83.132812 C 329.542969 83.863281 330.394531 84.632812 331.210938 85.449219 C 332.023438 86.261719 332.796875 87.113281 333.53125 88.003906 C 334.261719 88.894531 334.945312 89.820312 335.585938 90.777344 C 336.226562 91.734375 336.820312 92.722656 337.363281 93.738281 C 337.90625 94.753906 338.398438 95.792969 338.839844 96.855469 C 339.28125 97.921875 339.667969 99.003906 340.003906 100.105469 C 340.339844 101.207031 340.617188 102.324219 340.84375 103.453125 C 341.066406 104.582031 341.238281 105.722656 341.347656 106.867188 C 341.460938 108.011719 341.519531 109.160156 341.519531 110.3125 Z M 341.519531 110.3125 " fill-opacity="1" fill-rule="nonzero"/></g><path fill="#000000" d="M 293.839844 244.128906 C 293.839844 245.511719 293.773438 246.890625 293.636719 248.265625 C 293.5 249.640625 293.296875 251.007812 293.027344 252.363281 C 292.757812 253.71875 292.421875 255.058594 292.023438 256.378906 C 291.621094 257.703125 291.15625 259 290.625 260.277344 C 290.097656 261.554688 289.503906 262.804688 288.851562 264.023438 C 288.199219 265.242188 287.492188 266.425781 286.722656 267.574219 C 285.953125 268.722656 285.128906 269.832031 284.253906 270.898438 C 283.375 271.96875 282.449219 272.992188 281.46875 273.96875 C 280.492188 274.945312 279.46875 275.871094 278.398438 276.75 C 277.328125 277.625 276.21875 278.449219 275.070312 279.214844 C 273.917969 279.984375 272.734375 280.695312 271.515625 281.34375 C 270.292969 281.996094 269.042969 282.585938 267.765625 283.117188 C 266.488281 283.644531 265.1875 284.109375 263.863281 284.511719 C 262.539062 284.910156 261.199219 285.246094 259.84375 285.515625 C 258.488281 285.785156 257.121094 285.988281 255.742188 286.125 C 254.367188 286.261719 252.988281 286.328125 251.601562 286.328125 C 250.21875 286.328125 248.839844 286.261719 247.464844 286.125 C 246.085938 285.988281 244.71875 285.785156 243.363281 285.515625 C 242.007812 285.246094 240.667969 284.910156 239.34375 284.511719 C 238.019531 284.109375 236.71875 283.644531 235.441406 283.117188 C 234.160156 282.585938 232.914062 281.996094 231.691406 281.34375 C 230.472656 280.695312 229.289062 279.984375 228.136719 279.214844 C 226.988281 278.449219 225.878906 277.625 224.808594 276.75 C 223.738281 275.871094 222.714844 274.945312 221.738281 273.96875 C 220.757812 272.992188 219.832031 271.96875 218.953125 270.898438 C 218.074219 269.832031 217.253906 268.722656 216.484375 267.574219 C 215.714844 266.425781 215.003906 265.242188 214.355469 264.023438 C 213.703125 262.804688 213.109375 261.554688 212.582031 260.277344 C 212.050781 259 211.585938 257.703125 211.183594 256.378906 C 210.785156 255.058594 210.449219 253.71875 210.179688 252.363281 C 209.90625 251.007812 209.707031 249.640625 209.570312 248.265625 C 209.433594 246.890625 209.367188 245.511719 209.367188 244.128906 C 209.367188 242.746094 209.433594 241.367188 209.570312 239.992188 C 209.707031 238.617188 209.90625 237.253906 210.179688 235.898438 C 210.449219 234.542969 210.785156 233.203125 211.183594 231.878906 C 211.585938 230.558594 212.050781 229.257812 212.582031 227.980469 C 213.109375 226.703125 213.703125 225.457031 214.355469 224.238281 C 215.003906 223.019531 215.714844 221.835938 216.484375 220.6875 C 217.253906 219.535156 218.074219 218.429688 218.953125 217.359375 C 219.832031 216.292969 220.757812 215.269531 221.738281 214.292969 C 222.714844 213.3125 223.738281 212.386719 224.808594 211.511719 C 225.878906 210.632812 226.988281 209.8125 228.136719 209.042969 C 229.289062 208.277344 230.472656 207.566406 231.691406 206.914062 C 232.914062 206.261719 234.160156 205.671875 235.441406 205.144531 C 236.71875 204.617188 238.019531 204.148438 239.34375 203.75 C 240.667969 203.347656 242.007812 203.011719 243.363281 202.742188 C 244.71875 202.472656 246.085938 202.269531 247.464844 202.136719 C 248.839844 202 250.21875 201.933594 251.601562 201.933594 C 252.988281 201.933594 254.367188 202 255.742188 202.136719 C 257.121094 202.269531 258.488281 202.472656 259.84375 202.742188 C 261.199219 203.011719 262.539062 203.347656 263.863281 203.75 C 265.1875 204.148438 266.488281 204.617188 267.765625 205.144531 C 269.042969 205.671875 270.292969 206.261719 271.515625 206.914062 C 272.734375 207.566406 273.917969 208.277344 275.070312 209.042969 C 276.21875 209.8125 277.328125 210.632812 278.398438 211.511719 C 279.46875 212.386719 280.492188 213.3125 281.46875 214.292969 C 282.449219 215.269531 283.375 216.292969 284.253906 217.359375 C 285.128906 218.429688 285.953125 219.535156 286.722656 220.6875 C 287.492188 221.835938 288.199219 223.019531 288.851562 224.238281 C 289.503906 225.457031 290.097656 226.703125 290.625 227.980469 C 291.15625 229.257812 291.621094 230.558594 292.023438 231.878906 C 292.421875 233.203125 292.757812 234.542969 293.027344 235.898438 C 293.296875 237.253906 293.5 238.617188 293.636719 239.992188 C 293.773438 241.367188 293.839844 242.746094 293.839844 244.128906 Z M 293.839844 244.128906 " fill-opacity="1" fill-rule="nonzero"/><g clip-path="url(#2838a9e155)"><path fill="#000000" d="M 251.601562 398.855469 C 208.269531 398.855469 192.695312 388.121094 191.0625 386.898438 C 189.289062 385.578125 188.246094 383.488281 188.246094 381.273438 L 188.246094 356.65625 C 188.246094 321.753906 216.671875 293.359375 251.601562 293.359375 C 286.539062 293.359375 314.960938 321.753906 314.960938 356.65625 L 314.960938 381.273438 C 314.960938 383.480469 313.917969 385.570312 312.144531 386.898438 C 310.515625 388.121094 294.9375 398.855469 251.601562 398.855469 Z M 251.601562 398.855469 " fill-opacity="1" fill-rule="nonzero"/></g><g clip-path="url(#b62086c06c)"><path fill="#000000" d="M 200.1875 298.972656 C 193.316406 271.453125 168.425781 250.972656 138.78125 250.972656 C 103.851562 250.972656 75.425781 279.363281 75.425781 314.269531 L 75.425781 338.886719 C 75.425781 341.09375 76.46875 343.183594 78.242188 344.511719 C 79.875 345.734375 95.445312 356.46875 138.78125 356.46875 C 153.796875 356.46875 165.410156 355.167969 174.335938 353.429688 C 175.230469 331.800781 185.023438 312.476562 200.1875 298.972656 Z M 200.1875 298.972656 " fill-opacity="1" fill-rule="nonzero"/></g><g clip-path="url(#6189d1d1ce)"><path fill="#000000" d="M 364.046875 250.972656 C 334.5 250.972656 309.6875 271.3125 302.710938 298.691406 C 318.070312 312.222656 327.996094 331.695312 328.882812 353.507812 C 337.761719 355.203125 349.25 356.46875 364.046875 356.46875 C 407.375 356.46875 422.953125 345.734375 424.585938 344.511719 C 426.359375 343.1875 427.402344 341.101562 427.402344 338.886719 L 427.402344 314.269531 C 427.402344 279.363281 398.984375 250.972656 364.046875 250.972656 Z M 364.046875 250.972656 " fill-opacity="1" fill-rule="nonzero"/></g><path fill="#000000" d="M 406.472656 201.933594 C 406.472656 203.3125 406.40625 204.691406 406.269531 206.066406 C 406.132812 207.445312 405.929688 208.808594 405.660156 210.164062 C 405.390625 211.519531 405.054688 212.859375 404.652344 214.179688 C 404.253906 215.503906 403.785156 216.804688 403.257812 218.082031 C 402.726562 219.355469 402.136719 220.605469 401.484375 221.824219 C 400.832031 223.042969 400.121094 224.226562 399.355469 225.375 C 398.585938 226.523438 397.761719 227.632812 396.886719 228.703125 C 396.007812 229.769531 395.078125 230.792969 394.101562 231.769531 C 393.125 232.746094 392.101562 233.675781 391.03125 234.550781 C 389.960938 235.429688 388.851562 236.25 387.699219 237.019531 C 386.550781 237.785156 385.367188 238.496094 384.144531 239.148438 C 382.925781 239.796875 381.675781 240.390625 380.398438 240.917969 C 379.121094 241.445312 377.820312 241.910156 376.496094 242.3125 C 375.171875 242.714844 373.832031 243.050781 372.476562 243.320312 C 371.117188 243.589844 369.753906 243.792969 368.375 243.925781 C 367 244.0625 365.617188 244.128906 364.234375 244.128906 C 362.851562 244.128906 361.472656 244.0625 360.09375 243.925781 C 358.71875 243.792969 357.351562 243.589844 355.996094 243.320312 C 354.640625 243.050781 353.296875 242.714844 351.976562 242.3125 C 350.652344 241.910156 349.351562 241.445312 348.070312 240.917969 C 346.792969 240.390625 345.546875 239.796875 344.324219 239.148438 C 343.105469 238.496094 341.921875 237.785156 340.769531 237.019531 C 339.621094 236.25 338.511719 235.429688 337.441406 234.550781 C 336.371094 233.675781 335.347656 232.746094 334.371094 231.769531 C 333.390625 230.792969 332.464844 229.769531 331.585938 228.703125 C 330.707031 227.632812 329.886719 226.523438 329.117188 225.375 C 328.347656 224.226562 327.636719 223.042969 326.984375 221.824219 C 326.332031 220.605469 325.742188 219.355469 325.214844 218.082031 C 324.683594 216.804688 324.21875 215.503906 323.816406 214.179688 C 323.414062 212.859375 323.078125 211.519531 322.808594 210.164062 C 322.539062 208.808594 322.335938 207.445312 322.203125 206.066406 C 322.066406 204.691406 322 203.3125 322 201.933594 C 322 200.550781 322.066406 199.171875 322.203125 197.796875 C 322.335938 196.421875 322.539062 195.054688 322.808594 193.699219 C 323.078125 192.34375 323.414062 191.003906 323.816406 189.683594 C 324.21875 188.359375 324.683594 187.058594 325.214844 185.785156 C 325.742188 184.507812 326.332031 183.257812 326.984375 182.039062 C 327.636719 180.820312 328.347656 179.636719 329.117188 178.488281 C 329.886719 177.339844 330.707031 176.230469 331.585938 175.164062 C 332.464844 174.09375 333.390625 173.070312 334.371094 172.09375 C 335.347656 171.117188 336.371094 170.191406 337.441406 169.3125 C 338.511719 168.4375 339.621094 167.613281 340.769531 166.847656 C 341.921875 166.078125 343.105469 165.367188 344.324219 164.71875 C 345.546875 164.066406 346.792969 163.476562 348.070312 162.945312 C 349.351562 162.417969 350.652344 161.953125 351.976562 161.550781 C 353.296875 161.148438 354.640625 160.816406 355.996094 160.546875 C 357.351562 160.277344 358.71875 160.074219 360.09375 159.9375 C 361.472656 159.800781 362.851562 159.734375 364.234375 159.734375 C 365.617188 159.734375 367 159.800781 368.375 159.9375 C 369.753906 160.074219 371.117188 160.277344 372.476562 160.546875 C 373.832031 160.816406 375.171875 161.148438 376.496094 161.550781 C 377.820312 161.953125 379.121094 162.417969 380.398438 162.945312 C 381.675781 163.476562 382.925781 164.066406 384.144531 164.71875 C 385.367188 165.367188 386.550781 166.078125 387.703125 166.847656 C 388.851562 167.613281 389.960938 168.4375 391.03125 169.3125 C 392.101562 170.191406 393.125 171.117188 394.101562 172.09375 C 395.078125 173.070312 396.007812 174.09375 396.886719 175.164062 C 397.761719 176.230469 398.585938 177.339844 399.355469 178.488281 C 400.121094 179.636719 400.832031 180.820312 401.484375 182.039062 C 402.136719 183.257812 402.726562 184.507812 403.257812 185.785156 C 403.785156 187.058594 404.253906 188.359375 404.652344 189.683594 C 405.054688 191.003906 405.390625 192.34375 405.660156 193.699219 C 405.929688 195.054688 406.132812 196.421875 406.269531 197.796875 C 406.40625 199.171875 406.472656 200.550781 406.472656 201.933594 Z M 406.472656 201.933594 " fill-opacity="1" fill-rule="nonzero"/><path fill="#000000" d="M 181.207031 201.933594 C 181.207031 203.3125 181.140625 204.691406 181.003906 206.066406 C 180.871094 207.445312 180.667969 208.808594 180.398438 210.164062 C 180.125 211.519531 179.792969 212.859375 179.390625 214.179688 C 178.988281 215.503906 178.523438 216.804688 177.992188 218.082031 C 177.464844 219.355469 176.875 220.605469 176.222656 221.824219 C 175.570312 223.042969 174.859375 224.226562 174.089844 225.375 C 173.320312 226.523438 172.5 227.632812 171.621094 228.703125 C 170.742188 229.769531 169.816406 230.792969 168.835938 231.769531 C 167.859375 232.746094 166.835938 233.675781 165.765625 234.550781 C 164.695312 235.429688 163.585938 236.25 162.4375 237.019531 C 161.285156 237.785156 160.101562 238.496094 158.882812 239.148438 C 157.660156 239.796875 156.414062 240.390625 155.132812 240.917969 C 153.855469 241.445312 152.554688 241.910156 151.230469 242.3125 C 149.910156 242.714844 148.566406 243.050781 147.210938 243.320312 C 145.855469 243.589844 144.488281 243.792969 143.109375 243.925781 C 141.734375 244.0625 140.355469 244.128906 138.972656 244.128906 C 137.589844 244.128906 136.207031 244.0625 134.832031 243.925781 C 133.453125 243.792969 132.089844 243.589844 130.730469 243.320312 C 129.375 243.050781 128.035156 242.714844 126.710938 242.3125 C 125.386719 241.910156 124.085938 241.445312 122.808594 240.917969 C 121.53125 240.390625 120.28125 239.796875 119.0625 239.148438 C 117.839844 238.496094 116.65625 237.785156 115.503906 237.019531 C 114.355469 236.25 113.246094 235.429688 112.175781 234.550781 C 111.105469 233.675781 110.082031 232.746094 109.105469 231.769531 C 108.128906 230.792969 107.199219 229.769531 106.320312 228.703125 C 105.445312 227.632812 104.621094 226.523438 103.851562 225.375 C 103.082031 224.226562 102.375 223.042969 101.722656 221.824219 C 101.070312 220.605469 100.480469 219.355469 99.949219 218.082031 C 99.421875 216.804688 98.953125 215.503906 98.554688 214.179688 C 98.152344 212.859375 97.816406 211.519531 97.546875 210.164062 C 97.277344 208.808594 97.074219 207.445312 96.9375 206.066406 C 96.800781 204.691406 96.734375 203.3125 96.734375 201.933594 C 96.734375 200.550781 96.800781 199.171875 96.9375 197.796875 C 97.074219 196.421875 97.277344 195.054688 97.546875 193.699219 C 97.816406 192.34375 98.152344 191.003906 98.554688 189.683594 C 98.953125 188.359375 99.421875 187.058594 99.949219 185.785156 C 100.480469 184.507812 101.070312 183.257812 101.722656 182.039062 C 102.375 180.820312 103.082031 179.636719 103.851562 178.488281 C 104.621094 177.339844 105.445312 176.230469 106.320312 175.164062 C 107.199219 174.09375 108.128906 173.070312 109.105469 172.09375 C 110.082031 171.117188 111.105469 170.191406 112.175781 169.3125 C 113.246094 168.4375 114.355469 167.613281 115.503906 166.847656 C 116.65625 166.078125 117.839844 165.367188 119.0625 164.71875 C 120.28125 164.066406 121.53125 163.476562 122.808594 162.945312 C 124.085938 162.417969 125.386719 161.953125 126.710938 161.550781 C 128.035156 161.148438 129.375 160.816406 130.730469 160.546875 C 132.089844 160.277344 133.453125 160.074219 134.832031 159.9375 C 136.207031 159.800781 137.589844 159.734375 138.972656 159.734375 C 140.355469 159.734375 141.734375 159.800781 143.109375 159.9375 C 144.488281 160.074219 145.855469 160.277344 147.210938 160.546875 C 148.566406 160.816406 149.910156 161.148438 151.230469 161.550781 C 152.554688 161.953125 153.855469 162.417969 155.132812 162.945312 C 156.414062 163.476562 157.660156 164.066406 158.882812 164.71875 C 160.101562 165.367188 161.285156 166.078125 162.4375 166.847656 C 163.585938 167.613281 164.695312 168.4375 165.765625 169.3125 C 166.835938 170.191406 167.859375 171.117188 168.835938 172.09375 C 169.816406 173.070312 170.742188 174.09375 171.621094 175.164062 C 172.5 176.230469 173.320312 177.339844 174.089844 178.488281 C 174.859375 179.636719 175.570312 180.820312 176.222656 182.039062 C 176.875 183.257812 177.464844 184.507812 177.992188 185.785156 C 178.523438 187.058594 178.988281 188.359375 179.390625 189.683594 C 179.792969 191.003906 180.125 192.34375 180.398438 193.699219 C 180.667969 195.054688 180.871094 196.421875 181.003906 197.796875 C 181.140625 199.171875 181.207031 200.550781 181.207031 201.933594 Z M 181.207031 201.933594 " fill-opacity="1" fill-rule="nonzero"/><path fill="#000000" d="M 307.917969 244.128906 C 307.917969 252.015625 306.277344 259.519531 303.335938 266.324219 C 310.199219 257.640625 318.867188 250.566406 328.679688 245.507812 C 316.023438 235.183594 307.925781 219.484375 307.925781 201.933594 C 307.925781 184.273438 316.128906 168.511719 328.902344 158.1875 C 322.175781 154.601562 314.578125 152.511719 306.320312 152.511719 C 283.519531 152.511719 264.691406 167.589844 258.945312 188.402344 C 286.527344 192.015625 307.917969 215.597656 307.917969 244.128906 Z M 307.917969 244.128906 " fill-opacity="1" fill-rule="nonzero"/><path fill="#000000" d="M 195.289062 201.933594 C 195.289062 219.550781 187.121094 235.296875 174.386719 245.621094 C 184.636719 250.9375 193.589844 258.484375 200.558594 267.746094 C 197.210938 260.558594 195.289062 252.570312 195.289062 244.128906 C 195.289062 216.1875 215.800781 193.007812 242.550781 188.660156 C 236.898438 167.714844 217.996094 152.511719 195.097656 152.511719 C 187.269531 152.511719 180.011719 154.367188 173.542969 157.617188 C 186.75 167.921875 195.289062 183.933594 195.289062 201.933594 Z M 195.289062 201.933594 " fill-opacity="1" fill-rule="nonzero"/><g fill="#000000" fill-opacity="1"><g transform="translate(96.020556, 435.065203)"><g><path d="M 12.140625 -10.078125 L 11.640625 -10.078125 C 11.410156 -11.203125 11.097656 -11.914062 10.703125 -12.21875 C 10.316406 -12.53125 9.546875 -12.6875 8.390625 -12.6875 L 7.28125 -12.6875 L 7.28125 -2.234375 C 7.28125 -1.484375 7.394531 -1 7.625 -0.78125 C 7.863281 -0.5625 8.40625 -0.429688 9.25 -0.390625 L 9.25 0 L 3.28125 0 L 3.28125 -0.390625 C 4.125 -0.441406 4.65625 -0.578125 4.875 -0.796875 C 5.09375 -1.023438 5.203125 -1.578125 5.203125 -2.453125 L 5.203125 -12.6875 L 4.09375 -12.6875 C 2.945312 -12.6875 2.175781 -12.53125 1.78125 -12.21875 C 1.394531 -11.90625 1.082031 -11.191406 0.84375 -10.078125 L 0.34375 -10.078125 L 0.46875 -13.546875 L 12.015625 -13.546875 Z M 12.140625 -10.078125 "/></g></g></g><g fill="#000000" fill-opacity="1"><g transform="translate(108.529827, 435.065203)"><g><path d="M 9.96875 0 L 5.625 0 L 5.625 -0.3125 C 6.21875 -0.363281 6.597656 -0.5 6.765625 -0.71875 C 6.929688 -0.9375 7.015625 -1.394531 7.015625 -2.09375 L 7.015625 -6.140625 C 7.015625 -7.585938 6.503906 -8.3125 5.484375 -8.3125 C 5.085938 -8.3125 4.710938 -8.210938 4.359375 -8.015625 C 4.015625 -7.816406 3.632812 -7.484375 3.21875 -7.015625 L 3.21875 -2.09375 C 3.21875 -1.375 3.296875 -0.910156 3.453125 -0.703125 C 3.617188 -0.503906 4.003906 -0.375 4.609375 -0.3125 L 4.609375 0 L 0.1875 0 L 0.1875 -0.3125 C 0.769531 -0.394531 1.132812 -0.53125 1.28125 -0.71875 C 1.425781 -0.90625 1.5 -1.363281 1.5 -2.09375 L 1.5 -11.734375 C 1.5 -12.171875 1.429688 -12.453125 1.296875 -12.578125 C 1.171875 -12.703125 0.890625 -12.765625 0.453125 -12.765625 C 0.335938 -12.765625 0.253906 -12.757812 0.203125 -12.75 L 0.203125 -13.078125 L 0.75 -13.25 C 1.6875 -13.5 2.472656 -13.742188 3.109375 -13.984375 L 3.21875 -13.921875 L 3.21875 -7.703125 C 3.695312 -8.316406 4.164062 -8.753906 4.625 -9.015625 C 5.09375 -9.285156 5.625 -9.421875 6.21875 -9.421875 C 7.894531 -9.421875 8.734375 -8.332031 8.734375 -6.15625 L 8.734375 -2.09375 C 8.734375 -1.375 8.796875 -0.921875 8.921875 -0.734375 C 9.054688 -0.554688 9.40625 -0.414062 9.96875 -0.3125 Z M 9.96875 0 "/></g></g></g><g fill="#000000" fill-opacity="1"><g transform="translate(118.766549, 435.065203)"><g><path d="M 8.671875 -3.21875 C 7.785156 -0.9375 6.34375 0.203125 4.34375 0.203125 C 3.164062 0.203125 2.234375 -0.207031 1.546875 -1.03125 C 0.859375 -1.851562 0.515625 -2.96875 0.515625 -4.375 C 0.515625 -5.863281 0.910156 -7.078125 1.703125 -8.015625 C 2.492188 -8.953125 3.523438 -9.421875 4.796875 -9.421875 C 5.878906 -9.421875 6.75 -9.03125 7.40625 -8.25 C 7.851562 -7.675781 8.148438 -6.816406 8.296875 -5.671875 L 1.984375 -5.671875 C 2.023438 -4.515625 2.226562 -3.570312 2.59375 -2.84375 C 3.1875 -1.75 4.046875 -1.203125 5.171875 -1.203125 C 5.828125 -1.203125 6.394531 -1.363281 6.875 -1.6875 C 7.363281 -2.019531 7.851562 -2.578125 8.34375 -3.359375 Z M 6.203125 -6.328125 C 6.066406 -7.210938 5.851562 -7.820312 5.5625 -8.15625 C 5.28125 -8.5 4.828125 -8.671875 4.203125 -8.671875 C 2.972656 -8.671875 2.25 -7.890625 2.03125 -6.328125 Z M 6.203125 -6.328125 "/></g></g></g><g fill="#000000" fill-opacity="1"><g transform="translate(127.856766, 435.065203)"><g/></g></g><g fill="#000000" fill-opacity="1"><g transform="translate(132.975137, 435.065203)"><g><path d="M 9.046875 -0.8125 C 8.691406 -0.414062 8.378906 -0.144531 8.109375 0 C 7.847656 0.132812 7.546875 0.203125 7.203125 0.203125 C 6.785156 0.203125 6.476562 0.09375 6.28125 -0.125 C 6.082031 -0.351562 5.953125 -0.742188 5.890625 -1.296875 C 4.722656 -0.296875 3.726562 0.203125 2.90625 0.203125 C 2.28125 0.203125 1.765625 0 1.359375 -0.40625 C 0.953125 -0.8125 0.75 -1.335938 0.75 -1.984375 C 0.75 -2.722656 1 -3.316406 1.5 -3.765625 C 1.9375 -4.148438 2.375 -4.453125 2.8125 -4.671875 C 3.257812 -4.898438 4.28125 -5.335938 5.875 -5.984375 L 5.875 -7.21875 C 5.875 -8.351562 5.351562 -8.921875 4.3125 -8.921875 C 3.90625 -8.921875 3.554688 -8.820312 3.265625 -8.625 C 2.984375 -8.425781 2.84375 -8.191406 2.84375 -7.921875 C 2.84375 -7.773438 2.863281 -7.613281 2.90625 -7.4375 C 2.9375 -7.238281 2.953125 -7.128906 2.953125 -7.109375 C 2.953125 -6.867188 2.859375 -6.664062 2.671875 -6.5 C 2.484375 -6.332031 2.265625 -6.25 2.015625 -6.25 C 1.773438 -6.25 1.566406 -6.335938 1.390625 -6.515625 C 1.222656 -6.691406 1.140625 -6.894531 1.140625 -7.125 C 1.140625 -7.6875 1.421875 -8.195312 1.984375 -8.65625 C 2.597656 -9.164062 3.460938 -9.421875 4.578125 -9.421875 C 5.847656 -9.421875 6.703125 -9.023438 7.140625 -8.234375 C 7.398438 -7.804688 7.53125 -7.109375 7.53125 -6.140625 L 7.53125 -2.15625 C 7.53125 -1.695312 7.570312 -1.382812 7.65625 -1.21875 C 7.75 -1.050781 7.910156 -0.96875 8.140625 -0.96875 C 8.429688 -0.96875 8.734375 -1.09375 9.046875 -1.34375 Z M 5.875 -2.515625 L 5.875 -5.484375 C 4.644531 -5.035156 3.785156 -4.597656 3.296875 -4.171875 C 2.804688 -3.753906 2.5625 -3.242188 2.5625 -2.640625 L 2.5625 -2.5625 C 2.5625 -2.125 2.6875 -1.75 2.9375 -1.4375 C 3.1875 -1.132812 3.488281 -0.984375 3.84375 -0.984375 C 4.320312 -0.984375 4.820312 -1.132812 5.34375 -1.4375 C 5.5625 -1.570312 5.703125 -1.707031 5.765625 -1.84375 C 5.835938 -1.976562 5.875 -2.203125 5.875 -2.515625 Z M 5.875 -2.515625 "/></g></g></g><g fill="#000000" fill-opacity="1"><g transform="translate(142.065353, 435.065203)"><g><path d="M 9.921875 0 L 5.671875 0 L 5.671875 -0.3125 C 6.191406 -0.351562 6.535156 -0.488281 6.703125 -0.71875 C 6.867188 -0.945312 6.953125 -1.382812 6.953125 -2.03125 L 6.953125 -6.296875 C 6.953125 -7.628906 6.457031 -8.296875 5.46875 -8.296875 C 5.125 -8.296875 4.804688 -8.210938 4.515625 -8.046875 C 4.234375 -7.890625 3.847656 -7.582031 3.359375 -7.125 L 3.359375 -1.375 C 3.359375 -1 3.453125 -0.738281 3.640625 -0.59375 C 3.835938 -0.445312 4.191406 -0.351562 4.703125 -0.3125 L 4.703125 0 L 0.375 0 L 0.375 -0.3125 C 0.882812 -0.351562 1.222656 -0.472656 1.390625 -0.671875 C 1.554688 -0.867188 1.640625 -1.257812 1.640625 -1.84375 L 1.640625 -6.921875 C 1.640625 -7.421875 1.582031 -7.765625 1.46875 -7.953125 C 1.363281 -8.140625 1.164062 -8.234375 0.875 -8.234375 C 0.613281 -8.234375 0.429688 -8.203125 0.328125 -8.140625 L 0.328125 -8.5 C 1.335938 -8.789062 2.28125 -9.097656 3.15625 -9.421875 L 3.296875 -9.375 L 3.296875 -7.75 C 3.992188 -8.40625 4.539062 -8.847656 4.9375 -9.078125 C 5.34375 -9.304688 5.785156 -9.421875 6.265625 -9.421875 C 7.015625 -9.421875 7.601562 -9.148438 8.03125 -8.609375 C 8.457031 -8.066406 8.671875 -7.3125 8.671875 -6.34375 L 8.671875 -1.65625 C 8.671875 -1.15625 8.753906 -0.816406 8.921875 -0.640625 C 9.085938 -0.472656 9.421875 -0.363281 9.921875 -0.3125 Z M 9.921875 0 "/></g></g></g><g fill="#000000" fill-opacity="1"><g transform="translate(152.302075, 435.065203)"><g><path d="M 9.046875 -0.8125 C 8.691406 -0.414062 8.378906 -0.144531 8.109375 0 C 7.847656 0.132812 7.546875 0.203125 7.203125 0.203125 C 6.785156 0.203125 6.476562 0.09375 6.28125 -0.125 C 6.082031 -0.351562 5.953125 -0.742188 5.890625 -1.296875 C 4.722656 -0.296875 3.726562 0.203125 2.90625 0.203125 C 2.28125 0.203125 1.765625 0 1.359375 -0.40625 C 0.953125 -0.8125 0.75 -1.335938 0.75 -1.984375 C 0.75 -2.722656 1 -3.316406 1.5 -3.765625 C 1.9375 -4.148438 2.375 -4.453125 2.8125 -4.671875 C 3.257812 -4.898438 4.28125 -5.335938 5.875 -5.984375 L 5.875 -7.21875 C 5.875 -8.351562 5.351562 -8.921875 4.3125 -8.921875 C 3.90625 -8.921875 3.554688 -8.820312 3.265625 -8.625 C 2.984375 -8.425781 2.84375 -8.191406 2.84375 -7.921875 C 2.84375 -7.773438 2.863281 -7.613281 2.90625 -7.4375 C 2.9375 -7.238281 2.953125 -7.128906 2.953125 -7.109375 C 2.953125 -6.867188 2.859375 -6.664062 2.671875 -6.5 C 2.484375 -6.332031 2.265625 -6.25 2.015625 -6.25 C 1.773438 -6.25 1.566406 -6.335938 1.390625 -6.515625 C 1.222656 -6.691406 1.140625 -6.894531 1.140625 -7.125 C 1.140625 -7.6875 1.421875 -8.195312 1.984375 -8.65625 C 2.597656 -9.164062 3.460938 -9.421875 4.578125 -9.421875 C 5.847656 -9.421875 6.703125 -9.023438 7.140625 -8.234375 C 7.398438 -7.804688 7.53125 -7.109375 7.53125 -6.140625 L 7.53125 -2.15625 C 7.53125 -1.695312 7.570312 -1.382812 7.65625 -1.21875 C 7.75 -1.050781 7.910156 -0.96875 8.140625 -0.96875 C 8.429688 -0.96875 8.734375 -1.09375 9.046875 -1.34375 Z M 5.875 -2.515625 L 5.875 -5.484375 C 4.644531 -5.035156 3.785156 -4.597656 3.296875 -4.171875 C 2.804688 -3.753906 2.5625 -3.242188 2.5625 -2.640625 L 2.5625 -2.5625 C 2.5625 -2.125 2.6875 -1.75 2.9375 -1.4375 C 3.1875 -1.132812 3.488281 -0.984375 3.84375 -0.984375 C 4.320312 -0.984375 4.820312 -1.132812 5.34375 -1.4375 C 5.5625 -1.570312 5.703125 -1.707031 5.765625 -1.84375 C 5.835938 -1.976562 5.875 -2.203125 5.875 -2.515625 Z M 5.875 -2.515625 "/></g></g></g><g fill="#000000" fill-opacity="1"><g transform="translate(161.392292, 435.065203)"><g><path d="M 5.265625 0 L 0.4375 0 L 0.4375 -0.3125 C 1.070312 -0.363281 1.488281 -0.484375 1.6875 -0.671875 C 1.894531 -0.867188 2 -1.238281 2 -1.78125 L 2 -11.546875 C 2 -12.023438 1.9375 -12.351562 1.8125 -12.53125 C 1.695312 -12.707031 1.472656 -12.796875 1.140625 -12.796875 C 1.023438 -12.796875 0.816406 -12.78125 0.515625 -12.75 L 0.390625 -12.75 L 0.390625 -13.078125 C 1.742188 -13.410156 2.828125 -13.710938 3.640625 -13.984375 L 3.71875 -13.9375 L 3.71875 -1.71875 C 3.71875 -1.15625 3.8125 -0.789062 4 -0.625 C 4.1875 -0.457031 4.609375 -0.351562 5.265625 -0.3125 Z M 5.265625 0 "/></g></g></g><g fill="#000000" fill-opacity="1"><g transform="translate(167.083915, 435.065203)"><g><path d="M 9.71875 -8.90625 C 9.476562 -8.875 9.285156 -8.789062 9.140625 -8.65625 C 9.003906 -8.53125 8.867188 -8.304688 8.734375 -7.984375 L 5.59375 0.375 C 5.039062 1.84375 4.492188 2.890625 3.953125 3.515625 C 3.421875 4.148438 2.8125 4.46875 2.125 4.46875 C 1.6875 4.46875 1.320312 4.351562 1.03125 4.125 C 0.75 3.894531 0.609375 3.613281 0.609375 3.28125 C 0.609375 3.03125 0.695312 2.816406 0.875 2.640625 C 1.050781 2.460938 1.257812 2.375 1.5 2.375 C 1.8125 2.375 2.171875 2.445312 2.578125 2.59375 C 2.765625 2.695312 2.929688 2.75 3.078125 2.75 C 3.234375 2.75 3.410156 2.65625 3.609375 2.46875 C 3.804688 2.289062 3.972656 2.078125 4.109375 1.828125 C 4.285156 1.523438 4.46875 1.117188 4.65625 0.609375 C 4.84375 0.0976562 4.9375 -0.234375 4.9375 -0.390625 C 4.9375 -0.523438 4.859375 -0.773438 4.703125 -1.140625 L 1.328125 -8.265625 C 1.160156 -8.617188 0.8125 -8.835938 0.28125 -8.921875 L 0.28125 -9.203125 L 4.5 -9.203125 L 4.5 -8.90625 C 4.0625 -8.894531 3.753906 -8.847656 3.578125 -8.765625 C 3.398438 -8.679688 3.3125 -8.539062 3.3125 -8.34375 C 3.3125 -8.144531 3.378906 -7.890625 3.515625 -7.578125 L 5.875 -2.390625 L 7.859375 -8.046875 C 7.910156 -8.171875 7.9375 -8.285156 7.9375 -8.390625 C 7.9375 -8.734375 7.609375 -8.90625 6.953125 -8.90625 L 6.953125 -9.203125 L 9.71875 -9.203125 Z M 9.71875 -8.90625 "/></g></g></g><g fill="#000000" fill-opacity="1"><g transform="translate(177.320637, 435.065203)"><g><path d="M 7.125 -2.421875 C 7.125 -1.703125 6.835938 -1.082031 6.265625 -0.5625 C 5.703125 -0.0507812 5.03125 0.203125 4.25 0.203125 C 3.882812 0.203125 3.382812 0.132812 2.75 0 C 2.3125 -0.101562 1.992188 -0.15625 1.796875 -0.15625 C 1.597656 -0.15625 1.441406 -0.078125 1.328125 0.078125 L 1.0625 0.078125 L 1.0625 -3.109375 L 1.390625 -3.109375 C 1.617188 -2.078125 1.929688 -1.34375 2.328125 -0.90625 C 2.722656 -0.46875 3.273438 -0.25 3.984375 -0.25 C 4.503906 -0.25 4.914062 -0.378906 5.21875 -0.640625 C 5.53125 -0.910156 5.6875 -1.269531 5.6875 -1.71875 C 5.6875 -2.332031 5.332031 -2.84375 4.625 -3.25 L 3.4375 -3.9375 C 2.5625 -4.4375 1.941406 -4.90625 1.578125 -5.34375 C 1.222656 -5.789062 1.046875 -6.300781 1.046875 -6.875 C 1.046875 -7.625 1.304688 -8.226562 1.828125 -8.6875 C 2.359375 -9.15625 3.039062 -9.390625 3.875 -9.390625 C 4.375 -9.390625 4.835938 -9.3125 5.265625 -9.15625 C 5.460938 -9.050781 5.644531 -9 5.8125 -9 C 5.863281 -9 5.957031 -9.054688 6.09375 -9.171875 L 6.140625 -9.203125 L 6.359375 -9.203125 L 6.453125 -6.421875 L 6.140625 -6.421875 C 5.910156 -7.335938 5.625 -7.984375 5.28125 -8.359375 C 4.9375 -8.742188 4.472656 -8.9375 3.890625 -8.9375 C 3.410156 -8.9375 3.023438 -8.8125 2.734375 -8.5625 C 2.453125 -8.3125 2.3125 -7.972656 2.3125 -7.546875 C 2.3125 -6.960938 2.601562 -6.5 3.1875 -6.15625 L 5.40625 -4.84375 C 6.03125 -4.476562 6.472656 -4.109375 6.734375 -3.734375 C 6.992188 -3.367188 7.125 -2.929688 7.125 -2.421875 Z M 7.125 -2.421875 "/></g></g></g><g fill="#000000" fill-opacity="1"><g transform="translate(185.28481, 435.065203)"><g><path d="M 8.671875 -3.21875 C 7.785156 -0.9375 6.34375 0.203125 4.34375 0.203125 C 3.164062 0.203125 2.234375 -0.207031 1.546875 -1.03125 C 0.859375 -1.851562 0.515625 -2.96875 0.515625 -4.375 C 0.515625 -5.863281 0.910156 -7.078125 1.703125 -8.015625 C 2.492188 -8.953125 3.523438 -9.421875 4.796875 -9.421875 C 5.878906 -9.421875 6.75 -9.03125 7.40625 -8.25 C 7.851562 -7.675781 8.148438 -6.816406 8.296875 -5.671875 L 1.984375 -5.671875 C 2.023438 -4.515625 2.226562 -3.570312 2.59375 -2.84375 C 3.1875 -1.75 4.046875 -1.203125 5.171875 -1.203125 C 5.828125 -1.203125 6.394531 -1.363281 6.875 -1.6875 C 7.363281 -2.019531 7.851562 -2.578125 8.34375 -3.359375 Z M 6.203125 -6.328125 C 6.066406 -7.210938 5.851562 -7.820312 5.5625 -8.15625 C 5.28125 -8.5 4.828125 -8.671875 4.203125 -8.671875 C 2.972656 -8.671875 2.25 -7.890625 2.03125 -6.328125 Z M 6.203125 -6.328125 "/></g></g></g><g fill="#000000" fill-opacity="1"><g transform="translate(194.375027, 435.065203)"><g><path d="M 7.125 -2.421875 C 7.125 -1.703125 6.835938 -1.082031 6.265625 -0.5625 C 5.703125 -0.0507812 5.03125 0.203125 4.25 0.203125 C 3.882812 0.203125 3.382812 0.132812 2.75 0 C 2.3125 -0.101562 1.992188 -0.15625 1.796875 -0.15625 C 1.597656 -0.15625 1.441406 -0.078125 1.328125 0.078125 L 1.0625 0.078125 L 1.0625 -3.109375 L 1.390625 -3.109375 C 1.617188 -2.078125 1.929688 -1.34375 2.328125 -0.90625 C 2.722656 -0.46875 3.273438 -0.25 3.984375 -0.25 C 4.503906 -0.25 4.914062 -0.378906 5.21875 -0.640625 C 5.53125 -0.910156 5.6875 -1.269531 5.6875 -1.71875 C 5.6875 -2.332031 5.332031 -2.84375 4.625 -3.25 L 3.4375 -3.9375 C 2.5625 -4.4375 1.941406 -4.90625 1.578125 -5.34375 C 1.222656 -5.789062 1.046875 -6.300781 1.046875 -6.875 C 1.046875 -7.625 1.304688 -8.226562 1.828125 -8.6875 C 2.359375 -9.15625 3.039062 -9.390625 3.875 -9.390625 C 4.375 -9.390625 4.835938 -9.3125 5.265625 -9.15625 C 5.460938 -9.050781 5.644531 -9 5.8125 -9 C 5.863281 -9 5.957031 -9.054688 6.09375 -9.171875 L 6.140625 -9.203125 L 6.359375 -9.203125 L 6.453125 -6.421875 L 6.140625 -6.421875 C 5.910156 -7.335938 5.625 -7.984375 5.28125 -8.359375 C 4.9375 -8.742188 4.472656 -8.9375 3.890625 -8.9375 C 3.410156 -8.9375 3.023438 -8.8125 2.734375 -8.5625 C 2.453125 -8.3125 2.3125 -7.972656 2.3125 -7.546875 C 2.3125 -6.960938 2.601562 -6.5 3.1875 -6.15625 L 5.40625 -4.84375 C 6.03125 -4.476562 6.472656 -4.109375 6.734375 -3.734375 C 6.992188 -3.367188 7.125 -2.929688 7.125 -2.421875 Z M 7.125 -2.421875 "/></g></g></g><g fill="#000000" fill-opacity="1"><g transform="translate(202.3392, 435.065203)"><g/></g></g><g fill="#000000" fill-opacity="1"><g transform="translate(207.45757, 435.065203)"><g><path d="M 9.796875 -0.734375 C 8.734375 -0.453125 7.800781 -0.144531 7 0.1875 L 6.921875 0.140625 L 6.921875 -1.5625 L 6.03125 -0.671875 C 5.445312 -0.0859375 4.75 0.203125 3.9375 0.203125 C 3.175781 0.203125 2.570312 -0.0351562 2.125 -0.515625 C 1.675781 -1.003906 1.453125 -1.648438 1.453125 -2.453125 L 1.453125 -7.609375 C 1.453125 -8.085938 1.363281 -8.421875 1.1875 -8.609375 C 1.007812 -8.796875 0.675781 -8.898438 0.1875 -8.921875 L 0.1875 -9.203125 L 3.171875 -9.203125 L 3.171875 -2.53125 C 3.171875 -2.113281 3.3125 -1.75 3.59375 -1.4375 C 3.882812 -1.132812 4.226562 -0.984375 4.625 -0.984375 C 5.28125 -0.984375 5.894531 -1.226562 6.46875 -1.71875 C 6.695312 -1.894531 6.8125 -2.242188 6.8125 -2.765625 L 6.8125 -7.578125 C 6.8125 -8.078125 6.71875 -8.410156 6.53125 -8.578125 C 6.351562 -8.742188 5.941406 -8.835938 5.296875 -8.859375 L 5.296875 -9.203125 L 8.53125 -9.203125 L 8.53125 -2.1875 C 8.53125 -1.707031 8.609375 -1.390625 8.765625 -1.234375 C 8.921875 -1.085938 9.234375 -1.015625 9.703125 -1.015625 L 9.796875 -1.015625 Z M 9.796875 -0.734375 "/></g></g></g><g fill="#000000" fill-opacity="1"><g transform="translate(217.694292, 435.065203)"><g><path d="M 7.125 -2.421875 C 7.125 -1.703125 6.835938 -1.082031 6.265625 -0.5625 C 5.703125 -0.0507812 5.03125 0.203125 4.25 0.203125 C 3.882812 0.203125 3.382812 0.132812 2.75 0 C 2.3125 -0.101562 1.992188 -0.15625 1.796875 -0.15625 C 1.597656 -0.15625 1.441406 -0.078125 1.328125 0.078125 L 1.0625 0.078125 L 1.0625 -3.109375 L 1.390625 -3.109375 C 1.617188 -2.078125 1.929688 -1.34375 2.328125 -0.90625 C 2.722656 -0.46875 3.273438 -0.25 3.984375 -0.25 C 4.503906 -0.25 4.914062 -0.378906 5.21875 -0.640625 C 5.53125 -0.910156 5.6875 -1.269531 5.6875 -1.71875 C 5.6875 -2.332031 5.332031 -2.84375 4.625 -3.25 L 3.4375 -3.9375 C 2.5625 -4.4375 1.941406 -4.90625 1.578125 -5.34375 C 1.222656 -5.789062 1.046875 -6.300781 1.046875 -6.875 C 1.046875 -7.625 1.304688 -8.226562 1.828125 -8.6875 C 2.359375 -9.15625 3.039062 -9.390625 3.875 -9.390625 C 4.375 -9.390625 4.835938 -9.3125 5.265625 -9.15625 C 5.460938 -9.050781 5.644531 -9 5.8125 -9 C 5.863281 -9 5.957031 -9.054688 6.09375 -9.171875 L 6.140625 -9.203125 L 6.359375 -9.203125 L 6.453125 -6.421875 L 6.140625 -6.421875 C 5.910156 -7.335938 5.625 -7.984375 5.28125 -8.359375 C 4.9375 -8.742188 4.472656 -8.9375 3.890625 -8.9375 C 3.410156 -8.9375 3.023438 -8.8125 2.734375 -8.5625 C 2.453125 -8.3125 2.3125 -7.972656 2.3125 -7.546875 C 2.3125 -6.960938 2.601562 -6.5 3.1875 -6.15625 L 5.40625 -4.84375 C 6.03125 -4.476562 6.472656 -4.109375 6.734375 -3.734375 C 6.992188 -3.367188 7.125 -2.929688 7.125 -2.421875 Z M 7.125 -2.421875 "/></g></g></g><g fill="#000000" fill-opacity="1"><g transform="translate(225.658465, 435.065203)"><g><path d="M 5.171875 0 L 0.328125 0 L 0.328125 -0.3125 C 1.035156 -0.351562 1.476562 -0.472656 1.65625 -0.671875 C 1.84375 -0.878906 1.9375 -1.351562 1.9375 -2.09375 L 1.9375 -6.84375 C 1.9375 -7.289062 1.882812 -7.601562 1.78125 -7.78125 C 1.6875 -7.96875 1.515625 -8.0625 1.265625 -8.0625 C 1.046875 -8.0625 0.816406 -8.039062 0.578125 -8 L 0.40625 -7.984375 L 0.40625 -8.296875 L 3.578125 -9.421875 L 3.65625 -9.359375 L 3.65625 -2.09375 C 3.65625 -1.351562 3.738281 -0.882812 3.90625 -0.6875 C 4.082031 -0.488281 4.503906 -0.363281 5.171875 -0.3125 Z M 3.84375 -12.078125 C 3.84375 -11.773438 3.742188 -11.523438 3.546875 -11.328125 C 3.347656 -11.128906 3.097656 -11.03125 2.796875 -11.03125 C 2.515625 -11.03125 2.269531 -11.128906 2.0625 -11.328125 C 1.863281 -11.523438 1.765625 -11.773438 1.765625 -12.078125 C 1.765625 -12.359375 1.863281 -12.601562 2.0625 -12.8125 C 2.269531 -13.019531 2.515625 -13.125 2.796875 -13.125 C 3.097656 -13.125 3.347656 -13.019531 3.546875 -12.8125 C 3.742188 -12.601562 3.84375 -12.359375 3.84375 -12.078125 Z M 3.84375 -12.078125 "/></g></g></g><g fill="#000000" fill-opacity="1"><g transform="translate(231.350089, 435.065203)"><g><path d="M 9.921875 0 L 5.671875 0 L 5.671875 -0.3125 C 6.191406 -0.351562 6.535156 -0.488281 6.703125 -0.71875 C 6.867188 -0.945312 6.953125 -1.382812 6.953125 -2.03125 L 6.953125 -6.296875 C 6.953125 -7.628906 6.457031 -8.296875 5.46875 -8.296875 C 5.125 -8.296875 4.804688 -8.210938 4.515625 -8.046875 C 4.234375 -7.890625 3.847656 -7.582031 3.359375 -7.125 L 3.359375 -1.375 C 3.359375 -1 3.453125 -0.738281 3.640625 -0.59375 C 3.835938 -0.445312 4.191406 -0.351562 4.703125 -0.3125 L 4.703125 0 L 0.375 0 L 0.375 -0.3125 C 0.882812 -0.351562 1.222656 -0.472656 1.390625 -0.671875 C 1.554688 -0.867188 1.640625 -1.257812 1.640625 -1.84375 L 1.640625 -6.921875 C 1.640625 -7.421875 1.582031 -7.765625 1.46875 -7.953125 C 1.363281 -8.140625 1.164062 -8.234375 0.875 -8.234375 C 0.613281 -8.234375 0.429688 -8.203125 0.328125 -8.140625 L 0.328125 -8.5 C 1.335938 -8.789062 2.28125 -9.097656 3.15625 -9.421875 L 3.296875 -9.375 L 3.296875 -7.75 C 3.992188 -8.40625 4.539062 -8.847656 4.9375 -9.078125 C 5.34375 -9.304688 5.785156 -9.421875 6.265625 -9.421875 C 7.015625 -9.421875 7.601562 -9.148438 8.03125 -8.609375 C 8.457031 -8.066406 8.671875 -7.3125 8.671875 -6.34375 L 8.671875 -1.65625 C 8.671875 -1.15625 8.753906 -0.816406 8.921875 -0.640625 C 9.085938 -0.472656 9.421875 -0.363281 9.921875 -0.3125 Z M 9.921875 0 "/></g></g></g><g fill="#000000" fill-opacity="1"><g transform="translate(241.586811, 435.065203)"><g><path d="M 9.625 -7.9375 L 7.921875 -7.9375 C 8.179688 -7.351562 8.3125 -6.78125 8.3125 -6.21875 C 8.3125 -5.238281 7.984375 -4.46875 7.328125 -3.90625 C 6.671875 -3.332031 5.929688 -3.046875 5.109375 -3.046875 C 4.972656 -3.046875 4.71875 -3.066406 4.34375 -3.109375 C 4.320312 -3.109375 4.191406 -3.125 3.953125 -3.15625 C 3.679688 -3.070312 3.40625 -2.882812 3.125 -2.59375 C 2.851562 -2.3125 2.71875 -2.066406 2.71875 -1.859375 C 2.71875 -1.535156 3.25 -1.351562 4.3125 -1.3125 L 6.953125 -1.1875 C 7.703125 -1.15625 8.300781 -0.941406 8.75 -0.546875 C 9.207031 -0.148438 9.4375 0.363281 9.4375 1 C 9.4375 1.769531 9.0625 2.457031 8.3125 3.0625 C 7.164062 4 5.765625 4.46875 4.109375 4.46875 C 3.140625 4.46875 2.304688 4.269531 1.609375 3.875 C 0.921875 3.488281 0.578125 3.023438 0.578125 2.484375 C 0.578125 2.097656 0.726562 1.71875 1.03125 1.34375 C 1.34375 0.96875 1.859375 0.515625 2.578125 -0.015625 C 2.148438 -0.222656 1.863281 -0.398438 1.71875 -0.546875 C 1.570312 -0.703125 1.5 -0.890625 1.5 -1.109375 C 1.5 -1.503906 1.8125 -1.972656 2.4375 -2.515625 L 3.3125 -3.34375 C 2.632812 -3.675781 2.144531 -4.050781 1.84375 -4.46875 C 1.550781 -4.894531 1.40625 -5.429688 1.40625 -6.078125 C 1.40625 -7.003906 1.734375 -7.789062 2.390625 -8.4375 C 3.054688 -9.09375 3.867188 -9.421875 4.828125 -9.421875 C 5.378906 -9.421875 5.925781 -9.316406 6.46875 -9.109375 L 6.921875 -8.9375 C 7.316406 -8.800781 7.691406 -8.734375 8.046875 -8.734375 L 9.625 -8.734375 Z M 8.859375 1.3125 C 8.859375 0.9375 8.664062 0.675781 8.28125 0.53125 C 7.90625 0.382812 7.253906 0.3125 6.328125 0.3125 C 4.941406 0.3125 3.835938 0.222656 3.015625 0.046875 C 2.585938 0.546875 2.3125 0.90625 2.1875 1.125 C 2.0625 1.34375 2 1.566406 2 1.796875 C 2 2.253906 2.269531 2.617188 2.8125 2.890625 C 3.363281 3.160156 4.09375 3.296875 5 3.296875 C 6.15625 3.296875 7.085938 3.109375 7.796875 2.734375 C 8.503906 2.367188 8.859375 1.894531 8.859375 1.3125 Z M 6.734375 -5.421875 C 6.734375 -6.265625 6.53125 -7.082031 6.125 -7.875 C 5.78125 -8.519531 5.28125 -8.84375 4.625 -8.84375 C 4.144531 -8.84375 3.769531 -8.671875 3.5 -8.328125 C 3.238281 -7.984375 3.109375 -7.515625 3.109375 -6.921875 L 3.109375 -6.859375 C 3.109375 -5.878906 3.300781 -5.082031 3.6875 -4.46875 C 4.082031 -3.863281 4.585938 -3.5625 5.203125 -3.5625 C 5.679688 -3.5625 6.054688 -3.726562 6.328125 -4.0625 C 6.597656 -4.394531 6.734375 -4.847656 6.734375 -5.421875 Z M 6.734375 -5.421875 "/></g></g></g><g fill="#000000" fill-opacity="1"><g transform="translate(251.823533, 435.065203)"><g/></g></g><g fill="#000000" fill-opacity="1"><g transform="translate(256.941904, 435.065203)"><g><path d="M 5.703125 -1.34375 C 5.054688 -0.3125 4.234375 0.203125 3.234375 0.203125 C 2.035156 0.203125 1.4375 -0.660156 1.4375 -2.390625 L 1.4375 -8.5625 L 0.34375 -8.5625 C 0.289062 -8.601562 0.265625 -8.648438 0.265625 -8.703125 C 0.265625 -8.804688 0.378906 -8.9375 0.609375 -9.09375 C 1.171875 -9.414062 1.832031 -10.144531 2.59375 -11.28125 C 2.789062 -11.519531 2.929688 -11.707031 3.015625 -11.84375 C 3.109375 -11.84375 3.15625 -11.753906 3.15625 -11.578125 L 3.15625 -9.203125 L 5.21875 -9.203125 L 5.21875 -8.5625 L 3.15625 -8.5625 L 3.15625 -2.703125 C 3.15625 -2.046875 3.234375 -1.570312 3.390625 -1.28125 C 3.554688 -1 3.832031 -0.859375 4.21875 -0.859375 C 4.625 -0.859375 5.03125 -1.097656 5.4375 -1.578125 Z M 5.703125 -1.34375 "/></g></g></g><g fill="#000000" fill-opacity="1"><g transform="translate(262.633528, 435.065203)"><g><path d="M 9.96875 0 L 5.625 0 L 5.625 -0.3125 C 6.21875 -0.363281 6.597656 -0.5 6.765625 -0.71875 C 6.929688 -0.9375 7.015625 -1.394531 7.015625 -2.09375 L 7.015625 -6.140625 C 7.015625 -7.585938 6.503906 -8.3125 5.484375 -8.3125 C 5.085938 -8.3125 4.710938 -8.210938 4.359375 -8.015625 C 4.015625 -7.816406 3.632812 -7.484375 3.21875 -7.015625 L 3.21875 -2.09375 C 3.21875 -1.375 3.296875 -0.910156 3.453125 -0.703125 C 3.617188 -0.503906 4.003906 -0.375 4.609375 -0.3125 L 4.609375 0 L 0.1875 0 L 0.1875 -0.3125 C 0.769531 -0.394531 1.132812 -0.53125 1.28125 -0.71875 C 1.425781 -0.90625 1.5 -1.363281 1.5 -2.09375 L 1.5 -11.734375 C 1.5 -12.171875 1.429688 -12.453125 1.296875 -12.578125 C 1.171875 -12.703125 0.890625 -12.765625 0.453125 -12.765625 C 0.335938 -12.765625 0.253906 -12.757812 0.203125 -12.75 L 0.203125 -13.078125 L 0.75 -13.25 C 1.6875 -13.5 2.472656 -13.742188 3.109375 -13.984375 L 3.21875 -13.921875 L 3.21875 -7.703125 C 3.695312 -8.316406 4.164062 -8.753906 4.625 -9.015625 C 5.09375 -9.285156 5.625 -9.421875 6.21875 -9.421875 C 7.894531 -9.421875 8.734375 -8.332031 8.734375 -6.15625 L 8.734375 -2.09375 C 8.734375 -1.375 8.796875 -0.921875 8.921875 -0.734375 C 9.054688 -0.554688 9.40625 -0.414062 9.96875 -0.3125 Z M 9.96875 0 "/></g></g></g><g fill="#000000" fill-opacity="1"><g transform="translate(272.87025, 435.065203)"><g><path d="M 8.671875 -3.21875 C 7.785156 -0.9375 6.34375 0.203125 4.34375 0.203125 C 3.164062 0.203125 2.234375 -0.207031 1.546875 -1.03125 C 0.859375 -1.851562 0.515625 -2.96875 0.515625 -4.375 C 0.515625 -5.863281 0.910156 -7.078125 1.703125 -8.015625 C 2.492188 -8.953125 3.523438 -9.421875 4.796875 -9.421875 C 5.878906 -9.421875 6.75 -9.03125 7.40625 -8.25 C 7.851562 -7.675781 8.148438 -6.816406 8.296875 -5.671875 L 1.984375 -5.671875 C 2.023438 -4.515625 2.226562 -3.570312 2.59375 -2.84375 C 3.1875 -1.75 4.046875 -1.203125 5.171875 -1.203125 C 5.828125 -1.203125 6.394531 -1.363281 6.875 -1.6875 C 7.363281 -2.019531 7.851562 -2.578125 8.34375 -3.359375 Z M 6.203125 -6.328125 C 6.066406 -7.210938 5.851562 -7.820312 5.5625 -8.15625 C 5.28125 -8.5 4.828125 -8.671875 4.203125 -8.671875 C 2.972656 -8.671875 2.25 -7.890625 2.03125 -6.328125 Z M 6.203125 -6.328125 "/></g></g></g><g fill="#000000" fill-opacity="1"><g transform="translate(281.960466, 435.065203)"><g><path d="M 5.171875 0 L 0.328125 0 L 0.328125 -0.3125 C 1.035156 -0.351562 1.476562 -0.472656 1.65625 -0.671875 C 1.84375 -0.878906 1.9375 -1.351562 1.9375 -2.09375 L 1.9375 -6.84375 C 1.9375 -7.289062 1.882812 -7.601562 1.78125 -7.78125 C 1.6875 -7.96875 1.515625 -8.0625 1.265625 -8.0625 C 1.046875 -8.0625 0.816406 -8.039062 0.578125 -8 L 0.40625 -7.984375 L 0.40625 -8.296875 L 3.578125 -9.421875 L 3.65625 -9.359375 L 3.65625 -2.09375 C 3.65625 -1.351562 3.738281 -0.882812 3.90625 -0.6875 C 4.082031 -0.488281 4.503906 -0.363281 5.171875 -0.3125 Z M 3.84375 -12.078125 C 3.84375 -11.773438 3.742188 -11.523438 3.546875 -11.328125 C 3.347656 -11.128906 3.097656 -11.03125 2.796875 -11.03125 C 2.515625 -11.03125 2.269531 -11.128906 2.0625 -11.328125 C 1.863281 -11.523438 1.765625 -11.773438 1.765625 -12.078125 C 1.765625 -12.359375 1.863281 -12.601562 2.0625 -12.8125 C 2.269531 -13.019531 2.515625 -13.125 2.796875 -13.125 C 3.097656 -13.125 3.347656 -13.019531 3.546875 -12.8125 C 3.742188 -12.601562 3.84375 -12.359375 3.84375 -12.078125 Z M 3.84375 -12.078125 "/></g></g></g><g fill="#000000" fill-opacity="1"><g transform="translate(287.65209, 435.065203)"><g><path d="M 6.859375 -8.328125 C 6.859375 -8.046875 6.785156 -7.820312 6.640625 -7.65625 C 6.492188 -7.488281 6.300781 -7.40625 6.0625 -7.40625 C 5.820312 -7.40625 5.546875 -7.539062 5.234375 -7.8125 C 5.015625 -8.019531 4.835938 -8.125 4.703125 -8.125 C 4.429688 -8.125 4.125 -7.925781 3.78125 -7.53125 C 3.445312 -7.132812 3.28125 -6.773438 3.28125 -6.453125 L 3.28125 -1.84375 C 3.28125 -1.257812 3.394531 -0.863281 3.625 -0.65625 C 3.851562 -0.445312 4.316406 -0.332031 5.015625 -0.3125 L 5.015625 0 L 0.109375 0 L 0.109375 -0.3125 C 0.753906 -0.425781 1.15625 -0.554688 1.3125 -0.703125 C 1.476562 -0.859375 1.5625 -1.195312 1.5625 -1.71875 L 1.5625 -6.84375 C 1.5625 -7.289062 1.507812 -7.601562 1.40625 -7.78125 C 1.300781 -7.96875 1.117188 -8.0625 0.859375 -8.0625 C 0.640625 -8.0625 0.398438 -8.035156 0.140625 -7.984375 L 0.140625 -8.3125 C 1.234375 -8.664062 2.242188 -9.035156 3.171875 -9.421875 L 3.28125 -9.375 L 3.28125 -7.484375 C 3.78125 -8.210938 4.207031 -8.71875 4.5625 -9 C 4.914062 -9.28125 5.304688 -9.421875 5.734375 -9.421875 C 6.085938 -9.421875 6.363281 -9.320312 6.5625 -9.125 C 6.757812 -8.9375 6.859375 -8.671875 6.859375 -8.328125 Z M 6.859375 -8.328125 "/></g></g></g><g fill="#000000" fill-opacity="1"><g transform="translate(294.469757, 435.065203)"><g/></g></g><g fill="#000000" fill-opacity="1"><g transform="translate(299.588128, 435.065203)"><g><path d="M 10.046875 -0.859375 L 7.046875 0.203125 L 6.953125 0.140625 L 6.953125 -1.171875 C 6.304688 -0.253906 5.4375 0.203125 4.34375 0.203125 C 3.207031 0.203125 2.289062 -0.203125 1.59375 -1.015625 C 0.894531 -1.828125 0.546875 -2.890625 0.546875 -4.203125 C 0.546875 -5.640625 0.960938 -6.867188 1.796875 -7.890625 C 2.628906 -8.910156 3.632812 -9.421875 4.8125 -9.421875 C 5.550781 -9.421875 6.265625 -9.125 6.953125 -8.53125 L 6.953125 -11.734375 C 6.953125 -12.148438 6.890625 -12.425781 6.765625 -12.5625 C 6.648438 -12.695312 6.398438 -12.765625 6.015625 -12.765625 C 5.828125 -12.765625 5.675781 -12.757812 5.5625 -12.75 L 5.5625 -13.078125 C 6.8125 -13.410156 7.816406 -13.710938 8.578125 -13.984375 L 8.671875 -13.9375 L 8.671875 -2.328125 C 8.671875 -1.847656 8.726562 -1.535156 8.84375 -1.390625 C 8.96875 -1.242188 9.210938 -1.171875 9.578125 -1.171875 C 9.648438 -1.171875 9.804688 -1.175781 10.046875 -1.1875 Z M 6.953125 -2.09375 L 6.953125 -6.796875 C 6.953125 -7.335938 6.738281 -7.8125 6.3125 -8.21875 C 5.894531 -8.632812 5.414062 -8.84375 4.875 -8.84375 C 4.09375 -8.84375 3.46875 -8.492188 3 -7.796875 C 2.539062 -7.097656 2.3125 -6.171875 2.3125 -5.015625 C 2.3125 -3.753906 2.570312 -2.742188 3.09375 -1.984375 C 3.613281 -1.234375 4.296875 -0.859375 5.140625 -0.859375 C 5.753906 -0.859375 6.242188 -1.0625 6.609375 -1.46875 C 6.835938 -1.726562 6.953125 -1.9375 6.953125 -2.09375 Z M 6.953125 -2.09375 "/></g></g></g><g fill="#000000" fill-opacity="1"><g transform="translate(309.82485, 435.065203)"><g><path d="M 9.046875 -0.8125 C 8.691406 -0.414062 8.378906 -0.144531 8.109375 0 C 7.847656 0.132812 7.546875 0.203125 7.203125 0.203125 C 6.785156 0.203125 6.476562 0.09375 6.28125 -0.125 C 6.082031 -0.351562 5.953125 -0.742188 5.890625 -1.296875 C 4.722656 -0.296875 3.726562 0.203125 2.90625 0.203125 C 2.28125 0.203125 1.765625 0 1.359375 -0.40625 C 0.953125 -0.8125 0.75 -1.335938 0.75 -1.984375 C 0.75 -2.722656 1 -3.316406 1.5 -3.765625 C 1.9375 -4.148438 2.375 -4.453125 2.8125 -4.671875 C 3.257812 -4.898438 4.28125 -5.335938 5.875 -5.984375 L 5.875 -7.21875 C 5.875 -8.351562 5.351562 -8.921875 4.3125 -8.921875 C 3.90625 -8.921875 3.554688 -8.820312 3.265625 -8.625 C 2.984375 -8.425781 2.84375 -8.191406 2.84375 -7.921875 C 2.84375 -7.773438 2.863281 -7.613281 2.90625 -7.4375 C 2.9375 -7.238281 2.953125 -7.128906 2.953125 -7.109375 C 2.953125 -6.867188 2.859375 -6.664062 2.671875 -6.5 C 2.484375 -6.332031 2.265625 -6.25 2.015625 -6.25 C 1.773438 -6.25 1.566406 -6.335938 1.390625 -6.515625 C 1.222656 -6.691406 1.140625 -6.894531 1.140625 -7.125 C 1.140625 -7.6875 1.421875 -8.195312 1.984375 -8.65625 C 2.597656 -9.164062 3.460938 -9.421875 4.578125 -9.421875 C 5.847656 -9.421875 6.703125 -9.023438 7.140625 -8.234375 C 7.398438 -7.804688 7.53125 -7.109375 7.53125 -6.140625 L 7.53125 -2.15625 C 7.53125 -1.695312 7.570312 -1.382812 7.65625 -1.21875 C 7.75 -1.050781 7.910156 -0.96875 8.140625 -0.96875 C 8.429688 -0.96875 8.734375 -1.09375 9.046875 -1.34375 Z M 5.875 -2.515625 L 5.875 -5.484375 C 4.644531 -5.035156 3.785156 -4.597656 3.296875 -4.171875 C 2.804688 -3.753906 2.5625 -3.242188 2.5625 -2.640625 L 2.5625 -2.5625 C 2.5625 -2.125 2.6875 -1.75 2.9375 -1.4375 C 3.1875 -1.132812 3.488281 -0.984375 3.84375 -0.984375 C 4.320312 -0.984375 4.820312 -1.132812 5.34375 -1.4375 C 5.5625 -1.570312 5.703125 -1.707031 5.765625 -1.84375 C 5.835938 -1.976562 5.875 -2.203125 5.875 -2.515625 Z M 5.875 -2.515625 "/></g></g></g><g fill="#000000" fill-opacity="1"><g transform="translate(318.915066, 435.065203)"><g><path d="M 5.703125 -1.34375 C 5.054688 -0.3125 4.234375 0.203125 3.234375 0.203125 C 2.035156 0.203125 1.4375 -0.660156 1.4375 -2.390625 L 1.4375 -8.5625 L 0.34375 -8.5625 C 0.289062 -8.601562 0.265625 -8.648438 0.265625 -8.703125 C 0.265625 -8.804688 0.378906 -8.9375 0.609375 -9.09375 C 1.171875 -9.414062 1.832031 -10.144531 2.59375 -11.28125 C 2.789062 -11.519531 2.929688 -11.707031 3.015625 -11.84375 C 3.109375 -11.84375 3.15625 -11.753906 3.15625 -11.578125 L 3.15625 -9.203125 L 5.21875 -9.203125 L 5.21875 -8.5625 L 3.15625 -8.5625 L 3.15625 -2.703125 C 3.15625 -2.046875 3.234375 -1.570312 3.390625 -1.28125 C 3.554688 -1 3.832031 -0.859375 4.21875 -0.859375 C 4.625 -0.859375 5.03125 -1.097656 5.4375 -1.578125 Z M 5.703125 -1.34375 "/></g></g></g><g fill="#000000" fill-opacity="1"><g transform="translate(324.60669, 435.065203)"><g><path d="M 9.046875 -0.8125 C 8.691406 -0.414062 8.378906 -0.144531 8.109375 0 C 7.847656 0.132812 7.546875 0.203125 7.203125 0.203125 C 6.785156 0.203125 6.476562 0.09375 6.28125 -0.125 C 6.082031 -0.351562 5.953125 -0.742188 5.890625 -1.296875 C 4.722656 -0.296875 3.726562 0.203125 2.90625 0.203125 C 2.28125 0.203125 1.765625 0 1.359375 -0.40625 C 0.953125 -0.8125 0.75 -1.335938 0.75 -1.984375 C 0.75 -2.722656 1 -3.316406 1.5 -3.765625 C 1.9375 -4.148438 2.375 -4.453125 2.8125 -4.671875 C 3.257812 -4.898438 4.28125 -5.335938 5.875 -5.984375 L 5.875 -7.21875 C 5.875 -8.351562 5.351562 -8.921875 4.3125 -8.921875 C 3.90625 -8.921875 3.554688 -8.820312 3.265625 -8.625 C 2.984375 -8.425781 2.84375 -8.191406 2.84375 -7.921875 C 2.84375 -7.773438 2.863281 -7.613281 2.90625 -7.4375 C 2.9375 -7.238281 2.953125 -7.128906 2.953125 -7.109375 C 2.953125 -6.867188 2.859375 -6.664062 2.671875 -6.5 C 2.484375 -6.332031 2.265625 -6.25 2.015625 -6.25 C 1.773438 -6.25 1.566406 -6.335938 1.390625 -6.515625 C 1.222656 -6.691406 1.140625 -6.894531 1.140625 -7.125 C 1.140625 -7.6875 1.421875 -8.195312 1.984375 -8.65625 C 2.597656 -9.164062 3.460938 -9.421875 4.578125 -9.421875 C 5.847656 -9.421875 6.703125 -9.023438 7.140625 -8.234375 C 7.398438 -7.804688 7.53125 -7.109375 7.53125 -6.140625 L 7.53125 -2.15625 C 7.53125 -1.695312 7.570312 -1.382812 7.65625 -1.21875 C 7.75 -1.050781 7.910156 -0.96875 8.140625 -0.96875 C 8.429688 -0.96875 8.734375 -1.09375 9.046875 -1.34375 Z M 5.875 -2.515625 L 5.875 -5.484375 C 4.644531 -5.035156 3.785156 -4.597656 3.296875 -4.171875 C 2.804688 -3.753906 2.5625 -3.242188 2.5625 -2.640625 L 2.5625 -2.5625 C 2.5625 -2.125 2.6875 -1.75 2.9375 -1.4375 C 3.1875 -1.132812 3.488281 -0.984375 3.84375 -0.984375 C 4.320312 -0.984375 4.820312 -1.132812 5.34375 -1.4375 C 5.5625 -1.570312 5.703125 -1.707031 5.765625 -1.84375 C 5.835938 -1.976562 5.875 -2.203125 5.875 -2.515625 Z M 5.875 -2.515625 "/></g></g></g><g fill="#000000" fill-opacity="1"><g transform="translate(333.696906, 435.065203)"><g/></g></g><g fill="#000000" fill-opacity="1"><g transform="translate(338.815277, 435.065203)"><g><path d="M 9.625 -7.9375 L 7.921875 -7.9375 C 8.179688 -7.351562 8.3125 -6.78125 8.3125 -6.21875 C 8.3125 -5.238281 7.984375 -4.46875 7.328125 -3.90625 C 6.671875 -3.332031 5.929688 -3.046875 5.109375 -3.046875 C 4.972656 -3.046875 4.71875 -3.066406 4.34375 -3.109375 C 4.320312 -3.109375 4.191406 -3.125 3.953125 -3.15625 C 3.679688 -3.070312 3.40625 -2.882812 3.125 -2.59375 C 2.851562 -2.3125 2.71875 -2.066406 2.71875 -1.859375 C 2.71875 -1.535156 3.25 -1.351562 4.3125 -1.3125 L 6.953125 -1.1875 C 7.703125 -1.15625 8.300781 -0.941406 8.75 -0.546875 C 9.207031 -0.148438 9.4375 0.363281 9.4375 1 C 9.4375 1.769531 9.0625 2.457031 8.3125 3.0625 C 7.164062 4 5.765625 4.46875 4.109375 4.46875 C 3.140625 4.46875 2.304688 4.269531 1.609375 3.875 C 0.921875 3.488281 0.578125 3.023438 0.578125 2.484375 C 0.578125 2.097656 0.726562 1.71875 1.03125 1.34375 C 1.34375 0.96875 1.859375 0.515625 2.578125 -0.015625 C 2.148438 -0.222656 1.863281 -0.398438 1.71875 -0.546875 C 1.570312 -0.703125 1.5 -0.890625 1.5 -1.109375 C 1.5 -1.503906 1.8125 -1.972656 2.4375 -2.515625 L 3.3125 -3.34375 C 2.632812 -3.675781 2.144531 -4.050781 1.84375 -4.46875 C 1.550781 -4.894531 1.40625 -5.429688 1.40625 -6.078125 C 1.40625 -7.003906 1.734375 -7.789062 2.390625 -8.4375 C 3.054688 -9.09375 3.867188 -9.421875 4.828125 -9.421875 C 5.378906 -9.421875 5.925781 -9.316406 6.46875 -9.109375 L 6.921875 -8.9375 C 7.316406 -8.800781 7.691406 -8.734375 8.046875 -8.734375 L 9.625 -8.734375 Z M 8.859375 1.3125 C 8.859375 0.9375 8.664062 0.675781 8.28125 0.53125 C 7.90625 0.382812 7.253906 0.3125 6.328125 0.3125 C 4.941406 0.3125 3.835938 0.222656 3.015625 0.046875 C 2.585938 0.546875 2.3125 0.90625 2.1875 1.125 C 2.0625 1.34375 2 1.566406 2 1.796875 C 2 2.253906 2.269531 2.617188 2.8125 2.890625 C 3.363281 3.160156 4.09375 3.296875 5 3.296875 C 6.15625 3.296875 7.085938 3.109375 7.796875 2.734375 C 8.503906 2.367188 8.859375 1.894531 8.859375 1.3125 Z M 6.734375 -5.421875 C 6.734375 -6.265625 6.53125 -7.082031 6.125 -7.875 C 5.78125 -8.519531 5.28125 -8.84375 4.625 -8.84375 C 4.144531 -8.84375 3.769531 -8.671875 3.5 -8.328125 C 3.238281 -7.984375 3.109375 -7.515625 3.109375 -6.921875 L 3.109375 -6.859375 C 3.109375 -5.878906 3.300781 -5.082031 3.6875 -4.46875 C 4.082031 -3.863281 4.585938 -3.5625 5.203125 -3.5625 C 5.679688 -3.5625 6.054688 -3.726562 6.328125 -4.0625 C 6.597656 -4.394531 6.734375 -4.847656 6.734375 -5.421875 Z M 6.734375 -5.421875 "/></g></g></g><g fill="#000000" fill-opacity="1"><g transform="translate(349.051999, 435.065203)"><g><path d="M 9.625 -4.796875 C 9.625 -3.367188 9.1875 -2.175781 8.3125 -1.21875 C 7.4375 -0.269531 6.359375 0.203125 5.078125 0.203125 C 3.796875 0.203125 2.726562 -0.253906 1.875 -1.171875 C 1.019531 -2.097656 0.59375 -3.25 0.59375 -4.625 C 0.59375 -6.03125 1.007812 -7.179688 1.84375 -8.078125 C 2.6875 -8.972656 3.773438 -9.421875 5.109375 -9.421875 C 6.421875 -9.421875 7.5 -8.984375 8.34375 -8.109375 C 9.195312 -7.234375 9.625 -6.128906 9.625 -4.796875 Z M 7.78125 -4.078125 C 7.78125 -5.484375 7.503906 -6.628906 6.953125 -7.515625 C 6.410156 -8.398438 5.707031 -8.84375 4.84375 -8.84375 C 4.125 -8.84375 3.539062 -8.546875 3.09375 -7.953125 C 2.65625 -7.367188 2.4375 -6.59375 2.4375 -5.625 C 2.4375 -4.113281 2.738281 -2.796875 3.34375 -1.671875 C 3.800781 -0.804688 4.460938 -0.375 5.328125 -0.375 C 6.085938 -0.375 6.6875 -0.695312 7.125 -1.34375 C 7.5625 -2 7.78125 -2.910156 7.78125 -4.078125 Z M 7.78125 -4.078125 "/></g></g></g><g fill="#000000" fill-opacity="1"><g transform="translate(359.288721, 435.065203)"><g/></g></g><g fill="#000000" fill-opacity="1"><g transform="translate(364.407092, 435.065203)"><g><path d="M 14.203125 -8.90625 C 13.992188 -8.832031 13.847656 -8.738281 13.765625 -8.625 C 13.691406 -8.507812 13.554688 -8.234375 13.359375 -7.796875 L 10.546875 -0.71875 C 10.265625 -0.0507812 10.066406 0.28125 9.953125 0.28125 C 9.847656 0.28125 9.691406 -0.0078125 9.484375 -0.59375 L 7.609375 -5.421875 L 5.328125 -0.515625 C 5.078125 0.015625 4.90625 0.28125 4.8125 0.28125 C 4.695312 0.28125 4.519531 -0.015625 4.28125 -0.609375 L 1.515625 -7.609375 C 1.285156 -8.128906 1.101562 -8.472656 0.96875 -8.640625 C 0.84375 -8.804688 0.664062 -8.894531 0.4375 -8.90625 L 0.4375 -9.203125 L 4.109375 -9.203125 L 4.109375 -8.90625 C 3.753906 -8.863281 3.507812 -8.796875 3.375 -8.703125 C 3.238281 -8.609375 3.171875 -8.453125 3.171875 -8.234375 C 3.171875 -8.023438 3.210938 -7.816406 3.296875 -7.609375 L 5.328125 -2.265625 L 7.1875 -6.34375 L 6.78125 -7.484375 C 6.570312 -8.035156 6.378906 -8.398438 6.203125 -8.578125 C 6.023438 -8.753906 5.742188 -8.863281 5.359375 -8.90625 L 5.359375 -9.203125 L 9.515625 -9.203125 L 9.515625 -8.90625 C 9.035156 -8.832031 8.71875 -8.75 8.5625 -8.65625 C 8.40625 -8.5625 8.328125 -8.398438 8.328125 -8.171875 C 8.328125 -7.992188 8.441406 -7.585938 8.671875 -6.953125 L 10.390625 -2.375 L 12.234375 -6.921875 C 12.472656 -7.492188 12.59375 -7.941406 12.59375 -8.265625 C 12.59375 -8.441406 12.53125 -8.570312 12.40625 -8.65625 C 12.28125 -8.75 12.039062 -8.832031 11.6875 -8.90625 L 11.6875 -9.203125 L 14.203125 -9.203125 Z M 14.203125 -8.90625 "/></g></g></g><g fill="#000000" fill-opacity="1"><g transform="translate(379.188913, 435.065203)"><g><path d="M 8.671875 -3.21875 C 7.785156 -0.9375 6.34375 0.203125 4.34375 0.203125 C 3.164062 0.203125 2.234375 -0.207031 1.546875 -1.03125 C 0.859375 -1.851562 0.515625 -2.96875 0.515625 -4.375 C 0.515625 -5.863281 0.910156 -7.078125 1.703125 -8.015625 C 2.492188 -8.953125 3.523438 -9.421875 4.796875 -9.421875 C 5.878906 -9.421875 6.75 -9.03125 7.40625 -8.25 C 7.851562 -7.675781 8.148438 -6.816406 8.296875 -5.671875 L 1.984375 -5.671875 C 2.023438 -4.515625 2.226562 -3.570312 2.59375 -2.84375 C 3.1875 -1.75 4.046875 -1.203125 5.171875 -1.203125 C 5.828125 -1.203125 6.394531 -1.363281 6.875 -1.6875 C 7.363281 -2.019531 7.851562 -2.578125 8.34375 -3.359375 Z M 6.203125 -6.328125 C 6.066406 -7.210938 5.851562 -7.820312 5.5625 -8.15625 C 5.28125 -8.5 4.828125 -8.671875 4.203125 -8.671875 C 2.972656 -8.671875 2.25 -7.890625 2.03125 -6.328125 Z M 6.203125 -6.328125 "/></g></g></g><g fill="#000000" fill-opacity="1"><g transform="translate(388.279129, 435.065203)"><g><path d="M 5.265625 0 L 0.4375 0 L 0.4375 -0.3125 C 1.070312 -0.363281 1.488281 -0.484375 1.6875 -0.671875 C 1.894531 -0.867188 2 -1.238281 2 -1.78125 L 2 -11.546875 C 2 -12.023438 1.9375 -12.351562 1.8125 -12.53125 C 1.695312 -12.707031 1.472656 -12.796875 1.140625 -12.796875 C 1.023438 -12.796875 0.816406 -12.78125 0.515625 -12.75 L 0.390625 -12.75 L 0.390625 -13.078125 C 1.742188 -13.410156 2.828125 -13.710938 3.640625 -13.984375 L 3.71875 -13.9375 L 3.71875 -1.71875 C 3.71875 -1.15625 3.8125 -0.789062 4 -0.625 C 4.1875 -0.457031 4.609375 -0.351562 5.265625 -0.3125 Z M 5.265625 0 "/></g></g></g><g fill="#000000" fill-opacity="1"><g transform="translate(393.970753, 435.065203)"><g><path d="M 5.265625 0 L 0.4375 0 L 0.4375 -0.3125 C 1.070312 -0.363281 1.488281 -0.484375 1.6875 -0.671875 C 1.894531 -0.867188 2 -1.238281 2 -1.78125 L 2 -11.546875 C 2 -12.023438 1.9375 -12.351562 1.8125 -12.53125 C 1.695312 -12.707031 1.472656 -12.796875 1.140625 -12.796875 C 1.023438 -12.796875 0.816406 -12.78125 0.515625 -12.75 L 0.390625 -12.75 L 0.390625 -13.078125 C 1.742188 -13.410156 2.828125 -13.710938 3.640625 -13.984375 L 3.71875 -13.9375 L 3.71875 -1.71875 C 3.71875 -1.15625 3.8125 -0.789062 4 -0.625 C 4.1875 -0.457031 4.609375 -0.351562 5.265625 -0.3125 Z M 5.265625 0 "/></g></g></g><g fill="#000000" fill-opacity="1"><g transform="translate(399.662376, 435.065203)"><g><path d="M 4.828125 -12.203125 C 4.828125 -12.023438 4.816406 -11.769531 4.796875 -11.4375 L 3.875 -3.609375 L 3.609375 -3.609375 L 3.421875 -5.8125 C 3.367188 -6.53125 3.25 -7.472656 3.0625 -8.640625 C 2.789062 -10.421875 2.65625 -11.628906 2.65625 -12.265625 C 2.65625 -12.742188 2.75 -13.125 2.9375 -13.40625 C 3.132812 -13.695312 3.40625 -13.84375 3.75 -13.84375 C 4.46875 -13.84375 4.828125 -13.296875 4.828125 -12.203125 Z M 4.515625 -1.671875 C 4.734375 -1.453125 4.84375 -1.1875 4.84375 -0.875 C 4.84375 -0.5625 4.738281 -0.304688 4.53125 -0.109375 C 4.320312 0.0859375 4.050781 0.1875 3.71875 0.1875 C 3.425781 0.1875 3.175781 0.0859375 2.96875 -0.109375 C 2.757812 -0.304688 2.65625 -0.5625 2.65625 -0.875 C 2.65625 -1.1875 2.757812 -1.453125 2.96875 -1.671875 C 3.1875 -1.890625 3.445312 -2 3.75 -2 C 4.050781 -2 4.304688 -1.890625 4.515625 -1.671875 Z M 4.515625 -1.671875 "/></g></g></g></svg>