<svg xmlns="http://www.w3.org/2000/svg" xmlns:xlink="http://www.w3.org/1999/xlink" width="711" zoomAndPan="magnify" viewBox="0 0 533.25 517.499968" height="690" preserveAspectRatio="xMidYMid meet" version="1.0"><defs><g/><clipPath id="9b550e6bb2"><path d="M 176 75.007812 L 247 75.007812 L 247 146 L 176 146 Z M 176 75.007812 " clip-rule="nonzero"/></clipPath><clipPath id="e593821d13"><path d="M 287 75.007812 L 358 75.007812 L 358 146 L 287 146 Z M 287 75.007812 " clip-rule="nonzero"/></clipPath><clipPath id="8fa1ea06c9"><path d="M 204 293 L 332 293 L 332 398.554688 L 204 398.554688 Z M 204 293 " clip-rule="nonzero"/></clipPath><clipPath id="30ebc1fd2b"><path d="M 91.582031 250 L 217 250 L 217 357 L 91.582031 357 Z M 91.582031 250 " clip-rule="nonzero"/></clipPath><clipPath id="ba191c92c1"><path d="M 318 250 L 443.589844 250 L 443.589844 357 L 318 357 Z M 318 250 " clip-rule="nonzero"/></clipPath></defs><g clip-path="url(#9b550e6bb2)"><path fill="#000000" d="M 246.464844 110.175781 C 246.464844 111.328125 246.410156 112.476562 246.296875 113.625 C 246.183594 114.769531 246.015625 115.910156 245.789062 117.039062 C 245.5625 118.167969 245.285156 119.285156 244.949219 120.386719 C 244.613281 121.488281 244.226562 122.570312 243.785156 123.636719 C 243.34375 124.699219 242.851562 125.738281 242.308594 126.753906 C 241.765625 127.769531 241.171875 128.757812 240.53125 129.714844 C 239.890625 130.671875 239.207031 131.597656 238.476562 132.488281 C 237.742188 133.378906 236.96875 134.230469 236.15625 135.042969 C 235.339844 135.859375 234.488281 136.632812 233.597656 137.363281 C 232.703125 138.09375 231.78125 138.777344 230.820312 139.417969 C 229.863281 140.058594 228.875 140.648438 227.859375 141.191406 C 226.839844 141.734375 225.800781 142.226562 224.734375 142.667969 C 223.671875 143.109375 222.585938 143.496094 221.484375 143.832031 C 220.378906 144.164062 219.261719 144.445312 218.132812 144.667969 C 217 144.894531 215.863281 145.0625 214.714844 145.175781 C 213.566406 145.289062 212.417969 145.34375 211.265625 145.34375 C 210.113281 145.34375 208.960938 145.289062 207.816406 145.175781 C 206.667969 145.0625 205.527344 144.894531 204.398438 144.667969 C 203.265625 144.445312 202.148438 144.164062 201.046875 143.832031 C 199.945312 143.496094 198.859375 143.109375 197.792969 142.667969 C 196.730469 142.226562 195.6875 141.734375 194.671875 141.191406 C 193.65625 140.648438 192.667969 140.058594 191.707031 139.417969 C 190.75 138.777344 189.824219 138.09375 188.933594 137.363281 C 188.042969 136.632812 187.191406 135.859375 186.375 135.042969 C 185.558594 134.230469 184.785156 133.378906 184.054688 132.488281 C 183.324219 131.597656 182.636719 130.671875 181.996094 129.714844 C 181.355469 128.757812 180.765625 127.769531 180.222656 126.753906 C 179.675781 125.738281 179.183594 124.699219 178.742188 123.636719 C 178.300781 122.570312 177.914062 121.488281 177.578125 120.386719 C 177.246094 119.285156 176.964844 118.167969 176.742188 117.039062 C 176.515625 115.910156 176.347656 114.769531 176.234375 113.625 C 176.121094 112.476562 176.0625 111.328125 176.0625 110.175781 C 176.0625 109.023438 176.121094 107.875 176.234375 106.730469 C 176.347656 105.582031 176.515625 104.445312 176.742188 103.316406 C 176.964844 102.1875 177.246094 101.070312 177.578125 99.96875 C 177.914062 98.867188 178.300781 97.78125 178.742188 96.71875 C 179.183594 95.65625 179.675781 94.613281 180.222656 93.597656 C 180.765625 92.582031 181.355469 91.597656 181.996094 90.640625 C 182.636719 89.679688 183.324219 88.757812 184.054688 87.867188 C 184.785156 86.976562 185.558594 86.125 186.375 85.308594 C 187.191406 84.496094 188.042969 83.722656 188.933594 82.992188 C 189.824219 82.261719 190.75 81.574219 191.707031 80.9375 C 192.667969 80.296875 193.65625 79.703125 194.671875 79.160156 C 195.6875 78.617188 196.730469 78.128906 197.792969 77.6875 C 198.859375 77.246094 199.945312 76.859375 201.046875 76.523438 C 202.148438 76.1875 203.265625 75.910156 204.398438 75.683594 C 205.527344 75.460938 206.667969 75.292969 207.816406 75.179688 C 208.960938 75.066406 210.113281 75.007812 211.265625 75.007812 C 212.417969 75.007812 213.566406 75.066406 214.714844 75.179688 C 215.863281 75.292969 217 75.460938 218.132812 75.683594 C 219.261719 75.910156 220.378906 76.1875 221.484375 76.523438 C 222.585938 76.859375 223.671875 77.246094 224.734375 77.6875 C 225.800781 78.128906 226.839844 78.617188 227.859375 79.160156 C 228.875 79.703125 229.863281 80.296875 230.820312 80.9375 C 231.78125 81.574219 232.703125 82.261719 233.597656 82.992188 C 234.488281 83.722656 235.339844 84.496094 236.15625 85.308594 C 236.96875 86.125 237.742188 86.976562 238.476562 87.867188 C 239.207031 88.757812 239.890625 89.679688 240.53125 90.640625 C 241.171875 91.597656 241.765625 92.582031 242.308594 93.597656 C 242.851562 94.613281 243.34375 95.65625 243.785156 96.71875 C 244.226562 97.78125 244.613281 98.867188 244.949219 99.96875 C 245.285156 101.070312 245.5625 102.1875 245.789062 103.316406 C 246.015625 104.445312 246.183594 105.582031 246.296875 106.730469 C 246.410156 107.875 246.464844 109.023438 246.464844 110.175781 Z M 246.464844 110.175781 " fill-opacity="1" fill-rule="nonzero"/></g><g clip-path="url(#e593821d13)"><path fill="#000000" d="M 357.699219 110.175781 C 357.699219 111.328125 357.640625 112.476562 357.53125 113.625 C 357.417969 114.769531 357.246094 115.910156 357.023438 117.039062 C 356.796875 118.167969 356.519531 119.285156 356.183594 120.386719 C 355.847656 121.488281 355.460938 122.570312 355.019531 123.636719 C 354.578125 124.699219 354.085938 125.738281 353.542969 126.753906 C 353 127.769531 352.40625 128.757812 351.765625 129.714844 C 351.125 130.671875 350.441406 131.597656 349.707031 132.488281 C 348.976562 133.378906 348.203125 134.230469 347.390625 135.042969 C 346.574219 135.859375 345.71875 136.632812 344.828125 137.363281 C 343.9375 138.09375 343.011719 138.777344 342.054688 139.417969 C 341.097656 140.058594 340.109375 140.648438 339.089844 141.191406 C 338.074219 141.734375 337.035156 142.226562 335.96875 142.667969 C 334.902344 143.109375 333.820312 143.496094 332.714844 143.832031 C 331.613281 144.164062 330.496094 144.445312 329.367188 144.667969 C 328.234375 144.894531 327.097656 145.0625 325.949219 145.175781 C 324.800781 145.289062 323.652344 145.34375 322.5 145.34375 C 321.34375 145.34375 320.195312 145.289062 319.046875 145.175781 C 317.902344 145.0625 316.761719 144.894531 315.632812 144.667969 C 314.5 144.445312 313.382812 144.164062 312.28125 143.832031 C 311.175781 143.496094 310.09375 143.109375 309.027344 142.667969 C 307.960938 142.226562 306.921875 141.734375 305.90625 141.191406 C 304.886719 140.648438 303.902344 140.058594 302.941406 139.417969 C 301.984375 138.777344 301.058594 138.09375 300.167969 137.363281 C 299.277344 136.632812 298.421875 135.859375 297.609375 135.042969 C 296.792969 134.230469 296.019531 133.378906 295.289062 132.488281 C 294.554688 131.597656 293.871094 130.671875 293.230469 129.714844 C 292.589844 128.757812 291.996094 127.769531 291.453125 126.753906 C 290.910156 125.738281 290.417969 124.699219 289.976562 123.636719 C 289.535156 122.570312 289.148438 121.488281 288.8125 120.386719 C 288.480469 119.285156 288.199219 118.167969 287.972656 117.039062 C 287.75 115.910156 287.582031 114.769531 287.46875 113.625 C 287.355469 112.476562 287.296875 111.328125 287.296875 110.175781 C 287.296875 109.023438 287.355469 107.875 287.46875 106.730469 C 287.582031 105.582031 287.75 104.445312 287.972656 103.316406 C 288.199219 102.1875 288.480469 101.070312 288.8125 99.96875 C 289.148438 98.867188 289.535156 97.78125 289.976562 96.71875 C 290.417969 95.65625 290.910156 94.613281 291.453125 93.597656 C 291.996094 92.582031 292.589844 91.597656 293.230469 90.640625 C 293.871094 89.679688 294.554688 88.757812 295.289062 87.867188 C 296.019531 86.976562 296.792969 86.125 297.609375 85.308594 C 298.421875 84.496094 299.277344 83.722656 300.167969 82.992188 C 301.058594 82.261719 301.984375 81.574219 302.941406 80.9375 C 303.902344 80.296875 304.886719 79.703125 305.90625 79.160156 C 306.921875 78.617188 307.960938 78.128906 309.027344 77.6875 C 310.09375 77.246094 311.175781 76.859375 312.28125 76.523438 C 313.382812 76.1875 314.5 75.910156 315.632812 75.683594 C 316.761719 75.460938 317.902344 75.292969 319.046875 75.179688 C 320.195312 75.066406 321.34375 75.007812 322.5 75.007812 C 323.652344 75.007812 324.800781 75.066406 325.949219 75.179688 C 327.097656 75.292969 328.234375 75.460938 329.367188 75.683594 C 330.496094 75.910156 331.613281 76.1875 332.714844 76.523438 C 333.820312 76.859375 334.902344 77.246094 335.96875 77.6875 C 337.035156 78.128906 338.074219 78.617188 339.089844 79.160156 C 340.109375 79.703125 341.097656 80.296875 342.054688 80.9375 C 343.011719 81.574219 343.9375 82.261719 344.828125 82.992188 C 345.71875 83.722656 346.574219 84.496094 347.390625 85.308594 C 348.203125 86.125 348.976562 86.976562 349.707031 87.867188 C 350.441406 88.757812 351.125 89.679688 351.765625 90.640625 C 352.40625 91.597656 353 92.582031 353.542969 93.597656 C 354.085938 94.613281 354.578125 95.65625 355.019531 96.71875 C 355.460938 97.78125 355.847656 98.867188 356.183594 99.96875 C 356.519531 101.070312 356.796875 102.1875 357.023438 103.316406 C 357.246094 104.445312 357.417969 105.582031 357.53125 106.730469 C 357.640625 107.875 357.699219 109.023438 357.699219 110.175781 Z M 357.699219 110.175781 " fill-opacity="1" fill-rule="nonzero"/></g><path fill="#000000" d="M 310.015625 244.003906 C 310.015625 245.386719 309.949219 246.765625 309.8125 248.140625 C 309.675781 249.515625 309.472656 250.882812 309.203125 252.238281 C 308.933594 253.59375 308.597656 254.933594 308.199219 256.253906 C 307.796875 257.578125 307.332031 258.878906 306.800781 260.152344 C 306.269531 261.429688 305.679688 262.679688 305.027344 263.898438 C 304.375 265.117188 303.667969 266.300781 302.898438 267.449219 C 302.128906 268.597656 301.304688 269.707031 300.429688 270.777344 C 299.550781 271.84375 298.621094 272.867188 297.644531 273.84375 C 296.667969 274.824219 295.640625 275.75 294.574219 276.625 C 293.503906 277.503906 292.394531 278.324219 291.242188 279.09375 C 290.09375 279.859375 288.90625 280.570312 287.6875 281.222656 C 286.46875 281.875 285.21875 282.464844 283.941406 282.992188 C 282.664062 283.523438 281.363281 283.988281 280.039062 284.386719 C 278.714844 284.789062 277.375 285.125 276.015625 285.394531 C 274.660156 285.664062 273.292969 285.867188 271.914062 286.003906 C 270.539062 286.136719 269.160156 286.207031 267.777344 286.207031 C 266.390625 286.207031 265.011719 286.136719 263.636719 286.003906 C 262.257812 285.867188 260.890625 285.664062 259.535156 285.394531 C 258.179688 285.125 256.835938 284.789062 255.515625 284.386719 C 254.191406 283.988281 252.890625 283.523438 251.609375 282.992188 C 250.332031 282.464844 249.082031 281.875 247.863281 281.222656 C 246.644531 280.570312 245.457031 279.859375 244.308594 279.09375 C 243.15625 278.324219 242.046875 277.503906 240.980469 276.625 C 239.910156 275.75 238.886719 274.824219 237.90625 273.84375 C 236.929688 272.867188 236 271.84375 235.125 270.777344 C 234.246094 269.707031 233.421875 268.597656 232.652344 267.449219 C 231.886719 266.300781 231.175781 265.117188 230.523438 263.898438 C 229.871094 262.679688 229.28125 261.429688 228.75 260.152344 C 228.222656 258.878906 227.753906 257.578125 227.355469 256.253906 C 226.953125 254.933594 226.617188 253.59375 226.347656 252.238281 C 226.078125 250.882812 225.875 249.515625 225.738281 248.140625 C 225.601562 246.765625 225.535156 245.386719 225.535156 244.003906 C 225.535156 242.621094 225.601562 241.242188 225.738281 239.867188 C 225.875 238.492188 226.078125 237.125 226.347656 235.769531 C 226.617188 234.414062 226.953125 233.078125 227.355469 231.753906 C 227.753906 230.429688 228.222656 229.132812 228.75 227.855469 C 229.28125 226.578125 229.871094 225.328125 230.523438 224.109375 C 231.175781 222.890625 231.886719 221.707031 232.652344 220.558594 C 233.421875 219.410156 234.246094 218.300781 235.125 217.230469 C 236 216.164062 236.929688 215.140625 237.90625 214.164062 C 238.886719 213.1875 239.910156 212.257812 240.980469 211.382812 C 242.046875 210.503906 243.15625 209.683594 244.308594 208.914062 C 245.457031 208.148438 246.644531 207.4375 247.863281 206.785156 C 249.082031 206.132812 250.332031 205.542969 251.609375 205.015625 C 252.890625 204.488281 254.191406 204.019531 255.515625 203.621094 C 256.835938 203.21875 258.179688 202.882812 259.535156 202.613281 C 260.890625 202.34375 262.257812 202.140625 263.636719 202.007812 C 265.011719 201.871094 266.390625 201.804688 267.777344 201.804688 C 269.160156 201.804688 270.539062 201.871094 271.914062 202.007812 C 273.292969 202.140625 274.660156 202.34375 276.015625 202.613281 C 277.375 202.882812 278.714844 203.21875 280.039062 203.621094 C 281.363281 204.019531 282.664062 204.488281 283.941406 205.015625 C 285.21875 205.542969 286.46875 206.132812 287.6875 206.785156 C 288.90625 207.4375 290.09375 208.148438 291.242188 208.914062 C 292.394531 209.683594 293.503906 210.503906 294.574219 211.382812 C 295.640625 212.257812 296.667969 213.1875 297.644531 214.164062 C 298.621094 215.140625 299.550781 216.164062 300.429688 217.230469 C 301.304688 218.300781 302.128906 219.410156 302.898438 220.558594 C 303.667969 221.707031 304.375 222.890625 305.027344 224.109375 C 305.679688 225.328125 306.269531 226.578125 306.800781 227.855469 C 307.332031 229.132812 307.796875 230.429688 308.199219 231.753906 C 308.597656 233.078125 308.933594 234.414062 309.203125 235.769531 C 309.472656 237.125 309.675781 238.492188 309.8125 239.867188 C 309.949219 241.242188 310.015625 242.621094 310.015625 244.003906 Z M 310.015625 244.003906 " fill-opacity="1" fill-rule="nonzero"/><g clip-path="url(#8fa1ea06c9)"><path fill="#000000" d="M 267.777344 398.742188 C 224.4375 398.742188 208.863281 388.007812 207.230469 386.785156 C 205.457031 385.464844 204.414062 383.375 204.414062 381.160156 L 204.414062 356.539062 C 204.414062 321.632812 232.84375 293.238281 267.777344 293.238281 C 302.714844 293.238281 331.136719 321.632812 331.136719 356.539062 L 331.136719 381.160156 C 331.136719 383.367188 330.09375 385.457031 328.320312 386.785156 C 326.695312 388.007812 311.113281 398.742188 267.777344 398.742188 Z M 267.777344 398.742188 " fill-opacity="1" fill-rule="nonzero"/></g><g clip-path="url(#30ebc1fd2b)"><path fill="#000000" d="M 216.355469 298.851562 C 209.484375 271.328125 184.589844 250.847656 154.945312 250.847656 C 120.011719 250.847656 91.582031 279.242188 91.582031 314.148438 L 91.582031 338.765625 C 91.582031 340.976562 92.625 343.066406 94.398438 344.394531 C 96.03125 345.617188 111.605469 356.351562 154.945312 356.351562 C 169.960938 356.351562 181.578125 355.050781 190.503906 353.3125 C 191.398438 331.683594 201.191406 312.355469 216.355469 298.851562 Z M 216.355469 298.851562 " fill-opacity="1" fill-rule="nonzero"/></g><g clip-path="url(#ba191c92c1)"><path fill="#000000" d="M 380.226562 250.847656 C 350.679688 250.847656 325.863281 271.1875 318.886719 298.570312 C 334.25 312.101562 344.175781 331.578125 345.0625 353.390625 C 353.9375 355.085938 365.429688 356.351562 380.226562 356.351562 C 423.558594 356.351562 439.140625 345.617188 440.773438 344.394531 C 442.546875 343.070312 443.589844 340.984375 443.589844 338.765625 L 443.589844 314.148438 C 443.589844 279.242188 415.167969 250.847656 380.226562 250.847656 Z M 380.226562 250.847656 " fill-opacity="1" fill-rule="nonzero"/></g><path fill="#000000" d="M 422.65625 201.804688 C 422.65625 203.183594 422.589844 204.5625 422.453125 205.941406 C 422.320312 207.316406 422.117188 208.679688 421.847656 210.035156 C 421.578125 211.390625 421.242188 212.730469 420.839844 214.054688 C 420.4375 215.375 419.972656 216.675781 419.441406 217.953125 C 418.914062 219.230469 418.320312 220.476562 417.671875 221.695312 C 417.019531 222.914062 416.308594 224.097656 415.539062 225.25 C 414.769531 226.398438 413.949219 227.507812 413.070312 228.574219 C 412.191406 229.644531 411.265625 230.667969 410.285156 231.644531 C 409.308594 232.621094 408.285156 233.546875 407.214844 234.425781 C 406.144531 235.300781 405.035156 236.125 403.886719 236.890625 C 402.734375 237.660156 401.550781 238.371094 400.328125 239.019531 C 399.109375 239.671875 397.859375 240.261719 396.582031 240.792969 C 395.304688 241.320312 394.003906 241.785156 392.679688 242.1875 C 391.355469 242.589844 390.015625 242.921875 388.65625 243.195312 C 387.300781 243.464844 385.933594 243.664062 384.558594 243.800781 C 383.179688 243.9375 381.800781 244.003906 380.417969 244.003906 C 379.035156 244.003906 377.652344 243.9375 376.277344 243.800781 C 374.898438 243.664062 373.535156 243.464844 372.175781 243.195312 C 370.820312 242.921875 369.480469 242.589844 368.15625 242.1875 C 366.832031 241.785156 365.53125 241.320312 364.253906 240.792969 C 362.972656 240.261719 361.726562 239.671875 360.503906 239.019531 C 359.285156 238.371094 358.101562 237.660156 356.949219 236.890625 C 355.800781 236.125 354.691406 235.300781 353.621094 234.425781 C 352.550781 233.546875 351.527344 232.621094 350.546875 231.644531 C 349.570312 230.667969 348.640625 229.644531 347.765625 228.574219 C 346.886719 227.507812 346.0625 226.398438 345.296875 225.25 C 344.527344 224.097656 343.816406 222.914062 343.164062 221.695312 C 342.511719 220.476562 341.921875 219.230469 341.390625 217.953125 C 340.863281 216.675781 340.398438 215.375 339.996094 214.054688 C 339.59375 212.730469 339.257812 211.390625 338.988281 210.035156 C 338.71875 208.679688 338.515625 207.316406 338.378906 205.941406 C 338.246094 204.5625 338.175781 203.183594 338.175781 201.804688 C 338.175781 200.421875 338.246094 199.042969 338.378906 197.667969 C 338.515625 196.292969 338.71875 194.925781 338.988281 193.570312 C 339.257812 192.214844 339.59375 190.875 339.996094 189.550781 C 340.398438 188.230469 340.863281 186.929688 341.390625 185.652344 C 341.921875 184.375 342.511719 183.128906 343.164062 181.910156 C 343.816406 180.691406 344.527344 179.507812 345.296875 178.355469 C 346.0625 177.207031 346.886719 176.097656 347.765625 175.03125 C 348.640625 173.960938 349.570312 172.941406 350.546875 171.960938 C 351.527344 170.984375 352.550781 170.058594 353.621094 169.179688 C 354.691406 168.304688 355.800781 167.480469 356.949219 166.714844 C 358.101562 165.945312 359.285156 165.238281 360.503906 164.585938 C 361.726562 163.933594 362.972656 163.34375 364.253906 162.8125 C 365.53125 162.285156 366.832031 161.820312 368.15625 161.417969 C 369.480469 161.019531 370.820312 160.683594 372.175781 160.414062 C 373.535156 160.144531 374.898438 159.941406 376.277344 159.804688 C 377.652344 159.667969 379.035156 159.601562 380.417969 159.601562 C 381.800781 159.601562 383.179688 159.667969 384.558594 159.804688 C 385.933594 159.941406 387.300781 160.144531 388.65625 160.414062 C 390.015625 160.683594 391.355469 161.019531 392.679688 161.417969 C 394.003906 161.820312 395.304688 162.285156 396.582031 162.8125 C 397.859375 163.34375 399.109375 163.933594 400.328125 164.585938 C 401.550781 165.238281 402.734375 165.945312 403.886719 166.714844 C 405.035156 167.480469 406.144531 168.304688 407.214844 169.179688 C 408.285156 170.058594 409.308594 170.984375 410.285156 171.960938 C 411.265625 172.941406 412.191406 173.960938 413.070312 175.03125 C 413.949219 176.097656 414.769531 177.207031 415.539062 178.355469 C 416.308594 179.507812 417.019531 180.691406 417.671875 181.910156 C 418.320312 183.128906 418.914062 184.375 419.441406 185.652344 C 419.972656 186.929688 420.4375 188.230469 420.839844 189.550781 C 421.242188 190.875 421.578125 192.214844 421.847656 193.570312 C 422.117188 194.925781 422.320312 196.292969 422.453125 197.667969 C 422.589844 199.042969 422.65625 200.421875 422.65625 201.804688 Z M 422.65625 201.804688 " fill-opacity="1" fill-rule="nonzero"/><path fill="#000000" d="M 197.375 201.804688 C 197.375 203.183594 197.308594 204.5625 197.171875 205.941406 C 197.035156 207.316406 196.832031 208.679688 196.5625 210.035156 C 196.292969 211.390625 195.957031 212.730469 195.554688 214.054688 C 195.152344 215.375 194.6875 216.675781 194.160156 217.953125 C 193.628906 219.230469 193.039062 220.476562 192.386719 221.695312 C 191.734375 222.914062 191.023438 224.097656 190.257812 225.25 C 189.488281 226.398438 188.664062 227.507812 187.785156 228.574219 C 186.910156 229.644531 185.980469 230.667969 185.003906 231.644531 C 184.023438 232.621094 183 233.546875 181.929688 234.425781 C 180.863281 235.300781 179.753906 236.125 178.601562 236.890625 C 177.453125 237.660156 176.265625 238.371094 175.046875 239.019531 C 173.824219 239.671875 172.578125 240.261719 171.300781 240.792969 C 170.019531 241.320312 168.71875 241.785156 167.394531 242.1875 C 166.070312 242.589844 164.730469 242.921875 163.375 243.195312 C 162.019531 243.464844 160.652344 243.664062 159.273438 243.800781 C 157.898438 243.9375 156.515625 244.003906 155.132812 244.003906 C 153.75 244.003906 152.371094 243.9375 150.992188 243.800781 C 149.617188 243.664062 148.25 243.464844 146.894531 243.195312 C 145.535156 242.921875 144.195312 242.589844 142.871094 242.1875 C 141.546875 241.785156 140.246094 241.320312 138.96875 240.792969 C 137.691406 240.261719 136.441406 239.671875 135.222656 239.019531 C 134.003906 238.371094 132.816406 237.660156 131.667969 236.890625 C 130.515625 236.125 129.40625 235.300781 128.335938 234.425781 C 127.265625 233.546875 126.242188 232.621094 125.265625 231.644531 C 124.289062 230.667969 123.359375 229.644531 122.480469 228.574219 C 121.605469 227.507812 120.78125 226.398438 120.011719 225.25 C 119.242188 224.097656 118.535156 222.914062 117.882812 221.695312 C 117.230469 220.476562 116.636719 219.230469 116.109375 217.953125 C 115.578125 216.675781 115.113281 215.375 114.710938 214.054688 C 114.3125 212.730469 113.976562 211.390625 113.707031 210.035156 C 113.433594 208.679688 113.234375 207.316406 113.097656 205.941406 C 112.960938 204.5625 112.894531 203.183594 112.894531 201.804688 C 112.894531 200.421875 112.960938 199.042969 113.097656 197.667969 C 113.234375 196.292969 113.433594 194.925781 113.707031 193.570312 C 113.976562 192.214844 114.3125 190.875 114.710938 189.550781 C 115.113281 188.230469 115.578125 186.929688 116.109375 185.652344 C 116.636719 184.375 117.230469 183.128906 117.882812 181.910156 C 118.535156 180.691406 119.242188 179.507812 120.011719 178.355469 C 120.78125 177.207031 121.605469 176.097656 122.480469 175.03125 C 123.359375 173.960938 124.289062 172.941406 125.265625 171.960938 C 126.242188 170.984375 127.265625 170.058594 128.335938 169.179688 C 129.40625 168.304688 130.515625 167.480469 131.667969 166.714844 C 132.816406 165.945312 134.003906 165.238281 135.222656 164.585938 C 136.441406 163.933594 137.691406 163.34375 138.96875 162.8125 C 140.246094 162.285156 141.546875 161.820312 142.871094 161.417969 C 144.195312 161.019531 145.535156 160.683594 146.894531 160.414062 C 148.25 160.144531 149.617188 159.941406 150.992188 159.804688 C 152.371094 159.667969 153.75 159.601562 155.132812 159.601562 C 156.515625 159.601562 157.898438 159.667969 159.273438 159.804688 C 160.652344 159.941406 162.019531 160.144531 163.375 160.414062 C 164.730469 160.683594 166.070312 161.019531 167.394531 161.417969 C 168.71875 161.820312 170.019531 162.285156 171.300781 162.8125 C 172.578125 163.34375 173.824219 163.933594 175.046875 164.585938 C 176.265625 165.238281 177.453125 165.945312 178.601562 166.714844 C 179.753906 167.480469 180.863281 168.304688 181.929688 169.179688 C 183 170.058594 184.023438 170.984375 185.003906 171.960938 C 185.980469 172.941406 186.910156 173.960938 187.785156 175.03125 C 188.664062 176.097656 189.488281 177.207031 190.257812 178.355469 C 191.023438 179.507812 191.734375 180.691406 192.386719 181.910156 C 193.039062 183.128906 193.628906 184.375 194.160156 185.652344 C 194.6875 186.929688 195.152344 188.230469 195.554688 189.550781 C 195.957031 190.875 196.292969 192.214844 196.5625 193.570312 C 196.832031 194.925781 197.035156 196.292969 197.171875 197.667969 C 197.308594 199.042969 197.375 200.421875 197.375 201.804688 Z M 197.375 201.804688 " fill-opacity="1" fill-rule="nonzero"/><path fill="#000000" d="M 324.097656 244.003906 C 324.097656 251.890625 322.457031 259.394531 319.511719 266.203125 C 326.378906 257.515625 335.042969 250.441406 344.859375 245.382812 C 332.199219 235.058594 324.105469 219.359375 324.105469 201.804688 C 324.105469 184.140625 332.304688 168.378906 345.082031 158.054688 C 338.351562 154.46875 330.757812 152.378906 322.5 152.378906 C 299.695312 152.378906 280.863281 167.457031 275.117188 188.269531 C 302.703125 191.886719 324.097656 215.46875 324.097656 244.003906 Z M 324.097656 244.003906 " fill-opacity="1" fill-rule="nonzero"/><path fill="#000000" d="M 211.453125 201.804688 C 211.453125 219.421875 203.289062 235.171875 190.554688 245.496094 C 200.804688 250.8125 209.757812 258.359375 216.726562 267.621094 C 213.375 260.433594 211.453125 252.445312 211.453125 244.003906 C 211.453125 216.058594 231.96875 192.878906 258.722656 188.53125 C 253.070312 167.585938 234.167969 152.378906 211.265625 152.378906 C 203.4375 152.378906 196.179688 154.234375 189.707031 157.484375 C 202.914062 167.789062 211.453125 183.804688 211.453125 201.804688 Z M 211.453125 201.804688 " fill-opacity="1" fill-rule="nonzero"/><g fill="#000000" fill-opacity="1"><g transform="translate(75.15674, 436.199928)"><g><path d="M 12.140625 -10.078125 L 11.640625 -10.078125 C 11.410156 -11.203125 11.097656 -11.914062 10.703125 -12.21875 C 10.316406 -12.53125 9.546875 -12.6875 8.390625 -12.6875 L 7.28125 -12.6875 L 7.28125 -2.234375 C 7.28125 -1.484375 7.394531 -1 7.625 -0.78125 C 7.863281 -0.5625 8.40625 -0.429688 9.25 -0.390625 L 9.25 0 L 3.28125 0 L 3.28125 -0.390625 C 4.125 -0.441406 4.65625 -0.578125 4.875 -0.796875 C 5.09375 -1.023438 5.203125 -1.578125 5.203125 -2.453125 L 5.203125 -12.6875 L 4.09375 -12.6875 C 2.945312 -12.6875 2.175781 -12.53125 1.78125 -12.21875 C 1.394531 -11.90625 1.082031 -11.191406 0.84375 -10.078125 L 0.34375 -10.078125 L 0.46875 -13.546875 L 12.015625 -13.546875 Z M 12.140625 -10.078125 "/></g></g></g><g fill="#000000" fill-opacity="1"><g transform="translate(87.662214, 436.199928)"><g><path d="M 9.96875 0 L 5.625 0 L 5.625 -0.3125 C 6.21875 -0.363281 6.597656 -0.5 6.765625 -0.71875 C 6.929688 -0.9375 7.015625 -1.394531 7.015625 -2.09375 L 7.015625 -6.140625 C 7.015625 -7.585938 6.503906 -8.3125 5.484375 -8.3125 C 5.085938 -8.3125 4.710938 -8.210938 4.359375 -8.015625 C 4.015625 -7.816406 3.632812 -7.484375 3.21875 -7.015625 L 3.21875 -2.09375 C 3.21875 -1.375 3.296875 -0.910156 3.453125 -0.703125 C 3.617188 -0.503906 4.003906 -0.375 4.609375 -0.3125 L 4.609375 0 L 0.1875 0 L 0.1875 -0.3125 C 0.769531 -0.394531 1.132812 -0.53125 1.28125 -0.71875 C 1.425781 -0.90625 1.5 -1.363281 1.5 -2.09375 L 1.5 -11.734375 C 1.5 -12.171875 1.429688 -12.453125 1.296875 -12.578125 C 1.171875 -12.703125 0.890625 -12.765625 0.453125 -12.765625 C 0.335938 -12.765625 0.253906 -12.757812 0.203125 -12.75 L 0.203125 -13.078125 L 0.75 -13.25 C 1.6875 -13.5 2.472656 -13.742188 3.109375 -13.984375 L 3.21875 -13.921875 L 3.21875 -7.703125 C 3.695312 -8.316406 4.164062 -8.753906 4.625 -9.015625 C 5.09375 -9.285156 5.625 -9.421875 6.21875 -9.421875 C 7.894531 -9.421875 8.734375 -8.332031 8.734375 -6.15625 L 8.734375 -2.09375 C 8.734375 -1.375 8.796875 -0.921875 8.921875 -0.734375 C 9.054688 -0.554688 9.40625 -0.414062 9.96875 -0.3125 Z M 9.96875 0 "/></g></g></g><g fill="#000000" fill-opacity="1"><g transform="translate(97.895822, 436.199928)"><g><path d="M 8.671875 -3.21875 C 7.785156 -0.9375 6.34375 0.203125 4.34375 0.203125 C 3.164062 0.203125 2.234375 -0.207031 1.546875 -1.03125 C 0.859375 -1.851562 0.515625 -2.96875 0.515625 -4.375 C 0.515625 -5.863281 0.910156 -7.078125 1.703125 -8.015625 C 2.492188 -8.953125 3.523438 -9.421875 4.796875 -9.421875 C 5.878906 -9.421875 6.75 -9.03125 7.40625 -8.25 C 7.851562 -7.675781 8.148438 -6.816406 8.296875 -5.671875 L 1.984375 -5.671875 C 2.023438 -4.515625 2.226562 -3.570312 2.59375 -2.84375 C 3.1875 -1.75 4.046875 -1.203125 5.171875 -1.203125 C 5.828125 -1.203125 6.394531 -1.363281 6.875 -1.6875 C 7.363281 -2.019531 7.851562 -2.578125 8.34375 -3.359375 Z M 6.203125 -6.328125 C 6.066406 -7.210938 5.851562 -7.820312 5.5625 -8.15625 C 5.28125 -8.5 4.828125 -8.671875 4.203125 -8.671875 C 2.972656 -8.671875 2.25 -7.890625 2.03125 -6.328125 Z M 6.203125 -6.328125 "/></g></g></g><g fill="#000000" fill-opacity="1"><g transform="translate(106.983268, 436.199928)"><g><path d="M 9.71875 -8.90625 C 9.476562 -8.875 9.285156 -8.789062 9.140625 -8.65625 C 9.003906 -8.53125 8.867188 -8.304688 8.734375 -7.984375 L 5.59375 0.375 C 5.039062 1.84375 4.492188 2.890625 3.953125 3.515625 C 3.421875 4.148438 2.8125 4.46875 2.125 4.46875 C 1.6875 4.46875 1.320312 4.351562 1.03125 4.125 C 0.75 3.894531 0.609375 3.613281 0.609375 3.28125 C 0.609375 3.03125 0.695312 2.816406 0.875 2.640625 C 1.050781 2.460938 1.257812 2.375 1.5 2.375 C 1.8125 2.375 2.171875 2.445312 2.578125 2.59375 C 2.765625 2.695312 2.929688 2.75 3.078125 2.75 C 3.234375 2.75 3.410156 2.65625 3.609375 2.46875 C 3.804688 2.289062 3.972656 2.078125 4.109375 1.828125 C 4.285156 1.523438 4.46875 1.117188 4.65625 0.609375 C 4.84375 0.0976562 4.9375 -0.234375 4.9375 -0.390625 C 4.9375 -0.523438 4.859375 -0.773438 4.703125 -1.140625 L 1.328125 -8.265625 C 1.160156 -8.617188 0.8125 -8.835938 0.28125 -8.921875 L 0.28125 -9.203125 L 4.5 -9.203125 L 4.5 -8.90625 C 4.0625 -8.894531 3.753906 -8.847656 3.578125 -8.765625 C 3.398438 -8.679688 3.3125 -8.539062 3.3125 -8.34375 C 3.3125 -8.144531 3.378906 -7.890625 3.515625 -7.578125 L 5.875 -2.390625 L 7.859375 -8.046875 C 7.910156 -8.171875 7.9375 -8.285156 7.9375 -8.390625 C 7.9375 -8.734375 7.609375 -8.90625 6.953125 -8.90625 L 6.953125 -9.203125 L 9.71875 -9.203125 Z M 9.71875 -8.90625 "/></g></g></g><g fill="#000000" fill-opacity="1"><g transform="translate(117.216875, 436.199928)"><g/></g></g><g fill="#000000" fill-opacity="1"><g transform="translate(122.333679, 436.199928)"><g><path d="M 7.125 -2.421875 C 7.125 -1.703125 6.835938 -1.082031 6.265625 -0.5625 C 5.703125 -0.0507812 5.03125 0.203125 4.25 0.203125 C 3.882812 0.203125 3.382812 0.132812 2.75 0 C 2.3125 -0.101562 1.992188 -0.15625 1.796875 -0.15625 C 1.597656 -0.15625 1.441406 -0.078125 1.328125 0.078125 L 1.0625 0.078125 L 1.0625 -3.109375 L 1.390625 -3.109375 C 1.617188 -2.078125 1.929688 -1.34375 2.328125 -0.90625 C 2.722656 -0.46875 3.273438 -0.25 3.984375 -0.25 C 4.503906 -0.25 4.914062 -0.378906 5.21875 -0.640625 C 5.53125 -0.910156 5.6875 -1.269531 5.6875 -1.71875 C 5.6875 -2.332031 5.332031 -2.84375 4.625 -3.25 L 3.4375 -3.9375 C 2.5625 -4.4375 1.941406 -4.90625 1.578125 -5.34375 C 1.222656 -5.789062 1.046875 -6.300781 1.046875 -6.875 C 1.046875 -7.625 1.304688 -8.226562 1.828125 -8.6875 C 2.359375 -9.15625 3.039062 -9.390625 3.875 -9.390625 C 4.375 -9.390625 4.835938 -9.3125 5.265625 -9.15625 C 5.460938 -9.050781 5.644531 -9 5.8125 -9 C 5.863281 -9 5.957031 -9.054688 6.09375 -9.171875 L 6.140625 -9.203125 L 6.359375 -9.203125 L 6.453125 -6.421875 L 6.140625 -6.421875 C 5.910156 -7.335938 5.625 -7.984375 5.28125 -8.359375 C 4.9375 -8.742188 4.472656 -8.9375 3.890625 -8.9375 C 3.410156 -8.9375 3.023438 -8.8125 2.734375 -8.5625 C 2.453125 -8.3125 2.3125 -7.972656 2.3125 -7.546875 C 2.3125 -6.960938 2.601562 -6.5 3.1875 -6.15625 L 5.40625 -4.84375 C 6.03125 -4.476562 6.472656 -4.109375 6.734375 -3.734375 C 6.992188 -3.367188 7.125 -2.929688 7.125 -2.421875 Z M 7.125 -2.421875 "/></g></g></g><g fill="#000000" fill-opacity="1"><g transform="translate(130.29543, 436.199928)"><g><path d="M 9.625 -5.0625 C 9.625 -3.570312 9.207031 -2.320312 8.375 -1.3125 C 7.550781 -0.300781 6.535156 0.203125 5.328125 0.203125 C 4.890625 0.203125 4.519531 0.140625 4.21875 0.015625 C 3.925781 -0.0976562 3.601562 -0.328125 3.25 -0.671875 L 3.25 2.53125 C 3.25 3.175781 3.359375 3.585938 3.578125 3.765625 C 3.796875 3.953125 4.289062 4.054688 5.0625 4.078125 L 5.0625 4.4375 L 0.109375 4.4375 L 0.109375 4.09375 C 0.703125 4.039062 1.085938 3.925781 1.265625 3.75 C 1.441406 3.570312 1.53125 3.21875 1.53125 2.6875 L 1.53125 -6.890625 C 1.53125 -7.367188 1.472656 -7.679688 1.359375 -7.828125 C 1.253906 -7.984375 1.035156 -8.0625 0.703125 -8.0625 C 0.484375 -8.0625 0.3125 -8.054688 0.1875 -8.046875 L 0.1875 -8.375 C 1.039062 -8.632812 2.019531 -8.984375 3.125 -9.421875 L 3.25 -9.375 L 3.25 -7.796875 C 4.125 -8.878906 5.109375 -9.421875 6.203125 -9.421875 C 7.203125 -9.421875 8.019531 -9.007812 8.65625 -8.1875 C 9.300781 -7.363281 9.625 -6.320312 9.625 -5.0625 Z M 7.859375 -4.25 C 7.859375 -5.4375 7.628906 -6.390625 7.171875 -7.109375 C 6.710938 -7.828125 6.101562 -8.1875 5.34375 -8.1875 C 4.863281 -8.1875 4.394531 -8.035156 3.9375 -7.734375 C 3.476562 -7.429688 3.25 -7.132812 3.25 -6.84375 L 3.25 -1.796875 C 3.25 -1.492188 3.484375 -1.191406 3.953125 -0.890625 C 4.429688 -0.597656 4.910156 -0.453125 5.390625 -0.453125 C 6.117188 -0.453125 6.710938 -0.800781 7.171875 -1.5 C 7.628906 -2.207031 7.859375 -3.125 7.859375 -4.25 Z M 7.859375 -4.25 "/></g></g></g><g fill="#000000" fill-opacity="1"><g transform="translate(140.529038, 436.199928)"><g><path d="M 8.671875 -3.21875 C 7.785156 -0.9375 6.34375 0.203125 4.34375 0.203125 C 3.164062 0.203125 2.234375 -0.207031 1.546875 -1.03125 C 0.859375 -1.851562 0.515625 -2.96875 0.515625 -4.375 C 0.515625 -5.863281 0.910156 -7.078125 1.703125 -8.015625 C 2.492188 -8.953125 3.523438 -9.421875 4.796875 -9.421875 C 5.878906 -9.421875 6.75 -9.03125 7.40625 -8.25 C 7.851562 -7.675781 8.148438 -6.816406 8.296875 -5.671875 L 1.984375 -5.671875 C 2.023438 -4.515625 2.226562 -3.570312 2.59375 -2.84375 C 3.1875 -1.75 4.046875 -1.203125 5.171875 -1.203125 C 5.828125 -1.203125 6.394531 -1.363281 6.875 -1.6875 C 7.363281 -2.019531 7.851562 -2.578125 8.34375 -3.359375 Z M 6.203125 -6.328125 C 6.066406 -7.210938 5.851562 -7.820312 5.5625 -8.15625 C 5.28125 -8.5 4.828125 -8.671875 4.203125 -8.671875 C 2.972656 -8.671875 2.25 -7.890625 2.03125 -6.328125 Z M 6.203125 -6.328125 "/></g></g></g><g fill="#000000" fill-opacity="1"><g transform="translate(149.616484, 436.199928)"><g><path d="M 9.921875 0 L 5.671875 0 L 5.671875 -0.3125 C 6.191406 -0.351562 6.535156 -0.488281 6.703125 -0.71875 C 6.867188 -0.945312 6.953125 -1.382812 6.953125 -2.03125 L 6.953125 -6.296875 C 6.953125 -7.628906 6.457031 -8.296875 5.46875 -8.296875 C 5.125 -8.296875 4.804688 -8.210938 4.515625 -8.046875 C 4.234375 -7.890625 3.847656 -7.582031 3.359375 -7.125 L 3.359375 -1.375 C 3.359375 -1 3.453125 -0.738281 3.640625 -0.59375 C 3.835938 -0.445312 4.191406 -0.351562 4.703125 -0.3125 L 4.703125 0 L 0.375 0 L 0.375 -0.3125 C 0.882812 -0.351562 1.222656 -0.472656 1.390625 -0.671875 C 1.554688 -0.867188 1.640625 -1.257812 1.640625 -1.84375 L 1.640625 -6.921875 C 1.640625 -7.421875 1.582031 -7.765625 1.46875 -7.953125 C 1.363281 -8.140625 1.164062 -8.234375 0.875 -8.234375 C 0.613281 -8.234375 0.429688 -8.203125 0.328125 -8.140625 L 0.328125 -8.5 C 1.335938 -8.789062 2.28125 -9.097656 3.15625 -9.421875 L 3.296875 -9.375 L 3.296875 -7.75 C 3.992188 -8.40625 4.539062 -8.847656 4.9375 -9.078125 C 5.34375 -9.304688 5.785156 -9.421875 6.265625 -9.421875 C 7.015625 -9.421875 7.601562 -9.148438 8.03125 -8.609375 C 8.457031 -8.066406 8.671875 -7.3125 8.671875 -6.34375 L 8.671875 -1.65625 C 8.671875 -1.15625 8.753906 -0.816406 8.921875 -0.640625 C 9.085938 -0.472656 9.421875 -0.363281 9.921875 -0.3125 Z M 9.921875 0 "/></g></g></g><g fill="#000000" fill-opacity="1"><g transform="translate(159.850091, 436.199928)"><g><path d="M 10.046875 -0.859375 L 7.046875 0.203125 L 6.953125 0.140625 L 6.953125 -1.171875 C 6.304688 -0.253906 5.4375 0.203125 4.34375 0.203125 C 3.207031 0.203125 2.289062 -0.203125 1.59375 -1.015625 C 0.894531 -1.828125 0.546875 -2.890625 0.546875 -4.203125 C 0.546875 -5.640625 0.960938 -6.867188 1.796875 -7.890625 C 2.628906 -8.910156 3.632812 -9.421875 4.8125 -9.421875 C 5.550781 -9.421875 6.265625 -9.125 6.953125 -8.53125 L 6.953125 -11.734375 C 6.953125 -12.148438 6.890625 -12.425781 6.765625 -12.5625 C 6.648438 -12.695312 6.398438 -12.765625 6.015625 -12.765625 C 5.828125 -12.765625 5.675781 -12.757812 5.5625 -12.75 L 5.5625 -13.078125 C 6.8125 -13.410156 7.816406 -13.710938 8.578125 -13.984375 L 8.671875 -13.9375 L 8.671875 -2.328125 C 8.671875 -1.847656 8.726562 -1.535156 8.84375 -1.390625 C 8.96875 -1.242188 9.210938 -1.171875 9.578125 -1.171875 C 9.648438 -1.171875 9.804688 -1.175781 10.046875 -1.1875 Z M 6.953125 -2.09375 L 6.953125 -6.796875 C 6.953125 -7.335938 6.738281 -7.8125 6.3125 -8.21875 C 5.894531 -8.632812 5.414062 -8.84375 4.875 -8.84375 C 4.09375 -8.84375 3.46875 -8.492188 3 -7.796875 C 2.539062 -7.097656 2.3125 -6.171875 2.3125 -5.015625 C 2.3125 -3.753906 2.570312 -2.742188 3.09375 -1.984375 C 3.613281 -1.234375 4.296875 -0.859375 5.140625 -0.859375 C 5.753906 -0.859375 6.242188 -1.0625 6.609375 -1.46875 C 6.835938 -1.726562 6.953125 -1.9375 6.953125 -2.09375 Z M 6.953125 -2.09375 "/></g></g></g><g fill="#000000" fill-opacity="1"><g transform="translate(170.083699, 436.199928)"><g/></g></g><g fill="#000000" fill-opacity="1"><g transform="translate(175.199622, 436.199928)"><g><path d="M 9.75 -2.046875 C 8.976562 -1.117188 8.410156 -0.507812 8.046875 -0.21875 C 7.691406 0.0625 7.304688 0.203125 6.890625 0.203125 C 6.347656 0.203125 6.078125 -0.078125 6.078125 -0.640625 C 6.078125 -0.972656 6.234375 -1.753906 6.546875 -2.984375 C 5.648438 -1.710938 4.921875 -0.859375 4.359375 -0.421875 C 3.796875 0.00390625 3.15625 0.21875 2.4375 0.21875 C 1.78125 0.21875 1.265625 0.0195312 0.890625 -0.375 C 0.523438 -0.78125 0.34375 -1.335938 0.34375 -2.046875 C 0.34375 -3.097656 0.640625 -4.171875 1.234375 -5.265625 C 1.828125 -6.367188 2.582031 -7.269531 3.5 -7.96875 C 4.414062 -8.675781 5.316406 -9.03125 6.203125 -9.03125 C 7.117188 -9.03125 7.664062 -8.632812 7.84375 -7.84375 L 8.0625 -8.828125 L 8.125 -8.890625 L 9.375 -9.03125 L 9.515625 -8.96875 C 9.503906 -8.914062 9.460938 -8.769531 9.390625 -8.53125 C 8.179688 -4.113281 7.578125 -1.640625 7.578125 -1.109375 C 7.578125 -0.929688 7.671875 -0.84375 7.859375 -0.84375 C 8.023438 -0.84375 8.378906 -1.117188 8.921875 -1.671875 L 9.5 -2.25 Z M 7.46875 -7.328125 C 7.46875 -7.679688 7.363281 -7.972656 7.15625 -8.203125 C 6.945312 -8.441406 6.671875 -8.566406 6.328125 -8.578125 C 5.453125 -8.640625 4.554688 -8.007812 3.640625 -6.6875 C 3.222656 -6.050781 2.851562 -5.296875 2.53125 -4.421875 C 2.21875 -3.554688 2.0625 -2.847656 2.0625 -2.296875 C 2.0625 -1.828125 2.164062 -1.457031 2.375 -1.1875 C 2.59375 -0.914062 2.882812 -0.78125 3.25 -0.78125 C 3.90625 -0.78125 4.5 -1.078125 5.03125 -1.671875 C 5.726562 -2.441406 6.304688 -3.359375 6.765625 -4.421875 C 7.234375 -5.492188 7.46875 -6.460938 7.46875 -7.328125 Z M 7.46875 -7.328125 "/></g></g></g><g fill="#000000" fill-opacity="1"><g transform="translate(185.43323, 436.199928)"><g/></g></g><g fill="#000000" fill-opacity="1"><g transform="translate(190.550033, 436.199928)"><g><path d="M 4.9375 -2.328125 C 4.269531 -1.347656 3.71875 -0.675781 3.28125 -0.3125 C 2.851562 0.0390625 2.375 0.21875 1.84375 0.21875 C 1.175781 0.21875 0.84375 -0.160156 0.84375 -0.921875 C 0.84375 -1.097656 0.867188 -1.273438 0.921875 -1.453125 L 3.71875 -12.265625 C 3.78125 -12.410156 3.8125 -12.53125 3.8125 -12.625 C 3.8125 -12.9375 3.460938 -13.09375 2.765625 -13.09375 L 2.421875 -13.09375 L 2.421875 -13.421875 C 3.398438 -13.546875 4.460938 -13.734375 5.609375 -13.984375 L 5.703125 -13.875 L 2.625 -2.03125 C 2.488281 -1.507812 2.421875 -1.171875 2.421875 -1.015625 C 2.421875 -0.773438 2.519531 -0.65625 2.71875 -0.65625 C 3.050781 -0.65625 3.523438 -1.046875 4.140625 -1.828125 C 4.335938 -2.097656 4.515625 -2.328125 4.671875 -2.515625 Z M 4.9375 -2.328125 "/></g></g></g><g fill="#000000" fill-opacity="1"><g transform="translate(196.239918, 436.199928)"><g><path d="M 9.578125 -6.15625 C 9.578125 -5.382812 9.382812 -4.59375 9 -3.78125 C 8.625 -2.96875 8.09375 -2.226562 7.40625 -1.5625 C 6.21875 -0.375 4.9375 0.21875 3.5625 0.21875 C 2.632812 0.21875 1.898438 -0.0351562 1.359375 -0.546875 C 0.816406 -1.054688 0.546875 -1.753906 0.546875 -2.640625 C 0.546875 -3.742188 0.890625 -4.832031 1.578125 -5.90625 C 2.273438 -6.988281 3.160156 -7.816406 4.234375 -8.390625 C 5.023438 -8.816406 5.832031 -9.03125 6.65625 -9.03125 C 7.53125 -9.03125 8.234375 -8.765625 8.765625 -8.234375 C 9.304688 -7.703125 9.578125 -7.007812 9.578125 -6.15625 Z M 7.859375 -6.671875 C 7.859375 -7.253906 7.722656 -7.71875 7.453125 -8.0625 C 7.191406 -8.414062 6.84375 -8.59375 6.40625 -8.59375 C 5.488281 -8.59375 4.613281 -7.972656 3.78125 -6.734375 C 2.769531 -5.191406 2.265625 -3.632812 2.265625 -2.0625 C 2.265625 -1.507812 2.410156 -1.0625 2.703125 -0.71875 C 3.003906 -0.375 3.394531 -0.203125 3.875 -0.203125 C 4.738281 -0.203125 5.5625 -0.765625 6.34375 -1.890625 C 6.78125 -2.554688 7.140625 -3.332031 7.421875 -4.21875 C 7.710938 -5.113281 7.859375 -5.929688 7.859375 -6.671875 Z M 7.859375 -6.671875 "/></g></g></g><g fill="#000000" fill-opacity="1"><g transform="translate(206.473525, 436.199928)"><g><path d="M 4.640625 -2.25 C 4.003906 -1.289062 3.476562 -0.640625 3.0625 -0.296875 C 2.65625 0.046875 2.210938 0.21875 1.734375 0.21875 C 1.460938 0.21875 1.226562 0.144531 1.03125 0 C 0.84375 -0.132812 0.75 -0.3125 0.75 -0.53125 C 0.75 -0.78125 0.867188 -1.285156 1.109375 -2.046875 L 2.703125 -8.109375 L 1.1875 -8.109375 L 1.171875 -8.234375 C 1.171875 -8.429688 1.390625 -8.597656 1.828125 -8.734375 C 2.148438 -8.816406 2.585938 -9.085938 3.140625 -9.546875 C 3.691406 -10.003906 4.160156 -10.484375 4.546875 -10.984375 C 4.648438 -11.109375 4.734375 -11.171875 4.796875 -11.171875 L 4.84375 -11.171875 L 5 -10.875 L 4.421875 -8.765625 L 6.0625 -8.765625 L 5.953125 -8.109375 L 4.234375 -8.109375 L 2.4375 -1.296875 C 2.382812 -1.148438 2.382812 -1.023438 2.4375 -0.921875 C 2.488281 -0.828125 2.582031 -0.78125 2.71875 -0.78125 C 2.882812 -0.78125 3.078125 -0.882812 3.296875 -1.09375 C 3.515625 -1.300781 3.875 -1.734375 4.375 -2.390625 Z M 4.640625 -2.25 "/></g></g></g><g fill="#000000" fill-opacity="1"><g transform="translate(212.15546, 436.199928)"><g/></g></g><g fill="#000000" fill-opacity="1"><g transform="translate(217.272263, 436.199928)"><g><path d="M 9.625 -4.796875 C 9.625 -3.367188 9.1875 -2.175781 8.3125 -1.21875 C 7.4375 -0.269531 6.359375 0.203125 5.078125 0.203125 C 3.796875 0.203125 2.726562 -0.253906 1.875 -1.171875 C 1.019531 -2.097656 0.59375 -3.25 0.59375 -4.625 C 0.59375 -6.03125 1.007812 -7.179688 1.84375 -8.078125 C 2.6875 -8.972656 3.773438 -9.421875 5.109375 -9.421875 C 6.421875 -9.421875 7.5 -8.984375 8.34375 -8.109375 C 9.195312 -7.234375 9.625 -6.128906 9.625 -4.796875 Z M 7.78125 -4.078125 C 7.78125 -5.484375 7.503906 -6.628906 6.953125 -7.515625 C 6.410156 -8.398438 5.707031 -8.84375 4.84375 -8.84375 C 4.125 -8.84375 3.539062 -8.546875 3.09375 -7.953125 C 2.65625 -7.367188 2.4375 -6.59375 2.4375 -5.625 C 2.4375 -4.113281 2.738281 -2.796875 3.34375 -1.671875 C 3.800781 -0.804688 4.460938 -0.375 5.328125 -0.375 C 6.085938 -0.375 6.6875 -0.695312 7.125 -1.34375 C 7.5625 -2 7.78125 -2.910156 7.78125 -4.078125 Z M 7.78125 -4.078125 "/></g></g></g><g fill="#000000" fill-opacity="1"><g transform="translate(227.505871, 436.199928)"><g><path d="M 7.84375 -12.71875 C 7.84375 -12.476562 7.757812 -12.273438 7.59375 -12.109375 C 7.425781 -11.953125 7.222656 -11.875 6.984375 -11.875 C 6.648438 -11.875 6.34375 -12.117188 6.0625 -12.609375 C 5.726562 -13.140625 5.363281 -13.40625 4.96875 -13.40625 C 4.195312 -13.40625 3.8125 -12.796875 3.8125 -11.578125 L 3.8125 -9.203125 L 6.328125 -9.203125 L 6.328125 -8.5625 L 3.828125 -8.5625 L 3.828125 -2.125 C 3.828125 -1.363281 3.9375 -0.875 4.15625 -0.65625 C 4.375 -0.445312 4.898438 -0.332031 5.734375 -0.3125 L 5.734375 0 L 0.40625 0 L 0.40625 -0.3125 C 1.144531 -0.351562 1.613281 -0.476562 1.8125 -0.6875 C 2.007812 -0.894531 2.109375 -1.375 2.109375 -2.125 L 2.109375 -8.5625 L 0.4375 -8.5625 L 0.4375 -9.203125 L 2.109375 -9.203125 C 2.117188 -10.023438 2.171875 -10.664062 2.265625 -11.125 C 2.367188 -11.582031 2.554688 -12.039062 2.828125 -12.5 C 3.398438 -13.488281 4.359375 -13.984375 5.703125 -13.984375 C 6.316406 -13.984375 6.828125 -13.863281 7.234375 -13.625 C 7.640625 -13.382812 7.84375 -13.082031 7.84375 -12.71875 Z M 7.84375 -12.71875 "/></g></g></g><g fill="#000000" fill-opacity="1"><g transform="translate(234.321461, 436.199928)"><g/></g></g><g fill="#000000" fill-opacity="1"><g transform="translate(239.438264, 436.199928)"><g><path d="M 5.703125 -1.34375 C 5.054688 -0.3125 4.234375 0.203125 3.234375 0.203125 C 2.035156 0.203125 1.4375 -0.660156 1.4375 -2.390625 L 1.4375 -8.5625 L 0.34375 -8.5625 C 0.289062 -8.601562 0.265625 -8.648438 0.265625 -8.703125 C 0.265625 -8.804688 0.378906 -8.9375 0.609375 -9.09375 C 1.171875 -9.414062 1.832031 -10.144531 2.59375 -11.28125 C 2.789062 -11.519531 2.929688 -11.707031 3.015625 -11.84375 C 3.109375 -11.84375 3.15625 -11.753906 3.15625 -11.578125 L 3.15625 -9.203125 L 5.21875 -9.203125 L 5.21875 -8.5625 L 3.15625 -8.5625 L 3.15625 -2.703125 C 3.15625 -2.046875 3.234375 -1.570312 3.390625 -1.28125 C 3.554688 -1 3.832031 -0.859375 4.21875 -0.859375 C 4.625 -0.859375 5.03125 -1.097656 5.4375 -1.578125 Z M 5.703125 -1.34375 "/></g></g></g><g fill="#000000" fill-opacity="1"><g transform="translate(245.128149, 436.199928)"><g><path d="M 5.171875 0 L 0.328125 0 L 0.328125 -0.3125 C 1.035156 -0.351562 1.476562 -0.472656 1.65625 -0.671875 C 1.84375 -0.878906 1.9375 -1.351562 1.9375 -2.09375 L 1.9375 -6.84375 C 1.9375 -7.289062 1.882812 -7.601562 1.78125 -7.78125 C 1.6875 -7.96875 1.515625 -8.0625 1.265625 -8.0625 C 1.046875 -8.0625 0.816406 -8.039062 0.578125 -8 L 0.40625 -7.984375 L 0.40625 -8.296875 L 3.578125 -9.421875 L 3.65625 -9.359375 L 3.65625 -2.09375 C 3.65625 -1.351562 3.738281 -0.882812 3.90625 -0.6875 C 4.082031 -0.488281 4.503906 -0.363281 5.171875 -0.3125 Z M 3.84375 -12.078125 C 3.84375 -11.773438 3.742188 -11.523438 3.546875 -11.328125 C 3.347656 -11.128906 3.097656 -11.03125 2.796875 -11.03125 C 2.515625 -11.03125 2.269531 -11.128906 2.0625 -11.328125 C 1.863281 -11.523438 1.765625 -11.773438 1.765625 -12.078125 C 1.765625 -12.359375 1.863281 -12.601562 2.0625 -12.8125 C 2.269531 -13.019531 2.515625 -13.125 2.796875 -13.125 C 3.097656 -13.125 3.347656 -13.019531 3.546875 -12.8125 C 3.742188 -12.601562 3.84375 -12.359375 3.84375 -12.078125 Z M 3.84375 -12.078125 "/></g></g></g><g fill="#000000" fill-opacity="1"><g transform="translate(250.818033, 436.199928)"><g><path d="M 15.859375 0 L 11.375 0 L 11.375 -0.3125 C 11.976562 -0.375 12.351562 -0.488281 12.5 -0.65625 C 12.65625 -0.820312 12.734375 -1.195312 12.734375 -1.78125 L 12.734375 -6.09375 C 12.734375 -6.945312 12.625 -7.535156 12.40625 -7.859375 C 12.1875 -8.179688 11.785156 -8.34375 11.203125 -8.34375 C 10.296875 -8.34375 9.550781 -7.929688 8.96875 -7.109375 L 8.96875 -1.9375 C 8.96875 -1.300781 9.066406 -0.875 9.265625 -0.65625 C 9.460938 -0.4375 9.851562 -0.320312 10.4375 -0.3125 L 10.4375 0 L 5.859375 0 L 5.859375 -0.3125 C 6.441406 -0.351562 6.816406 -0.460938 6.984375 -0.640625 C 7.160156 -0.816406 7.25 -1.191406 7.25 -1.765625 L 7.25 -6.203125 C 7.25 -7.628906 6.796875 -8.34375 5.890625 -8.34375 C 5.535156 -8.34375 5.160156 -8.265625 4.765625 -8.109375 C 4.367188 -7.953125 4.039062 -7.757812 3.78125 -7.53125 L 3.484375 -7.140625 L 3.484375 -1.375 C 3.484375 -0.976562 3.578125 -0.707031 3.765625 -0.5625 C 3.953125 -0.414062 4.320312 -0.332031 4.875 -0.3125 L 4.875 0 L 0.328125 0 L 0.328125 -0.3125 C 0.898438 -0.320312 1.28125 -0.421875 1.46875 -0.609375 C 1.664062 -0.804688 1.765625 -1.179688 1.765625 -1.734375 L 1.765625 -6.921875 C 1.765625 -7.410156 1.710938 -7.75 1.609375 -7.9375 C 1.503906 -8.132812 1.316406 -8.234375 1.046875 -8.234375 C 0.835938 -8.234375 0.617188 -8.203125 0.390625 -8.140625 L 0.390625 -8.5 C 1.367188 -8.769531 2.320312 -9.078125 3.25 -9.421875 L 3.390625 -9.375 L 3.390625 -7.84375 C 4.242188 -8.476562 4.875 -8.898438 5.28125 -9.109375 C 5.6875 -9.316406 6.117188 -9.421875 6.578125 -9.421875 C 7.648438 -9.421875 8.367188 -8.847656 8.734375 -7.703125 C 9.804688 -8.847656 10.921875 -9.421875 12.078125 -9.421875 C 13.660156 -9.421875 14.453125 -8.203125 14.453125 -5.765625 L 14.453125 -1.5625 C 14.453125 -0.789062 14.742188 -0.382812 15.328125 -0.34375 L 15.859375 -0.3125 Z M 15.859375 0 "/></g></g></g><g fill="#000000" fill-opacity="1"><g transform="translate(266.741537, 436.199928)"><g><path d="M 8.671875 -3.21875 C 7.785156 -0.9375 6.34375 0.203125 4.34375 0.203125 C 3.164062 0.203125 2.234375 -0.207031 1.546875 -1.03125 C 0.859375 -1.851562 0.515625 -2.96875 0.515625 -4.375 C 0.515625 -5.863281 0.910156 -7.078125 1.703125 -8.015625 C 2.492188 -8.953125 3.523438 -9.421875 4.796875 -9.421875 C 5.878906 -9.421875 6.75 -9.03125 7.40625 -8.25 C 7.851562 -7.675781 8.148438 -6.816406 8.296875 -5.671875 L 1.984375 -5.671875 C 2.023438 -4.515625 2.226562 -3.570312 2.59375 -2.84375 C 3.1875 -1.75 4.046875 -1.203125 5.171875 -1.203125 C 5.828125 -1.203125 6.394531 -1.363281 6.875 -1.6875 C 7.363281 -2.019531 7.851562 -2.578125 8.34375 -3.359375 Z M 6.203125 -6.328125 C 6.066406 -7.210938 5.851562 -7.820312 5.5625 -8.15625 C 5.28125 -8.5 4.828125 -8.671875 4.203125 -8.671875 C 2.972656 -8.671875 2.25 -7.890625 2.03125 -6.328125 Z M 6.203125 -6.328125 "/></g></g></g><g fill="#000000" fill-opacity="1"><g transform="translate(275.828983, 436.199928)"><g/></g></g><g fill="#000000" fill-opacity="1"><g transform="translate(280.945786, 436.199928)"><g><path d="M 9.046875 -0.8125 C 8.691406 -0.414062 8.378906 -0.144531 8.109375 0 C 7.847656 0.132812 7.546875 0.203125 7.203125 0.203125 C 6.785156 0.203125 6.476562 0.09375 6.28125 -0.125 C 6.082031 -0.351562 5.953125 -0.742188 5.890625 -1.296875 C 4.722656 -0.296875 3.726562 0.203125 2.90625 0.203125 C 2.28125 0.203125 1.765625 0 1.359375 -0.40625 C 0.953125 -0.8125 0.75 -1.335938 0.75 -1.984375 C 0.75 -2.722656 1 -3.316406 1.5 -3.765625 C 1.9375 -4.148438 2.375 -4.453125 2.8125 -4.671875 C 3.257812 -4.898438 4.28125 -5.335938 5.875 -5.984375 L 5.875 -7.21875 C 5.875 -8.351562 5.351562 -8.921875 4.3125 -8.921875 C 3.90625 -8.921875 3.554688 -8.820312 3.265625 -8.625 C 2.984375 -8.425781 2.84375 -8.191406 2.84375 -7.921875 C 2.84375 -7.773438 2.863281 -7.613281 2.90625 -7.4375 C 2.9375 -7.238281 2.953125 -7.128906 2.953125 -7.109375 C 2.953125 -6.867188 2.859375 -6.664062 2.671875 -6.5 C 2.484375 -6.332031 2.265625 -6.25 2.015625 -6.25 C 1.773438 -6.25 1.566406 -6.335938 1.390625 -6.515625 C 1.222656 -6.691406 1.140625 -6.894531 1.140625 -7.125 C 1.140625 -7.6875 1.421875 -8.195312 1.984375 -8.65625 C 2.597656 -9.164062 3.460938 -9.421875 4.578125 -9.421875 C 5.847656 -9.421875 6.703125 -9.023438 7.140625 -8.234375 C 7.398438 -7.804688 7.53125 -7.109375 7.53125 -6.140625 L 7.53125 -2.15625 C 7.53125 -1.695312 7.570312 -1.382812 7.65625 -1.21875 C 7.75 -1.050781 7.910156 -0.96875 8.140625 -0.96875 C 8.429688 -0.96875 8.734375 -1.09375 9.046875 -1.34375 Z M 5.875 -2.515625 L 5.875 -5.484375 C 4.644531 -5.035156 3.785156 -4.597656 3.296875 -4.171875 C 2.804688 -3.753906 2.5625 -3.242188 2.5625 -2.640625 L 2.5625 -2.5625 C 2.5625 -2.125 2.6875 -1.75 2.9375 -1.4375 C 3.1875 -1.132812 3.488281 -0.984375 3.84375 -0.984375 C 4.320312 -0.984375 4.820312 -1.132812 5.34375 -1.4375 C 5.5625 -1.570312 5.703125 -1.707031 5.765625 -1.84375 C 5.835938 -1.976562 5.875 -2.203125 5.875 -2.515625 Z M 5.875 -2.515625 "/></g></g></g><g fill="#000000" fill-opacity="1"><g transform="translate(290.033232, 436.199928)"><g><path d="M 9.921875 0 L 5.671875 0 L 5.671875 -0.3125 C 6.191406 -0.351562 6.535156 -0.488281 6.703125 -0.71875 C 6.867188 -0.945312 6.953125 -1.382812 6.953125 -2.03125 L 6.953125 -6.296875 C 6.953125 -7.628906 6.457031 -8.296875 5.46875 -8.296875 C 5.125 -8.296875 4.804688 -8.210938 4.515625 -8.046875 C 4.234375 -7.890625 3.847656 -7.582031 3.359375 -7.125 L 3.359375 -1.375 C 3.359375 -1 3.453125 -0.738281 3.640625 -0.59375 C 3.835938 -0.445312 4.191406 -0.351562 4.703125 -0.3125 L 4.703125 0 L 0.375 0 L 0.375 -0.3125 C 0.882812 -0.351562 1.222656 -0.472656 1.390625 -0.671875 C 1.554688 -0.867188 1.640625 -1.257812 1.640625 -1.84375 L 1.640625 -6.921875 C 1.640625 -7.421875 1.582031 -7.765625 1.46875 -7.953125 C 1.363281 -8.140625 1.164062 -8.234375 0.875 -8.234375 C 0.613281 -8.234375 0.429688 -8.203125 0.328125 -8.140625 L 0.328125 -8.5 C 1.335938 -8.789062 2.28125 -9.097656 3.15625 -9.421875 L 3.296875 -9.375 L 3.296875 -7.75 C 3.992188 -8.40625 4.539062 -8.847656 4.9375 -9.078125 C 5.34375 -9.304688 5.785156 -9.421875 6.265625 -9.421875 C 7.015625 -9.421875 7.601562 -9.148438 8.03125 -8.609375 C 8.457031 -8.066406 8.671875 -7.3125 8.671875 -6.34375 L 8.671875 -1.65625 C 8.671875 -1.15625 8.753906 -0.816406 8.921875 -0.640625 C 9.085938 -0.472656 9.421875 -0.363281 9.921875 -0.3125 Z M 9.921875 0 "/></g></g></g><g fill="#000000" fill-opacity="1"><g transform="translate(300.26684, 436.199928)"><g><path d="M 9.921875 0 L 5.671875 0 L 5.671875 -0.3125 C 6.191406 -0.351562 6.535156 -0.488281 6.703125 -0.71875 C 6.867188 -0.945312 6.953125 -1.382812 6.953125 -2.03125 L 6.953125 -6.296875 C 6.953125 -7.628906 6.457031 -8.296875 5.46875 -8.296875 C 5.125 -8.296875 4.804688 -8.210938 4.515625 -8.046875 C 4.234375 -7.890625 3.847656 -7.582031 3.359375 -7.125 L 3.359375 -1.375 C 3.359375 -1 3.453125 -0.738281 3.640625 -0.59375 C 3.835938 -0.445312 4.191406 -0.351562 4.703125 -0.3125 L 4.703125 0 L 0.375 0 L 0.375 -0.3125 C 0.882812 -0.351562 1.222656 -0.472656 1.390625 -0.671875 C 1.554688 -0.867188 1.640625 -1.257812 1.640625 -1.84375 L 1.640625 -6.921875 C 1.640625 -7.421875 1.582031 -7.765625 1.46875 -7.953125 C 1.363281 -8.140625 1.164062 -8.234375 0.875 -8.234375 C 0.613281 -8.234375 0.429688 -8.203125 0.328125 -8.140625 L 0.328125 -8.5 C 1.335938 -8.789062 2.28125 -9.097656 3.15625 -9.421875 L 3.296875 -9.375 L 3.296875 -7.75 C 3.992188 -8.40625 4.539062 -8.847656 4.9375 -9.078125 C 5.34375 -9.304688 5.785156 -9.421875 6.265625 -9.421875 C 7.015625 -9.421875 7.601562 -9.148438 8.03125 -8.609375 C 8.457031 -8.066406 8.671875 -7.3125 8.671875 -6.34375 L 8.671875 -1.65625 C 8.671875 -1.15625 8.753906 -0.816406 8.921875 -0.640625 C 9.085938 -0.472656 9.421875 -0.363281 9.921875 -0.3125 Z M 9.921875 0 "/></g></g></g><g fill="#000000" fill-opacity="1"><g transform="translate(310.500447, 436.199928)"><g><path d="M 9.625 -4.796875 C 9.625 -3.367188 9.1875 -2.175781 8.3125 -1.21875 C 7.4375 -0.269531 6.359375 0.203125 5.078125 0.203125 C 3.796875 0.203125 2.726562 -0.253906 1.875 -1.171875 C 1.019531 -2.097656 0.59375 -3.25 0.59375 -4.625 C 0.59375 -6.03125 1.007812 -7.179688 1.84375 -8.078125 C 2.6875 -8.972656 3.773438 -9.421875 5.109375 -9.421875 C 6.421875 -9.421875 7.5 -8.984375 8.34375 -8.109375 C 9.195312 -7.234375 9.625 -6.128906 9.625 -4.796875 Z M 7.78125 -4.078125 C 7.78125 -5.484375 7.503906 -6.628906 6.953125 -7.515625 C 6.410156 -8.398438 5.707031 -8.84375 4.84375 -8.84375 C 4.125 -8.84375 3.539062 -8.546875 3.09375 -7.953125 C 2.65625 -7.367188 2.4375 -6.59375 2.4375 -5.625 C 2.4375 -4.113281 2.738281 -2.796875 3.34375 -1.671875 C 3.800781 -0.804688 4.460938 -0.375 5.328125 -0.375 C 6.085938 -0.375 6.6875 -0.695312 7.125 -1.34375 C 7.5625 -2 7.78125 -2.910156 7.78125 -4.078125 Z M 7.78125 -4.078125 "/></g></g></g><g fill="#000000" fill-opacity="1"><g transform="translate(320.734054, 436.199928)"><g><path d="M 5.703125 -1.34375 C 5.054688 -0.3125 4.234375 0.203125 3.234375 0.203125 C 2.035156 0.203125 1.4375 -0.660156 1.4375 -2.390625 L 1.4375 -8.5625 L 0.34375 -8.5625 C 0.289062 -8.601562 0.265625 -8.648438 0.265625 -8.703125 C 0.265625 -8.804688 0.378906 -8.9375 0.609375 -9.09375 C 1.171875 -9.414062 1.832031 -10.144531 2.59375 -11.28125 C 2.789062 -11.519531 2.929688 -11.707031 3.015625 -11.84375 C 3.109375 -11.84375 3.15625 -11.753906 3.15625 -11.578125 L 3.15625 -9.203125 L 5.21875 -9.203125 L 5.21875 -8.5625 L 3.15625 -8.5625 L 3.15625 -2.703125 C 3.15625 -2.046875 3.234375 -1.570312 3.390625 -1.28125 C 3.554688 -1 3.832031 -0.859375 4.21875 -0.859375 C 4.625 -0.859375 5.03125 -1.097656 5.4375 -1.578125 Z M 5.703125 -1.34375 "/></g></g></g><g fill="#000000" fill-opacity="1"><g transform="translate(326.423939, 436.199928)"><g><path d="M 9.046875 -0.8125 C 8.691406 -0.414062 8.378906 -0.144531 8.109375 0 C 7.847656 0.132812 7.546875 0.203125 7.203125 0.203125 C 6.785156 0.203125 6.476562 0.09375 6.28125 -0.125 C 6.082031 -0.351562 5.953125 -0.742188 5.890625 -1.296875 C 4.722656 -0.296875 3.726562 0.203125 2.90625 0.203125 C 2.28125 0.203125 1.765625 0 1.359375 -0.40625 C 0.953125 -0.8125 0.75 -1.335938 0.75 -1.984375 C 0.75 -2.722656 1 -3.316406 1.5 -3.765625 C 1.9375 -4.148438 2.375 -4.453125 2.8125 -4.671875 C 3.257812 -4.898438 4.28125 -5.335938 5.875 -5.984375 L 5.875 -7.21875 C 5.875 -8.351562 5.351562 -8.921875 4.3125 -8.921875 C 3.90625 -8.921875 3.554688 -8.820312 3.265625 -8.625 C 2.984375 -8.425781 2.84375 -8.191406 2.84375 -7.921875 C 2.84375 -7.773438 2.863281 -7.613281 2.90625 -7.4375 C 2.9375 -7.238281 2.953125 -7.128906 2.953125 -7.109375 C 2.953125 -6.867188 2.859375 -6.664062 2.671875 -6.5 C 2.484375 -6.332031 2.265625 -6.25 2.015625 -6.25 C 1.773438 -6.25 1.566406 -6.335938 1.390625 -6.515625 C 1.222656 -6.691406 1.140625 -6.894531 1.140625 -7.125 C 1.140625 -7.6875 1.421875 -8.195312 1.984375 -8.65625 C 2.597656 -9.164062 3.460938 -9.421875 4.578125 -9.421875 C 5.847656 -9.421875 6.703125 -9.023438 7.140625 -8.234375 C 7.398438 -7.804688 7.53125 -7.109375 7.53125 -6.140625 L 7.53125 -2.15625 C 7.53125 -1.695312 7.570312 -1.382812 7.65625 -1.21875 C 7.75 -1.050781 7.910156 -0.96875 8.140625 -0.96875 C 8.429688 -0.96875 8.734375 -1.09375 9.046875 -1.34375 Z M 5.875 -2.515625 L 5.875 -5.484375 C 4.644531 -5.035156 3.785156 -4.597656 3.296875 -4.171875 C 2.804688 -3.753906 2.5625 -3.242188 2.5625 -2.640625 L 2.5625 -2.5625 C 2.5625 -2.125 2.6875 -1.75 2.9375 -1.4375 C 3.1875 -1.132812 3.488281 -0.984375 3.84375 -0.984375 C 4.320312 -0.984375 4.820312 -1.132812 5.34375 -1.4375 C 5.5625 -1.570312 5.703125 -1.707031 5.765625 -1.84375 C 5.835938 -1.976562 5.875 -2.203125 5.875 -2.515625 Z M 5.875 -2.515625 "/></g></g></g><g fill="#000000" fill-opacity="1"><g transform="translate(335.511385, 436.199928)"><g><path d="M 5.703125 -1.34375 C 5.054688 -0.3125 4.234375 0.203125 3.234375 0.203125 C 2.035156 0.203125 1.4375 -0.660156 1.4375 -2.390625 L 1.4375 -8.5625 L 0.34375 -8.5625 C 0.289062 -8.601562 0.265625 -8.648438 0.265625 -8.703125 C 0.265625 -8.804688 0.378906 -8.9375 0.609375 -9.09375 C 1.171875 -9.414062 1.832031 -10.144531 2.59375 -11.28125 C 2.789062 -11.519531 2.929688 -11.707031 3.015625 -11.84375 C 3.109375 -11.84375 3.15625 -11.753906 3.15625 -11.578125 L 3.15625 -9.203125 L 5.21875 -9.203125 L 5.21875 -8.5625 L 3.15625 -8.5625 L 3.15625 -2.703125 C 3.15625 -2.046875 3.234375 -1.570312 3.390625 -1.28125 C 3.554688 -1 3.832031 -0.859375 4.21875 -0.859375 C 4.625 -0.859375 5.03125 -1.097656 5.4375 -1.578125 Z M 5.703125 -1.34375 "/></g></g></g><g fill="#000000" fill-opacity="1"><g transform="translate(341.201269, 436.199928)"><g><path d="M 5.171875 0 L 0.328125 0 L 0.328125 -0.3125 C 1.035156 -0.351562 1.476562 -0.472656 1.65625 -0.671875 C 1.84375 -0.878906 1.9375 -1.351562 1.9375 -2.09375 L 1.9375 -6.84375 C 1.9375 -7.289062 1.882812 -7.601562 1.78125 -7.78125 C 1.6875 -7.96875 1.515625 -8.0625 1.265625 -8.0625 C 1.046875 -8.0625 0.816406 -8.039062 0.578125 -8 L 0.40625 -7.984375 L 0.40625 -8.296875 L 3.578125 -9.421875 L 3.65625 -9.359375 L 3.65625 -2.09375 C 3.65625 -1.351562 3.738281 -0.882812 3.90625 -0.6875 C 4.082031 -0.488281 4.503906 -0.363281 5.171875 -0.3125 Z M 3.84375 -12.078125 C 3.84375 -11.773438 3.742188 -11.523438 3.546875 -11.328125 C 3.347656 -11.128906 3.097656 -11.03125 2.796875 -11.03125 C 2.515625 -11.03125 2.269531 -11.128906 2.0625 -11.328125 C 1.863281 -11.523438 1.765625 -11.773438 1.765625 -12.078125 C 1.765625 -12.359375 1.863281 -12.601562 2.0625 -12.8125 C 2.269531 -13.019531 2.515625 -13.125 2.796875 -13.125 C 3.097656 -13.125 3.347656 -13.019531 3.546875 -12.8125 C 3.742188 -12.601562 3.84375 -12.359375 3.84375 -12.078125 Z M 3.84375 -12.078125 "/></g></g></g><g fill="#000000" fill-opacity="1"><g transform="translate(346.891154, 436.199928)"><g><path d="M 9.921875 0 L 5.671875 0 L 5.671875 -0.3125 C 6.191406 -0.351562 6.535156 -0.488281 6.703125 -0.71875 C 6.867188 -0.945312 6.953125 -1.382812 6.953125 -2.03125 L 6.953125 -6.296875 C 6.953125 -7.628906 6.457031 -8.296875 5.46875 -8.296875 C 5.125 -8.296875 4.804688 -8.210938 4.515625 -8.046875 C 4.234375 -7.890625 3.847656 -7.582031 3.359375 -7.125 L 3.359375 -1.375 C 3.359375 -1 3.453125 -0.738281 3.640625 -0.59375 C 3.835938 -0.445312 4.191406 -0.351562 4.703125 -0.3125 L 4.703125 0 L 0.375 0 L 0.375 -0.3125 C 0.882812 -0.351562 1.222656 -0.472656 1.390625 -0.671875 C 1.554688 -0.867188 1.640625 -1.257812 1.640625 -1.84375 L 1.640625 -6.921875 C 1.640625 -7.421875 1.582031 -7.765625 1.46875 -7.953125 C 1.363281 -8.140625 1.164062 -8.234375 0.875 -8.234375 C 0.613281 -8.234375 0.429688 -8.203125 0.328125 -8.140625 L 0.328125 -8.5 C 1.335938 -8.789062 2.28125 -9.097656 3.15625 -9.421875 L 3.296875 -9.375 L 3.296875 -7.75 C 3.992188 -8.40625 4.539062 -8.847656 4.9375 -9.078125 C 5.34375 -9.304688 5.785156 -9.421875 6.265625 -9.421875 C 7.015625 -9.421875 7.601562 -9.148438 8.03125 -8.609375 C 8.457031 -8.066406 8.671875 -7.3125 8.671875 -6.34375 L 8.671875 -1.65625 C 8.671875 -1.15625 8.753906 -0.816406 8.921875 -0.640625 C 9.085938 -0.472656 9.421875 -0.363281 9.921875 -0.3125 Z M 9.921875 0 "/></g></g></g><g fill="#000000" fill-opacity="1"><g transform="translate(357.124761, 436.199928)"><g><path d="M 9.625 -7.9375 L 7.921875 -7.9375 C 8.179688 -7.351562 8.3125 -6.78125 8.3125 -6.21875 C 8.3125 -5.238281 7.984375 -4.46875 7.328125 -3.90625 C 6.671875 -3.332031 5.929688 -3.046875 5.109375 -3.046875 C 4.972656 -3.046875 4.71875 -3.066406 4.34375 -3.109375 C 4.320312 -3.109375 4.191406 -3.125 3.953125 -3.15625 C 3.679688 -3.070312 3.40625 -2.882812 3.125 -2.59375 C 2.851562 -2.3125 2.71875 -2.066406 2.71875 -1.859375 C 2.71875 -1.535156 3.25 -1.351562 4.3125 -1.3125 L 6.953125 -1.1875 C 7.703125 -1.15625 8.300781 -0.941406 8.75 -0.546875 C 9.207031 -0.148438 9.4375 0.363281 9.4375 1 C 9.4375 1.769531 9.0625 2.457031 8.3125 3.0625 C 7.164062 4 5.765625 4.46875 4.109375 4.46875 C 3.140625 4.46875 2.304688 4.269531 1.609375 3.875 C 0.921875 3.488281 0.578125 3.023438 0.578125 2.484375 C 0.578125 2.097656 0.726562 1.71875 1.03125 1.34375 C 1.34375 0.96875 1.859375 0.515625 2.578125 -0.015625 C 2.148438 -0.222656 1.863281 -0.398438 1.71875 -0.546875 C 1.570312 -0.703125 1.5 -0.890625 1.5 -1.109375 C 1.5 -1.503906 1.8125 -1.972656 2.4375 -2.515625 L 3.3125 -3.34375 C 2.632812 -3.675781 2.144531 -4.050781 1.84375 -4.46875 C 1.550781 -4.894531 1.40625 -5.429688 1.40625 -6.078125 C 1.40625 -7.003906 1.734375 -7.789062 2.390625 -8.4375 C 3.054688 -9.09375 3.867188 -9.421875 4.828125 -9.421875 C 5.378906 -9.421875 5.925781 -9.316406 6.46875 -9.109375 L 6.921875 -8.9375 C 7.316406 -8.800781 7.691406 -8.734375 8.046875 -8.734375 L 9.625 -8.734375 Z M 8.859375 1.3125 C 8.859375 0.9375 8.664062 0.675781 8.28125 0.53125 C 7.90625 0.382812 7.253906 0.3125 6.328125 0.3125 C 4.941406 0.3125 3.835938 0.222656 3.015625 0.046875 C 2.585938 0.546875 2.3125 0.90625 2.1875 1.125 C 2.0625 1.34375 2 1.566406 2 1.796875 C 2 2.253906 2.269531 2.617188 2.8125 2.890625 C 3.363281 3.160156 4.09375 3.296875 5 3.296875 C 6.15625 3.296875 7.085938 3.109375 7.796875 2.734375 C 8.503906 2.367188 8.859375 1.894531 8.859375 1.3125 Z M 6.734375 -5.421875 C 6.734375 -6.265625 6.53125 -7.082031 6.125 -7.875 C 5.78125 -8.519531 5.28125 -8.84375 4.625 -8.84375 C 4.144531 -8.84375 3.769531 -8.671875 3.5 -8.328125 C 3.238281 -7.984375 3.109375 -7.515625 3.109375 -6.921875 L 3.109375 -6.859375 C 3.109375 -5.878906 3.300781 -5.082031 3.6875 -4.46875 C 4.082031 -3.863281 4.585938 -3.5625 5.203125 -3.5625 C 5.679688 -3.5625 6.054688 -3.726562 6.328125 -4.0625 C 6.597656 -4.394531 6.734375 -4.847656 6.734375 -5.421875 Z M 6.734375 -5.421875 "/></g></g></g><g fill="#000000" fill-opacity="1"><g transform="translate(367.358369, 436.199928)"><g/></g></g><g fill="#000000" fill-opacity="1"><g transform="translate(372.475172, 436.199928)"><g><path d="M 9.765625 -8.90625 C 9.453125 -8.875 9.226562 -8.769531 9.09375 -8.59375 C 8.957031 -8.425781 8.738281 -8 8.4375 -7.3125 L 5.8125 -0.734375 C 5.539062 -0.0546875 5.347656 0.28125 5.234375 0.28125 C 5.117188 0.28125 5 0.101562 4.875 -0.25 C 4.851562 -0.269531 4.820312 -0.332031 4.78125 -0.4375 C 4.75 -0.550781 4.722656 -0.628906 4.703125 -0.671875 L 2.25 -6.546875 C 1.769531 -7.609375 1.4375 -8.265625 1.25 -8.515625 C 1.0625 -8.765625 0.773438 -8.894531 0.390625 -8.90625 L 0.390625 -9.203125 L 4.40625 -9.203125 L 4.40625 -8.90625 C 4.050781 -8.875 3.800781 -8.816406 3.65625 -8.734375 C 3.519531 -8.660156 3.453125 -8.523438 3.453125 -8.328125 C 3.453125 -8.109375 3.515625 -7.859375 3.640625 -7.578125 L 5.734375 -2.328125 L 7.75 -7.640625 C 7.832031 -7.835938 7.875 -8.039062 7.875 -8.25 C 7.875 -8.632812 7.554688 -8.851562 6.921875 -8.90625 L 6.921875 -9.203125 L 9.765625 -9.203125 Z M 9.765625 -8.90625 "/></g></g></g><g fill="#000000" fill-opacity="1"><g transform="translate(382.70878, 436.199928)"><g><path d="M 5.171875 0 L 0.328125 0 L 0.328125 -0.3125 C 1.035156 -0.351562 1.476562 -0.472656 1.65625 -0.671875 C 1.84375 -0.878906 1.9375 -1.351562 1.9375 -2.09375 L 1.9375 -6.84375 C 1.9375 -7.289062 1.882812 -7.601562 1.78125 -7.78125 C 1.6875 -7.96875 1.515625 -8.0625 1.265625 -8.0625 C 1.046875 -8.0625 0.816406 -8.039062 0.578125 -8 L 0.40625 -7.984375 L 0.40625 -8.296875 L 3.578125 -9.421875 L 3.65625 -9.359375 L 3.65625 -2.09375 C 3.65625 -1.351562 3.738281 -0.882812 3.90625 -0.6875 C 4.082031 -0.488281 4.503906 -0.363281 5.171875 -0.3125 Z M 3.84375 -12.078125 C 3.84375 -11.773438 3.742188 -11.523438 3.546875 -11.328125 C 3.347656 -11.128906 3.097656 -11.03125 2.796875 -11.03125 C 2.515625 -11.03125 2.269531 -11.128906 2.0625 -11.328125 C 1.863281 -11.523438 1.765625 -11.773438 1.765625 -12.078125 C 1.765625 -12.359375 1.863281 -12.601562 2.0625 -12.8125 C 2.269531 -13.019531 2.515625 -13.125 2.796875 -13.125 C 3.097656 -13.125 3.347656 -13.019531 3.546875 -12.8125 C 3.742188 -12.601562 3.84375 -12.359375 3.84375 -12.078125 Z M 3.84375 -12.078125 "/></g></g></g><g fill="#000000" fill-opacity="1"><g transform="translate(388.398664, 436.199928)"><g><path d="M 10.046875 -0.859375 L 7.046875 0.203125 L 6.953125 0.140625 L 6.953125 -1.171875 C 6.304688 -0.253906 5.4375 0.203125 4.34375 0.203125 C 3.207031 0.203125 2.289062 -0.203125 1.59375 -1.015625 C 0.894531 -1.828125 0.546875 -2.890625 0.546875 -4.203125 C 0.546875 -5.640625 0.960938 -6.867188 1.796875 -7.890625 C 2.628906 -8.910156 3.632812 -9.421875 4.8125 -9.421875 C 5.550781 -9.421875 6.265625 -9.125 6.953125 -8.53125 L 6.953125 -11.734375 C 6.953125 -12.148438 6.890625 -12.425781 6.765625 -12.5625 C 6.648438 -12.695312 6.398438 -12.765625 6.015625 -12.765625 C 5.828125 -12.765625 5.675781 -12.757812 5.5625 -12.75 L 5.5625 -13.078125 C 6.8125 -13.410156 7.816406 -13.710938 8.578125 -13.984375 L 8.671875 -13.9375 L 8.671875 -2.328125 C 8.671875 -1.847656 8.726562 -1.535156 8.84375 -1.390625 C 8.96875 -1.242188 9.210938 -1.171875 9.578125 -1.171875 C 9.648438 -1.171875 9.804688 -1.175781 10.046875 -1.1875 Z M 6.953125 -2.09375 L 6.953125 -6.796875 C 6.953125 -7.335938 6.738281 -7.8125 6.3125 -8.21875 C 5.894531 -8.632812 5.414062 -8.84375 4.875 -8.84375 C 4.09375 -8.84375 3.46875 -8.492188 3 -7.796875 C 2.539062 -7.097656 2.3125 -6.171875 2.3125 -5.015625 C 2.3125 -3.753906 2.570312 -2.742188 3.09375 -1.984375 C 3.613281 -1.234375 4.296875 -0.859375 5.140625 -0.859375 C 5.753906 -0.859375 6.242188 -1.0625 6.609375 -1.46875 C 6.835938 -1.726562 6.953125 -1.9375 6.953125 -2.09375 Z M 6.953125 -2.09375 "/></g></g></g><g fill="#000000" fill-opacity="1"><g transform="translate(398.632272, 436.199928)"><g><path d="M 8.671875 -3.21875 C 7.785156 -0.9375 6.34375 0.203125 4.34375 0.203125 C 3.164062 0.203125 2.234375 -0.207031 1.546875 -1.03125 C 0.859375 -1.851562 0.515625 -2.96875 0.515625 -4.375 C 0.515625 -5.863281 0.910156 -7.078125 1.703125 -8.015625 C 2.492188 -8.953125 3.523438 -9.421875 4.796875 -9.421875 C 5.878906 -9.421875 6.75 -9.03125 7.40625 -8.25 C 7.851562 -7.675781 8.148438 -6.816406 8.296875 -5.671875 L 1.984375 -5.671875 C 2.023438 -4.515625 2.226562 -3.570312 2.59375 -2.84375 C 3.1875 -1.75 4.046875 -1.203125 5.171875 -1.203125 C 5.828125 -1.203125 6.394531 -1.363281 6.875 -1.6875 C 7.363281 -2.019531 7.851562 -2.578125 8.34375 -3.359375 Z M 6.203125 -6.328125 C 6.066406 -7.210938 5.851562 -7.820312 5.5625 -8.15625 C 5.28125 -8.5 4.828125 -8.671875 4.203125 -8.671875 C 2.972656 -8.671875 2.25 -7.890625 2.03125 -6.328125 Z M 6.203125 -6.328125 "/></g></g></g><g fill="#000000" fill-opacity="1"><g transform="translate(407.719706, 436.199928)"><g><path d="M 9.625 -4.796875 C 9.625 -3.367188 9.1875 -2.175781 8.3125 -1.21875 C 7.4375 -0.269531 6.359375 0.203125 5.078125 0.203125 C 3.796875 0.203125 2.726562 -0.253906 1.875 -1.171875 C 1.019531 -2.097656 0.59375 -3.25 0.59375 -4.625 C 0.59375 -6.03125 1.007812 -7.179688 1.84375 -8.078125 C 2.6875 -8.972656 3.773438 -9.421875 5.109375 -9.421875 C 6.421875 -9.421875 7.5 -8.984375 8.34375 -8.109375 C 9.195312 -7.234375 9.625 -6.128906 9.625 -4.796875 Z M 7.78125 -4.078125 C 7.78125 -5.484375 7.503906 -6.628906 6.953125 -7.515625 C 6.410156 -8.398438 5.707031 -8.84375 4.84375 -8.84375 C 4.125 -8.84375 3.539062 -8.546875 3.09375 -7.953125 C 2.65625 -7.367188 2.4375 -6.59375 2.4375 -5.625 C 2.4375 -4.113281 2.738281 -2.796875 3.34375 -1.671875 C 3.800781 -0.804688 4.460938 -0.375 5.328125 -0.375 C 6.085938 -0.375 6.6875 -0.695312 7.125 -1.34375 C 7.5625 -2 7.78125 -2.910156 7.78125 -4.078125 Z M 7.78125 -4.078125 "/></g></g></g><g fill="#000000" fill-opacity="1"><g transform="translate(417.953313, 436.199928)"><g/></g></g><g fill="#000000" fill-opacity="1"><g transform="translate(423.070117, 436.199928)"><g><path d="M 10.046875 -0.859375 L 7.046875 0.203125 L 6.953125 0.140625 L 6.953125 -1.171875 C 6.304688 -0.253906 5.4375 0.203125 4.34375 0.203125 C 3.207031 0.203125 2.289062 -0.203125 1.59375 -1.015625 C 0.894531 -1.828125 0.546875 -2.890625 0.546875 -4.203125 C 0.546875 -5.640625 0.960938 -6.867188 1.796875 -7.890625 C 2.628906 -8.910156 3.632812 -9.421875 4.8125 -9.421875 C 5.550781 -9.421875 6.265625 -9.125 6.953125 -8.53125 L 6.953125 -11.734375 C 6.953125 -12.148438 6.890625 -12.425781 6.765625 -12.5625 C 6.648438 -12.695312 6.398438 -12.765625 6.015625 -12.765625 C 5.828125 -12.765625 5.675781 -12.757812 5.5625 -12.75 L 5.5625 -13.078125 C 6.8125 -13.410156 7.816406 -13.710938 8.578125 -13.984375 L 8.671875 -13.9375 L 8.671875 -2.328125 C 8.671875 -1.847656 8.726562 -1.535156 8.84375 -1.390625 C 8.96875 -1.242188 9.210938 -1.171875 9.578125 -1.171875 C 9.648438 -1.171875 9.804688 -1.175781 10.046875 -1.1875 Z M 6.953125 -2.09375 L 6.953125 -6.796875 C 6.953125 -7.335938 6.738281 -7.8125 6.3125 -8.21875 C 5.894531 -8.632812 5.414062 -8.84375 4.875 -8.84375 C 4.09375 -8.84375 3.46875 -8.492188 3 -7.796875 C 2.539062 -7.097656 2.3125 -6.171875 2.3125 -5.015625 C 2.3125 -3.753906 2.570312 -2.742188 3.09375 -1.984375 C 3.613281 -1.234375 4.296875 -0.859375 5.140625 -0.859375 C 5.753906 -0.859375 6.242188 -1.0625 6.609375 -1.46875 C 6.835938 -1.726562 6.953125 -1.9375 6.953125 -2.09375 Z M 6.953125 -2.09375 "/></g></g></g><g fill="#000000" fill-opacity="1"><g transform="translate(433.303725, 436.199928)"><g><path d="M 9.046875 -0.8125 C 8.691406 -0.414062 8.378906 -0.144531 8.109375 0 C 7.847656 0.132812 7.546875 0.203125 7.203125 0.203125 C 6.785156 0.203125 6.476562 0.09375 6.28125 -0.125 C 6.082031 -0.351562 5.953125 -0.742188 5.890625 -1.296875 C 4.722656 -0.296875 3.726562 0.203125 2.90625 0.203125 C 2.28125 0.203125 1.765625 0 1.359375 -0.40625 C 0.953125 -0.8125 0.75 -1.335938 0.75 -1.984375 C 0.75 -2.722656 1 -3.316406 1.5 -3.765625 C 1.9375 -4.148438 2.375 -4.453125 2.8125 -4.671875 C 3.257812 -4.898438 4.28125 -5.335938 5.875 -5.984375 L 5.875 -7.21875 C 5.875 -8.351562 5.351562 -8.921875 4.3125 -8.921875 C 3.90625 -8.921875 3.554688 -8.820312 3.265625 -8.625 C 2.984375 -8.425781 2.84375 -8.191406 2.84375 -7.921875 C 2.84375 -7.773438 2.863281 -7.613281 2.90625 -7.4375 C 2.9375 -7.238281 2.953125 -7.128906 2.953125 -7.109375 C 2.953125 -6.867188 2.859375 -6.664062 2.671875 -6.5 C 2.484375 -6.332031 2.265625 -6.25 2.015625 -6.25 C 1.773438 -6.25 1.566406 -6.335938 1.390625 -6.515625 C 1.222656 -6.691406 1.140625 -6.894531 1.140625 -7.125 C 1.140625 -7.6875 1.421875 -8.195312 1.984375 -8.65625 C 2.597656 -9.164062 3.460938 -9.421875 4.578125 -9.421875 C 5.847656 -9.421875 6.703125 -9.023438 7.140625 -8.234375 C 7.398438 -7.804688 7.53125 -7.109375 7.53125 -6.140625 L 7.53125 -2.15625 C 7.53125 -1.695312 7.570312 -1.382812 7.65625 -1.21875 C 7.75 -1.050781 7.910156 -0.96875 8.140625 -0.96875 C 8.429688 -0.96875 8.734375 -1.09375 9.046875 -1.34375 Z M 5.875 -2.515625 L 5.875 -5.484375 C 4.644531 -5.035156 3.785156 -4.597656 3.296875 -4.171875 C 2.804688 -3.753906 2.5625 -3.242188 2.5625 -2.640625 L 2.5625 -2.5625 C 2.5625 -2.125 2.6875 -1.75 2.9375 -1.4375 C 3.1875 -1.132812 3.488281 -0.984375 3.84375 -0.984375 C 4.320312 -0.984375 4.820312 -1.132812 5.34375 -1.4375 C 5.5625 -1.570312 5.703125 -1.707031 5.765625 -1.84375 C 5.835938 -1.976562 5.875 -2.203125 5.875 -2.515625 Z M 5.875 -2.515625 "/></g></g></g><g fill="#000000" fill-opacity="1"><g transform="translate(442.39117, 436.199928)"><g><path d="M 5.703125 -1.34375 C 5.054688 -0.3125 4.234375 0.203125 3.234375 0.203125 C 2.035156 0.203125 1.4375 -0.660156 1.4375 -2.390625 L 1.4375 -8.5625 L 0.34375 -8.5625 C 0.289062 -8.601562 0.265625 -8.648438 0.265625 -8.703125 C 0.265625 -8.804688 0.378906 -8.9375 0.609375 -9.09375 C 1.171875 -9.414062 1.832031 -10.144531 2.59375 -11.28125 C 2.789062 -11.519531 2.929688 -11.707031 3.015625 -11.84375 C 3.109375 -11.84375 3.15625 -11.753906 3.15625 -11.578125 L 3.15625 -9.203125 L 5.21875 -9.203125 L 5.21875 -8.5625 L 3.15625 -8.5625 L 3.15625 -2.703125 C 3.15625 -2.046875 3.234375 -1.570312 3.390625 -1.28125 C 3.554688 -1 3.832031 -0.859375 4.21875 -0.859375 C 4.625 -0.859375 5.03125 -1.097656 5.4375 -1.578125 Z M 5.703125 -1.34375 "/></g></g></g><g fill="#000000" fill-opacity="1"><g transform="translate(448.081043, 436.199928)"><g><path d="M 9.046875 -0.8125 C 8.691406 -0.414062 8.378906 -0.144531 8.109375 0 C 7.847656 0.132812 7.546875 0.203125 7.203125 0.203125 C 6.785156 0.203125 6.476562 0.09375 6.28125 -0.125 C 6.082031 -0.351562 5.953125 -0.742188 5.890625 -1.296875 C 4.722656 -0.296875 3.726562 0.203125 2.90625 0.203125 C 2.28125 0.203125 1.765625 0 1.359375 -0.40625 C 0.953125 -0.8125 0.75 -1.335938 0.75 -1.984375 C 0.75 -2.722656 1 -3.316406 1.5 -3.765625 C 1.9375 -4.148438 2.375 -4.453125 2.8125 -4.671875 C 3.257812 -4.898438 4.28125 -5.335938 5.875 -5.984375 L 5.875 -7.21875 C 5.875 -8.351562 5.351562 -8.921875 4.3125 -8.921875 C 3.90625 -8.921875 3.554688 -8.820312 3.265625 -8.625 C 2.984375 -8.425781 2.84375 -8.191406 2.84375 -7.921875 C 2.84375 -7.773438 2.863281 -7.613281 2.90625 -7.4375 C 2.9375 -7.238281 2.953125 -7.128906 2.953125 -7.109375 C 2.953125 -6.867188 2.859375 -6.664062 2.671875 -6.5 C 2.484375 -6.332031 2.265625 -6.25 2.015625 -6.25 C 1.773438 -6.25 1.566406 -6.335938 1.390625 -6.515625 C 1.222656 -6.691406 1.140625 -6.894531 1.140625 -7.125 C 1.140625 -7.6875 1.421875 -8.195312 1.984375 -8.65625 C 2.597656 -9.164062 3.460938 -9.421875 4.578125 -9.421875 C 5.847656 -9.421875 6.703125 -9.023438 7.140625 -8.234375 C 7.398438 -7.804688 7.53125 -7.109375 7.53125 -6.140625 L 7.53125 -2.15625 C 7.53125 -1.695312 7.570312 -1.382812 7.65625 -1.21875 C 7.75 -1.050781 7.910156 -0.96875 8.140625 -0.96875 C 8.429688 -0.96875 8.734375 -1.09375 9.046875 -1.34375 Z M 5.875 -2.515625 L 5.875 -5.484375 C 4.644531 -5.035156 3.785156 -4.597656 3.296875 -4.171875 C 2.804688 -3.753906 2.5625 -3.242188 2.5625 -2.640625 L 2.5625 -2.5625 C 2.5625 -2.125 2.6875 -1.75 2.9375 -1.4375 C 3.1875 -1.132812 3.488281 -0.984375 3.84375 -0.984375 C 4.320312 -0.984375 4.820312 -1.132812 5.34375 -1.4375 C 5.5625 -1.570312 5.703125 -1.707031 5.765625 -1.84375 C 5.835938 -1.976562 5.875 -2.203125 5.875 -2.515625 Z M 5.875 -2.515625 "/></g></g></g></svg>