<svg xmlns="http://www.w3.org/2000/svg" xmlns:xlink="http://www.w3.org/1999/xlink" width="470" zoomAndPan="magnify" viewBox="0 0 352.5 374.999991" height="500" preserveAspectRatio="xMidYMid meet" version="1.2"><defs><clipPath id="0117beccb8"><path d="M 0 0.265625 L 352 0.265625 L 352 374.734375 L 0 374.734375 Z M 0 0.265625 "/></clipPath><clipPath id="030ed6617d"><path d="M 84 0.265625 L 155 0.265625 L 155 71 L 84 71 Z M 84 0.265625 "/></clipPath><clipPath id="ad4f516174"><path d="M 195 0.265625 L 267 0.265625 L 267 71 L 195 71 Z M 195 0.265625 "/></clipPath><clipPath id="eae44c1357"><path d="M 112 218 L 240 218 L 240 323.804688 L 112 323.804688 Z M 112 218 "/></clipPath><clipPath id="75babd144c"><path d="M 28 141 L 99 141 L 99 158 L 28 158 Z M 28 141 "/></clipPath><clipPath id="ac43305ac7"><path d="M 81.988281 175.621094 L 25.945312 145.421875 L 42.644531 114.433594 L 98.6875 144.632812 Z M 81.988281 175.621094 "/></clipPath><clipPath id="49563576bd"><path d="M 81.988281 175.621094 L 25.945312 145.421875 L 42.644531 114.433594 L 98.6875 144.632812 Z M 81.988281 175.621094 "/></clipPath><clipPath id="aee2cf11f4"><path d="M 141 181 L 212 181 L 212 197 L 141 197 Z M 141 181 "/></clipPath><clipPath id="026836ea60"><path d="M 197.050781 213.425781 L 139.410156 186.40625 L 154.351562 154.535156 L 211.992188 181.554688 Z M 197.050781 213.425781 "/></clipPath><clipPath id="80504f7fce"><path d="M 197.050781 213.425781 L 139.410156 186.40625 L 154.351562 154.535156 L 211.992188 181.554688 Z M 197.050781 213.425781 "/></clipPath><clipPath id="d25f918f76"><path d="M 254 141 L 325 141 L 325 158 L 254 158 Z M 254 141 "/></clipPath><clipPath id="88be2950c8"><path d="M 310.863281 174.207031 L 252.882812 147.925781 L 267.414062 115.867188 L 325.394531 142.148438 Z M 310.863281 174.207031 "/></clipPath><clipPath id="ef753210d8"><path d="M 310.863281 174.207031 L 252.882812 147.925781 L 267.414062 115.867188 L 325.394531 142.148438 Z M 310.863281 174.207031 "/></clipPath><clipPath id="960fae7fc8"><path d="M 85 44 L 156 44 L 156 60 L 85 60 Z M 85 44 "/></clipPath><clipPath id="ba918cc883"><path d="M 138.789062 78.285156 L 82.867188 47.867188 L 99.683594 16.945312 L 155.609375 47.363281 Z M 138.789062 78.285156 "/></clipPath><clipPath id="a8fedea240"><path d="M 138.789062 78.285156 L 82.867188 47.867188 L 99.683594 16.945312 L 155.609375 47.363281 Z M 138.789062 78.285156 "/></clipPath><clipPath id="0d3c58acc9"><path d="M 198 43 L 269 43 L 269 60 L 198 60 Z M 198 43 "/></clipPath><clipPath id="4244ee1487"><path d="M 254.8125 76.496094 L 196.472656 51.015625 L 210.5625 18.757812 L 268.902344 44.238281 Z M 254.8125 76.496094 "/></clipPath><clipPath id="48f4e3ca30"><path d="M 254.8125 76.496094 L 196.472656 51.015625 L 210.5625 18.757812 L 268.902344 44.238281 Z M 254.8125 76.496094 "/></clipPath></defs><g id="daa1ed8eb8"><g clip-rule="nonzero" clip-path="url(#0117beccb8)"><path style=" stroke:none;fill-rule:nonzero;fill:#ffffff;fill-opacity:1;" d="M 0 0.265625 L 352 0.265625 L 352 374.734375 L 0 374.734375 Z M 0 0.265625 "/></g><g clip-rule="nonzero" clip-path="url(#030ed6617d)"><path style=" stroke:none;fill-rule:nonzero;fill:#000000;fill-opacity:1;" d="M 154.878906 35.433594 C 154.878906 36.585938 154.824219 37.734375 154.710938 38.878906 C 154.597656 40.027344 154.429688 41.164062 154.203125 42.292969 C 153.980469 43.425781 153.699219 44.539062 153.363281 45.640625 C 153.03125 46.746094 152.640625 47.828125 152.199219 48.890625 C 151.757812 49.957031 151.265625 50.996094 150.722656 52.011719 C 150.179688 53.027344 149.589844 54.015625 148.949219 54.972656 C 148.308594 55.929688 147.621094 56.851562 146.890625 57.742188 C 146.160156 58.632812 145.386719 59.488281 144.570312 60.300781 C 143.753906 61.117188 142.902344 61.886719 142.011719 62.617188 C 141.121094 63.347656 140.195312 64.035156 139.238281 64.675781 C 138.277344 65.3125 137.289062 65.90625 136.273438 66.449219 C 135.257812 66.992188 134.214844 67.484375 133.152344 67.925781 C 132.085938 68.363281 131 68.753906 129.898438 69.085938 C 128.796875 69.421875 127.679688 69.699219 126.546875 69.925781 C 125.417969 70.148438 124.277344 70.320312 123.128906 70.433594 C 121.984375 70.542969 120.832031 70.601562 119.679688 70.601562 C 118.527344 70.601562 117.378906 70.542969 116.230469 70.433594 C 115.082031 70.320312 113.945312 70.148438 112.8125 69.925781 C 111.683594 69.699219 110.566406 69.421875 109.460938 69.085938 C 108.359375 68.753906 107.273438 68.363281 106.210938 67.925781 C 105.144531 67.484375 104.105469 66.992188 103.085938 66.449219 C 102.070312 65.90625 101.082031 65.3125 100.125 64.675781 C 99.164062 64.035156 98.242188 63.347656 97.347656 62.617188 C 96.457031 61.886719 95.605469 61.117188 94.789062 60.300781 C 93.976562 59.488281 93.203125 58.632812 92.46875 57.742188 C 91.738281 56.851562 91.054688 55.929688 90.414062 54.972656 C 89.773438 54.015625 89.179688 53.027344 88.636719 52.011719 C 88.09375 50.996094 87.601562 49.957031 87.160156 48.890625 C 86.71875 47.828125 86.332031 46.746094 85.996094 45.640625 C 85.660156 44.539062 85.382812 43.425781 85.15625 42.292969 C 84.929688 41.164062 84.761719 40.027344 84.648438 38.878906 C 84.535156 37.734375 84.480469 36.585938 84.480469 35.433594 C 84.480469 34.28125 84.535156 33.132812 84.648438 31.988281 C 84.761719 30.839844 84.929688 29.703125 85.15625 28.574219 C 85.382812 27.445312 85.660156 26.328125 85.996094 25.226562 C 86.332031 24.125 86.71875 23.039062 87.160156 21.976562 C 87.601562 20.910156 88.09375 19.871094 88.636719 18.855469 C 89.179688 17.839844 89.773438 16.855469 90.414062 15.894531 C 91.054688 14.9375 91.738281 14.015625 92.46875 13.125 C 93.203125 12.234375 93.976562 11.382812 94.789062 10.566406 C 95.605469 9.753906 96.457031 8.980469 97.347656 8.25 C 98.242188 7.519531 99.164062 6.832031 100.125 6.191406 C 101.082031 5.554688 102.070312 4.960938 103.085938 4.417969 C 104.105469 3.875 105.144531 3.382812 106.210938 2.945312 C 107.273438 2.503906 108.359375 2.113281 109.460938 1.78125 C 110.566406 1.445312 111.683594 1.167969 112.8125 0.941406 C 113.945312 0.71875 115.082031 0.546875 116.230469 0.4375 C 117.378906 0.324219 118.527344 0.265625 119.679688 0.265625 C 120.832031 0.265625 121.984375 0.324219 123.128906 0.4375 C 124.277344 0.546875 125.417969 0.71875 126.546875 0.941406 C 127.679688 1.167969 128.796875 1.445312 129.898438 1.78125 C 131 2.113281 132.085938 2.503906 133.152344 2.945312 C 134.214844 3.382812 135.257812 3.875 136.273438 4.417969 C 137.289062 4.960938 138.277344 5.554688 139.238281 6.191406 C 140.195312 6.832031 141.121094 7.519531 142.011719 8.25 C 142.902344 8.980469 143.753906 9.753906 144.570312 10.566406 C 145.386719 11.382812 146.160156 12.234375 146.890625 13.125 C 147.621094 14.015625 148.308594 14.9375 148.949219 15.894531 C 149.589844 16.855469 150.179688 17.839844 150.722656 18.855469 C 151.265625 19.871094 151.757812 20.910156 152.199219 21.976562 C 152.640625 23.039062 153.03125 24.125 153.363281 25.226562 C 153.699219 26.328125 153.980469 27.445312 154.203125 28.574219 C 154.429688 29.703125 154.597656 30.839844 154.710938 31.988281 C 154.824219 33.132812 154.878906 34.28125 154.878906 35.433594 Z M 154.878906 35.433594 "/></g><g clip-rule="nonzero" clip-path="url(#ad4f516174)"><path style=" stroke:none;fill-rule:nonzero;fill:#000000;fill-opacity:1;" d="M 266.113281 35.433594 C 266.113281 36.585938 266.054688 37.734375 265.941406 38.878906 C 265.828125 40.027344 265.660156 41.164062 265.4375 42.292969 C 265.210938 43.425781 264.929688 44.539062 264.597656 45.640625 C 264.261719 46.746094 263.875 47.828125 263.433594 48.890625 C 262.992188 49.957031 262.5 50.996094 261.957031 52.011719 C 261.414062 53.027344 260.820312 54.015625 260.179688 54.972656 C 259.539062 55.929688 258.855469 56.851562 258.121094 57.742188 C 257.390625 58.632812 256.617188 59.488281 255.800781 60.300781 C 254.988281 61.117188 254.132812 61.886719 253.242188 62.617188 C 252.351562 63.347656 251.425781 64.035156 250.46875 64.675781 C 249.511719 65.3125 248.523438 65.90625 247.503906 66.449219 C 246.488281 66.992188 245.449219 67.484375 244.382812 67.925781 C 243.316406 68.363281 242.234375 68.753906 241.128906 69.085938 C 240.027344 69.421875 238.910156 69.699219 237.78125 69.925781 C 236.648438 70.148438 235.511719 70.320312 234.363281 70.433594 C 233.214844 70.542969 232.066406 70.601562 230.914062 70.601562 C 229.757812 70.601562 228.609375 70.542969 227.460938 70.433594 C 226.316406 70.320312 225.175781 70.148438 224.046875 69.925781 C 222.914062 69.699219 221.796875 69.421875 220.695312 69.085938 C 219.589844 68.753906 218.507812 68.363281 217.441406 67.925781 C 216.375 67.484375 215.335938 66.992188 214.320312 66.449219 C 213.300781 65.90625 212.316406 65.3125 211.355469 64.675781 C 210.398438 64.035156 209.472656 63.347656 208.582031 62.617188 C 207.691406 61.886719 206.835938 61.117188 206.023438 60.300781 C 205.207031 59.488281 204.433594 58.632812 203.703125 57.742188 C 202.972656 56.851562 202.285156 55.929688 201.644531 54.972656 C 201.003906 54.015625 200.414062 53.027344 199.867188 52.011719 C 199.324219 50.996094 198.832031 49.957031 198.390625 48.890625 C 197.949219 47.828125 197.5625 46.746094 197.226562 45.640625 C 196.894531 44.539062 196.613281 43.425781 196.390625 42.292969 C 196.164062 41.164062 195.996094 40.027344 195.882812 38.878906 C 195.769531 37.734375 195.710938 36.585938 195.710938 35.433594 C 195.710938 34.28125 195.769531 33.132812 195.882812 31.988281 C 195.996094 30.839844 196.164062 29.703125 196.390625 28.574219 C 196.613281 27.445312 196.894531 26.328125 197.226562 25.226562 C 197.5625 24.125 197.949219 23.039062 198.390625 21.976562 C 198.832031 20.910156 199.324219 19.871094 199.867188 18.855469 C 200.414062 17.839844 201.003906 16.855469 201.644531 15.894531 C 202.285156 14.9375 202.972656 14.015625 203.703125 13.125 C 204.433594 12.234375 205.207031 11.382812 206.023438 10.566406 C 206.835938 9.753906 207.691406 8.980469 208.582031 8.25 C 209.472656 7.519531 210.398438 6.832031 211.355469 6.191406 C 212.316406 5.554688 213.300781 4.960938 214.320312 4.417969 C 215.335938 3.875 216.375 3.382812 217.441406 2.945312 C 218.507812 2.503906 219.589844 2.113281 220.695312 1.78125 C 221.796875 1.445312 222.914062 1.167969 224.046875 0.941406 C 225.175781 0.71875 226.316406 0.546875 227.460938 0.4375 C 228.609375 0.324219 229.757812 0.265625 230.914062 0.265625 C 232.066406 0.265625 233.214844 0.324219 234.363281 0.4375 C 235.511719 0.546875 236.648438 0.71875 237.78125 0.941406 C 238.910156 1.167969 240.027344 1.445312 241.128906 1.78125 C 242.234375 2.113281 243.316406 2.503906 244.382812 2.945312 C 245.449219 3.382812 246.488281 3.875 247.503906 4.417969 C 248.523438 4.960938 249.511719 5.554688 250.46875 6.191406 C 251.425781 6.832031 252.351562 7.519531 253.242188 8.25 C 254.132812 8.980469 254.988281 9.753906 255.800781 10.566406 C 256.617188 11.382812 257.390625 12.234375 258.121094 13.125 C 258.855469 14.015625 259.539062 14.9375 260.179688 15.894531 C 260.820312 16.855469 261.414062 17.839844 261.957031 18.855469 C 262.5 19.871094 262.992188 20.910156 263.433594 21.976562 C 263.875 23.039062 264.261719 24.125 264.597656 25.226562 C 264.929688 26.328125 265.210938 27.445312 265.4375 28.574219 C 265.660156 29.703125 265.828125 30.839844 265.941406 31.988281 C 266.054688 33.132812 266.113281 34.28125 266.113281 35.433594 Z M 266.113281 35.433594 "/></g><path style=" stroke:none;fill-rule:nonzero;fill:#000000;fill-opacity:1;" d="M 218.429688 169.257812 C 218.429688 170.640625 218.363281 172.019531 218.226562 173.394531 C 218.089844 174.769531 217.890625 176.136719 217.617188 177.492188 C 217.347656 178.847656 217.011719 180.1875 216.613281 181.507812 C 216.210938 182.832031 215.746094 184.132812 215.214844 185.410156 C 214.6875 186.6875 214.09375 187.933594 213.441406 189.152344 C 212.789062 190.371094 212.082031 191.554688 211.3125 192.703125 C 210.542969 193.855469 209.71875 194.964844 208.84375 196.03125 C 207.964844 197.101562 207.035156 198.121094 206.058594 199.101562 C 205.082031 200.078125 204.058594 201.003906 202.988281 201.882812 C 201.917969 202.757812 200.808594 203.582031 199.65625 204.347656 C 198.507812 205.117188 197.324219 205.824219 196.101562 206.476562 C 194.882812 207.128906 193.632812 207.71875 192.355469 208.246094 C 191.078125 208.777344 189.777344 209.242188 188.453125 209.644531 C 187.128906 210.042969 185.789062 210.378906 184.429688 210.648438 C 183.074219 210.917969 181.707031 211.121094 180.332031 211.257812 C 178.953125 211.390625 177.574219 211.460938 176.191406 211.460938 C 174.808594 211.460938 173.425781 211.390625 172.050781 211.257812 C 170.671875 211.121094 169.308594 210.917969 167.949219 210.648438 C 166.59375 210.378906 165.253906 210.042969 163.929688 209.644531 C 162.605469 209.242188 161.304688 208.777344 160.027344 208.246094 C 158.746094 207.71875 157.5 207.128906 156.277344 206.476562 C 155.058594 205.824219 153.875 205.117188 152.722656 204.347656 C 151.574219 203.582031 150.464844 202.757812 149.394531 201.882812 C 148.324219 201.003906 147.300781 200.078125 146.320312 199.101562 C 145.34375 198.121094 144.417969 197.101562 143.539062 196.03125 C 142.660156 194.964844 141.835938 193.855469 141.070312 192.703125 C 140.300781 191.554688 139.589844 190.371094 138.9375 189.152344 C 138.285156 187.933594 137.695312 186.6875 137.164062 185.410156 C 136.636719 184.132812 136.171875 182.832031 135.769531 181.507812 C 135.367188 180.1875 135.03125 178.847656 134.761719 177.492188 C 134.492188 176.136719 134.289062 174.769531 134.152344 173.394531 C 134.019531 172.019531 133.949219 170.640625 133.949219 169.257812 C 133.949219 167.878906 134.019531 166.5 134.152344 165.125 C 134.289062 163.746094 134.492188 162.382812 134.761719 161.027344 C 135.03125 159.671875 135.367188 158.332031 135.769531 157.007812 C 136.171875 155.6875 136.636719 154.386719 137.164062 153.109375 C 137.695312 151.832031 138.285156 150.585938 138.9375 149.367188 C 139.589844 148.148438 140.300781 146.964844 141.070312 145.8125 C 141.835938 144.664062 142.660156 143.554688 143.539062 142.488281 C 144.417969 141.417969 145.34375 140.394531 146.320312 139.417969 C 147.300781 138.441406 148.324219 137.515625 149.394531 136.636719 C 150.464844 135.761719 151.574219 134.9375 152.722656 134.171875 C 153.875 133.402344 155.058594 132.691406 156.277344 132.042969 C 157.5 131.390625 158.746094 130.800781 160.027344 130.269531 C 161.304688 129.742188 162.605469 129.277344 163.929688 128.875 C 165.253906 128.476562 166.59375 128.140625 167.949219 127.871094 C 169.308594 127.601562 170.671875 127.398438 172.050781 127.261719 C 173.425781 127.125 174.808594 127.058594 176.191406 127.058594 C 177.574219 127.058594 178.953125 127.125 180.332031 127.261719 C 181.707031 127.398438 183.074219 127.601562 184.429688 127.871094 C 185.789062 128.140625 187.128906 128.476562 188.453125 128.875 C 189.777344 129.277344 191.078125 129.742188 192.355469 130.269531 C 193.632812 130.800781 194.882812 131.390625 196.101562 132.042969 C 197.324219 132.691406 198.507812 133.402344 199.65625 134.171875 C 200.808594 134.9375 201.917969 135.761719 202.988281 136.636719 C 204.058594 137.515625 205.082031 138.441406 206.058594 139.417969 C 207.035156 140.394531 207.964844 141.417969 208.84375 142.488281 C 209.71875 143.554688 210.542969 144.664062 211.3125 145.8125 C 212.082031 146.964844 212.789062 148.148438 213.441406 149.367188 C 214.09375 150.585938 214.6875 151.832031 215.214844 153.109375 C 215.746094 154.386719 216.210938 155.6875 216.613281 157.007812 C 217.011719 158.332031 217.347656 159.671875 217.617188 161.027344 C 217.890625 162.382812 218.089844 163.746094 218.226562 165.125 C 218.363281 166.5 218.429688 167.878906 218.429688 169.257812 Z M 218.429688 169.257812 "/><g clip-rule="nonzero" clip-path="url(#eae44c1357)"><path style=" stroke:none;fill-rule:nonzero;fill:#000000;fill-opacity:1;" d="M 176.191406 323.996094 C 132.851562 323.996094 117.28125 313.261719 115.644531 312.039062 C 113.871094 310.714844 112.832031 308.628906 112.832031 306.410156 L 112.832031 281.792969 C 112.832031 246.886719 141.257812 218.492188 176.191406 218.492188 C 211.128906 218.492188 239.550781 246.886719 239.550781 281.792969 L 239.550781 306.410156 C 239.550781 308.621094 238.507812 310.710938 236.734375 312.039062 C 235.109375 313.261719 219.527344 323.996094 176.191406 323.996094 Z M 176.191406 323.996094 "/></g><path style=" stroke:none;fill-rule:nonzero;fill:#000000;fill-opacity:1;" d="M 124.769531 224.105469 C 117.898438 196.585938 93.003906 176.101562 63.359375 176.101562 C 28.425781 176.101562 0 204.496094 0 239.402344 L 0 264.019531 C 0 266.230469 1.042969 268.320312 2.816406 269.648438 C 4.449219 270.871094 20.023438 281.605469 63.359375 281.605469 C 78.375 281.605469 89.992188 280.304688 98.917969 278.566406 C 99.8125 256.9375 109.605469 237.609375 124.769531 224.105469 Z M 124.769531 224.105469 "/><path style=" stroke:none;fill-rule:nonzero;fill:#000000;fill-opacity:1;" d="M 288.640625 176.101562 C 259.09375 176.101562 234.277344 196.445312 227.300781 223.824219 C 242.664062 237.355469 252.589844 256.832031 253.476562 278.644531 C 262.351562 280.339844 273.84375 281.605469 288.640625 281.605469 C 331.972656 281.605469 347.550781 270.871094 349.183594 269.648438 C 350.957031 268.324219 352 266.238281 352 264.019531 L 352 239.402344 C 352 204.496094 323.582031 176.101562 288.640625 176.101562 Z M 288.640625 176.101562 "/><path style=" stroke:none;fill-rule:nonzero;fill:#000000;fill-opacity:1;" d="M 331.070312 127.058594 C 331.070312 128.441406 331.003906 129.820312 330.867188 131.195312 C 330.730469 132.570312 330.527344 133.9375 330.257812 135.292969 C 329.988281 136.648438 329.652344 137.984375 329.25 139.308594 C 328.851562 140.632812 328.386719 141.929688 327.855469 143.207031 C 327.324219 144.484375 326.734375 145.734375 326.082031 146.953125 C 325.429688 148.171875 324.71875 149.355469 323.953125 150.503906 C 323.183594 151.652344 322.359375 152.761719 321.484375 153.832031 C 320.605469 154.898438 319.675781 155.921875 318.699219 156.898438 C 317.71875 157.875 316.695312 158.804688 315.628906 159.679688 C 314.558594 160.558594 313.449219 161.378906 312.296875 162.148438 C 311.148438 162.914062 309.960938 163.625 308.742188 164.277344 C 307.523438 164.929688 306.273438 165.519531 304.996094 166.046875 C 303.71875 166.574219 302.417969 167.042969 301.09375 167.441406 C 299.769531 167.84375 298.429688 168.179688 297.070312 168.449219 C 295.714844 168.71875 294.347656 168.921875 292.972656 169.054688 C 291.59375 169.191406 290.214844 169.257812 288.832031 169.257812 C 287.445312 169.257812 286.066406 169.191406 284.691406 169.054688 C 283.3125 168.921875 281.945312 168.71875 280.589844 168.449219 C 279.234375 168.179688 277.894531 167.84375 276.570312 167.441406 C 275.246094 167.042969 273.945312 166.574219 272.667969 166.046875 C 271.386719 165.519531 270.140625 164.929688 268.917969 164.277344 C 267.699219 163.625 266.511719 162.914062 265.363281 162.148438 C 264.214844 161.378906 263.101562 160.558594 262.035156 159.679688 C 260.964844 158.804688 259.941406 157.875 258.960938 156.898438 C 257.984375 155.921875 257.054688 154.898438 256.179688 153.832031 C 255.300781 152.761719 254.476562 151.652344 253.710938 150.503906 C 252.941406 149.355469 252.230469 148.171875 251.578125 146.953125 C 250.925781 145.734375 250.335938 144.484375 249.804688 143.207031 C 249.277344 141.929688 248.8125 140.632812 248.410156 139.308594 C 248.007812 137.984375 247.671875 136.648438 247.402344 135.292969 C 247.132812 133.9375 246.929688 132.570312 246.792969 131.195312 C 246.660156 129.820312 246.589844 128.441406 246.589844 127.058594 C 246.589844 125.675781 246.660156 124.296875 246.792969 122.921875 C 246.929688 121.546875 247.132812 120.179688 247.402344 118.824219 C 247.671875 117.46875 248.007812 116.132812 248.410156 114.808594 C 248.8125 113.484375 249.277344 112.1875 249.804688 110.910156 C 250.335938 109.632812 250.925781 108.382812 251.578125 107.164062 C 252.230469 105.945312 252.941406 104.761719 253.710938 103.613281 C 254.476562 102.464844 255.300781 101.355469 256.179688 100.285156 C 257.054688 99.21875 257.984375 98.195312 258.960938 97.21875 C 259.941406 96.242188 260.964844 95.3125 262.035156 94.4375 C 263.101562 93.558594 264.214844 92.738281 265.363281 91.96875 C 266.511719 91.203125 267.699219 90.492188 268.917969 89.839844 C 270.140625 89.1875 271.386719 88.597656 272.667969 88.070312 C 273.945312 87.542969 275.246094 87.078125 276.570312 86.675781 C 277.894531 86.273438 279.234375 85.9375 280.589844 85.667969 C 281.945312 85.398438 283.3125 85.195312 284.691406 85.0625 C 286.066406 84.925781 287.445312 84.859375 288.832031 84.859375 C 290.214844 84.859375 291.59375 84.925781 292.972656 85.0625 C 294.347656 85.195312 295.714844 85.398438 297.070312 85.667969 C 298.429688 85.9375 299.769531 86.273438 301.09375 86.675781 C 302.417969 87.078125 303.71875 87.542969 304.996094 88.070312 C 306.273438 88.597656 307.523438 89.1875 308.742188 89.839844 C 309.960938 90.492188 311.148438 91.203125 312.296875 91.96875 C 313.449219 92.738281 314.558594 93.558594 315.628906 94.4375 C 316.695312 95.3125 317.71875 96.242188 318.699219 97.21875 C 319.675781 98.195312 320.605469 99.21875 321.484375 100.285156 C 322.359375 101.355469 323.183594 102.464844 323.953125 103.613281 C 324.71875 104.761719 325.429688 105.945312 326.082031 107.164062 C 326.734375 108.382812 327.324219 109.632812 327.855469 110.910156 C 328.386719 112.1875 328.851562 113.484375 329.25 114.808594 C 329.652344 116.132812 329.988281 117.46875 330.257812 118.824219 C 330.527344 120.179688 330.730469 121.546875 330.867188 122.921875 C 331.003906 124.296875 331.070312 125.675781 331.070312 127.058594 Z M 331.070312 127.058594 "/><path style=" stroke:none;fill-rule:nonzero;fill:#000000;fill-opacity:1;" d="M 105.789062 127.058594 C 105.789062 128.441406 105.722656 129.820312 105.585938 131.195312 C 105.453125 132.570312 105.25 133.9375 104.980469 135.292969 C 104.707031 136.648438 104.371094 137.984375 103.972656 139.308594 C 103.570312 140.632812 103.105469 141.929688 102.574219 143.207031 C 102.046875 144.484375 101.453125 145.734375 100.800781 146.953125 C 100.152344 148.171875 99.441406 149.355469 98.671875 150.503906 C 97.902344 151.652344 97.078125 152.761719 96.203125 153.832031 C 95.324219 154.898438 94.398438 155.921875 93.417969 156.898438 C 92.441406 157.875 91.417969 158.804688 90.347656 159.679688 C 89.277344 160.558594 88.167969 161.378906 87.015625 162.148438 C 85.867188 162.914062 84.683594 163.625 83.460938 164.277344 C 82.242188 164.929688 80.992188 165.519531 79.714844 166.046875 C 78.4375 166.574219 77.136719 167.042969 75.8125 167.441406 C 74.488281 167.84375 73.148438 168.179688 71.789062 168.449219 C 70.433594 168.71875 69.066406 168.921875 67.691406 169.054688 C 66.3125 169.191406 64.933594 169.257812 63.550781 169.257812 C 62.167969 169.257812 60.785156 169.191406 59.410156 169.054688 C 58.035156 168.921875 56.667969 168.71875 55.308594 168.449219 C 53.953125 168.179688 52.613281 167.84375 51.289062 167.441406 C 49.964844 167.042969 48.664062 166.574219 47.386719 166.046875 C 46.109375 165.519531 44.859375 164.929688 43.636719 164.277344 C 42.417969 163.625 41.234375 162.914062 40.082031 162.148438 C 38.933594 161.378906 37.824219 160.558594 36.753906 159.679688 C 35.683594 158.804688 34.660156 157.875 33.683594 156.898438 C 32.703125 155.921875 31.777344 154.898438 30.898438 153.832031 C 30.019531 152.761719 29.199219 151.652344 28.429688 150.503906 C 27.660156 149.355469 26.949219 148.171875 26.296875 146.953125 C 25.644531 145.734375 25.054688 144.484375 24.527344 143.207031 C 23.996094 141.929688 23.53125 140.632812 23.128906 139.308594 C 22.726562 137.984375 22.390625 136.648438 22.121094 135.292969 C 21.851562 133.9375 21.648438 132.570312 21.511719 131.195312 C 21.378906 129.820312 21.308594 128.441406 21.308594 127.058594 C 21.308594 125.675781 21.378906 124.296875 21.511719 122.921875 C 21.648438 121.546875 21.851562 120.179688 22.121094 118.824219 C 22.390625 117.46875 22.726562 116.132812 23.128906 114.808594 C 23.53125 113.484375 23.996094 112.1875 24.527344 110.910156 C 25.054688 109.632812 25.644531 108.382812 26.296875 107.164062 C 26.949219 105.945312 27.660156 104.761719 28.429688 103.613281 C 29.199219 102.464844 30.019531 101.355469 30.898438 100.285156 C 31.777344 99.21875 32.703125 98.195312 33.683594 97.21875 C 34.660156 96.242188 35.683594 95.3125 36.753906 94.4375 C 37.824219 93.558594 38.933594 92.738281 40.082031 91.96875 C 41.234375 91.203125 42.417969 90.492188 43.636719 89.839844 C 44.859375 89.1875 46.109375 88.597656 47.386719 88.070312 C 48.664062 87.542969 49.964844 87.078125 51.289062 86.675781 C 52.613281 86.273438 53.953125 85.9375 55.308594 85.667969 C 56.667969 85.398438 58.035156 85.195312 59.410156 85.0625 C 60.785156 84.925781 62.167969 84.859375 63.550781 84.859375 C 64.933594 84.859375 66.3125 84.925781 67.691406 85.0625 C 69.066406 85.195312 70.433594 85.398438 71.789062 85.667969 C 73.148438 85.9375 74.488281 86.273438 75.8125 86.675781 C 77.136719 87.078125 78.4375 87.542969 79.714844 88.070312 C 80.992188 88.597656 82.242188 89.1875 83.460938 89.839844 C 84.683594 90.492188 85.867188 91.203125 87.015625 91.96875 C 88.167969 92.738281 89.277344 93.558594 90.347656 94.4375 C 91.417969 95.3125 92.441406 96.242188 93.417969 97.21875 C 94.398438 98.195312 95.324219 99.21875 96.203125 100.285156 C 97.078125 101.355469 97.902344 102.464844 98.671875 103.613281 C 99.441406 104.761719 100.152344 105.945312 100.800781 107.164062 C 101.453125 108.382812 102.046875 109.632812 102.574219 110.910156 C 103.105469 112.1875 103.570312 113.484375 103.972656 114.808594 C 104.371094 116.132812 104.707031 117.46875 104.980469 118.824219 C 105.25 120.179688 105.453125 121.546875 105.585938 122.921875 C 105.722656 124.296875 105.789062 125.675781 105.789062 127.058594 Z M 105.789062 127.058594 "/><path style=" stroke:none;fill-rule:nonzero;fill:#000000;fill-opacity:1;" d="M 232.511719 169.257812 C 232.511719 177.144531 230.871094 184.648438 227.925781 191.457031 C 234.792969 182.769531 243.457031 175.695312 253.273438 170.636719 C 240.613281 160.3125 232.519531 144.613281 232.519531 127.058594 C 232.519531 109.398438 240.71875 93.636719 253.496094 83.3125 C 246.765625 79.722656 239.171875 77.632812 230.914062 77.632812 C 208.109375 77.632812 189.277344 92.714844 183.53125 113.527344 C 211.117188 117.140625 232.511719 140.726562 232.511719 169.257812 Z M 232.511719 169.257812 "/><path style=" stroke:none;fill-rule:nonzero;fill:#000000;fill-opacity:1;" d="M 119.871094 127.058594 C 119.871094 144.675781 111.703125 160.425781 98.96875 170.75 C 109.21875 176.066406 118.171875 183.613281 125.144531 192.878906 C 121.792969 185.691406 119.871094 177.699219 119.871094 169.257812 C 119.871094 141.316406 140.386719 118.132812 167.136719 113.785156 C 161.484375 92.839844 142.582031 77.632812 119.679688 77.632812 C 111.851562 77.632812 104.59375 79.492188 98.125 82.742188 C 111.332031 93.042969 119.871094 109.058594 119.871094 127.058594 Z M 119.871094 127.058594 "/><g clip-rule="nonzero" clip-path="url(#75babd144c)"><g clip-rule="nonzero" clip-path="url(#ac43305ac7)"><g clip-rule="nonzero" clip-path="url(#49563576bd)"><path style=" stroke:none;fill-rule:nonzero;fill:#ffffff;fill-opacity:1;" d="M 97.707031 144.320312 C 97.859375 144.402344 97.976562 144.515625 98.070312 144.660156 C 98.160156 144.804688 98.207031 144.964844 98.214844 145.136719 C 98.222656 145.304688 98.1875 145.46875 98.109375 145.621094 C 98.03125 145.769531 97.921875 145.894531 97.78125 145.988281 C 88.6875 151.988281 79.378906 155.597656 70.117188 156.707031 C 62.628906 157.609375 55.292969 156.910156 48.105469 154.613281 C 35.890625 150.734375 28.664062 143.726562 28.359375 143.425781 C 28.167969 143.238281 28.070312 143.011719 28.070312 142.742188 C 28.066406 142.472656 28.160156 142.242188 28.347656 142.050781 C 28.535156 141.859375 28.765625 141.765625 29.035156 141.761719 C 29.300781 141.757812 29.53125 141.851562 29.722656 142.039062 C 29.820312 142.132812 36.996094 149.0625 48.777344 152.78125 C 59.632812 156.210938 76.757812 157.53125 96.710938 144.363281 C 97.035156 144.152344 97.367188 144.136719 97.707031 144.320312 Z M 97.707031 144.320312 "/></g></g></g><g style="fill:#000000;fill-opacity:1;"><g transform="translate(103.531457, 360.208522)"><path style="stroke:none" d="M 19.078125 -13.15625 C 18.535156 -13.050781 18.164062 -12.914062 17.96875 -12.75 C 17.769531 -12.582031 17.570312 -12.234375 17.375 -11.703125 L 13.203125 0.21875 L 12.890625 0.21875 L 9.625 -8.4375 L 6.46875 0.21875 L 6.15625 0.21875 L 2.203125 -10.765625 C 1.828125 -11.734375 1.507812 -12.359375 1.25 -12.640625 C 1 -12.929688 0.617188 -13.101562 0.109375 -13.15625 L 0.109375 -13.546875 L 5.109375 -13.546875 L 5.109375 -13.15625 C 4.597656 -13.132812 4.25 -13.078125 4.0625 -12.984375 C 3.875 -12.898438 3.78125 -12.738281 3.78125 -12.5 C 3.78125 -12.257812 3.859375 -11.945312 4.015625 -11.5625 L 6.953125 -3.875 L 9.15625 -9.640625 L 8.46875 -11.3125 C 8.113281 -12.132812 7.828125 -12.644531 7.609375 -12.84375 C 7.390625 -13.039062 6.988281 -13.144531 6.40625 -13.15625 L 6.40625 -13.546875 L 11.875 -13.546875 L 11.875 -13.15625 C 10.820312 -13.144531 10.296875 -12.90625 10.296875 -12.4375 C 10.296875 -12.226562 10.398438 -11.882812 10.609375 -11.40625 L 10.84375 -10.78125 L 13.546875 -3.8125 L 16.109375 -10.75 C 16.328125 -11.363281 16.4375 -11.875 16.4375 -12.28125 C 16.4375 -12.550781 16.328125 -12.75 16.109375 -12.875 C 15.898438 -13.007812 15.539062 -13.101562 15.03125 -13.15625 L 15.03125 -13.546875 L 19.078125 -13.546875 Z M 19.078125 -13.15625 "/></g></g><g style="fill:#000000;fill-opacity:1;"><g transform="translate(122.859783, 360.208522)"><path style="stroke:none" d="M 9.96875 0 L 5.625 0 L 5.625 -0.3125 C 6.21875 -0.363281 6.597656 -0.5 6.765625 -0.71875 C 6.929688 -0.9375 7.015625 -1.394531 7.015625 -2.09375 L 7.015625 -6.140625 C 7.015625 -7.585938 6.503906 -8.3125 5.484375 -8.3125 C 5.085938 -8.3125 4.710938 -8.210938 4.359375 -8.015625 C 4.015625 -7.816406 3.632812 -7.484375 3.21875 -7.015625 L 3.21875 -2.09375 C 3.21875 -1.375 3.296875 -0.910156 3.453125 -0.703125 C 3.617188 -0.503906 4.003906 -0.375 4.609375 -0.3125 L 4.609375 0 L 0.1875 0 L 0.1875 -0.3125 C 0.769531 -0.394531 1.132812 -0.53125 1.28125 -0.71875 C 1.425781 -0.90625 1.5 -1.363281 1.5 -2.09375 L 1.5 -11.734375 C 1.5 -12.171875 1.429688 -12.453125 1.296875 -12.578125 C 1.171875 -12.703125 0.890625 -12.765625 0.453125 -12.765625 C 0.335938 -12.765625 0.253906 -12.757812 0.203125 -12.75 L 0.203125 -13.078125 L 0.75 -13.25 C 1.6875 -13.5 2.472656 -13.742188 3.109375 -13.984375 L 3.21875 -13.921875 L 3.21875 -7.703125 C 3.695312 -8.316406 4.164062 -8.753906 4.625 -9.015625 C 5.09375 -9.285156 5.625 -9.421875 6.21875 -9.421875 C 7.894531 -9.421875 8.734375 -8.332031 8.734375 -6.15625 L 8.734375 -2.09375 C 8.734375 -1.375 8.796875 -0.921875 8.921875 -0.734375 C 9.054688 -0.554688 9.40625 -0.414062 9.96875 -0.3125 Z M 9.96875 0 "/></g></g><g style="fill:#000000;fill-opacity:1;"><g transform="translate(133.097239, 360.208522)"><path style="stroke:none" d="M 9.046875 -0.8125 C 8.691406 -0.414062 8.378906 -0.144531 8.109375 0 C 7.847656 0.132812 7.546875 0.203125 7.203125 0.203125 C 6.785156 0.203125 6.476562 0.09375 6.28125 -0.125 C 6.082031 -0.351562 5.953125 -0.742188 5.890625 -1.296875 C 4.722656 -0.296875 3.726562 0.203125 2.90625 0.203125 C 2.28125 0.203125 1.765625 0 1.359375 -0.40625 C 0.953125 -0.8125 0.75 -1.335938 0.75 -1.984375 C 0.75 -2.722656 1 -3.316406 1.5 -3.765625 C 1.9375 -4.148438 2.375 -4.453125 2.8125 -4.671875 C 3.257812 -4.898438 4.28125 -5.335938 5.875 -5.984375 L 5.875 -7.21875 C 5.875 -8.351562 5.351562 -8.921875 4.3125 -8.921875 C 3.90625 -8.921875 3.554688 -8.820312 3.265625 -8.625 C 2.984375 -8.425781 2.84375 -8.191406 2.84375 -7.921875 C 2.84375 -7.773438 2.863281 -7.613281 2.90625 -7.4375 C 2.9375 -7.238281 2.953125 -7.128906 2.953125 -7.109375 C 2.953125 -6.867188 2.859375 -6.664062 2.671875 -6.5 C 2.484375 -6.332031 2.265625 -6.25 2.015625 -6.25 C 1.773438 -6.25 1.566406 -6.335938 1.390625 -6.515625 C 1.222656 -6.691406 1.140625 -6.894531 1.140625 -7.125 C 1.140625 -7.6875 1.421875 -8.195312 1.984375 -8.65625 C 2.597656 -9.164062 3.460938 -9.421875 4.578125 -9.421875 C 5.847656 -9.421875 6.703125 -9.023438 7.140625 -8.234375 C 7.398438 -7.804688 7.53125 -7.109375 7.53125 -6.140625 L 7.53125 -2.15625 C 7.53125 -1.695312 7.570312 -1.382812 7.65625 -1.21875 C 7.75 -1.050781 7.910156 -0.96875 8.140625 -0.96875 C 8.429688 -0.96875 8.734375 -1.09375 9.046875 -1.34375 Z M 5.875 -2.515625 L 5.875 -5.484375 C 4.644531 -5.035156 3.785156 -4.597656 3.296875 -4.171875 C 2.804688 -3.753906 2.5625 -3.242188 2.5625 -2.640625 L 2.5625 -2.5625 C 2.5625 -2.125 2.6875 -1.75 2.9375 -1.4375 C 3.1875 -1.132812 3.488281 -0.984375 3.84375 -0.984375 C 4.320312 -0.984375 4.820312 -1.132812 5.34375 -1.4375 C 5.5625 -1.570312 5.703125 -1.707031 5.765625 -1.84375 C 5.835938 -1.976562 5.875 -2.203125 5.875 -2.515625 Z M 5.875 -2.515625 "/></g></g><g style="fill:#000000;fill-opacity:1;"><g transform="translate(142.188108, 360.208522)"><path style="stroke:none" d="M 5.703125 -1.34375 C 5.054688 -0.3125 4.234375 0.203125 3.234375 0.203125 C 2.035156 0.203125 1.4375 -0.660156 1.4375 -2.390625 L 1.4375 -8.5625 L 0.34375 -8.5625 C 0.289062 -8.601562 0.265625 -8.648438 0.265625 -8.703125 C 0.265625 -8.804688 0.378906 -8.9375 0.609375 -9.09375 C 1.171875 -9.414062 1.832031 -10.144531 2.59375 -11.28125 C 2.789062 -11.519531 2.929688 -11.707031 3.015625 -11.84375 C 3.109375 -11.84375 3.15625 -11.753906 3.15625 -11.578125 L 3.15625 -9.203125 L 5.21875 -9.203125 L 5.21875 -8.5625 L 3.15625 -8.5625 L 3.15625 -2.703125 C 3.15625 -2.046875 3.234375 -1.570312 3.390625 -1.28125 C 3.554688 -1 3.832031 -0.859375 4.21875 -0.859375 C 4.625 -0.859375 5.03125 -1.097656 5.4375 -1.578125 Z M 5.703125 -1.34375 "/></g></g><g style="fill:#000000;fill-opacity:1;"><g transform="translate(147.88014, 360.208522)"><path style="stroke:none" d=""/></g></g><g style="fill:#000000;fill-opacity:1;"><g transform="translate(152.998878, 360.208522)"><path style="stroke:none" d="M 9.046875 -0.8125 C 8.691406 -0.414062 8.378906 -0.144531 8.109375 0 C 7.847656 0.132812 7.546875 0.203125 7.203125 0.203125 C 6.785156 0.203125 6.476562 0.09375 6.28125 -0.125 C 6.082031 -0.351562 5.953125 -0.742188 5.890625 -1.296875 C 4.722656 -0.296875 3.726562 0.203125 2.90625 0.203125 C 2.28125 0.203125 1.765625 0 1.359375 -0.40625 C 0.953125 -0.8125 0.75 -1.335938 0.75 -1.984375 C 0.75 -2.722656 1 -3.316406 1.5 -3.765625 C 1.9375 -4.148438 2.375 -4.453125 2.8125 -4.671875 C 3.257812 -4.898438 4.28125 -5.335938 5.875 -5.984375 L 5.875 -7.21875 C 5.875 -8.351562 5.351562 -8.921875 4.3125 -8.921875 C 3.90625 -8.921875 3.554688 -8.820312 3.265625 -8.625 C 2.984375 -8.425781 2.84375 -8.191406 2.84375 -7.921875 C 2.84375 -7.773438 2.863281 -7.613281 2.90625 -7.4375 C 2.9375 -7.238281 2.953125 -7.128906 2.953125 -7.109375 C 2.953125 -6.867188 2.859375 -6.664062 2.671875 -6.5 C 2.484375 -6.332031 2.265625 -6.25 2.015625 -6.25 C 1.773438 -6.25 1.566406 -6.335938 1.390625 -6.515625 C 1.222656 -6.691406 1.140625 -6.894531 1.140625 -7.125 C 1.140625 -7.6875 1.421875 -8.195312 1.984375 -8.65625 C 2.597656 -9.164062 3.460938 -9.421875 4.578125 -9.421875 C 5.847656 -9.421875 6.703125 -9.023438 7.140625 -8.234375 C 7.398438 -7.804688 7.53125 -7.109375 7.53125 -6.140625 L 7.53125 -2.15625 C 7.53125 -1.695312 7.570312 -1.382812 7.65625 -1.21875 C 7.75 -1.050781 7.910156 -0.96875 8.140625 -0.96875 C 8.429688 -0.96875 8.734375 -1.09375 9.046875 -1.34375 Z M 5.875 -2.515625 L 5.875 -5.484375 C 4.644531 -5.035156 3.785156 -4.597656 3.296875 -4.171875 C 2.804688 -3.753906 2.5625 -3.242188 2.5625 -2.640625 L 2.5625 -2.5625 C 2.5625 -2.125 2.6875 -1.75 2.9375 -1.4375 C 3.1875 -1.132812 3.488281 -0.984375 3.84375 -0.984375 C 4.320312 -0.984375 4.820312 -1.132812 5.34375 -1.4375 C 5.5625 -1.570312 5.703125 -1.707031 5.765625 -1.84375 C 5.835938 -1.976562 5.875 -2.203125 5.875 -2.515625 Z M 5.875 -2.515625 "/></g></g><g style="fill:#000000;fill-opacity:1;"><g transform="translate(162.089747, 360.208522)"><path style="stroke:none" d="M 9.578125 -4.96875 C 9.578125 -3.507812 9.113281 -2.28125 8.1875 -1.28125 C 7.269531 -0.289062 6.140625 0.203125 4.796875 0.203125 C 3.972656 0.203125 3.203125 0.0625 2.484375 -0.21875 C 1.765625 -0.5 1.40625 -0.796875 1.40625 -1.109375 L 1.40625 -11.734375 C 1.40625 -12.148438 1.335938 -12.425781 1.203125 -12.5625 C 1.078125 -12.695312 0.8125 -12.765625 0.40625 -12.765625 C 0.257812 -12.765625 0.144531 -12.757812 0.0625 -12.75 L 0.0625 -13.078125 L 0.65625 -13.25 C 1.570312 -13.5 2.363281 -13.742188 3.03125 -13.984375 L 3.125 -13.9375 L 3.125 -7.671875 C 3.332031 -8.179688 3.703125 -8.597656 4.234375 -8.921875 C 4.765625 -9.253906 5.347656 -9.421875 5.984375 -9.421875 C 7.003906 -9.421875 7.859375 -8.992188 8.546875 -8.140625 C 9.234375 -7.285156 9.578125 -6.226562 9.578125 -4.96875 Z M 7.78125 -4.03125 C 7.78125 -5.269531 7.539062 -6.257812 7.0625 -7 C 6.59375 -7.75 5.957031 -8.125 5.15625 -8.125 C 4.625 -8.125 4.148438 -7.96875 3.734375 -7.65625 C 3.328125 -7.34375 3.125 -6.988281 3.125 -6.59375 L 3.125 -1.4375 C 3.125 -1.175781 3.320312 -0.945312 3.71875 -0.75 C 4.113281 -0.550781 4.578125 -0.453125 5.109375 -0.453125 C 5.960938 -0.453125 6.617188 -0.765625 7.078125 -1.390625 C 7.546875 -2.015625 7.78125 -2.894531 7.78125 -4.03125 Z M 7.78125 -4.03125 "/></g></g><g style="fill:#000000;fill-opacity:1;"><g transform="translate(172.327204, 360.208522)"><path style="stroke:none" d="M 9.625 -4.796875 C 9.625 -3.367188 9.1875 -2.175781 8.3125 -1.21875 C 7.4375 -0.269531 6.359375 0.203125 5.078125 0.203125 C 3.796875 0.203125 2.726562 -0.253906 1.875 -1.171875 C 1.019531 -2.097656 0.59375 -3.25 0.59375 -4.625 C 0.59375 -6.03125 1.007812 -7.179688 1.84375 -8.078125 C 2.6875 -8.972656 3.773438 -9.421875 5.109375 -9.421875 C 6.421875 -9.421875 7.5 -8.984375 8.34375 -8.109375 C 9.195312 -7.234375 9.625 -6.128906 9.625 -4.796875 Z M 7.78125 -4.078125 C 7.78125 -5.484375 7.503906 -6.628906 6.953125 -7.515625 C 6.410156 -8.398438 5.707031 -8.84375 4.84375 -8.84375 C 4.125 -8.84375 3.539062 -8.546875 3.09375 -7.953125 C 2.65625 -7.367188 2.4375 -6.59375 2.4375 -5.625 C 2.4375 -4.113281 2.738281 -2.796875 3.34375 -1.671875 C 3.800781 -0.804688 4.460938 -0.375 5.328125 -0.375 C 6.085938 -0.375 6.6875 -0.695312 7.125 -1.34375 C 7.5625 -2 7.78125 -2.910156 7.78125 -4.078125 Z M 7.78125 -4.078125 "/></g></g><g style="fill:#000000;fill-opacity:1;"><g transform="translate(182.564661, 360.208522)"><path style="stroke:none" d="M 9.796875 -0.734375 C 8.734375 -0.453125 7.800781 -0.144531 7 0.1875 L 6.921875 0.140625 L 6.921875 -1.5625 L 6.03125 -0.671875 C 5.445312 -0.0859375 4.75 0.203125 3.9375 0.203125 C 3.175781 0.203125 2.570312 -0.0351562 2.125 -0.515625 C 1.675781 -1.003906 1.453125 -1.648438 1.453125 -2.453125 L 1.453125 -7.609375 C 1.453125 -8.085938 1.363281 -8.421875 1.1875 -8.609375 C 1.007812 -8.796875 0.675781 -8.898438 0.1875 -8.921875 L 0.1875 -9.203125 L 3.171875 -9.203125 L 3.171875 -2.53125 C 3.171875 -2.113281 3.3125 -1.75 3.59375 -1.4375 C 3.882812 -1.132812 4.226562 -0.984375 4.625 -0.984375 C 5.28125 -0.984375 5.894531 -1.226562 6.46875 -1.71875 C 6.695312 -1.894531 6.8125 -2.242188 6.8125 -2.765625 L 6.8125 -7.578125 C 6.8125 -8.078125 6.71875 -8.410156 6.53125 -8.578125 C 6.351562 -8.742188 5.941406 -8.835938 5.296875 -8.859375 L 5.296875 -9.203125 L 8.53125 -9.203125 L 8.53125 -2.1875 C 8.53125 -1.707031 8.609375 -1.390625 8.765625 -1.234375 C 8.921875 -1.085938 9.234375 -1.015625 9.703125 -1.015625 L 9.796875 -1.015625 Z M 9.796875 -0.734375 "/></g></g><g style="fill:#000000;fill-opacity:1;"><g transform="translate(192.802118, 360.208522)"><path style="stroke:none" d="M 5.703125 -1.34375 C 5.054688 -0.3125 4.234375 0.203125 3.234375 0.203125 C 2.035156 0.203125 1.4375 -0.660156 1.4375 -2.390625 L 1.4375 -8.5625 L 0.34375 -8.5625 C 0.289062 -8.601562 0.265625 -8.648438 0.265625 -8.703125 C 0.265625 -8.804688 0.378906 -8.9375 0.609375 -9.09375 C 1.171875 -9.414062 1.832031 -10.144531 2.59375 -11.28125 C 2.789062 -11.519531 2.929688 -11.707031 3.015625 -11.84375 C 3.109375 -11.84375 3.15625 -11.753906 3.15625 -11.578125 L 3.15625 -9.203125 L 5.21875 -9.203125 L 5.21875 -8.5625 L 3.15625 -8.5625 L 3.15625 -2.703125 C 3.15625 -2.046875 3.234375 -1.570312 3.390625 -1.28125 C 3.554688 -1 3.832031 -0.859375 4.21875 -0.859375 C 4.625 -0.859375 5.03125 -1.097656 5.4375 -1.578125 Z M 5.703125 -1.34375 "/></g></g><g style="fill:#000000;fill-opacity:1;"><g transform="translate(198.49415, 360.208522)"><path style="stroke:none" d=""/></g></g><g style="fill:#000000;fill-opacity:1;"><g transform="translate(203.612888, 360.208522)"><path style="stroke:none" d="M 14.015625 -6.84375 C 14.015625 -4.757812 13.320312 -3.085938 11.9375 -1.828125 C 11.300781 -1.253906 10.472656 -0.804688 9.453125 -0.484375 C 8.429688 -0.160156 7.328125 0 6.140625 0 L 0.328125 0 L 0.328125 -0.390625 C 1.109375 -0.441406 1.601562 -0.578125 1.8125 -0.796875 C 2.019531 -1.015625 2.125 -1.492188 2.125 -2.234375 L 2.125 -11.3125 C 2.125 -12.0625 2.023438 -12.539062 1.828125 -12.75 C 1.628906 -12.957031 1.128906 -13.09375 0.328125 -13.15625 L 0.328125 -13.546875 L 5.859375 -13.546875 C 8.734375 -13.546875 10.875 -12.832031 12.28125 -11.40625 C 13.4375 -10.238281 14.015625 -8.71875 14.015625 -6.84375 Z M 11.796875 -6.6875 C 11.796875 -8.957031 10.984375 -10.648438 9.359375 -11.765625 C 8.390625 -12.453125 7.03125 -12.796875 5.28125 -12.796875 C 4.851562 -12.796875 4.566406 -12.738281 4.421875 -12.625 C 4.285156 -12.519531 4.21875 -12.3125 4.21875 -12 L 4.21875 -1.59375 C 4.21875 -1.269531 4.289062 -1.046875 4.4375 -0.921875 C 4.59375 -0.804688 4.875 -0.75 5.28125 -0.75 C 6.96875 -0.75 8.304688 -1.03125 9.296875 -1.59375 C 10.960938 -2.5625 11.796875 -4.257812 11.796875 -6.6875 Z M 11.796875 -6.6875 "/></g></g><g style="fill:#000000;fill-opacity:1;"><g transform="translate(218.395769, 360.208522)"><path style="stroke:none" d="M 14.453125 0 L 9.234375 0 L 9.234375 -0.390625 C 9.796875 -0.390625 10.175781 -0.453125 10.375 -0.578125 C 10.570312 -0.671875 10.671875 -0.832031 10.671875 -1.0625 C 10.671875 -1.394531 10.539062 -1.859375 10.28125 -2.453125 L 9.4375 -4.421875 L 4.078125 -4.421875 L 3.125 -2.03125 C 3.019531 -1.738281 2.96875 -1.472656 2.96875 -1.234375 C 2.96875 -0.671875 3.429688 -0.390625 4.359375 -0.390625 L 4.359375 0 L 0.3125 0 L 0.3125 -0.390625 C 0.800781 -0.421875 1.179688 -0.613281 1.453125 -0.96875 C 1.722656 -1.332031 2.1875 -2.257812 2.84375 -3.75 L 7.109375 -13.796875 L 7.515625 -13.796875 L 12.609375 -2.171875 C 12.960938 -1.398438 13.238281 -0.914062 13.4375 -0.71875 C 13.644531 -0.53125 13.984375 -0.421875 14.453125 -0.390625 Z M 9.15625 -5.265625 L 6.78125 -10.890625 L 4.421875 -5.265625 Z M 9.15625 -5.265625 "/></g></g><g style="fill:#000000;fill-opacity:1;"><g transform="translate(233.178651, 360.208522)"><path style="stroke:none" d="M 14.375 0 L 8.671875 0 L 8.671875 -0.390625 C 9.460938 -0.441406 9.960938 -0.582031 10.171875 -0.8125 C 10.378906 -1.050781 10.484375 -1.597656 10.484375 -2.453125 L 10.484375 -6.453125 L 4.28125 -6.453125 L 4.28125 -2.234375 C 4.28125 -1.503906 4.390625 -1.03125 4.609375 -0.8125 C 4.828125 -0.59375 5.316406 -0.453125 6.078125 -0.390625 L 6.078125 0 L 0.390625 0 L 0.390625 -0.390625 C 1.179688 -0.441406 1.675781 -0.582031 1.875 -0.8125 C 2.082031 -1.050781 2.1875 -1.597656 2.1875 -2.453125 L 2.1875 -11.3125 C 2.1875 -12.050781 2.082031 -12.523438 1.875 -12.734375 C 1.675781 -12.953125 1.179688 -13.09375 0.390625 -13.15625 L 0.390625 -13.546875 L 6.078125 -13.546875 L 6.078125 -13.15625 C 5.285156 -13.09375 4.785156 -12.953125 4.578125 -12.734375 C 4.378906 -12.523438 4.28125 -12.050781 4.28125 -11.3125 L 4.28125 -7.34375 L 10.484375 -7.34375 L 10.484375 -11.3125 C 10.484375 -12.050781 10.378906 -12.523438 10.171875 -12.734375 C 9.960938 -12.953125 9.460938 -13.09375 8.671875 -13.15625 L 8.671875 -13.546875 L 14.375 -13.546875 L 14.375 -13.15625 C 13.582031 -13.09375 13.082031 -12.953125 12.875 -12.734375 C 12.664062 -12.523438 12.5625 -12.050781 12.5625 -11.3125 L 12.5625 -2.234375 C 12.5625 -1.503906 12.671875 -1.03125 12.890625 -0.8125 C 13.109375 -0.59375 13.601562 -0.453125 14.375 -0.390625 Z M 14.375 0 "/></g></g><g style="fill:#000000;fill-opacity:1;"><g transform="translate(247.961532, 360.208522)"><path style="stroke:none" d="M 8.46875 -10.671875 C 8.46875 -9.890625 8.160156 -9.023438 7.546875 -8.078125 C 7.359375 -7.796875 6.953125 -7.273438 6.328125 -6.515625 C 5.640625 -5.640625 5.195312 -4.585938 5 -3.359375 L 4.640625 -3.359375 C 4.671875 -4.296875 4.878906 -5.265625 5.265625 -6.265625 L 5.828125 -7.578125 C 6.335938 -8.734375 6.59375 -9.796875 6.59375 -10.765625 C 6.59375 -11.453125 6.375 -12.03125 5.9375 -12.5 C 5.507812 -12.976562 4.988281 -13.21875 4.375 -13.21875 C 3.875 -13.21875 3.425781 -13.085938 3.03125 -12.828125 C 2.632812 -12.566406 2.4375 -12.273438 2.4375 -11.953125 C 2.4375 -11.804688 2.550781 -11.59375 2.78125 -11.3125 C 3.070312 -10.988281 3.21875 -10.695312 3.21875 -10.4375 C 3.21875 -10.195312 3.140625 -9.992188 2.984375 -9.828125 C 2.828125 -9.671875 2.625 -9.59375 2.375 -9.59375 C 1.71875 -9.59375 1.390625 -10.015625 1.390625 -10.859375 C 1.390625 -11.710938 1.707031 -12.421875 2.34375 -12.984375 C 2.976562 -13.554688 3.765625 -13.84375 4.703125 -13.84375 C 5.265625 -13.84375 5.820312 -13.734375 6.375 -13.515625 C 6.925781 -13.296875 7.378906 -13.007812 7.734375 -12.65625 C 8.222656 -12.15625 8.46875 -11.492188 8.46875 -10.671875 Z M 5.953125 -0.90625 C 5.953125 -0.59375 5.847656 -0.335938 5.640625 -0.140625 C 5.429688 0.0546875 5.160156 0.15625 4.828125 0.15625 C 4.523438 0.15625 4.269531 0.0546875 4.0625 -0.140625 C 3.863281 -0.335938 3.765625 -0.582031 3.765625 -0.875 C 3.765625 -1.207031 3.863281 -1.484375 4.0625 -1.703125 C 4.269531 -1.921875 4.53125 -2.03125 4.84375 -2.03125 C 5.144531 -2.03125 5.40625 -1.914062 5.625 -1.6875 C 5.84375 -1.457031 5.953125 -1.195312 5.953125 -0.90625 Z M 5.953125 -0.90625 "/></g></g><g style="fill:#000000;fill-opacity:1;"><g transform="translate(257.052401, 360.208522)"><path style="stroke:none" d="M 4.828125 -12.203125 C 4.828125 -12.023438 4.816406 -11.769531 4.796875 -11.4375 L 3.875 -3.609375 L 3.609375 -3.609375 L 3.421875 -5.8125 C 3.367188 -6.53125 3.25 -7.472656 3.0625 -8.640625 C 2.789062 -10.421875 2.65625 -11.628906 2.65625 -12.265625 C 2.65625 -12.742188 2.75 -13.125 2.9375 -13.40625 C 3.132812 -13.695312 3.40625 -13.84375 3.75 -13.84375 C 4.46875 -13.84375 4.828125 -13.296875 4.828125 -12.203125 Z M 4.515625 -1.671875 C 4.734375 -1.453125 4.84375 -1.1875 4.84375 -0.875 C 4.84375 -0.5625 4.738281 -0.304688 4.53125 -0.109375 C 4.320312 0.0859375 4.050781 0.1875 3.71875 0.1875 C 3.425781 0.1875 3.175781 0.0859375 2.96875 -0.109375 C 2.757812 -0.304688 2.65625 -0.5625 2.65625 -0.875 C 2.65625 -1.1875 2.757812 -1.453125 2.96875 -1.671875 C 3.1875 -1.890625 3.445312 -2 3.75 -2 C 4.050781 -2 4.304688 -1.890625 4.515625 -1.671875 Z M 4.515625 -1.671875 "/></g></g><g clip-rule="nonzero" clip-path="url(#aee2cf11f4)"><g clip-rule="nonzero" clip-path="url(#026836ea60)"><g clip-rule="nonzero" clip-path="url(#80504f7fce)"><path style=" stroke:none;fill-rule:nonzero;fill:#ffffff;fill-opacity:1;" d="M 210.996094 181.296875 C 211.152344 181.367188 211.277344 181.476562 211.375 181.613281 C 211.476562 181.753906 211.53125 181.910156 211.550781 182.078125 C 211.566406 182.25 211.539062 182.414062 211.472656 182.570312 C 211.402344 182.726562 211.300781 182.855469 211.164062 182.957031 C 202.421875 189.453125 193.328125 193.578125 184.140625 195.207031 C 176.714844 196.523438 169.351562 196.238281 162.050781 194.34375 C 149.636719 191.152344 142.027344 184.5625 141.707031 184.28125 C 141.507812 184.101562 141.398438 183.878906 141.378906 183.613281 C 141.363281 183.34375 141.441406 183.109375 141.621094 182.90625 C 141.796875 182.707031 142.019531 182.597656 142.289062 182.578125 C 142.554688 182.5625 142.789062 182.640625 142.992188 182.820312 C 143.09375 182.90625 150.644531 189.425781 162.617188 192.480469 C 173.644531 195.296875 190.820312 195.65625 210.003906 181.394531 C 210.3125 181.164062 210.644531 181.128906 210.996094 181.296875 Z M 210.996094 181.296875 "/></g></g></g><g clip-rule="nonzero" clip-path="url(#d25f918f76)"><g clip-rule="nonzero" clip-path="url(#88be2950c8)"><g clip-rule="nonzero" clip-path="url(#ef753210d8)"><path style=" stroke:none;fill-rule:nonzero;fill:#ffffff;fill-opacity:1;" d="M 324.398438 141.902344 C 324.554688 141.972656 324.679688 142.078125 324.78125 142.214844 C 324.882812 142.355469 324.941406 142.507812 324.960938 142.679688 C 324.980469 142.847656 324.957031 143.011719 324.886719 143.167969 C 324.820312 143.328125 324.71875 143.457031 324.585938 143.5625 C 315.925781 150.171875 306.886719 154.410156 297.722656 156.15625 C 290.3125 157.566406 282.945312 157.375 275.621094 155.574219 C 263.167969 152.542969 255.476562 146.046875 255.152344 145.769531 C 254.949219 145.597656 254.835938 145.375 254.816406 145.109375 C 254.796875 144.839844 254.871094 144.605469 255.046875 144.398438 C 255.222656 144.195312 255.441406 144.082031 255.710938 144.0625 C 255.976562 144.042969 256.214844 144.117188 256.417969 144.292969 C 256.519531 144.382812 264.15625 150.800781 276.164062 153.703125 C 287.226562 156.378906 304.402344 156.519531 323.40625 142.015625 C 323.714844 141.777344 324.042969 141.742188 324.398438 141.902344 Z M 324.398438 141.902344 "/></g></g></g><g clip-rule="nonzero" clip-path="url(#960fae7fc8)"><g clip-rule="nonzero" clip-path="url(#ba918cc883)"><g clip-rule="nonzero" clip-path="url(#a8fedea240)"><path style=" stroke:none;fill-rule:nonzero;fill:#ffffff;fill-opacity:1;" d="M 154.628906 47.046875 C 154.78125 47.128906 154.898438 47.242188 154.988281 47.386719 C 155.078125 47.53125 155.128906 47.691406 155.132812 47.863281 C 155.140625 48.03125 155.105469 48.195312 155.027344 48.347656 C 154.949219 48.496094 154.839844 48.621094 154.695312 48.714844 C 145.582031 54.679688 136.257812 58.25 126.992188 59.328125 C 119.5 60.199219 112.164062 59.472656 104.988281 57.144531 C 92.789062 53.21875 85.589844 46.183594 85.285156 45.882812 C 85.097656 45.695312 85 45.464844 85 45.195312 C 84.996094 44.929688 85.089844 44.699219 85.28125 44.507812 C 85.46875 44.316406 85.699219 44.222656 85.964844 44.21875 C 86.234375 44.21875 86.464844 44.3125 86.65625 44.5 C 86.75 44.597656 93.902344 51.554688 105.667969 55.316406 C 116.507812 58.789062 133.628906 60.175781 153.632812 47.085938 C 153.957031 46.875 154.289062 46.859375 154.628906 47.046875 Z M 154.628906 47.046875 "/></g></g></g><g clip-rule="nonzero" clip-path="url(#0d3c58acc9)"><g clip-rule="nonzero" clip-path="url(#4244ee1487)"><g clip-rule="nonzero" clip-path="url(#48f4e3ca30)"><path style=" stroke:none;fill-rule:nonzero;fill:#ffffff;fill-opacity:1;" d="M 267.898438 44.007812 C 268.058594 44.074219 268.1875 44.179688 268.289062 44.316406 C 268.390625 44.453125 268.453125 44.605469 268.472656 44.773438 C 268.496094 44.945312 268.472656 45.109375 268.40625 45.265625 C 268.34375 45.425781 268.242188 45.558594 268.109375 45.664062 C 259.542969 52.390625 250.5625 56.753906 241.425781 58.625 C 234.035156 60.140625 226.664062 60.046875 219.316406 58.347656 C 206.820312 55.488281 199.042969 49.101562 198.714844 48.828125 C 198.507812 48.65625 198.394531 48.4375 198.367188 48.171875 C 198.34375 47.902344 198.417969 47.667969 198.589844 47.460938 C 198.761719 47.253906 198.980469 47.136719 199.25 47.113281 C 199.515625 47.089844 199.753906 47.164062 199.960938 47.335938 C 200.0625 47.421875 207.785156 53.734375 219.832031 56.472656 C 230.933594 58.992188 248.109375 58.898438 266.910156 44.132812 C 267.214844 43.894531 267.542969 43.851562 267.898438 44.007812 Z M 267.898438 44.007812 "/></g></g></g></g></svg>