<svg xmlns="http://www.w3.org/2000/svg" xmlns:xlink="http://www.w3.org/1999/xlink" width="487" zoomAndPan="magnify" viewBox="0 0 365.25 425.249985" height="567" preserveAspectRatio="xMidYMid meet" version="1.0"><defs><g/><clipPath id="25c5571785"><path d="M 75.546875 74.90625 L 288.855469 74.90625 L 288.855469 288.21875 L 75.546875 288.21875 Z M 75.546875 74.90625 " clip-rule="nonzero"/></clipPath><clipPath id="18354547bd"><path d="M 153.863281 127.808594 L 175.167969 127.808594 L 175.167969 149.109375 L 153.863281 149.109375 Z M 153.863281 127.808594 " clip-rule="nonzero"/></clipPath><clipPath id="85e5411be7"><path d="M 164.515625 127.808594 C 158.632812 127.808594 153.863281 132.574219 153.863281 138.457031 C 153.863281 144.339844 158.632812 149.109375 164.515625 149.109375 C 170.398438 149.109375 175.167969 144.339844 175.167969 138.457031 C 175.167969 132.574219 170.398438 127.808594 164.515625 127.808594 " clip-rule="nonzero"/></clipPath><clipPath id="7e6bfa19ab"><path d="M 186.5625 127.808594 L 207.863281 127.808594 L 207.863281 149.109375 L 186.5625 149.109375 Z M 186.5625 127.808594 " clip-rule="nonzero"/></clipPath><clipPath id="988610fe05"><path d="M 197.214844 127.808594 C 191.332031 127.808594 186.5625 132.574219 186.5625 138.457031 C 186.5625 144.339844 191.332031 149.109375 197.214844 149.109375 C 203.097656 149.109375 207.863281 144.339844 207.863281 138.457031 C 207.863281 132.574219 203.097656 127.808594 197.214844 127.808594 " clip-rule="nonzero"/></clipPath></defs><g clip-path="url(#25c5571785)"><path fill="#000000" d="M 182.203125 74.90625 C 123.394531 74.90625 75.546875 122.757812 75.546875 181.5625 C 75.546875 240.371094 123.394531 288.21875 182.203125 288.21875 C 241.007812 288.21875 288.855469 240.371094 288.855469 181.5625 C 288.855469 122.757812 241.007812 74.90625 182.203125 74.90625 Z M 122.300781 253.03125 C 123.292969 220.8125 149.746094 194.894531 182.203125 194.894531 C 214.65625 194.894531 241.109375 220.8125 242.101562 253.03125 C 225.875 266.648438 204.992188 274.886719 182.203125 274.886719 C 159.410156 274.886719 138.527344 266.648438 122.300781 253.03125 Z M 148.871094 148.234375 C 148.871094 129.855469 163.824219 114.902344 182.203125 114.902344 C 200.578125 114.902344 215.53125 129.855469 215.53125 148.234375 C 215.53125 166.613281 200.578125 181.5625 182.203125 181.5625 C 163.824219 181.5625 148.871094 166.613281 148.871094 148.234375 Z M 254.152344 240.925781 C 249.328125 216.007812 231.851562 195.609375 208.699219 186.589844 C 220.863281 178.164062 228.863281 164.117188 228.863281 148.234375 C 228.863281 122.507812 207.925781 101.570312 182.203125 101.570312 C 156.476562 101.570312 135.539062 122.507812 135.539062 148.234375 C 135.539062 164.117188 143.539062 178.164062 155.703125 186.597656 C 132.554688 195.617188 115.074219 216.011719 110.242188 240.929688 C 96.902344 224.785156 88.878906 204.09375 88.878906 181.5625 C 88.878906 130.101562 130.738281 88.238281 182.203125 88.238281 C 233.664062 88.238281 275.523438 130.101562 275.523438 181.5625 C 275.523438 204.09375 267.5 224.785156 254.152344 240.925781 Z M 254.152344 240.925781 " fill-opacity="1" fill-rule="nonzero"/></g><g fill="#000000" fill-opacity="1"><g transform="translate(118.264879, 342.601504)"><g><path d="M 17.75 -14.734375 L 17.03125 -14.734375 C 16.695312 -16.390625 16.242188 -17.441406 15.671875 -17.890625 C 15.097656 -18.335938 13.96875 -18.5625 12.28125 -18.5625 L 10.65625 -18.5625 L 10.65625 -3.265625 C 10.65625 -2.160156 10.820312 -1.445312 11.15625 -1.125 C 11.5 -0.8125 12.289062 -0.625 13.53125 -0.5625 L 13.53125 0 L 4.796875 0 L 4.796875 -0.5625 C 6.023438 -0.644531 6.800781 -0.847656 7.125 -1.171875 C 7.445312 -1.503906 7.609375 -2.3125 7.609375 -3.59375 L 7.609375 -18.5625 L 5.984375 -18.5625 C 4.304688 -18.5625 3.179688 -18.332031 2.609375 -17.875 C 2.046875 -17.414062 1.585938 -16.367188 1.234375 -14.734375 L 0.515625 -14.734375 L 0.6875 -19.8125 L 17.578125 -19.8125 Z M 17.75 -14.734375 "/></g></g></g><g fill="#000000" fill-opacity="1"><g transform="translate(136.550215, 342.601504)"><g><path d="M 14.578125 0 L 8.234375 0 L 8.234375 -0.453125 C 9.085938 -0.523438 9.640625 -0.722656 9.890625 -1.046875 C 10.140625 -1.367188 10.265625 -2.035156 10.265625 -3.046875 L 10.265625 -8.984375 C 10.265625 -11.097656 9.515625 -12.15625 8.015625 -12.15625 C 7.441406 -12.15625 6.898438 -12.007812 6.390625 -11.71875 C 5.878906 -11.425781 5.316406 -10.941406 4.703125 -10.265625 L 4.703125 -3.046875 C 4.703125 -2.015625 4.820312 -1.347656 5.0625 -1.046875 C 5.300781 -0.742188 5.859375 -0.546875 6.734375 -0.453125 L 6.734375 0 L 0.265625 0 L 0.265625 -0.453125 C 1.128906 -0.566406 1.664062 -0.765625 1.875 -1.046875 C 2.082031 -1.328125 2.1875 -1.992188 2.1875 -3.046875 L 2.1875 -17.15625 C 2.1875 -17.789062 2.085938 -18.203125 1.890625 -18.390625 C 1.703125 -18.585938 1.289062 -18.6875 0.65625 -18.6875 C 0.5 -18.6875 0.378906 -18.675781 0.296875 -18.65625 L 0.296875 -19.125 L 1.109375 -19.375 C 2.460938 -19.75 3.609375 -20.109375 4.546875 -20.453125 L 4.703125 -20.359375 L 4.703125 -11.25 C 5.398438 -12.15625 6.085938 -12.800781 6.765625 -13.1875 C 7.441406 -13.570312 8.21875 -13.765625 9.09375 -13.765625 C 11.550781 -13.765625 12.78125 -12.179688 12.78125 -9.015625 L 12.78125 -3.046875 C 12.78125 -2.015625 12.875 -1.363281 13.0625 -1.09375 C 13.257812 -0.820312 13.765625 -0.609375 14.578125 -0.453125 Z M 14.578125 0 "/></g></g></g><g fill="#000000" fill-opacity="1"><g transform="translate(151.513663, 342.601504)"><g><path d="M 7.578125 0 L 0.484375 0 L 0.484375 -0.453125 C 1.515625 -0.503906 2.164062 -0.679688 2.4375 -0.984375 C 2.707031 -1.285156 2.84375 -1.972656 2.84375 -3.046875 L 2.84375 -10 C 2.84375 -10.65625 2.765625 -11.117188 2.609375 -11.390625 C 2.460938 -11.660156 2.210938 -11.796875 1.859375 -11.796875 C 1.535156 -11.796875 1.195312 -11.765625 0.84375 -11.703125 L 0.59375 -11.671875 L 0.59375 -12.125 L 5.234375 -13.765625 L 5.359375 -13.6875 L 5.359375 -3.046875 C 5.359375 -1.972656 5.484375 -1.289062 5.734375 -1 C 5.984375 -0.707031 6.597656 -0.523438 7.578125 -0.453125 Z M 5.625 -17.65625 C 5.625 -17.21875 5.476562 -16.851562 5.1875 -16.5625 C 4.90625 -16.28125 4.539062 -16.140625 4.09375 -16.140625 C 3.675781 -16.140625 3.316406 -16.28125 3.015625 -16.5625 C 2.722656 -16.851562 2.578125 -17.21875 2.578125 -17.65625 C 2.578125 -18.082031 2.722656 -18.441406 3.015625 -18.734375 C 3.316406 -19.035156 3.675781 -19.1875 4.09375 -19.1875 C 4.539062 -19.1875 4.90625 -19.035156 5.1875 -18.734375 C 5.476562 -18.441406 5.625 -18.082031 5.625 -17.65625 Z M 5.625 -17.65625 "/></g></g></g><g fill="#000000" fill-opacity="1"><g transform="translate(159.833337, 342.601504)"><g><path d="M 10.421875 -3.53125 C 10.421875 -2.488281 10.003906 -1.585938 9.171875 -0.828125 C 8.347656 -0.078125 7.367188 0.296875 6.234375 0.296875 C 5.691406 0.296875 4.953125 0.195312 4.015625 0 C 3.367188 -0.15625 2.910156 -0.234375 2.640625 -0.234375 C 2.335938 -0.234375 2.109375 -0.113281 1.953125 0.125 L 1.5625 0.125 L 1.5625 -4.546875 L 2.03125 -4.546875 C 2.375 -3.035156 2.832031 -1.957031 3.40625 -1.3125 C 3.988281 -0.675781 4.800781 -0.359375 5.84375 -0.359375 C 6.59375 -0.359375 7.191406 -0.550781 7.640625 -0.9375 C 8.097656 -1.332031 8.328125 -1.859375 8.328125 -2.515625 C 8.328125 -3.410156 7.804688 -4.160156 6.765625 -4.765625 L 5.03125 -5.75 C 3.75 -6.488281 2.84375 -7.179688 2.3125 -7.828125 C 1.789062 -8.472656 1.53125 -9.21875 1.53125 -10.0625 C 1.53125 -11.15625 1.910156 -12.039062 2.671875 -12.71875 C 3.441406 -13.394531 4.4375 -13.734375 5.65625 -13.734375 C 6.394531 -13.734375 7.070312 -13.613281 7.6875 -13.375 C 7.988281 -13.238281 8.257812 -13.171875 8.5 -13.171875 C 8.582031 -13.171875 8.722656 -13.25 8.921875 -13.40625 L 8.984375 -13.46875 L 9.3125 -13.46875 L 9.4375 -9.40625 L 8.984375 -9.40625 C 8.640625 -10.738281 8.21875 -11.679688 7.71875 -12.234375 C 7.21875 -12.796875 6.539062 -13.078125 5.6875 -13.078125 C 4.988281 -13.078125 4.429688 -12.890625 4.015625 -12.515625 C 3.597656 -12.148438 3.390625 -11.660156 3.390625 -11.046875 C 3.390625 -10.191406 3.816406 -9.515625 4.671875 -9.015625 L 7.90625 -7.09375 C 8.820312 -6.550781 9.46875 -6.007812 9.84375 -5.46875 C 10.226562 -4.9375 10.421875 -4.289062 10.421875 -3.53125 Z M 10.421875 -3.53125 "/></g></g></g><g fill="#000000" fill-opacity="1"><g transform="translate(171.474898, 342.601504)"><g/></g></g><g fill="#000000" fill-opacity="1"><g transform="translate(178.956616, 342.601504)"><g><path d="M 7.578125 0 L 0.484375 0 L 0.484375 -0.453125 C 1.515625 -0.503906 2.164062 -0.679688 2.4375 -0.984375 C 2.707031 -1.285156 2.84375 -1.972656 2.84375 -3.046875 L 2.84375 -10 C 2.84375 -10.65625 2.765625 -11.117188 2.609375 -11.390625 C 2.460938 -11.660156 2.210938 -11.796875 1.859375 -11.796875 C 1.535156 -11.796875 1.195312 -11.765625 0.84375 -11.703125 L 0.59375 -11.671875 L 0.59375 -12.125 L 5.234375 -13.765625 L 5.359375 -13.6875 L 5.359375 -3.046875 C 5.359375 -1.972656 5.484375 -1.289062 5.734375 -1 C 5.984375 -0.707031 6.597656 -0.523438 7.578125 -0.453125 Z M 5.625 -17.65625 C 5.625 -17.21875 5.476562 -16.851562 5.1875 -16.5625 C 4.90625 -16.28125 4.539062 -16.140625 4.09375 -16.140625 C 3.675781 -16.140625 3.316406 -16.28125 3.015625 -16.5625 C 2.722656 -16.851562 2.578125 -17.21875 2.578125 -17.65625 C 2.578125 -18.082031 2.722656 -18.441406 3.015625 -18.734375 C 3.316406 -19.035156 3.675781 -19.1875 4.09375 -19.1875 C 4.539062 -19.1875 4.90625 -19.035156 5.1875 -18.734375 C 5.476562 -18.441406 5.625 -18.082031 5.625 -17.65625 Z M 5.625 -17.65625 "/></g></g></g><g fill="#000000" fill-opacity="1"><g transform="translate(187.27629, 342.601504)"><g><path d="M 10.421875 -3.53125 C 10.421875 -2.488281 10.003906 -1.585938 9.171875 -0.828125 C 8.347656 -0.078125 7.367188 0.296875 6.234375 0.296875 C 5.691406 0.296875 4.953125 0.195312 4.015625 0 C 3.367188 -0.15625 2.910156 -0.234375 2.640625 -0.234375 C 2.335938 -0.234375 2.109375 -0.113281 1.953125 0.125 L 1.5625 0.125 L 1.5625 -4.546875 L 2.03125 -4.546875 C 2.375 -3.035156 2.832031 -1.957031 3.40625 -1.3125 C 3.988281 -0.675781 4.800781 -0.359375 5.84375 -0.359375 C 6.59375 -0.359375 7.191406 -0.550781 7.640625 -0.9375 C 8.097656 -1.332031 8.328125 -1.859375 8.328125 -2.515625 C 8.328125 -3.410156 7.804688 -4.160156 6.765625 -4.765625 L 5.03125 -5.75 C 3.75 -6.488281 2.84375 -7.179688 2.3125 -7.828125 C 1.789062 -8.472656 1.53125 -9.21875 1.53125 -10.0625 C 1.53125 -11.15625 1.910156 -12.039062 2.671875 -12.71875 C 3.441406 -13.394531 4.4375 -13.734375 5.65625 -13.734375 C 6.394531 -13.734375 7.070312 -13.613281 7.6875 -13.375 C 7.988281 -13.238281 8.257812 -13.171875 8.5 -13.171875 C 8.582031 -13.171875 8.722656 -13.25 8.921875 -13.40625 L 8.984375 -13.46875 L 9.3125 -13.46875 L 9.4375 -9.40625 L 8.984375 -9.40625 C 8.640625 -10.738281 8.21875 -11.679688 7.71875 -12.234375 C 7.21875 -12.796875 6.539062 -13.078125 5.6875 -13.078125 C 4.988281 -13.078125 4.429688 -12.890625 4.015625 -12.515625 C 3.597656 -12.148438 3.390625 -11.660156 3.390625 -11.046875 C 3.390625 -10.191406 3.816406 -9.515625 4.671875 -9.015625 L 7.90625 -7.09375 C 8.820312 -6.550781 9.46875 -6.007812 9.84375 -5.46875 C 10.226562 -4.9375 10.421875 -4.289062 10.421875 -3.53125 Z M 10.421875 -3.53125 "/></g></g></g><g fill="#000000" fill-opacity="1"><g transform="translate(198.917851, 342.601504)"><g/></g></g><g fill="#000000" fill-opacity="1"><g transform="translate(206.39957, 342.601504)"><g><path d="M 11.078125 -19.25 C 9.859375 -19.164062 9.09375 -18.96875 8.78125 -18.65625 C 8.476562 -18.351562 8.328125 -17.65625 8.328125 -16.5625 L 8.328125 -5.484375 C 8.328125 -3.609375 7.882812 -2.15625 7 -1.125 C 6.125 -0.09375 4.878906 0.421875 3.265625 0.421875 C 2.398438 0.421875 1.6875 0.222656 1.125 -0.171875 C 0.570312 -0.578125 0.296875 -1.097656 0.296875 -1.734375 C 0.296875 -2.128906 0.441406 -2.476562 0.734375 -2.78125 C 1.023438 -3.082031 1.367188 -3.234375 1.765625 -3.234375 C 2.503906 -3.234375 3.023438 -2.722656 3.328125 -1.703125 C 3.421875 -1.328125 3.523438 -1.066406 3.640625 -0.921875 C 3.765625 -0.785156 3.925781 -0.71875 4.125 -0.71875 C 4.882812 -0.71875 5.265625 -1.375 5.265625 -2.6875 L 5.265625 -16.5625 C 5.265625 -17.65625 5.101562 -18.351562 4.78125 -18.65625 C 4.46875 -18.96875 3.703125 -19.164062 2.484375 -19.25 L 2.484375 -19.8125 L 11.078125 -19.8125 Z M 11.078125 -19.25 "/></g></g></g><g fill="#000000" fill-opacity="1"><g transform="translate(218.041131, 342.601504)"><g><path d="M 14.078125 -7 C 14.078125 -4.925781 13.4375 -3.191406 12.15625 -1.796875 C 10.875 -0.398438 9.296875 0.296875 7.421875 0.296875 C 5.546875 0.296875 3.984375 -0.375 2.734375 -1.71875 C 1.492188 -3.070312 0.875 -4.753906 0.875 -6.765625 C 0.875 -8.816406 1.484375 -10.492188 2.703125 -11.796875 C 3.929688 -13.109375 5.523438 -13.765625 7.484375 -13.765625 C 9.398438 -13.765625 10.976562 -13.125 12.21875 -11.84375 C 13.457031 -10.570312 14.078125 -8.957031 14.078125 -7 Z M 11.375 -5.953125 C 11.375 -8.015625 10.972656 -9.691406 10.171875 -10.984375 C 9.378906 -12.285156 8.351562 -12.9375 7.09375 -12.9375 C 6.039062 -12.9375 5.1875 -12.503906 4.53125 -11.640625 C 3.882812 -10.785156 3.5625 -9.648438 3.5625 -8.234375 C 3.5625 -6.015625 4 -4.085938 4.875 -2.453125 C 5.550781 -1.171875 6.519531 -0.53125 7.78125 -0.53125 C 8.894531 -0.53125 9.769531 -1.007812 10.40625 -1.96875 C 11.050781 -2.925781 11.375 -4.253906 11.375 -5.953125 Z M 11.375 -5.953125 "/></g></g></g><g fill="#000000" fill-opacity="1"><g transform="translate(233.00458, 342.601504)"><g><path d="M 12.6875 -4.703125 C 11.394531 -1.367188 9.28125 0.296875 6.34375 0.296875 C 4.625 0.296875 3.257812 -0.304688 2.25 -1.515625 C 1.25 -2.722656 0.75 -4.351562 0.75 -6.40625 C 0.75 -8.582031 1.328125 -10.351562 2.484375 -11.71875 C 3.640625 -13.082031 5.144531 -13.765625 7 -13.765625 C 8.601562 -13.765625 9.882812 -13.195312 10.84375 -12.0625 C 11.5 -11.226562 11.925781 -9.972656 12.125 -8.296875 L 2.90625 -8.296875 C 2.96875 -6.597656 3.265625 -5.21875 3.796875 -4.15625 C 4.660156 -2.5625 5.921875 -1.765625 7.578125 -1.765625 C 8.535156 -1.765625 9.367188 -2.003906 10.078125 -2.484375 C 10.785156 -2.960938 11.5 -3.769531 12.21875 -4.90625 Z M 9.078125 -9.25 C 8.867188 -10.550781 8.554688 -11.445312 8.140625 -11.9375 C 7.722656 -12.4375 7.054688 -12.6875 6.140625 -12.6875 C 4.335938 -12.6875 3.28125 -11.539062 2.96875 -9.25 Z M 9.078125 -9.25 "/></g></g></g><g clip-path="url(#18354547bd)"><g clip-path="url(#85e5411be7)"><path fill="#000000" d="M 153.863281 127.808594 L 175.167969 127.808594 L 175.167969 149.109375 L 153.863281 149.109375 Z M 153.863281 127.808594 " fill-opacity="1" fill-rule="nonzero"/></g></g><g clip-path="url(#7e6bfa19ab)"><g clip-path="url(#988610fe05)"><path fill="#000000" d="M 186.5625 127.808594 L 207.863281 127.808594 L 207.863281 149.109375 L 186.5625 149.109375 Z M 186.5625 127.808594 " fill-opacity="1" fill-rule="nonzero"/></g></g></svg>