<svg xmlns="http://www.w3.org/2000/svg" xmlns:xlink="http://www.w3.org/1999/xlink" width="534" zoomAndPan="magnify" viewBox="0 0 400.5 443.249995" height="591" preserveAspectRatio="xMidYMid meet" version="1.0"><defs><g/><clipPath id="214587a2a0"><path d="M 154 152 L 226 152 L 226 170 L 154 170 Z M 154 152 " clip-rule="nonzero"/></clipPath><clipPath id="7177100d76"><path d="M 212.179688 185.589844 L 153.328125 161.15625 L 166.835938 128.617188 L 225.6875 153.046875 Z M 212.179688 185.589844 " clip-rule="nonzero"/></clipPath><clipPath id="71fd7efe0a"><path d="M 212.179688 185.589844 L 153.328125 161.15625 L 166.835938 128.617188 L 225.6875 153.046875 Z M 212.179688 185.589844 " clip-rule="nonzero"/></clipPath><clipPath id="a16346210a"><path d="M 212.179688 185.589844 L 153.328125 161.15625 L 166.835938 128.617188 L 225.6875 153.046875 Z M 212.179688 185.589844 " clip-rule="nonzero"/></clipPath><clipPath id="66d9c9f532"><path d="M 82.738281 75.179688 L 296.394531 75.179688 L 296.394531 288.832031 L 82.738281 288.832031 Z M 82.738281 75.179688 " clip-rule="nonzero"/></clipPath><clipPath id="735f80ff02"><path d="M 162.605469 128.894531 L 183.945312 128.894531 L 183.945312 150.230469 L 162.605469 150.230469 Z M 162.605469 128.894531 " clip-rule="nonzero"/></clipPath><clipPath id="25197ce6f6"><path d="M 173.273438 128.894531 C 167.382812 128.894531 162.605469 133.671875 162.605469 139.5625 C 162.605469 145.457031 167.382812 150.230469 173.273438 150.230469 C 179.167969 150.230469 183.945312 145.457031 183.945312 139.5625 C 183.945312 133.671875 179.167969 128.894531 173.273438 128.894531 " clip-rule="nonzero"/></clipPath><clipPath id="e14c4bc422"><path d="M 195.355469 128.894531 L 216.695312 128.894531 L 216.695312 150.230469 L 195.355469 150.230469 Z M 195.355469 128.894531 " clip-rule="nonzero"/></clipPath><clipPath id="d56cf7d585"><path d="M 206.023438 128.894531 C 200.132812 128.894531 195.355469 133.671875 195.355469 139.5625 C 195.355469 145.457031 200.132812 150.230469 206.023438 150.230469 C 211.917969 150.230469 216.695312 145.457031 216.695312 139.5625 C 216.695312 133.671875 211.917969 128.894531 206.023438 128.894531 " clip-rule="nonzero"/></clipPath></defs><g clip-path="url(#214587a2a0)"><g clip-path="url(#7177100d76)"><g clip-path="url(#71fd7efe0a)"><g clip-path="url(#a16346210a)"><path fill="#000000" d="M 224.734375 152.691406 C 224.894531 152.757812 225.023438 152.859375 225.128906 152.992188 C 225.234375 153.128906 225.300781 153.28125 225.324219 153.453125 C 225.351562 153.625 225.332031 153.789062 225.269531 153.949219 C 225.207031 154.109375 225.109375 154.242188 224.976562 154.351562 C 216.484375 161.269531 207.527344 165.816406 198.367188 167.863281 C 190.960938 169.519531 183.542969 169.558594 176.113281 167.980469 C 163.488281 165.332031 155.535156 159.046875 155.203125 158.78125 C 154.992188 158.609375 154.871094 158.390625 154.84375 158.125 C 154.8125 157.855469 154.882812 157.617188 155.050781 157.40625 C 155.21875 157.195312 155.4375 157.074219 155.707031 157.042969 C 155.976562 157.015625 156.214844 157.085938 156.425781 157.253906 C 156.53125 157.339844 164.425781 163.546875 176.597656 166.082031 C 187.816406 168.421875 205.101562 168.015625 223.738281 152.835938 C 224.042969 152.589844 224.375 152.539062 224.734375 152.691406 Z M 224.734375 152.691406 " fill-opacity="1" fill-rule="nonzero"/></g></g></g></g><g clip-path="url(#66d9c9f532)"><path fill="#000000" d="M 189.566406 75.179688 C 130.664062 75.179688 82.738281 123.105469 82.738281 182.007812 C 82.738281 240.90625 130.664062 288.832031 189.566406 288.832031 C 248.46875 288.832031 296.394531 240.90625 296.394531 182.007812 C 296.394531 123.105469 248.46875 75.179688 189.566406 75.179688 Z M 129.570312 253.585938 C 130.5625 221.320312 157.058594 195.359375 189.566406 195.359375 C 222.074219 195.359375 248.570312 221.320312 249.5625 253.585938 C 233.3125 267.226562 212.394531 275.480469 189.566406 275.480469 C 166.738281 275.480469 145.820312 267.226562 129.570312 253.585938 Z M 156.183594 148.621094 C 156.183594 130.214844 171.160156 115.238281 189.566406 115.238281 C 207.972656 115.238281 222.949219 130.214844 222.949219 148.621094 C 222.949219 167.03125 207.972656 182.007812 189.566406 182.007812 C 171.160156 182.007812 156.183594 167.03125 156.183594 148.621094 Z M 261.636719 241.460938 C 256.800781 216.503906 239.292969 196.074219 216.105469 187.039062 C 228.292969 178.601562 236.304688 164.53125 236.304688 148.621094 C 236.304688 122.855469 215.332031 101.886719 189.566406 101.886719 C 163.800781 101.886719 142.828125 122.855469 142.828125 148.621094 C 142.828125 164.53125 150.839844 178.601562 163.027344 187.046875 C 139.839844 196.082031 122.332031 216.511719 117.492188 241.46875 C 104.132812 225.296875 96.09375 204.574219 96.09375 182.007812 C 96.09375 130.460938 138.023438 88.53125 189.566406 88.53125 C 241.109375 88.53125 283.039062 130.460938 283.039062 182.007812 C 283.039062 204.574219 275 225.296875 261.636719 241.460938 Z M 261.636719 241.460938 " fill-opacity="1" fill-rule="nonzero"/></g><g clip-path="url(#735f80ff02)"><g clip-path="url(#25197ce6f6)"><path fill="#000000" d="M 162.605469 128.894531 L 183.945312 128.894531 L 183.945312 150.230469 L 162.605469 150.230469 Z M 162.605469 128.894531 " fill-opacity="1" fill-rule="nonzero"/></g></g><g clip-path="url(#e14c4bc422)"><g clip-path="url(#d56cf7d585)"><path fill="#000000" d="M 195.355469 128.894531 L 216.695312 128.894531 L 216.695312 150.230469 L 195.355469 150.230469 Z M 195.355469 128.894531 " fill-opacity="1" fill-rule="nonzero"/></g></g><g fill="#000000" fill-opacity="1"><g transform="translate(105.782783, 330.390072)"><g><path d="M 13.453125 -11.15625 L 12.90625 -11.15625 C 12.65625 -12.414062 12.3125 -13.210938 11.875 -13.546875 C 11.445312 -13.890625 10.585938 -14.0625 9.296875 -14.0625 L 8.078125 -14.0625 L 8.078125 -2.46875 C 8.078125 -1.632812 8.203125 -1.097656 8.453125 -0.859375 C 8.710938 -0.617188 9.3125 -0.476562 10.25 -0.4375 L 10.25 0 L 3.625 0 L 3.625 -0.4375 C 4.5625 -0.488281 5.148438 -0.640625 5.390625 -0.890625 C 5.640625 -1.140625 5.765625 -1.75 5.765625 -2.71875 L 5.765625 -14.0625 L 4.53125 -14.0625 C 3.257812 -14.0625 2.410156 -13.882812 1.984375 -13.53125 C 1.554688 -13.1875 1.207031 -12.394531 0.9375 -11.15625 L 0.390625 -11.15625 L 0.515625 -15.015625 L 13.3125 -15.015625 Z M 13.453125 -11.15625 "/></g></g></g><g fill="#000000" fill-opacity="1"><g transform="translate(119.64789, 330.390072)"><g><path d="M 11.046875 0 L 6.234375 0 L 6.234375 -0.34375 C 6.890625 -0.40625 7.3125 -0.554688 7.5 -0.796875 C 7.6875 -1.035156 7.78125 -1.539062 7.78125 -2.3125 L 7.78125 -6.8125 C 7.78125 -8.414062 7.210938 -9.21875 6.078125 -9.21875 C 5.640625 -9.21875 5.226562 -9.101562 4.84375 -8.875 C 4.457031 -8.65625 4.03125 -8.289062 3.5625 -7.78125 L 3.5625 -2.3125 C 3.5625 -1.53125 3.648438 -1.023438 3.828125 -0.796875 C 4.015625 -0.566406 4.441406 -0.414062 5.109375 -0.34375 L 5.109375 0 L 0.203125 0 L 0.203125 -0.34375 C 0.859375 -0.425781 1.265625 -0.570312 1.421875 -0.78125 C 1.578125 -1 1.65625 -1.507812 1.65625 -2.3125 L 1.65625 -13 C 1.65625 -13.476562 1.582031 -13.789062 1.4375 -13.9375 C 1.289062 -14.082031 0.976562 -14.15625 0.5 -14.15625 C 0.375 -14.15625 0.285156 -14.148438 0.234375 -14.140625 L 0.234375 -14.5 L 0.84375 -14.671875 C 1.863281 -14.960938 2.734375 -15.238281 3.453125 -15.5 L 3.5625 -15.421875 L 3.5625 -8.53125 C 4.09375 -9.207031 4.613281 -9.691406 5.125 -9.984375 C 5.644531 -10.285156 6.234375 -10.4375 6.890625 -10.4375 C 8.753906 -10.4375 9.6875 -9.234375 9.6875 -6.828125 L 9.6875 -2.3125 C 9.6875 -1.53125 9.757812 -1.035156 9.90625 -0.828125 C 10.050781 -0.617188 10.429688 -0.457031 11.046875 -0.34375 Z M 11.046875 0 "/></g></g></g><g fill="#000000" fill-opacity="1"><g transform="translate(130.994134, 330.390072)"><g><path d="M 9.625 -3.5625 C 8.632812 -1.03125 7.03125 0.234375 4.8125 0.234375 C 3.507812 0.234375 2.472656 -0.222656 1.703125 -1.140625 C 0.941406 -2.054688 0.5625 -3.296875 0.5625 -4.859375 C 0.5625 -6.503906 1 -7.84375 1.875 -8.875 C 2.757812 -9.914062 3.90625 -10.4375 5.3125 -10.4375 C 6.519531 -10.4375 7.488281 -10.003906 8.21875 -9.140625 C 8.71875 -8.503906 9.039062 -7.550781 9.1875 -6.28125 L 2.203125 -6.28125 C 2.242188 -5 2.46875 -3.957031 2.875 -3.15625 C 3.53125 -1.945312 4.484375 -1.34375 5.734375 -1.34375 C 6.460938 -1.34375 7.09375 -1.519531 7.625 -1.875 C 8.164062 -2.238281 8.707031 -2.851562 9.25 -3.71875 Z M 6.875 -7.015625 C 6.71875 -7.992188 6.476562 -8.671875 6.15625 -9.046875 C 5.84375 -9.429688 5.34375 -9.625 4.65625 -9.625 C 3.289062 -9.625 2.488281 -8.753906 2.25 -7.015625 Z M 6.875 -7.015625 "/></g></g></g><g fill="#000000" fill-opacity="1"><g transform="translate(141.069607, 330.390072)"><g><path d="M 11 0 L 6.28125 0 L 6.28125 -0.34375 C 6.851562 -0.382812 7.234375 -0.535156 7.421875 -0.796875 C 7.617188 -1.054688 7.71875 -1.539062 7.71875 -2.25 L 7.71875 -6.984375 C 7.71875 -8.453125 7.164062 -9.1875 6.0625 -9.1875 C 5.675781 -9.1875 5.320312 -9.097656 5 -8.921875 C 4.6875 -8.753906 4.257812 -8.410156 3.71875 -7.890625 L 3.71875 -1.515625 C 3.71875 -1.109375 3.820312 -0.820312 4.03125 -0.65625 C 4.25 -0.488281 4.644531 -0.382812 5.21875 -0.34375 L 5.21875 0 L 0.40625 0 L 0.40625 -0.34375 C 0.976562 -0.382812 1.351562 -0.515625 1.53125 -0.734375 C 1.71875 -0.953125 1.8125 -1.390625 1.8125 -2.046875 L 1.8125 -7.671875 C 1.8125 -8.222656 1.75 -8.601562 1.625 -8.8125 C 1.507812 -9.019531 1.289062 -9.125 0.96875 -9.125 C 0.6875 -9.125 0.484375 -9.09375 0.359375 -9.03125 L 0.359375 -9.421875 C 1.484375 -9.753906 2.53125 -10.09375 3.5 -10.4375 L 3.65625 -10.390625 L 3.65625 -8.59375 C 4.425781 -9.320312 5.03125 -9.8125 5.46875 -10.0625 C 5.914062 -10.3125 6.40625 -10.4375 6.9375 -10.4375 C 7.769531 -10.4375 8.425781 -10.132812 8.90625 -9.53125 C 9.382812 -8.9375 9.625 -8.101562 9.625 -7.03125 L 9.625 -1.84375 C 9.625 -1.28125 9.710938 -0.90625 9.890625 -0.71875 C 10.066406 -0.53125 10.4375 -0.40625 11 -0.34375 Z M 11 0 "/></g></g></g><g fill="#000000" fill-opacity="1"><g transform="translate(152.415851, 330.390072)"><g/></g></g><g fill="#000000" fill-opacity="1"><g transform="translate(158.088984, 330.390072)"><g><path d="M 8.390625 -14.59375 C 7.472656 -14.53125 6.894531 -14.378906 6.65625 -14.140625 C 6.425781 -13.910156 6.3125 -13.378906 6.3125 -12.546875 L 6.3125 -4.15625 C 6.3125 -2.726562 5.976562 -1.625 5.3125 -0.84375 C 4.644531 -0.0703125 3.695312 0.3125 2.46875 0.3125 C 1.820312 0.3125 1.285156 0.160156 0.859375 -0.140625 C 0.441406 -0.441406 0.234375 -0.832031 0.234375 -1.3125 C 0.234375 -1.613281 0.34375 -1.878906 0.5625 -2.109375 C 0.78125 -2.335938 1.039062 -2.453125 1.34375 -2.453125 C 1.894531 -2.453125 2.285156 -2.066406 2.515625 -1.296875 C 2.585938 -1.003906 2.671875 -0.804688 2.765625 -0.703125 C 2.859375 -0.597656 2.976562 -0.546875 3.125 -0.546875 C 3.707031 -0.546875 4 -1.046875 4 -2.046875 L 4 -12.546875 C 4 -13.378906 3.875 -13.910156 3.625 -14.140625 C 3.382812 -14.378906 2.804688 -14.53125 1.890625 -14.59375 L 1.890625 -15.015625 L 8.390625 -15.015625 Z M 8.390625 -14.59375 "/></g></g></g><g fill="#000000" fill-opacity="1"><g transform="translate(166.916365, 330.390072)"><g><path d="M 10.65625 -5.3125 C 10.65625 -3.738281 10.171875 -2.421875 9.203125 -1.359375 C 8.242188 -0.296875 7.050781 0.234375 5.625 0.234375 C 4.207031 0.234375 3.023438 -0.273438 2.078125 -1.296875 C 1.128906 -2.316406 0.65625 -3.59375 0.65625 -5.125 C 0.65625 -6.6875 1.117188 -7.960938 2.046875 -8.953125 C 2.984375 -9.941406 4.191406 -10.4375 5.671875 -10.4375 C 7.117188 -10.4375 8.3125 -9.953125 9.25 -8.984375 C 10.1875 -8.015625 10.65625 -6.789062 10.65625 -5.3125 Z M 8.625 -4.515625 C 8.625 -6.078125 8.320312 -7.347656 7.71875 -8.328125 C 7.113281 -9.304688 6.332031 -9.796875 5.375 -9.796875 C 4.570312 -9.796875 3.925781 -9.46875 3.4375 -8.8125 C 2.945312 -8.164062 2.703125 -7.304688 2.703125 -6.234375 C 2.703125 -4.554688 3.035156 -3.097656 3.703125 -1.859375 C 4.210938 -0.890625 4.945312 -0.40625 5.90625 -0.40625 C 6.75 -0.40625 7.410156 -0.769531 7.890625 -1.5 C 8.378906 -2.226562 8.625 -3.234375 8.625 -4.515625 Z M 8.625 -4.515625 "/></g></g></g><g fill="#000000" fill-opacity="1"><g transform="translate(178.262609, 330.390072)"><g><path d="M 9.625 -3.5625 C 8.632812 -1.03125 7.03125 0.234375 4.8125 0.234375 C 3.507812 0.234375 2.472656 -0.222656 1.703125 -1.140625 C 0.941406 -2.054688 0.5625 -3.296875 0.5625 -4.859375 C 0.5625 -6.503906 1 -7.84375 1.875 -8.875 C 2.757812 -9.914062 3.90625 -10.4375 5.3125 -10.4375 C 6.519531 -10.4375 7.488281 -10.003906 8.21875 -9.140625 C 8.71875 -8.503906 9.039062 -7.550781 9.1875 -6.28125 L 2.203125 -6.28125 C 2.242188 -5 2.46875 -3.957031 2.875 -3.15625 C 3.53125 -1.945312 4.484375 -1.34375 5.734375 -1.34375 C 6.460938 -1.34375 7.09375 -1.519531 7.625 -1.875 C 8.164062 -2.238281 8.707031 -2.851562 9.25 -3.71875 Z M 6.875 -7.015625 C 6.71875 -7.992188 6.476562 -8.671875 6.15625 -9.046875 C 5.84375 -9.429688 5.34375 -9.625 4.65625 -9.625 C 3.289062 -9.625 2.488281 -8.753906 2.25 -7.015625 Z M 6.875 -7.015625 "/></g></g></g><g fill="#000000" fill-opacity="1"><g transform="translate(188.338082, 330.390072)"><g/></g></g><g fill="#000000" fill-opacity="1"><g transform="translate(194.011215, 330.390072)"><g><path d="M 7.59375 -9.234375 C 7.59375 -8.910156 7.515625 -8.660156 7.359375 -8.484375 C 7.203125 -8.304688 6.988281 -8.21875 6.71875 -8.21875 C 6.457031 -8.21875 6.15625 -8.367188 5.8125 -8.671875 C 5.5625 -8.890625 5.363281 -9 5.21875 -9 C 4.914062 -9 4.570312 -8.78125 4.1875 -8.34375 C 3.8125 -7.90625 3.625 -7.503906 3.625 -7.140625 L 3.625 -2.046875 C 3.625 -1.390625 3.753906 -0.945312 4.015625 -0.71875 C 4.273438 -0.5 4.789062 -0.375 5.5625 -0.34375 L 5.5625 0 L 0.109375 0 L 0.109375 -0.34375 C 0.835938 -0.476562 1.285156 -0.628906 1.453125 -0.796875 C 1.628906 -0.960938 1.71875 -1.332031 1.71875 -1.90625 L 1.71875 -7.578125 C 1.71875 -8.078125 1.660156 -8.425781 1.546875 -8.625 C 1.441406 -8.832031 1.242188 -8.9375 0.953125 -8.9375 C 0.710938 -8.9375 0.445312 -8.90625 0.15625 -8.84375 L 0.15625 -9.21875 C 1.363281 -9.601562 2.484375 -10.007812 3.515625 -10.4375 L 3.625 -10.390625 L 3.625 -8.296875 C 4.1875 -9.097656 4.664062 -9.65625 5.0625 -9.96875 C 5.457031 -10.28125 5.890625 -10.4375 6.359375 -10.4375 C 6.742188 -10.4375 7.046875 -10.328125 7.265625 -10.109375 C 7.484375 -9.898438 7.59375 -9.609375 7.59375 -9.234375 Z M 7.59375 -9.234375 "/></g></g></g><g fill="#000000" fill-opacity="1"><g transform="translate(201.567825, 330.390072)"><g><path d="M 9.625 -3.5625 C 8.632812 -1.03125 7.03125 0.234375 4.8125 0.234375 C 3.507812 0.234375 2.472656 -0.222656 1.703125 -1.140625 C 0.941406 -2.054688 0.5625 -3.296875 0.5625 -4.859375 C 0.5625 -6.503906 1 -7.84375 1.875 -8.875 C 2.757812 -9.914062 3.90625 -10.4375 5.3125 -10.4375 C 6.519531 -10.4375 7.488281 -10.003906 8.21875 -9.140625 C 8.71875 -8.503906 9.039062 -7.550781 9.1875 -6.28125 L 2.203125 -6.28125 C 2.242188 -5 2.46875 -3.957031 2.875 -3.15625 C 3.53125 -1.945312 4.484375 -1.34375 5.734375 -1.34375 C 6.460938 -1.34375 7.09375 -1.519531 7.625 -1.875 C 8.164062 -2.238281 8.707031 -2.851562 9.25 -3.71875 Z M 6.875 -7.015625 C 6.71875 -7.992188 6.476562 -8.671875 6.15625 -9.046875 C 5.84375 -9.429688 5.34375 -9.625 4.65625 -9.625 C 3.289062 -9.625 2.488281 -8.753906 2.25 -7.015625 Z M 6.875 -7.015625 "/></g></g></g><g fill="#000000" fill-opacity="1"><g transform="translate(211.643297, 330.390072)"><g><path d="M 17.578125 0 L 12.609375 0 L 12.609375 -0.34375 C 13.273438 -0.414062 13.691406 -0.539062 13.859375 -0.71875 C 14.023438 -0.90625 14.109375 -1.320312 14.109375 -1.96875 L 14.109375 -6.765625 C 14.109375 -7.703125 13.988281 -8.347656 13.75 -8.703125 C 13.507812 -9.066406 13.0625 -9.25 12.40625 -9.25 C 11.40625 -9.25 10.582031 -8.789062 9.9375 -7.875 L 9.9375 -2.15625 C 9.9375 -1.445312 10.046875 -0.96875 10.265625 -0.71875 C 10.484375 -0.476562 10.921875 -0.351562 11.578125 -0.34375 L 11.578125 0 L 6.484375 0 L 6.484375 -0.34375 C 7.140625 -0.382812 7.5625 -0.503906 7.75 -0.703125 C 7.9375 -0.898438 8.03125 -1.316406 8.03125 -1.953125 L 8.03125 -6.875 C 8.03125 -8.457031 7.53125 -9.25 6.53125 -9.25 C 6.132812 -9.25 5.71875 -9.160156 5.28125 -8.984375 C 4.84375 -8.816406 4.484375 -8.601562 4.203125 -8.34375 L 3.859375 -7.921875 L 3.859375 -1.515625 C 3.859375 -1.078125 3.960938 -0.78125 4.171875 -0.625 C 4.378906 -0.46875 4.789062 -0.375 5.40625 -0.34375 L 5.40625 0 L 0.359375 0 L 0.359375 -0.34375 C 0.992188 -0.351562 1.414062 -0.460938 1.625 -0.671875 C 1.84375 -0.890625 1.953125 -1.304688 1.953125 -1.921875 L 1.953125 -7.671875 C 1.953125 -8.210938 1.894531 -8.585938 1.78125 -8.796875 C 1.664062 -9.015625 1.457031 -9.125 1.15625 -9.125 C 0.925781 -9.125 0.6875 -9.09375 0.4375 -9.03125 L 0.4375 -9.421875 C 1.519531 -9.722656 2.578125 -10.0625 3.609375 -10.4375 L 3.765625 -10.390625 L 3.765625 -8.6875 C 4.703125 -9.394531 5.394531 -9.863281 5.84375 -10.09375 C 6.300781 -10.320312 6.78125 -10.4375 7.28125 -10.4375 C 8.476562 -10.4375 9.28125 -9.800781 9.6875 -8.53125 C 10.863281 -9.800781 12.097656 -10.4375 13.390625 -10.4375 C 15.140625 -10.4375 16.015625 -9.085938 16.015625 -6.390625 L 16.015625 -1.71875 C 16.015625 -0.875 16.34375 -0.429688 17 -0.390625 L 17.578125 -0.34375 Z M 17.578125 0 "/></g></g></g><g fill="#000000" fill-opacity="1"><g transform="translate(229.29806, 330.390072)"><g><path d="M 9.625 -3.5625 C 8.632812 -1.03125 7.03125 0.234375 4.8125 0.234375 C 3.507812 0.234375 2.472656 -0.222656 1.703125 -1.140625 C 0.941406 -2.054688 0.5625 -3.296875 0.5625 -4.859375 C 0.5625 -6.503906 1 -7.84375 1.875 -8.875 C 2.757812 -9.914062 3.90625 -10.4375 5.3125 -10.4375 C 6.519531 -10.4375 7.488281 -10.003906 8.21875 -9.140625 C 8.71875 -8.503906 9.039062 -7.550781 9.1875 -6.28125 L 2.203125 -6.28125 C 2.242188 -5 2.46875 -3.957031 2.875 -3.15625 C 3.53125 -1.945312 4.484375 -1.34375 5.734375 -1.34375 C 6.460938 -1.34375 7.09375 -1.519531 7.625 -1.875 C 8.164062 -2.238281 8.707031 -2.851562 9.25 -3.71875 Z M 6.875 -7.015625 C 6.71875 -7.992188 6.476562 -8.671875 6.15625 -9.046875 C 5.84375 -9.429688 5.34375 -9.625 4.65625 -9.625 C 3.289062 -9.625 2.488281 -8.753906 2.25 -7.015625 Z M 6.875 -7.015625 "/></g></g></g><g fill="#000000" fill-opacity="1"><g transform="translate(239.373533, 330.390072)"><g><path d="M 17.578125 0 L 12.609375 0 L 12.609375 -0.34375 C 13.273438 -0.414062 13.691406 -0.539062 13.859375 -0.71875 C 14.023438 -0.90625 14.109375 -1.320312 14.109375 -1.96875 L 14.109375 -6.765625 C 14.109375 -7.703125 13.988281 -8.347656 13.75 -8.703125 C 13.507812 -9.066406 13.0625 -9.25 12.40625 -9.25 C 11.40625 -9.25 10.582031 -8.789062 9.9375 -7.875 L 9.9375 -2.15625 C 9.9375 -1.445312 10.046875 -0.96875 10.265625 -0.71875 C 10.484375 -0.476562 10.921875 -0.351562 11.578125 -0.34375 L 11.578125 0 L 6.484375 0 L 6.484375 -0.34375 C 7.140625 -0.382812 7.5625 -0.503906 7.75 -0.703125 C 7.9375 -0.898438 8.03125 -1.316406 8.03125 -1.953125 L 8.03125 -6.875 C 8.03125 -8.457031 7.53125 -9.25 6.53125 -9.25 C 6.132812 -9.25 5.71875 -9.160156 5.28125 -8.984375 C 4.84375 -8.816406 4.484375 -8.601562 4.203125 -8.34375 L 3.859375 -7.921875 L 3.859375 -1.515625 C 3.859375 -1.078125 3.960938 -0.78125 4.171875 -0.625 C 4.378906 -0.46875 4.789062 -0.375 5.40625 -0.34375 L 5.40625 0 L 0.359375 0 L 0.359375 -0.34375 C 0.992188 -0.351562 1.414062 -0.460938 1.625 -0.671875 C 1.84375 -0.890625 1.953125 -1.304688 1.953125 -1.921875 L 1.953125 -7.671875 C 1.953125 -8.210938 1.894531 -8.585938 1.78125 -8.796875 C 1.664062 -9.015625 1.457031 -9.125 1.15625 -9.125 C 0.925781 -9.125 0.6875 -9.09375 0.4375 -9.03125 L 0.4375 -9.421875 C 1.519531 -9.722656 2.578125 -10.0625 3.609375 -10.4375 L 3.765625 -10.390625 L 3.765625 -8.6875 C 4.703125 -9.394531 5.394531 -9.863281 5.84375 -10.09375 C 6.300781 -10.320312 6.78125 -10.4375 7.28125 -10.4375 C 8.476562 -10.4375 9.28125 -9.800781 9.6875 -8.53125 C 10.863281 -9.800781 12.097656 -10.4375 13.390625 -10.4375 C 15.140625 -10.4375 16.015625 -9.085938 16.015625 -6.390625 L 16.015625 -1.71875 C 16.015625 -0.875 16.34375 -0.429688 17 -0.390625 L 17.578125 -0.34375 Z M 17.578125 0 "/></g></g></g><g fill="#000000" fill-opacity="1"><g transform="translate(257.028295, 330.390072)"><g><path d="M 10.625 -5.515625 C 10.625 -3.890625 10.113281 -2.523438 9.09375 -1.421875 C 8.070312 -0.316406 6.8125 0.234375 5.3125 0.234375 C 4.40625 0.234375 3.550781 0.078125 2.75 -0.234375 C 1.957031 -0.546875 1.5625 -0.875 1.5625 -1.21875 L 1.5625 -13 C 1.5625 -13.46875 1.488281 -13.773438 1.34375 -13.921875 C 1.207031 -14.078125 0.910156 -14.15625 0.453125 -14.15625 C 0.285156 -14.15625 0.15625 -14.148438 0.0625 -14.140625 L 0.0625 -14.5 L 0.71875 -14.671875 C 1.738281 -14.960938 2.617188 -15.238281 3.359375 -15.5 L 3.46875 -15.453125 L 3.46875 -8.5 C 3.695312 -9.0625 4.101562 -9.523438 4.6875 -9.890625 C 5.28125 -10.253906 5.925781 -10.4375 6.625 -10.4375 C 7.757812 -10.4375 8.707031 -9.960938 9.46875 -9.015625 C 10.238281 -8.066406 10.625 -6.898438 10.625 -5.515625 Z M 8.625 -4.46875 C 8.625 -5.84375 8.363281 -6.941406 7.84375 -7.765625 C 7.320312 -8.585938 6.613281 -9 5.71875 -9 C 5.125 -9 4.597656 -8.828125 4.140625 -8.484375 C 3.691406 -8.140625 3.46875 -7.75 3.46875 -7.3125 L 3.46875 -1.59375 C 3.46875 -1.300781 3.6875 -1.046875 4.125 -0.828125 C 4.5625 -0.609375 5.078125 -0.5 5.671875 -0.5 C 6.609375 -0.5 7.332031 -0.847656 7.84375 -1.546875 C 8.363281 -2.242188 8.625 -3.21875 8.625 -4.46875 Z M 8.625 -4.46875 "/></g></g></g><g fill="#000000" fill-opacity="1"><g transform="translate(268.37454, 330.390072)"><g><path d="M 9.625 -3.5625 C 8.632812 -1.03125 7.03125 0.234375 4.8125 0.234375 C 3.507812 0.234375 2.472656 -0.222656 1.703125 -1.140625 C 0.941406 -2.054688 0.5625 -3.296875 0.5625 -4.859375 C 0.5625 -6.503906 1 -7.84375 1.875 -8.875 C 2.757812 -9.914062 3.90625 -10.4375 5.3125 -10.4375 C 6.519531 -10.4375 7.488281 -10.003906 8.21875 -9.140625 C 8.71875 -8.503906 9.039062 -7.550781 9.1875 -6.28125 L 2.203125 -6.28125 C 2.242188 -5 2.46875 -3.957031 2.875 -3.15625 C 3.53125 -1.945312 4.484375 -1.34375 5.734375 -1.34375 C 6.460938 -1.34375 7.09375 -1.519531 7.625 -1.875 C 8.164062 -2.238281 8.707031 -2.851562 9.25 -3.71875 Z M 6.875 -7.015625 C 6.71875 -7.992188 6.476562 -8.671875 6.15625 -9.046875 C 5.84375 -9.429688 5.34375 -9.625 4.65625 -9.625 C 3.289062 -9.625 2.488281 -8.753906 2.25 -7.015625 Z M 6.875 -7.015625 "/></g></g></g><g fill="#000000" fill-opacity="1"><g transform="translate(278.450012, 330.390072)"><g><path d="M 7.59375 -9.234375 C 7.59375 -8.910156 7.515625 -8.660156 7.359375 -8.484375 C 7.203125 -8.304688 6.988281 -8.21875 6.71875 -8.21875 C 6.457031 -8.21875 6.15625 -8.367188 5.8125 -8.671875 C 5.5625 -8.890625 5.363281 -9 5.21875 -9 C 4.914062 -9 4.570312 -8.78125 4.1875 -8.34375 C 3.8125 -7.90625 3.625 -7.503906 3.625 -7.140625 L 3.625 -2.046875 C 3.625 -1.390625 3.753906 -0.945312 4.015625 -0.71875 C 4.273438 -0.5 4.789062 -0.375 5.5625 -0.34375 L 5.5625 0 L 0.109375 0 L 0.109375 -0.34375 C 0.835938 -0.476562 1.285156 -0.628906 1.453125 -0.796875 C 1.628906 -0.960938 1.71875 -1.332031 1.71875 -1.90625 L 1.71875 -7.578125 C 1.71875 -8.078125 1.660156 -8.425781 1.546875 -8.625 C 1.441406 -8.832031 1.242188 -8.9375 0.953125 -8.9375 C 0.710938 -8.9375 0.445312 -8.90625 0.15625 -8.84375 L 0.15625 -9.21875 C 1.363281 -9.601562 2.484375 -10.007812 3.515625 -10.4375 L 3.625 -10.390625 L 3.625 -8.296875 C 4.1875 -9.097656 4.664062 -9.65625 5.0625 -9.96875 C 5.457031 -10.28125 5.890625 -10.4375 6.359375 -10.4375 C 6.742188 -10.4375 7.046875 -10.328125 7.265625 -10.109375 C 7.484375 -9.898438 7.59375 -9.609375 7.59375 -9.234375 Z M 7.59375 -9.234375 "/></g></g></g><g fill="#000000" fill-opacity="1"><g transform="translate(286.006622, 330.390072)"><g><path d="M 7.890625 -2.671875 C 7.890625 -1.890625 7.578125 -1.207031 6.953125 -0.625 C 6.328125 -0.0507812 5.582031 0.234375 4.71875 0.234375 C 4.3125 0.234375 3.753906 0.15625 3.046875 0 C 2.554688 -0.125 2.207031 -0.1875 2 -0.1875 C 1.769531 -0.1875 1.59375 -0.09375 1.46875 0.09375 L 1.1875 0.09375 L 1.1875 -3.453125 L 1.546875 -3.453125 C 1.796875 -2.296875 2.140625 -1.472656 2.578125 -0.984375 C 3.023438 -0.503906 3.640625 -0.265625 4.421875 -0.265625 C 4.992188 -0.265625 5.453125 -0.410156 5.796875 -0.703125 C 6.140625 -1.003906 6.3125 -1.40625 6.3125 -1.90625 C 6.3125 -2.582031 5.914062 -3.148438 5.125 -3.609375 L 3.8125 -4.359375 C 2.84375 -4.921875 2.15625 -5.445312 1.75 -5.9375 C 1.351562 -6.425781 1.15625 -6.988281 1.15625 -7.625 C 1.15625 -8.457031 1.445312 -9.128906 2.03125 -9.640625 C 2.613281 -10.148438 3.363281 -10.40625 4.28125 -10.40625 C 4.84375 -10.40625 5.359375 -10.316406 5.828125 -10.140625 C 6.054688 -10.035156 6.257812 -9.984375 6.4375 -9.984375 C 6.5 -9.984375 6.609375 -10.039062 6.765625 -10.15625 L 6.8125 -10.203125 L 7.0625 -10.203125 L 7.140625 -7.125 L 6.8125 -7.125 C 6.550781 -8.132812 6.226562 -8.851562 5.84375 -9.28125 C 5.46875 -9.707031 4.957031 -9.921875 4.3125 -9.921875 C 3.78125 -9.921875 3.351562 -9.78125 3.03125 -9.5 C 2.71875 -9.21875 2.5625 -8.84375 2.5625 -8.375 C 2.5625 -7.71875 2.890625 -7.203125 3.546875 -6.828125 L 5.984375 -5.375 C 6.679688 -4.96875 7.171875 -4.5625 7.453125 -4.15625 C 7.742188 -3.75 7.890625 -3.253906 7.890625 -2.671875 Z M 7.890625 -2.671875 "/></g></g></g><g fill="#000000" fill-opacity="1"><g transform="translate(294.812621, 330.390072)"><g/></g></g><g fill="#000000" fill-opacity="1"><g transform="translate(134.148339, 361.592183)"><g><path d="M 16.015625 0 L 10.234375 0 L 10.234375 -0.4375 C 10.847656 -0.4375 11.269531 -0.503906 11.5 -0.640625 C 11.707031 -0.742188 11.8125 -0.925781 11.8125 -1.1875 C 11.8125 -1.539062 11.671875 -2.050781 11.390625 -2.71875 L 10.453125 -4.90625 L 4.515625 -4.90625 L 3.46875 -2.25 C 3.351562 -1.925781 3.296875 -1.628906 3.296875 -1.359375 C 3.296875 -0.742188 3.804688 -0.4375 4.828125 -0.4375 L 4.828125 0 L 0.34375 0 L 0.34375 -0.4375 C 0.882812 -0.457031 1.304688 -0.664062 1.609375 -1.0625 C 1.910156 -1.46875 2.425781 -2.5 3.15625 -4.15625 L 7.875 -15.296875 L 8.328125 -15.296875 L 13.96875 -2.40625 C 14.363281 -1.5625 14.675781 -1.023438 14.90625 -0.796875 C 15.132812 -0.578125 15.503906 -0.457031 16.015625 -0.4375 Z M 10.140625 -5.828125 L 7.515625 -12.0625 L 4.90625 -5.828125 Z M 10.140625 -5.828125 "/></g></g></g><g fill="#000000" fill-opacity="1"><g transform="translate(150.532309, 361.592183)"><g><path d="M 15.90625 4.015625 L 15.765625 4.015625 C 15.597656 4.023438 15.332031 4.03125 14.96875 4.03125 C 11.289062 4.03125 8.660156 3.109375 7.078125 1.265625 L 6.015625 0.015625 C 5.210938 -0.253906 4.585938 -0.523438 4.140625 -0.796875 C 3.691406 -1.066406 3.242188 -1.441406 2.796875 -1.921875 C 1.441406 -3.390625 0.765625 -5.238281 0.765625 -7.46875 C 0.765625 -9.757812 1.460938 -11.644531 2.859375 -13.125 C 4.253906 -14.601562 6.03125 -15.34375 8.1875 -15.34375 C 10.351562 -15.34375 12.128906 -14.609375 13.515625 -13.140625 C 14.910156 -11.671875 15.609375 -9.796875 15.609375 -7.515625 C 15.609375 -4.972656 14.757812 -2.941406 13.0625 -1.421875 C 12.539062 -0.972656 12.035156 -0.632812 11.546875 -0.40625 C 11.066406 -0.175781 10.441406 0.0078125 9.671875 0.15625 C 10.585938 1.363281 11.53125 2.238281 12.5 2.78125 C 13.476562 3.332031 14.613281 3.609375 15.90625 3.609375 Z M 13.015625 -7.5625 C 13.015625 -8.84375 12.84375 -9.992188 12.5 -11.015625 C 12.15625 -12.046875 11.679688 -12.835938 11.078125 -13.390625 C 10.222656 -14.140625 9.285156 -14.515625 8.265625 -14.515625 C 6.972656 -14.515625 5.867188 -14.023438 4.953125 -13.046875 C 4.484375 -12.515625 4.097656 -11.742188 3.796875 -10.734375 C 3.503906 -9.734375 3.359375 -8.6875 3.359375 -7.59375 C 3.359375 -6.269531 3.523438 -5.070312 3.859375 -4 C 4.203125 -2.9375 4.675781 -2.140625 5.28125 -1.609375 C 6.113281 -0.867188 7.082031 -0.5 8.1875 -0.5 C 9.488281 -0.5 10.578125 -0.984375 11.453125 -1.953125 C 11.910156 -2.484375 12.285156 -3.269531 12.578125 -4.3125 C 12.867188 -5.351562 13.015625 -6.4375 13.015625 -7.5625 Z M 13.015625 -7.5625 "/></g></g></g><g fill="#000000" fill-opacity="1"><g transform="translate(166.916278, 361.592183)"><g><path d="M 16 -14.59375 C 15.0625 -14.46875 14.46875 -14.238281 14.21875 -13.90625 C 13.976562 -13.570312 13.859375 -12.832031 13.859375 -11.6875 L 13.859375 -5.765625 C 13.859375 -4.140625 13.609375 -2.890625 13.109375 -2.015625 C 12.222656 -0.460938 10.535156 0.3125 8.046875 0.3125 C 6.117188 0.3125 4.6875 -0.15625 3.75 -1.09375 C 2.820312 -2.039062 2.359375 -3.5 2.359375 -5.46875 L 2.359375 -12.546875 C 2.359375 -13.378906 2.238281 -13.90625 2 -14.125 C 1.769531 -14.351562 1.207031 -14.507812 0.3125 -14.59375 L 0.3125 -15.015625 L 6.734375 -15.015625 L 6.734375 -14.59375 C 5.828125 -14.507812 5.253906 -14.347656 5.015625 -14.109375 C 4.785156 -13.878906 4.671875 -13.359375 4.671875 -12.546875 L 4.671875 -5.28125 C 4.671875 -3.957031 4.859375 -2.960938 5.234375 -2.296875 C 5.859375 -1.222656 6.972656 -0.6875 8.578125 -0.6875 C 9.421875 -0.6875 10.179688 -0.847656 10.859375 -1.171875 C 11.546875 -1.492188 12.039062 -1.925781 12.34375 -2.46875 C 12.6875 -3.125 12.859375 -4.15625 12.859375 -5.5625 L 12.859375 -11.6875 C 12.859375 -12.820312 12.722656 -13.570312 12.453125 -13.9375 C 12.179688 -14.3125 11.609375 -14.53125 10.734375 -14.59375 L 10.734375 -15.015625 L 16 -15.015625 Z M 16 -14.59375 "/></g></g></g><g fill="#000000" fill-opacity="1"><g transform="translate(183.300248, 361.592183)"><g><path d="M 16.015625 0 L 10.234375 0 L 10.234375 -0.4375 C 10.847656 -0.4375 11.269531 -0.503906 11.5 -0.640625 C 11.707031 -0.742188 11.8125 -0.925781 11.8125 -1.1875 C 11.8125 -1.539062 11.671875 -2.050781 11.390625 -2.71875 L 10.453125 -4.90625 L 4.515625 -4.90625 L 3.46875 -2.25 C 3.351562 -1.925781 3.296875 -1.628906 3.296875 -1.359375 C 3.296875 -0.742188 3.804688 -0.4375 4.828125 -0.4375 L 4.828125 0 L 0.34375 0 L 0.34375 -0.4375 C 0.882812 -0.457031 1.304688 -0.664062 1.609375 -1.0625 C 1.910156 -1.46875 2.425781 -2.5 3.15625 -4.15625 L 7.875 -15.296875 L 8.328125 -15.296875 L 13.96875 -2.40625 C 14.363281 -1.5625 14.675781 -1.023438 14.90625 -0.796875 C 15.132812 -0.578125 15.503906 -0.457031 16.015625 -0.4375 Z M 10.140625 -5.828125 L 7.515625 -12.0625 L 4.90625 -5.828125 Z M 10.140625 -5.828125 "/></g></g></g><g fill="#000000" fill-opacity="1"><g transform="translate(199.684217, 361.592183)"><g><path d="M 15.8125 -14.59375 C 15.269531 -14.5625 14.878906 -14.421875 14.640625 -14.171875 C 14.410156 -13.929688 14.101562 -13.367188 13.71875 -12.484375 L 8.6875 0.25 L 8.34375 0.25 L 2.765625 -12.203125 C 2.285156 -13.210938 1.90625 -13.859375 1.625 -14.140625 C 1.34375 -14.421875 0.921875 -14.570312 0.359375 -14.59375 L 0.359375 -15.015625 L 6.390625 -15.015625 L 6.390625 -14.59375 C 5.972656 -14.5625 5.753906 -14.546875 5.734375 -14.546875 C 5.046875 -14.492188 4.703125 -14.257812 4.703125 -13.84375 C 4.703125 -13.539062 5.007812 -12.703125 5.625 -11.328125 L 9.046875 -3.65625 L 12.390625 -11.984375 C 12.671875 -12.703125 12.8125 -13.253906 12.8125 -13.640625 C 12.8125 -13.953125 12.691406 -14.179688 12.453125 -14.328125 C 12.210938 -14.472656 11.78125 -14.5625 11.15625 -14.59375 L 11.15625 -15.015625 L 15.8125 -15.015625 Z M 15.8125 -14.59375 "/></g></g></g><g fill="#000000" fill-opacity="1"><g transform="translate(216.068187, 361.592183)"><g><path d="M 7.140625 0 L 0.40625 0 L 0.40625 -0.4375 C 1.363281 -0.457031 1.96875 -0.585938 2.21875 -0.828125 C 2.476562 -1.078125 2.609375 -1.625 2.609375 -2.46875 L 2.609375 -12.546875 C 2.609375 -13.378906 2.484375 -13.910156 2.234375 -14.140625 C 1.984375 -14.378906 1.375 -14.53125 0.40625 -14.59375 L 0.40625 -15.015625 L 7.140625 -15.015625 L 7.140625 -14.59375 C 6.191406 -14.539062 5.582031 -14.394531 5.3125 -14.15625 C 5.050781 -13.914062 4.921875 -13.378906 4.921875 -12.546875 L 4.921875 -2.46875 C 4.921875 -1.632812 5.054688 -1.09375 5.328125 -0.84375 C 5.597656 -0.59375 6.203125 -0.457031 7.140625 -0.4375 Z M 7.140625 0 "/></g></g></g><g fill="#000000" fill-opacity="1"><g transform="translate(223.624797, 361.592183)"><g><path d="M 13.546875 -3.828125 L 12.53125 0 L 0.265625 0 L 0.265625 -0.4375 C 1.097656 -0.488281 1.632812 -0.640625 1.875 -0.890625 C 2.125 -1.140625 2.25 -1.664062 2.25 -2.46875 L 2.25 -12.546875 C 2.25 -13.347656 2.128906 -13.867188 1.890625 -14.109375 C 1.660156 -14.347656 1.117188 -14.507812 0.265625 -14.59375 L 0.265625 -15.015625 L 12.3125 -15.015625 L 12.390625 -11.78125 L 11.8125 -11.78125 C 11.625 -12.789062 11.320312 -13.4375 10.90625 -13.71875 C 10.5 -14.007812 9.65625 -14.15625 8.375 -14.15625 L 5.3125 -14.15625 C 5.007812 -14.15625 4.804688 -14.101562 4.703125 -14 C 4.609375 -13.90625 4.5625 -13.703125 4.5625 -13.390625 L 4.5625 -8.34375 L 8.046875 -8.34375 C 8.972656 -8.34375 9.582031 -8.472656 9.875 -8.734375 C 10.175781 -8.992188 10.398438 -9.582031 10.546875 -10.5 L 11.078125 -10.5 L 11.078125 -5.234375 L 10.546875 -5.234375 C 10.398438 -6.171875 10.179688 -6.769531 9.890625 -7.03125 C 9.597656 -7.289062 8.984375 -7.421875 8.046875 -7.421875 L 4.5625 -7.421875 L 4.5625 -1.8125 C 4.5625 -1.40625 4.617188 -1.164062 4.734375 -1.09375 C 4.953125 -0.925781 5.6875 -0.84375 6.9375 -0.84375 L 7.5625 -0.84375 C 9.175781 -0.84375 10.328125 -1.035156 11.015625 -1.421875 C 11.710938 -1.804688 12.34375 -2.609375 12.90625 -3.828125 Z M 13.546875 -3.828125 "/></g></g></g><g fill="#000000" fill-opacity="1"><g transform="translate(237.489904, 361.592183)"><g><path d="M 21.140625 -14.59375 C 20.535156 -14.46875 20.125 -14.3125 19.90625 -14.125 C 19.6875 -13.945312 19.472656 -13.566406 19.265625 -12.984375 L 14.640625 0.25 L 14.296875 0.25 L 10.65625 -9.34375 L 7.171875 0.25 L 6.828125 0.25 L 2.453125 -11.9375 C 2.023438 -13.007812 1.671875 -13.703125 1.390625 -14.015625 C 1.109375 -14.335938 0.679688 -14.53125 0.109375 -14.59375 L 0.109375 -15.015625 L 5.671875 -15.015625 L 5.671875 -14.59375 C 5.097656 -14.5625 4.707031 -14.492188 4.5 -14.390625 C 4.300781 -14.296875 4.203125 -14.117188 4.203125 -13.859375 C 4.203125 -13.585938 4.285156 -13.238281 4.453125 -12.8125 L 7.71875 -4.28125 L 10.140625 -10.6875 L 9.390625 -12.546875 C 8.992188 -13.453125 8.675781 -14.015625 8.4375 -14.234375 C 8.195312 -14.453125 7.75 -14.570312 7.09375 -14.59375 L 7.09375 -15.015625 L 13.15625 -15.015625 L 13.15625 -14.59375 C 11.988281 -14.570312 11.40625 -14.304688 11.40625 -13.796875 C 11.40625 -13.554688 11.519531 -13.171875 11.75 -12.640625 L 12.03125 -11.953125 L 15.015625 -4.21875 L 17.859375 -11.90625 C 18.097656 -12.59375 18.21875 -13.160156 18.21875 -13.609375 C 18.21875 -13.910156 18.097656 -14.132812 17.859375 -14.28125 C 17.628906 -14.425781 17.226562 -14.53125 16.65625 -14.59375 L 16.65625 -15.015625 L 21.140625 -15.015625 Z M 21.140625 -14.59375 "/></g></g></g><g fill="#000000" fill-opacity="1"><g transform="translate(258.91162, 361.592183)"><g><path d="M 5.359375 -13.515625 C 5.359375 -13.328125 5.34375 -13.050781 5.3125 -12.6875 L 4.28125 -4 L 4 -4 L 3.78125 -6.4375 C 3.726562 -7.238281 3.601562 -8.285156 3.40625 -9.578125 C 3.101562 -11.554688 2.953125 -12.894531 2.953125 -13.59375 C 2.953125 -14.125 3.054688 -14.546875 3.265625 -14.859375 C 3.472656 -15.179688 3.769531 -15.34375 4.15625 -15.34375 C 4.957031 -15.34375 5.359375 -14.734375 5.359375 -13.515625 Z M 5.015625 -1.859375 C 5.253906 -1.617188 5.375 -1.320312 5.375 -0.96875 C 5.375 -0.625 5.253906 -0.34375 5.015625 -0.125 C 4.785156 0.09375 4.488281 0.203125 4.125 0.203125 C 3.789062 0.203125 3.507812 0.09375 3.28125 -0.125 C 3.0625 -0.34375 2.953125 -0.625 2.953125 -0.96875 C 2.953125 -1.320312 3.066406 -1.617188 3.296875 -1.859375 C 3.535156 -2.097656 3.820312 -2.21875 4.15625 -2.21875 C 4.488281 -2.21875 4.773438 -2.097656 5.015625 -1.859375 Z M 5.015625 -1.859375 "/></g></g></g></svg>