<svg xmlns="http://www.w3.org/2000/svg" xmlns:xlink="http://www.w3.org/1999/xlink" width="535" zoomAndPan="magnify" viewBox="0 0 401.25 505.499968" height="674" preserveAspectRatio="xMidYMid meet" version="1.0"><defs><g/><clipPath id="9c3e50854c"><path d="M 82.804688 75.222656 L 296.15625 75.222656 L 296.15625 288.574219 L 82.804688 288.574219 Z M 82.804688 75.222656 " clip-rule="nonzero"/></clipPath></defs><g clip-path="url(#9c3e50854c)"><path fill="#000000" d="M 189.480469 75.222656 C 130.660156 75.222656 82.804688 123.082031 82.804688 181.898438 C 82.804688 240.71875 130.660156 288.574219 189.480469 288.574219 C 248.296875 288.574219 296.15625 240.71875 296.15625 181.898438 C 296.15625 123.082031 248.296875 75.222656 189.480469 75.222656 Z M 129.566406 253.378906 C 130.5625 221.15625 157.015625 195.234375 189.480469 195.234375 C 221.941406 195.234375 248.398438 221.15625 249.390625 253.378906 C 233.164062 267 212.273438 275.242188 189.480469 275.242188 C 166.683594 275.242188 145.796875 267 129.566406 253.378906 Z M 156.144531 148.5625 C 156.144531 130.183594 171.097656 115.226562 189.480469 115.226562 C 207.859375 115.226562 222.816406 130.183594 222.816406 148.5625 C 222.816406 166.945312 207.859375 181.898438 189.480469 181.898438 C 171.097656 181.898438 156.144531 166.945312 156.144531 148.5625 Z M 261.445312 241.269531 C 256.617188 216.347656 239.136719 195.945312 215.980469 186.925781 C 228.148438 178.5 236.148438 164.453125 236.148438 148.5625 C 236.148438 122.835938 215.207031 101.894531 189.480469 101.894531 C 163.75 101.894531 142.808594 122.835938 142.808594 148.5625 C 142.808594 164.453125 150.808594 178.5 162.976562 186.933594 C 139.820312 195.953125 122.339844 216.355469 117.507812 241.277344 C 104.164062 225.128906 96.136719 204.433594 96.136719 181.898438 C 96.136719 130.429688 138.007812 88.558594 189.480469 88.558594 C 240.949219 88.558594 282.820312 130.429688 282.820312 181.898438 C 282.820312 204.433594 274.792969 225.128906 261.445312 241.269531 Z M 261.445312 241.269531 " fill-opacity="1" fill-rule="nonzero"/></g><g fill="#000000" fill-opacity="1"><g transform="translate(89.306787, 330.072388)"><g><path d="M 8.375 -14.5625 C 7.457031 -14.507812 6.878906 -14.363281 6.640625 -14.125 C 6.410156 -13.894531 6.296875 -13.363281 6.296875 -12.53125 L 6.296875 -4.140625 C 6.296875 -2.722656 5.960938 -1.625 5.296875 -0.84375 C 4.628906 -0.0703125 3.6875 0.3125 2.46875 0.3125 C 1.820312 0.3125 1.285156 0.160156 0.859375 -0.140625 C 0.429688 -0.441406 0.21875 -0.832031 0.21875 -1.3125 C 0.21875 -1.613281 0.328125 -1.878906 0.546875 -2.109375 C 0.773438 -2.335938 1.039062 -2.453125 1.34375 -2.453125 C 1.894531 -2.453125 2.285156 -2.066406 2.515625 -1.296875 C 2.585938 -1.003906 2.671875 -0.804688 2.765625 -0.703125 C 2.859375 -0.597656 2.976562 -0.546875 3.125 -0.546875 C 3.695312 -0.546875 3.984375 -1.039062 3.984375 -2.03125 L 3.984375 -12.53125 C 3.984375 -13.363281 3.863281 -13.894531 3.625 -14.125 C 3.382812 -14.363281 2.800781 -14.507812 1.875 -14.5625 L 1.875 -15 L 8.375 -15 Z M 8.375 -14.5625 "/></g></g></g><g fill="#000000" fill-opacity="1"><g transform="translate(98.121604, 330.072388)"><g><path d="M 10.640625 -5.296875 C 10.640625 -3.722656 10.15625 -2.410156 9.1875 -1.359375 C 8.226562 -0.304688 7.035156 0.21875 5.609375 0.21875 C 4.191406 0.21875 3.007812 -0.285156 2.0625 -1.296875 C 1.125 -2.316406 0.65625 -3.59375 0.65625 -5.125 C 0.65625 -6.675781 1.117188 -7.945312 2.046875 -8.9375 C 2.972656 -9.925781 4.175781 -10.421875 5.65625 -10.421875 C 7.113281 -10.421875 8.304688 -9.9375 9.234375 -8.96875 C 10.171875 -8 10.640625 -6.773438 10.640625 -5.296875 Z M 8.609375 -4.515625 C 8.609375 -6.066406 8.304688 -7.332031 7.703125 -8.3125 C 7.097656 -9.289062 6.320312 -9.78125 5.375 -9.78125 C 4.570312 -9.78125 3.925781 -9.457031 3.4375 -8.8125 C 2.945312 -8.164062 2.703125 -7.304688 2.703125 -6.234375 C 2.703125 -4.554688 3.03125 -3.097656 3.6875 -1.859375 C 4.207031 -0.890625 4.941406 -0.40625 5.890625 -0.40625 C 6.734375 -0.40625 7.394531 -0.765625 7.875 -1.484375 C 8.363281 -2.210938 8.609375 -3.222656 8.609375 -4.515625 Z M 8.609375 -4.515625 "/></g></g></g><g fill="#000000" fill-opacity="1"><g transform="translate(109.451699, 330.072388)"><g><path d="M 9.609375 -3.5625 C 8.628906 -1.039062 7.023438 0.21875 4.796875 0.21875 C 3.503906 0.21875 2.472656 -0.234375 1.703125 -1.140625 C 0.941406 -2.054688 0.5625 -3.289062 0.5625 -4.84375 C 0.5625 -6.488281 1 -7.828125 1.875 -8.859375 C 2.75 -9.898438 3.890625 -10.421875 5.296875 -10.421875 C 6.503906 -10.421875 7.472656 -9.988281 8.203125 -9.125 C 8.703125 -8.488281 9.023438 -7.539062 9.171875 -6.28125 L 2.203125 -6.28125 C 2.242188 -4.988281 2.46875 -3.945312 2.875 -3.15625 C 3.519531 -1.945312 4.472656 -1.34375 5.734375 -1.34375 C 6.453125 -1.34375 7.078125 -1.519531 7.609375 -1.875 C 8.148438 -2.238281 8.695312 -2.851562 9.25 -3.71875 Z M 6.859375 -7 C 6.710938 -7.976562 6.476562 -8.65625 6.15625 -9.03125 C 5.84375 -9.414062 5.335938 -9.609375 4.640625 -9.609375 C 3.285156 -9.609375 2.488281 -8.738281 2.25 -7 Z M 6.859375 -7 "/></g></g></g><g fill="#000000" fill-opacity="1"><g transform="translate(119.512831, 330.072388)"><g><path d="M 3.015625 -14.40625 C 3.015625 -13.707031 2.828125 -12.460938 2.453125 -10.671875 L 2.28125 -9.765625 L 1.8125 -9.765625 C 1.332031 -12.316406 1.09375 -13.859375 1.09375 -14.390625 C 1.09375 -14.640625 1.1875 -14.851562 1.375 -15.03125 C 1.5625 -15.21875 1.789062 -15.3125 2.0625 -15.3125 C 2.320312 -15.3125 2.546875 -15.21875 2.734375 -15.03125 C 2.921875 -14.851562 3.015625 -14.644531 3.015625 -14.40625 Z M 3.015625 -14.40625 "/></g></g></g><g fill="#000000" fill-opacity="1"><g transform="translate(123.591664, 330.072388)"><g><path d="M 7.890625 -2.671875 C 7.890625 -1.890625 7.570312 -1.210938 6.9375 -0.640625 C 6.3125 -0.0664062 5.570312 0.21875 4.71875 0.21875 C 4.300781 0.21875 3.738281 0.144531 3.03125 0 C 2.550781 -0.125 2.207031 -0.1875 2 -0.1875 C 1.769531 -0.1875 1.59375 -0.09375 1.46875 0.09375 L 1.171875 0.09375 L 1.171875 -3.4375 L 1.546875 -3.4375 C 1.796875 -2.289062 2.140625 -1.472656 2.578125 -0.984375 C 3.015625 -0.503906 3.628906 -0.265625 4.421875 -0.265625 C 4.992188 -0.265625 5.445312 -0.410156 5.78125 -0.703125 C 6.125 -1.003906 6.296875 -1.40625 6.296875 -1.90625 C 6.296875 -2.582031 5.90625 -3.148438 5.125 -3.609375 L 3.8125 -4.34375 C 2.84375 -4.90625 2.15625 -5.429688 1.75 -5.921875 C 1.351562 -6.410156 1.15625 -6.972656 1.15625 -7.609375 C 1.15625 -8.441406 1.445312 -9.113281 2.03125 -9.625 C 2.613281 -10.144531 3.363281 -10.40625 4.28125 -10.40625 C 4.84375 -10.40625 5.359375 -10.3125 5.828125 -10.125 C 6.046875 -10.019531 6.25 -9.96875 6.4375 -9.96875 C 6.5 -9.96875 6.601562 -10.03125 6.75 -10.15625 L 6.796875 -10.1875 L 7.046875 -10.1875 L 7.140625 -7.109375 L 6.796875 -7.109375 C 6.535156 -8.117188 6.21875 -8.835938 5.84375 -9.265625 C 5.46875 -9.691406 4.953125 -9.90625 4.296875 -9.90625 C 3.773438 -9.90625 3.351562 -9.765625 3.03125 -9.484375 C 2.71875 -9.203125 2.5625 -8.828125 2.5625 -8.359375 C 2.5625 -7.710938 2.882812 -7.195312 3.53125 -6.8125 L 5.984375 -5.375 C 6.671875 -4.957031 7.160156 -4.546875 7.453125 -4.140625 C 7.742188 -3.734375 7.890625 -3.242188 7.890625 -2.671875 Z M 7.890625 -2.671875 "/></g></g></g><g fill="#000000" fill-opacity="1"><g transform="translate(132.406481, 330.072388)"><g/></g></g><g fill="#000000" fill-opacity="1"><g transform="translate(138.071539, 330.072388)"><g><path d="M 7.59375 -9.21875 C 7.59375 -8.90625 7.507812 -8.65625 7.34375 -8.46875 C 7.1875 -8.289062 6.972656 -8.203125 6.703125 -8.203125 C 6.453125 -8.203125 6.148438 -8.351562 5.796875 -8.65625 C 5.554688 -8.882812 5.359375 -9 5.203125 -9 C 4.898438 -9 4.5625 -8.78125 4.1875 -8.34375 C 3.8125 -7.90625 3.625 -7.503906 3.625 -7.140625 L 3.625 -2.03125 C 3.625 -1.382812 3.75 -0.945312 4 -0.71875 C 4.257812 -0.5 4.773438 -0.375 5.546875 -0.34375 L 5.546875 0 L 0.109375 0 L 0.109375 -0.34375 C 0.835938 -0.476562 1.285156 -0.628906 1.453125 -0.796875 C 1.628906 -0.960938 1.71875 -1.332031 1.71875 -1.90625 L 1.71875 -7.5625 C 1.71875 -8.0625 1.660156 -8.410156 1.546875 -8.609375 C 1.429688 -8.816406 1.234375 -8.921875 0.953125 -8.921875 C 0.710938 -8.921875 0.445312 -8.890625 0.15625 -8.828125 L 0.15625 -9.203125 C 1.363281 -9.585938 2.484375 -9.992188 3.515625 -10.421875 L 3.625 -10.375 L 3.625 -8.296875 C 4.1875 -9.097656 4.660156 -9.648438 5.046875 -9.953125 C 5.441406 -10.265625 5.875 -10.421875 6.34375 -10.421875 C 6.738281 -10.421875 7.046875 -10.3125 7.265625 -10.09375 C 7.484375 -9.882812 7.59375 -9.59375 7.59375 -9.21875 Z M 7.59375 -9.21875 "/></g></g></g><g fill="#000000" fill-opacity="1"><g transform="translate(145.617393, 330.072388)"><g><path d="M 9.609375 -3.5625 C 8.628906 -1.039062 7.023438 0.21875 4.796875 0.21875 C 3.503906 0.21875 2.472656 -0.234375 1.703125 -1.140625 C 0.941406 -2.054688 0.5625 -3.289062 0.5625 -4.84375 C 0.5625 -6.488281 1 -7.828125 1.875 -8.859375 C 2.75 -9.898438 3.890625 -10.421875 5.296875 -10.421875 C 6.503906 -10.421875 7.472656 -9.988281 8.203125 -9.125 C 8.703125 -8.488281 9.023438 -7.539062 9.171875 -6.28125 L 2.203125 -6.28125 C 2.242188 -4.988281 2.46875 -3.945312 2.875 -3.15625 C 3.519531 -1.945312 4.472656 -1.34375 5.734375 -1.34375 C 6.453125 -1.34375 7.078125 -1.519531 7.609375 -1.875 C 8.148438 -2.238281 8.695312 -2.851562 9.25 -3.71875 Z M 6.859375 -7 C 6.710938 -7.976562 6.476562 -8.65625 6.15625 -9.03125 C 5.84375 -9.414062 5.335938 -9.609375 4.640625 -9.609375 C 3.285156 -9.609375 2.488281 -8.738281 2.25 -7 Z M 6.859375 -7 "/></g></g></g><g fill="#000000" fill-opacity="1"><g transform="translate(155.678525, 330.072388)"><g><path d="M 7.890625 -2.671875 C 7.890625 -1.890625 7.570312 -1.210938 6.9375 -0.640625 C 6.3125 -0.0664062 5.570312 0.21875 4.71875 0.21875 C 4.300781 0.21875 3.738281 0.144531 3.03125 0 C 2.550781 -0.125 2.207031 -0.1875 2 -0.1875 C 1.769531 -0.1875 1.59375 -0.09375 1.46875 0.09375 L 1.171875 0.09375 L 1.171875 -3.4375 L 1.546875 -3.4375 C 1.796875 -2.289062 2.140625 -1.472656 2.578125 -0.984375 C 3.015625 -0.503906 3.628906 -0.265625 4.421875 -0.265625 C 4.992188 -0.265625 5.445312 -0.410156 5.78125 -0.703125 C 6.125 -1.003906 6.296875 -1.40625 6.296875 -1.90625 C 6.296875 -2.582031 5.90625 -3.148438 5.125 -3.609375 L 3.8125 -4.34375 C 2.84375 -4.90625 2.15625 -5.429688 1.75 -5.921875 C 1.351562 -6.410156 1.15625 -6.972656 1.15625 -7.609375 C 1.15625 -8.441406 1.445312 -9.113281 2.03125 -9.625 C 2.613281 -10.144531 3.363281 -10.40625 4.28125 -10.40625 C 4.84375 -10.40625 5.359375 -10.3125 5.828125 -10.125 C 6.046875 -10.019531 6.25 -9.96875 6.4375 -9.96875 C 6.5 -9.96875 6.601562 -10.03125 6.75 -10.15625 L 6.796875 -10.1875 L 7.046875 -10.1875 L 7.140625 -7.109375 L 6.796875 -7.109375 C 6.535156 -8.117188 6.21875 -8.835938 5.84375 -9.265625 C 5.46875 -9.691406 4.953125 -9.90625 4.296875 -9.90625 C 3.773438 -9.90625 3.351562 -9.765625 3.03125 -9.484375 C 2.71875 -9.203125 2.5625 -8.828125 2.5625 -8.359375 C 2.5625 -7.710938 2.882812 -7.195312 3.53125 -6.8125 L 5.984375 -5.375 C 6.671875 -4.957031 7.160156 -4.546875 7.453125 -4.140625 C 7.742188 -3.734375 7.890625 -3.242188 7.890625 -2.671875 Z M 7.890625 -2.671875 "/></g></g></g><g fill="#000000" fill-opacity="1"><g transform="translate(164.493342, 330.072388)"><g><path d="M 9.609375 -3.5625 C 8.628906 -1.039062 7.023438 0.21875 4.796875 0.21875 C 3.503906 0.21875 2.472656 -0.234375 1.703125 -1.140625 C 0.941406 -2.054688 0.5625 -3.289062 0.5625 -4.84375 C 0.5625 -6.488281 1 -7.828125 1.875 -8.859375 C 2.75 -9.898438 3.890625 -10.421875 5.296875 -10.421875 C 6.503906 -10.421875 7.472656 -9.988281 8.203125 -9.125 C 8.703125 -8.488281 9.023438 -7.539062 9.171875 -6.28125 L 2.203125 -6.28125 C 2.242188 -4.988281 2.46875 -3.945312 2.875 -3.15625 C 3.519531 -1.945312 4.472656 -1.34375 5.734375 -1.34375 C 6.453125 -1.34375 7.078125 -1.519531 7.609375 -1.875 C 8.148438 -2.238281 8.695312 -2.851562 9.25 -3.71875 Z M 6.859375 -7 C 6.710938 -7.976562 6.476562 -8.65625 6.15625 -9.03125 C 5.84375 -9.414062 5.335938 -9.609375 4.640625 -9.609375 C 3.285156 -9.609375 2.488281 -8.738281 2.25 -7 Z M 6.859375 -7 "/></g></g></g><g fill="#000000" fill-opacity="1"><g transform="translate(174.554474, 330.072388)"><g><path d="M 10.015625 -0.90625 C 9.617188 -0.46875 9.273438 -0.171875 8.984375 -0.015625 C 8.691406 0.140625 8.351562 0.21875 7.96875 0.21875 C 7.5 0.21875 7.15625 0.0976562 6.9375 -0.140625 C 6.71875 -0.390625 6.582031 -0.816406 6.53125 -1.421875 C 5.226562 -0.328125 4.125 0.21875 3.21875 0.21875 C 2.519531 0.21875 1.945312 -0.00390625 1.5 -0.453125 C 1.0625 -0.898438 0.84375 -1.484375 0.84375 -2.203125 C 0.84375 -3.015625 1.113281 -3.671875 1.65625 -4.171875 C 2.132812 -4.585938 2.617188 -4.921875 3.109375 -5.171875 C 3.597656 -5.421875 4.726562 -5.898438 6.5 -6.609375 L 6.5 -8 C 6.5 -9.25 5.925781 -9.875 4.78125 -9.875 C 4.320312 -9.875 3.9375 -9.765625 3.625 -9.546875 C 3.3125 -9.328125 3.15625 -9.066406 3.15625 -8.765625 C 3.15625 -8.597656 3.175781 -8.414062 3.21875 -8.21875 C 3.25 -8.007812 3.265625 -7.890625 3.265625 -7.859375 C 3.265625 -7.597656 3.160156 -7.375 2.953125 -7.1875 C 2.753906 -7 2.515625 -6.90625 2.234375 -6.90625 C 1.960938 -6.90625 1.734375 -7.003906 1.546875 -7.203125 C 1.359375 -7.398438 1.265625 -7.628906 1.265625 -7.890625 C 1.265625 -8.503906 1.578125 -9.066406 2.203125 -9.578125 C 2.878906 -10.140625 3.835938 -10.421875 5.078125 -10.421875 C 6.484375 -10.421875 7.425781 -9.984375 7.90625 -9.109375 C 8.195312 -8.640625 8.34375 -7.867188 8.34375 -6.796875 L 8.34375 -2.375 C 8.34375 -1.875 8.390625 -1.53125 8.484375 -1.34375 C 8.578125 -1.15625 8.753906 -1.0625 9.015625 -1.0625 C 9.335938 -1.0625 9.671875 -1.207031 10.015625 -1.5 Z M 6.5 -2.78125 L 6.5 -6.078125 C 5.144531 -5.578125 4.191406 -5.09375 3.640625 -4.625 C 3.097656 -4.15625 2.828125 -3.585938 2.828125 -2.921875 L 2.828125 -2.828125 C 2.828125 -2.347656 2.96875 -1.9375 3.25 -1.59375 C 3.53125 -1.257812 3.867188 -1.09375 4.265625 -1.09375 C 4.785156 -1.09375 5.332031 -1.253906 5.90625 -1.578125 C 6.15625 -1.734375 6.316406 -1.882812 6.390625 -2.03125 C 6.460938 -2.1875 6.5 -2.4375 6.5 -2.78125 Z M 6.5 -2.78125 "/></g></g></g><g fill="#000000" fill-opacity="1"><g transform="translate(184.615606, 330.072388)"><g><path d="M 7.59375 -9.21875 C 7.59375 -8.90625 7.507812 -8.65625 7.34375 -8.46875 C 7.1875 -8.289062 6.972656 -8.203125 6.703125 -8.203125 C 6.453125 -8.203125 6.148438 -8.351562 5.796875 -8.65625 C 5.554688 -8.882812 5.359375 -9 5.203125 -9 C 4.898438 -9 4.5625 -8.78125 4.1875 -8.34375 C 3.8125 -7.90625 3.625 -7.503906 3.625 -7.140625 L 3.625 -2.03125 C 3.625 -1.382812 3.75 -0.945312 4 -0.71875 C 4.257812 -0.5 4.773438 -0.375 5.546875 -0.34375 L 5.546875 0 L 0.109375 0 L 0.109375 -0.34375 C 0.835938 -0.476562 1.285156 -0.628906 1.453125 -0.796875 C 1.628906 -0.960938 1.71875 -1.332031 1.71875 -1.90625 L 1.71875 -7.5625 C 1.71875 -8.0625 1.660156 -8.410156 1.546875 -8.609375 C 1.429688 -8.816406 1.234375 -8.921875 0.953125 -8.921875 C 0.710938 -8.921875 0.445312 -8.890625 0.15625 -8.828125 L 0.15625 -9.203125 C 1.363281 -9.585938 2.484375 -9.992188 3.515625 -10.421875 L 3.625 -10.375 L 3.625 -8.296875 C 4.1875 -9.097656 4.660156 -9.648438 5.046875 -9.953125 C 5.441406 -10.265625 5.875 -10.421875 6.34375 -10.421875 C 6.738281 -10.421875 7.046875 -10.3125 7.265625 -10.09375 C 7.484375 -9.882812 7.59375 -9.59375 7.59375 -9.21875 Z M 7.59375 -9.21875 "/></g></g></g><g fill="#000000" fill-opacity="1"><g transform="translate(192.16146, 330.072388)"><g><path d="M 9.328125 -3.328125 C 8.679688 -2.054688 8.0625 -1.1875 7.46875 -0.71875 C 6.707031 -0.09375 5.84375 0.21875 4.875 0.21875 C 3.613281 0.21875 2.578125 -0.25 1.765625 -1.1875 C 0.960938 -2.132812 0.5625 -3.335938 0.5625 -4.796875 C 0.5625 -6.722656 1.195312 -8.210938 2.46875 -9.265625 C 3.40625 -10.035156 4.425781 -10.421875 5.53125 -10.421875 C 6.476562 -10.421875 7.296875 -10.191406 7.984375 -9.734375 C 8.671875 -9.273438 9.015625 -8.726562 9.015625 -8.09375 C 9.015625 -7.832031 8.90625 -7.609375 8.6875 -7.421875 C 8.476562 -7.234375 8.234375 -7.140625 7.953125 -7.140625 C 7.421875 -7.140625 7.054688 -7.484375 6.859375 -8.171875 L 6.734375 -8.671875 C 6.609375 -9.097656 6.453125 -9.382812 6.265625 -9.53125 C 6.085938 -9.6875 5.796875 -9.765625 5.390625 -9.765625 C 4.472656 -9.765625 3.726562 -9.398438 3.15625 -8.671875 C 2.59375 -7.953125 2.3125 -7.003906 2.3125 -5.828125 C 2.3125 -4.523438 2.632812 -3.460938 3.28125 -2.640625 C 3.9375 -1.816406 4.785156 -1.40625 5.828125 -1.40625 C 6.472656 -1.40625 7.03125 -1.554688 7.5 -1.859375 C 7.96875 -2.171875 8.472656 -2.726562 9.015625 -3.53125 Z M 9.328125 -3.328125 "/></g></g></g><g fill="#000000" fill-opacity="1"><g transform="translate(202.222592, 330.072388)"><g><path d="M 11.03125 0 L 6.234375 0 L 6.234375 -0.34375 C 6.878906 -0.40625 7.296875 -0.554688 7.484375 -0.796875 C 7.671875 -1.035156 7.765625 -1.539062 7.765625 -2.3125 L 7.765625 -6.796875 C 7.765625 -8.398438 7.203125 -9.203125 6.078125 -9.203125 C 5.640625 -9.203125 5.226562 -9.09375 4.84375 -8.875 C 4.457031 -8.65625 4.03125 -8.285156 3.5625 -7.765625 L 3.5625 -2.3125 C 3.5625 -1.519531 3.648438 -1.007812 3.828125 -0.78125 C 4.003906 -0.5625 4.425781 -0.414062 5.09375 -0.34375 L 5.09375 0 L 0.203125 0 L 0.203125 -0.34375 C 0.847656 -0.425781 1.25 -0.570312 1.40625 -0.78125 C 1.570312 -1 1.65625 -1.507812 1.65625 -2.3125 L 1.65625 -12.984375 C 1.65625 -13.460938 1.582031 -13.773438 1.4375 -13.921875 C 1.289062 -14.066406 0.976562 -14.140625 0.5 -14.140625 C 0.375 -14.140625 0.28125 -14.128906 0.21875 -14.109375 L 0.21875 -14.484375 L 0.84375 -14.65625 C 1.863281 -14.945312 2.726562 -15.21875 3.4375 -15.46875 L 3.5625 -15.40625 L 3.5625 -8.515625 C 4.082031 -9.191406 4.597656 -9.675781 5.109375 -9.96875 C 5.628906 -10.269531 6.222656 -10.421875 6.890625 -10.421875 C 8.742188 -10.421875 9.671875 -9.21875 9.671875 -6.8125 L 9.671875 -2.3125 C 9.671875 -1.519531 9.742188 -1.019531 9.890625 -0.8125 C 10.035156 -0.613281 10.414062 -0.457031 11.03125 -0.34375 Z M 11.03125 0 "/></g></g></g><g fill="#000000" fill-opacity="1"><g transform="translate(213.552686, 330.072388)"><g/></g></g><g fill="#000000" fill-opacity="1"><g transform="translate(219.217744, 330.072388)"><g><path d="M 10.640625 -5.296875 C 10.640625 -3.722656 10.15625 -2.410156 9.1875 -1.359375 C 8.226562 -0.304688 7.035156 0.21875 5.609375 0.21875 C 4.191406 0.21875 3.007812 -0.285156 2.0625 -1.296875 C 1.125 -2.316406 0.65625 -3.59375 0.65625 -5.125 C 0.65625 -6.675781 1.117188 -7.945312 2.046875 -8.9375 C 2.972656 -9.925781 4.175781 -10.421875 5.65625 -10.421875 C 7.113281 -10.421875 8.304688 -9.9375 9.234375 -8.96875 C 10.171875 -8 10.640625 -6.773438 10.640625 -5.296875 Z M 8.609375 -4.515625 C 8.609375 -6.066406 8.304688 -7.332031 7.703125 -8.3125 C 7.097656 -9.289062 6.320312 -9.78125 5.375 -9.78125 C 4.570312 -9.78125 3.925781 -9.457031 3.4375 -8.8125 C 2.945312 -8.164062 2.703125 -7.304688 2.703125 -6.234375 C 2.703125 -4.554688 3.03125 -3.097656 3.6875 -1.859375 C 4.207031 -0.890625 4.941406 -0.40625 5.890625 -0.40625 C 6.734375 -0.40625 7.394531 -0.765625 7.875 -1.484375 C 8.363281 -2.210938 8.609375 -3.222656 8.609375 -4.515625 Z M 8.609375 -4.515625 "/></g></g></g><g fill="#000000" fill-opacity="1"><g transform="translate(230.547839, 330.072388)"><g><path d="M 10.984375 0 L 6.28125 0 L 6.28125 -0.34375 C 6.851562 -0.382812 7.234375 -0.53125 7.421875 -0.78125 C 7.609375 -1.039062 7.703125 -1.53125 7.703125 -2.25 L 7.703125 -6.984375 C 7.703125 -8.441406 7.148438 -9.171875 6.046875 -9.171875 C 5.671875 -9.171875 5.320312 -9.082031 5 -8.90625 C 4.6875 -8.738281 4.257812 -8.398438 3.71875 -7.890625 L 3.71875 -1.515625 C 3.71875 -1.109375 3.820312 -0.820312 4.03125 -0.65625 C 4.238281 -0.488281 4.628906 -0.382812 5.203125 -0.34375 L 5.203125 0 L 0.40625 0 L 0.40625 -0.34375 C 0.976562 -0.382812 1.351562 -0.515625 1.53125 -0.734375 C 1.71875 -0.953125 1.8125 -1.382812 1.8125 -2.03125 L 1.8125 -7.65625 C 1.8125 -8.21875 1.75 -8.597656 1.625 -8.796875 C 1.507812 -9.003906 1.289062 -9.109375 0.96875 -9.109375 C 0.6875 -9.109375 0.484375 -9.078125 0.359375 -9.015625 L 0.359375 -9.40625 C 1.472656 -9.738281 2.515625 -10.078125 3.484375 -10.421875 L 3.640625 -10.375 L 3.640625 -8.59375 C 4.410156 -9.3125 5.019531 -9.796875 5.46875 -10.046875 C 5.914062 -10.296875 6.40625 -10.421875 6.9375 -10.421875 C 7.757812 -10.421875 8.410156 -10.117188 8.890625 -9.515625 C 9.367188 -8.921875 9.609375 -8.085938 9.609375 -7.015625 L 9.609375 -1.828125 C 9.609375 -1.273438 9.695312 -0.90625 9.875 -0.71875 C 10.0625 -0.53125 10.429688 -0.40625 10.984375 -0.34375 Z M 10.984375 0 "/></g></g></g><g fill="#000000" fill-opacity="1"><g transform="translate(241.877933, 330.072388)"><g/></g></g><g fill="#000000" fill-opacity="1"><g transform="translate(247.542991, 330.072388)"><g><path d="M 6.328125 -1.5 C 5.597656 -0.351562 4.679688 0.21875 3.578125 0.21875 C 2.242188 0.21875 1.578125 -0.738281 1.578125 -2.65625 L 1.578125 -9.46875 L 0.390625 -9.46875 C 0.328125 -9.507812 0.296875 -9.5625 0.296875 -9.625 C 0.296875 -9.75 0.421875 -9.894531 0.671875 -10.0625 C 1.296875 -10.425781 2.03125 -11.234375 2.875 -12.484375 C 3.082031 -12.753906 3.234375 -12.96875 3.328125 -13.125 C 3.429688 -13.125 3.484375 -13.023438 3.484375 -12.828125 L 3.484375 -10.1875 L 5.78125 -10.1875 L 5.78125 -9.46875 L 3.484375 -9.46875 L 3.484375 -2.984375 C 3.484375 -2.265625 3.570312 -1.742188 3.75 -1.421875 C 3.9375 -1.109375 4.242188 -0.953125 4.671875 -0.953125 C 5.117188 -0.953125 5.570312 -1.21875 6.03125 -1.75 Z M 6.328125 -1.5 "/></g></g></g><g fill="#000000" fill-opacity="1"><g transform="translate(253.842531, 330.072388)"><g><path d="M 11.03125 0 L 6.234375 0 L 6.234375 -0.34375 C 6.878906 -0.40625 7.296875 -0.554688 7.484375 -0.796875 C 7.671875 -1.035156 7.765625 -1.539062 7.765625 -2.3125 L 7.765625 -6.796875 C 7.765625 -8.398438 7.203125 -9.203125 6.078125 -9.203125 C 5.640625 -9.203125 5.226562 -9.09375 4.84375 -8.875 C 4.457031 -8.65625 4.03125 -8.285156 3.5625 -7.765625 L 3.5625 -2.3125 C 3.5625 -1.519531 3.648438 -1.007812 3.828125 -0.78125 C 4.003906 -0.5625 4.425781 -0.414062 5.09375 -0.34375 L 5.09375 0 L 0.203125 0 L 0.203125 -0.34375 C 0.847656 -0.425781 1.25 -0.570312 1.40625 -0.78125 C 1.570312 -1 1.65625 -1.507812 1.65625 -2.3125 L 1.65625 -12.984375 C 1.65625 -13.460938 1.582031 -13.773438 1.4375 -13.921875 C 1.289062 -14.066406 0.976562 -14.140625 0.5 -14.140625 C 0.375 -14.140625 0.28125 -14.128906 0.21875 -14.109375 L 0.21875 -14.484375 L 0.84375 -14.65625 C 1.863281 -14.945312 2.726562 -15.21875 3.4375 -15.46875 L 3.5625 -15.40625 L 3.5625 -8.515625 C 4.082031 -9.191406 4.597656 -9.675781 5.109375 -9.96875 C 5.628906 -10.269531 6.222656 -10.421875 6.890625 -10.421875 C 8.742188 -10.421875 9.671875 -9.21875 9.671875 -6.8125 L 9.671875 -2.3125 C 9.671875 -1.519531 9.742188 -1.019531 9.890625 -0.8125 C 10.035156 -0.613281 10.414062 -0.457031 11.03125 -0.34375 Z M 11.03125 0 "/></g></g></g><g fill="#000000" fill-opacity="1"><g transform="translate(265.172625, 330.072388)"><g><path d="M 9.609375 -3.5625 C 8.628906 -1.039062 7.023438 0.21875 4.796875 0.21875 C 3.503906 0.21875 2.472656 -0.234375 1.703125 -1.140625 C 0.941406 -2.054688 0.5625 -3.289062 0.5625 -4.84375 C 0.5625 -6.488281 1 -7.828125 1.875 -8.859375 C 2.75 -9.898438 3.890625 -10.421875 5.296875 -10.421875 C 6.503906 -10.421875 7.472656 -9.988281 8.203125 -9.125 C 8.703125 -8.488281 9.023438 -7.539062 9.171875 -6.28125 L 2.203125 -6.28125 C 2.242188 -4.988281 2.46875 -3.945312 2.875 -3.15625 C 3.519531 -1.945312 4.472656 -1.34375 5.734375 -1.34375 C 6.453125 -1.34375 7.078125 -1.519531 7.609375 -1.875 C 8.148438 -2.238281 8.695312 -2.851562 9.25 -3.71875 Z M 6.859375 -7 C 6.710938 -7.976562 6.476562 -8.65625 6.15625 -9.03125 C 5.84375 -9.414062 5.335938 -9.609375 4.640625 -9.609375 C 3.285156 -9.609375 2.488281 -8.738281 2.25 -7 Z M 6.859375 -7 "/></g></g></g><g fill="#000000" fill-opacity="1"><g transform="translate(275.233757, 330.072388)"><g/></g></g><g fill="#000000" fill-opacity="1"><g transform="translate(280.898815, 330.072388)"><g><path d="M 15.59375 -7.40625 C 15.59375 -5.125 14.890625 -3.265625 13.484375 -1.828125 C 12.085938 -0.398438 10.273438 0.3125 8.046875 0.3125 C 7.046875 0.3125 6.070312 0.109375 5.125 -0.296875 C 4.1875 -0.710938 3.382812 -1.28125 2.71875 -2 C 2.113281 -2.644531 1.632812 -3.453125 1.28125 -4.421875 C 0.9375 -5.398438 0.765625 -6.425781 0.765625 -7.5 C 0.765625 -9.78125 1.457031 -11.648438 2.84375 -13.109375 C 4.238281 -14.578125 6.015625 -15.3125 8.171875 -15.3125 C 10.398438 -15.3125 12.238281 -14.519531 13.6875 -12.9375 C 14.957031 -11.550781 15.59375 -9.707031 15.59375 -7.40625 Z M 13 -7.4375 C 13 -10.226562 12.359375 -12.203125 11.078125 -13.359375 C 10.234375 -14.117188 9.265625 -14.5 8.171875 -14.5 C 6.910156 -14.5 5.832031 -14.007812 4.9375 -13.03125 C 4.457031 -12.5 4.070312 -11.722656 3.78125 -10.703125 C 3.5 -9.679688 3.359375 -8.597656 3.359375 -7.453125 C 3.359375 -6.203125 3.53125 -5.039062 3.875 -3.96875 C 4.21875 -2.90625 4.6875 -2.117188 5.28125 -1.609375 C 6.113281 -0.867188 7.066406 -0.5 8.140625 -0.5 C 9.347656 -0.5 10.347656 -0.898438 11.140625 -1.703125 C 11.691406 -2.222656 12.0625 -2.773438 12.25 -3.359375 C 12.75 -4.648438 13 -6.007812 13 -7.4375 Z M 13 -7.4375 "/></g></g></g><g fill="#000000" fill-opacity="1"><g transform="translate(297.259465, 330.072388)"><g><path d="M 13.53125 -3.828125 L 12.5 0 L 0.265625 0 L 0.265625 -0.4375 C 1.097656 -0.488281 1.632812 -0.640625 1.875 -0.890625 C 2.125 -1.140625 2.25 -1.664062 2.25 -2.46875 L 2.25 -12.53125 C 2.25 -13.332031 2.128906 -13.851562 1.890625 -14.09375 C 1.660156 -14.332031 1.117188 -14.488281 0.265625 -14.5625 L 0.265625 -15 L 12.296875 -15 L 12.375 -11.765625 L 11.796875 -11.765625 C 11.609375 -12.773438 11.304688 -13.421875 10.890625 -13.703125 C 10.484375 -13.992188 9.640625 -14.140625 8.359375 -14.140625 L 5.296875 -14.140625 C 4.992188 -14.140625 4.789062 -14.085938 4.6875 -13.984375 C 4.59375 -13.890625 4.546875 -13.679688 4.546875 -13.359375 L 4.546875 -8.34375 L 8.046875 -8.34375 C 8.960938 -8.34375 9.566406 -8.46875 9.859375 -8.71875 C 10.160156 -8.976562 10.382812 -9.566406 10.53125 -10.484375 L 11.0625 -10.484375 L 11.0625 -5.234375 L 10.53125 -5.234375 C 10.382812 -6.171875 10.164062 -6.765625 9.875 -7.015625 C 9.59375 -7.273438 8.984375 -7.40625 8.046875 -7.40625 L 4.546875 -7.40625 L 4.546875 -1.8125 C 4.546875 -1.40625 4.609375 -1.164062 4.734375 -1.09375 C 4.941406 -0.925781 5.675781 -0.84375 6.9375 -0.84375 L 7.546875 -0.84375 C 9.160156 -0.84375 10.3125 -1.035156 11 -1.421875 C 11.695312 -1.804688 12.328125 -2.609375 12.890625 -3.828125 Z M 13.53125 -3.828125 "/></g></g></g><g fill="#000000" fill-opacity="1"><g transform="translate(311.084111, 330.072388)"><g/></g></g><g fill="#000000" fill-opacity="1"><g transform="translate(86.297237, 361.230088)"><g><path d="M 10.640625 -8.796875 L 8.765625 -8.796875 C 9.054688 -8.140625 9.203125 -7.503906 9.203125 -6.890625 C 9.203125 -5.796875 8.835938 -4.941406 8.109375 -4.328125 C 7.378906 -3.691406 6.5625 -3.375 5.65625 -3.375 C 5.507812 -3.375 5.222656 -3.394531 4.796875 -3.4375 C 4.785156 -3.4375 4.644531 -3.453125 4.375 -3.484375 C 4.070312 -3.398438 3.769531 -3.195312 3.46875 -2.875 C 3.164062 -2.5625 3.015625 -2.289062 3.015625 -2.0625 C 3.015625 -1.695312 3.601562 -1.492188 4.78125 -1.453125 L 7.703125 -1.3125 C 8.535156 -1.28125 9.195312 -1.046875 9.6875 -0.609375 C 10.1875 -0.171875 10.4375 0.398438 10.4375 1.109375 C 10.4375 1.953125 10.023438 2.710938 9.203125 3.390625 C 7.929688 4.421875 6.378906 4.9375 4.546875 4.9375 C 3.472656 4.9375 2.550781 4.71875 1.78125 4.28125 C 1.019531 3.851562 0.640625 3.335938 0.640625 2.734375 C 0.640625 2.316406 0.804688 1.898438 1.140625 1.484375 C 1.484375 1.066406 2.054688 0.566406 2.859375 -0.015625 C 2.390625 -0.242188 2.070312 -0.441406 1.90625 -0.609375 C 1.738281 -0.773438 1.65625 -0.976562 1.65625 -1.21875 C 1.65625 -1.65625 2.003906 -2.175781 2.703125 -2.78125 L 3.671875 -3.6875 C 2.910156 -4.070312 2.367188 -4.492188 2.046875 -4.953125 C 1.722656 -5.421875 1.5625 -6.015625 1.5625 -6.734375 C 1.5625 -7.753906 1.925781 -8.625 2.65625 -9.34375 C 3.394531 -10.0625 4.289062 -10.421875 5.34375 -10.421875 C 5.945312 -10.421875 6.550781 -10.304688 7.15625 -10.078125 L 7.65625 -9.90625 C 8.09375 -9.75 8.507812 -9.671875 8.90625 -9.671875 L 10.640625 -9.671875 Z M 9.8125 1.453125 C 9.8125 1.046875 9.597656 0.757812 9.171875 0.59375 C 8.753906 0.425781 8.03125 0.34375 7 0.34375 C 5.476562 0.34375 4.253906 0.242188 3.328125 0.046875 C 2.859375 0.609375 2.554688 1.007812 2.421875 1.25 C 2.285156 1.488281 2.21875 1.738281 2.21875 2 C 2.21875 2.488281 2.519531 2.882812 3.125 3.1875 C 3.726562 3.488281 4.53125 3.640625 5.53125 3.640625 C 6.8125 3.640625 7.84375 3.4375 8.625 3.03125 C 9.414062 2.625 9.8125 2.097656 9.8125 1.453125 Z M 7.453125 -6 C 7.453125 -6.9375 7.226562 -7.84375 6.78125 -8.71875 C 6.394531 -9.425781 5.84375 -9.78125 5.125 -9.78125 C 4.59375 -9.78125 4.175781 -9.59375 3.875 -9.21875 C 3.582031 -8.84375 3.4375 -8.320312 3.4375 -7.65625 L 3.4375 -7.59375 C 3.4375 -6.5 3.648438 -5.613281 4.078125 -4.9375 C 4.515625 -4.269531 5.070312 -3.9375 5.75 -3.9375 C 6.28125 -3.9375 6.695312 -4.117188 7 -4.484375 C 7.300781 -4.859375 7.453125 -5.363281 7.453125 -6 Z M 7.453125 -6 "/></g></g></g><g fill="#000000" fill-opacity="1"><g transform="translate(97.627331, 361.230088)"><g><path d="M 10.640625 -5.296875 C 10.640625 -3.722656 10.15625 -2.410156 9.1875 -1.359375 C 8.226562 -0.304688 7.035156 0.21875 5.609375 0.21875 C 4.191406 0.21875 3.007812 -0.285156 2.0625 -1.296875 C 1.125 -2.316406 0.65625 -3.59375 0.65625 -5.125 C 0.65625 -6.675781 1.117188 -7.945312 2.046875 -8.9375 C 2.972656 -9.925781 4.175781 -10.421875 5.65625 -10.421875 C 7.113281 -10.421875 8.304688 -9.9375 9.234375 -8.96875 C 10.171875 -8 10.640625 -6.773438 10.640625 -5.296875 Z M 8.609375 -4.515625 C 8.609375 -6.066406 8.304688 -7.332031 7.703125 -8.3125 C 7.097656 -9.289062 6.320312 -9.78125 5.375 -9.78125 C 4.570312 -9.78125 3.925781 -9.457031 3.4375 -8.8125 C 2.945312 -8.164062 2.703125 -7.304688 2.703125 -6.234375 C 2.703125 -4.554688 3.03125 -3.097656 3.6875 -1.859375 C 4.207031 -0.890625 4.941406 -0.40625 5.890625 -0.40625 C 6.734375 -0.40625 7.394531 -0.765625 7.875 -1.484375 C 8.363281 -2.210938 8.609375 -3.222656 8.609375 -4.515625 Z M 8.609375 -4.515625 "/></g></g></g><g fill="#000000" fill-opacity="1"><g transform="translate(108.957426, 361.230088)"><g><path d="M 9.609375 -3.5625 C 8.628906 -1.039062 7.023438 0.21875 4.796875 0.21875 C 3.503906 0.21875 2.472656 -0.234375 1.703125 -1.140625 C 0.941406 -2.054688 0.5625 -3.289062 0.5625 -4.84375 C 0.5625 -6.488281 1 -7.828125 1.875 -8.859375 C 2.75 -9.898438 3.890625 -10.421875 5.296875 -10.421875 C 6.503906 -10.421875 7.472656 -9.988281 8.203125 -9.125 C 8.703125 -8.488281 9.023438 -7.539062 9.171875 -6.28125 L 2.203125 -6.28125 C 2.242188 -4.988281 2.46875 -3.945312 2.875 -3.15625 C 3.519531 -1.945312 4.472656 -1.34375 5.734375 -1.34375 C 6.453125 -1.34375 7.078125 -1.519531 7.609375 -1.875 C 8.148438 -2.238281 8.695312 -2.851562 9.25 -3.71875 Z M 6.859375 -7 C 6.710938 -7.976562 6.476562 -8.65625 6.15625 -9.03125 C 5.84375 -9.414062 5.335938 -9.609375 4.640625 -9.609375 C 3.285156 -9.609375 2.488281 -8.738281 2.25 -7 Z M 6.859375 -7 "/></g></g></g><g fill="#000000" fill-opacity="1"><g transform="translate(119.018558, 361.230088)"><g><path d="M 7.890625 -2.671875 C 7.890625 -1.890625 7.570312 -1.210938 6.9375 -0.640625 C 6.3125 -0.0664062 5.570312 0.21875 4.71875 0.21875 C 4.300781 0.21875 3.738281 0.144531 3.03125 0 C 2.550781 -0.125 2.207031 -0.1875 2 -0.1875 C 1.769531 -0.1875 1.59375 -0.09375 1.46875 0.09375 L 1.171875 0.09375 L 1.171875 -3.4375 L 1.546875 -3.4375 C 1.796875 -2.289062 2.140625 -1.472656 2.578125 -0.984375 C 3.015625 -0.503906 3.628906 -0.265625 4.421875 -0.265625 C 4.992188 -0.265625 5.445312 -0.410156 5.78125 -0.703125 C 6.125 -1.003906 6.296875 -1.40625 6.296875 -1.90625 C 6.296875 -2.582031 5.90625 -3.148438 5.125 -3.609375 L 3.8125 -4.34375 C 2.84375 -4.90625 2.15625 -5.429688 1.75 -5.921875 C 1.351562 -6.410156 1.15625 -6.972656 1.15625 -7.609375 C 1.15625 -8.441406 1.445312 -9.113281 2.03125 -9.625 C 2.613281 -10.144531 3.363281 -10.40625 4.28125 -10.40625 C 4.84375 -10.40625 5.359375 -10.3125 5.828125 -10.125 C 6.046875 -10.019531 6.25 -9.96875 6.4375 -9.96875 C 6.5 -9.96875 6.601562 -10.03125 6.75 -10.15625 L 6.796875 -10.1875 L 7.046875 -10.1875 L 7.140625 -7.109375 L 6.796875 -7.109375 C 6.535156 -8.117188 6.21875 -8.835938 5.84375 -9.265625 C 5.46875 -9.691406 4.953125 -9.90625 4.296875 -9.90625 C 3.773438 -9.90625 3.351562 -9.765625 3.03125 -9.484375 C 2.71875 -9.203125 2.5625 -8.828125 2.5625 -8.359375 C 2.5625 -7.710938 2.882812 -7.195312 3.53125 -6.8125 L 5.984375 -5.375 C 6.671875 -4.957031 7.160156 -4.546875 7.453125 -4.140625 C 7.742188 -3.734375 7.890625 -3.242188 7.890625 -2.671875 Z M 7.890625 -2.671875 "/></g></g></g><g fill="#000000" fill-opacity="1"><g transform="translate(127.833374, 361.230088)"><g/></g></g><g fill="#000000" fill-opacity="1"><g transform="translate(133.498433, 361.230088)"><g><path d="M 15.71875 -9.859375 C 15.5 -9.773438 15.34375 -9.671875 15.25 -9.546875 C 15.15625 -9.421875 15.003906 -9.113281 14.796875 -8.625 L 11.671875 -0.796875 C 11.367188 -0.0546875 11.15625 0.3125 11.03125 0.3125 C 10.914062 0.3125 10.734375 -0.0078125 10.484375 -0.65625 L 8.421875 -6 L 5.890625 -0.5625 C 5.617188 0.0195312 5.429688 0.3125 5.328125 0.3125 C 5.203125 0.3125 5.003906 -0.015625 4.734375 -0.671875 L 1.671875 -8.421875 C 1.421875 -8.992188 1.222656 -9.367188 1.078125 -9.546875 C 0.929688 -9.734375 0.726562 -9.835938 0.46875 -9.859375 L 0.46875 -10.1875 L 4.546875 -10.1875 L 4.546875 -9.859375 C 4.160156 -9.804688 3.890625 -9.726562 3.734375 -9.625 C 3.585938 -9.519531 3.515625 -9.347656 3.515625 -9.109375 C 3.515625 -8.878906 3.554688 -8.648438 3.640625 -8.421875 L 5.890625 -2.515625 L 7.953125 -7.015625 L 7.5 -8.296875 C 7.269531 -8.898438 7.054688 -9.296875 6.859375 -9.484375 C 6.660156 -9.679688 6.351562 -9.804688 5.9375 -9.859375 L 5.9375 -10.1875 L 10.53125 -10.1875 L 10.53125 -9.859375 C 10 -9.773438 9.644531 -9.679688 9.46875 -9.578125 C 9.300781 -9.472656 9.21875 -9.296875 9.21875 -9.046875 C 9.21875 -8.847656 9.347656 -8.398438 9.609375 -7.703125 L 11.515625 -2.625 L 13.546875 -7.65625 C 13.804688 -8.289062 13.9375 -8.789062 13.9375 -9.15625 C 13.9375 -9.351562 13.867188 -9.5 13.734375 -9.59375 C 13.597656 -9.6875 13.332031 -9.773438 12.9375 -9.859375 L 12.9375 -10.1875 L 15.71875 -10.1875 Z M 15.71875 -9.859375 "/></g></g></g><g fill="#000000" fill-opacity="1"><g transform="translate(149.859082, 361.230088)"><g><path d="M 9.609375 -3.5625 C 8.628906 -1.039062 7.023438 0.21875 4.796875 0.21875 C 3.503906 0.21875 2.472656 -0.234375 1.703125 -1.140625 C 0.941406 -2.054688 0.5625 -3.289062 0.5625 -4.84375 C 0.5625 -6.488281 1 -7.828125 1.875 -8.859375 C 2.75 -9.898438 3.890625 -10.421875 5.296875 -10.421875 C 6.503906 -10.421875 7.472656 -9.988281 8.203125 -9.125 C 8.703125 -8.488281 9.023438 -7.539062 9.171875 -6.28125 L 2.203125 -6.28125 C 2.242188 -4.988281 2.46875 -3.945312 2.875 -3.15625 C 3.519531 -1.945312 4.472656 -1.34375 5.734375 -1.34375 C 6.453125 -1.34375 7.078125 -1.519531 7.609375 -1.875 C 8.148438 -2.238281 8.695312 -2.851562 9.25 -3.71875 Z M 6.859375 -7 C 6.710938 -7.976562 6.476562 -8.65625 6.15625 -9.03125 C 5.84375 -9.414062 5.335938 -9.609375 4.640625 -9.609375 C 3.285156 -9.609375 2.488281 -8.738281 2.25 -7 Z M 6.859375 -7 "/></g></g></g><g fill="#000000" fill-opacity="1"><g transform="translate(159.920214, 361.230088)"><g><path d="M 5.828125 0 L 0.46875 0 L 0.46875 -0.34375 C 1.1875 -0.40625 1.65625 -0.539062 1.875 -0.75 C 2.101562 -0.957031 2.21875 -1.363281 2.21875 -1.96875 L 2.21875 -12.78125 C 2.21875 -13.3125 2.148438 -13.671875 2.015625 -13.859375 C 1.878906 -14.054688 1.628906 -14.15625 1.265625 -14.15625 C 1.128906 -14.15625 0.894531 -14.140625 0.5625 -14.109375 L 0.4375 -14.109375 L 0.4375 -14.484375 C 1.925781 -14.835938 3.125 -15.164062 4.03125 -15.46875 L 4.125 -15.421875 L 4.125 -1.90625 C 4.125 -1.28125 4.222656 -0.875 4.421875 -0.6875 C 4.628906 -0.5 5.097656 -0.382812 5.828125 -0.34375 Z M 5.828125 0 "/></g></g></g><g fill="#000000" fill-opacity="1"><g transform="translate(166.219753, 361.230088)"><g><path d="M 5.828125 0 L 0.46875 0 L 0.46875 -0.34375 C 1.1875 -0.40625 1.65625 -0.539062 1.875 -0.75 C 2.101562 -0.957031 2.21875 -1.363281 2.21875 -1.96875 L 2.21875 -12.78125 C 2.21875 -13.3125 2.148438 -13.671875 2.015625 -13.859375 C 1.878906 -14.054688 1.628906 -14.15625 1.265625 -14.15625 C 1.128906 -14.15625 0.894531 -14.140625 0.5625 -14.109375 L 0.4375 -14.109375 L 0.4375 -14.484375 C 1.925781 -14.835938 3.125 -15.164062 4.03125 -15.46875 L 4.125 -15.421875 L 4.125 -1.90625 C 4.125 -1.28125 4.222656 -0.875 4.421875 -0.6875 C 4.628906 -0.5 5.097656 -0.382812 5.828125 -0.34375 Z M 5.828125 0 "/></g></g></g><g fill="#000000" fill-opacity="1"><g transform="translate(172.519293, 361.230088)"><g/></g></g><g fill="#000000" fill-opacity="1"><g transform="translate(178.184351, 361.230088)"><g><path d="M 10.015625 -0.90625 C 9.617188 -0.46875 9.273438 -0.171875 8.984375 -0.015625 C 8.691406 0.140625 8.351562 0.21875 7.96875 0.21875 C 7.5 0.21875 7.15625 0.0976562 6.9375 -0.140625 C 6.71875 -0.390625 6.582031 -0.816406 6.53125 -1.421875 C 5.226562 -0.328125 4.125 0.21875 3.21875 0.21875 C 2.519531 0.21875 1.945312 -0.00390625 1.5 -0.453125 C 1.0625 -0.898438 0.84375 -1.484375 0.84375 -2.203125 C 0.84375 -3.015625 1.113281 -3.671875 1.65625 -4.171875 C 2.132812 -4.585938 2.617188 -4.921875 3.109375 -5.171875 C 3.597656 -5.421875 4.726562 -5.898438 6.5 -6.609375 L 6.5 -8 C 6.5 -9.25 5.925781 -9.875 4.78125 -9.875 C 4.320312 -9.875 3.9375 -9.765625 3.625 -9.546875 C 3.3125 -9.328125 3.15625 -9.066406 3.15625 -8.765625 C 3.15625 -8.597656 3.175781 -8.414062 3.21875 -8.21875 C 3.25 -8.007812 3.265625 -7.890625 3.265625 -7.859375 C 3.265625 -7.597656 3.160156 -7.375 2.953125 -7.1875 C 2.753906 -7 2.515625 -6.90625 2.234375 -6.90625 C 1.960938 -6.90625 1.734375 -7.003906 1.546875 -7.203125 C 1.359375 -7.398438 1.265625 -7.628906 1.265625 -7.890625 C 1.265625 -8.503906 1.578125 -9.066406 2.203125 -9.578125 C 2.878906 -10.140625 3.835938 -10.421875 5.078125 -10.421875 C 6.484375 -10.421875 7.425781 -9.984375 7.90625 -9.109375 C 8.195312 -8.640625 8.34375 -7.867188 8.34375 -6.796875 L 8.34375 -2.375 C 8.34375 -1.875 8.390625 -1.53125 8.484375 -1.34375 C 8.578125 -1.15625 8.753906 -1.0625 9.015625 -1.0625 C 9.335938 -1.0625 9.671875 -1.207031 10.015625 -1.5 Z M 6.5 -2.78125 L 6.5 -6.078125 C 5.144531 -5.578125 4.191406 -5.09375 3.640625 -4.625 C 3.097656 -4.15625 2.828125 -3.585938 2.828125 -2.921875 L 2.828125 -2.828125 C 2.828125 -2.347656 2.96875 -1.9375 3.25 -1.59375 C 3.53125 -1.257812 3.867188 -1.09375 4.265625 -1.09375 C 4.785156 -1.09375 5.332031 -1.253906 5.90625 -1.578125 C 6.15625 -1.734375 6.316406 -1.882812 6.390625 -2.03125 C 6.460938 -2.1875 6.5 -2.4375 6.5 -2.78125 Z M 6.5 -2.78125 "/></g></g></g><g fill="#000000" fill-opacity="1"><g transform="translate(188.245483, 361.230088)"><g><path d="M 10.984375 0 L 6.28125 0 L 6.28125 -0.34375 C 6.851562 -0.382812 7.234375 -0.53125 7.421875 -0.78125 C 7.609375 -1.039062 7.703125 -1.53125 7.703125 -2.25 L 7.703125 -6.984375 C 7.703125 -8.441406 7.148438 -9.171875 6.046875 -9.171875 C 5.671875 -9.171875 5.320312 -9.082031 5 -8.90625 C 4.6875 -8.738281 4.257812 -8.398438 3.71875 -7.890625 L 3.71875 -1.515625 C 3.71875 -1.109375 3.820312 -0.820312 4.03125 -0.65625 C 4.238281 -0.488281 4.628906 -0.382812 5.203125 -0.34375 L 5.203125 0 L 0.40625 0 L 0.40625 -0.34375 C 0.976562 -0.382812 1.351562 -0.515625 1.53125 -0.734375 C 1.71875 -0.953125 1.8125 -1.382812 1.8125 -2.03125 L 1.8125 -7.65625 C 1.8125 -8.21875 1.75 -8.597656 1.625 -8.796875 C 1.507812 -9.003906 1.289062 -9.109375 0.96875 -9.109375 C 0.6875 -9.109375 0.484375 -9.078125 0.359375 -9.015625 L 0.359375 -9.40625 C 1.472656 -9.738281 2.515625 -10.078125 3.484375 -10.421875 L 3.640625 -10.375 L 3.640625 -8.59375 C 4.410156 -9.3125 5.019531 -9.796875 5.46875 -10.046875 C 5.914062 -10.296875 6.40625 -10.421875 6.9375 -10.421875 C 7.757812 -10.421875 8.410156 -10.117188 8.890625 -9.515625 C 9.367188 -8.921875 9.609375 -8.085938 9.609375 -7.015625 L 9.609375 -1.828125 C 9.609375 -1.273438 9.695312 -0.90625 9.875 -0.71875 C 10.0625 -0.53125 10.429688 -0.40625 10.984375 -0.34375 Z M 10.984375 0 "/></g></g></g><g fill="#000000" fill-opacity="1"><g transform="translate(199.575577, 361.230088)"><g><path d="M 11.125 -0.953125 L 7.796875 0.21875 L 7.703125 0.15625 L 7.703125 -1.296875 C 6.972656 -0.285156 6.003906 0.21875 4.796875 0.21875 C 3.546875 0.21875 2.535156 -0.226562 1.765625 -1.125 C 0.992188 -2.019531 0.609375 -3.191406 0.609375 -4.640625 C 0.609375 -6.242188 1.066406 -7.609375 1.984375 -8.734375 C 2.910156 -9.859375 4.023438 -10.421875 5.328125 -10.421875 C 6.140625 -10.421875 6.929688 -10.097656 7.703125 -9.453125 L 7.703125 -12.984375 C 7.703125 -13.453125 7.632812 -13.757812 7.5 -13.90625 C 7.363281 -14.0625 7.082031 -14.140625 6.65625 -14.140625 C 6.445312 -14.140625 6.28125 -14.128906 6.15625 -14.109375 L 6.15625 -14.484375 C 7.53125 -14.835938 8.644531 -15.164062 9.5 -15.46875 L 9.609375 -15.421875 L 9.609375 -2.578125 C 9.609375 -2.054688 9.671875 -1.710938 9.796875 -1.546875 C 9.921875 -1.378906 10.191406 -1.296875 10.609375 -1.296875 C 10.679688 -1.296875 10.851562 -1.300781 11.125 -1.3125 Z M 7.703125 -2.3125 L 7.703125 -7.515625 C 7.703125 -8.117188 7.46875 -8.644531 7 -9.09375 C 6.53125 -9.550781 5.992188 -9.78125 5.390625 -9.78125 C 4.523438 -9.78125 3.835938 -9.394531 3.328125 -8.625 C 2.816406 -7.851562 2.5625 -6.828125 2.5625 -5.546875 C 2.5625 -4.160156 2.847656 -3.046875 3.421875 -2.203125 C 3.992188 -1.367188 4.75 -0.953125 5.6875 -0.953125 C 6.363281 -0.953125 6.90625 -1.175781 7.3125 -1.625 C 7.570312 -1.914062 7.703125 -2.144531 7.703125 -2.3125 Z M 7.703125 -2.3125 "/></g></g></g><g fill="#000000" fill-opacity="1"><g transform="translate(210.905672, 361.230088)"><g/></g></g><g fill="#000000" fill-opacity="1"><g transform="translate(216.57073, 361.230088)"><g><path d="M 11.03125 0 L 6.234375 0 L 6.234375 -0.34375 C 6.878906 -0.40625 7.296875 -0.554688 7.484375 -0.796875 C 7.671875 -1.035156 7.765625 -1.539062 7.765625 -2.3125 L 7.765625 -6.796875 C 7.765625 -8.398438 7.203125 -9.203125 6.078125 -9.203125 C 5.640625 -9.203125 5.226562 -9.09375 4.84375 -8.875 C 4.457031 -8.65625 4.03125 -8.285156 3.5625 -7.765625 L 3.5625 -2.3125 C 3.5625 -1.519531 3.648438 -1.007812 3.828125 -0.78125 C 4.003906 -0.5625 4.425781 -0.414062 5.09375 -0.34375 L 5.09375 0 L 0.203125 0 L 0.203125 -0.34375 C 0.847656 -0.425781 1.25 -0.570312 1.40625 -0.78125 C 1.570312 -1 1.65625 -1.507812 1.65625 -2.3125 L 1.65625 -12.984375 C 1.65625 -13.460938 1.582031 -13.773438 1.4375 -13.921875 C 1.289062 -14.066406 0.976562 -14.140625 0.5 -14.140625 C 0.375 -14.140625 0.28125 -14.128906 0.21875 -14.109375 L 0.21875 -14.484375 L 0.84375 -14.65625 C 1.863281 -14.945312 2.726562 -15.21875 3.4375 -15.46875 L 3.5625 -15.40625 L 3.5625 -8.515625 C 4.082031 -9.191406 4.597656 -9.675781 5.109375 -9.96875 C 5.628906 -10.269531 6.222656 -10.421875 6.890625 -10.421875 C 8.742188 -10.421875 9.671875 -9.21875 9.671875 -6.8125 L 9.671875 -2.3125 C 9.671875 -1.519531 9.742188 -1.019531 9.890625 -0.8125 C 10.035156 -0.613281 10.414062 -0.457031 11.03125 -0.34375 Z M 11.03125 0 "/></g></g></g><g fill="#000000" fill-opacity="1"><g transform="translate(227.900824, 361.230088)"><g><path d="M 9.609375 -3.5625 C 8.628906 -1.039062 7.023438 0.21875 4.796875 0.21875 C 3.503906 0.21875 2.472656 -0.234375 1.703125 -1.140625 C 0.941406 -2.054688 0.5625 -3.289062 0.5625 -4.84375 C 0.5625 -6.488281 1 -7.828125 1.875 -8.859375 C 2.75 -9.898438 3.890625 -10.421875 5.296875 -10.421875 C 6.503906 -10.421875 7.472656 -9.988281 8.203125 -9.125 C 8.703125 -8.488281 9.023438 -7.539062 9.171875 -6.28125 L 2.203125 -6.28125 C 2.242188 -4.988281 2.46875 -3.945312 2.875 -3.15625 C 3.519531 -1.945312 4.472656 -1.34375 5.734375 -1.34375 C 6.453125 -1.34375 7.078125 -1.519531 7.609375 -1.875 C 8.148438 -2.238281 8.695312 -2.851562 9.25 -3.71875 Z M 6.859375 -7 C 6.710938 -7.976562 6.476562 -8.65625 6.15625 -9.03125 C 5.84375 -9.414062 5.335938 -9.609375 4.640625 -9.609375 C 3.285156 -9.609375 2.488281 -8.738281 2.25 -7 Z M 6.859375 -7 "/></g></g></g><g fill="#000000" fill-opacity="1"><g transform="translate(237.961956, 361.230088)"><g/></g></g><g fill="#000000" fill-opacity="1"><g transform="translate(243.627014, 361.230088)"><g><path d="M 8.671875 -14.0625 C 8.671875 -13.8125 8.582031 -13.59375 8.40625 -13.40625 C 8.226562 -13.226562 8 -13.140625 7.71875 -13.140625 C 7.363281 -13.140625 7.023438 -13.410156 6.703125 -13.953125 C 6.335938 -14.546875 5.9375 -14.84375 5.5 -14.84375 C 4.644531 -14.84375 4.21875 -14.171875 4.21875 -12.828125 L 4.21875 -10.1875 L 7 -10.1875 L 7 -9.46875 L 4.234375 -9.46875 L 4.234375 -2.359375 C 4.234375 -1.515625 4.351562 -0.972656 4.59375 -0.734375 C 4.84375 -0.503906 5.425781 -0.375 6.34375 -0.34375 L 6.34375 0 L 0.453125 0 L 0.453125 -0.34375 C 1.265625 -0.382812 1.78125 -0.519531 2 -0.75 C 2.21875 -0.988281 2.328125 -1.523438 2.328125 -2.359375 L 2.328125 -9.46875 L 0.46875 -9.46875 L 0.46875 -10.1875 L 2.328125 -10.1875 C 2.347656 -11.09375 2.410156 -11.800781 2.515625 -12.3125 C 2.617188 -12.820312 2.820312 -13.332031 3.125 -13.84375 C 3.757812 -14.925781 4.828125 -15.46875 6.328125 -15.46875 C 7.003906 -15.46875 7.5625 -15.335938 8 -15.078125 C 8.445312 -14.816406 8.671875 -14.476562 8.671875 -14.0625 Z M 8.671875 -14.0625 "/></g></g></g><g fill="#000000" fill-opacity="1"><g transform="translate(251.172868, 361.230088)"><g><path d="M 5.734375 0 L 0.359375 0 L 0.359375 -0.34375 C 1.148438 -0.382812 1.644531 -0.519531 1.84375 -0.75 C 2.050781 -0.976562 2.15625 -1.5 2.15625 -2.3125 L 2.15625 -7.5625 C 2.15625 -8.0625 2.097656 -8.410156 1.984375 -8.609375 C 1.867188 -8.816406 1.675781 -8.921875 1.40625 -8.921875 C 1.164062 -8.921875 0.910156 -8.898438 0.640625 -8.859375 L 0.453125 -8.828125 L 0.453125 -9.171875 L 3.96875 -10.421875 L 4.0625 -10.359375 L 4.0625 -2.3125 C 4.0625 -1.5 4.15625 -0.984375 4.34375 -0.765625 C 4.53125 -0.546875 4.992188 -0.40625 5.734375 -0.34375 Z M 4.265625 -13.359375 C 4.265625 -13.035156 4.15625 -12.765625 3.9375 -12.546875 C 3.71875 -12.328125 3.441406 -12.21875 3.109375 -12.21875 C 2.785156 -12.21875 2.507812 -12.328125 2.28125 -12.546875 C 2.0625 -12.765625 1.953125 -13.035156 1.953125 -13.359375 C 1.953125 -13.679688 2.0625 -13.953125 2.28125 -14.171875 C 2.507812 -14.398438 2.785156 -14.515625 3.109375 -14.515625 C 3.441406 -14.515625 3.71875 -14.398438 3.9375 -14.171875 C 4.15625 -13.953125 4.265625 -13.679688 4.265625 -13.359375 Z M 4.265625 -13.359375 "/></g></g></g><g fill="#000000" fill-opacity="1"><g transform="translate(257.472408, 361.230088)"><g><path d="M 10.984375 0 L 6.28125 0 L 6.28125 -0.34375 C 6.851562 -0.382812 7.234375 -0.53125 7.421875 -0.78125 C 7.609375 -1.039062 7.703125 -1.53125 7.703125 -2.25 L 7.703125 -6.984375 C 7.703125 -8.441406 7.148438 -9.171875 6.046875 -9.171875 C 5.671875 -9.171875 5.320312 -9.082031 5 -8.90625 C 4.6875 -8.738281 4.257812 -8.398438 3.71875 -7.890625 L 3.71875 -1.515625 C 3.71875 -1.109375 3.820312 -0.820312 4.03125 -0.65625 C 4.238281 -0.488281 4.628906 -0.382812 5.203125 -0.34375 L 5.203125 0 L 0.40625 0 L 0.40625 -0.34375 C 0.976562 -0.382812 1.351562 -0.515625 1.53125 -0.734375 C 1.71875 -0.953125 1.8125 -1.382812 1.8125 -2.03125 L 1.8125 -7.65625 C 1.8125 -8.21875 1.75 -8.597656 1.625 -8.796875 C 1.507812 -9.003906 1.289062 -9.109375 0.96875 -9.109375 C 0.6875 -9.109375 0.484375 -9.078125 0.359375 -9.015625 L 0.359375 -9.40625 C 1.472656 -9.738281 2.515625 -10.078125 3.484375 -10.421875 L 3.640625 -10.375 L 3.640625 -8.59375 C 4.410156 -9.3125 5.019531 -9.796875 5.46875 -10.046875 C 5.914062 -10.296875 6.40625 -10.421875 6.9375 -10.421875 C 7.757812 -10.421875 8.410156 -10.117188 8.890625 -9.515625 C 9.367188 -8.921875 9.609375 -8.085938 9.609375 -7.015625 L 9.609375 -1.828125 C 9.609375 -1.273438 9.695312 -0.90625 9.875 -0.71875 C 10.0625 -0.53125 10.429688 -0.40625 10.984375 -0.34375 Z M 10.984375 0 "/></g></g></g><g fill="#000000" fill-opacity="1"><g transform="translate(268.802502, 361.230088)"><g><path d="M 5.734375 0 L 0.359375 0 L 0.359375 -0.34375 C 1.148438 -0.382812 1.644531 -0.519531 1.84375 -0.75 C 2.050781 -0.976562 2.15625 -1.5 2.15625 -2.3125 L 2.15625 -7.5625 C 2.15625 -8.0625 2.097656 -8.410156 1.984375 -8.609375 C 1.867188 -8.816406 1.675781 -8.921875 1.40625 -8.921875 C 1.164062 -8.921875 0.910156 -8.898438 0.640625 -8.859375 L 0.453125 -8.828125 L 0.453125 -9.171875 L 3.96875 -10.421875 L 4.0625 -10.359375 L 4.0625 -2.3125 C 4.0625 -1.5 4.15625 -0.984375 4.34375 -0.765625 C 4.53125 -0.546875 4.992188 -0.40625 5.734375 -0.34375 Z M 4.265625 -13.359375 C 4.265625 -13.035156 4.15625 -12.765625 3.9375 -12.546875 C 3.71875 -12.328125 3.441406 -12.21875 3.109375 -12.21875 C 2.785156 -12.21875 2.507812 -12.328125 2.28125 -12.546875 C 2.0625 -12.765625 1.953125 -13.035156 1.953125 -13.359375 C 1.953125 -13.679688 2.0625 -13.953125 2.28125 -14.171875 C 2.507812 -14.398438 2.785156 -14.515625 3.109375 -14.515625 C 3.441406 -14.515625 3.71875 -14.398438 3.9375 -14.171875 C 4.15625 -13.953125 4.265625 -13.679688 4.265625 -13.359375 Z M 4.265625 -13.359375 "/></g></g></g><g fill="#000000" fill-opacity="1"><g transform="translate(275.102042, 361.230088)"><g><path d="M 7.890625 -2.671875 C 7.890625 -1.890625 7.570312 -1.210938 6.9375 -0.640625 C 6.3125 -0.0664062 5.570312 0.21875 4.71875 0.21875 C 4.300781 0.21875 3.738281 0.144531 3.03125 0 C 2.550781 -0.125 2.207031 -0.1875 2 -0.1875 C 1.769531 -0.1875 1.59375 -0.09375 1.46875 0.09375 L 1.171875 0.09375 L 1.171875 -3.4375 L 1.546875 -3.4375 C 1.796875 -2.289062 2.140625 -1.472656 2.578125 -0.984375 C 3.015625 -0.503906 3.628906 -0.265625 4.421875 -0.265625 C 4.992188 -0.265625 5.445312 -0.410156 5.78125 -0.703125 C 6.125 -1.003906 6.296875 -1.40625 6.296875 -1.90625 C 6.296875 -2.582031 5.90625 -3.148438 5.125 -3.609375 L 3.8125 -4.34375 C 2.84375 -4.90625 2.15625 -5.429688 1.75 -5.921875 C 1.351562 -6.410156 1.15625 -6.972656 1.15625 -7.609375 C 1.15625 -8.441406 1.445312 -9.113281 2.03125 -9.625 C 2.613281 -10.144531 3.363281 -10.40625 4.28125 -10.40625 C 4.84375 -10.40625 5.359375 -10.3125 5.828125 -10.125 C 6.046875 -10.019531 6.25 -9.96875 6.4375 -9.96875 C 6.5 -9.96875 6.601562 -10.03125 6.75 -10.15625 L 6.796875 -10.1875 L 7.046875 -10.1875 L 7.140625 -7.109375 L 6.796875 -7.109375 C 6.535156 -8.117188 6.21875 -8.835938 5.84375 -9.265625 C 5.46875 -9.691406 4.953125 -9.90625 4.296875 -9.90625 C 3.773438 -9.90625 3.351562 -9.765625 3.03125 -9.484375 C 2.71875 -9.203125 2.5625 -8.828125 2.5625 -8.359375 C 2.5625 -7.710938 2.882812 -7.195312 3.53125 -6.8125 L 5.984375 -5.375 C 6.671875 -4.957031 7.160156 -4.546875 7.453125 -4.140625 C 7.742188 -3.734375 7.890625 -3.242188 7.890625 -2.671875 Z M 7.890625 -2.671875 "/></g></g></g><g fill="#000000" fill-opacity="1"><g transform="translate(283.916858, 361.230088)"><g><path d="M 11.03125 0 L 6.234375 0 L 6.234375 -0.34375 C 6.878906 -0.40625 7.296875 -0.554688 7.484375 -0.796875 C 7.671875 -1.035156 7.765625 -1.539062 7.765625 -2.3125 L 7.765625 -6.796875 C 7.765625 -8.398438 7.203125 -9.203125 6.078125 -9.203125 C 5.640625 -9.203125 5.226562 -9.09375 4.84375 -8.875 C 4.457031 -8.65625 4.03125 -8.285156 3.5625 -7.765625 L 3.5625 -2.3125 C 3.5625 -1.519531 3.648438 -1.007812 3.828125 -0.78125 C 4.003906 -0.5625 4.425781 -0.414062 5.09375 -0.34375 L 5.09375 0 L 0.203125 0 L 0.203125 -0.34375 C 0.847656 -0.425781 1.25 -0.570312 1.40625 -0.78125 C 1.570312 -1 1.65625 -1.507812 1.65625 -2.3125 L 1.65625 -12.984375 C 1.65625 -13.460938 1.582031 -13.773438 1.4375 -13.921875 C 1.289062 -14.066406 0.976562 -14.140625 0.5 -14.140625 C 0.375 -14.140625 0.28125 -14.128906 0.21875 -14.109375 L 0.21875 -14.484375 L 0.84375 -14.65625 C 1.863281 -14.945312 2.726562 -15.21875 3.4375 -15.46875 L 3.5625 -15.40625 L 3.5625 -8.515625 C 4.082031 -9.191406 4.597656 -9.675781 5.109375 -9.96875 C 5.628906 -10.269531 6.222656 -10.421875 6.890625 -10.421875 C 8.742188 -10.421875 9.671875 -9.21875 9.671875 -6.8125 L 9.671875 -2.3125 C 9.671875 -1.519531 9.742188 -1.019531 9.890625 -0.8125 C 10.035156 -0.613281 10.414062 -0.457031 11.03125 -0.34375 Z M 11.03125 0 "/></g></g></g><g fill="#000000" fill-opacity="1"><g transform="translate(295.246953, 361.230088)"><g><path d="M 9.609375 -3.5625 C 8.628906 -1.039062 7.023438 0.21875 4.796875 0.21875 C 3.503906 0.21875 2.472656 -0.234375 1.703125 -1.140625 C 0.941406 -2.054688 0.5625 -3.289062 0.5625 -4.84375 C 0.5625 -6.488281 1 -7.828125 1.875 -8.859375 C 2.75 -9.898438 3.890625 -10.421875 5.296875 -10.421875 C 6.503906 -10.421875 7.472656 -9.988281 8.203125 -9.125 C 8.703125 -8.488281 9.023438 -7.539062 9.171875 -6.28125 L 2.203125 -6.28125 C 2.242188 -4.988281 2.46875 -3.945312 2.875 -3.15625 C 3.519531 -1.945312 4.472656 -1.34375 5.734375 -1.34375 C 6.453125 -1.34375 7.078125 -1.519531 7.609375 -1.875 C 8.148438 -2.238281 8.695312 -2.851562 9.25 -3.71875 Z M 6.859375 -7 C 6.710938 -7.976562 6.476562 -8.65625 6.15625 -9.03125 C 5.84375 -9.414062 5.335938 -9.609375 4.640625 -9.609375 C 3.285156 -9.609375 2.488281 -8.738281 2.25 -7 Z M 6.859375 -7 "/></g></g></g><g fill="#000000" fill-opacity="1"><g transform="translate(305.308085, 361.230088)"><g><path d="M 7.890625 -2.671875 C 7.890625 -1.890625 7.570312 -1.210938 6.9375 -0.640625 C 6.3125 -0.0664062 5.570312 0.21875 4.71875 0.21875 C 4.300781 0.21875 3.738281 0.144531 3.03125 0 C 2.550781 -0.125 2.207031 -0.1875 2 -0.1875 C 1.769531 -0.1875 1.59375 -0.09375 1.46875 0.09375 L 1.171875 0.09375 L 1.171875 -3.4375 L 1.546875 -3.4375 C 1.796875 -2.289062 2.140625 -1.472656 2.578125 -0.984375 C 3.015625 -0.503906 3.628906 -0.265625 4.421875 -0.265625 C 4.992188 -0.265625 5.445312 -0.410156 5.78125 -0.703125 C 6.125 -1.003906 6.296875 -1.40625 6.296875 -1.90625 C 6.296875 -2.582031 5.90625 -3.148438 5.125 -3.609375 L 3.8125 -4.34375 C 2.84375 -4.90625 2.15625 -5.429688 1.75 -5.921875 C 1.351562 -6.410156 1.15625 -6.972656 1.15625 -7.609375 C 1.15625 -8.441406 1.445312 -9.113281 2.03125 -9.625 C 2.613281 -10.144531 3.363281 -10.40625 4.28125 -10.40625 C 4.84375 -10.40625 5.359375 -10.3125 5.828125 -10.125 C 6.046875 -10.019531 6.25 -9.96875 6.4375 -9.96875 C 6.5 -9.96875 6.601562 -10.03125 6.75 -10.15625 L 6.796875 -10.1875 L 7.046875 -10.1875 L 7.140625 -7.109375 L 6.796875 -7.109375 C 6.535156 -8.117188 6.21875 -8.835938 5.84375 -9.265625 C 5.46875 -9.691406 4.953125 -9.90625 4.296875 -9.90625 C 3.773438 -9.90625 3.351562 -9.765625 3.03125 -9.484375 C 2.71875 -9.203125 2.5625 -8.828125 2.5625 -8.359375 C 2.5625 -7.710938 2.882812 -7.195312 3.53125 -6.8125 L 5.984375 -5.375 C 6.671875 -4.957031 7.160156 -4.546875 7.453125 -4.140625 C 7.742188 -3.734375 7.890625 -3.242188 7.890625 -2.671875 Z M 7.890625 -2.671875 "/></g></g></g><g fill="#000000" fill-opacity="1"><g transform="translate(314.115798, 361.230088)"><g/></g></g><g fill="#000000" fill-opacity="1"><g transform="translate(92.559757, 392.387788)"><g><path d="M 11.03125 0 L 6.234375 0 L 6.234375 -0.34375 C 6.878906 -0.40625 7.296875 -0.554688 7.484375 -0.796875 C 7.671875 -1.035156 7.765625 -1.539062 7.765625 -2.3125 L 7.765625 -6.796875 C 7.765625 -8.398438 7.203125 -9.203125 6.078125 -9.203125 C 5.640625 -9.203125 5.226562 -9.09375 4.84375 -8.875 C 4.457031 -8.65625 4.03125 -8.285156 3.5625 -7.765625 L 3.5625 -2.3125 C 3.5625 -1.519531 3.648438 -1.007812 3.828125 -0.78125 C 4.003906 -0.5625 4.425781 -0.414062 5.09375 -0.34375 L 5.09375 0 L 0.203125 0 L 0.203125 -0.34375 C 0.847656 -0.425781 1.25 -0.570312 1.40625 -0.78125 C 1.570312 -1 1.65625 -1.507812 1.65625 -2.3125 L 1.65625 -12.984375 C 1.65625 -13.460938 1.582031 -13.773438 1.4375 -13.921875 C 1.289062 -14.066406 0.976562 -14.140625 0.5 -14.140625 C 0.375 -14.140625 0.28125 -14.128906 0.21875 -14.109375 L 0.21875 -14.484375 L 0.84375 -14.65625 C 1.863281 -14.945312 2.726562 -15.21875 3.4375 -15.46875 L 3.5625 -15.40625 L 3.5625 -8.515625 C 4.082031 -9.191406 4.597656 -9.675781 5.109375 -9.96875 C 5.628906 -10.269531 6.222656 -10.421875 6.890625 -10.421875 C 8.742188 -10.421875 9.671875 -9.21875 9.671875 -6.8125 L 9.671875 -2.3125 C 9.671875 -1.519531 9.742188 -1.019531 9.890625 -0.8125 C 10.035156 -0.613281 10.414062 -0.457031 11.03125 -0.34375 Z M 11.03125 0 "/></g></g></g><g fill="#000000" fill-opacity="1"><g transform="translate(103.889852, 392.387788)"><g><path d="M 5.734375 0 L 0.359375 0 L 0.359375 -0.34375 C 1.148438 -0.382812 1.644531 -0.519531 1.84375 -0.75 C 2.050781 -0.976562 2.15625 -1.5 2.15625 -2.3125 L 2.15625 -7.5625 C 2.15625 -8.0625 2.097656 -8.410156 1.984375 -8.609375 C 1.867188 -8.816406 1.675781 -8.921875 1.40625 -8.921875 C 1.164062 -8.921875 0.910156 -8.898438 0.640625 -8.859375 L 0.453125 -8.828125 L 0.453125 -9.171875 L 3.96875 -10.421875 L 4.0625 -10.359375 L 4.0625 -2.3125 C 4.0625 -1.5 4.15625 -0.984375 4.34375 -0.765625 C 4.53125 -0.546875 4.992188 -0.40625 5.734375 -0.34375 Z M 4.265625 -13.359375 C 4.265625 -13.035156 4.15625 -12.765625 3.9375 -12.546875 C 3.71875 -12.328125 3.441406 -12.21875 3.109375 -12.21875 C 2.785156 -12.21875 2.507812 -12.328125 2.28125 -12.546875 C 2.0625 -12.765625 1.953125 -13.035156 1.953125 -13.359375 C 1.953125 -13.679688 2.0625 -13.953125 2.28125 -14.171875 C 2.507812 -14.398438 2.785156 -14.515625 3.109375 -14.515625 C 3.441406 -14.515625 3.71875 -14.398438 3.9375 -14.171875 C 4.15625 -13.953125 4.265625 -13.679688 4.265625 -13.359375 Z M 4.265625 -13.359375 "/></g></g></g><g fill="#000000" fill-opacity="1"><g transform="translate(110.189391, 392.387788)"><g><path d="M 7.890625 -2.671875 C 7.890625 -1.890625 7.570312 -1.210938 6.9375 -0.640625 C 6.3125 -0.0664062 5.570312 0.21875 4.71875 0.21875 C 4.300781 0.21875 3.738281 0.144531 3.03125 0 C 2.550781 -0.125 2.207031 -0.1875 2 -0.1875 C 1.769531 -0.1875 1.59375 -0.09375 1.46875 0.09375 L 1.171875 0.09375 L 1.171875 -3.4375 L 1.546875 -3.4375 C 1.796875 -2.289062 2.140625 -1.472656 2.578125 -0.984375 C 3.015625 -0.503906 3.628906 -0.265625 4.421875 -0.265625 C 4.992188 -0.265625 5.445312 -0.410156 5.78125 -0.703125 C 6.125 -1.003906 6.296875 -1.40625 6.296875 -1.90625 C 6.296875 -2.582031 5.90625 -3.148438 5.125 -3.609375 L 3.8125 -4.34375 C 2.84375 -4.90625 2.15625 -5.429688 1.75 -5.921875 C 1.351562 -6.410156 1.15625 -6.972656 1.15625 -7.609375 C 1.15625 -8.441406 1.445312 -9.113281 2.03125 -9.625 C 2.613281 -10.144531 3.363281 -10.40625 4.28125 -10.40625 C 4.84375 -10.40625 5.359375 -10.3125 5.828125 -10.125 C 6.046875 -10.019531 6.25 -9.96875 6.4375 -9.96875 C 6.5 -9.96875 6.601562 -10.03125 6.75 -10.15625 L 6.796875 -10.1875 L 7.046875 -10.1875 L 7.140625 -7.109375 L 6.796875 -7.109375 C 6.535156 -8.117188 6.21875 -8.835938 5.84375 -9.265625 C 5.46875 -9.691406 4.953125 -9.90625 4.296875 -9.90625 C 3.773438 -9.90625 3.351562 -9.765625 3.03125 -9.484375 C 2.71875 -9.203125 2.5625 -8.828125 2.5625 -8.359375 C 2.5625 -7.710938 2.882812 -7.195312 3.53125 -6.8125 L 5.984375 -5.375 C 6.671875 -4.957031 7.160156 -4.546875 7.453125 -4.140625 C 7.742188 -3.734375 7.890625 -3.242188 7.890625 -2.671875 Z M 7.890625 -2.671875 "/></g></g></g><g fill="#000000" fill-opacity="1"><g transform="translate(119.004208, 392.387788)"><g/></g></g><g fill="#000000" fill-opacity="1"><g transform="translate(124.669266, 392.387788)"><g><path d="M 10.015625 -0.90625 C 9.617188 -0.46875 9.273438 -0.171875 8.984375 -0.015625 C 8.691406 0.140625 8.351562 0.21875 7.96875 0.21875 C 7.5 0.21875 7.15625 0.0976562 6.9375 -0.140625 C 6.71875 -0.390625 6.582031 -0.816406 6.53125 -1.421875 C 5.226562 -0.328125 4.125 0.21875 3.21875 0.21875 C 2.519531 0.21875 1.945312 -0.00390625 1.5 -0.453125 C 1.0625 -0.898438 0.84375 -1.484375 0.84375 -2.203125 C 0.84375 -3.015625 1.113281 -3.671875 1.65625 -4.171875 C 2.132812 -4.585938 2.617188 -4.921875 3.109375 -5.171875 C 3.597656 -5.421875 4.726562 -5.898438 6.5 -6.609375 L 6.5 -8 C 6.5 -9.25 5.925781 -9.875 4.78125 -9.875 C 4.320312 -9.875 3.9375 -9.765625 3.625 -9.546875 C 3.3125 -9.328125 3.15625 -9.066406 3.15625 -8.765625 C 3.15625 -8.597656 3.175781 -8.414062 3.21875 -8.21875 C 3.25 -8.007812 3.265625 -7.890625 3.265625 -7.859375 C 3.265625 -7.597656 3.160156 -7.375 2.953125 -7.1875 C 2.753906 -7 2.515625 -6.90625 2.234375 -6.90625 C 1.960938 -6.90625 1.734375 -7.003906 1.546875 -7.203125 C 1.359375 -7.398438 1.265625 -7.628906 1.265625 -7.890625 C 1.265625 -8.503906 1.578125 -9.066406 2.203125 -9.578125 C 2.878906 -10.140625 3.835938 -10.421875 5.078125 -10.421875 C 6.484375 -10.421875 7.425781 -9.984375 7.90625 -9.109375 C 8.195312 -8.640625 8.34375 -7.867188 8.34375 -6.796875 L 8.34375 -2.375 C 8.34375 -1.875 8.390625 -1.53125 8.484375 -1.34375 C 8.578125 -1.15625 8.753906 -1.0625 9.015625 -1.0625 C 9.335938 -1.0625 9.671875 -1.207031 10.015625 -1.5 Z M 6.5 -2.78125 L 6.5 -6.078125 C 5.144531 -5.578125 4.191406 -5.09375 3.640625 -4.625 C 3.097656 -4.15625 2.828125 -3.585938 2.828125 -2.921875 L 2.828125 -2.828125 C 2.828125 -2.347656 2.96875 -1.9375 3.25 -1.59375 C 3.53125 -1.257812 3.867188 -1.09375 4.265625 -1.09375 C 4.785156 -1.09375 5.332031 -1.253906 5.90625 -1.578125 C 6.15625 -1.734375 6.316406 -1.882812 6.390625 -2.03125 C 6.460938 -2.1875 6.5 -2.4375 6.5 -2.78125 Z M 6.5 -2.78125 "/></g></g></g><g fill="#000000" fill-opacity="1"><g transform="translate(134.730398, 392.387788)"><g><path d="M 10.984375 0 L 6.28125 0 L 6.28125 -0.34375 C 6.851562 -0.382812 7.234375 -0.53125 7.421875 -0.78125 C 7.609375 -1.039062 7.703125 -1.53125 7.703125 -2.25 L 7.703125 -6.984375 C 7.703125 -8.441406 7.148438 -9.171875 6.046875 -9.171875 C 5.671875 -9.171875 5.320312 -9.082031 5 -8.90625 C 4.6875 -8.738281 4.257812 -8.398438 3.71875 -7.890625 L 3.71875 -1.515625 C 3.71875 -1.109375 3.820312 -0.820312 4.03125 -0.65625 C 4.238281 -0.488281 4.628906 -0.382812 5.203125 -0.34375 L 5.203125 0 L 0.40625 0 L 0.40625 -0.34375 C 0.976562 -0.382812 1.351562 -0.515625 1.53125 -0.734375 C 1.71875 -0.953125 1.8125 -1.382812 1.8125 -2.03125 L 1.8125 -7.65625 C 1.8125 -8.21875 1.75 -8.597656 1.625 -8.796875 C 1.507812 -9.003906 1.289062 -9.109375 0.96875 -9.109375 C 0.6875 -9.109375 0.484375 -9.078125 0.359375 -9.015625 L 0.359375 -9.40625 C 1.472656 -9.738281 2.515625 -10.078125 3.484375 -10.421875 L 3.640625 -10.375 L 3.640625 -8.59375 C 4.410156 -9.3125 5.019531 -9.796875 5.46875 -10.046875 C 5.914062 -10.296875 6.40625 -10.421875 6.9375 -10.421875 C 7.757812 -10.421875 8.410156 -10.117188 8.890625 -9.515625 C 9.367188 -8.921875 9.609375 -8.085938 9.609375 -7.015625 L 9.609375 -1.828125 C 9.609375 -1.273438 9.695312 -0.90625 9.875 -0.71875 C 10.0625 -0.53125 10.429688 -0.40625 10.984375 -0.34375 Z M 10.984375 0 "/></g></g></g><g fill="#000000" fill-opacity="1"><g transform="translate(146.060493, 392.387788)"><g><path d="M 10.015625 -0.90625 C 9.617188 -0.46875 9.273438 -0.171875 8.984375 -0.015625 C 8.691406 0.140625 8.351562 0.21875 7.96875 0.21875 C 7.5 0.21875 7.15625 0.0976562 6.9375 -0.140625 C 6.71875 -0.390625 6.582031 -0.816406 6.53125 -1.421875 C 5.226562 -0.328125 4.125 0.21875 3.21875 0.21875 C 2.519531 0.21875 1.945312 -0.00390625 1.5 -0.453125 C 1.0625 -0.898438 0.84375 -1.484375 0.84375 -2.203125 C 0.84375 -3.015625 1.113281 -3.671875 1.65625 -4.171875 C 2.132812 -4.585938 2.617188 -4.921875 3.109375 -5.171875 C 3.597656 -5.421875 4.726562 -5.898438 6.5 -6.609375 L 6.5 -8 C 6.5 -9.25 5.925781 -9.875 4.78125 -9.875 C 4.320312 -9.875 3.9375 -9.765625 3.625 -9.546875 C 3.3125 -9.328125 3.15625 -9.066406 3.15625 -8.765625 C 3.15625 -8.597656 3.175781 -8.414062 3.21875 -8.21875 C 3.25 -8.007812 3.265625 -7.890625 3.265625 -7.859375 C 3.265625 -7.597656 3.160156 -7.375 2.953125 -7.1875 C 2.753906 -7 2.515625 -6.90625 2.234375 -6.90625 C 1.960938 -6.90625 1.734375 -7.003906 1.546875 -7.203125 C 1.359375 -7.398438 1.265625 -7.628906 1.265625 -7.890625 C 1.265625 -8.503906 1.578125 -9.066406 2.203125 -9.578125 C 2.878906 -10.140625 3.835938 -10.421875 5.078125 -10.421875 C 6.484375 -10.421875 7.425781 -9.984375 7.90625 -9.109375 C 8.195312 -8.640625 8.34375 -7.867188 8.34375 -6.796875 L 8.34375 -2.375 C 8.34375 -1.875 8.390625 -1.53125 8.484375 -1.34375 C 8.578125 -1.15625 8.753906 -1.0625 9.015625 -1.0625 C 9.335938 -1.0625 9.671875 -1.207031 10.015625 -1.5 Z M 6.5 -2.78125 L 6.5 -6.078125 C 5.144531 -5.578125 4.191406 -5.09375 3.640625 -4.625 C 3.097656 -4.15625 2.828125 -3.585938 2.828125 -2.921875 L 2.828125 -2.828125 C 2.828125 -2.347656 2.96875 -1.9375 3.25 -1.59375 C 3.53125 -1.257812 3.867188 -1.09375 4.265625 -1.09375 C 4.785156 -1.09375 5.332031 -1.253906 5.90625 -1.578125 C 6.15625 -1.734375 6.316406 -1.882812 6.390625 -2.03125 C 6.460938 -2.1875 6.5 -2.4375 6.5 -2.78125 Z M 6.5 -2.78125 "/></g></g></g><g fill="#000000" fill-opacity="1"><g transform="translate(156.121624, 392.387788)"><g><path d="M 5.828125 0 L 0.46875 0 L 0.46875 -0.34375 C 1.1875 -0.40625 1.65625 -0.539062 1.875 -0.75 C 2.101562 -0.957031 2.21875 -1.363281 2.21875 -1.96875 L 2.21875 -12.78125 C 2.21875 -13.3125 2.148438 -13.671875 2.015625 -13.859375 C 1.878906 -14.054688 1.628906 -14.15625 1.265625 -14.15625 C 1.128906 -14.15625 0.894531 -14.140625 0.5625 -14.109375 L 0.4375 -14.109375 L 0.4375 -14.484375 C 1.925781 -14.835938 3.125 -15.164062 4.03125 -15.46875 L 4.125 -15.421875 L 4.125 -1.90625 C 4.125 -1.28125 4.222656 -0.875 4.421875 -0.6875 C 4.628906 -0.5 5.097656 -0.382812 5.828125 -0.34375 Z M 5.828125 0 "/></g></g></g><g fill="#000000" fill-opacity="1"><g transform="translate(162.421164, 392.387788)"><g><path d="M 10.765625 -9.859375 C 10.492188 -9.828125 10.28125 -9.738281 10.125 -9.59375 C 9.976562 -9.445312 9.828125 -9.191406 9.671875 -8.828125 L 6.1875 0.40625 C 5.582031 2.039062 4.976562 3.203125 4.375 3.890625 C 3.78125 4.585938 3.109375 4.9375 2.359375 4.9375 C 1.867188 4.9375 1.460938 4.8125 1.140625 4.5625 C 0.828125 4.3125 0.671875 4 0.671875 3.625 C 0.671875 3.351562 0.769531 3.117188 0.96875 2.921875 C 1.164062 2.722656 1.394531 2.625 1.65625 2.625 C 2 2.625 2.398438 2.707031 2.859375 2.875 C 3.066406 2.976562 3.253906 3.03125 3.421875 3.03125 C 3.585938 3.03125 3.78125 2.929688 4 2.734375 C 4.21875 2.546875 4.398438 2.304688 4.546875 2.015625 C 4.742188 1.679688 4.941406 1.226562 5.140625 0.65625 C 5.347656 0.09375 5.453125 -0.269531 5.453125 -0.4375 C 5.453125 -0.582031 5.367188 -0.859375 5.203125 -1.265625 L 1.46875 -9.15625 C 1.289062 -9.539062 0.90625 -9.78125 0.3125 -9.875 L 0.3125 -10.1875 L 4.984375 -10.1875 L 4.984375 -9.859375 C 4.503906 -9.835938 4.164062 -9.78125 3.96875 -9.6875 C 3.769531 -9.601562 3.671875 -9.457031 3.671875 -9.25 C 3.671875 -9.019531 3.742188 -8.726562 3.890625 -8.375 L 6.5 -2.65625 L 8.703125 -8.90625 C 8.765625 -9.039062 8.796875 -9.164062 8.796875 -9.28125 C 8.796875 -9.664062 8.429688 -9.859375 7.703125 -9.859375 L 7.703125 -10.1875 L 10.765625 -10.1875 Z M 10.765625 -9.859375 "/></g></g></g><g fill="#000000" fill-opacity="1"><g transform="translate(173.751258, 392.387788)"><g><path d="M 7.890625 -2.671875 C 7.890625 -1.890625 7.570312 -1.210938 6.9375 -0.640625 C 6.3125 -0.0664062 5.570312 0.21875 4.71875 0.21875 C 4.300781 0.21875 3.738281 0.144531 3.03125 0 C 2.550781 -0.125 2.207031 -0.1875 2 -0.1875 C 1.769531 -0.1875 1.59375 -0.09375 1.46875 0.09375 L 1.171875 0.09375 L 1.171875 -3.4375 L 1.546875 -3.4375 C 1.796875 -2.289062 2.140625 -1.472656 2.578125 -0.984375 C 3.015625 -0.503906 3.628906 -0.265625 4.421875 -0.265625 C 4.992188 -0.265625 5.445312 -0.410156 5.78125 -0.703125 C 6.125 -1.003906 6.296875 -1.40625 6.296875 -1.90625 C 6.296875 -2.582031 5.90625 -3.148438 5.125 -3.609375 L 3.8125 -4.34375 C 2.84375 -4.90625 2.15625 -5.429688 1.75 -5.921875 C 1.351562 -6.410156 1.15625 -6.972656 1.15625 -7.609375 C 1.15625 -8.441406 1.445312 -9.113281 2.03125 -9.625 C 2.613281 -10.144531 3.363281 -10.40625 4.28125 -10.40625 C 4.84375 -10.40625 5.359375 -10.3125 5.828125 -10.125 C 6.046875 -10.019531 6.25 -9.96875 6.4375 -9.96875 C 6.5 -9.96875 6.601562 -10.03125 6.75 -10.15625 L 6.796875 -10.1875 L 7.046875 -10.1875 L 7.140625 -7.109375 L 6.796875 -7.109375 C 6.535156 -8.117188 6.21875 -8.835938 5.84375 -9.265625 C 5.46875 -9.691406 4.953125 -9.90625 4.296875 -9.90625 C 3.773438 -9.90625 3.351562 -9.765625 3.03125 -9.484375 C 2.71875 -9.203125 2.5625 -8.828125 2.5625 -8.359375 C 2.5625 -7.710938 2.882812 -7.195312 3.53125 -6.8125 L 5.984375 -5.375 C 6.671875 -4.957031 7.160156 -4.546875 7.453125 -4.140625 C 7.742188 -3.734375 7.890625 -3.242188 7.890625 -2.671875 Z M 7.890625 -2.671875 "/></g></g></g><g fill="#000000" fill-opacity="1"><g transform="translate(182.566075, 392.387788)"><g><path d="M 5.734375 0 L 0.359375 0 L 0.359375 -0.34375 C 1.148438 -0.382812 1.644531 -0.519531 1.84375 -0.75 C 2.050781 -0.976562 2.15625 -1.5 2.15625 -2.3125 L 2.15625 -7.5625 C 2.15625 -8.0625 2.097656 -8.410156 1.984375 -8.609375 C 1.867188 -8.816406 1.675781 -8.921875 1.40625 -8.921875 C 1.164062 -8.921875 0.910156 -8.898438 0.640625 -8.859375 L 0.453125 -8.828125 L 0.453125 -9.171875 L 3.96875 -10.421875 L 4.0625 -10.359375 L 4.0625 -2.3125 C 4.0625 -1.5 4.15625 -0.984375 4.34375 -0.765625 C 4.53125 -0.546875 4.992188 -0.40625 5.734375 -0.34375 Z M 4.265625 -13.359375 C 4.265625 -13.035156 4.15625 -12.765625 3.9375 -12.546875 C 3.71875 -12.328125 3.441406 -12.21875 3.109375 -12.21875 C 2.785156 -12.21875 2.507812 -12.328125 2.28125 -12.546875 C 2.0625 -12.765625 1.953125 -13.035156 1.953125 -13.359375 C 1.953125 -13.679688 2.0625 -13.953125 2.28125 -14.171875 C 2.507812 -14.398438 2.785156 -14.515625 3.109375 -14.515625 C 3.441406 -14.515625 3.71875 -14.398438 3.9375 -14.171875 C 4.15625 -13.953125 4.265625 -13.679688 4.265625 -13.359375 Z M 4.265625 -13.359375 "/></g></g></g><g fill="#000000" fill-opacity="1"><g transform="translate(188.865615, 392.387788)"><g><path d="M 7.890625 -2.671875 C 7.890625 -1.890625 7.570312 -1.210938 6.9375 -0.640625 C 6.3125 -0.0664062 5.570312 0.21875 4.71875 0.21875 C 4.300781 0.21875 3.738281 0.144531 3.03125 0 C 2.550781 -0.125 2.207031 -0.1875 2 -0.1875 C 1.769531 -0.1875 1.59375 -0.09375 1.46875 0.09375 L 1.171875 0.09375 L 1.171875 -3.4375 L 1.546875 -3.4375 C 1.796875 -2.289062 2.140625 -1.472656 2.578125 -0.984375 C 3.015625 -0.503906 3.628906 -0.265625 4.421875 -0.265625 C 4.992188 -0.265625 5.445312 -0.410156 5.78125 -0.703125 C 6.125 -1.003906 6.296875 -1.40625 6.296875 -1.90625 C 6.296875 -2.582031 5.90625 -3.148438 5.125 -3.609375 L 3.8125 -4.34375 C 2.84375 -4.90625 2.15625 -5.429688 1.75 -5.921875 C 1.351562 -6.410156 1.15625 -6.972656 1.15625 -7.609375 C 1.15625 -8.441406 1.445312 -9.113281 2.03125 -9.625 C 2.613281 -10.144531 3.363281 -10.40625 4.28125 -10.40625 C 4.84375 -10.40625 5.359375 -10.3125 5.828125 -10.125 C 6.046875 -10.019531 6.25 -9.96875 6.4375 -9.96875 C 6.5 -9.96875 6.601562 -10.03125 6.75 -10.15625 L 6.796875 -10.1875 L 7.046875 -10.1875 L 7.140625 -7.109375 L 6.796875 -7.109375 C 6.535156 -8.117188 6.21875 -8.835938 5.84375 -9.265625 C 5.46875 -9.691406 4.953125 -9.90625 4.296875 -9.90625 C 3.773438 -9.90625 3.351562 -9.765625 3.03125 -9.484375 C 2.71875 -9.203125 2.5625 -8.828125 2.5625 -8.359375 C 2.5625 -7.710938 2.882812 -7.195312 3.53125 -6.8125 L 5.984375 -5.375 C 6.671875 -4.957031 7.160156 -4.546875 7.453125 -4.140625 C 7.742188 -3.734375 7.890625 -3.242188 7.890625 -2.671875 Z M 7.890625 -2.671875 "/></g></g></g><g fill="#000000" fill-opacity="1"><g transform="translate(197.680431, 392.387788)"><g/></g></g><g fill="#000000" fill-opacity="1"><g transform="translate(203.34549, 392.387788)"><g><path d="M 10.015625 -0.90625 C 9.617188 -0.46875 9.273438 -0.171875 8.984375 -0.015625 C 8.691406 0.140625 8.351562 0.21875 7.96875 0.21875 C 7.5 0.21875 7.15625 0.0976562 6.9375 -0.140625 C 6.71875 -0.390625 6.582031 -0.816406 6.53125 -1.421875 C 5.226562 -0.328125 4.125 0.21875 3.21875 0.21875 C 2.519531 0.21875 1.945312 -0.00390625 1.5 -0.453125 C 1.0625 -0.898438 0.84375 -1.484375 0.84375 -2.203125 C 0.84375 -3.015625 1.113281 -3.671875 1.65625 -4.171875 C 2.132812 -4.585938 2.617188 -4.921875 3.109375 -5.171875 C 3.597656 -5.421875 4.726562 -5.898438 6.5 -6.609375 L 6.5 -8 C 6.5 -9.25 5.925781 -9.875 4.78125 -9.875 C 4.320312 -9.875 3.9375 -9.765625 3.625 -9.546875 C 3.3125 -9.328125 3.15625 -9.066406 3.15625 -8.765625 C 3.15625 -8.597656 3.175781 -8.414062 3.21875 -8.21875 C 3.25 -8.007812 3.265625 -7.890625 3.265625 -7.859375 C 3.265625 -7.597656 3.160156 -7.375 2.953125 -7.1875 C 2.753906 -7 2.515625 -6.90625 2.234375 -6.90625 C 1.960938 -6.90625 1.734375 -7.003906 1.546875 -7.203125 C 1.359375 -7.398438 1.265625 -7.628906 1.265625 -7.890625 C 1.265625 -8.503906 1.578125 -9.066406 2.203125 -9.578125 C 2.878906 -10.140625 3.835938 -10.421875 5.078125 -10.421875 C 6.484375 -10.421875 7.425781 -9.984375 7.90625 -9.109375 C 8.195312 -8.640625 8.34375 -7.867188 8.34375 -6.796875 L 8.34375 -2.375 C 8.34375 -1.875 8.390625 -1.53125 8.484375 -1.34375 C 8.578125 -1.15625 8.753906 -1.0625 9.015625 -1.0625 C 9.335938 -1.0625 9.671875 -1.207031 10.015625 -1.5 Z M 6.5 -2.78125 L 6.5 -6.078125 C 5.144531 -5.578125 4.191406 -5.09375 3.640625 -4.625 C 3.097656 -4.15625 2.828125 -3.585938 2.828125 -2.921875 L 2.828125 -2.828125 C 2.828125 -2.347656 2.96875 -1.9375 3.25 -1.59375 C 3.53125 -1.257812 3.867188 -1.09375 4.265625 -1.09375 C 4.785156 -1.09375 5.332031 -1.253906 5.90625 -1.578125 C 6.15625 -1.734375 6.316406 -1.882812 6.390625 -2.03125 C 6.460938 -2.1875 6.5 -2.4375 6.5 -2.78125 Z M 6.5 -2.78125 "/></g></g></g><g fill="#000000" fill-opacity="1"><g transform="translate(213.406621, 392.387788)"><g><path d="M 6.328125 -1.5 C 5.597656 -0.351562 4.679688 0.21875 3.578125 0.21875 C 2.242188 0.21875 1.578125 -0.738281 1.578125 -2.65625 L 1.578125 -9.46875 L 0.390625 -9.46875 C 0.328125 -9.507812 0.296875 -9.5625 0.296875 -9.625 C 0.296875 -9.75 0.421875 -9.894531 0.671875 -10.0625 C 1.296875 -10.425781 2.03125 -11.234375 2.875 -12.484375 C 3.082031 -12.753906 3.234375 -12.96875 3.328125 -13.125 C 3.429688 -13.125 3.484375 -13.023438 3.484375 -12.828125 L 3.484375 -10.1875 L 5.78125 -10.1875 L 5.78125 -9.46875 L 3.484375 -9.46875 L 3.484375 -2.984375 C 3.484375 -2.265625 3.570312 -1.742188 3.75 -1.421875 C 3.9375 -1.109375 4.242188 -0.953125 4.671875 -0.953125 C 5.117188 -0.953125 5.570312 -1.21875 6.03125 -1.75 Z M 6.328125 -1.5 "/></g></g></g><g fill="#000000" fill-opacity="1"><g transform="translate(219.706161, 392.387788)"><g/></g></g><g fill="#000000" fill-opacity="1"><g transform="translate(225.371219, 392.387788)"><g><path d="M 11.03125 0 L 6.234375 0 L 6.234375 -0.34375 C 6.878906 -0.40625 7.296875 -0.554688 7.484375 -0.796875 C 7.671875 -1.035156 7.765625 -1.539062 7.765625 -2.3125 L 7.765625 -6.796875 C 7.765625 -8.398438 7.203125 -9.203125 6.078125 -9.203125 C 5.640625 -9.203125 5.226562 -9.09375 4.84375 -8.875 C 4.457031 -8.65625 4.03125 -8.285156 3.5625 -7.765625 L 3.5625 -2.3125 C 3.5625 -1.519531 3.648438 -1.007812 3.828125 -0.78125 C 4.003906 -0.5625 4.425781 -0.414062 5.09375 -0.34375 L 5.09375 0 L 0.203125 0 L 0.203125 -0.34375 C 0.847656 -0.425781 1.25 -0.570312 1.40625 -0.78125 C 1.570312 -1 1.65625 -1.507812 1.65625 -2.3125 L 1.65625 -12.984375 C 1.65625 -13.460938 1.582031 -13.773438 1.4375 -13.921875 C 1.289062 -14.066406 0.976562 -14.140625 0.5 -14.140625 C 0.375 -14.140625 0.28125 -14.128906 0.21875 -14.109375 L 0.21875 -14.484375 L 0.84375 -14.65625 C 1.863281 -14.945312 2.726562 -15.21875 3.4375 -15.46875 L 3.5625 -15.40625 L 3.5625 -8.515625 C 4.082031 -9.191406 4.597656 -9.675781 5.109375 -9.96875 C 5.628906 -10.269531 6.222656 -10.421875 6.890625 -10.421875 C 8.742188 -10.421875 9.671875 -9.21875 9.671875 -6.8125 L 9.671875 -2.3125 C 9.671875 -1.519531 9.742188 -1.019531 9.890625 -0.8125 C 10.035156 -0.613281 10.414062 -0.457031 11.03125 -0.34375 Z M 11.03125 0 "/></g></g></g><g fill="#000000" fill-opacity="1"><g transform="translate(236.701313, 392.387788)"><g><path d="M 5.734375 0 L 0.359375 0 L 0.359375 -0.34375 C 1.148438 -0.382812 1.644531 -0.519531 1.84375 -0.75 C 2.050781 -0.976562 2.15625 -1.5 2.15625 -2.3125 L 2.15625 -7.5625 C 2.15625 -8.0625 2.097656 -8.410156 1.984375 -8.609375 C 1.867188 -8.816406 1.675781 -8.921875 1.40625 -8.921875 C 1.164062 -8.921875 0.910156 -8.898438 0.640625 -8.859375 L 0.453125 -8.828125 L 0.453125 -9.171875 L 3.96875 -10.421875 L 4.0625 -10.359375 L 4.0625 -2.3125 C 4.0625 -1.5 4.15625 -0.984375 4.34375 -0.765625 C 4.53125 -0.546875 4.992188 -0.40625 5.734375 -0.34375 Z M 4.265625 -13.359375 C 4.265625 -13.035156 4.15625 -12.765625 3.9375 -12.546875 C 3.71875 -12.328125 3.441406 -12.21875 3.109375 -12.21875 C 2.785156 -12.21875 2.507812 -12.328125 2.28125 -12.546875 C 2.0625 -12.765625 1.953125 -13.035156 1.953125 -13.359375 C 1.953125 -13.679688 2.0625 -13.953125 2.28125 -14.171875 C 2.507812 -14.398438 2.785156 -14.515625 3.109375 -14.515625 C 3.441406 -14.515625 3.71875 -14.398438 3.9375 -14.171875 C 4.15625 -13.953125 4.265625 -13.679688 4.265625 -13.359375 Z M 4.265625 -13.359375 "/></g></g></g><g fill="#000000" fill-opacity="1"><g transform="translate(243.000853, 392.387788)"><g><path d="M 7.890625 -2.671875 C 7.890625 -1.890625 7.570312 -1.210938 6.9375 -0.640625 C 6.3125 -0.0664062 5.570312 0.21875 4.71875 0.21875 C 4.300781 0.21875 3.738281 0.144531 3.03125 0 C 2.550781 -0.125 2.207031 -0.1875 2 -0.1875 C 1.769531 -0.1875 1.59375 -0.09375 1.46875 0.09375 L 1.171875 0.09375 L 1.171875 -3.4375 L 1.546875 -3.4375 C 1.796875 -2.289062 2.140625 -1.472656 2.578125 -0.984375 C 3.015625 -0.503906 3.628906 -0.265625 4.421875 -0.265625 C 4.992188 -0.265625 5.445312 -0.410156 5.78125 -0.703125 C 6.125 -1.003906 6.296875 -1.40625 6.296875 -1.90625 C 6.296875 -2.582031 5.90625 -3.148438 5.125 -3.609375 L 3.8125 -4.34375 C 2.84375 -4.90625 2.15625 -5.429688 1.75 -5.921875 C 1.351562 -6.410156 1.15625 -6.972656 1.15625 -7.609375 C 1.15625 -8.441406 1.445312 -9.113281 2.03125 -9.625 C 2.613281 -10.144531 3.363281 -10.40625 4.28125 -10.40625 C 4.84375 -10.40625 5.359375 -10.3125 5.828125 -10.125 C 6.046875 -10.019531 6.25 -9.96875 6.4375 -9.96875 C 6.5 -9.96875 6.601562 -10.03125 6.75 -10.15625 L 6.796875 -10.1875 L 7.046875 -10.1875 L 7.140625 -7.109375 L 6.796875 -7.109375 C 6.535156 -8.117188 6.21875 -8.835938 5.84375 -9.265625 C 5.46875 -9.691406 4.953125 -9.90625 4.296875 -9.90625 C 3.773438 -9.90625 3.351562 -9.765625 3.03125 -9.484375 C 2.71875 -9.203125 2.5625 -8.828125 2.5625 -8.359375 C 2.5625 -7.710938 2.882812 -7.195312 3.53125 -6.8125 L 5.984375 -5.375 C 6.671875 -4.957031 7.160156 -4.546875 7.453125 -4.140625 C 7.742188 -3.734375 7.890625 -3.242188 7.890625 -2.671875 Z M 7.890625 -2.671875 "/></g></g></g><g fill="#000000" fill-opacity="1"><g transform="translate(251.81567, 392.387788)"><g/></g></g><g fill="#000000" fill-opacity="1"><g transform="translate(257.480728, 392.387788)"><g><path d="M 11.03125 0 L 6.234375 0 L 6.234375 -0.34375 C 6.878906 -0.40625 7.296875 -0.554688 7.484375 -0.796875 C 7.671875 -1.035156 7.765625 -1.539062 7.765625 -2.3125 L 7.765625 -6.796875 C 7.765625 -8.398438 7.203125 -9.203125 6.078125 -9.203125 C 5.640625 -9.203125 5.226562 -9.09375 4.84375 -8.875 C 4.457031 -8.65625 4.03125 -8.285156 3.5625 -7.765625 L 3.5625 -2.3125 C 3.5625 -1.519531 3.648438 -1.007812 3.828125 -0.78125 C 4.003906 -0.5625 4.425781 -0.414062 5.09375 -0.34375 L 5.09375 0 L 0.203125 0 L 0.203125 -0.34375 C 0.847656 -0.425781 1.25 -0.570312 1.40625 -0.78125 C 1.570312 -1 1.65625 -1.507812 1.65625 -2.3125 L 1.65625 -12.984375 C 1.65625 -13.460938 1.582031 -13.773438 1.4375 -13.921875 C 1.289062 -14.066406 0.976562 -14.140625 0.5 -14.140625 C 0.375 -14.140625 0.28125 -14.128906 0.21875 -14.109375 L 0.21875 -14.484375 L 0.84375 -14.65625 C 1.863281 -14.945312 2.726562 -15.21875 3.4375 -15.46875 L 3.5625 -15.40625 L 3.5625 -8.515625 C 4.082031 -9.191406 4.597656 -9.675781 5.109375 -9.96875 C 5.628906 -10.269531 6.222656 -10.421875 6.890625 -10.421875 C 8.742188 -10.421875 9.671875 -9.21875 9.671875 -6.8125 L 9.671875 -2.3125 C 9.671875 -1.519531 9.742188 -1.019531 9.890625 -0.8125 C 10.035156 -0.613281 10.414062 -0.457031 11.03125 -0.34375 Z M 11.03125 0 "/></g></g></g><g fill="#000000" fill-opacity="1"><g transform="translate(268.810822, 392.387788)"><g><path d="M 10.640625 -5.296875 C 10.640625 -3.722656 10.15625 -2.410156 9.1875 -1.359375 C 8.226562 -0.304688 7.035156 0.21875 5.609375 0.21875 C 4.191406 0.21875 3.007812 -0.285156 2.0625 -1.296875 C 1.125 -2.316406 0.65625 -3.59375 0.65625 -5.125 C 0.65625 -6.675781 1.117188 -7.945312 2.046875 -8.9375 C 2.972656 -9.925781 4.175781 -10.421875 5.65625 -10.421875 C 7.113281 -10.421875 8.304688 -9.9375 9.234375 -8.96875 C 10.171875 -8 10.640625 -6.773438 10.640625 -5.296875 Z M 8.609375 -4.515625 C 8.609375 -6.066406 8.304688 -7.332031 7.703125 -8.3125 C 7.097656 -9.289062 6.320312 -9.78125 5.375 -9.78125 C 4.570312 -9.78125 3.925781 -9.457031 3.4375 -8.8125 C 2.945312 -8.164062 2.703125 -7.304688 2.703125 -6.234375 C 2.703125 -4.554688 3.03125 -3.097656 3.6875 -1.859375 C 4.207031 -0.890625 4.941406 -0.40625 5.890625 -0.40625 C 6.734375 -0.40625 7.394531 -0.765625 7.875 -1.484375 C 8.363281 -2.210938 8.609375 -3.222656 8.609375 -4.515625 Z M 8.609375 -4.515625 "/></g></g></g><g fill="#000000" fill-opacity="1"><g transform="translate(280.140917, 392.387788)"><g><path d="M 17.5625 0 L 12.59375 0 L 12.59375 -0.34375 C 13.257812 -0.414062 13.675781 -0.539062 13.84375 -0.71875 C 14.007812 -0.90625 14.09375 -1.320312 14.09375 -1.96875 L 14.09375 -6.75 C 14.09375 -7.6875 13.96875 -8.335938 13.71875 -8.703125 C 13.476562 -9.066406 13.035156 -9.25 12.390625 -9.25 C 11.390625 -9.25 10.566406 -8.785156 9.921875 -7.859375 L 9.921875 -2.15625 C 9.921875 -1.445312 10.03125 -0.96875 10.25 -0.71875 C 10.46875 -0.476562 10.898438 -0.351562 11.546875 -0.34375 L 11.546875 0 L 6.484375 0 L 6.484375 -0.34375 C 7.128906 -0.382812 7.546875 -0.503906 7.734375 -0.703125 C 7.921875 -0.898438 8.015625 -1.316406 8.015625 -1.953125 L 8.015625 -6.859375 C 8.015625 -8.453125 7.519531 -9.25 6.53125 -9.25 C 6.132812 -9.25 5.71875 -9.160156 5.28125 -8.984375 C 4.84375 -8.804688 4.476562 -8.59375 4.1875 -8.34375 L 3.84375 -7.90625 L 3.84375 -1.515625 C 3.84375 -1.078125 3.945312 -0.78125 4.15625 -0.625 C 4.375 -0.46875 4.785156 -0.375 5.390625 -0.34375 L 5.390625 0 L 0.359375 0 L 0.359375 -0.34375 C 0.992188 -0.351562 1.414062 -0.460938 1.625 -0.671875 C 1.84375 -0.890625 1.953125 -1.304688 1.953125 -1.921875 L 1.953125 -7.65625 C 1.953125 -8.195312 1.894531 -8.570312 1.78125 -8.78125 C 1.664062 -9 1.457031 -9.109375 1.15625 -9.109375 C 0.925781 -9.109375 0.6875 -9.078125 0.4375 -9.015625 L 0.4375 -9.40625 C 1.519531 -9.707031 2.578125 -10.046875 3.609375 -10.421875 L 3.765625 -10.375 L 3.765625 -8.671875 C 4.703125 -9.378906 5.394531 -9.847656 5.84375 -10.078125 C 6.300781 -10.304688 6.773438 -10.421875 7.265625 -10.421875 C 8.460938 -10.421875 9.265625 -9.785156 9.671875 -8.515625 C 10.847656 -9.785156 12.078125 -10.421875 13.359375 -10.421875 C 15.117188 -10.421875 16 -9.078125 16 -6.390625 L 16 -1.71875 C 16 -0.875 16.320312 -0.429688 16.96875 -0.390625 L 17.5625 -0.34375 Z M 17.5625 0 "/></g></g></g><g fill="#000000" fill-opacity="1"><g transform="translate(297.77055, 392.387788)"><g><path d="M 9.609375 -3.5625 C 8.628906 -1.039062 7.023438 0.21875 4.796875 0.21875 C 3.503906 0.21875 2.472656 -0.234375 1.703125 -1.140625 C 0.941406 -2.054688 0.5625 -3.289062 0.5625 -4.84375 C 0.5625 -6.488281 1 -7.828125 1.875 -8.859375 C 2.75 -9.898438 3.890625 -10.421875 5.296875 -10.421875 C 6.503906 -10.421875 7.472656 -9.988281 8.203125 -9.125 C 8.703125 -8.488281 9.023438 -7.539062 9.171875 -6.28125 L 2.203125 -6.28125 C 2.242188 -4.988281 2.46875 -3.945312 2.875 -3.15625 C 3.519531 -1.945312 4.472656 -1.34375 5.734375 -1.34375 C 6.453125 -1.34375 7.078125 -1.519531 7.609375 -1.875 C 8.148438 -2.238281 8.695312 -2.851562 9.25 -3.71875 Z M 6.859375 -7 C 6.710938 -7.976562 6.476562 -8.65625 6.15625 -9.03125 C 5.84375 -9.414062 5.335938 -9.609375 4.640625 -9.609375 C 3.285156 -9.609375 2.488281 -8.738281 2.25 -7 Z M 6.859375 -7 "/></g></g></g><g fill="#000000" fill-opacity="1"><g transform="translate(307.831141, 392.387788)"><g/></g></g><g fill="#000000" fill-opacity="1"><g transform="translate(170.011427, 423.545488)"><g><path d="M 10.640625 -5.296875 C 10.640625 -3.722656 10.15625 -2.410156 9.1875 -1.359375 C 8.226562 -0.304688 7.035156 0.21875 5.609375 0.21875 C 4.191406 0.21875 3.007812 -0.285156 2.0625 -1.296875 C 1.125 -2.316406 0.65625 -3.59375 0.65625 -5.125 C 0.65625 -6.675781 1.117188 -7.945312 2.046875 -8.9375 C 2.972656 -9.925781 4.175781 -10.421875 5.65625 -10.421875 C 7.113281 -10.421875 8.304688 -9.9375 9.234375 -8.96875 C 10.171875 -8 10.640625 -6.773438 10.640625 -5.296875 Z M 8.609375 -4.515625 C 8.609375 -6.066406 8.304688 -7.332031 7.703125 -8.3125 C 7.097656 -9.289062 6.320312 -9.78125 5.375 -9.78125 C 4.570312 -9.78125 3.925781 -9.457031 3.4375 -8.8125 C 2.945312 -8.164062 2.703125 -7.304688 2.703125 -6.234375 C 2.703125 -4.554688 3.03125 -3.097656 3.6875 -1.859375 C 4.207031 -0.890625 4.941406 -0.40625 5.890625 -0.40625 C 6.734375 -0.40625 7.394531 -0.765625 7.875 -1.484375 C 8.363281 -2.210938 8.609375 -3.222656 8.609375 -4.515625 Z M 8.609375 -4.515625 "/></g></g></g><g fill="#000000" fill-opacity="1"><g transform="translate(181.341522, 423.545488)"><g><path d="M 8.671875 -14.0625 C 8.671875 -13.8125 8.582031 -13.59375 8.40625 -13.40625 C 8.226562 -13.226562 8 -13.140625 7.71875 -13.140625 C 7.363281 -13.140625 7.023438 -13.410156 6.703125 -13.953125 C 6.335938 -14.546875 5.9375 -14.84375 5.5 -14.84375 C 4.644531 -14.84375 4.21875 -14.171875 4.21875 -12.828125 L 4.21875 -10.1875 L 7 -10.1875 L 7 -9.46875 L 4.234375 -9.46875 L 4.234375 -2.359375 C 4.234375 -1.515625 4.351562 -0.972656 4.59375 -0.734375 C 4.84375 -0.503906 5.425781 -0.375 6.34375 -0.34375 L 6.34375 0 L 0.453125 0 L 0.453125 -0.34375 C 1.265625 -0.382812 1.78125 -0.519531 2 -0.75 C 2.21875 -0.988281 2.328125 -1.523438 2.328125 -2.359375 L 2.328125 -9.46875 L 0.46875 -9.46875 L 0.46875 -10.1875 L 2.328125 -10.1875 C 2.347656 -11.09375 2.410156 -11.800781 2.515625 -12.3125 C 2.617188 -12.820312 2.820312 -13.332031 3.125 -13.84375 C 3.757812 -14.925781 4.828125 -15.46875 6.328125 -15.46875 C 7.003906 -15.46875 7.5625 -15.335938 8 -15.078125 C 8.445312 -14.816406 8.671875 -14.476562 8.671875 -14.0625 Z M 8.671875 -14.0625 "/></g></g></g><g fill="#000000" fill-opacity="1"><g transform="translate(188.887376, 423.545488)"><g><path d="M 8.671875 -14.0625 C 8.671875 -13.8125 8.582031 -13.59375 8.40625 -13.40625 C 8.226562 -13.226562 8 -13.140625 7.71875 -13.140625 C 7.363281 -13.140625 7.023438 -13.410156 6.703125 -13.953125 C 6.335938 -14.546875 5.9375 -14.84375 5.5 -14.84375 C 4.644531 -14.84375 4.21875 -14.171875 4.21875 -12.828125 L 4.21875 -10.1875 L 7 -10.1875 L 7 -9.46875 L 4.234375 -9.46875 L 4.234375 -2.359375 C 4.234375 -1.515625 4.351562 -0.972656 4.59375 -0.734375 C 4.84375 -0.503906 5.425781 -0.375 6.34375 -0.34375 L 6.34375 0 L 0.453125 0 L 0.453125 -0.34375 C 1.265625 -0.382812 1.78125 -0.519531 2 -0.75 C 2.21875 -0.988281 2.328125 -1.523438 2.328125 -2.359375 L 2.328125 -9.46875 L 0.46875 -9.46875 L 0.46875 -10.1875 L 2.328125 -10.1875 C 2.347656 -11.09375 2.410156 -11.800781 2.515625 -12.3125 C 2.617188 -12.820312 2.820312 -13.332031 3.125 -13.84375 C 3.757812 -14.925781 4.828125 -15.46875 6.328125 -15.46875 C 7.003906 -15.46875 7.5625 -15.335938 8 -15.078125 C 8.445312 -14.816406 8.671875 -14.476562 8.671875 -14.0625 Z M 8.671875 -14.0625 "/></g></g></g><g fill="#000000" fill-opacity="1"><g transform="translate(196.43323, 423.545488)"><g><path d="M 5.734375 0 L 0.359375 0 L 0.359375 -0.34375 C 1.148438 -0.382812 1.644531 -0.519531 1.84375 -0.75 C 2.050781 -0.976562 2.15625 -1.5 2.15625 -2.3125 L 2.15625 -7.5625 C 2.15625 -8.0625 2.097656 -8.410156 1.984375 -8.609375 C 1.867188 -8.816406 1.675781 -8.921875 1.40625 -8.921875 C 1.164062 -8.921875 0.910156 -8.898438 0.640625 -8.859375 L 0.453125 -8.828125 L 0.453125 -9.171875 L 3.96875 -10.421875 L 4.0625 -10.359375 L 4.0625 -2.3125 C 4.0625 -1.5 4.15625 -0.984375 4.34375 -0.765625 C 4.53125 -0.546875 4.992188 -0.40625 5.734375 -0.34375 Z M 4.265625 -13.359375 C 4.265625 -13.035156 4.15625 -12.765625 3.9375 -12.546875 C 3.71875 -12.328125 3.441406 -12.21875 3.109375 -12.21875 C 2.785156 -12.21875 2.507812 -12.328125 2.28125 -12.546875 C 2.0625 -12.765625 1.953125 -13.035156 1.953125 -13.359375 C 1.953125 -13.679688 2.0625 -13.953125 2.28125 -14.171875 C 2.507812 -14.398438 2.785156 -14.515625 3.109375 -14.515625 C 3.441406 -14.515625 3.71875 -14.398438 3.9375 -14.171875 C 4.15625 -13.953125 4.265625 -13.679688 4.265625 -13.359375 Z M 4.265625 -13.359375 "/></g></g></g><g fill="#000000" fill-opacity="1"><g transform="translate(202.73277, 423.545488)"><g><path d="M 9.328125 -3.328125 C 8.679688 -2.054688 8.0625 -1.1875 7.46875 -0.71875 C 6.707031 -0.09375 5.84375 0.21875 4.875 0.21875 C 3.613281 0.21875 2.578125 -0.25 1.765625 -1.1875 C 0.960938 -2.132812 0.5625 -3.335938 0.5625 -4.796875 C 0.5625 -6.722656 1.195312 -8.210938 2.46875 -9.265625 C 3.40625 -10.035156 4.425781 -10.421875 5.53125 -10.421875 C 6.476562 -10.421875 7.296875 -10.191406 7.984375 -9.734375 C 8.671875 -9.273438 9.015625 -8.726562 9.015625 -8.09375 C 9.015625 -7.832031 8.90625 -7.609375 8.6875 -7.421875 C 8.476562 -7.234375 8.234375 -7.140625 7.953125 -7.140625 C 7.421875 -7.140625 7.054688 -7.484375 6.859375 -8.171875 L 6.734375 -8.671875 C 6.609375 -9.097656 6.453125 -9.382812 6.265625 -9.53125 C 6.085938 -9.6875 5.796875 -9.765625 5.390625 -9.765625 C 4.472656 -9.765625 3.726562 -9.398438 3.15625 -8.671875 C 2.59375 -7.953125 2.3125 -7.003906 2.3125 -5.828125 C 2.3125 -4.523438 2.632812 -3.460938 3.28125 -2.640625 C 3.9375 -1.816406 4.785156 -1.40625 5.828125 -1.40625 C 6.472656 -1.40625 7.03125 -1.554688 7.5 -1.859375 C 7.96875 -2.171875 8.472656 -2.726562 9.015625 -3.53125 Z M 9.328125 -3.328125 "/></g></g></g><g fill="#000000" fill-opacity="1"><g transform="translate(212.793901, 423.545488)"><g><path d="M 9.609375 -3.5625 C 8.628906 -1.039062 7.023438 0.21875 4.796875 0.21875 C 3.503906 0.21875 2.472656 -0.234375 1.703125 -1.140625 C 0.941406 -2.054688 0.5625 -3.289062 0.5625 -4.84375 C 0.5625 -6.488281 1 -7.828125 1.875 -8.859375 C 2.75 -9.898438 3.890625 -10.421875 5.296875 -10.421875 C 6.503906 -10.421875 7.472656 -9.988281 8.203125 -9.125 C 8.703125 -8.488281 9.023438 -7.539062 9.171875 -6.28125 L 2.203125 -6.28125 C 2.242188 -4.988281 2.46875 -3.945312 2.875 -3.15625 C 3.519531 -1.945312 4.472656 -1.34375 5.734375 -1.34375 C 6.453125 -1.34375 7.078125 -1.519531 7.609375 -1.875 C 8.148438 -2.238281 8.695312 -2.851562 9.25 -3.71875 Z M 6.859375 -7 C 6.710938 -7.976562 6.476562 -8.65625 6.15625 -9.03125 C 5.84375 -9.414062 5.335938 -9.609375 4.640625 -9.609375 C 3.285156 -9.609375 2.488281 -8.738281 2.25 -7 Z M 6.859375 -7 "/></g></g></g><g fill="#000000" fill-opacity="1"><g transform="translate(222.855033, 423.545488)"><g><path d="M 5.34375 -13.5 C 5.34375 -13.300781 5.328125 -13.023438 5.296875 -12.671875 L 4.28125 -3.984375 L 3.984375 -3.984375 L 3.78125 -6.4375 C 3.71875 -7.238281 3.585938 -8.28125 3.390625 -9.5625 C 3.085938 -11.539062 2.9375 -12.878906 2.9375 -13.578125 C 2.9375 -14.097656 3.039062 -14.515625 3.25 -14.828125 C 3.46875 -15.148438 3.765625 -15.3125 4.140625 -15.3125 C 4.941406 -15.3125 5.34375 -14.707031 5.34375 -13.5 Z M 5 -1.859375 C 5.25 -1.617188 5.375 -1.320312 5.375 -0.96875 C 5.375 -0.625 5.253906 -0.34375 5.015625 -0.125 C 4.785156 0.09375 4.488281 0.203125 4.125 0.203125 C 3.789062 0.203125 3.507812 0.09375 3.28125 -0.125 C 3.050781 -0.34375 2.9375 -0.625 2.9375 -0.96875 C 2.9375 -1.320312 3.050781 -1.617188 3.28125 -1.859375 C 3.519531 -2.097656 3.804688 -2.21875 4.140625 -2.21875 C 4.472656 -2.21875 4.757812 -2.097656 5 -1.859375 Z M 5 -1.859375 "/></g></g></g></svg>