<svg xmlns="http://www.w3.org/2000/svg" xmlns:xlink="http://www.w3.org/1999/xlink" width="534" zoomAndPan="magnify" viewBox="0 0 400.5 422.99999" height="564" preserveAspectRatio="xMidYMid meet" version="1.0"><defs><g/><clipPath id="02d5a4263d"><path d="M 93.167969 75.703125 L 306.917969 75.703125 L 306.917969 289.453125 L 93.167969 289.453125 Z M 93.167969 75.703125 " clip-rule="nonzero"/></clipPath><clipPath id="88f8a6b732"><path d="M 173.070312 132.320312 L 194.417969 132.320312 L 194.417969 153.667969 L 173.070312 153.667969 Z M 173.070312 132.320312 " clip-rule="nonzero"/></clipPath><clipPath id="f709e5dd5e"><path d="M 183.742188 132.320312 C 177.847656 132.320312 173.070312 137.097656 173.070312 142.996094 C 173.070312 148.890625 177.847656 153.667969 183.742188 153.667969 C 189.636719 153.667969 194.417969 148.890625 194.417969 142.996094 C 194.417969 137.097656 189.636719 132.320312 183.742188 132.320312 " clip-rule="nonzero"/></clipPath><clipPath id="d237652479"><path d="M 205.835938 132.320312 L 227.183594 132.320312 L 227.183594 153.667969 L 205.835938 153.667969 Z M 205.835938 132.320312 " clip-rule="nonzero"/></clipPath><clipPath id="1bf0f255fc"><path d="M 216.507812 132.320312 C 210.613281 132.320312 205.835938 137.097656 205.835938 142.996094 C 205.835938 148.890625 210.613281 153.667969 216.507812 153.667969 C 222.402344 153.667969 227.183594 148.890625 227.183594 142.996094 C 227.183594 137.097656 222.402344 132.320312 216.507812 132.320312 " clip-rule="nonzero"/></clipPath></defs><g clip-path="url(#02d5a4263d)"><path fill="#000000" d="M 200.042969 75.703125 C 141.113281 75.703125 93.167969 123.652344 93.167969 182.578125 C 93.167969 241.507812 141.113281 289.453125 200.042969 289.453125 C 258.96875 289.453125 306.917969 241.507812 306.917969 182.578125 C 306.917969 123.652344 258.96875 75.703125 200.042969 75.703125 Z M 140.019531 254.191406 C 141.015625 221.910156 167.519531 195.9375 200.042969 195.9375 C 232.566406 195.9375 259.070312 221.910156 260.066406 254.191406 C 243.808594 267.839844 222.878906 276.09375 200.042969 276.09375 C 177.203125 276.09375 156.277344 267.839844 140.019531 254.191406 Z M 166.644531 149.179688 C 166.644531 130.765625 181.625 115.78125 200.042969 115.78125 C 218.457031 115.78125 233.441406 130.765625 233.441406 149.179688 C 233.441406 167.597656 218.457031 182.578125 200.042969 182.578125 C 181.625 182.578125 166.644531 167.597656 166.644531 149.179688 Z M 272.144531 242.0625 C 267.308594 217.09375 249.792969 196.652344 226.59375 187.617188 C 238.785156 179.171875 246.800781 165.097656 246.800781 149.179688 C 246.800781 123.40625 225.820312 102.421875 200.042969 102.421875 C 174.265625 102.421875 153.285156 123.40625 153.285156 149.179688 C 153.285156 165.097656 161.300781 179.171875 173.492188 187.625 C 150.292969 196.660156 132.777344 217.101562 127.933594 242.070312 C 114.570312 225.890625 106.527344 205.15625 106.527344 182.578125 C 106.527344 131.011719 148.476562 89.0625 200.042969 89.0625 C 251.609375 89.0625 293.558594 131.011719 293.558594 182.578125 C 293.558594 205.15625 285.515625 225.890625 272.144531 242.0625 Z M 272.144531 242.0625 " fill-opacity="1" fill-rule="nonzero"/></g><g clip-path="url(#88f8a6b732)"><g clip-path="url(#f709e5dd5e)"><path fill="#000000" d="M 173.070312 132.320312 L 194.417969 132.320312 L 194.417969 153.667969 L 173.070312 153.667969 Z M 173.070312 132.320312 " fill-opacity="1" fill-rule="nonzero"/></g></g><g clip-path="url(#d237652479)"><g clip-path="url(#1bf0f255fc)"><path fill="#000000" d="M 205.835938 132.320312 L 227.183594 132.320312 L 227.183594 153.667969 L 205.835938 153.667969 Z M 205.835938 132.320312 " fill-opacity="1" fill-rule="nonzero"/></g></g><path stroke-linecap="butt" transform="matrix(0.672391, -0.333943, 0.333609, 0.671718, 178.995913, 179.663577)" fill="none" stroke-linejoin="miter" d="M 0.000637571 2.001508 L 77.924306 1.999518 " stroke="#000000" stroke-width="4" stroke-opacity="1" stroke-miterlimit="4"/><g fill="#000000" fill-opacity="1"><g transform="translate(78.743939, 310.054542)"><g><path d="M 16.046875 -14.59375 C 15.328125 -14.519531 14.828125 -14.382812 14.546875 -14.1875 C 14.109375 -13.882812 13.890625 -13.050781 13.890625 -11.6875 L 13.890625 0.25 L 13.515625 0.25 L 3.46875 -12.234375 L 3.46875 -3.34375 C 3.46875 -2.1875 3.601562 -1.421875 3.875 -1.046875 C 4.15625 -0.679688 4.734375 -0.476562 5.609375 -0.4375 L 5.609375 0 L 0.265625 0 L 0.265625 -0.4375 C 1.210938 -0.488281 1.816406 -0.691406 2.078125 -1.046875 C 2.335938 -1.410156 2.46875 -2.175781 2.46875 -3.34375 L 2.46875 -13.34375 C 2.019531 -13.875 1.660156 -14.210938 1.390625 -14.359375 C 1.128906 -14.515625 0.753906 -14.59375 0.265625 -14.59375 L 0.265625 -15.03125 L 4.15625 -15.03125 L 12.890625 -4.046875 L 12.890625 -11.6875 C 12.890625 -13.082031 12.671875 -13.929688 12.234375 -14.234375 C 11.921875 -14.410156 11.414062 -14.53125 10.71875 -14.59375 L 10.71875 -15.03125 L 16.046875 -15.03125 Z M 16.046875 -14.59375 "/></g></g></g><g fill="#000000" fill-opacity="1"><g transform="translate(95.135168, 310.054542)"><g><path d="M 10.671875 -5.3125 C 10.671875 -3.738281 10.1875 -2.421875 9.21875 -1.359375 C 8.25 -0.296875 7.050781 0.234375 5.625 0.234375 C 4.207031 0.234375 3.023438 -0.273438 2.078125 -1.296875 C 1.128906 -2.328125 0.65625 -3.601562 0.65625 -5.125 C 0.65625 -6.6875 1.117188 -7.960938 2.046875 -8.953125 C 2.984375 -9.941406 4.191406 -10.4375 5.671875 -10.4375 C 7.128906 -10.4375 8.328125 -9.953125 9.265625 -8.984375 C 10.203125 -8.015625 10.671875 -6.789062 10.671875 -5.3125 Z M 8.625 -4.515625 C 8.625 -6.078125 8.320312 -7.347656 7.71875 -8.328125 C 7.113281 -9.316406 6.332031 -9.8125 5.375 -9.8125 C 4.570312 -9.8125 3.925781 -9.484375 3.4375 -8.828125 C 2.945312 -8.179688 2.703125 -7.320312 2.703125 -6.25 C 2.703125 -4.5625 3.035156 -3.097656 3.703125 -1.859375 C 4.210938 -0.890625 4.945312 -0.40625 5.90625 -0.40625 C 6.75 -0.40625 7.410156 -0.769531 7.890625 -1.5 C 8.378906 -2.226562 8.625 -3.234375 8.625 -4.515625 Z M 8.625 -4.515625 "/></g></g></g><g fill="#000000" fill-opacity="1"><g transform="translate(106.486439, 310.054542)"><g><path d="M 15.75 -9.875 C 15.53125 -9.800781 15.375 -9.695312 15.28125 -9.5625 C 15.1875 -9.4375 15.035156 -9.132812 14.828125 -8.65625 L 11.6875 -0.796875 C 11.382812 -0.0546875 11.171875 0.3125 11.046875 0.3125 C 10.929688 0.3125 10.753906 -0.0078125 10.515625 -0.65625 L 8.453125 -6.015625 L 5.90625 -0.5625 C 5.632812 0.0195312 5.441406 0.3125 5.328125 0.3125 C 5.210938 0.3125 5.019531 -0.0195312 4.75 -0.6875 L 1.6875 -8.453125 C 1.425781 -9.023438 1.222656 -9.398438 1.078125 -9.578125 C 0.929688 -9.765625 0.734375 -9.863281 0.484375 -9.875 L 0.484375 -10.21875 L 4.5625 -10.21875 L 4.5625 -9.875 C 4.164062 -9.832031 3.890625 -9.753906 3.734375 -9.640625 C 3.585938 -9.535156 3.515625 -9.363281 3.515625 -9.125 C 3.515625 -8.894531 3.5625 -8.671875 3.65625 -8.453125 L 5.90625 -2.515625 L 7.96875 -7.03125 L 7.515625 -8.3125 C 7.285156 -8.914062 7.070312 -9.316406 6.875 -9.515625 C 6.675781 -9.710938 6.367188 -9.832031 5.953125 -9.875 L 5.953125 -10.21875 L 10.5625 -10.21875 L 10.5625 -9.875 C 10.03125 -9.800781 9.675781 -9.707031 9.5 -9.59375 C 9.320312 -9.488281 9.234375 -9.3125 9.234375 -9.0625 C 9.234375 -8.863281 9.363281 -8.414062 9.625 -7.71875 L 11.53125 -2.640625 L 13.578125 -7.671875 C 13.835938 -8.304688 13.96875 -8.804688 13.96875 -9.171875 C 13.96875 -9.367188 13.894531 -9.515625 13.75 -9.609375 C 13.613281 -9.710938 13.351562 -9.800781 12.96875 -9.875 L 12.96875 -10.21875 L 15.75 -10.21875 Z M 15.75 -9.875 "/></g></g></g><g fill="#000000" fill-opacity="1"><g transform="translate(122.877668, 310.054542)"><g/></g></g><g fill="#000000" fill-opacity="1"><g transform="translate(128.553314, 310.054542)"><g><path d="M 11.0625 0 L 6.25 0 L 6.25 -0.34375 C 6.894531 -0.40625 7.3125 -0.554688 7.5 -0.796875 C 7.6875 -1.035156 7.78125 -1.539062 7.78125 -2.3125 L 7.78125 -6.8125 C 7.78125 -8.414062 7.210938 -9.21875 6.078125 -9.21875 C 5.640625 -9.21875 5.226562 -9.109375 4.84375 -8.890625 C 4.457031 -8.671875 4.03125 -8.300781 3.5625 -7.78125 L 3.5625 -2.3125 C 3.5625 -1.53125 3.648438 -1.023438 3.828125 -0.796875 C 4.015625 -0.566406 4.441406 -0.414062 5.109375 -0.34375 L 5.109375 0 L 0.203125 0 L 0.203125 -0.34375 C 0.859375 -0.4375 1.265625 -0.585938 1.421875 -0.796875 C 1.578125 -1.003906 1.65625 -1.507812 1.65625 -2.3125 L 1.65625 -13.015625 C 1.65625 -13.492188 1.582031 -13.804688 1.4375 -13.953125 C 1.289062 -14.097656 0.976562 -14.171875 0.5 -14.171875 C 0.375 -14.171875 0.285156 -14.160156 0.234375 -14.140625 L 0.234375 -14.5 L 0.84375 -14.6875 C 1.875 -14.976562 2.742188 -15.25 3.453125 -15.5 L 3.5625 -15.4375 L 3.5625 -8.53125 C 4.09375 -9.21875 4.613281 -9.707031 5.125 -10 C 5.644531 -10.289062 6.238281 -10.4375 6.90625 -10.4375 C 8.757812 -10.4375 9.6875 -9.234375 9.6875 -6.828125 L 9.6875 -2.3125 C 9.6875 -1.53125 9.757812 -1.035156 9.90625 -0.828125 C 10.050781 -0.617188 10.4375 -0.457031 11.0625 -0.34375 Z M 11.0625 0 "/></g></g></g><g fill="#000000" fill-opacity="1"><g transform="translate(139.904585, 310.054542)"><g><path d="M 9.625 -3.5625 C 8.644531 -1.03125 7.039062 0.234375 4.8125 0.234375 C 3.507812 0.234375 2.472656 -0.222656 1.703125 -1.140625 C 0.941406 -2.054688 0.5625 -3.296875 0.5625 -4.859375 C 0.5625 -6.503906 1 -7.84375 1.875 -8.875 C 2.757812 -9.914062 3.90625 -10.4375 5.3125 -10.4375 C 6.519531 -10.4375 7.488281 -10.007812 8.21875 -9.15625 C 8.71875 -8.519531 9.039062 -7.5625 9.1875 -6.28125 L 2.203125 -6.28125 C 2.242188 -5 2.472656 -3.957031 2.890625 -3.15625 C 3.535156 -1.945312 4.488281 -1.34375 5.75 -1.34375 C 6.46875 -1.34375 7.097656 -1.519531 7.640625 -1.875 C 8.179688 -2.238281 8.722656 -2.851562 9.265625 -3.71875 Z M 6.875 -7.015625 C 6.726562 -7.992188 6.492188 -8.671875 6.171875 -9.046875 C 5.859375 -9.429688 5.351562 -9.625 4.65625 -9.625 C 3.289062 -9.625 2.488281 -8.753906 2.25 -7.015625 Z M 6.875 -7.015625 "/></g></g></g><g fill="#000000" fill-opacity="1"><g transform="translate(149.984522, 310.054542)"><g/></g></g><g fill="#000000" fill-opacity="1"><g transform="translate(155.660169, 310.054542)"><g><path d="M 11.0625 0 L 6.25 0 L 6.25 -0.34375 C 6.894531 -0.40625 7.3125 -0.554688 7.5 -0.796875 C 7.6875 -1.035156 7.78125 -1.539062 7.78125 -2.3125 L 7.78125 -6.8125 C 7.78125 -8.414062 7.210938 -9.21875 6.078125 -9.21875 C 5.640625 -9.21875 5.226562 -9.109375 4.84375 -8.890625 C 4.457031 -8.671875 4.03125 -8.300781 3.5625 -7.78125 L 3.5625 -2.3125 C 3.5625 -1.53125 3.648438 -1.023438 3.828125 -0.796875 C 4.015625 -0.566406 4.441406 -0.414062 5.109375 -0.34375 L 5.109375 0 L 0.203125 0 L 0.203125 -0.34375 C 0.859375 -0.4375 1.265625 -0.585938 1.421875 -0.796875 C 1.578125 -1.003906 1.65625 -1.507812 1.65625 -2.3125 L 1.65625 -13.015625 C 1.65625 -13.492188 1.582031 -13.804688 1.4375 -13.953125 C 1.289062 -14.097656 0.976562 -14.171875 0.5 -14.171875 C 0.375 -14.171875 0.285156 -14.160156 0.234375 -14.140625 L 0.234375 -14.5 L 0.84375 -14.6875 C 1.875 -14.976562 2.742188 -15.25 3.453125 -15.5 L 3.5625 -15.4375 L 3.5625 -8.53125 C 4.09375 -9.21875 4.613281 -9.707031 5.125 -10 C 5.644531 -10.289062 6.238281 -10.4375 6.90625 -10.4375 C 8.757812 -10.4375 9.6875 -9.234375 9.6875 -6.828125 L 9.6875 -2.3125 C 9.6875 -1.53125 9.757812 -1.035156 9.90625 -0.828125 C 10.050781 -0.617188 10.4375 -0.457031 11.0625 -0.34375 Z M 11.0625 0 "/></g></g></g><g fill="#000000" fill-opacity="1"><g transform="translate(167.01144, 310.054542)"><g><path d="M 10.03125 -0.90625 C 9.632812 -0.46875 9.289062 -0.164062 9 0 C 8.707031 0.15625 8.367188 0.234375 7.984375 0.234375 C 7.515625 0.234375 7.171875 0.109375 6.953125 -0.140625 C 6.734375 -0.390625 6.59375 -0.820312 6.53125 -1.4375 C 5.238281 -0.320312 4.132812 0.234375 3.21875 0.234375 C 2.519531 0.234375 1.945312 0.00390625 1.5 -0.453125 C 1.0625 -0.910156 0.84375 -1.492188 0.84375 -2.203125 C 0.84375 -3.015625 1.113281 -3.671875 1.65625 -4.171875 C 2.144531 -4.597656 2.632812 -4.9375 3.125 -5.1875 C 3.613281 -5.4375 4.742188 -5.914062 6.515625 -6.625 L 6.515625 -8.015625 C 6.515625 -9.273438 5.941406 -9.90625 4.796875 -9.90625 C 4.335938 -9.90625 3.945312 -9.789062 3.625 -9.5625 C 3.3125 -9.34375 3.15625 -9.082031 3.15625 -8.78125 C 3.15625 -8.613281 3.175781 -8.429688 3.21875 -8.234375 C 3.25 -8.023438 3.265625 -7.90625 3.265625 -7.875 C 3.265625 -7.613281 3.160156 -7.390625 2.953125 -7.203125 C 2.753906 -7.015625 2.519531 -6.921875 2.25 -6.921875 C 1.976562 -6.921875 1.742188 -7.019531 1.546875 -7.21875 C 1.359375 -7.414062 1.265625 -7.644531 1.265625 -7.90625 C 1.265625 -8.519531 1.578125 -9.085938 2.203125 -9.609375 C 2.878906 -10.160156 3.835938 -10.4375 5.078125 -10.4375 C 6.492188 -10.4375 7.441406 -10 7.921875 -9.125 C 8.210938 -8.65625 8.359375 -7.882812 8.359375 -6.8125 L 8.359375 -2.390625 C 8.359375 -1.890625 8.40625 -1.539062 8.5 -1.34375 C 8.601562 -1.15625 8.78125 -1.0625 9.03125 -1.0625 C 9.351562 -1.0625 9.6875 -1.207031 10.03125 -1.5 Z M 6.515625 -2.796875 L 6.515625 -6.078125 C 5.148438 -5.578125 4.195312 -5.09375 3.65625 -4.625 C 3.113281 -4.15625 2.84375 -3.585938 2.84375 -2.921875 L 2.84375 -2.84375 C 2.84375 -2.351562 2.976562 -1.9375 3.25 -1.59375 C 3.53125 -1.257812 3.867188 -1.09375 4.265625 -1.09375 C 4.796875 -1.09375 5.347656 -1.257812 5.921875 -1.59375 C 6.160156 -1.738281 6.316406 -1.882812 6.390625 -2.03125 C 6.472656 -2.1875 6.515625 -2.441406 6.515625 -2.796875 Z M 6.515625 -2.796875 "/></g></g></g><g fill="#000000" fill-opacity="1"><g transform="translate(177.091377, 310.054542)"><g><path d="M 7.90625 -2.671875 C 7.90625 -1.890625 7.585938 -1.207031 6.953125 -0.625 C 6.328125 -0.0507812 5.582031 0.234375 4.71875 0.234375 C 4.3125 0.234375 3.753906 0.15625 3.046875 0 C 2.554688 -0.125 2.207031 -0.1875 2 -0.1875 C 1.769531 -0.1875 1.59375 -0.09375 1.46875 0.09375 L 1.1875 0.09375 L 1.1875 -3.453125 L 1.546875 -3.453125 C 1.804688 -2.296875 2.15625 -1.472656 2.59375 -0.984375 C 3.03125 -0.503906 3.640625 -0.265625 4.421875 -0.265625 C 5.003906 -0.265625 5.460938 -0.410156 5.796875 -0.703125 C 6.140625 -1.003906 6.3125 -1.40625 6.3125 -1.90625 C 6.3125 -2.582031 5.914062 -3.148438 5.125 -3.609375 L 3.8125 -4.359375 C 2.84375 -4.921875 2.15625 -5.445312 1.75 -5.9375 C 1.351562 -6.425781 1.15625 -6.988281 1.15625 -7.625 C 1.15625 -8.457031 1.445312 -9.128906 2.03125 -9.640625 C 2.613281 -10.160156 3.367188 -10.421875 4.296875 -10.421875 C 4.847656 -10.421875 5.359375 -10.328125 5.828125 -10.140625 C 6.054688 -10.035156 6.265625 -9.984375 6.453125 -9.984375 C 6.503906 -9.984375 6.609375 -10.046875 6.765625 -10.171875 L 6.8125 -10.21875 L 7.0625 -10.21875 L 7.15625 -7.125 L 6.8125 -7.125 C 6.550781 -8.144531 6.234375 -8.863281 5.859375 -9.28125 C 5.484375 -9.707031 4.96875 -9.921875 4.3125 -9.921875 C 3.78125 -9.921875 3.351562 -9.78125 3.03125 -9.5 C 2.71875 -9.21875 2.5625 -8.84375 2.5625 -8.375 C 2.5625 -7.726562 2.890625 -7.210938 3.546875 -6.828125 L 6 -5.375 C 6.6875 -4.96875 7.175781 -4.5625 7.46875 -4.15625 C 7.757812 -3.75 7.90625 -3.253906 7.90625 -2.671875 Z M 7.90625 -2.671875 "/></g></g></g><g fill="#000000" fill-opacity="1"><g transform="translate(185.922669, 310.054542)"><g/></g></g><g fill="#000000" fill-opacity="1"><g transform="translate(191.598316, 310.054542)"><g><path d="M 6.328125 -1.5 C 5.609375 -0.34375 4.695312 0.234375 3.59375 0.234375 C 2.257812 0.234375 1.59375 -0.726562 1.59375 -2.65625 L 1.59375 -9.484375 L 0.390625 -9.484375 C 0.328125 -9.535156 0.296875 -9.59375 0.296875 -9.65625 C 0.296875 -9.769531 0.425781 -9.910156 0.6875 -10.078125 C 1.300781 -10.441406 2.035156 -11.253906 2.890625 -12.515625 C 3.097656 -12.785156 3.25 -12.992188 3.34375 -13.140625 C 3.445312 -13.140625 3.5 -13.039062 3.5 -12.84375 L 3.5 -10.21875 L 5.796875 -10.21875 L 5.796875 -9.484375 L 3.5 -9.484375 L 3.5 -3 C 3.5 -2.269531 3.585938 -1.742188 3.765625 -1.421875 C 3.953125 -1.109375 4.253906 -0.953125 4.671875 -0.953125 C 5.128906 -0.953125 5.582031 -1.21875 6.03125 -1.75 Z M 6.328125 -1.5 "/></g></g></g><g fill="#000000" fill-opacity="1"><g transform="translate(197.909629, 310.054542)"><g><path d="M 10.671875 -5.3125 C 10.671875 -3.738281 10.1875 -2.421875 9.21875 -1.359375 C 8.25 -0.296875 7.050781 0.234375 5.625 0.234375 C 4.207031 0.234375 3.023438 -0.273438 2.078125 -1.296875 C 1.128906 -2.328125 0.65625 -3.601562 0.65625 -5.125 C 0.65625 -6.6875 1.117188 -7.960938 2.046875 -8.953125 C 2.984375 -9.941406 4.191406 -10.4375 5.671875 -10.4375 C 7.128906 -10.4375 8.328125 -9.953125 9.265625 -8.984375 C 10.203125 -8.015625 10.671875 -6.789062 10.671875 -5.3125 Z M 8.625 -4.515625 C 8.625 -6.078125 8.320312 -7.347656 7.71875 -8.328125 C 7.113281 -9.316406 6.332031 -9.8125 5.375 -9.8125 C 4.570312 -9.8125 3.925781 -9.484375 3.4375 -8.828125 C 2.945312 -8.179688 2.703125 -7.320312 2.703125 -6.25 C 2.703125 -4.5625 3.035156 -3.097656 3.703125 -1.859375 C 4.210938 -0.890625 4.945312 -0.40625 5.90625 -0.40625 C 6.75 -0.40625 7.410156 -0.769531 7.890625 -1.5 C 8.378906 -2.226562 8.625 -3.234375 8.625 -4.515625 Z M 8.625 -4.515625 "/></g></g></g><g fill="#000000" fill-opacity="1"><g transform="translate(209.260901, 310.054542)"><g/></g></g><g fill="#000000" fill-opacity="1"><g transform="translate(214.936547, 310.054542)"><g><path d="M 10.671875 -5.609375 C 10.671875 -3.960938 10.210938 -2.578125 9.296875 -1.453125 C 8.378906 -0.328125 7.25 0.234375 5.90625 0.234375 C 5.414062 0.234375 5.007812 0.160156 4.6875 0.015625 C 4.363281 -0.117188 4.003906 -0.375 3.609375 -0.75 L 3.609375 2.8125 C 3.609375 3.519531 3.726562 3.976562 3.96875 4.1875 C 4.21875 4.394531 4.765625 4.503906 5.609375 4.515625 L 5.609375 4.921875 L 0.109375 4.921875 L 0.109375 4.546875 C 0.773438 4.484375 1.207031 4.351562 1.40625 4.15625 C 1.601562 3.957031 1.703125 3.5625 1.703125 2.96875 L 1.703125 -7.65625 C 1.703125 -8.1875 1.640625 -8.53125 1.515625 -8.6875 C 1.398438 -8.851562 1.148438 -8.9375 0.765625 -8.9375 C 0.523438 -8.9375 0.335938 -8.929688 0.203125 -8.921875 L 0.203125 -9.28125 C 1.160156 -9.570312 2.25 -9.957031 3.46875 -10.4375 L 3.609375 -10.390625 L 3.609375 -8.65625 C 4.578125 -9.84375 5.664062 -10.4375 6.875 -10.4375 C 7.976562 -10.4375 8.882812 -9.984375 9.59375 -9.078125 C 10.3125 -8.171875 10.671875 -7.015625 10.671875 -5.609375 Z M 8.71875 -4.71875 C 8.71875 -6.039062 8.460938 -7.097656 7.953125 -7.890625 C 7.453125 -8.679688 6.773438 -9.078125 5.921875 -9.078125 C 5.390625 -9.078125 4.867188 -8.910156 4.359375 -8.578125 C 3.859375 -8.242188 3.609375 -7.910156 3.609375 -7.578125 L 3.609375 -2 C 3.609375 -1.664062 3.867188 -1.332031 4.390625 -1 C 4.910156 -0.664062 5.4375 -0.5 5.96875 -0.5 C 6.789062 -0.5 7.453125 -0.890625 7.953125 -1.671875 C 8.460938 -2.453125 8.71875 -3.46875 8.71875 -4.71875 Z M 8.71875 -4.71875 "/></g></g></g><g fill="#000000" fill-opacity="1"><g transform="translate(226.287818, 310.054542)"><g><path d="M 10.03125 -0.90625 C 9.632812 -0.46875 9.289062 -0.164062 9 0 C 8.707031 0.15625 8.367188 0.234375 7.984375 0.234375 C 7.515625 0.234375 7.171875 0.109375 6.953125 -0.140625 C 6.734375 -0.390625 6.59375 -0.820312 6.53125 -1.4375 C 5.238281 -0.320312 4.132812 0.234375 3.21875 0.234375 C 2.519531 0.234375 1.945312 0.00390625 1.5 -0.453125 C 1.0625 -0.910156 0.84375 -1.492188 0.84375 -2.203125 C 0.84375 -3.015625 1.113281 -3.671875 1.65625 -4.171875 C 2.144531 -4.597656 2.632812 -4.9375 3.125 -5.1875 C 3.613281 -5.4375 4.742188 -5.914062 6.515625 -6.625 L 6.515625 -8.015625 C 6.515625 -9.273438 5.941406 -9.90625 4.796875 -9.90625 C 4.335938 -9.90625 3.945312 -9.789062 3.625 -9.5625 C 3.3125 -9.34375 3.15625 -9.082031 3.15625 -8.78125 C 3.15625 -8.613281 3.175781 -8.429688 3.21875 -8.234375 C 3.25 -8.023438 3.265625 -7.90625 3.265625 -7.875 C 3.265625 -7.613281 3.160156 -7.390625 2.953125 -7.203125 C 2.753906 -7.015625 2.519531 -6.921875 2.25 -6.921875 C 1.976562 -6.921875 1.742188 -7.019531 1.546875 -7.21875 C 1.359375 -7.414062 1.265625 -7.644531 1.265625 -7.90625 C 1.265625 -8.519531 1.578125 -9.085938 2.203125 -9.609375 C 2.878906 -10.160156 3.835938 -10.4375 5.078125 -10.4375 C 6.492188 -10.4375 7.441406 -10 7.921875 -9.125 C 8.210938 -8.65625 8.359375 -7.882812 8.359375 -6.8125 L 8.359375 -2.390625 C 8.359375 -1.890625 8.40625 -1.539062 8.5 -1.34375 C 8.601562 -1.15625 8.78125 -1.0625 9.03125 -1.0625 C 9.351562 -1.0625 9.6875 -1.207031 10.03125 -1.5 Z M 6.515625 -2.796875 L 6.515625 -6.078125 C 5.148438 -5.578125 4.195312 -5.09375 3.65625 -4.625 C 3.113281 -4.15625 2.84375 -3.585938 2.84375 -2.921875 L 2.84375 -2.84375 C 2.84375 -2.351562 2.976562 -1.9375 3.25 -1.59375 C 3.53125 -1.257812 3.867188 -1.09375 4.265625 -1.09375 C 4.796875 -1.09375 5.347656 -1.257812 5.921875 -1.59375 C 6.160156 -1.738281 6.316406 -1.882812 6.390625 -2.03125 C 6.472656 -2.1875 6.515625 -2.441406 6.515625 -2.796875 Z M 6.515625 -2.796875 "/></g></g></g><g fill="#000000" fill-opacity="1"><g transform="translate(236.367755, 310.054542)"><g><path d="M 9.359375 -3.34375 C 8.703125 -2.070312 8.078125 -1.195312 7.484375 -0.71875 C 6.710938 -0.0820312 5.84375 0.234375 4.875 0.234375 C 3.625 0.234375 2.59375 -0.238281 1.78125 -1.1875 C 0.96875 -2.132812 0.5625 -3.34375 0.5625 -4.8125 C 0.5625 -6.738281 1.195312 -8.226562 2.46875 -9.28125 C 3.40625 -10.050781 4.429688 -10.4375 5.546875 -10.4375 C 6.492188 -10.4375 7.3125 -10.207031 8 -9.75 C 8.6875 -9.289062 9.03125 -8.742188 9.03125 -8.109375 C 9.03125 -7.847656 8.925781 -7.625 8.71875 -7.4375 C 8.507812 -7.25 8.257812 -7.15625 7.96875 -7.15625 C 7.4375 -7.15625 7.070312 -7.503906 6.875 -8.203125 L 6.75 -8.703125 C 6.625 -9.117188 6.46875 -9.398438 6.28125 -9.546875 C 6.101562 -9.703125 5.8125 -9.78125 5.40625 -9.78125 C 4.476562 -9.78125 3.726562 -9.414062 3.15625 -8.6875 C 2.59375 -7.96875 2.3125 -7.015625 2.3125 -5.828125 C 2.3125 -4.523438 2.632812 -3.460938 3.28125 -2.640625 C 3.9375 -1.816406 4.785156 -1.40625 5.828125 -1.40625 C 6.484375 -1.40625 7.046875 -1.5625 7.515625 -1.875 C 7.984375 -2.1875 8.488281 -2.742188 9.03125 -3.546875 Z M 9.359375 -3.34375 "/></g></g></g><g fill="#000000" fill-opacity="1"><g transform="translate(246.447692, 310.054542)"><g><path d="M 11.46875 0 L 6.515625 0 L 6.515625 -0.34375 L 6.953125 -0.34375 C 7.265625 -0.34375 7.421875 -0.457031 7.421875 -0.6875 C 7.421875 -0.789062 7.335938 -0.945312 7.171875 -1.15625 C 7.128906 -1.195312 7.078125 -1.265625 7.015625 -1.359375 L 6.953125 -1.453125 L 3.765625 -5.703125 L 3.765625 -1.515625 C 3.765625 -1.128906 3.859375 -0.84375 4.046875 -0.65625 C 4.242188 -0.476562 4.566406 -0.378906 5.015625 -0.359375 L 5.46875 -0.34375 L 5.46875 0 L 0.15625 0 L 0.15625 -0.34375 C 0.976562 -0.476562 1.46875 -0.613281 1.625 -0.75 C 1.78125 -0.894531 1.859375 -1.265625 1.859375 -1.859375 L 1.859375 -12.796875 C 1.859375 -13.347656 1.789062 -13.71875 1.65625 -13.90625 C 1.519531 -14.09375 1.265625 -14.1875 0.890625 -14.1875 C 0.796875 -14.1875 0.550781 -14.171875 0.15625 -14.140625 L 0.15625 -14.5 L 0.84375 -14.6875 L 3.671875 -15.5 L 3.765625 -15.453125 L 3.765625 -5.921875 L 6.875 -8.703125 C 7.226562 -9.003906 7.40625 -9.257812 7.40625 -9.46875 C 7.40625 -9.613281 7.320312 -9.71875 7.15625 -9.78125 C 7 -9.84375 6.703125 -9.882812 6.265625 -9.90625 L 6.265625 -10.21875 L 10.890625 -10.21875 L 10.890625 -9.875 L 10.71875 -9.875 C 10.351562 -9.875 10.003906 -9.828125 9.671875 -9.734375 C 8.960938 -9.535156 7.738281 -8.628906 6 -7.015625 L 5.328125 -6.40625 L 8.8125 -2 C 9.28125 -1.425781 9.710938 -1.015625 10.109375 -0.765625 C 10.515625 -0.515625 10.96875 -0.375 11.46875 -0.34375 Z M 11.46875 0 "/></g></g></g><g fill="#000000" fill-opacity="1"><g transform="translate(257.798963, 310.054542)"><g><path d="M 10.03125 -0.90625 C 9.632812 -0.46875 9.289062 -0.164062 9 0 C 8.707031 0.15625 8.367188 0.234375 7.984375 0.234375 C 7.515625 0.234375 7.171875 0.109375 6.953125 -0.140625 C 6.734375 -0.390625 6.59375 -0.820312 6.53125 -1.4375 C 5.238281 -0.320312 4.132812 0.234375 3.21875 0.234375 C 2.519531 0.234375 1.945312 0.00390625 1.5 -0.453125 C 1.0625 -0.910156 0.84375 -1.492188 0.84375 -2.203125 C 0.84375 -3.015625 1.113281 -3.671875 1.65625 -4.171875 C 2.144531 -4.597656 2.632812 -4.9375 3.125 -5.1875 C 3.613281 -5.4375 4.742188 -5.914062 6.515625 -6.625 L 6.515625 -8.015625 C 6.515625 -9.273438 5.941406 -9.90625 4.796875 -9.90625 C 4.335938 -9.90625 3.945312 -9.789062 3.625 -9.5625 C 3.3125 -9.34375 3.15625 -9.082031 3.15625 -8.78125 C 3.15625 -8.613281 3.175781 -8.429688 3.21875 -8.234375 C 3.25 -8.023438 3.265625 -7.90625 3.265625 -7.875 C 3.265625 -7.613281 3.160156 -7.390625 2.953125 -7.203125 C 2.753906 -7.015625 2.519531 -6.921875 2.25 -6.921875 C 1.976562 -6.921875 1.742188 -7.019531 1.546875 -7.21875 C 1.359375 -7.414062 1.265625 -7.644531 1.265625 -7.90625 C 1.265625 -8.519531 1.578125 -9.085938 2.203125 -9.609375 C 2.878906 -10.160156 3.835938 -10.4375 5.078125 -10.4375 C 6.492188 -10.4375 7.441406 -10 7.921875 -9.125 C 8.210938 -8.65625 8.359375 -7.882812 8.359375 -6.8125 L 8.359375 -2.390625 C 8.359375 -1.890625 8.40625 -1.539062 8.5 -1.34375 C 8.601562 -1.15625 8.78125 -1.0625 9.03125 -1.0625 C 9.351562 -1.0625 9.6875 -1.207031 10.03125 -1.5 Z M 6.515625 -2.796875 L 6.515625 -6.078125 C 5.148438 -5.578125 4.195312 -5.09375 3.65625 -4.625 C 3.113281 -4.15625 2.84375 -3.585938 2.84375 -2.921875 L 2.84375 -2.84375 C 2.84375 -2.351562 2.976562 -1.9375 3.25 -1.59375 C 3.53125 -1.257812 3.867188 -1.09375 4.265625 -1.09375 C 4.796875 -1.09375 5.347656 -1.257812 5.921875 -1.59375 C 6.160156 -1.738281 6.316406 -1.882812 6.390625 -2.03125 C 6.472656 -2.1875 6.515625 -2.441406 6.515625 -2.796875 Z M 6.515625 -2.796875 "/></g></g></g><g fill="#000000" fill-opacity="1"><g transform="translate(267.8789, 310.054542)"><g><path d="M 10.671875 -8.8125 L 8.78125 -8.8125 C 9.070312 -8.15625 9.21875 -7.519531 9.21875 -6.90625 C 9.21875 -5.8125 8.851562 -4.957031 8.125 -4.34375 C 7.394531 -3.695312 6.578125 -3.375 5.671875 -3.375 C 5.523438 -3.375 5.238281 -3.398438 4.8125 -3.453125 C 4.800781 -3.453125 4.65625 -3.46875 4.375 -3.5 C 4.070312 -3.40625 3.769531 -3.195312 3.46875 -2.875 C 3.164062 -2.5625 3.015625 -2.289062 3.015625 -2.0625 C 3.015625 -1.695312 3.609375 -1.492188 4.796875 -1.453125 L 7.71875 -1.3125 C 8.550781 -1.28125 9.21875 -1.046875 9.71875 -0.609375 C 10.21875 -0.171875 10.46875 0.398438 10.46875 1.109375 C 10.46875 1.960938 10.050781 2.726562 9.21875 3.40625 C 7.945312 4.4375 6.394531 4.953125 4.5625 4.953125 C 3.488281 4.953125 2.566406 4.734375 1.796875 4.296875 C 1.023438 3.867188 0.640625 3.351562 0.640625 2.75 C 0.640625 2.320312 0.804688 1.898438 1.140625 1.484375 C 1.484375 1.066406 2.054688 0.566406 2.859375 -0.015625 C 2.390625 -0.242188 2.070312 -0.441406 1.90625 -0.609375 C 1.738281 -0.773438 1.65625 -0.976562 1.65625 -1.21875 C 1.65625 -1.664062 2.003906 -2.191406 2.703125 -2.796875 L 3.671875 -3.703125 C 2.921875 -4.078125 2.378906 -4.5 2.046875 -4.96875 C 1.722656 -5.4375 1.5625 -6.03125 1.5625 -6.75 C 1.5625 -7.769531 1.925781 -8.640625 2.65625 -9.359375 C 3.394531 -10.078125 4.296875 -10.4375 5.359375 -10.4375 C 5.960938 -10.4375 6.566406 -10.328125 7.171875 -10.109375 L 7.671875 -9.921875 C 8.109375 -9.765625 8.523438 -9.6875 8.921875 -9.6875 L 10.671875 -9.6875 Z M 9.828125 1.453125 C 9.828125 1.046875 9.613281 0.757812 9.1875 0.59375 C 8.769531 0.425781 8.046875 0.34375 7.015625 0.34375 C 5.484375 0.34375 4.257812 0.242188 3.34375 0.046875 C 2.875 0.609375 2.566406 1.007812 2.421875 1.25 C 2.285156 1.488281 2.21875 1.738281 2.21875 2 C 2.21875 2.5 2.519531 2.898438 3.125 3.203125 C 3.738281 3.503906 4.546875 3.65625 5.546875 3.65625 C 6.828125 3.65625 7.859375 3.445312 8.640625 3.03125 C 9.429688 2.625 9.828125 2.097656 9.828125 1.453125 Z M 7.46875 -6.015625 C 7.46875 -6.953125 7.238281 -7.859375 6.78125 -8.734375 C 6.40625 -9.453125 5.851562 -9.8125 5.125 -9.8125 C 4.601562 -9.8125 4.191406 -9.617188 3.890625 -9.234375 C 3.597656 -8.859375 3.453125 -8.335938 3.453125 -7.671875 L 3.453125 -7.609375 C 3.453125 -6.515625 3.664062 -5.628906 4.09375 -4.953125 C 4.53125 -4.285156 5.085938 -3.953125 5.765625 -3.953125 C 6.296875 -3.953125 6.710938 -4.132812 7.015625 -4.5 C 7.316406 -4.875 7.46875 -5.378906 7.46875 -6.015625 Z M 7.46875 -6.015625 "/></g></g></g><g fill="#000000" fill-opacity="1"><g transform="translate(279.230172, 310.054542)"><g><path d="M 9.625 -3.5625 C 8.644531 -1.03125 7.039062 0.234375 4.8125 0.234375 C 3.507812 0.234375 2.472656 -0.222656 1.703125 -1.140625 C 0.941406 -2.054688 0.5625 -3.296875 0.5625 -4.859375 C 0.5625 -6.503906 1 -7.84375 1.875 -8.875 C 2.757812 -9.914062 3.90625 -10.4375 5.3125 -10.4375 C 6.519531 -10.4375 7.488281 -10.007812 8.21875 -9.15625 C 8.71875 -8.519531 9.039062 -7.5625 9.1875 -6.28125 L 2.203125 -6.28125 C 2.242188 -5 2.472656 -3.957031 2.890625 -3.15625 C 3.535156 -1.945312 4.488281 -1.34375 5.75 -1.34375 C 6.46875 -1.34375 7.097656 -1.519531 7.640625 -1.875 C 8.179688 -2.238281 8.722656 -2.851562 9.265625 -3.71875 Z M 6.875 -7.015625 C 6.726562 -7.992188 6.492188 -8.671875 6.171875 -9.046875 C 5.859375 -9.429688 5.351562 -9.625 4.65625 -9.625 C 3.289062 -9.625 2.488281 -8.753906 2.25 -7.015625 Z M 6.875 -7.015625 "/></g></g></g><g fill="#000000" fill-opacity="1"><g transform="translate(289.310108, 310.054542)"><g/></g></g><g fill="#000000" fill-opacity="1"><g transform="translate(294.985755, 310.054542)"><g><path d="M 11.0625 0 L 6.25 0 L 6.25 -0.34375 C 6.894531 -0.40625 7.3125 -0.554688 7.5 -0.796875 C 7.6875 -1.035156 7.78125 -1.539062 7.78125 -2.3125 L 7.78125 -6.8125 C 7.78125 -8.414062 7.210938 -9.21875 6.078125 -9.21875 C 5.640625 -9.21875 5.226562 -9.109375 4.84375 -8.890625 C 4.457031 -8.671875 4.03125 -8.300781 3.5625 -7.78125 L 3.5625 -2.3125 C 3.5625 -1.53125 3.648438 -1.023438 3.828125 -0.796875 C 4.015625 -0.566406 4.441406 -0.414062 5.109375 -0.34375 L 5.109375 0 L 0.203125 0 L 0.203125 -0.34375 C 0.859375 -0.4375 1.265625 -0.585938 1.421875 -0.796875 C 1.578125 -1.003906 1.65625 -1.507812 1.65625 -2.3125 L 1.65625 -13.015625 C 1.65625 -13.492188 1.582031 -13.804688 1.4375 -13.953125 C 1.289062 -14.097656 0.976562 -14.171875 0.5 -14.171875 C 0.375 -14.171875 0.285156 -14.160156 0.234375 -14.140625 L 0.234375 -14.5 L 0.84375 -14.6875 C 1.875 -14.976562 2.742188 -15.25 3.453125 -15.5 L 3.5625 -15.4375 L 3.5625 -8.53125 C 4.09375 -9.21875 4.613281 -9.707031 5.125 -10 C 5.644531 -10.289062 6.238281 -10.4375 6.90625 -10.4375 C 8.757812 -10.4375 9.6875 -9.234375 9.6875 -6.828125 L 9.6875 -2.3125 C 9.6875 -1.53125 9.757812 -1.035156 9.90625 -0.828125 C 10.050781 -0.617188 10.4375 -0.457031 11.0625 -0.34375 Z M 11.0625 0 "/></g></g></g><g fill="#000000" fill-opacity="1"><g transform="translate(306.337026, 310.054542)"><g><path d="M 5.75 0 L 0.359375 0 L 0.359375 -0.34375 C 1.148438 -0.382812 1.644531 -0.519531 1.84375 -0.75 C 2.050781 -0.976562 2.15625 -1.5 2.15625 -2.3125 L 2.15625 -7.578125 C 2.15625 -8.078125 2.097656 -8.425781 1.984375 -8.625 C 1.867188 -8.832031 1.675781 -8.9375 1.40625 -8.9375 C 1.164062 -8.9375 0.910156 -8.914062 0.640625 -8.875 L 0.453125 -8.859375 L 0.453125 -9.1875 L 3.96875 -10.4375 L 4.0625 -10.375 L 4.0625 -2.3125 C 4.0625 -1.5 4.15625 -0.984375 4.34375 -0.765625 C 4.53125 -0.546875 5 -0.40625 5.75 -0.34375 Z M 4.265625 -13.390625 C 4.265625 -13.054688 4.15625 -12.78125 3.9375 -12.5625 C 3.71875 -12.34375 3.441406 -12.234375 3.109375 -12.234375 C 2.796875 -12.234375 2.523438 -12.34375 2.296875 -12.5625 C 2.066406 -12.78125 1.953125 -13.054688 1.953125 -13.390625 C 1.953125 -13.710938 2.066406 -13.984375 2.296875 -14.203125 C 2.523438 -14.429688 2.796875 -14.546875 3.109375 -14.546875 C 3.441406 -14.546875 3.71875 -14.429688 3.9375 -14.203125 C 4.15625 -13.984375 4.265625 -13.710938 4.265625 -13.390625 Z M 4.265625 -13.390625 "/></g></g></g><g fill="#000000" fill-opacity="1"><g transform="translate(312.64834, 310.054542)"><g><path d="M 7.90625 -2.671875 C 7.90625 -1.890625 7.585938 -1.207031 6.953125 -0.625 C 6.328125 -0.0507812 5.582031 0.234375 4.71875 0.234375 C 4.3125 0.234375 3.753906 0.15625 3.046875 0 C 2.554688 -0.125 2.207031 -0.1875 2 -0.1875 C 1.769531 -0.1875 1.59375 -0.09375 1.46875 0.09375 L 1.1875 0.09375 L 1.1875 -3.453125 L 1.546875 -3.453125 C 1.804688 -2.296875 2.15625 -1.472656 2.59375 -0.984375 C 3.03125 -0.503906 3.640625 -0.265625 4.421875 -0.265625 C 5.003906 -0.265625 5.460938 -0.410156 5.796875 -0.703125 C 6.140625 -1.003906 6.3125 -1.40625 6.3125 -1.90625 C 6.3125 -2.582031 5.914062 -3.148438 5.125 -3.609375 L 3.8125 -4.359375 C 2.84375 -4.921875 2.15625 -5.445312 1.75 -5.9375 C 1.351562 -6.425781 1.15625 -6.988281 1.15625 -7.625 C 1.15625 -8.457031 1.445312 -9.128906 2.03125 -9.640625 C 2.613281 -10.160156 3.367188 -10.421875 4.296875 -10.421875 C 4.847656 -10.421875 5.359375 -10.328125 5.828125 -10.140625 C 6.054688 -10.035156 6.265625 -9.984375 6.453125 -9.984375 C 6.503906 -9.984375 6.609375 -10.046875 6.765625 -10.171875 L 6.8125 -10.21875 L 7.0625 -10.21875 L 7.15625 -7.125 L 6.8125 -7.125 C 6.550781 -8.144531 6.234375 -8.863281 5.859375 -9.28125 C 5.484375 -9.707031 4.96875 -9.921875 4.3125 -9.921875 C 3.78125 -9.921875 3.351562 -9.78125 3.03125 -9.5 C 2.71875 -9.21875 2.5625 -8.84375 2.5625 -8.375 C 2.5625 -7.726562 2.890625 -7.210938 3.546875 -6.828125 L 6 -5.375 C 6.6875 -4.96875 7.175781 -4.5625 7.46875 -4.15625 C 7.757812 -3.75 7.90625 -3.253906 7.90625 -2.671875 Z M 7.90625 -2.671875 "/></g></g></g><g fill="#000000" fill-opacity="1"><g transform="translate(321.465587, 310.054542)"><g/></g></g><g fill="#000000" fill-opacity="1"><g transform="translate(112.176916, 341.270479)"><g><path d="M 11.140625 -0.953125 L 7.8125 0.234375 L 7.71875 0.15625 L 7.71875 -1.296875 C 6.988281 -0.273438 6.019531 0.234375 4.8125 0.234375 C 3.550781 0.234375 2.535156 -0.210938 1.765625 -1.109375 C 0.992188 -2.015625 0.609375 -3.195312 0.609375 -4.65625 C 0.609375 -6.257812 1.066406 -7.625 1.984375 -8.75 C 2.910156 -9.875 4.023438 -10.4375 5.328125 -10.4375 C 6.148438 -10.4375 6.945312 -10.113281 7.71875 -9.46875 L 7.71875 -13.015625 C 7.71875 -13.484375 7.648438 -13.789062 7.515625 -13.9375 C 7.378906 -14.09375 7.097656 -14.171875 6.671875 -14.171875 C 6.460938 -14.171875 6.296875 -14.160156 6.171875 -14.140625 L 6.171875 -14.5 C 7.546875 -14.863281 8.660156 -15.195312 9.515625 -15.5 L 9.625 -15.453125 L 9.625 -2.59375 C 9.625 -2.0625 9.6875 -1.710938 9.8125 -1.546875 C 9.945312 -1.378906 10.21875 -1.296875 10.625 -1.296875 C 10.695312 -1.296875 10.867188 -1.300781 11.140625 -1.3125 Z M 7.71875 -2.3125 L 7.71875 -7.53125 C 7.71875 -8.144531 7.484375 -8.675781 7.015625 -9.125 C 6.546875 -9.582031 6.007812 -9.8125 5.40625 -9.8125 C 4.539062 -9.8125 3.847656 -9.421875 3.328125 -8.640625 C 2.816406 -7.867188 2.5625 -6.84375 2.5625 -5.5625 C 2.5625 -4.164062 2.847656 -3.046875 3.421875 -2.203125 C 4.003906 -1.367188 4.765625 -0.953125 5.703125 -0.953125 C 6.378906 -0.953125 6.921875 -1.179688 7.328125 -1.640625 C 7.585938 -1.921875 7.71875 -2.144531 7.71875 -2.3125 Z M 7.71875 -2.3125 "/></g></g></g><g fill="#000000" fill-opacity="1"><g transform="translate(123.528187, 341.270479)"><g><path d="M 10.03125 -0.90625 C 9.632812 -0.46875 9.289062 -0.164062 9 0 C 8.707031 0.15625 8.367188 0.234375 7.984375 0.234375 C 7.515625 0.234375 7.171875 0.109375 6.953125 -0.140625 C 6.734375 -0.390625 6.59375 -0.820312 6.53125 -1.4375 C 5.238281 -0.320312 4.132812 0.234375 3.21875 0.234375 C 2.519531 0.234375 1.945312 0.00390625 1.5 -0.453125 C 1.0625 -0.910156 0.84375 -1.492188 0.84375 -2.203125 C 0.84375 -3.015625 1.113281 -3.671875 1.65625 -4.171875 C 2.144531 -4.597656 2.632812 -4.9375 3.125 -5.1875 C 3.613281 -5.4375 4.742188 -5.914062 6.515625 -6.625 L 6.515625 -8.015625 C 6.515625 -9.273438 5.941406 -9.90625 4.796875 -9.90625 C 4.335938 -9.90625 3.945312 -9.789062 3.625 -9.5625 C 3.3125 -9.34375 3.15625 -9.082031 3.15625 -8.78125 C 3.15625 -8.613281 3.175781 -8.429688 3.21875 -8.234375 C 3.25 -8.023438 3.265625 -7.90625 3.265625 -7.875 C 3.265625 -7.613281 3.160156 -7.390625 2.953125 -7.203125 C 2.753906 -7.015625 2.519531 -6.921875 2.25 -6.921875 C 1.976562 -6.921875 1.742188 -7.019531 1.546875 -7.21875 C 1.359375 -7.414062 1.265625 -7.644531 1.265625 -7.90625 C 1.265625 -8.519531 1.578125 -9.085938 2.203125 -9.609375 C 2.878906 -10.160156 3.835938 -10.4375 5.078125 -10.4375 C 6.492188 -10.4375 7.441406 -10 7.921875 -9.125 C 8.210938 -8.65625 8.359375 -7.882812 8.359375 -6.8125 L 8.359375 -2.390625 C 8.359375 -1.890625 8.40625 -1.539062 8.5 -1.34375 C 8.601562 -1.15625 8.78125 -1.0625 9.03125 -1.0625 C 9.351562 -1.0625 9.6875 -1.207031 10.03125 -1.5 Z M 6.515625 -2.796875 L 6.515625 -6.078125 C 5.148438 -5.578125 4.195312 -5.09375 3.65625 -4.625 C 3.113281 -4.15625 2.84375 -3.585938 2.84375 -2.921875 L 2.84375 -2.84375 C 2.84375 -2.351562 2.976562 -1.9375 3.25 -1.59375 C 3.53125 -1.257812 3.867188 -1.09375 4.265625 -1.09375 C 4.796875 -1.09375 5.347656 -1.257812 5.921875 -1.59375 C 6.160156 -1.738281 6.316406 -1.882812 6.390625 -2.03125 C 6.472656 -2.1875 6.515625 -2.441406 6.515625 -2.796875 Z M 6.515625 -2.796875 "/></g></g></g><g fill="#000000" fill-opacity="1"><g transform="translate(133.608124, 341.270479)"><g><path d="M 6.328125 -1.5 C 5.609375 -0.34375 4.695312 0.234375 3.59375 0.234375 C 2.257812 0.234375 1.59375 -0.726562 1.59375 -2.65625 L 1.59375 -9.484375 L 0.390625 -9.484375 C 0.328125 -9.535156 0.296875 -9.59375 0.296875 -9.65625 C 0.296875 -9.769531 0.425781 -9.910156 0.6875 -10.078125 C 1.300781 -10.441406 2.035156 -11.253906 2.890625 -12.515625 C 3.097656 -12.785156 3.25 -12.992188 3.34375 -13.140625 C 3.445312 -13.140625 3.5 -13.039062 3.5 -12.84375 L 3.5 -10.21875 L 5.796875 -10.21875 L 5.796875 -9.484375 L 3.5 -9.484375 L 3.5 -3 C 3.5 -2.269531 3.585938 -1.742188 3.765625 -1.421875 C 3.953125 -1.109375 4.253906 -0.953125 4.671875 -0.953125 C 5.128906 -0.953125 5.582031 -1.21875 6.03125 -1.75 Z M 6.328125 -1.5 "/></g></g></g><g fill="#000000" fill-opacity="1"><g transform="translate(139.919438, 341.270479)"><g><path d="M 10.03125 -0.90625 C 9.632812 -0.46875 9.289062 -0.164062 9 0 C 8.707031 0.15625 8.367188 0.234375 7.984375 0.234375 C 7.515625 0.234375 7.171875 0.109375 6.953125 -0.140625 C 6.734375 -0.390625 6.59375 -0.820312 6.53125 -1.4375 C 5.238281 -0.320312 4.132812 0.234375 3.21875 0.234375 C 2.519531 0.234375 1.945312 0.00390625 1.5 -0.453125 C 1.0625 -0.910156 0.84375 -1.492188 0.84375 -2.203125 C 0.84375 -3.015625 1.113281 -3.671875 1.65625 -4.171875 C 2.144531 -4.597656 2.632812 -4.9375 3.125 -5.1875 C 3.613281 -5.4375 4.742188 -5.914062 6.515625 -6.625 L 6.515625 -8.015625 C 6.515625 -9.273438 5.941406 -9.90625 4.796875 -9.90625 C 4.335938 -9.90625 3.945312 -9.789062 3.625 -9.5625 C 3.3125 -9.34375 3.15625 -9.082031 3.15625 -8.78125 C 3.15625 -8.613281 3.175781 -8.429688 3.21875 -8.234375 C 3.25 -8.023438 3.265625 -7.90625 3.265625 -7.875 C 3.265625 -7.613281 3.160156 -7.390625 2.953125 -7.203125 C 2.753906 -7.015625 2.519531 -6.921875 2.25 -6.921875 C 1.976562 -6.921875 1.742188 -7.019531 1.546875 -7.21875 C 1.359375 -7.414062 1.265625 -7.644531 1.265625 -7.90625 C 1.265625 -8.519531 1.578125 -9.085938 2.203125 -9.609375 C 2.878906 -10.160156 3.835938 -10.4375 5.078125 -10.4375 C 6.492188 -10.4375 7.441406 -10 7.921875 -9.125 C 8.210938 -8.65625 8.359375 -7.882812 8.359375 -6.8125 L 8.359375 -2.390625 C 8.359375 -1.890625 8.40625 -1.539062 8.5 -1.34375 C 8.601562 -1.15625 8.78125 -1.0625 9.03125 -1.0625 C 9.351562 -1.0625 9.6875 -1.207031 10.03125 -1.5 Z M 6.515625 -2.796875 L 6.515625 -6.078125 C 5.148438 -5.578125 4.195312 -5.09375 3.65625 -4.625 C 3.113281 -4.15625 2.84375 -3.585938 2.84375 -2.921875 L 2.84375 -2.84375 C 2.84375 -2.351562 2.976562 -1.9375 3.25 -1.59375 C 3.53125 -1.257812 3.867188 -1.09375 4.265625 -1.09375 C 4.796875 -1.09375 5.347656 -1.257812 5.921875 -1.59375 C 6.160156 -1.738281 6.316406 -1.882812 6.390625 -2.03125 C 6.472656 -2.1875 6.515625 -2.441406 6.515625 -2.796875 Z M 6.515625 -2.796875 "/></g></g></g><g fill="#000000" fill-opacity="1"><g transform="translate(155.675021, 341.270479)"><g><path d="M 8.703125 -14.09375 C 8.703125 -13.84375 8.609375 -13.625 8.421875 -13.4375 C 8.242188 -13.257812 8.015625 -13.171875 7.734375 -13.171875 C 7.378906 -13.171875 7.039062 -13.441406 6.71875 -13.984375 C 6.351562 -14.578125 5.953125 -14.875 5.515625 -14.875 C 4.648438 -14.875 4.21875 -14.195312 4.21875 -12.84375 L 4.21875 -10.21875 L 7.015625 -10.21875 L 7.015625 -9.484375 L 4.25 -9.484375 L 4.25 -2.359375 C 4.25 -1.515625 4.367188 -0.972656 4.609375 -0.734375 C 4.847656 -0.503906 5.429688 -0.375 6.359375 -0.34375 L 6.359375 0 L 0.453125 0 L 0.453125 -0.34375 C 1.273438 -0.382812 1.796875 -0.519531 2.015625 -0.75 C 2.234375 -0.988281 2.34375 -1.523438 2.34375 -2.359375 L 2.34375 -9.484375 L 0.484375 -9.484375 L 0.484375 -10.21875 L 2.34375 -10.21875 C 2.351562 -11.125 2.410156 -11.828125 2.515625 -12.328125 C 2.617188 -12.835938 2.828125 -13.351562 3.140625 -13.875 C 3.773438 -14.957031 4.835938 -15.5 6.328125 -15.5 C 7.015625 -15.5 7.582031 -15.367188 8.03125 -15.109375 C 8.476562 -14.847656 8.703125 -14.507812 8.703125 -14.09375 Z M 8.703125 -14.09375 "/></g></g></g><g fill="#000000" fill-opacity="1"><g transform="translate(163.234979, 341.270479)"><g><path d="M 10.671875 -5.3125 C 10.671875 -3.738281 10.1875 -2.421875 9.21875 -1.359375 C 8.25 -0.296875 7.050781 0.234375 5.625 0.234375 C 4.207031 0.234375 3.023438 -0.273438 2.078125 -1.296875 C 1.128906 -2.328125 0.65625 -3.601562 0.65625 -5.125 C 0.65625 -6.6875 1.117188 -7.960938 2.046875 -8.953125 C 2.984375 -9.941406 4.191406 -10.4375 5.671875 -10.4375 C 7.128906 -10.4375 8.328125 -9.953125 9.265625 -8.984375 C 10.203125 -8.015625 10.671875 -6.789062 10.671875 -5.3125 Z M 8.625 -4.515625 C 8.625 -6.078125 8.320312 -7.347656 7.71875 -8.328125 C 7.113281 -9.316406 6.332031 -9.8125 5.375 -9.8125 C 4.570312 -9.8125 3.925781 -9.484375 3.4375 -8.828125 C 2.945312 -8.179688 2.703125 -7.320312 2.703125 -6.25 C 2.703125 -4.5625 3.035156 -3.097656 3.703125 -1.859375 C 4.210938 -0.890625 4.945312 -0.40625 5.90625 -0.40625 C 6.75 -0.40625 7.410156 -0.769531 7.890625 -1.5 C 8.378906 -2.226562 8.625 -3.234375 8.625 -4.515625 Z M 8.625 -4.515625 "/></g></g></g><g fill="#000000" fill-opacity="1"><g transform="translate(174.58625, 341.270479)"><g><path d="M 7.609375 -9.234375 C 7.609375 -8.921875 7.523438 -8.671875 7.359375 -8.484375 C 7.203125 -8.304688 6.988281 -8.21875 6.71875 -8.21875 C 6.457031 -8.21875 6.15625 -8.367188 5.8125 -8.671875 C 5.570312 -8.898438 5.375 -9.015625 5.21875 -9.015625 C 4.914062 -9.015625 4.570312 -8.796875 4.1875 -8.359375 C 3.8125 -7.921875 3.625 -7.519531 3.625 -7.15625 L 3.625 -2.046875 C 3.625 -1.390625 3.753906 -0.945312 4.015625 -0.71875 C 4.273438 -0.5 4.789062 -0.375 5.5625 -0.34375 L 5.5625 0 L 0.109375 0 L 0.109375 -0.34375 C 0.835938 -0.476562 1.285156 -0.628906 1.453125 -0.796875 C 1.628906 -0.960938 1.71875 -1.332031 1.71875 -1.90625 L 1.71875 -7.578125 C 1.71875 -8.078125 1.660156 -8.425781 1.546875 -8.625 C 1.441406 -8.832031 1.242188 -8.9375 0.953125 -8.9375 C 0.710938 -8.9375 0.445312 -8.910156 0.15625 -8.859375 L 0.15625 -9.21875 C 1.363281 -9.613281 2.484375 -10.019531 3.515625 -10.4375 L 3.625 -10.390625 L 3.625 -8.3125 C 4.1875 -9.113281 4.664062 -9.664062 5.0625 -9.96875 C 5.457031 -10.28125 5.890625 -10.4375 6.359375 -10.4375 C 6.753906 -10.4375 7.0625 -10.332031 7.28125 -10.125 C 7.5 -9.914062 7.609375 -9.617188 7.609375 -9.234375 Z M 7.609375 -9.234375 "/></g></g></g><g fill="#000000" fill-opacity="1"><g transform="translate(182.146209, 341.270479)"><g/></g></g><g fill="#000000" fill-opacity="1"><g transform="translate(187.821855, 341.270479)"><g><path d="M 6.328125 -1.5 C 5.609375 -0.34375 4.695312 0.234375 3.59375 0.234375 C 2.257812 0.234375 1.59375 -0.726562 1.59375 -2.65625 L 1.59375 -9.484375 L 0.390625 -9.484375 C 0.328125 -9.535156 0.296875 -9.59375 0.296875 -9.65625 C 0.296875 -9.769531 0.425781 -9.910156 0.6875 -10.078125 C 1.300781 -10.441406 2.035156 -11.253906 2.890625 -12.515625 C 3.097656 -12.785156 3.25 -12.992188 3.34375 -13.140625 C 3.445312 -13.140625 3.5 -13.039062 3.5 -12.84375 L 3.5 -10.21875 L 5.796875 -10.21875 L 5.796875 -9.484375 L 3.5 -9.484375 L 3.5 -3 C 3.5 -2.269531 3.585938 -1.742188 3.765625 -1.421875 C 3.953125 -1.109375 4.253906 -0.953125 4.671875 -0.953125 C 5.128906 -0.953125 5.582031 -1.21875 6.03125 -1.75 Z M 6.328125 -1.5 "/></g></g></g><g fill="#000000" fill-opacity="1"><g transform="translate(194.133169, 341.270479)"><g><path d="M 11.0625 0 L 6.25 0 L 6.25 -0.34375 C 6.894531 -0.40625 7.3125 -0.554688 7.5 -0.796875 C 7.6875 -1.035156 7.78125 -1.539062 7.78125 -2.3125 L 7.78125 -6.8125 C 7.78125 -8.414062 7.210938 -9.21875 6.078125 -9.21875 C 5.640625 -9.21875 5.226562 -9.109375 4.84375 -8.890625 C 4.457031 -8.671875 4.03125 -8.300781 3.5625 -7.78125 L 3.5625 -2.3125 C 3.5625 -1.53125 3.648438 -1.023438 3.828125 -0.796875 C 4.015625 -0.566406 4.441406 -0.414062 5.109375 -0.34375 L 5.109375 0 L 0.203125 0 L 0.203125 -0.34375 C 0.859375 -0.4375 1.265625 -0.585938 1.421875 -0.796875 C 1.578125 -1.003906 1.65625 -1.507812 1.65625 -2.3125 L 1.65625 -13.015625 C 1.65625 -13.492188 1.582031 -13.804688 1.4375 -13.953125 C 1.289062 -14.097656 0.976562 -14.171875 0.5 -14.171875 C 0.375 -14.171875 0.285156 -14.160156 0.234375 -14.140625 L 0.234375 -14.5 L 0.84375 -14.6875 C 1.875 -14.976562 2.742188 -15.25 3.453125 -15.5 L 3.5625 -15.4375 L 3.5625 -8.53125 C 4.09375 -9.21875 4.613281 -9.707031 5.125 -10 C 5.644531 -10.289062 6.238281 -10.4375 6.90625 -10.4375 C 8.757812 -10.4375 9.6875 -9.234375 9.6875 -6.828125 L 9.6875 -2.3125 C 9.6875 -1.53125 9.757812 -1.035156 9.90625 -0.828125 C 10.050781 -0.617188 10.4375 -0.457031 11.0625 -0.34375 Z M 11.0625 0 "/></g></g></g><g fill="#000000" fill-opacity="1"><g transform="translate(205.48444, 341.270479)"><g><path d="M 9.625 -3.5625 C 8.644531 -1.03125 7.039062 0.234375 4.8125 0.234375 C 3.507812 0.234375 2.472656 -0.222656 1.703125 -1.140625 C 0.941406 -2.054688 0.5625 -3.296875 0.5625 -4.859375 C 0.5625 -6.503906 1 -7.84375 1.875 -8.875 C 2.757812 -9.914062 3.90625 -10.4375 5.3125 -10.4375 C 6.519531 -10.4375 7.488281 -10.007812 8.21875 -9.15625 C 8.71875 -8.519531 9.039062 -7.5625 9.1875 -6.28125 L 2.203125 -6.28125 C 2.242188 -5 2.472656 -3.957031 2.890625 -3.15625 C 3.535156 -1.945312 4.488281 -1.34375 5.75 -1.34375 C 6.46875 -1.34375 7.097656 -1.519531 7.640625 -1.875 C 8.179688 -2.238281 8.722656 -2.851562 9.265625 -3.71875 Z M 6.875 -7.015625 C 6.726562 -7.992188 6.492188 -8.671875 6.171875 -9.046875 C 5.859375 -9.429688 5.351562 -9.625 4.65625 -9.625 C 3.289062 -9.625 2.488281 -8.753906 2.25 -7.015625 Z M 6.875 -7.015625 "/></g></g></g><g fill="#000000" fill-opacity="1"><g transform="translate(215.564377, 341.270479)"><g/></g></g><g fill="#000000" fill-opacity="1"><g transform="translate(221.240023, 341.270479)"><g><path d="M 10.03125 -0.90625 C 9.632812 -0.46875 9.289062 -0.164062 9 0 C 8.707031 0.15625 8.367188 0.234375 7.984375 0.234375 C 7.515625 0.234375 7.171875 0.109375 6.953125 -0.140625 C 6.734375 -0.390625 6.59375 -0.820312 6.53125 -1.4375 C 5.238281 -0.320312 4.132812 0.234375 3.21875 0.234375 C 2.519531 0.234375 1.945312 0.00390625 1.5 -0.453125 C 1.0625 -0.910156 0.84375 -1.492188 0.84375 -2.203125 C 0.84375 -3.015625 1.113281 -3.671875 1.65625 -4.171875 C 2.144531 -4.597656 2.632812 -4.9375 3.125 -5.1875 C 3.613281 -5.4375 4.742188 -5.914062 6.515625 -6.625 L 6.515625 -8.015625 C 6.515625 -9.273438 5.941406 -9.90625 4.796875 -9.90625 C 4.335938 -9.90625 3.945312 -9.789062 3.625 -9.5625 C 3.3125 -9.34375 3.15625 -9.082031 3.15625 -8.78125 C 3.15625 -8.613281 3.175781 -8.429688 3.21875 -8.234375 C 3.25 -8.023438 3.265625 -7.90625 3.265625 -7.875 C 3.265625 -7.613281 3.160156 -7.390625 2.953125 -7.203125 C 2.753906 -7.015625 2.519531 -6.921875 2.25 -6.921875 C 1.976562 -6.921875 1.742188 -7.019531 1.546875 -7.21875 C 1.359375 -7.414062 1.265625 -7.644531 1.265625 -7.90625 C 1.265625 -8.519531 1.578125 -9.085938 2.203125 -9.609375 C 2.878906 -10.160156 3.835938 -10.4375 5.078125 -10.4375 C 6.492188 -10.4375 7.441406 -10 7.921875 -9.125 C 8.210938 -8.65625 8.359375 -7.882812 8.359375 -6.8125 L 8.359375 -2.390625 C 8.359375 -1.890625 8.40625 -1.539062 8.5 -1.34375 C 8.601562 -1.15625 8.78125 -1.0625 9.03125 -1.0625 C 9.351562 -1.0625 9.6875 -1.207031 10.03125 -1.5 Z M 6.515625 -2.796875 L 6.515625 -6.078125 C 5.148438 -5.578125 4.195312 -5.09375 3.65625 -4.625 C 3.113281 -4.15625 2.84375 -3.585938 2.84375 -2.921875 L 2.84375 -2.84375 C 2.84375 -2.351562 2.976562 -1.9375 3.25 -1.59375 C 3.53125 -1.257812 3.867188 -1.09375 4.265625 -1.09375 C 4.796875 -1.09375 5.347656 -1.257812 5.921875 -1.59375 C 6.160156 -1.738281 6.316406 -1.882812 6.390625 -2.03125 C 6.472656 -2.1875 6.515625 -2.441406 6.515625 -2.796875 Z M 6.515625 -2.796875 "/></g></g></g><g fill="#000000" fill-opacity="1"><g transform="translate(231.31996, 341.270479)"><g><path d="M 7.609375 -9.234375 C 7.609375 -8.921875 7.523438 -8.671875 7.359375 -8.484375 C 7.203125 -8.304688 6.988281 -8.21875 6.71875 -8.21875 C 6.457031 -8.21875 6.15625 -8.367188 5.8125 -8.671875 C 5.570312 -8.898438 5.375 -9.015625 5.21875 -9.015625 C 4.914062 -9.015625 4.570312 -8.796875 4.1875 -8.359375 C 3.8125 -7.921875 3.625 -7.519531 3.625 -7.15625 L 3.625 -2.046875 C 3.625 -1.390625 3.753906 -0.945312 4.015625 -0.71875 C 4.273438 -0.5 4.789062 -0.375 5.5625 -0.34375 L 5.5625 0 L 0.109375 0 L 0.109375 -0.34375 C 0.835938 -0.476562 1.285156 -0.628906 1.453125 -0.796875 C 1.628906 -0.960938 1.71875 -1.332031 1.71875 -1.90625 L 1.71875 -7.578125 C 1.71875 -8.078125 1.660156 -8.425781 1.546875 -8.625 C 1.441406 -8.832031 1.242188 -8.9375 0.953125 -8.9375 C 0.710938 -8.9375 0.445312 -8.910156 0.15625 -8.859375 L 0.15625 -9.21875 C 1.363281 -9.613281 2.484375 -10.019531 3.515625 -10.4375 L 3.625 -10.390625 L 3.625 -8.3125 C 4.1875 -9.113281 4.664062 -9.664062 5.0625 -9.96875 C 5.457031 -10.28125 5.890625 -10.4375 6.359375 -10.4375 C 6.753906 -10.4375 7.0625 -10.332031 7.28125 -10.125 C 7.5 -9.914062 7.609375 -9.617188 7.609375 -9.234375 Z M 7.609375 -9.234375 "/></g></g></g><g fill="#000000" fill-opacity="1"><g transform="translate(238.879918, 341.270479)"><g><path d="M 9.359375 -3.34375 C 8.703125 -2.070312 8.078125 -1.195312 7.484375 -0.71875 C 6.710938 -0.0820312 5.84375 0.234375 4.875 0.234375 C 3.625 0.234375 2.59375 -0.238281 1.78125 -1.1875 C 0.96875 -2.132812 0.5625 -3.34375 0.5625 -4.8125 C 0.5625 -6.738281 1.195312 -8.226562 2.46875 -9.28125 C 3.40625 -10.050781 4.429688 -10.4375 5.546875 -10.4375 C 6.492188 -10.4375 7.3125 -10.207031 8 -9.75 C 8.6875 -9.289062 9.03125 -8.742188 9.03125 -8.109375 C 9.03125 -7.847656 8.925781 -7.625 8.71875 -7.4375 C 8.507812 -7.25 8.257812 -7.15625 7.96875 -7.15625 C 7.4375 -7.15625 7.070312 -7.503906 6.875 -8.203125 L 6.75 -8.703125 C 6.625 -9.117188 6.46875 -9.398438 6.28125 -9.546875 C 6.101562 -9.703125 5.8125 -9.78125 5.40625 -9.78125 C 4.476562 -9.78125 3.726562 -9.414062 3.15625 -8.6875 C 2.59375 -7.96875 2.3125 -7.015625 2.3125 -5.828125 C 2.3125 -4.523438 2.632812 -3.460938 3.28125 -2.640625 C 3.9375 -1.816406 4.785156 -1.40625 5.828125 -1.40625 C 6.484375 -1.40625 7.046875 -1.5625 7.515625 -1.875 C 7.984375 -2.1875 8.488281 -2.742188 9.03125 -3.546875 Z M 9.359375 -3.34375 "/></g></g></g><g fill="#000000" fill-opacity="1"><g transform="translate(248.959855, 341.270479)"><g><path d="M 11.0625 0 L 6.25 0 L 6.25 -0.34375 C 6.894531 -0.40625 7.3125 -0.554688 7.5 -0.796875 C 7.6875 -1.035156 7.78125 -1.539062 7.78125 -2.3125 L 7.78125 -6.8125 C 7.78125 -8.414062 7.210938 -9.21875 6.078125 -9.21875 C 5.640625 -9.21875 5.226562 -9.109375 4.84375 -8.890625 C 4.457031 -8.671875 4.03125 -8.300781 3.5625 -7.78125 L 3.5625 -2.3125 C 3.5625 -1.53125 3.648438 -1.023438 3.828125 -0.796875 C 4.015625 -0.566406 4.441406 -0.414062 5.109375 -0.34375 L 5.109375 0 L 0.203125 0 L 0.203125 -0.34375 C 0.859375 -0.4375 1.265625 -0.585938 1.421875 -0.796875 C 1.578125 -1.003906 1.65625 -1.507812 1.65625 -2.3125 L 1.65625 -13.015625 C 1.65625 -13.492188 1.582031 -13.804688 1.4375 -13.953125 C 1.289062 -14.097656 0.976562 -14.171875 0.5 -14.171875 C 0.375 -14.171875 0.285156 -14.160156 0.234375 -14.140625 L 0.234375 -14.5 L 0.84375 -14.6875 C 1.875 -14.976562 2.742188 -15.25 3.453125 -15.5 L 3.5625 -15.4375 L 3.5625 -8.53125 C 4.09375 -9.21875 4.613281 -9.707031 5.125 -10 C 5.644531 -10.289062 6.238281 -10.4375 6.90625 -10.4375 C 8.757812 -10.4375 9.6875 -9.234375 9.6875 -6.828125 L 9.6875 -2.3125 C 9.6875 -1.53125 9.757812 -1.035156 9.90625 -0.828125 C 10.050781 -0.617188 10.4375 -0.457031 11.0625 -0.34375 Z M 11.0625 0 "/></g></g></g><g fill="#000000" fill-opacity="1"><g transform="translate(260.311126, 341.270479)"><g><path d="M 5.75 0 L 0.359375 0 L 0.359375 -0.34375 C 1.148438 -0.382812 1.644531 -0.519531 1.84375 -0.75 C 2.050781 -0.976562 2.15625 -1.5 2.15625 -2.3125 L 2.15625 -7.578125 C 2.15625 -8.078125 2.097656 -8.425781 1.984375 -8.625 C 1.867188 -8.832031 1.675781 -8.9375 1.40625 -8.9375 C 1.164062 -8.9375 0.910156 -8.914062 0.640625 -8.875 L 0.453125 -8.859375 L 0.453125 -9.1875 L 3.96875 -10.4375 L 4.0625 -10.375 L 4.0625 -2.3125 C 4.0625 -1.5 4.15625 -0.984375 4.34375 -0.765625 C 4.53125 -0.546875 5 -0.40625 5.75 -0.34375 Z M 4.265625 -13.390625 C 4.265625 -13.054688 4.15625 -12.78125 3.9375 -12.5625 C 3.71875 -12.34375 3.441406 -12.234375 3.109375 -12.234375 C 2.796875 -12.234375 2.523438 -12.34375 2.296875 -12.5625 C 2.066406 -12.78125 1.953125 -13.054688 1.953125 -13.390625 C 1.953125 -13.710938 2.066406 -13.984375 2.296875 -14.203125 C 2.523438 -14.429688 2.796875 -14.546875 3.109375 -14.546875 C 3.441406 -14.546875 3.71875 -14.429688 3.9375 -14.203125 C 4.15625 -13.984375 4.265625 -13.710938 4.265625 -13.390625 Z M 4.265625 -13.390625 "/></g></g></g><g fill="#000000" fill-opacity="1"><g transform="translate(266.62244, 341.270479)"><g><path d="M 10.828125 -9.875 C 10.484375 -9.84375 10.234375 -9.734375 10.078125 -9.546875 C 9.929688 -9.359375 9.691406 -8.878906 9.359375 -8.109375 L 6.453125 -0.8125 C 6.148438 -0.0625 5.9375 0.3125 5.8125 0.3125 C 5.675781 0.3125 5.539062 0.117188 5.40625 -0.265625 C 5.382812 -0.296875 5.351562 -0.375 5.3125 -0.5 C 5.269531 -0.625 5.238281 -0.707031 5.21875 -0.75 L 2.5 -7.265625 C 1.96875 -8.441406 1.59375 -9.164062 1.375 -9.4375 C 1.164062 -9.71875 0.851562 -9.863281 0.4375 -9.875 L 0.4375 -10.21875 L 4.875 -10.21875 L 4.875 -9.875 C 4.488281 -9.84375 4.21875 -9.78125 4.0625 -9.6875 C 3.914062 -9.601562 3.84375 -9.453125 3.84375 -9.234375 C 3.84375 -8.992188 3.910156 -8.71875 4.046875 -8.40625 L 6.359375 -2.59375 L 8.609375 -8.46875 C 8.691406 -8.695312 8.734375 -8.925781 8.734375 -9.15625 C 8.734375 -9.570312 8.378906 -9.8125 7.671875 -9.875 L 7.671875 -10.21875 L 10.828125 -10.21875 Z M 10.828125 -9.875 "/></g></g></g><g fill="#000000" fill-opacity="1"><g transform="translate(277.973711, 341.270479)"><g><path d="M 9.625 -3.5625 C 8.644531 -1.03125 7.039062 0.234375 4.8125 0.234375 C 3.507812 0.234375 2.472656 -0.222656 1.703125 -1.140625 C 0.941406 -2.054688 0.5625 -3.296875 0.5625 -4.859375 C 0.5625 -6.503906 1 -7.84375 1.875 -8.875 C 2.757812 -9.914062 3.90625 -10.4375 5.3125 -10.4375 C 6.519531 -10.4375 7.488281 -10.007812 8.21875 -9.15625 C 8.71875 -8.519531 9.039062 -7.5625 9.1875 -6.28125 L 2.203125 -6.28125 C 2.242188 -5 2.472656 -3.957031 2.890625 -3.15625 C 3.535156 -1.945312 4.488281 -1.34375 5.75 -1.34375 C 6.46875 -1.34375 7.097656 -1.519531 7.640625 -1.875 C 8.179688 -2.238281 8.722656 -2.851562 9.265625 -3.71875 Z M 6.875 -7.015625 C 6.726562 -7.992188 6.492188 -8.671875 6.171875 -9.046875 C 5.859375 -9.429688 5.351562 -9.625 4.65625 -9.625 C 3.289062 -9.625 2.488281 -8.753906 2.25 -7.015625 Z M 6.875 -7.015625 "/></g></g></g></svg>