<svg xmlns="http://www.w3.org/2000/svg" xmlns:xlink="http://www.w3.org/1999/xlink" width="360" zoomAndPan="magnify" viewBox="0 0 270 365.249998" height="487" preserveAspectRatio="xMidYMid meet" version="1.2"><defs><clipPath id="4105403060"><path d="M 0.277344 0 L 269.722656 0 L 269.722656 364.5 L 0.277344 364.5 Z M 0.277344 0 "/></clipPath><clipPath id="84c96e0e2e"><path d="M 97.09375 53.628906 L 118.398438 53.628906 L 118.398438 74.933594 L 97.09375 74.933594 Z M 97.09375 53.628906 "/></clipPath><clipPath id="9c16e42030"><path d="M 107.746094 53.628906 C 101.863281 53.628906 97.09375 58.398438 97.09375 64.28125 C 97.09375 70.164062 101.863281 74.933594 107.746094 74.933594 C 113.628906 74.933594 118.398438 70.164062 118.398438 64.28125 C 118.398438 58.398438 113.628906 53.628906 107.746094 53.628906 Z M 107.746094 53.628906 "/></clipPath><clipPath id="f865c70334"><path d="M 129.792969 53.628906 L 151.097656 53.628906 L 151.097656 74.933594 L 129.792969 74.933594 Z M 129.792969 53.628906 "/></clipPath><clipPath id="87ecb2f981"><path d="M 140.445312 53.628906 C 134.5625 53.628906 129.792969 58.398438 129.792969 64.28125 C 129.792969 70.164062 134.5625 74.933594 140.445312 74.933594 C 146.328125 74.933594 151.097656 70.164062 151.097656 64.28125 C 151.097656 58.398438 146.328125 53.628906 140.445312 53.628906 Z M 140.445312 53.628906 "/></clipPath><clipPath id="3ccabc7160"><path d="M 17.355469 0 L 230.667969 0 L 230.667969 213.3125 L 17.355469 213.3125 Z M 17.355469 0 "/></clipPath></defs><g id="9808349e8a"><g clip-rule="nonzero" clip-path="url(#4105403060)"><path style=" stroke:none;fill-rule:nonzero;fill:#ffffff;fill-opacity:1;" d="M 0.277344 0 L 269.722656 0 L 269.722656 364.5 L 0.277344 364.5 Z M 0.277344 0 "/></g><g clip-rule="nonzero" clip-path="url(#84c96e0e2e)"><g clip-rule="nonzero" clip-path="url(#9c16e42030)"><path style=" stroke:none;fill-rule:nonzero;fill:#000000;fill-opacity:1;" d="M 97.09375 53.628906 L 118.398438 53.628906 L 118.398438 74.933594 L 97.09375 74.933594 Z M 97.09375 53.628906 "/></g></g><g clip-rule="nonzero" clip-path="url(#f865c70334)"><g clip-rule="nonzero" clip-path="url(#87ecb2f981)"><path style=" stroke:none;fill-rule:nonzero;fill:#000000;fill-opacity:1;" d="M 129.792969 53.628906 L 151.097656 53.628906 L 151.097656 74.933594 L 129.792969 74.933594 Z M 129.792969 53.628906 "/></g></g><g clip-rule="nonzero" clip-path="url(#3ccabc7160)"><path style=" stroke:none;fill-rule:nonzero;fill:#000000;fill-opacity:1;" d="M 124.011719 0 C 65.203125 0 17.355469 47.847656 17.355469 106.65625 C 17.355469 165.464844 65.203125 213.3125 124.011719 213.3125 C 182.820312 213.3125 230.667969 165.464844 230.667969 106.65625 C 230.667969 47.847656 182.820312 0 124.011719 0 Z M 64.109375 178.121094 C 65.105469 145.90625 91.554688 119.988281 124.011719 119.988281 C 156.46875 119.988281 182.917969 145.90625 183.914062 178.121094 C 167.6875 191.742188 146.804688 199.980469 124.011719 199.980469 C 101.222656 199.980469 80.335938 191.742188 64.109375 178.121094 Z M 90.683594 73.324219 C 90.683594 54.949219 105.632812 39.996094 124.011719 39.996094 C 142.390625 39.996094 157.34375 54.949219 157.34375 73.324219 C 157.34375 91.703125 142.390625 106.65625 124.011719 106.65625 C 105.632812 106.65625 90.683594 91.703125 90.683594 73.324219 Z M 195.964844 166.015625 C 191.136719 141.097656 173.660156 120.703125 150.507812 111.683594 C 162.675781 103.257812 170.675781 89.210938 170.675781 73.324219 C 170.675781 47.601562 149.734375 26.664062 124.011719 26.664062 C 98.289062 26.664062 77.351562 47.601562 77.351562 73.324219 C 77.351562 89.210938 85.347656 103.257812 97.515625 111.6875 C 74.363281 120.707031 56.886719 141.105469 52.050781 166.023438 C 38.714844 149.878906 30.6875 129.1875 30.6875 106.65625 C 30.6875 55.195312 72.550781 13.332031 124.011719 13.332031 C 175.472656 13.332031 217.335938 55.195312 217.335938 106.65625 C 217.335938 129.1875 209.308594 149.878906 195.964844 166.015625 Z M 195.964844 166.015625 "/></g><g style="fill:#000000;fill-opacity:1;"><g transform="translate(25.406369, 254.801724)"><path style="stroke:none" d="M 8.375 -14.5625 C 7.457031 -14.507812 6.878906 -14.363281 6.640625 -14.125 C 6.410156 -13.894531 6.296875 -13.363281 6.296875 -12.53125 L 6.296875 -4.140625 C 6.296875 -2.722656 5.960938 -1.625 5.296875 -0.84375 C 4.628906 -0.0703125 3.6875 0.3125 2.46875 0.3125 C 1.820312 0.3125 1.285156 0.160156 0.859375 -0.140625 C 0.429688 -0.441406 0.21875 -0.832031 0.21875 -1.3125 C 0.21875 -1.613281 0.328125 -1.878906 0.546875 -2.109375 C 0.773438 -2.335938 1.039062 -2.453125 1.34375 -2.453125 C 1.894531 -2.453125 2.285156 -2.066406 2.515625 -1.296875 C 2.585938 -1.003906 2.671875 -0.804688 2.765625 -0.703125 C 2.859375 -0.597656 2.976562 -0.546875 3.125 -0.546875 C 3.695312 -0.546875 3.984375 -1.039062 3.984375 -2.03125 L 3.984375 -12.53125 C 3.984375 -13.363281 3.863281 -13.894531 3.625 -14.125 C 3.382812 -14.363281 2.800781 -14.507812 1.875 -14.5625 L 1.875 -15 L 8.375 -15 Z M 8.375 -14.5625 "/></g></g><g style="fill:#000000;fill-opacity:1;"><g transform="translate(34.219565, 254.801724)"><path style="stroke:none" d="M 5.734375 0 L 0.359375 0 L 0.359375 -0.34375 C 1.148438 -0.382812 1.644531 -0.519531 1.84375 -0.75 C 2.050781 -0.976562 2.15625 -1.5 2.15625 -2.3125 L 2.15625 -7.5625 C 2.15625 -8.0625 2.097656 -8.410156 1.984375 -8.609375 C 1.867188 -8.816406 1.675781 -8.921875 1.40625 -8.921875 C 1.164062 -8.921875 0.910156 -8.898438 0.640625 -8.859375 L 0.453125 -8.828125 L 0.453125 -9.171875 L 3.96875 -10.421875 L 4.0625 -10.359375 L 4.0625 -2.3125 C 4.0625 -1.5 4.15625 -0.984375 4.34375 -0.765625 C 4.53125 -0.546875 4.992188 -0.40625 5.734375 -0.34375 Z M 4.265625 -13.359375 C 4.265625 -13.035156 4.15625 -12.765625 3.9375 -12.546875 C 3.71875 -12.328125 3.441406 -12.21875 3.109375 -12.21875 C 2.785156 -12.21875 2.507812 -12.328125 2.28125 -12.546875 C 2.0625 -12.765625 1.953125 -13.035156 1.953125 -13.359375 C 1.953125 -13.679688 2.0625 -13.953125 2.28125 -14.171875 C 2.507812 -14.398438 2.785156 -14.515625 3.109375 -14.515625 C 3.441406 -14.515625 3.71875 -14.398438 3.9375 -14.171875 C 4.15625 -13.953125 4.265625 -13.679688 4.265625 -13.359375 Z M 4.265625 -13.359375 "/></g></g><g style="fill:#000000;fill-opacity:1;"><g transform="translate(40.517946, 254.801724)"><path style="stroke:none" d="M 17.5625 0 L 12.59375 0 L 12.59375 -0.34375 C 13.257812 -0.414062 13.675781 -0.539062 13.84375 -0.71875 C 14.007812 -0.90625 14.09375 -1.320312 14.09375 -1.96875 L 14.09375 -6.75 C 14.09375 -7.6875 13.96875 -8.335938 13.71875 -8.703125 C 13.476562 -9.066406 13.035156 -9.25 12.390625 -9.25 C 11.390625 -9.25 10.566406 -8.785156 9.921875 -7.859375 L 9.921875 -2.15625 C 9.921875 -1.445312 10.03125 -0.96875 10.25 -0.71875 C 10.46875 -0.476562 10.898438 -0.351562 11.546875 -0.34375 L 11.546875 0 L 6.484375 0 L 6.484375 -0.34375 C 7.128906 -0.382812 7.546875 -0.503906 7.734375 -0.703125 C 7.921875 -0.898438 8.015625 -1.316406 8.015625 -1.953125 L 8.015625 -6.859375 C 8.015625 -8.453125 7.519531 -9.25 6.53125 -9.25 C 6.132812 -9.25 5.71875 -9.160156 5.28125 -8.984375 C 4.84375 -8.804688 4.476562 -8.59375 4.1875 -8.34375 L 3.84375 -7.90625 L 3.84375 -1.515625 C 3.84375 -1.078125 3.945312 -0.78125 4.15625 -0.625 C 4.375 -0.46875 4.785156 -0.375 5.390625 -0.34375 L 5.390625 0 L 0.359375 0 L 0.359375 -0.34375 C 0.992188 -0.351562 1.414062 -0.460938 1.625 -0.671875 C 1.84375 -0.890625 1.953125 -1.304688 1.953125 -1.921875 L 1.953125 -7.65625 C 1.953125 -8.195312 1.894531 -8.570312 1.78125 -8.78125 C 1.664062 -9 1.457031 -9.109375 1.15625 -9.109375 C 0.925781 -9.109375 0.6875 -9.078125 0.4375 -9.015625 L 0.4375 -9.40625 C 1.519531 -9.707031 2.578125 -10.046875 3.609375 -10.421875 L 3.765625 -10.375 L 3.765625 -8.671875 C 4.703125 -9.378906 5.394531 -9.847656 5.84375 -10.078125 C 6.300781 -10.304688 6.773438 -10.421875 7.265625 -10.421875 C 8.460938 -10.421875 9.265625 -9.785156 9.671875 -8.515625 C 10.847656 -9.785156 12.078125 -10.421875 13.359375 -10.421875 C 15.117188 -10.421875 16 -9.078125 16 -6.390625 L 16 -1.71875 C 16 -0.875 16.320312 -0.429688 16.96875 -0.390625 L 17.5625 -0.34375 Z M 17.5625 0 "/></g></g><g style="fill:#000000;fill-opacity:1;"><g transform="translate(58.144339, 254.801724)"><path style="stroke:none" d="M 3.015625 -14.40625 C 3.015625 -13.707031 2.828125 -12.460938 2.453125 -10.671875 L 2.28125 -9.765625 L 1.8125 -9.765625 C 1.332031 -12.316406 1.09375 -13.859375 1.09375 -14.390625 C 1.09375 -14.640625 1.1875 -14.851562 1.375 -15.03125 C 1.5625 -15.21875 1.789062 -15.3125 2.0625 -15.3125 C 2.320312 -15.3125 2.546875 -15.21875 2.734375 -15.03125 C 2.921875 -14.851562 3.015625 -14.644531 3.015625 -14.40625 Z M 3.015625 -14.40625 "/></g></g><g style="fill:#000000;fill-opacity:1;"><g transform="translate(62.222422, 254.801724)"><path style="stroke:none" d="M 7.890625 -2.671875 C 7.890625 -1.890625 7.570312 -1.210938 6.9375 -0.640625 C 6.3125 -0.0664062 5.570312 0.21875 4.71875 0.21875 C 4.300781 0.21875 3.738281 0.144531 3.03125 0 C 2.550781 -0.125 2.207031 -0.1875 2 -0.1875 C 1.769531 -0.1875 1.59375 -0.09375 1.46875 0.09375 L 1.171875 0.09375 L 1.171875 -3.4375 L 1.546875 -3.4375 C 1.796875 -2.289062 2.140625 -1.472656 2.578125 -0.984375 C 3.015625 -0.503906 3.628906 -0.265625 4.421875 -0.265625 C 4.992188 -0.265625 5.445312 -0.410156 5.78125 -0.703125 C 6.125 -1.003906 6.296875 -1.40625 6.296875 -1.90625 C 6.296875 -2.582031 5.90625 -3.148438 5.125 -3.609375 L 3.8125 -4.34375 C 2.84375 -4.90625 2.15625 -5.429688 1.75 -5.921875 C 1.351562 -6.410156 1.15625 -6.972656 1.15625 -7.609375 C 1.15625 -8.441406 1.445312 -9.113281 2.03125 -9.625 C 2.613281 -10.144531 3.363281 -10.40625 4.28125 -10.40625 C 4.84375 -10.40625 5.359375 -10.3125 5.828125 -10.125 C 6.046875 -10.019531 6.25 -9.96875 6.4375 -9.96875 C 6.5 -9.96875 6.601562 -10.03125 6.75 -10.15625 L 6.796875 -10.1875 L 7.046875 -10.1875 L 7.140625 -7.109375 L 6.796875 -7.109375 C 6.535156 -8.117188 6.21875 -8.835938 5.84375 -9.265625 C 5.46875 -9.691406 4.953125 -9.90625 4.296875 -9.90625 C 3.773438 -9.90625 3.351562 -9.765625 3.03125 -9.484375 C 2.71875 -9.203125 2.5625 -8.828125 2.5625 -8.359375 C 2.5625 -7.710938 2.882812 -7.195312 3.53125 -6.8125 L 5.984375 -5.375 C 6.671875 -4.957031 7.160156 -4.546875 7.453125 -4.140625 C 7.742188 -3.734375 7.890625 -3.242188 7.890625 -2.671875 Z M 7.890625 -2.671875 "/></g></g><g style="fill:#000000;fill-opacity:1;"><g transform="translate(71.035618, 254.801724)"><path style="stroke:none" d=""/></g></g><g style="fill:#000000;fill-opacity:1;"><g transform="translate(76.699635, 254.801724)"><path style="stroke:none" d="M 7.59375 -9.21875 C 7.59375 -8.90625 7.507812 -8.65625 7.34375 -8.46875 C 7.1875 -8.289062 6.972656 -8.203125 6.703125 -8.203125 C 6.453125 -8.203125 6.148438 -8.351562 5.796875 -8.65625 C 5.554688 -8.882812 5.359375 -9 5.203125 -9 C 4.898438 -9 4.5625 -8.78125 4.1875 -8.34375 C 3.8125 -7.90625 3.625 -7.503906 3.625 -7.140625 L 3.625 -2.03125 C 3.625 -1.382812 3.75 -0.945312 4 -0.71875 C 4.257812 -0.5 4.773438 -0.375 5.546875 -0.34375 L 5.546875 0 L 0.109375 0 L 0.109375 -0.34375 C 0.835938 -0.476562 1.285156 -0.628906 1.453125 -0.796875 C 1.628906 -0.960938 1.71875 -1.332031 1.71875 -1.90625 L 1.71875 -7.5625 C 1.71875 -8.0625 1.660156 -8.410156 1.546875 -8.609375 C 1.429688 -8.816406 1.234375 -8.921875 0.953125 -8.921875 C 0.710938 -8.921875 0.445312 -8.890625 0.15625 -8.828125 L 0.15625 -9.203125 C 1.363281 -9.585938 2.484375 -9.992188 3.515625 -10.421875 L 3.625 -10.375 L 3.625 -8.296875 C 4.1875 -9.097656 4.660156 -9.648438 5.046875 -9.953125 C 5.441406 -10.265625 5.875 -10.421875 6.34375 -10.421875 C 6.738281 -10.421875 7.046875 -10.3125 7.265625 -10.09375 C 7.484375 -9.882812 7.59375 -9.59375 7.59375 -9.21875 Z M 7.59375 -9.21875 "/></g></g><g style="fill:#000000;fill-opacity:1;"><g transform="translate(84.244102, 254.801724)"><path style="stroke:none" d="M 9.609375 -3.5625 C 8.628906 -1.039062 7.023438 0.21875 4.796875 0.21875 C 3.503906 0.21875 2.472656 -0.234375 1.703125 -1.140625 C 0.941406 -2.054688 0.5625 -3.289062 0.5625 -4.84375 C 0.5625 -6.488281 1 -7.828125 1.875 -8.859375 C 2.75 -9.898438 3.890625 -10.421875 5.296875 -10.421875 C 6.503906 -10.421875 7.472656 -9.988281 8.203125 -9.125 C 8.703125 -8.488281 9.023438 -7.539062 9.171875 -6.28125 L 2.203125 -6.28125 C 2.242188 -4.988281 2.46875 -3.945312 2.875 -3.15625 C 3.519531 -1.945312 4.472656 -1.34375 5.734375 -1.34375 C 6.453125 -1.34375 7.078125 -1.519531 7.609375 -1.875 C 8.148438 -2.238281 8.695312 -2.851562 9.25 -3.71875 Z M 6.859375 -7 C 6.710938 -7.976562 6.476562 -8.65625 6.15625 -9.03125 C 5.84375 -9.414062 5.335938 -9.609375 4.640625 -9.609375 C 3.285156 -9.609375 2.488281 -8.738281 2.25 -7 Z M 6.859375 -7 "/></g></g><g style="fill:#000000;fill-opacity:1;"><g transform="translate(94.303384, 254.801724)"><path style="stroke:none" d="M 7.890625 -2.671875 C 7.890625 -1.890625 7.570312 -1.210938 6.9375 -0.640625 C 6.3125 -0.0664062 5.570312 0.21875 4.71875 0.21875 C 4.300781 0.21875 3.738281 0.144531 3.03125 0 C 2.550781 -0.125 2.207031 -0.1875 2 -0.1875 C 1.769531 -0.1875 1.59375 -0.09375 1.46875 0.09375 L 1.171875 0.09375 L 1.171875 -3.4375 L 1.546875 -3.4375 C 1.796875 -2.289062 2.140625 -1.472656 2.578125 -0.984375 C 3.015625 -0.503906 3.628906 -0.265625 4.421875 -0.265625 C 4.992188 -0.265625 5.445312 -0.410156 5.78125 -0.703125 C 6.125 -1.003906 6.296875 -1.40625 6.296875 -1.90625 C 6.296875 -2.582031 5.90625 -3.148438 5.125 -3.609375 L 3.8125 -4.34375 C 2.84375 -4.90625 2.15625 -5.429688 1.75 -5.921875 C 1.351562 -6.410156 1.15625 -6.972656 1.15625 -7.609375 C 1.15625 -8.441406 1.445312 -9.113281 2.03125 -9.625 C 2.613281 -10.144531 3.363281 -10.40625 4.28125 -10.40625 C 4.84375 -10.40625 5.359375 -10.3125 5.828125 -10.125 C 6.046875 -10.019531 6.25 -9.96875 6.4375 -9.96875 C 6.5 -9.96875 6.601562 -10.03125 6.75 -10.15625 L 6.796875 -10.1875 L 7.046875 -10.1875 L 7.140625 -7.109375 L 6.796875 -7.109375 C 6.535156 -8.117188 6.21875 -8.835938 5.84375 -9.265625 C 5.46875 -9.691406 4.953125 -9.90625 4.296875 -9.90625 C 3.773438 -9.90625 3.351562 -9.765625 3.03125 -9.484375 C 2.71875 -9.203125 2.5625 -8.828125 2.5625 -8.359375 C 2.5625 -7.710938 2.882812 -7.195312 3.53125 -6.8125 L 5.984375 -5.375 C 6.671875 -4.957031 7.160156 -4.546875 7.453125 -4.140625 C 7.742188 -3.734375 7.890625 -3.242188 7.890625 -2.671875 Z M 7.890625 -2.671875 "/></g></g><g style="fill:#000000;fill-opacity:1;"><g transform="translate(103.11658, 254.801724)"><path style="stroke:none" d="M 9.609375 -3.5625 C 8.628906 -1.039062 7.023438 0.21875 4.796875 0.21875 C 3.503906 0.21875 2.472656 -0.234375 1.703125 -1.140625 C 0.941406 -2.054688 0.5625 -3.289062 0.5625 -4.84375 C 0.5625 -6.488281 1 -7.828125 1.875 -8.859375 C 2.75 -9.898438 3.890625 -10.421875 5.296875 -10.421875 C 6.503906 -10.421875 7.472656 -9.988281 8.203125 -9.125 C 8.703125 -8.488281 9.023438 -7.539062 9.171875 -6.28125 L 2.203125 -6.28125 C 2.242188 -4.988281 2.46875 -3.945312 2.875 -3.15625 C 3.519531 -1.945312 4.472656 -1.34375 5.734375 -1.34375 C 6.453125 -1.34375 7.078125 -1.519531 7.609375 -1.875 C 8.148438 -2.238281 8.695312 -2.851562 9.25 -3.71875 Z M 6.859375 -7 C 6.710938 -7.976562 6.476562 -8.65625 6.15625 -9.03125 C 5.84375 -9.414062 5.335938 -9.609375 4.640625 -9.609375 C 3.285156 -9.609375 2.488281 -8.738281 2.25 -7 Z M 6.859375 -7 "/></g></g><g style="fill:#000000;fill-opacity:1;"><g transform="translate(113.175862, 254.801724)"><path style="stroke:none" d="M 10.015625 -0.90625 C 9.617188 -0.46875 9.273438 -0.171875 8.984375 -0.015625 C 8.691406 0.140625 8.351562 0.21875 7.96875 0.21875 C 7.5 0.21875 7.15625 0.0976562 6.9375 -0.140625 C 6.71875 -0.390625 6.582031 -0.816406 6.53125 -1.421875 C 5.226562 -0.328125 4.125 0.21875 3.21875 0.21875 C 2.519531 0.21875 1.945312 -0.00390625 1.5 -0.453125 C 1.0625 -0.898438 0.84375 -1.484375 0.84375 -2.203125 C 0.84375 -3.015625 1.113281 -3.671875 1.65625 -4.171875 C 2.132812 -4.585938 2.617188 -4.921875 3.109375 -5.171875 C 3.597656 -5.421875 4.726562 -5.898438 6.5 -6.609375 L 6.5 -8 C 6.5 -9.25 5.925781 -9.875 4.78125 -9.875 C 4.320312 -9.875 3.9375 -9.765625 3.625 -9.546875 C 3.3125 -9.328125 3.15625 -9.066406 3.15625 -8.765625 C 3.15625 -8.597656 3.175781 -8.414062 3.21875 -8.21875 C 3.25 -8.007812 3.265625 -7.890625 3.265625 -7.859375 C 3.265625 -7.597656 3.160156 -7.375 2.953125 -7.1875 C 2.753906 -7 2.515625 -6.90625 2.234375 -6.90625 C 1.960938 -6.90625 1.734375 -7.003906 1.546875 -7.203125 C 1.359375 -7.398438 1.265625 -7.628906 1.265625 -7.890625 C 1.265625 -8.503906 1.578125 -9.066406 2.203125 -9.578125 C 2.878906 -10.140625 3.835938 -10.421875 5.078125 -10.421875 C 6.484375 -10.421875 7.425781 -9.984375 7.90625 -9.109375 C 8.195312 -8.640625 8.34375 -7.867188 8.34375 -6.796875 L 8.34375 -2.375 C 8.34375 -1.875 8.390625 -1.53125 8.484375 -1.34375 C 8.578125 -1.15625 8.753906 -1.0625 9.015625 -1.0625 C 9.335938 -1.0625 9.671875 -1.207031 10.015625 -1.5 Z M 6.5 -2.78125 L 6.5 -6.078125 C 5.144531 -5.578125 4.191406 -5.09375 3.640625 -4.625 C 3.097656 -4.15625 2.828125 -3.585938 2.828125 -2.921875 L 2.828125 -2.828125 C 2.828125 -2.347656 2.96875 -1.9375 3.25 -1.59375 C 3.53125 -1.257812 3.867188 -1.09375 4.265625 -1.09375 C 4.785156 -1.09375 5.332031 -1.253906 5.90625 -1.578125 C 6.15625 -1.734375 6.316406 -1.882812 6.390625 -2.03125 C 6.460938 -2.1875 6.5 -2.4375 6.5 -2.78125 Z M 6.5 -2.78125 "/></g></g><g style="fill:#000000;fill-opacity:1;"><g transform="translate(123.235144, 254.801724)"><path style="stroke:none" d="M 7.59375 -9.21875 C 7.59375 -8.90625 7.507812 -8.65625 7.34375 -8.46875 C 7.1875 -8.289062 6.972656 -8.203125 6.703125 -8.203125 C 6.453125 -8.203125 6.148438 -8.351562 5.796875 -8.65625 C 5.554688 -8.882812 5.359375 -9 5.203125 -9 C 4.898438 -9 4.5625 -8.78125 4.1875 -8.34375 C 3.8125 -7.90625 3.625 -7.503906 3.625 -7.140625 L 3.625 -2.03125 C 3.625 -1.382812 3.75 -0.945312 4 -0.71875 C 4.257812 -0.5 4.773438 -0.375 5.546875 -0.34375 L 5.546875 0 L 0.109375 0 L 0.109375 -0.34375 C 0.835938 -0.476562 1.285156 -0.628906 1.453125 -0.796875 C 1.628906 -0.960938 1.71875 -1.332031 1.71875 -1.90625 L 1.71875 -7.5625 C 1.71875 -8.0625 1.660156 -8.410156 1.546875 -8.609375 C 1.429688 -8.816406 1.234375 -8.921875 0.953125 -8.921875 C 0.710938 -8.921875 0.445312 -8.890625 0.15625 -8.828125 L 0.15625 -9.203125 C 1.363281 -9.585938 2.484375 -9.992188 3.515625 -10.421875 L 3.625 -10.375 L 3.625 -8.296875 C 4.1875 -9.097656 4.660156 -9.648438 5.046875 -9.953125 C 5.441406 -10.265625 5.875 -10.421875 6.34375 -10.421875 C 6.738281 -10.421875 7.046875 -10.3125 7.265625 -10.09375 C 7.484375 -9.882812 7.59375 -9.59375 7.59375 -9.21875 Z M 7.59375 -9.21875 "/></g></g><g style="fill:#000000;fill-opacity:1;"><g transform="translate(130.779611, 254.801724)"><path style="stroke:none" d="M 9.328125 -3.328125 C 8.679688 -2.054688 8.0625 -1.1875 7.46875 -0.71875 C 6.707031 -0.09375 5.84375 0.21875 4.875 0.21875 C 3.613281 0.21875 2.578125 -0.25 1.765625 -1.1875 C 0.960938 -2.132812 0.5625 -3.335938 0.5625 -4.796875 C 0.5625 -6.722656 1.195312 -8.210938 2.46875 -9.265625 C 3.40625 -10.035156 4.425781 -10.421875 5.53125 -10.421875 C 6.476562 -10.421875 7.296875 -10.191406 7.984375 -9.734375 C 8.671875 -9.273438 9.015625 -8.726562 9.015625 -8.09375 C 9.015625 -7.832031 8.90625 -7.609375 8.6875 -7.421875 C 8.476562 -7.234375 8.234375 -7.140625 7.953125 -7.140625 C 7.421875 -7.140625 7.054688 -7.484375 6.859375 -8.171875 L 6.734375 -8.671875 C 6.609375 -9.097656 6.453125 -9.382812 6.265625 -9.53125 C 6.085938 -9.6875 5.796875 -9.765625 5.390625 -9.765625 C 4.472656 -9.765625 3.726562 -9.398438 3.15625 -8.671875 C 2.59375 -7.953125 2.3125 -7.003906 2.3125 -5.828125 C 2.3125 -4.523438 2.632812 -3.460938 3.28125 -2.640625 C 3.9375 -1.816406 4.785156 -1.40625 5.828125 -1.40625 C 6.472656 -1.40625 7.03125 -1.554688 7.5 -1.859375 C 7.96875 -2.171875 8.472656 -2.726562 9.015625 -3.53125 Z M 9.328125 -3.328125 "/></g></g><g style="fill:#000000;fill-opacity:1;"><g transform="translate(140.838893, 254.801724)"><path style="stroke:none" d="M 11.03125 0 L 6.234375 0 L 6.234375 -0.34375 C 6.878906 -0.40625 7.296875 -0.554688 7.484375 -0.796875 C 7.671875 -1.035156 7.765625 -1.539062 7.765625 -2.3125 L 7.765625 -6.796875 C 7.765625 -8.398438 7.203125 -9.203125 6.078125 -9.203125 C 5.640625 -9.203125 5.226562 -9.09375 4.84375 -8.875 C 4.457031 -8.65625 4.03125 -8.285156 3.5625 -7.765625 L 3.5625 -2.3125 C 3.5625 -1.519531 3.648438 -1.007812 3.828125 -0.78125 C 4.003906 -0.5625 4.425781 -0.414062 5.09375 -0.34375 L 5.09375 0 L 0.203125 0 L 0.203125 -0.34375 C 0.847656 -0.425781 1.25 -0.570312 1.40625 -0.78125 C 1.570312 -1 1.65625 -1.507812 1.65625 -2.3125 L 1.65625 -12.984375 C 1.65625 -13.460938 1.582031 -13.773438 1.4375 -13.921875 C 1.289062 -14.066406 0.976562 -14.140625 0.5 -14.140625 C 0.375 -14.140625 0.28125 -14.128906 0.21875 -14.109375 L 0.21875 -14.484375 L 0.84375 -14.65625 C 1.863281 -14.945312 2.726562 -15.21875 3.4375 -15.46875 L 3.5625 -15.40625 L 3.5625 -8.515625 C 4.082031 -9.191406 4.597656 -9.675781 5.109375 -9.96875 C 5.628906 -10.269531 6.222656 -10.421875 6.890625 -10.421875 C 8.742188 -10.421875 9.671875 -9.21875 9.671875 -6.8125 L 9.671875 -2.3125 C 9.671875 -1.519531 9.742188 -1.019531 9.890625 -0.8125 C 10.035156 -0.613281 10.414062 -0.457031 11.03125 -0.34375 Z M 11.03125 0 "/></g></g><g style="fill:#000000;fill-opacity:1;"><g transform="translate(152.166904, 254.801724)"><path style="stroke:none" d=""/></g></g><g style="fill:#000000;fill-opacity:1;"><g transform="translate(157.830921, 254.801724)"><path style="stroke:none" d="M 15.71875 -9.859375 C 15.5 -9.773438 15.34375 -9.671875 15.25 -9.546875 C 15.15625 -9.421875 15.003906 -9.113281 14.796875 -8.625 L 11.671875 -0.796875 C 11.367188 -0.0546875 11.15625 0.3125 11.03125 0.3125 C 10.914062 0.3125 10.734375 -0.0078125 10.484375 -0.65625 L 8.421875 -6 L 5.890625 -0.5625 C 5.617188 0.0195312 5.429688 0.3125 5.328125 0.3125 C 5.203125 0.3125 5.003906 -0.015625 4.734375 -0.671875 L 1.671875 -8.421875 C 1.421875 -8.992188 1.222656 -9.367188 1.078125 -9.546875 C 0.929688 -9.734375 0.726562 -9.835938 0.46875 -9.859375 L 0.46875 -10.1875 L 4.546875 -10.1875 L 4.546875 -9.859375 C 4.160156 -9.804688 3.890625 -9.726562 3.734375 -9.625 C 3.585938 -9.519531 3.515625 -9.347656 3.515625 -9.109375 C 3.515625 -8.878906 3.554688 -8.648438 3.640625 -8.421875 L 5.890625 -2.515625 L 7.953125 -7.015625 L 7.5 -8.296875 C 7.269531 -8.898438 7.054688 -9.296875 6.859375 -9.484375 C 6.660156 -9.679688 6.351562 -9.804688 5.9375 -9.859375 L 5.9375 -10.1875 L 10.53125 -10.1875 L 10.53125 -9.859375 C 10 -9.773438 9.644531 -9.679688 9.46875 -9.578125 C 9.300781 -9.472656 9.21875 -9.296875 9.21875 -9.046875 C 9.21875 -8.847656 9.347656 -8.398438 9.609375 -7.703125 L 11.515625 -2.625 L 13.546875 -7.65625 C 13.804688 -8.289062 13.9375 -8.789062 13.9375 -9.15625 C 13.9375 -9.351562 13.867188 -9.5 13.734375 -9.59375 C 13.597656 -9.6875 13.332031 -9.773438 12.9375 -9.859375 L 12.9375 -10.1875 L 15.71875 -10.1875 Z M 15.71875 -9.859375 "/></g></g><g style="fill:#000000;fill-opacity:1;"><g transform="translate(174.188562, 254.801724)"><path style="stroke:none" d="M 5.734375 0 L 0.359375 0 L 0.359375 -0.34375 C 1.148438 -0.382812 1.644531 -0.519531 1.84375 -0.75 C 2.050781 -0.976562 2.15625 -1.5 2.15625 -2.3125 L 2.15625 -7.5625 C 2.15625 -8.0625 2.097656 -8.410156 1.984375 -8.609375 C 1.867188 -8.816406 1.675781 -8.921875 1.40625 -8.921875 C 1.164062 -8.921875 0.910156 -8.898438 0.640625 -8.859375 L 0.453125 -8.828125 L 0.453125 -9.171875 L 3.96875 -10.421875 L 4.0625 -10.359375 L 4.0625 -2.3125 C 4.0625 -1.5 4.15625 -0.984375 4.34375 -0.765625 C 4.53125 -0.546875 4.992188 -0.40625 5.734375 -0.34375 Z M 4.265625 -13.359375 C 4.265625 -13.035156 4.15625 -12.765625 3.9375 -12.546875 C 3.71875 -12.328125 3.441406 -12.21875 3.109375 -12.21875 C 2.785156 -12.21875 2.507812 -12.328125 2.28125 -12.546875 C 2.0625 -12.765625 1.953125 -13.035156 1.953125 -13.359375 C 1.953125 -13.679688 2.0625 -13.953125 2.28125 -14.171875 C 2.507812 -14.398438 2.785156 -14.515625 3.109375 -14.515625 C 3.441406 -14.515625 3.71875 -14.398438 3.9375 -14.171875 C 4.15625 -13.953125 4.265625 -13.679688 4.265625 -13.359375 Z M 4.265625 -13.359375 "/></g></g><g style="fill:#000000;fill-opacity:1;"><g transform="translate(180.486943, 254.801724)"><path style="stroke:none" d="M 6.328125 -1.5 C 5.597656 -0.351562 4.679688 0.21875 3.578125 0.21875 C 2.242188 0.21875 1.578125 -0.738281 1.578125 -2.65625 L 1.578125 -9.46875 L 0.390625 -9.46875 C 0.328125 -9.507812 0.296875 -9.5625 0.296875 -9.625 C 0.296875 -9.75 0.421875 -9.894531 0.671875 -10.0625 C 1.296875 -10.425781 2.03125 -11.234375 2.875 -12.484375 C 3.082031 -12.753906 3.234375 -12.96875 3.328125 -13.125 C 3.429688 -13.125 3.484375 -13.023438 3.484375 -12.828125 L 3.484375 -10.1875 L 5.78125 -10.1875 L 5.78125 -9.46875 L 3.484375 -9.46875 L 3.484375 -2.984375 C 3.484375 -2.265625 3.570312 -1.742188 3.75 -1.421875 C 3.9375 -1.109375 4.242188 -0.953125 4.671875 -0.953125 C 5.117188 -0.953125 5.570312 -1.21875 6.03125 -1.75 Z M 6.328125 -1.5 "/></g></g><g style="fill:#000000;fill-opacity:1;"><g transform="translate(186.785324, 254.801724)"><path style="stroke:none" d="M 11.03125 0 L 6.234375 0 L 6.234375 -0.34375 C 6.878906 -0.40625 7.296875 -0.554688 7.484375 -0.796875 C 7.671875 -1.035156 7.765625 -1.539062 7.765625 -2.3125 L 7.765625 -6.796875 C 7.765625 -8.398438 7.203125 -9.203125 6.078125 -9.203125 C 5.640625 -9.203125 5.226562 -9.09375 4.84375 -8.875 C 4.457031 -8.65625 4.03125 -8.285156 3.5625 -7.765625 L 3.5625 -2.3125 C 3.5625 -1.519531 3.648438 -1.007812 3.828125 -0.78125 C 4.003906 -0.5625 4.425781 -0.414062 5.09375 -0.34375 L 5.09375 0 L 0.203125 0 L 0.203125 -0.34375 C 0.847656 -0.425781 1.25 -0.570312 1.40625 -0.78125 C 1.570312 -1 1.65625 -1.507812 1.65625 -2.3125 L 1.65625 -12.984375 C 1.65625 -13.460938 1.582031 -13.773438 1.4375 -13.921875 C 1.289062 -14.066406 0.976562 -14.140625 0.5 -14.140625 C 0.375 -14.140625 0.28125 -14.128906 0.21875 -14.109375 L 0.21875 -14.484375 L 0.84375 -14.65625 C 1.863281 -14.945312 2.726562 -15.21875 3.4375 -15.46875 L 3.5625 -15.40625 L 3.5625 -8.515625 C 4.082031 -9.191406 4.597656 -9.675781 5.109375 -9.96875 C 5.628906 -10.269531 6.222656 -10.421875 6.890625 -10.421875 C 8.742188 -10.421875 9.671875 -9.21875 9.671875 -6.8125 L 9.671875 -2.3125 C 9.671875 -1.519531 9.742188 -1.019531 9.890625 -0.8125 C 10.035156 -0.613281 10.414062 -0.457031 11.03125 -0.34375 Z M 11.03125 0 "/></g></g><g style="fill:#000000;fill-opacity:1;"><g transform="translate(198.113336, 254.801724)"><path style="stroke:none" d=""/></g></g><g style="fill:#000000;fill-opacity:1;"><g transform="translate(203.777352, 254.801724)"><path style="stroke:none" d="M 15.96875 -14.5625 C 15.03125 -14.445312 14.441406 -14.222656 14.203125 -13.890625 C 13.960938 -13.554688 13.84375 -12.816406 13.84375 -11.671875 L 13.84375 -5.75 C 13.84375 -4.132812 13.59375 -2.890625 13.09375 -2.015625 C 12.207031 -0.460938 10.523438 0.3125 8.046875 0.3125 C 6.109375 0.3125 4.675781 -0.15625 3.75 -1.09375 C 2.820312 -2.039062 2.359375 -3.492188 2.359375 -5.453125 L 2.359375 -12.53125 C 2.359375 -13.363281 2.238281 -13.890625 2 -14.109375 C 1.769531 -14.335938 1.207031 -14.488281 0.3125 -14.5625 L 0.3125 -15 L 6.734375 -15 L 6.734375 -14.5625 C 5.828125 -14.488281 5.253906 -14.332031 5.015625 -14.09375 C 4.785156 -13.863281 4.671875 -13.34375 4.671875 -12.53125 L 4.671875 -5.28125 C 4.671875 -3.945312 4.859375 -2.945312 5.234375 -2.28125 C 5.847656 -1.207031 6.957031 -0.671875 8.5625 -0.671875 C 9.40625 -0.671875 10.164062 -0.832031 10.84375 -1.15625 C 11.53125 -1.488281 12.023438 -1.925781 12.328125 -2.46875 C 12.671875 -3.113281 12.84375 -4.140625 12.84375 -5.546875 L 12.84375 -11.671875 C 12.84375 -12.796875 12.707031 -13.546875 12.4375 -13.921875 C 12.164062 -14.296875 11.59375 -14.507812 10.71875 -14.5625 L 10.71875 -15 L 15.96875 -15 Z M 15.96875 -14.5625 "/></g></g><g style="fill:#000000;fill-opacity:1;"><g transform="translate(220.134994, 254.801724)"><path style="stroke:none" d="M 10.859375 0 L 6.296875 0 L 6.296875 -0.34375 C 6.671875 -0.375 6.914062 -0.421875 7.03125 -0.484375 C 7.144531 -0.554688 7.203125 -0.691406 7.203125 -0.890625 C 7.203125 -1.023438 7.15625 -1.160156 7.0625 -1.296875 L 5 -4.46875 L 3.21875 -1.671875 C 2.914062 -1.203125 2.765625 -0.894531 2.765625 -0.75 C 2.765625 -0.476562 3.066406 -0.34375 3.671875 -0.34375 L 3.671875 0 L 0.390625 0 L 0.390625 -0.34375 C 0.765625 -0.375 1.046875 -0.457031 1.234375 -0.59375 C 1.421875 -0.726562 1.6875 -1.03125 2.03125 -1.5 L 4.625 -5.234375 L 2.484375 -8.5 C 2.140625 -9.019531 1.847656 -9.375 1.609375 -9.5625 C 1.367188 -9.757812 1.082031 -9.859375 0.75 -9.859375 L 0.546875 -9.859375 L 0.546875 -10.1875 L 5.234375 -10.1875 L 5.234375 -9.859375 C 4.585938 -9.835938 4.265625 -9.671875 4.265625 -9.359375 C 4.265625 -9.054688 4.609375 -8.382812 5.296875 -7.34375 L 5.625 -6.890625 C 5.976562 -7.429688 6.203125 -7.765625 6.296875 -7.890625 C 6.859375 -8.578125 7.140625 -9.0625 7.140625 -9.34375 C 7.140625 -9.632812 6.835938 -9.804688 6.234375 -9.859375 L 6.234375 -10.1875 L 9.8125 -10.1875 L 9.8125 -9.859375 C 9.039062 -9.828125 8.425781 -9.492188 7.96875 -8.859375 L 6.09375 -6.140625 L 9 -1.703125 C 9.351562 -1.179688 9.660156 -0.820312 9.921875 -0.625 C 10.191406 -0.4375 10.503906 -0.34375 10.859375 -0.34375 Z M 10.859375 0 "/></g></g><g style="fill:#000000;fill-opacity:1;"><g transform="translate(231.463005, 254.801724)"><path style="stroke:none" d="M 11.125 -3.8125 C 11.125 -2.644531 10.679688 -1.664062 9.796875 -0.875 C 8.910156 -0.0820312 7.8125 0.3125 6.5 0.3125 C 5.59375 0.3125 4.703125 0.140625 3.828125 -0.203125 C 3.378906 -0.367188 3.023438 -0.453125 2.765625 -0.453125 C 2.597656 -0.453125 2.453125 -0.378906 2.328125 -0.234375 C 2.210938 -0.0859375 2.144531 0.0859375 2.125 0.296875 L 1.625 0.296875 L 0.953125 -4.515625 L 1.46875 -4.515625 C 2.039062 -3.117188 2.691406 -2.097656 3.421875 -1.453125 C 4.160156 -0.816406 5.035156 -0.5 6.046875 -0.5 C 6.878906 -0.5 7.550781 -0.734375 8.0625 -1.203125 C 8.570312 -1.671875 8.828125 -2.28125 8.828125 -3.03125 C 8.828125 -3.59375 8.722656 -4.039062 8.515625 -4.375 C 7.960938 -5.21875 6.835938 -6.097656 5.140625 -7.015625 C 3.867188 -7.679688 2.960938 -8.351562 2.421875 -9.03125 C 1.878906 -9.71875 1.609375 -10.515625 1.609375 -11.421875 C 1.609375 -12.660156 2.046875 -13.640625 2.921875 -14.359375 C 3.703125 -14.992188 4.554688 -15.3125 5.484375 -15.3125 C 6.234375 -15.3125 7.046875 -15.144531 7.921875 -14.8125 C 8.335938 -14.632812 8.671875 -14.546875 8.921875 -14.546875 C 9.316406 -14.546875 9.5625 -14.800781 9.65625 -15.3125 L 10.125 -15.3125 L 10.625 -10.484375 L 10.0625 -10.484375 C 9.757812 -11.617188 9.296875 -12.503906 8.671875 -13.140625 C 7.867188 -13.972656 6.945312 -14.390625 5.90625 -14.390625 C 5.195312 -14.390625 4.628906 -14.195312 4.203125 -13.8125 C 3.773438 -13.425781 3.5625 -12.921875 3.5625 -12.296875 C 3.5625 -11.679688 3.816406 -11.097656 4.328125 -10.546875 C 4.835938 -10.003906 5.691406 -9.410156 6.890625 -8.765625 C 8.378906 -7.953125 9.457031 -7.15625 10.125 -6.375 C 10.789062 -5.59375 11.125 -4.738281 11.125 -3.8125 Z M 11.125 -3.8125 "/></g></g><g style="fill:#000000;fill-opacity:1;"><g transform="translate(20.826498, 285.953696)"><path style="stroke:none" d="M 10.640625 -8.796875 L 8.765625 -8.796875 C 9.054688 -8.140625 9.203125 -7.503906 9.203125 -6.890625 C 9.203125 -5.796875 8.835938 -4.941406 8.109375 -4.328125 C 7.378906 -3.691406 6.5625 -3.375 5.65625 -3.375 C 5.507812 -3.375 5.222656 -3.394531 4.796875 -3.4375 C 4.785156 -3.4375 4.644531 -3.453125 4.375 -3.484375 C 4.070312 -3.398438 3.769531 -3.195312 3.46875 -2.875 C 3.164062 -2.5625 3.015625 -2.289062 3.015625 -2.0625 C 3.015625 -1.695312 3.601562 -1.492188 4.78125 -1.453125 L 7.703125 -1.3125 C 8.535156 -1.28125 9.195312 -1.046875 9.6875 -0.609375 C 10.1875 -0.171875 10.4375 0.398438 10.4375 1.109375 C 10.4375 1.953125 10.023438 2.710938 9.203125 3.390625 C 7.929688 4.421875 6.378906 4.9375 4.546875 4.9375 C 3.472656 4.9375 2.550781 4.71875 1.78125 4.28125 C 1.019531 3.851562 0.640625 3.335938 0.640625 2.734375 C 0.640625 2.316406 0.804688 1.898438 1.140625 1.484375 C 1.484375 1.066406 2.054688 0.566406 2.859375 -0.015625 C 2.390625 -0.242188 2.070312 -0.441406 1.90625 -0.609375 C 1.738281 -0.773438 1.65625 -0.976562 1.65625 -1.21875 C 1.65625 -1.65625 2.003906 -2.175781 2.703125 -2.78125 L 3.671875 -3.6875 C 2.910156 -4.070312 2.367188 -4.492188 2.046875 -4.953125 C 1.722656 -5.421875 1.5625 -6.015625 1.5625 -6.734375 C 1.5625 -7.753906 1.925781 -8.625 2.65625 -9.34375 C 3.394531 -10.0625 4.289062 -10.421875 5.34375 -10.421875 C 5.945312 -10.421875 6.550781 -10.304688 7.15625 -10.078125 L 7.65625 -9.90625 C 8.09375 -9.75 8.507812 -9.671875 8.90625 -9.671875 L 10.640625 -9.671875 Z M 9.8125 1.453125 C 9.8125 1.046875 9.597656 0.757812 9.171875 0.59375 C 8.753906 0.425781 8.03125 0.34375 7 0.34375 C 5.476562 0.34375 4.253906 0.242188 3.328125 0.046875 C 2.859375 0.609375 2.554688 1.007812 2.421875 1.25 C 2.285156 1.488281 2.21875 1.738281 2.21875 2 C 2.21875 2.488281 2.519531 2.882812 3.125 3.1875 C 3.726562 3.488281 4.53125 3.640625 5.53125 3.640625 C 6.8125 3.640625 7.84375 3.4375 8.625 3.03125 C 9.414062 2.625 9.8125 2.097656 9.8125 1.453125 Z M 7.453125 -6 C 7.453125 -6.9375 7.226562 -7.84375 6.78125 -8.71875 C 6.394531 -9.425781 5.84375 -9.78125 5.125 -9.78125 C 4.59375 -9.78125 4.175781 -9.59375 3.875 -9.21875 C 3.582031 -8.84375 3.4375 -8.320312 3.4375 -7.65625 L 3.4375 -7.59375 C 3.4375 -6.5 3.648438 -5.613281 4.078125 -4.9375 C 4.515625 -4.269531 5.070312 -3.9375 5.75 -3.9375 C 6.28125 -3.9375 6.695312 -4.117188 7 -4.484375 C 7.300781 -4.859375 7.453125 -5.363281 7.453125 -6 Z M 7.453125 -6 "/></g></g><g style="fill:#000000;fill-opacity:1;"><g transform="translate(32.154509, 285.953696)"><path style="stroke:none" d="M 10.640625 -5.296875 C 10.640625 -3.722656 10.15625 -2.410156 9.1875 -1.359375 C 8.226562 -0.304688 7.035156 0.21875 5.609375 0.21875 C 4.191406 0.21875 3.007812 -0.285156 2.0625 -1.296875 C 1.125 -2.316406 0.65625 -3.59375 0.65625 -5.125 C 0.65625 -6.675781 1.117188 -7.945312 2.046875 -8.9375 C 2.972656 -9.925781 4.175781 -10.421875 5.65625 -10.421875 C 7.113281 -10.421875 8.304688 -9.9375 9.234375 -8.96875 C 10.171875 -8 10.640625 -6.773438 10.640625 -5.296875 Z M 8.609375 -4.515625 C 8.609375 -6.066406 8.304688 -7.332031 7.703125 -8.3125 C 7.097656 -9.289062 6.320312 -9.78125 5.375 -9.78125 C 4.570312 -9.78125 3.925781 -9.457031 3.4375 -8.8125 C 2.945312 -8.164062 2.703125 -7.304688 2.703125 -6.234375 C 2.703125 -4.554688 3.03125 -3.097656 3.6875 -1.859375 C 4.207031 -0.890625 4.941406 -0.40625 5.890625 -0.40625 C 6.734375 -0.40625 7.394531 -0.765625 7.875 -1.484375 C 8.363281 -2.210938 8.609375 -3.222656 8.609375 -4.515625 Z M 8.609375 -4.515625 "/></g></g><g style="fill:#000000;fill-opacity:1;"><g transform="translate(43.482521, 285.953696)"><path style="stroke:none" d="M 9.609375 -3.5625 C 8.628906 -1.039062 7.023438 0.21875 4.796875 0.21875 C 3.503906 0.21875 2.472656 -0.234375 1.703125 -1.140625 C 0.941406 -2.054688 0.5625 -3.289062 0.5625 -4.84375 C 0.5625 -6.488281 1 -7.828125 1.875 -8.859375 C 2.75 -9.898438 3.890625 -10.421875 5.296875 -10.421875 C 6.503906 -10.421875 7.472656 -9.988281 8.203125 -9.125 C 8.703125 -8.488281 9.023438 -7.539062 9.171875 -6.28125 L 2.203125 -6.28125 C 2.242188 -4.988281 2.46875 -3.945312 2.875 -3.15625 C 3.519531 -1.945312 4.472656 -1.34375 5.734375 -1.34375 C 6.453125 -1.34375 7.078125 -1.519531 7.609375 -1.875 C 8.148438 -2.238281 8.695312 -2.851562 9.25 -3.71875 Z M 6.859375 -7 C 6.710938 -7.976562 6.476562 -8.65625 6.15625 -9.03125 C 5.84375 -9.414062 5.335938 -9.609375 4.640625 -9.609375 C 3.285156 -9.609375 2.488281 -8.738281 2.25 -7 Z M 6.859375 -7 "/></g></g><g style="fill:#000000;fill-opacity:1;"><g transform="translate(53.541803, 285.953696)"><path style="stroke:none" d="M 7.890625 -2.671875 C 7.890625 -1.890625 7.570312 -1.210938 6.9375 -0.640625 C 6.3125 -0.0664062 5.570312 0.21875 4.71875 0.21875 C 4.300781 0.21875 3.738281 0.144531 3.03125 0 C 2.550781 -0.125 2.207031 -0.1875 2 -0.1875 C 1.769531 -0.1875 1.59375 -0.09375 1.46875 0.09375 L 1.171875 0.09375 L 1.171875 -3.4375 L 1.546875 -3.4375 C 1.796875 -2.289062 2.140625 -1.472656 2.578125 -0.984375 C 3.015625 -0.503906 3.628906 -0.265625 4.421875 -0.265625 C 4.992188 -0.265625 5.445312 -0.410156 5.78125 -0.703125 C 6.125 -1.003906 6.296875 -1.40625 6.296875 -1.90625 C 6.296875 -2.582031 5.90625 -3.148438 5.125 -3.609375 L 3.8125 -4.34375 C 2.84375 -4.90625 2.15625 -5.429688 1.75 -5.921875 C 1.351562 -6.410156 1.15625 -6.972656 1.15625 -7.609375 C 1.15625 -8.441406 1.445312 -9.113281 2.03125 -9.625 C 2.613281 -10.144531 3.363281 -10.40625 4.28125 -10.40625 C 4.84375 -10.40625 5.359375 -10.3125 5.828125 -10.125 C 6.046875 -10.019531 6.25 -9.96875 6.4375 -9.96875 C 6.5 -9.96875 6.601562 -10.03125 6.75 -10.15625 L 6.796875 -10.1875 L 7.046875 -10.1875 L 7.140625 -7.109375 L 6.796875 -7.109375 C 6.535156 -8.117188 6.21875 -8.835938 5.84375 -9.265625 C 5.46875 -9.691406 4.953125 -9.90625 4.296875 -9.90625 C 3.773438 -9.90625 3.351562 -9.765625 3.03125 -9.484375 C 2.71875 -9.203125 2.5625 -8.828125 2.5625 -8.359375 C 2.5625 -7.710938 2.882812 -7.195312 3.53125 -6.8125 L 5.984375 -5.375 C 6.671875 -4.957031 7.160156 -4.546875 7.453125 -4.140625 C 7.742188 -3.734375 7.890625 -3.242188 7.890625 -2.671875 Z M 7.890625 -2.671875 "/></g></g><g style="fill:#000000;fill-opacity:1;"><g transform="translate(62.354999, 285.953696)"><path style="stroke:none" d=""/></g></g><g style="fill:#000000;fill-opacity:1;"><g transform="translate(68.019016, 285.953696)"><path style="stroke:none" d="M 15.71875 -9.859375 C 15.5 -9.773438 15.34375 -9.671875 15.25 -9.546875 C 15.15625 -9.421875 15.003906 -9.113281 14.796875 -8.625 L 11.671875 -0.796875 C 11.367188 -0.0546875 11.15625 0.3125 11.03125 0.3125 C 10.914062 0.3125 10.734375 -0.0078125 10.484375 -0.65625 L 8.421875 -6 L 5.890625 -0.5625 C 5.617188 0.0195312 5.429688 0.3125 5.328125 0.3125 C 5.203125 0.3125 5.003906 -0.015625 4.734375 -0.671875 L 1.671875 -8.421875 C 1.421875 -8.992188 1.222656 -9.367188 1.078125 -9.546875 C 0.929688 -9.734375 0.726562 -9.835938 0.46875 -9.859375 L 0.46875 -10.1875 L 4.546875 -10.1875 L 4.546875 -9.859375 C 4.160156 -9.804688 3.890625 -9.726562 3.734375 -9.625 C 3.585938 -9.519531 3.515625 -9.347656 3.515625 -9.109375 C 3.515625 -8.878906 3.554688 -8.648438 3.640625 -8.421875 L 5.890625 -2.515625 L 7.953125 -7.015625 L 7.5 -8.296875 C 7.269531 -8.898438 7.054688 -9.296875 6.859375 -9.484375 C 6.660156 -9.679688 6.351562 -9.804688 5.9375 -9.859375 L 5.9375 -10.1875 L 10.53125 -10.1875 L 10.53125 -9.859375 C 10 -9.773438 9.644531 -9.679688 9.46875 -9.578125 C 9.300781 -9.472656 9.21875 -9.296875 9.21875 -9.046875 C 9.21875 -8.847656 9.347656 -8.398438 9.609375 -7.703125 L 11.515625 -2.625 L 13.546875 -7.65625 C 13.804688 -8.289062 13.9375 -8.789062 13.9375 -9.15625 C 13.9375 -9.351562 13.867188 -9.5 13.734375 -9.59375 C 13.597656 -9.6875 13.332031 -9.773438 12.9375 -9.859375 L 12.9375 -10.1875 L 15.71875 -10.1875 Z M 15.71875 -9.859375 "/></g></g><g style="fill:#000000;fill-opacity:1;"><g transform="translate(84.376657, 285.953696)"><path style="stroke:none" d="M 9.609375 -3.5625 C 8.628906 -1.039062 7.023438 0.21875 4.796875 0.21875 C 3.503906 0.21875 2.472656 -0.234375 1.703125 -1.140625 C 0.941406 -2.054688 0.5625 -3.289062 0.5625 -4.84375 C 0.5625 -6.488281 1 -7.828125 1.875 -8.859375 C 2.75 -9.898438 3.890625 -10.421875 5.296875 -10.421875 C 6.503906 -10.421875 7.472656 -9.988281 8.203125 -9.125 C 8.703125 -8.488281 9.023438 -7.539062 9.171875 -6.28125 L 2.203125 -6.28125 C 2.242188 -4.988281 2.46875 -3.945312 2.875 -3.15625 C 3.519531 -1.945312 4.472656 -1.34375 5.734375 -1.34375 C 6.453125 -1.34375 7.078125 -1.519531 7.609375 -1.875 C 8.148438 -2.238281 8.695312 -2.851562 9.25 -3.71875 Z M 6.859375 -7 C 6.710938 -7.976562 6.476562 -8.65625 6.15625 -9.03125 C 5.84375 -9.414062 5.335938 -9.609375 4.640625 -9.609375 C 3.285156 -9.609375 2.488281 -8.738281 2.25 -7 Z M 6.859375 -7 "/></g></g><g style="fill:#000000;fill-opacity:1;"><g transform="translate(94.435939, 285.953696)"><path style="stroke:none" d="M 5.828125 0 L 0.46875 0 L 0.46875 -0.34375 C 1.1875 -0.40625 1.65625 -0.539062 1.875 -0.75 C 2.101562 -0.957031 2.21875 -1.363281 2.21875 -1.96875 L 2.21875 -12.78125 C 2.21875 -13.3125 2.148438 -13.671875 2.015625 -13.859375 C 1.878906 -14.054688 1.628906 -14.15625 1.265625 -14.15625 C 1.128906 -14.15625 0.894531 -14.140625 0.5625 -14.109375 L 0.4375 -14.109375 L 0.4375 -14.484375 C 1.925781 -14.835938 3.125 -15.164062 4.03125 -15.46875 L 4.125 -15.421875 L 4.125 -1.90625 C 4.125 -1.28125 4.222656 -0.875 4.421875 -0.6875 C 4.628906 -0.5 5.097656 -0.382812 5.828125 -0.34375 Z M 5.828125 0 "/></g></g><g style="fill:#000000;fill-opacity:1;"><g transform="translate(100.73432, 285.953696)"><path style="stroke:none" d="M 5.828125 0 L 0.46875 0 L 0.46875 -0.34375 C 1.1875 -0.40625 1.65625 -0.539062 1.875 -0.75 C 2.101562 -0.957031 2.21875 -1.363281 2.21875 -1.96875 L 2.21875 -12.78125 C 2.21875 -13.3125 2.148438 -13.671875 2.015625 -13.859375 C 1.878906 -14.054688 1.628906 -14.15625 1.265625 -14.15625 C 1.128906 -14.15625 0.894531 -14.140625 0.5625 -14.109375 L 0.4375 -14.109375 L 0.4375 -14.484375 C 1.925781 -14.835938 3.125 -15.164062 4.03125 -15.46875 L 4.125 -15.421875 L 4.125 -1.90625 C 4.125 -1.28125 4.222656 -0.875 4.421875 -0.6875 C 4.628906 -0.5 5.097656 -0.382812 5.828125 -0.34375 Z M 5.828125 0 "/></g></g><g style="fill:#000000;fill-opacity:1;"><g transform="translate(107.032701, 285.953696)"><path style="stroke:none" d=""/></g></g><g style="fill:#000000;fill-opacity:1;"><g transform="translate(112.696718, 285.953696)"><path style="stroke:none" d="M 10.015625 -0.90625 C 9.617188 -0.46875 9.273438 -0.171875 8.984375 -0.015625 C 8.691406 0.140625 8.351562 0.21875 7.96875 0.21875 C 7.5 0.21875 7.15625 0.0976562 6.9375 -0.140625 C 6.71875 -0.390625 6.582031 -0.816406 6.53125 -1.421875 C 5.226562 -0.328125 4.125 0.21875 3.21875 0.21875 C 2.519531 0.21875 1.945312 -0.00390625 1.5 -0.453125 C 1.0625 -0.898438 0.84375 -1.484375 0.84375 -2.203125 C 0.84375 -3.015625 1.113281 -3.671875 1.65625 -4.171875 C 2.132812 -4.585938 2.617188 -4.921875 3.109375 -5.171875 C 3.597656 -5.421875 4.726562 -5.898438 6.5 -6.609375 L 6.5 -8 C 6.5 -9.25 5.925781 -9.875 4.78125 -9.875 C 4.320312 -9.875 3.9375 -9.765625 3.625 -9.546875 C 3.3125 -9.328125 3.15625 -9.066406 3.15625 -8.765625 C 3.15625 -8.597656 3.175781 -8.414062 3.21875 -8.21875 C 3.25 -8.007812 3.265625 -7.890625 3.265625 -7.859375 C 3.265625 -7.597656 3.160156 -7.375 2.953125 -7.1875 C 2.753906 -7 2.515625 -6.90625 2.234375 -6.90625 C 1.960938 -6.90625 1.734375 -7.003906 1.546875 -7.203125 C 1.359375 -7.398438 1.265625 -7.628906 1.265625 -7.890625 C 1.265625 -8.503906 1.578125 -9.066406 2.203125 -9.578125 C 2.878906 -10.140625 3.835938 -10.421875 5.078125 -10.421875 C 6.484375 -10.421875 7.425781 -9.984375 7.90625 -9.109375 C 8.195312 -8.640625 8.34375 -7.867188 8.34375 -6.796875 L 8.34375 -2.375 C 8.34375 -1.875 8.390625 -1.53125 8.484375 -1.34375 C 8.578125 -1.15625 8.753906 -1.0625 9.015625 -1.0625 C 9.335938 -1.0625 9.671875 -1.207031 10.015625 -1.5 Z M 6.5 -2.78125 L 6.5 -6.078125 C 5.144531 -5.578125 4.191406 -5.09375 3.640625 -4.625 C 3.097656 -4.15625 2.828125 -3.585938 2.828125 -2.921875 L 2.828125 -2.828125 C 2.828125 -2.347656 2.96875 -1.9375 3.25 -1.59375 C 3.53125 -1.257812 3.867188 -1.09375 4.265625 -1.09375 C 4.785156 -1.09375 5.332031 -1.253906 5.90625 -1.578125 C 6.15625 -1.734375 6.316406 -1.882812 6.390625 -2.03125 C 6.460938 -2.1875 6.5 -2.4375 6.5 -2.78125 Z M 6.5 -2.78125 "/></g></g><g style="fill:#000000;fill-opacity:1;"><g transform="translate(122.756, 285.953696)"><path style="stroke:none" d="M 10.984375 0 L 6.28125 0 L 6.28125 -0.34375 C 6.851562 -0.382812 7.234375 -0.53125 7.421875 -0.78125 C 7.609375 -1.039062 7.703125 -1.53125 7.703125 -2.25 L 7.703125 -6.984375 C 7.703125 -8.441406 7.148438 -9.171875 6.046875 -9.171875 C 5.671875 -9.171875 5.320312 -9.082031 5 -8.90625 C 4.6875 -8.738281 4.257812 -8.398438 3.71875 -7.890625 L 3.71875 -1.515625 C 3.71875 -1.109375 3.820312 -0.820312 4.03125 -0.65625 C 4.238281 -0.488281 4.628906 -0.382812 5.203125 -0.34375 L 5.203125 0 L 0.40625 0 L 0.40625 -0.34375 C 0.976562 -0.382812 1.351562 -0.515625 1.53125 -0.734375 C 1.71875 -0.953125 1.8125 -1.382812 1.8125 -2.03125 L 1.8125 -7.65625 C 1.8125 -8.21875 1.75 -8.597656 1.625 -8.796875 C 1.507812 -9.003906 1.289062 -9.109375 0.96875 -9.109375 C 0.6875 -9.109375 0.484375 -9.078125 0.359375 -9.015625 L 0.359375 -9.40625 C 1.472656 -9.738281 2.515625 -10.078125 3.484375 -10.421875 L 3.640625 -10.375 L 3.640625 -8.59375 C 4.410156 -9.3125 5.019531 -9.796875 5.46875 -10.046875 C 5.914062 -10.296875 6.40625 -10.421875 6.9375 -10.421875 C 7.757812 -10.421875 8.410156 -10.117188 8.890625 -9.515625 C 9.367188 -8.921875 9.609375 -8.085938 9.609375 -7.015625 L 9.609375 -1.828125 C 9.609375 -1.273438 9.695312 -0.90625 9.875 -0.71875 C 10.0625 -0.53125 10.429688 -0.40625 10.984375 -0.34375 Z M 10.984375 0 "/></g></g><g style="fill:#000000;fill-opacity:1;"><g transform="translate(134.084011, 285.953696)"><path style="stroke:none" d="M 11.125 -0.953125 L 7.796875 0.21875 L 7.703125 0.15625 L 7.703125 -1.296875 C 6.972656 -0.285156 6.003906 0.21875 4.796875 0.21875 C 3.546875 0.21875 2.535156 -0.226562 1.765625 -1.125 C 0.992188 -2.019531 0.609375 -3.191406 0.609375 -4.640625 C 0.609375 -6.242188 1.066406 -7.609375 1.984375 -8.734375 C 2.910156 -9.859375 4.023438 -10.421875 5.328125 -10.421875 C 6.140625 -10.421875 6.929688 -10.097656 7.703125 -9.453125 L 7.703125 -12.984375 C 7.703125 -13.453125 7.632812 -13.757812 7.5 -13.90625 C 7.363281 -14.0625 7.082031 -14.140625 6.65625 -14.140625 C 6.445312 -14.140625 6.28125 -14.128906 6.15625 -14.109375 L 6.15625 -14.484375 C 7.53125 -14.835938 8.644531 -15.164062 9.5 -15.46875 L 9.609375 -15.421875 L 9.609375 -2.578125 C 9.609375 -2.054688 9.671875 -1.710938 9.796875 -1.546875 C 9.921875 -1.378906 10.191406 -1.296875 10.609375 -1.296875 C 10.679688 -1.296875 10.851562 -1.300781 11.125 -1.3125 Z M 7.703125 -2.3125 L 7.703125 -7.515625 C 7.703125 -8.117188 7.46875 -8.644531 7 -9.09375 C 6.53125 -9.550781 5.992188 -9.78125 5.390625 -9.78125 C 4.523438 -9.78125 3.835938 -9.394531 3.328125 -8.625 C 2.816406 -7.851562 2.5625 -6.828125 2.5625 -5.546875 C 2.5625 -4.160156 2.847656 -3.046875 3.421875 -2.203125 C 3.992188 -1.367188 4.75 -0.953125 5.6875 -0.953125 C 6.363281 -0.953125 6.90625 -1.175781 7.3125 -1.625 C 7.570312 -1.914062 7.703125 -2.144531 7.703125 -2.3125 Z M 7.703125 -2.3125 "/></g></g><g style="fill:#000000;fill-opacity:1;"><g transform="translate(145.412023, 285.953696)"><path style="stroke:none" d=""/></g></g><g style="fill:#000000;fill-opacity:1;"><g transform="translate(151.076039, 285.953696)"><path style="stroke:none" d="M 11.03125 0 L 6.234375 0 L 6.234375 -0.34375 C 6.878906 -0.40625 7.296875 -0.554688 7.484375 -0.796875 C 7.671875 -1.035156 7.765625 -1.539062 7.765625 -2.3125 L 7.765625 -6.796875 C 7.765625 -8.398438 7.203125 -9.203125 6.078125 -9.203125 C 5.640625 -9.203125 5.226562 -9.09375 4.84375 -8.875 C 4.457031 -8.65625 4.03125 -8.285156 3.5625 -7.765625 L 3.5625 -2.3125 C 3.5625 -1.519531 3.648438 -1.007812 3.828125 -0.78125 C 4.003906 -0.5625 4.425781 -0.414062 5.09375 -0.34375 L 5.09375 0 L 0.203125 0 L 0.203125 -0.34375 C 0.847656 -0.425781 1.25 -0.570312 1.40625 -0.78125 C 1.570312 -1 1.65625 -1.507812 1.65625 -2.3125 L 1.65625 -12.984375 C 1.65625 -13.460938 1.582031 -13.773438 1.4375 -13.921875 C 1.289062 -14.066406 0.976562 -14.140625 0.5 -14.140625 C 0.375 -14.140625 0.28125 -14.128906 0.21875 -14.109375 L 0.21875 -14.484375 L 0.84375 -14.65625 C 1.863281 -14.945312 2.726562 -15.21875 3.4375 -15.46875 L 3.5625 -15.40625 L 3.5625 -8.515625 C 4.082031 -9.191406 4.597656 -9.675781 5.109375 -9.96875 C 5.628906 -10.269531 6.222656 -10.421875 6.890625 -10.421875 C 8.742188 -10.421875 9.671875 -9.21875 9.671875 -6.8125 L 9.671875 -2.3125 C 9.671875 -1.519531 9.742188 -1.019531 9.890625 -0.8125 C 10.035156 -0.613281 10.414062 -0.457031 11.03125 -0.34375 Z M 11.03125 0 "/></g></g><g style="fill:#000000;fill-opacity:1;"><g transform="translate(162.40405, 285.953696)"><path style="stroke:none" d="M 9.609375 -3.5625 C 8.628906 -1.039062 7.023438 0.21875 4.796875 0.21875 C 3.503906 0.21875 2.472656 -0.234375 1.703125 -1.140625 C 0.941406 -2.054688 0.5625 -3.289062 0.5625 -4.84375 C 0.5625 -6.488281 1 -7.828125 1.875 -8.859375 C 2.75 -9.898438 3.890625 -10.421875 5.296875 -10.421875 C 6.503906 -10.421875 7.472656 -9.988281 8.203125 -9.125 C 8.703125 -8.488281 9.023438 -7.539062 9.171875 -6.28125 L 2.203125 -6.28125 C 2.242188 -4.988281 2.46875 -3.945312 2.875 -3.15625 C 3.519531 -1.945312 4.472656 -1.34375 5.734375 -1.34375 C 6.453125 -1.34375 7.078125 -1.519531 7.609375 -1.875 C 8.148438 -2.238281 8.695312 -2.851562 9.25 -3.71875 Z M 6.859375 -7 C 6.710938 -7.976562 6.476562 -8.65625 6.15625 -9.03125 C 5.84375 -9.414062 5.335938 -9.609375 4.640625 -9.609375 C 3.285156 -9.609375 2.488281 -8.738281 2.25 -7 Z M 6.859375 -7 "/></g></g><g style="fill:#000000;fill-opacity:1;"><g transform="translate(172.463332, 285.953696)"><path style="stroke:none" d=""/></g></g><g style="fill:#000000;fill-opacity:1;"><g transform="translate(178.127349, 285.953696)"><path style="stroke:none" d="M 8.671875 -14.0625 C 8.671875 -13.8125 8.582031 -13.59375 8.40625 -13.40625 C 8.226562 -13.226562 8 -13.140625 7.71875 -13.140625 C 7.363281 -13.140625 7.023438 -13.410156 6.703125 -13.953125 C 6.335938 -14.546875 5.9375 -14.84375 5.5 -14.84375 C 4.644531 -14.84375 4.21875 -14.171875 4.21875 -12.828125 L 4.21875 -10.1875 L 7 -10.1875 L 7 -9.46875 L 4.234375 -9.46875 L 4.234375 -2.359375 C 4.234375 -1.515625 4.351562 -0.972656 4.59375 -0.734375 C 4.84375 -0.503906 5.425781 -0.375 6.34375 -0.34375 L 6.34375 0 L 0.453125 0 L 0.453125 -0.34375 C 1.265625 -0.382812 1.78125 -0.519531 2 -0.75 C 2.21875 -0.988281 2.328125 -1.523438 2.328125 -2.359375 L 2.328125 -9.46875 L 0.46875 -9.46875 L 0.46875 -10.1875 L 2.328125 -10.1875 C 2.347656 -11.09375 2.410156 -11.800781 2.515625 -12.3125 C 2.617188 -12.820312 2.820312 -13.332031 3.125 -13.84375 C 3.757812 -14.925781 4.828125 -15.46875 6.328125 -15.46875 C 7.003906 -15.46875 7.5625 -15.335938 8 -15.078125 C 8.445312 -14.816406 8.671875 -14.476562 8.671875 -14.0625 Z M 8.671875 -14.0625 "/></g></g><g style="fill:#000000;fill-opacity:1;"><g transform="translate(185.671816, 285.953696)"><path style="stroke:none" d="M 5.734375 0 L 0.359375 0 L 0.359375 -0.34375 C 1.148438 -0.382812 1.644531 -0.519531 1.84375 -0.75 C 2.050781 -0.976562 2.15625 -1.5 2.15625 -2.3125 L 2.15625 -7.5625 C 2.15625 -8.0625 2.097656 -8.410156 1.984375 -8.609375 C 1.867188 -8.816406 1.675781 -8.921875 1.40625 -8.921875 C 1.164062 -8.921875 0.910156 -8.898438 0.640625 -8.859375 L 0.453125 -8.828125 L 0.453125 -9.171875 L 3.96875 -10.421875 L 4.0625 -10.359375 L 4.0625 -2.3125 C 4.0625 -1.5 4.15625 -0.984375 4.34375 -0.765625 C 4.53125 -0.546875 4.992188 -0.40625 5.734375 -0.34375 Z M 4.265625 -13.359375 C 4.265625 -13.035156 4.15625 -12.765625 3.9375 -12.546875 C 3.71875 -12.328125 3.441406 -12.21875 3.109375 -12.21875 C 2.785156 -12.21875 2.507812 -12.328125 2.28125 -12.546875 C 2.0625 -12.765625 1.953125 -13.035156 1.953125 -13.359375 C 1.953125 -13.679688 2.0625 -13.953125 2.28125 -14.171875 C 2.507812 -14.398438 2.785156 -14.515625 3.109375 -14.515625 C 3.441406 -14.515625 3.71875 -14.398438 3.9375 -14.171875 C 4.15625 -13.953125 4.265625 -13.679688 4.265625 -13.359375 Z M 4.265625 -13.359375 "/></g></g><g style="fill:#000000;fill-opacity:1;"><g transform="translate(191.970197, 285.953696)"><path style="stroke:none" d="M 10.984375 0 L 6.28125 0 L 6.28125 -0.34375 C 6.851562 -0.382812 7.234375 -0.53125 7.421875 -0.78125 C 7.609375 -1.039062 7.703125 -1.53125 7.703125 -2.25 L 7.703125 -6.984375 C 7.703125 -8.441406 7.148438 -9.171875 6.046875 -9.171875 C 5.671875 -9.171875 5.320312 -9.082031 5 -8.90625 C 4.6875 -8.738281 4.257812 -8.398438 3.71875 -7.890625 L 3.71875 -1.515625 C 3.71875 -1.109375 3.820312 -0.820312 4.03125 -0.65625 C 4.238281 -0.488281 4.628906 -0.382812 5.203125 -0.34375 L 5.203125 0 L 0.40625 0 L 0.40625 -0.34375 C 0.976562 -0.382812 1.351562 -0.515625 1.53125 -0.734375 C 1.71875 -0.953125 1.8125 -1.382812 1.8125 -2.03125 L 1.8125 -7.65625 C 1.8125 -8.21875 1.75 -8.597656 1.625 -8.796875 C 1.507812 -9.003906 1.289062 -9.109375 0.96875 -9.109375 C 0.6875 -9.109375 0.484375 -9.078125 0.359375 -9.015625 L 0.359375 -9.40625 C 1.472656 -9.738281 2.515625 -10.078125 3.484375 -10.421875 L 3.640625 -10.375 L 3.640625 -8.59375 C 4.410156 -9.3125 5.019531 -9.796875 5.46875 -10.046875 C 5.914062 -10.296875 6.40625 -10.421875 6.9375 -10.421875 C 7.757812 -10.421875 8.410156 -10.117188 8.890625 -9.515625 C 9.367188 -8.921875 9.609375 -8.085938 9.609375 -7.015625 L 9.609375 -1.828125 C 9.609375 -1.273438 9.695312 -0.90625 9.875 -0.71875 C 10.0625 -0.53125 10.429688 -0.40625 10.984375 -0.34375 Z M 10.984375 0 "/></g></g><g style="fill:#000000;fill-opacity:1;"><g transform="translate(203.298208, 285.953696)"><path style="stroke:none" d="M 5.734375 0 L 0.359375 0 L 0.359375 -0.34375 C 1.148438 -0.382812 1.644531 -0.519531 1.84375 -0.75 C 2.050781 -0.976562 2.15625 -1.5 2.15625 -2.3125 L 2.15625 -7.5625 C 2.15625 -8.0625 2.097656 -8.410156 1.984375 -8.609375 C 1.867188 -8.816406 1.675781 -8.921875 1.40625 -8.921875 C 1.164062 -8.921875 0.910156 -8.898438 0.640625 -8.859375 L 0.453125 -8.828125 L 0.453125 -9.171875 L 3.96875 -10.421875 L 4.0625 -10.359375 L 4.0625 -2.3125 C 4.0625 -1.5 4.15625 -0.984375 4.34375 -0.765625 C 4.53125 -0.546875 4.992188 -0.40625 5.734375 -0.34375 Z M 4.265625 -13.359375 C 4.265625 -13.035156 4.15625 -12.765625 3.9375 -12.546875 C 3.71875 -12.328125 3.441406 -12.21875 3.109375 -12.21875 C 2.785156 -12.21875 2.507812 -12.328125 2.28125 -12.546875 C 2.0625 -12.765625 1.953125 -13.035156 1.953125 -13.359375 C 1.953125 -13.679688 2.0625 -13.953125 2.28125 -14.171875 C 2.507812 -14.398438 2.785156 -14.515625 3.109375 -14.515625 C 3.441406 -14.515625 3.71875 -14.398438 3.9375 -14.171875 C 4.15625 -13.953125 4.265625 -13.679688 4.265625 -13.359375 Z M 4.265625 -13.359375 "/></g></g><g style="fill:#000000;fill-opacity:1;"><g transform="translate(209.596589, 285.953696)"><path style="stroke:none" d="M 7.890625 -2.671875 C 7.890625 -1.890625 7.570312 -1.210938 6.9375 -0.640625 C 6.3125 -0.0664062 5.570312 0.21875 4.71875 0.21875 C 4.300781 0.21875 3.738281 0.144531 3.03125 0 C 2.550781 -0.125 2.207031 -0.1875 2 -0.1875 C 1.769531 -0.1875 1.59375 -0.09375 1.46875 0.09375 L 1.171875 0.09375 L 1.171875 -3.4375 L 1.546875 -3.4375 C 1.796875 -2.289062 2.140625 -1.472656 2.578125 -0.984375 C 3.015625 -0.503906 3.628906 -0.265625 4.421875 -0.265625 C 4.992188 -0.265625 5.445312 -0.410156 5.78125 -0.703125 C 6.125 -1.003906 6.296875 -1.40625 6.296875 -1.90625 C 6.296875 -2.582031 5.90625 -3.148438 5.125 -3.609375 L 3.8125 -4.34375 C 2.84375 -4.90625 2.15625 -5.429688 1.75 -5.921875 C 1.351562 -6.410156 1.15625 -6.972656 1.15625 -7.609375 C 1.15625 -8.441406 1.445312 -9.113281 2.03125 -9.625 C 2.613281 -10.144531 3.363281 -10.40625 4.28125 -10.40625 C 4.84375 -10.40625 5.359375 -10.3125 5.828125 -10.125 C 6.046875 -10.019531 6.25 -9.96875 6.4375 -9.96875 C 6.5 -9.96875 6.601562 -10.03125 6.75 -10.15625 L 6.796875 -10.1875 L 7.046875 -10.1875 L 7.140625 -7.109375 L 6.796875 -7.109375 C 6.535156 -8.117188 6.21875 -8.835938 5.84375 -9.265625 C 5.46875 -9.691406 4.953125 -9.90625 4.296875 -9.90625 C 3.773438 -9.90625 3.351562 -9.765625 3.03125 -9.484375 C 2.71875 -9.203125 2.5625 -8.828125 2.5625 -8.359375 C 2.5625 -7.710938 2.882812 -7.195312 3.53125 -6.8125 L 5.984375 -5.375 C 6.671875 -4.957031 7.160156 -4.546875 7.453125 -4.140625 C 7.742188 -3.734375 7.890625 -3.242188 7.890625 -2.671875 Z M 7.890625 -2.671875 "/></g></g><g style="fill:#000000;fill-opacity:1;"><g transform="translate(218.409786, 285.953696)"><path style="stroke:none" d="M 11.03125 0 L 6.234375 0 L 6.234375 -0.34375 C 6.878906 -0.40625 7.296875 -0.554688 7.484375 -0.796875 C 7.671875 -1.035156 7.765625 -1.539062 7.765625 -2.3125 L 7.765625 -6.796875 C 7.765625 -8.398438 7.203125 -9.203125 6.078125 -9.203125 C 5.640625 -9.203125 5.226562 -9.09375 4.84375 -8.875 C 4.457031 -8.65625 4.03125 -8.285156 3.5625 -7.765625 L 3.5625 -2.3125 C 3.5625 -1.519531 3.648438 -1.007812 3.828125 -0.78125 C 4.003906 -0.5625 4.425781 -0.414062 5.09375 -0.34375 L 5.09375 0 L 0.203125 0 L 0.203125 -0.34375 C 0.847656 -0.425781 1.25 -0.570312 1.40625 -0.78125 C 1.570312 -1 1.65625 -1.507812 1.65625 -2.3125 L 1.65625 -12.984375 C 1.65625 -13.460938 1.582031 -13.773438 1.4375 -13.921875 C 1.289062 -14.066406 0.976562 -14.140625 0.5 -14.140625 C 0.375 -14.140625 0.28125 -14.128906 0.21875 -14.109375 L 0.21875 -14.484375 L 0.84375 -14.65625 C 1.863281 -14.945312 2.726562 -15.21875 3.4375 -15.46875 L 3.5625 -15.40625 L 3.5625 -8.515625 C 4.082031 -9.191406 4.597656 -9.675781 5.109375 -9.96875 C 5.628906 -10.269531 6.222656 -10.421875 6.890625 -10.421875 C 8.742188 -10.421875 9.671875 -9.21875 9.671875 -6.8125 L 9.671875 -2.3125 C 9.671875 -1.519531 9.742188 -1.019531 9.890625 -0.8125 C 10.035156 -0.613281 10.414062 -0.457031 11.03125 -0.34375 Z M 11.03125 0 "/></g></g><g style="fill:#000000;fill-opacity:1;"><g transform="translate(229.737797, 285.953696)"><path style="stroke:none" d="M 9.609375 -3.5625 C 8.628906 -1.039062 7.023438 0.21875 4.796875 0.21875 C 3.503906 0.21875 2.472656 -0.234375 1.703125 -1.140625 C 0.941406 -2.054688 0.5625 -3.289062 0.5625 -4.84375 C 0.5625 -6.488281 1 -7.828125 1.875 -8.859375 C 2.75 -9.898438 3.890625 -10.421875 5.296875 -10.421875 C 6.503906 -10.421875 7.472656 -9.988281 8.203125 -9.125 C 8.703125 -8.488281 9.023438 -7.539062 9.171875 -6.28125 L 2.203125 -6.28125 C 2.242188 -4.988281 2.46875 -3.945312 2.875 -3.15625 C 3.519531 -1.945312 4.472656 -1.34375 5.734375 -1.34375 C 6.453125 -1.34375 7.078125 -1.519531 7.609375 -1.875 C 8.148438 -2.238281 8.695312 -2.851562 9.25 -3.71875 Z M 6.859375 -7 C 6.710938 -7.976562 6.476562 -8.65625 6.15625 -9.03125 C 5.84375 -9.414062 5.335938 -9.609375 4.640625 -9.609375 C 3.285156 -9.609375 2.488281 -8.738281 2.25 -7 Z M 6.859375 -7 "/></g></g><g style="fill:#000000;fill-opacity:1;"><g transform="translate(239.797079, 285.953696)"><path style="stroke:none" d="M 7.890625 -2.671875 C 7.890625 -1.890625 7.570312 -1.210938 6.9375 -0.640625 C 6.3125 -0.0664062 5.570312 0.21875 4.71875 0.21875 C 4.300781 0.21875 3.738281 0.144531 3.03125 0 C 2.550781 -0.125 2.207031 -0.1875 2 -0.1875 C 1.769531 -0.1875 1.59375 -0.09375 1.46875 0.09375 L 1.171875 0.09375 L 1.171875 -3.4375 L 1.546875 -3.4375 C 1.796875 -2.289062 2.140625 -1.472656 2.578125 -0.984375 C 3.015625 -0.503906 3.628906 -0.265625 4.421875 -0.265625 C 4.992188 -0.265625 5.445312 -0.410156 5.78125 -0.703125 C 6.125 -1.003906 6.296875 -1.40625 6.296875 -1.90625 C 6.296875 -2.582031 5.90625 -3.148438 5.125 -3.609375 L 3.8125 -4.34375 C 2.84375 -4.90625 2.15625 -5.429688 1.75 -5.921875 C 1.351562 -6.410156 1.15625 -6.972656 1.15625 -7.609375 C 1.15625 -8.441406 1.445312 -9.113281 2.03125 -9.625 C 2.613281 -10.144531 3.363281 -10.40625 4.28125 -10.40625 C 4.84375 -10.40625 5.359375 -10.3125 5.828125 -10.125 C 6.046875 -10.019531 6.25 -9.96875 6.4375 -9.96875 C 6.5 -9.96875 6.601562 -10.03125 6.75 -10.15625 L 6.796875 -10.1875 L 7.046875 -10.1875 L 7.140625 -7.109375 L 6.796875 -7.109375 C 6.535156 -8.117188 6.21875 -8.835938 5.84375 -9.265625 C 5.46875 -9.691406 4.953125 -9.90625 4.296875 -9.90625 C 3.773438 -9.90625 3.351562 -9.765625 3.03125 -9.484375 C 2.71875 -9.203125 2.5625 -8.828125 2.5625 -8.359375 C 2.5625 -7.710938 2.882812 -7.195312 3.53125 -6.8125 L 5.984375 -5.375 C 6.671875 -4.957031 7.160156 -4.546875 7.453125 -4.140625 C 7.742188 -3.734375 7.890625 -3.242188 7.890625 -2.671875 Z M 7.890625 -2.671875 "/></g></g><g style="fill:#000000;fill-opacity:1;"><g transform="translate(27.109992, 317.105667)"><path style="stroke:none" d="M 11.03125 0 L 6.234375 0 L 6.234375 -0.34375 C 6.878906 -0.40625 7.296875 -0.554688 7.484375 -0.796875 C 7.671875 -1.035156 7.765625 -1.539062 7.765625 -2.3125 L 7.765625 -6.796875 C 7.765625 -8.398438 7.203125 -9.203125 6.078125 -9.203125 C 5.640625 -9.203125 5.226562 -9.09375 4.84375 -8.875 C 4.457031 -8.65625 4.03125 -8.285156 3.5625 -7.765625 L 3.5625 -2.3125 C 3.5625 -1.519531 3.648438 -1.007812 3.828125 -0.78125 C 4.003906 -0.5625 4.425781 -0.414062 5.09375 -0.34375 L 5.09375 0 L 0.203125 0 L 0.203125 -0.34375 C 0.847656 -0.425781 1.25 -0.570312 1.40625 -0.78125 C 1.570312 -1 1.65625 -1.507812 1.65625 -2.3125 L 1.65625 -12.984375 C 1.65625 -13.460938 1.582031 -13.773438 1.4375 -13.921875 C 1.289062 -14.066406 0.976562 -14.140625 0.5 -14.140625 C 0.375 -14.140625 0.28125 -14.128906 0.21875 -14.109375 L 0.21875 -14.484375 L 0.84375 -14.65625 C 1.863281 -14.945312 2.726562 -15.21875 3.4375 -15.46875 L 3.5625 -15.40625 L 3.5625 -8.515625 C 4.082031 -9.191406 4.597656 -9.675781 5.109375 -9.96875 C 5.628906 -10.269531 6.222656 -10.421875 6.890625 -10.421875 C 8.742188 -10.421875 9.671875 -9.21875 9.671875 -6.8125 L 9.671875 -2.3125 C 9.671875 -1.519531 9.742188 -1.019531 9.890625 -0.8125 C 10.035156 -0.613281 10.414062 -0.457031 11.03125 -0.34375 Z M 11.03125 0 "/></g></g><g style="fill:#000000;fill-opacity:1;"><g transform="translate(38.438004, 317.105667)"><path style="stroke:none" d="M 5.734375 0 L 0.359375 0 L 0.359375 -0.34375 C 1.148438 -0.382812 1.644531 -0.519531 1.84375 -0.75 C 2.050781 -0.976562 2.15625 -1.5 2.15625 -2.3125 L 2.15625 -7.5625 C 2.15625 -8.0625 2.097656 -8.410156 1.984375 -8.609375 C 1.867188 -8.816406 1.675781 -8.921875 1.40625 -8.921875 C 1.164062 -8.921875 0.910156 -8.898438 0.640625 -8.859375 L 0.453125 -8.828125 L 0.453125 -9.171875 L 3.96875 -10.421875 L 4.0625 -10.359375 L 4.0625 -2.3125 C 4.0625 -1.5 4.15625 -0.984375 4.34375 -0.765625 C 4.53125 -0.546875 4.992188 -0.40625 5.734375 -0.34375 Z M 4.265625 -13.359375 C 4.265625 -13.035156 4.15625 -12.765625 3.9375 -12.546875 C 3.71875 -12.328125 3.441406 -12.21875 3.109375 -12.21875 C 2.785156 -12.21875 2.507812 -12.328125 2.28125 -12.546875 C 2.0625 -12.765625 1.953125 -13.035156 1.953125 -13.359375 C 1.953125 -13.679688 2.0625 -13.953125 2.28125 -14.171875 C 2.507812 -14.398438 2.785156 -14.515625 3.109375 -14.515625 C 3.441406 -14.515625 3.71875 -14.398438 3.9375 -14.171875 C 4.15625 -13.953125 4.265625 -13.679688 4.265625 -13.359375 Z M 4.265625 -13.359375 "/></g></g><g style="fill:#000000;fill-opacity:1;"><g transform="translate(44.736385, 317.105667)"><path style="stroke:none" d="M 7.890625 -2.671875 C 7.890625 -1.890625 7.570312 -1.210938 6.9375 -0.640625 C 6.3125 -0.0664062 5.570312 0.21875 4.71875 0.21875 C 4.300781 0.21875 3.738281 0.144531 3.03125 0 C 2.550781 -0.125 2.207031 -0.1875 2 -0.1875 C 1.769531 -0.1875 1.59375 -0.09375 1.46875 0.09375 L 1.171875 0.09375 L 1.171875 -3.4375 L 1.546875 -3.4375 C 1.796875 -2.289062 2.140625 -1.472656 2.578125 -0.984375 C 3.015625 -0.503906 3.628906 -0.265625 4.421875 -0.265625 C 4.992188 -0.265625 5.445312 -0.410156 5.78125 -0.703125 C 6.125 -1.003906 6.296875 -1.40625 6.296875 -1.90625 C 6.296875 -2.582031 5.90625 -3.148438 5.125 -3.609375 L 3.8125 -4.34375 C 2.84375 -4.90625 2.15625 -5.429688 1.75 -5.921875 C 1.351562 -6.410156 1.15625 -6.972656 1.15625 -7.609375 C 1.15625 -8.441406 1.445312 -9.113281 2.03125 -9.625 C 2.613281 -10.144531 3.363281 -10.40625 4.28125 -10.40625 C 4.84375 -10.40625 5.359375 -10.3125 5.828125 -10.125 C 6.046875 -10.019531 6.25 -9.96875 6.4375 -9.96875 C 6.5 -9.96875 6.601562 -10.03125 6.75 -10.15625 L 6.796875 -10.1875 L 7.046875 -10.1875 L 7.140625 -7.109375 L 6.796875 -7.109375 C 6.535156 -8.117188 6.21875 -8.835938 5.84375 -9.265625 C 5.46875 -9.691406 4.953125 -9.90625 4.296875 -9.90625 C 3.773438 -9.90625 3.351562 -9.765625 3.03125 -9.484375 C 2.71875 -9.203125 2.5625 -8.828125 2.5625 -8.359375 C 2.5625 -7.710938 2.882812 -7.195312 3.53125 -6.8125 L 5.984375 -5.375 C 6.671875 -4.957031 7.160156 -4.546875 7.453125 -4.140625 C 7.742188 -3.734375 7.890625 -3.242188 7.890625 -2.671875 Z M 7.890625 -2.671875 "/></g></g><g style="fill:#000000;fill-opacity:1;"><g transform="translate(53.549581, 317.105667)"><path style="stroke:none" d=""/></g></g><g style="fill:#000000;fill-opacity:1;"><g transform="translate(59.213598, 317.105667)"><path style="stroke:none" d="M 10.015625 -0.90625 C 9.617188 -0.46875 9.273438 -0.171875 8.984375 -0.015625 C 8.691406 0.140625 8.351562 0.21875 7.96875 0.21875 C 7.5 0.21875 7.15625 0.0976562 6.9375 -0.140625 C 6.71875 -0.390625 6.582031 -0.816406 6.53125 -1.421875 C 5.226562 -0.328125 4.125 0.21875 3.21875 0.21875 C 2.519531 0.21875 1.945312 -0.00390625 1.5 -0.453125 C 1.0625 -0.898438 0.84375 -1.484375 0.84375 -2.203125 C 0.84375 -3.015625 1.113281 -3.671875 1.65625 -4.171875 C 2.132812 -4.585938 2.617188 -4.921875 3.109375 -5.171875 C 3.597656 -5.421875 4.726562 -5.898438 6.5 -6.609375 L 6.5 -8 C 6.5 -9.25 5.925781 -9.875 4.78125 -9.875 C 4.320312 -9.875 3.9375 -9.765625 3.625 -9.546875 C 3.3125 -9.328125 3.15625 -9.066406 3.15625 -8.765625 C 3.15625 -8.597656 3.175781 -8.414062 3.21875 -8.21875 C 3.25 -8.007812 3.265625 -7.890625 3.265625 -7.859375 C 3.265625 -7.597656 3.160156 -7.375 2.953125 -7.1875 C 2.753906 -7 2.515625 -6.90625 2.234375 -6.90625 C 1.960938 -6.90625 1.734375 -7.003906 1.546875 -7.203125 C 1.359375 -7.398438 1.265625 -7.628906 1.265625 -7.890625 C 1.265625 -8.503906 1.578125 -9.066406 2.203125 -9.578125 C 2.878906 -10.140625 3.835938 -10.421875 5.078125 -10.421875 C 6.484375 -10.421875 7.425781 -9.984375 7.90625 -9.109375 C 8.195312 -8.640625 8.34375 -7.867188 8.34375 -6.796875 L 8.34375 -2.375 C 8.34375 -1.875 8.390625 -1.53125 8.484375 -1.34375 C 8.578125 -1.15625 8.753906 -1.0625 9.015625 -1.0625 C 9.335938 -1.0625 9.671875 -1.207031 10.015625 -1.5 Z M 6.5 -2.78125 L 6.5 -6.078125 C 5.144531 -5.578125 4.191406 -5.09375 3.640625 -4.625 C 3.097656 -4.15625 2.828125 -3.585938 2.828125 -2.921875 L 2.828125 -2.828125 C 2.828125 -2.347656 2.96875 -1.9375 3.25 -1.59375 C 3.53125 -1.257812 3.867188 -1.09375 4.265625 -1.09375 C 4.785156 -1.09375 5.332031 -1.253906 5.90625 -1.578125 C 6.15625 -1.734375 6.316406 -1.882812 6.390625 -2.03125 C 6.460938 -2.1875 6.5 -2.4375 6.5 -2.78125 Z M 6.5 -2.78125 "/></g></g><g style="fill:#000000;fill-opacity:1;"><g transform="translate(69.27288, 317.105667)"><path style="stroke:none" d="M 10.984375 0 L 6.28125 0 L 6.28125 -0.34375 C 6.851562 -0.382812 7.234375 -0.53125 7.421875 -0.78125 C 7.609375 -1.039062 7.703125 -1.53125 7.703125 -2.25 L 7.703125 -6.984375 C 7.703125 -8.441406 7.148438 -9.171875 6.046875 -9.171875 C 5.671875 -9.171875 5.320312 -9.082031 5 -8.90625 C 4.6875 -8.738281 4.257812 -8.398438 3.71875 -7.890625 L 3.71875 -1.515625 C 3.71875 -1.109375 3.820312 -0.820312 4.03125 -0.65625 C 4.238281 -0.488281 4.628906 -0.382812 5.203125 -0.34375 L 5.203125 0 L 0.40625 0 L 0.40625 -0.34375 C 0.976562 -0.382812 1.351562 -0.515625 1.53125 -0.734375 C 1.71875 -0.953125 1.8125 -1.382812 1.8125 -2.03125 L 1.8125 -7.65625 C 1.8125 -8.21875 1.75 -8.597656 1.625 -8.796875 C 1.507812 -9.003906 1.289062 -9.109375 0.96875 -9.109375 C 0.6875 -9.109375 0.484375 -9.078125 0.359375 -9.015625 L 0.359375 -9.40625 C 1.472656 -9.738281 2.515625 -10.078125 3.484375 -10.421875 L 3.640625 -10.375 L 3.640625 -8.59375 C 4.410156 -9.3125 5.019531 -9.796875 5.46875 -10.046875 C 5.914062 -10.296875 6.40625 -10.421875 6.9375 -10.421875 C 7.757812 -10.421875 8.410156 -10.117188 8.890625 -9.515625 C 9.367188 -8.921875 9.609375 -8.085938 9.609375 -7.015625 L 9.609375 -1.828125 C 9.609375 -1.273438 9.695312 -0.90625 9.875 -0.71875 C 10.0625 -0.53125 10.429688 -0.40625 10.984375 -0.34375 Z M 10.984375 0 "/></g></g><g style="fill:#000000;fill-opacity:1;"><g transform="translate(80.600891, 317.105667)"><path style="stroke:none" d="M 10.015625 -0.90625 C 9.617188 -0.46875 9.273438 -0.171875 8.984375 -0.015625 C 8.691406 0.140625 8.351562 0.21875 7.96875 0.21875 C 7.5 0.21875 7.15625 0.0976562 6.9375 -0.140625 C 6.71875 -0.390625 6.582031 -0.816406 6.53125 -1.421875 C 5.226562 -0.328125 4.125 0.21875 3.21875 0.21875 C 2.519531 0.21875 1.945312 -0.00390625 1.5 -0.453125 C 1.0625 -0.898438 0.84375 -1.484375 0.84375 -2.203125 C 0.84375 -3.015625 1.113281 -3.671875 1.65625 -4.171875 C 2.132812 -4.585938 2.617188 -4.921875 3.109375 -5.171875 C 3.597656 -5.421875 4.726562 -5.898438 6.5 -6.609375 L 6.5 -8 C 6.5 -9.25 5.925781 -9.875 4.78125 -9.875 C 4.320312 -9.875 3.9375 -9.765625 3.625 -9.546875 C 3.3125 -9.328125 3.15625 -9.066406 3.15625 -8.765625 C 3.15625 -8.597656 3.175781 -8.414062 3.21875 -8.21875 C 3.25 -8.007812 3.265625 -7.890625 3.265625 -7.859375 C 3.265625 -7.597656 3.160156 -7.375 2.953125 -7.1875 C 2.753906 -7 2.515625 -6.90625 2.234375 -6.90625 C 1.960938 -6.90625 1.734375 -7.003906 1.546875 -7.203125 C 1.359375 -7.398438 1.265625 -7.628906 1.265625 -7.890625 C 1.265625 -8.503906 1.578125 -9.066406 2.203125 -9.578125 C 2.878906 -10.140625 3.835938 -10.421875 5.078125 -10.421875 C 6.484375 -10.421875 7.425781 -9.984375 7.90625 -9.109375 C 8.195312 -8.640625 8.34375 -7.867188 8.34375 -6.796875 L 8.34375 -2.375 C 8.34375 -1.875 8.390625 -1.53125 8.484375 -1.34375 C 8.578125 -1.15625 8.753906 -1.0625 9.015625 -1.0625 C 9.335938 -1.0625 9.671875 -1.207031 10.015625 -1.5 Z M 6.5 -2.78125 L 6.5 -6.078125 C 5.144531 -5.578125 4.191406 -5.09375 3.640625 -4.625 C 3.097656 -4.15625 2.828125 -3.585938 2.828125 -2.921875 L 2.828125 -2.828125 C 2.828125 -2.347656 2.96875 -1.9375 3.25 -1.59375 C 3.53125 -1.257812 3.867188 -1.09375 4.265625 -1.09375 C 4.785156 -1.09375 5.332031 -1.253906 5.90625 -1.578125 C 6.15625 -1.734375 6.316406 -1.882812 6.390625 -2.03125 C 6.460938 -2.1875 6.5 -2.4375 6.5 -2.78125 Z M 6.5 -2.78125 "/></g></g><g style="fill:#000000;fill-opacity:1;"><g transform="translate(90.660173, 317.105667)"><path style="stroke:none" d="M 5.828125 0 L 0.46875 0 L 0.46875 -0.34375 C 1.1875 -0.40625 1.65625 -0.539062 1.875 -0.75 C 2.101562 -0.957031 2.21875 -1.363281 2.21875 -1.96875 L 2.21875 -12.78125 C 2.21875 -13.3125 2.148438 -13.671875 2.015625 -13.859375 C 1.878906 -14.054688 1.628906 -14.15625 1.265625 -14.15625 C 1.128906 -14.15625 0.894531 -14.140625 0.5625 -14.109375 L 0.4375 -14.109375 L 0.4375 -14.484375 C 1.925781 -14.835938 3.125 -15.164062 4.03125 -15.46875 L 4.125 -15.421875 L 4.125 -1.90625 C 4.125 -1.28125 4.222656 -0.875 4.421875 -0.6875 C 4.628906 -0.5 5.097656 -0.382812 5.828125 -0.34375 Z M 5.828125 0 "/></g></g><g style="fill:#000000;fill-opacity:1;"><g transform="translate(96.958554, 317.105667)"><path style="stroke:none" d="M 10.765625 -9.859375 C 10.492188 -9.828125 10.28125 -9.738281 10.125 -9.59375 C 9.976562 -9.445312 9.828125 -9.191406 9.671875 -8.828125 L 6.1875 0.40625 C 5.582031 2.039062 4.976562 3.203125 4.375 3.890625 C 3.78125 4.585938 3.109375 4.9375 2.359375 4.9375 C 1.867188 4.9375 1.460938 4.8125 1.140625 4.5625 C 0.828125 4.3125 0.671875 4 0.671875 3.625 C 0.671875 3.351562 0.769531 3.117188 0.96875 2.921875 C 1.164062 2.722656 1.394531 2.625 1.65625 2.625 C 2 2.625 2.398438 2.707031 2.859375 2.875 C 3.066406 2.976562 3.253906 3.03125 3.421875 3.03125 C 3.585938 3.03125 3.78125 2.929688 4 2.734375 C 4.21875 2.546875 4.398438 2.304688 4.546875 2.015625 C 4.742188 1.679688 4.941406 1.226562 5.140625 0.65625 C 5.347656 0.09375 5.453125 -0.269531 5.453125 -0.4375 C 5.453125 -0.582031 5.367188 -0.859375 5.203125 -1.265625 L 1.46875 -9.15625 C 1.289062 -9.539062 0.90625 -9.78125 0.3125 -9.875 L 0.3125 -10.1875 L 4.984375 -10.1875 L 4.984375 -9.859375 C 4.503906 -9.835938 4.164062 -9.78125 3.96875 -9.6875 C 3.769531 -9.601562 3.671875 -9.457031 3.671875 -9.25 C 3.671875 -9.019531 3.742188 -8.726562 3.890625 -8.375 L 6.5 -2.65625 L 8.703125 -8.90625 C 8.765625 -9.039062 8.796875 -9.164062 8.796875 -9.28125 C 8.796875 -9.664062 8.429688 -9.859375 7.703125 -9.859375 L 7.703125 -10.1875 L 10.765625 -10.1875 Z M 10.765625 -9.859375 "/></g></g><g style="fill:#000000;fill-opacity:1;"><g transform="translate(108.286565, 317.105667)"><path style="stroke:none" d="M 7.890625 -2.671875 C 7.890625 -1.890625 7.570312 -1.210938 6.9375 -0.640625 C 6.3125 -0.0664062 5.570312 0.21875 4.71875 0.21875 C 4.300781 0.21875 3.738281 0.144531 3.03125 0 C 2.550781 -0.125 2.207031 -0.1875 2 -0.1875 C 1.769531 -0.1875 1.59375 -0.09375 1.46875 0.09375 L 1.171875 0.09375 L 1.171875 -3.4375 L 1.546875 -3.4375 C 1.796875 -2.289062 2.140625 -1.472656 2.578125 -0.984375 C 3.015625 -0.503906 3.628906 -0.265625 4.421875 -0.265625 C 4.992188 -0.265625 5.445312 -0.410156 5.78125 -0.703125 C 6.125 -1.003906 6.296875 -1.40625 6.296875 -1.90625 C 6.296875 -2.582031 5.90625 -3.148438 5.125 -3.609375 L 3.8125 -4.34375 C 2.84375 -4.90625 2.15625 -5.429688 1.75 -5.921875 C 1.351562 -6.410156 1.15625 -6.972656 1.15625 -7.609375 C 1.15625 -8.441406 1.445312 -9.113281 2.03125 -9.625 C 2.613281 -10.144531 3.363281 -10.40625 4.28125 -10.40625 C 4.84375 -10.40625 5.359375 -10.3125 5.828125 -10.125 C 6.046875 -10.019531 6.25 -9.96875 6.4375 -9.96875 C 6.5 -9.96875 6.601562 -10.03125 6.75 -10.15625 L 6.796875 -10.1875 L 7.046875 -10.1875 L 7.140625 -7.109375 L 6.796875 -7.109375 C 6.535156 -8.117188 6.21875 -8.835938 5.84375 -9.265625 C 5.46875 -9.691406 4.953125 -9.90625 4.296875 -9.90625 C 3.773438 -9.90625 3.351562 -9.765625 3.03125 -9.484375 C 2.71875 -9.203125 2.5625 -8.828125 2.5625 -8.359375 C 2.5625 -7.710938 2.882812 -7.195312 3.53125 -6.8125 L 5.984375 -5.375 C 6.671875 -4.957031 7.160156 -4.546875 7.453125 -4.140625 C 7.742188 -3.734375 7.890625 -3.242188 7.890625 -2.671875 Z M 7.890625 -2.671875 "/></g></g><g style="fill:#000000;fill-opacity:1;"><g transform="translate(117.099762, 317.105667)"><path style="stroke:none" d="M 5.734375 0 L 0.359375 0 L 0.359375 -0.34375 C 1.148438 -0.382812 1.644531 -0.519531 1.84375 -0.75 C 2.050781 -0.976562 2.15625 -1.5 2.15625 -2.3125 L 2.15625 -7.5625 C 2.15625 -8.0625 2.097656 -8.410156 1.984375 -8.609375 C 1.867188 -8.816406 1.675781 -8.921875 1.40625 -8.921875 C 1.164062 -8.921875 0.910156 -8.898438 0.640625 -8.859375 L 0.453125 -8.828125 L 0.453125 -9.171875 L 3.96875 -10.421875 L 4.0625 -10.359375 L 4.0625 -2.3125 C 4.0625 -1.5 4.15625 -0.984375 4.34375 -0.765625 C 4.53125 -0.546875 4.992188 -0.40625 5.734375 -0.34375 Z M 4.265625 -13.359375 C 4.265625 -13.035156 4.15625 -12.765625 3.9375 -12.546875 C 3.71875 -12.328125 3.441406 -12.21875 3.109375 -12.21875 C 2.785156 -12.21875 2.507812 -12.328125 2.28125 -12.546875 C 2.0625 -12.765625 1.953125 -13.035156 1.953125 -13.359375 C 1.953125 -13.679688 2.0625 -13.953125 2.28125 -14.171875 C 2.507812 -14.398438 2.785156 -14.515625 3.109375 -14.515625 C 3.441406 -14.515625 3.71875 -14.398438 3.9375 -14.171875 C 4.15625 -13.953125 4.265625 -13.679688 4.265625 -13.359375 Z M 4.265625 -13.359375 "/></g></g><g style="fill:#000000;fill-opacity:1;"><g transform="translate(123.398143, 317.105667)"><path style="stroke:none" d="M 7.890625 -2.671875 C 7.890625 -1.890625 7.570312 -1.210938 6.9375 -0.640625 C 6.3125 -0.0664062 5.570312 0.21875 4.71875 0.21875 C 4.300781 0.21875 3.738281 0.144531 3.03125 0 C 2.550781 -0.125 2.207031 -0.1875 2 -0.1875 C 1.769531 -0.1875 1.59375 -0.09375 1.46875 0.09375 L 1.171875 0.09375 L 1.171875 -3.4375 L 1.546875 -3.4375 C 1.796875 -2.289062 2.140625 -1.472656 2.578125 -0.984375 C 3.015625 -0.503906 3.628906 -0.265625 4.421875 -0.265625 C 4.992188 -0.265625 5.445312 -0.410156 5.78125 -0.703125 C 6.125 -1.003906 6.296875 -1.40625 6.296875 -1.90625 C 6.296875 -2.582031 5.90625 -3.148438 5.125 -3.609375 L 3.8125 -4.34375 C 2.84375 -4.90625 2.15625 -5.429688 1.75 -5.921875 C 1.351562 -6.410156 1.15625 -6.972656 1.15625 -7.609375 C 1.15625 -8.441406 1.445312 -9.113281 2.03125 -9.625 C 2.613281 -10.144531 3.363281 -10.40625 4.28125 -10.40625 C 4.84375 -10.40625 5.359375 -10.3125 5.828125 -10.125 C 6.046875 -10.019531 6.25 -9.96875 6.4375 -9.96875 C 6.5 -9.96875 6.601562 -10.03125 6.75 -10.15625 L 6.796875 -10.1875 L 7.046875 -10.1875 L 7.140625 -7.109375 L 6.796875 -7.109375 C 6.535156 -8.117188 6.21875 -8.835938 5.84375 -9.265625 C 5.46875 -9.691406 4.953125 -9.90625 4.296875 -9.90625 C 3.773438 -9.90625 3.351562 -9.765625 3.03125 -9.484375 C 2.71875 -9.203125 2.5625 -8.828125 2.5625 -8.359375 C 2.5625 -7.710938 2.882812 -7.195312 3.53125 -6.8125 L 5.984375 -5.375 C 6.671875 -4.957031 7.160156 -4.546875 7.453125 -4.140625 C 7.742188 -3.734375 7.890625 -3.242188 7.890625 -2.671875 Z M 7.890625 -2.671875 "/></g></g><g style="fill:#000000;fill-opacity:1;"><g transform="translate(132.211339, 317.105667)"><path style="stroke:none" d=""/></g></g><g style="fill:#000000;fill-opacity:1;"><g transform="translate(137.875356, 317.105667)"><path style="stroke:none" d="M 10.015625 -0.90625 C 9.617188 -0.46875 9.273438 -0.171875 8.984375 -0.015625 C 8.691406 0.140625 8.351562 0.21875 7.96875 0.21875 C 7.5 0.21875 7.15625 0.0976562 6.9375 -0.140625 C 6.71875 -0.390625 6.582031 -0.816406 6.53125 -1.421875 C 5.226562 -0.328125 4.125 0.21875 3.21875 0.21875 C 2.519531 0.21875 1.945312 -0.00390625 1.5 -0.453125 C 1.0625 -0.898438 0.84375 -1.484375 0.84375 -2.203125 C 0.84375 -3.015625 1.113281 -3.671875 1.65625 -4.171875 C 2.132812 -4.585938 2.617188 -4.921875 3.109375 -5.171875 C 3.597656 -5.421875 4.726562 -5.898438 6.5 -6.609375 L 6.5 -8 C 6.5 -9.25 5.925781 -9.875 4.78125 -9.875 C 4.320312 -9.875 3.9375 -9.765625 3.625 -9.546875 C 3.3125 -9.328125 3.15625 -9.066406 3.15625 -8.765625 C 3.15625 -8.597656 3.175781 -8.414062 3.21875 -8.21875 C 3.25 -8.007812 3.265625 -7.890625 3.265625 -7.859375 C 3.265625 -7.597656 3.160156 -7.375 2.953125 -7.1875 C 2.753906 -7 2.515625 -6.90625 2.234375 -6.90625 C 1.960938 -6.90625 1.734375 -7.003906 1.546875 -7.203125 C 1.359375 -7.398438 1.265625 -7.628906 1.265625 -7.890625 C 1.265625 -8.503906 1.578125 -9.066406 2.203125 -9.578125 C 2.878906 -10.140625 3.835938 -10.421875 5.078125 -10.421875 C 6.484375 -10.421875 7.425781 -9.984375 7.90625 -9.109375 C 8.195312 -8.640625 8.34375 -7.867188 8.34375 -6.796875 L 8.34375 -2.375 C 8.34375 -1.875 8.390625 -1.53125 8.484375 -1.34375 C 8.578125 -1.15625 8.753906 -1.0625 9.015625 -1.0625 C 9.335938 -1.0625 9.671875 -1.207031 10.015625 -1.5 Z M 6.5 -2.78125 L 6.5 -6.078125 C 5.144531 -5.578125 4.191406 -5.09375 3.640625 -4.625 C 3.097656 -4.15625 2.828125 -3.585938 2.828125 -2.921875 L 2.828125 -2.828125 C 2.828125 -2.347656 2.96875 -1.9375 3.25 -1.59375 C 3.53125 -1.257812 3.867188 -1.09375 4.265625 -1.09375 C 4.785156 -1.09375 5.332031 -1.253906 5.90625 -1.578125 C 6.15625 -1.734375 6.316406 -1.882812 6.390625 -2.03125 C 6.460938 -2.1875 6.5 -2.4375 6.5 -2.78125 Z M 6.5 -2.78125 "/></g></g><g style="fill:#000000;fill-opacity:1;"><g transform="translate(147.934638, 317.105667)"><path style="stroke:none" d="M 6.328125 -1.5 C 5.597656 -0.351562 4.679688 0.21875 3.578125 0.21875 C 2.242188 0.21875 1.578125 -0.738281 1.578125 -2.65625 L 1.578125 -9.46875 L 0.390625 -9.46875 C 0.328125 -9.507812 0.296875 -9.5625 0.296875 -9.625 C 0.296875 -9.75 0.421875 -9.894531 0.671875 -10.0625 C 1.296875 -10.425781 2.03125 -11.234375 2.875 -12.484375 C 3.082031 -12.753906 3.234375 -12.96875 3.328125 -13.125 C 3.429688 -13.125 3.484375 -13.023438 3.484375 -12.828125 L 3.484375 -10.1875 L 5.78125 -10.1875 L 5.78125 -9.46875 L 3.484375 -9.46875 L 3.484375 -2.984375 C 3.484375 -2.265625 3.570312 -1.742188 3.75 -1.421875 C 3.9375 -1.109375 4.242188 -0.953125 4.671875 -0.953125 C 5.117188 -0.953125 5.570312 -1.21875 6.03125 -1.75 Z M 6.328125 -1.5 "/></g></g><g style="fill:#000000;fill-opacity:1;"><g transform="translate(154.233019, 317.105667)"><path style="stroke:none" d=""/></g></g><g style="fill:#000000;fill-opacity:1;"><g transform="translate(159.897035, 317.105667)"><path style="stroke:none" d="M 11.03125 0 L 6.234375 0 L 6.234375 -0.34375 C 6.878906 -0.40625 7.296875 -0.554688 7.484375 -0.796875 C 7.671875 -1.035156 7.765625 -1.539062 7.765625 -2.3125 L 7.765625 -6.796875 C 7.765625 -8.398438 7.203125 -9.203125 6.078125 -9.203125 C 5.640625 -9.203125 5.226562 -9.09375 4.84375 -8.875 C 4.457031 -8.65625 4.03125 -8.285156 3.5625 -7.765625 L 3.5625 -2.3125 C 3.5625 -1.519531 3.648438 -1.007812 3.828125 -0.78125 C 4.003906 -0.5625 4.425781 -0.414062 5.09375 -0.34375 L 5.09375 0 L 0.203125 0 L 0.203125 -0.34375 C 0.847656 -0.425781 1.25 -0.570312 1.40625 -0.78125 C 1.570312 -1 1.65625 -1.507812 1.65625 -2.3125 L 1.65625 -12.984375 C 1.65625 -13.460938 1.582031 -13.773438 1.4375 -13.921875 C 1.289062 -14.066406 0.976562 -14.140625 0.5 -14.140625 C 0.375 -14.140625 0.28125 -14.128906 0.21875 -14.109375 L 0.21875 -14.484375 L 0.84375 -14.65625 C 1.863281 -14.945312 2.726562 -15.21875 3.4375 -15.46875 L 3.5625 -15.40625 L 3.5625 -8.515625 C 4.082031 -9.191406 4.597656 -9.675781 5.109375 -9.96875 C 5.628906 -10.269531 6.222656 -10.421875 6.890625 -10.421875 C 8.742188 -10.421875 9.671875 -9.21875 9.671875 -6.8125 L 9.671875 -2.3125 C 9.671875 -1.519531 9.742188 -1.019531 9.890625 -0.8125 C 10.035156 -0.613281 10.414062 -0.457031 11.03125 -0.34375 Z M 11.03125 0 "/></g></g><g style="fill:#000000;fill-opacity:1;"><g transform="translate(171.225047, 317.105667)"><path style="stroke:none" d="M 5.734375 0 L 0.359375 0 L 0.359375 -0.34375 C 1.148438 -0.382812 1.644531 -0.519531 1.84375 -0.75 C 2.050781 -0.976562 2.15625 -1.5 2.15625 -2.3125 L 2.15625 -7.5625 C 2.15625 -8.0625 2.097656 -8.410156 1.984375 -8.609375 C 1.867188 -8.816406 1.675781 -8.921875 1.40625 -8.921875 C 1.164062 -8.921875 0.910156 -8.898438 0.640625 -8.859375 L 0.453125 -8.828125 L 0.453125 -9.171875 L 3.96875 -10.421875 L 4.0625 -10.359375 L 4.0625 -2.3125 C 4.0625 -1.5 4.15625 -0.984375 4.34375 -0.765625 C 4.53125 -0.546875 4.992188 -0.40625 5.734375 -0.34375 Z M 4.265625 -13.359375 C 4.265625 -13.035156 4.15625 -12.765625 3.9375 -12.546875 C 3.71875 -12.328125 3.441406 -12.21875 3.109375 -12.21875 C 2.785156 -12.21875 2.507812 -12.328125 2.28125 -12.546875 C 2.0625 -12.765625 1.953125 -13.035156 1.953125 -13.359375 C 1.953125 -13.679688 2.0625 -13.953125 2.28125 -14.171875 C 2.507812 -14.398438 2.785156 -14.515625 3.109375 -14.515625 C 3.441406 -14.515625 3.71875 -14.398438 3.9375 -14.171875 C 4.15625 -13.953125 4.265625 -13.679688 4.265625 -13.359375 Z M 4.265625 -13.359375 "/></g></g><g style="fill:#000000;fill-opacity:1;"><g transform="translate(177.523428, 317.105667)"><path style="stroke:none" d="M 7.890625 -2.671875 C 7.890625 -1.890625 7.570312 -1.210938 6.9375 -0.640625 C 6.3125 -0.0664062 5.570312 0.21875 4.71875 0.21875 C 4.300781 0.21875 3.738281 0.144531 3.03125 0 C 2.550781 -0.125 2.207031 -0.1875 2 -0.1875 C 1.769531 -0.1875 1.59375 -0.09375 1.46875 0.09375 L 1.171875 0.09375 L 1.171875 -3.4375 L 1.546875 -3.4375 C 1.796875 -2.289062 2.140625 -1.472656 2.578125 -0.984375 C 3.015625 -0.503906 3.628906 -0.265625 4.421875 -0.265625 C 4.992188 -0.265625 5.445312 -0.410156 5.78125 -0.703125 C 6.125 -1.003906 6.296875 -1.40625 6.296875 -1.90625 C 6.296875 -2.582031 5.90625 -3.148438 5.125 -3.609375 L 3.8125 -4.34375 C 2.84375 -4.90625 2.15625 -5.429688 1.75 -5.921875 C 1.351562 -6.410156 1.15625 -6.972656 1.15625 -7.609375 C 1.15625 -8.441406 1.445312 -9.113281 2.03125 -9.625 C 2.613281 -10.144531 3.363281 -10.40625 4.28125 -10.40625 C 4.84375 -10.40625 5.359375 -10.3125 5.828125 -10.125 C 6.046875 -10.019531 6.25 -9.96875 6.4375 -9.96875 C 6.5 -9.96875 6.601562 -10.03125 6.75 -10.15625 L 6.796875 -10.1875 L 7.046875 -10.1875 L 7.140625 -7.109375 L 6.796875 -7.109375 C 6.535156 -8.117188 6.21875 -8.835938 5.84375 -9.265625 C 5.46875 -9.691406 4.953125 -9.90625 4.296875 -9.90625 C 3.773438 -9.90625 3.351562 -9.765625 3.03125 -9.484375 C 2.71875 -9.203125 2.5625 -8.828125 2.5625 -8.359375 C 2.5625 -7.710938 2.882812 -7.195312 3.53125 -6.8125 L 5.984375 -5.375 C 6.671875 -4.957031 7.160156 -4.546875 7.453125 -4.140625 C 7.742188 -3.734375 7.890625 -3.242188 7.890625 -2.671875 Z M 7.890625 -2.671875 "/></g></g><g style="fill:#000000;fill-opacity:1;"><g transform="translate(186.336624, 317.105667)"><path style="stroke:none" d=""/></g></g><g style="fill:#000000;fill-opacity:1;"><g transform="translate(192.00064, 317.105667)"><path style="stroke:none" d="M 11.03125 0 L 6.234375 0 L 6.234375 -0.34375 C 6.878906 -0.40625 7.296875 -0.554688 7.484375 -0.796875 C 7.671875 -1.035156 7.765625 -1.539062 7.765625 -2.3125 L 7.765625 -6.796875 C 7.765625 -8.398438 7.203125 -9.203125 6.078125 -9.203125 C 5.640625 -9.203125 5.226562 -9.09375 4.84375 -8.875 C 4.457031 -8.65625 4.03125 -8.285156 3.5625 -7.765625 L 3.5625 -2.3125 C 3.5625 -1.519531 3.648438 -1.007812 3.828125 -0.78125 C 4.003906 -0.5625 4.425781 -0.414062 5.09375 -0.34375 L 5.09375 0 L 0.203125 0 L 0.203125 -0.34375 C 0.847656 -0.425781 1.25 -0.570312 1.40625 -0.78125 C 1.570312 -1 1.65625 -1.507812 1.65625 -2.3125 L 1.65625 -12.984375 C 1.65625 -13.460938 1.582031 -13.773438 1.4375 -13.921875 C 1.289062 -14.066406 0.976562 -14.140625 0.5 -14.140625 C 0.375 -14.140625 0.28125 -14.128906 0.21875 -14.109375 L 0.21875 -14.484375 L 0.84375 -14.65625 C 1.863281 -14.945312 2.726562 -15.21875 3.4375 -15.46875 L 3.5625 -15.40625 L 3.5625 -8.515625 C 4.082031 -9.191406 4.597656 -9.675781 5.109375 -9.96875 C 5.628906 -10.269531 6.222656 -10.421875 6.890625 -10.421875 C 8.742188 -10.421875 9.671875 -9.21875 9.671875 -6.8125 L 9.671875 -2.3125 C 9.671875 -1.519531 9.742188 -1.019531 9.890625 -0.8125 C 10.035156 -0.613281 10.414062 -0.457031 11.03125 -0.34375 Z M 11.03125 0 "/></g></g><g style="fill:#000000;fill-opacity:1;"><g transform="translate(203.328652, 317.105667)"><path style="stroke:none" d="M 10.640625 -5.296875 C 10.640625 -3.722656 10.15625 -2.410156 9.1875 -1.359375 C 8.226562 -0.304688 7.035156 0.21875 5.609375 0.21875 C 4.191406 0.21875 3.007812 -0.285156 2.0625 -1.296875 C 1.125 -2.316406 0.65625 -3.59375 0.65625 -5.125 C 0.65625 -6.675781 1.117188 -7.945312 2.046875 -8.9375 C 2.972656 -9.925781 4.175781 -10.421875 5.65625 -10.421875 C 7.113281 -10.421875 8.304688 -9.9375 9.234375 -8.96875 C 10.171875 -8 10.640625 -6.773438 10.640625 -5.296875 Z M 8.609375 -4.515625 C 8.609375 -6.066406 8.304688 -7.332031 7.703125 -8.3125 C 7.097656 -9.289062 6.320312 -9.78125 5.375 -9.78125 C 4.570312 -9.78125 3.925781 -9.457031 3.4375 -8.8125 C 2.945312 -8.164062 2.703125 -7.304688 2.703125 -6.234375 C 2.703125 -4.554688 3.03125 -3.097656 3.6875 -1.859375 C 4.207031 -0.890625 4.941406 -0.40625 5.890625 -0.40625 C 6.734375 -0.40625 7.394531 -0.765625 7.875 -1.484375 C 8.363281 -2.210938 8.609375 -3.222656 8.609375 -4.515625 Z M 8.609375 -4.515625 "/></g></g><g style="fill:#000000;fill-opacity:1;"><g transform="translate(214.656663, 317.105667)"><path style="stroke:none" d="M 17.5625 0 L 12.59375 0 L 12.59375 -0.34375 C 13.257812 -0.414062 13.675781 -0.539062 13.84375 -0.71875 C 14.007812 -0.90625 14.09375 -1.320312 14.09375 -1.96875 L 14.09375 -6.75 C 14.09375 -7.6875 13.96875 -8.335938 13.71875 -8.703125 C 13.476562 -9.066406 13.035156 -9.25 12.390625 -9.25 C 11.390625 -9.25 10.566406 -8.785156 9.921875 -7.859375 L 9.921875 -2.15625 C 9.921875 -1.445312 10.03125 -0.96875 10.25 -0.71875 C 10.46875 -0.476562 10.898438 -0.351562 11.546875 -0.34375 L 11.546875 0 L 6.484375 0 L 6.484375 -0.34375 C 7.128906 -0.382812 7.546875 -0.503906 7.734375 -0.703125 C 7.921875 -0.898438 8.015625 -1.316406 8.015625 -1.953125 L 8.015625 -6.859375 C 8.015625 -8.453125 7.519531 -9.25 6.53125 -9.25 C 6.132812 -9.25 5.71875 -9.160156 5.28125 -8.984375 C 4.84375 -8.804688 4.476562 -8.59375 4.1875 -8.34375 L 3.84375 -7.90625 L 3.84375 -1.515625 C 3.84375 -1.078125 3.945312 -0.78125 4.15625 -0.625 C 4.375 -0.46875 4.785156 -0.375 5.390625 -0.34375 L 5.390625 0 L 0.359375 0 L 0.359375 -0.34375 C 0.992188 -0.351562 1.414062 -0.460938 1.625 -0.671875 C 1.84375 -0.890625 1.953125 -1.304688 1.953125 -1.921875 L 1.953125 -7.65625 C 1.953125 -8.195312 1.894531 -8.570312 1.78125 -8.78125 C 1.664062 -9 1.457031 -9.109375 1.15625 -9.109375 C 0.925781 -9.109375 0.6875 -9.078125 0.4375 -9.015625 L 0.4375 -9.40625 C 1.519531 -9.707031 2.578125 -10.046875 3.609375 -10.421875 L 3.765625 -10.375 L 3.765625 -8.671875 C 4.703125 -9.378906 5.394531 -9.847656 5.84375 -10.078125 C 6.300781 -10.304688 6.773438 -10.421875 7.265625 -10.421875 C 8.460938 -10.421875 9.265625 -9.785156 9.671875 -8.515625 C 10.847656 -9.785156 12.078125 -10.421875 13.359375 -10.421875 C 15.117188 -10.421875 16 -9.078125 16 -6.390625 L 16 -1.71875 C 16 -0.875 16.320312 -0.429688 16.96875 -0.390625 L 17.5625 -0.34375 Z M 17.5625 0 "/></g></g><g style="fill:#000000;fill-opacity:1;"><g transform="translate(232.283056, 317.105667)"><path style="stroke:none" d="M 9.609375 -3.5625 C 8.628906 -1.039062 7.023438 0.21875 4.796875 0.21875 C 3.503906 0.21875 2.472656 -0.234375 1.703125 -1.140625 C 0.941406 -2.054688 0.5625 -3.289062 0.5625 -4.84375 C 0.5625 -6.488281 1 -7.828125 1.875 -8.859375 C 2.75 -9.898438 3.890625 -10.421875 5.296875 -10.421875 C 6.503906 -10.421875 7.472656 -9.988281 8.203125 -9.125 C 8.703125 -8.488281 9.023438 -7.539062 9.171875 -6.28125 L 2.203125 -6.28125 C 2.242188 -4.988281 2.46875 -3.945312 2.875 -3.15625 C 3.519531 -1.945312 4.472656 -1.34375 5.734375 -1.34375 C 6.453125 -1.34375 7.078125 -1.519531 7.609375 -1.875 C 8.148438 -2.238281 8.695312 -2.851562 9.25 -3.71875 Z M 6.859375 -7 C 6.710938 -7.976562 6.476562 -8.65625 6.15625 -9.03125 C 5.84375 -9.414062 5.335938 -9.609375 4.640625 -9.609375 C 3.285156 -9.609375 2.488281 -8.738281 2.25 -7 Z M 6.859375 -7 "/></g></g><g style="fill:#000000;fill-opacity:1;"><g transform="translate(104.547422, 348.257639)"><path style="stroke:none" d="M 10.640625 -5.296875 C 10.640625 -3.722656 10.15625 -2.410156 9.1875 -1.359375 C 8.226562 -0.304688 7.035156 0.21875 5.609375 0.21875 C 4.191406 0.21875 3.007812 -0.285156 2.0625 -1.296875 C 1.125 -2.316406 0.65625 -3.59375 0.65625 -5.125 C 0.65625 -6.675781 1.117188 -7.945312 2.046875 -8.9375 C 2.972656 -9.925781 4.175781 -10.421875 5.65625 -10.421875 C 7.113281 -10.421875 8.304688 -9.9375 9.234375 -8.96875 C 10.171875 -8 10.640625 -6.773438 10.640625 -5.296875 Z M 8.609375 -4.515625 C 8.609375 -6.066406 8.304688 -7.332031 7.703125 -8.3125 C 7.097656 -9.289062 6.320312 -9.78125 5.375 -9.78125 C 4.570312 -9.78125 3.925781 -9.457031 3.4375 -8.8125 C 2.945312 -8.164062 2.703125 -7.304688 2.703125 -6.234375 C 2.703125 -4.554688 3.03125 -3.097656 3.6875 -1.859375 C 4.207031 -0.890625 4.941406 -0.40625 5.890625 -0.40625 C 6.734375 -0.40625 7.394531 -0.765625 7.875 -1.484375 C 8.363281 -2.210938 8.609375 -3.222656 8.609375 -4.515625 Z M 8.609375 -4.515625 "/></g></g><g style="fill:#000000;fill-opacity:1;"><g transform="translate(115.875433, 348.257639)"><path style="stroke:none" d="M 8.671875 -14.0625 C 8.671875 -13.8125 8.582031 -13.59375 8.40625 -13.40625 C 8.226562 -13.226562 8 -13.140625 7.71875 -13.140625 C 7.363281 -13.140625 7.023438 -13.410156 6.703125 -13.953125 C 6.335938 -14.546875 5.9375 -14.84375 5.5 -14.84375 C 4.644531 -14.84375 4.21875 -14.171875 4.21875 -12.828125 L 4.21875 -10.1875 L 7 -10.1875 L 7 -9.46875 L 4.234375 -9.46875 L 4.234375 -2.359375 C 4.234375 -1.515625 4.351562 -0.972656 4.59375 -0.734375 C 4.84375 -0.503906 5.425781 -0.375 6.34375 -0.34375 L 6.34375 0 L 0.453125 0 L 0.453125 -0.34375 C 1.265625 -0.382812 1.78125 -0.519531 2 -0.75 C 2.21875 -0.988281 2.328125 -1.523438 2.328125 -2.359375 L 2.328125 -9.46875 L 0.46875 -9.46875 L 0.46875 -10.1875 L 2.328125 -10.1875 C 2.347656 -11.09375 2.410156 -11.800781 2.515625 -12.3125 C 2.617188 -12.820312 2.820312 -13.332031 3.125 -13.84375 C 3.757812 -14.925781 4.828125 -15.46875 6.328125 -15.46875 C 7.003906 -15.46875 7.5625 -15.335938 8 -15.078125 C 8.445312 -14.816406 8.671875 -14.476562 8.671875 -14.0625 Z M 8.671875 -14.0625 "/></g></g><g style="fill:#000000;fill-opacity:1;"><g transform="translate(123.4199, 348.257639)"><path style="stroke:none" d="M 8.671875 -14.0625 C 8.671875 -13.8125 8.582031 -13.59375 8.40625 -13.40625 C 8.226562 -13.226562 8 -13.140625 7.71875 -13.140625 C 7.363281 -13.140625 7.023438 -13.410156 6.703125 -13.953125 C 6.335938 -14.546875 5.9375 -14.84375 5.5 -14.84375 C 4.644531 -14.84375 4.21875 -14.171875 4.21875 -12.828125 L 4.21875 -10.1875 L 7 -10.1875 L 7 -9.46875 L 4.234375 -9.46875 L 4.234375 -2.359375 C 4.234375 -1.515625 4.351562 -0.972656 4.59375 -0.734375 C 4.84375 -0.503906 5.425781 -0.375 6.34375 -0.34375 L 6.34375 0 L 0.453125 0 L 0.453125 -0.34375 C 1.265625 -0.382812 1.78125 -0.519531 2 -0.75 C 2.21875 -0.988281 2.328125 -1.523438 2.328125 -2.359375 L 2.328125 -9.46875 L 0.46875 -9.46875 L 0.46875 -10.1875 L 2.328125 -10.1875 C 2.347656 -11.09375 2.410156 -11.800781 2.515625 -12.3125 C 2.617188 -12.820312 2.820312 -13.332031 3.125 -13.84375 C 3.757812 -14.925781 4.828125 -15.46875 6.328125 -15.46875 C 7.003906 -15.46875 7.5625 -15.335938 8 -15.078125 C 8.445312 -14.816406 8.671875 -14.476562 8.671875 -14.0625 Z M 8.671875 -14.0625 "/></g></g><g style="fill:#000000;fill-opacity:1;"><g transform="translate(130.964367, 348.257639)"><path style="stroke:none" d="M 5.734375 0 L 0.359375 0 L 0.359375 -0.34375 C 1.148438 -0.382812 1.644531 -0.519531 1.84375 -0.75 C 2.050781 -0.976562 2.15625 -1.5 2.15625 -2.3125 L 2.15625 -7.5625 C 2.15625 -8.0625 2.097656 -8.410156 1.984375 -8.609375 C 1.867188 -8.816406 1.675781 -8.921875 1.40625 -8.921875 C 1.164062 -8.921875 0.910156 -8.898438 0.640625 -8.859375 L 0.453125 -8.828125 L 0.453125 -9.171875 L 3.96875 -10.421875 L 4.0625 -10.359375 L 4.0625 -2.3125 C 4.0625 -1.5 4.15625 -0.984375 4.34375 -0.765625 C 4.53125 -0.546875 4.992188 -0.40625 5.734375 -0.34375 Z M 4.265625 -13.359375 C 4.265625 -13.035156 4.15625 -12.765625 3.9375 -12.546875 C 3.71875 -12.328125 3.441406 -12.21875 3.109375 -12.21875 C 2.785156 -12.21875 2.507812 -12.328125 2.28125 -12.546875 C 2.0625 -12.765625 1.953125 -13.035156 1.953125 -13.359375 C 1.953125 -13.679688 2.0625 -13.953125 2.28125 -14.171875 C 2.507812 -14.398438 2.785156 -14.515625 3.109375 -14.515625 C 3.441406 -14.515625 3.71875 -14.398438 3.9375 -14.171875 C 4.15625 -13.953125 4.265625 -13.679688 4.265625 -13.359375 Z M 4.265625 -13.359375 "/></g></g><g style="fill:#000000;fill-opacity:1;"><g transform="translate(137.262748, 348.257639)"><path style="stroke:none" d="M 9.328125 -3.328125 C 8.679688 -2.054688 8.0625 -1.1875 7.46875 -0.71875 C 6.707031 -0.09375 5.84375 0.21875 4.875 0.21875 C 3.613281 0.21875 2.578125 -0.25 1.765625 -1.1875 C 0.960938 -2.132812 0.5625 -3.335938 0.5625 -4.796875 C 0.5625 -6.722656 1.195312 -8.210938 2.46875 -9.265625 C 3.40625 -10.035156 4.425781 -10.421875 5.53125 -10.421875 C 6.476562 -10.421875 7.296875 -10.191406 7.984375 -9.734375 C 8.671875 -9.273438 9.015625 -8.726562 9.015625 -8.09375 C 9.015625 -7.832031 8.90625 -7.609375 8.6875 -7.421875 C 8.476562 -7.234375 8.234375 -7.140625 7.953125 -7.140625 C 7.421875 -7.140625 7.054688 -7.484375 6.859375 -8.171875 L 6.734375 -8.671875 C 6.609375 -9.097656 6.453125 -9.382812 6.265625 -9.53125 C 6.085938 -9.6875 5.796875 -9.765625 5.390625 -9.765625 C 4.472656 -9.765625 3.726562 -9.398438 3.15625 -8.671875 C 2.59375 -7.953125 2.3125 -7.003906 2.3125 -5.828125 C 2.3125 -4.523438 2.632812 -3.460938 3.28125 -2.640625 C 3.9375 -1.816406 4.785156 -1.40625 5.828125 -1.40625 C 6.472656 -1.40625 7.03125 -1.554688 7.5 -1.859375 C 7.96875 -2.171875 8.472656 -2.726562 9.015625 -3.53125 Z M 9.328125 -3.328125 "/></g></g><g style="fill:#000000;fill-opacity:1;"><g transform="translate(147.32203, 348.257639)"><path style="stroke:none" d="M 9.609375 -3.5625 C 8.628906 -1.039062 7.023438 0.21875 4.796875 0.21875 C 3.503906 0.21875 2.472656 -0.234375 1.703125 -1.140625 C 0.941406 -2.054688 0.5625 -3.289062 0.5625 -4.84375 C 0.5625 -6.488281 1 -7.828125 1.875 -8.859375 C 2.75 -9.898438 3.890625 -10.421875 5.296875 -10.421875 C 6.503906 -10.421875 7.472656 -9.988281 8.203125 -9.125 C 8.703125 -8.488281 9.023438 -7.539062 9.171875 -6.28125 L 2.203125 -6.28125 C 2.242188 -4.988281 2.46875 -3.945312 2.875 -3.15625 C 3.519531 -1.945312 4.472656 -1.34375 5.734375 -1.34375 C 6.453125 -1.34375 7.078125 -1.519531 7.609375 -1.875 C 8.148438 -2.238281 8.695312 -2.851562 9.25 -3.71875 Z M 6.859375 -7 C 6.710938 -7.976562 6.476562 -8.65625 6.15625 -9.03125 C 5.84375 -9.414062 5.335938 -9.609375 4.640625 -9.609375 C 3.285156 -9.609375 2.488281 -8.738281 2.25 -7 Z M 6.859375 -7 "/></g></g><g style="fill:#000000;fill-opacity:1;"><g transform="translate(157.381312, 348.257639)"><path style="stroke:none" d="M 5.34375 -13.5 C 5.34375 -13.300781 5.328125 -13.023438 5.296875 -12.671875 L 4.28125 -3.984375 L 3.984375 -3.984375 L 3.78125 -6.4375 C 3.71875 -7.238281 3.585938 -8.28125 3.390625 -9.5625 C 3.085938 -11.539062 2.9375 -12.878906 2.9375 -13.578125 C 2.9375 -14.097656 3.039062 -14.515625 3.25 -14.828125 C 3.46875 -15.148438 3.765625 -15.3125 4.140625 -15.3125 C 4.941406 -15.3125 5.34375 -14.707031 5.34375 -13.5 Z M 5 -1.859375 C 5.25 -1.617188 5.375 -1.320312 5.375 -0.96875 C 5.375 -0.625 5.253906 -0.34375 5.015625 -0.125 C 4.785156 0.09375 4.488281 0.203125 4.125 0.203125 C 3.789062 0.203125 3.507812 0.09375 3.28125 -0.125 C 3.050781 -0.34375 2.9375 -0.625 2.9375 -0.96875 C 2.9375 -1.320312 3.050781 -1.617188 3.28125 -1.859375 C 3.519531 -2.097656 3.804688 -2.21875 4.140625 -2.21875 C 4.472656 -2.21875 4.757812 -2.097656 5 -1.859375 Z M 5 -1.859375 "/></g></g></g></svg>