<svg xmlns="http://www.w3.org/2000/svg" xmlns:xlink="http://www.w3.org/1999/xlink" width="486" zoomAndPan="magnify" viewBox="0 0 364.5 364.499998" height="486" preserveAspectRatio="xMidYMid meet" version="1.0"><defs><clipPath id="5ab10c7f0f"><path d="M 75.167969 75.441406 L 288.917969 75.441406 L 288.917969 289.191406 L 75.167969 289.191406 Z M 75.167969 75.441406 " clip-rule="nonzero"/></clipPath><clipPath id="058d9db930"><path d="M 155.070312 132.058594 L 176.417969 132.058594 L 176.417969 153.402344 L 155.070312 153.402344 Z M 155.070312 132.058594 " clip-rule="nonzero"/></clipPath><clipPath id="4a793655be"><path d="M 165.742188 132.058594 C 159.847656 132.058594 155.070312 136.835938 155.070312 142.730469 C 155.070312 148.625 159.847656 153.402344 165.742188 153.402344 C 171.636719 153.402344 176.417969 148.625 176.417969 142.730469 C 176.417969 136.835938 171.636719 132.058594 165.742188 132.058594 " clip-rule="nonzero"/></clipPath><clipPath id="a7b6f7662e"><path d="M 187.835938 132.058594 L 209.183594 132.058594 L 209.183594 153.402344 L 187.835938 153.402344 Z M 187.835938 132.058594 " clip-rule="nonzero"/></clipPath><clipPath id="04acd99b62"><path d="M 198.507812 132.058594 C 192.613281 132.058594 187.835938 136.835938 187.835938 142.730469 C 187.835938 148.625 192.613281 153.402344 198.507812 153.402344 C 204.402344 153.402344 209.183594 148.625 209.183594 142.730469 C 209.183594 136.835938 204.402344 132.058594 198.507812 132.058594 " clip-rule="nonzero"/></clipPath></defs><g clip-path="url(#5ab10c7f0f)"><path fill="#000000" d="M 182.042969 75.441406 C 123.113281 75.441406 75.167969 123.386719 75.167969 182.316406 C 75.167969 241.246094 123.113281 289.191406 182.042969 289.191406 C 240.96875 289.191406 288.917969 241.246094 288.917969 182.316406 C 288.917969 123.386719 240.96875 75.441406 182.042969 75.441406 Z M 122.019531 253.929688 C 123.015625 221.644531 149.519531 195.675781 182.042969 195.675781 C 214.566406 195.675781 241.070312 221.644531 242.066406 253.929688 C 225.808594 267.574219 204.878906 275.832031 182.042969 275.832031 C 159.203125 275.832031 138.277344 267.574219 122.019531 253.929688 Z M 148.644531 148.917969 C 148.644531 130.5 163.625 115.519531 182.042969 115.519531 C 200.457031 115.519531 215.441406 130.5 215.441406 148.917969 C 215.441406 167.332031 200.457031 182.316406 182.042969 182.316406 C 163.625 182.316406 148.644531 167.332031 148.644531 148.917969 Z M 254.144531 241.800781 C 249.308594 216.832031 231.792969 196.390625 208.59375 187.351562 C 220.785156 178.910156 228.800781 164.835938 228.800781 148.917969 C 228.800781 123.140625 207.820312 102.160156 182.042969 102.160156 C 156.265625 102.160156 135.285156 123.140625 135.285156 148.917969 C 135.285156 164.835938 143.300781 178.910156 155.492188 187.359375 C 132.292969 196.398438 114.777344 216.835938 109.933594 241.804688 C 96.570312 225.628906 88.527344 204.894531 88.527344 182.316406 C 88.527344 130.75 130.476562 88.800781 182.042969 88.800781 C 233.609375 88.800781 275.558594 130.75 275.558594 182.316406 C 275.558594 204.894531 267.515625 225.628906 254.144531 241.800781 Z M 254.144531 241.800781 " fill-opacity="1" fill-rule="nonzero"/></g><g clip-path="url(#058d9db930)"><g clip-path="url(#4a793655be)"><path fill="#000000" d="M 155.070312 132.058594 L 176.417969 132.058594 L 176.417969 153.402344 L 155.070312 153.402344 Z M 155.070312 132.058594 " fill-opacity="1" fill-rule="nonzero"/></g></g><g clip-path="url(#a7b6f7662e)"><g clip-path="url(#04acd99b62)"><path fill="#000000" d="M 187.835938 132.058594 L 209.183594 132.058594 L 209.183594 153.402344 L 187.835938 153.402344 Z M 187.835938 132.058594 " fill-opacity="1" fill-rule="nonzero"/></g></g><path stroke-linecap="butt" transform="matrix(0.672391, -0.333943, 0.333609, 0.671718, 160.995925, 179.399887)" fill="none" stroke-linejoin="miter" d="M 0.0017692 1.999189 L 77.923117 2.001863 " stroke="#000000" stroke-width="4" stroke-opacity="1" stroke-miterlimit="4"/></svg>