<svg xmlns="http://www.w3.org/2000/svg" xmlns:xlink="http://www.w3.org/1999/xlink" width="360" zoomAndPan="magnify" viewBox="0 0 270 302.999993" height="404" preserveAspectRatio="xMidYMid meet" version="1.2"><defs><clipPath id="c07e9e5a0e"><path d="M 89 77 L 160 77 L 160 94 L 89 94 Z M 89 77 "/></clipPath><clipPath id="caec7bbf92"><path d="M 146.613281 110.460938 L 87.734375 86.015625 L 101.25 53.460938 L 160.125 77.902344 Z M 146.613281 110.460938 "/></clipPath><clipPath id="b201f4b010"><path d="M 146.613281 110.460938 L 87.734375 86.015625 L 101.25 53.460938 L 160.125 77.902344 Z M 146.613281 110.460938 "/></clipPath><clipPath id="83d893eea4"><path d="M 146.613281 110.460938 L 87.734375 86.015625 L 101.25 53.460938 L 160.125 77.902344 Z M 146.613281 110.460938 "/></clipPath><clipPath id="4648c7182a"><path d="M 17.113281 0 L 230.863281 0 L 230.863281 213.75 L 17.113281 213.75 Z M 17.113281 0 "/></clipPath><clipPath id="6cfec950c5"><path d="M 97.015625 53.738281 L 118.363281 53.738281 L 118.363281 75.085938 L 97.015625 75.085938 Z M 97.015625 53.738281 "/></clipPath><clipPath id="9991235b62"><path d="M 107.691406 53.738281 C 101.796875 53.738281 97.015625 58.519531 97.015625 64.414062 C 97.015625 70.308594 101.796875 75.085938 107.691406 75.085938 C 113.585938 75.085938 118.363281 70.308594 118.363281 64.414062 C 118.363281 58.519531 113.585938 53.738281 107.691406 53.738281 Z M 107.691406 53.738281 "/></clipPath><clipPath id="efab40c4e4"><path d="M 129.78125 53.738281 L 151.128906 53.738281 L 151.128906 75.085938 L 129.78125 75.085938 Z M 129.78125 53.738281 "/></clipPath><clipPath id="14dc382d87"><path d="M 140.457031 53.738281 C 134.558594 53.738281 129.78125 58.519531 129.78125 64.414062 C 129.78125 70.308594 134.558594 75.085938 140.457031 75.085938 C 146.351562 75.085938 151.128906 70.308594 151.128906 64.414062 C 151.128906 58.519531 146.351562 53.738281 140.457031 53.738281 Z M 140.457031 53.738281 "/></clipPath></defs><g id="98070166ee"><rect x="0" width="270" y="0" height="302.999993" style="fill:#ffffff;fill-opacity:1;stroke:none;"/><g clip-rule="nonzero" clip-path="url(#c07e9e5a0e)"><g clip-rule="nonzero" clip-path="url(#caec7bbf92)"><g clip-rule="nonzero" clip-path="url(#b201f4b010)"><g clip-rule="nonzero" clip-path="url(#83d893eea4)"><path style=" stroke:none;fill-rule:nonzero;fill:#000000;fill-opacity:1;" d="M 159.171875 77.546875 C 159.332031 77.613281 159.464844 77.714844 159.570312 77.851562 C 159.675781 77.984375 159.738281 78.140625 159.765625 78.308594 C 159.789062 78.480469 159.769531 78.644531 159.707031 78.804688 C 159.644531 78.964844 159.546875 79.101562 159.414062 79.207031 C 150.917969 86.128906 141.960938 90.679688 132.792969 92.726562 C 125.382812 94.382812 117.960938 94.421875 110.53125 92.84375 C 97.898438 90.191406 89.945312 83.90625 89.609375 83.636719 C 89.398438 83.46875 89.277344 83.25 89.25 82.980469 C 89.21875 82.714844 89.289062 82.472656 89.457031 82.261719 C 89.628906 82.050781 89.847656 81.933594 90.113281 81.902344 C 90.382812 81.875 90.625 81.941406 90.835938 82.113281 C 90.941406 82.195312 98.835938 88.410156 111.015625 90.945312 C 122.238281 93.285156 139.53125 92.878906 158.175781 77.691406 C 158.480469 77.445312 158.8125 77.398438 159.171875 77.546875 Z M 159.171875 77.546875 "/></g></g></g></g><g clip-rule="nonzero" clip-path="url(#4648c7182a)"><path style=" stroke:none;fill-rule:nonzero;fill:#000000;fill-opacity:1;" d="M 123.988281 0 C 65.0625 0 17.113281 47.945312 17.113281 106.875 C 17.113281 165.804688 65.0625 213.75 123.988281 213.75 C 182.917969 213.75 230.863281 165.804688 230.863281 106.875 C 230.863281 47.945312 182.917969 0 123.988281 0 Z M 63.964844 178.488281 C 64.960938 146.203125 91.464844 120.234375 123.988281 120.234375 C 156.511719 120.234375 183.019531 146.203125 184.011719 178.488281 C 167.753906 192.132812 146.828125 200.390625 123.988281 200.390625 C 101.152344 200.390625 80.222656 192.132812 63.964844 178.488281 Z M 90.589844 73.476562 C 90.589844 55.0625 105.574219 40.078125 123.988281 40.078125 C 142.40625 40.078125 157.386719 55.0625 157.386719 73.476562 C 157.386719 91.890625 142.40625 106.875 123.988281 106.875 C 105.574219 106.875 90.589844 91.890625 90.589844 73.476562 Z M 196.089844 166.359375 C 191.253906 141.390625 173.738281 120.949219 150.542969 111.910156 C 162.730469 103.46875 170.746094 89.394531 170.746094 73.476562 C 170.746094 47.699219 149.765625 26.71875 123.988281 26.71875 C 98.210938 26.71875 77.230469 47.699219 77.230469 73.476562 C 77.230469 89.394531 85.246094 103.46875 97.4375 111.917969 C 74.238281 120.957031 56.726562 141.394531 51.882812 166.363281 C 38.515625 150.1875 30.472656 129.453125 30.472656 106.875 C 30.472656 55.308594 72.421875 13.359375 123.988281 13.359375 C 175.554688 13.359375 217.503906 55.308594 217.503906 106.875 C 217.503906 129.453125 209.460938 150.1875 196.089844 166.359375 Z M 196.089844 166.359375 "/></g><g clip-rule="nonzero" clip-path="url(#6cfec950c5)"><g clip-rule="nonzero" clip-path="url(#9991235b62)"><path style=" stroke:none;fill-rule:nonzero;fill:#000000;fill-opacity:1;" d="M 97.015625 53.738281 L 118.363281 53.738281 L 118.363281 75.085938 L 97.015625 75.085938 Z M 97.015625 53.738281 "/></g></g><g clip-rule="nonzero" clip-path="url(#efab40c4e4)"><g clip-rule="nonzero" clip-path="url(#14dc382d87)"><path style=" stroke:none;fill-rule:nonzero;fill:#000000;fill-opacity:1;" d="M 129.78125 53.738281 L 151.128906 53.738281 L 151.128906 75.085938 L 129.78125 75.085938 Z M 129.78125 53.738281 "/></g></g><g style="fill:#000000;fill-opacity:1;"><g transform="translate(12.743732, 255.324917)"><path style="stroke:none" d="M 13.46875 -11.171875 L 12.921875 -11.171875 C 12.660156 -12.421875 12.3125 -13.21875 11.875 -13.5625 C 11.445312 -13.90625 10.59375 -14.078125 9.3125 -14.078125 L 8.078125 -14.078125 L 8.078125 -2.46875 C 8.078125 -1.632812 8.207031 -1.097656 8.46875 -0.859375 C 8.726562 -0.617188 9.328125 -0.476562 10.265625 -0.4375 L 10.265625 0 L 3.625 0 L 3.625 -0.4375 C 4.570312 -0.488281 5.164062 -0.640625 5.40625 -0.890625 C 5.644531 -1.140625 5.765625 -1.75 5.765625 -2.71875 L 5.765625 -14.078125 L 4.546875 -14.078125 C 3.273438 -14.078125 2.421875 -13.898438 1.984375 -13.546875 C 1.554688 -13.203125 1.207031 -12.410156 0.9375 -11.171875 L 0.390625 -11.171875 L 0.515625 -15.03125 L 13.328125 -15.03125 Z M 13.46875 -11.171875 "/></g></g><g style="fill:#000000;fill-opacity:1;"><g transform="translate(26.614983, 255.324917)"><path style="stroke:none" d="M 11.0625 0 L 6.25 0 L 6.25 -0.34375 C 6.894531 -0.40625 7.3125 -0.554688 7.5 -0.796875 C 7.6875 -1.035156 7.78125 -1.539062 7.78125 -2.3125 L 7.78125 -6.8125 C 7.78125 -8.414062 7.210938 -9.21875 6.078125 -9.21875 C 5.640625 -9.21875 5.226562 -9.109375 4.84375 -8.890625 C 4.457031 -8.671875 4.03125 -8.300781 3.5625 -7.78125 L 3.5625 -2.3125 C 3.5625 -1.53125 3.648438 -1.023438 3.828125 -0.796875 C 4.015625 -0.566406 4.441406 -0.414062 5.109375 -0.34375 L 5.109375 0 L 0.203125 0 L 0.203125 -0.34375 C 0.859375 -0.4375 1.265625 -0.585938 1.421875 -0.796875 C 1.578125 -1.003906 1.65625 -1.507812 1.65625 -2.3125 L 1.65625 -13.015625 C 1.65625 -13.492188 1.582031 -13.804688 1.4375 -13.953125 C 1.289062 -14.097656 0.976562 -14.171875 0.5 -14.171875 C 0.375 -14.171875 0.285156 -14.160156 0.234375 -14.140625 L 0.234375 -14.5 L 0.84375 -14.6875 C 1.875 -14.976562 2.742188 -15.25 3.453125 -15.5 L 3.5625 -15.4375 L 3.5625 -8.53125 C 4.09375 -9.21875 4.613281 -9.707031 5.125 -10 C 5.644531 -10.289062 6.238281 -10.4375 6.90625 -10.4375 C 8.757812 -10.4375 9.6875 -9.234375 9.6875 -6.828125 L 9.6875 -2.3125 C 9.6875 -1.53125 9.757812 -1.035156 9.90625 -0.828125 C 10.050781 -0.617188 10.4375 -0.457031 11.0625 -0.34375 Z M 11.0625 0 "/></g></g><g style="fill:#000000;fill-opacity:1;"><g transform="translate(37.966255, 255.324917)"><path style="stroke:none" d="M 9.625 -3.5625 C 8.644531 -1.03125 7.039062 0.234375 4.8125 0.234375 C 3.507812 0.234375 2.472656 -0.222656 1.703125 -1.140625 C 0.941406 -2.054688 0.5625 -3.296875 0.5625 -4.859375 C 0.5625 -6.503906 1 -7.84375 1.875 -8.875 C 2.757812 -9.914062 3.90625 -10.4375 5.3125 -10.4375 C 6.519531 -10.4375 7.488281 -10.007812 8.21875 -9.15625 C 8.71875 -8.519531 9.039062 -7.5625 9.1875 -6.28125 L 2.203125 -6.28125 C 2.242188 -5 2.472656 -3.957031 2.890625 -3.15625 C 3.535156 -1.945312 4.488281 -1.34375 5.75 -1.34375 C 6.46875 -1.34375 7.097656 -1.519531 7.640625 -1.875 C 8.179688 -2.238281 8.722656 -2.851562 9.265625 -3.71875 Z M 6.875 -7.015625 C 6.726562 -7.992188 6.492188 -8.671875 6.171875 -9.046875 C 5.859375 -9.429688 5.351562 -9.625 4.65625 -9.625 C 3.289062 -9.625 2.488281 -8.753906 2.25 -7.015625 Z M 6.875 -7.015625 "/></g></g><g style="fill:#000000;fill-opacity:1;"><g transform="translate(48.046192, 255.324917)"><path style="stroke:none" d="M 11.015625 0 L 6.28125 0 L 6.28125 -0.34375 C 6.863281 -0.382812 7.25 -0.535156 7.4375 -0.796875 C 7.625 -1.054688 7.71875 -1.539062 7.71875 -2.25 L 7.71875 -7 C 7.71875 -8.457031 7.164062 -9.1875 6.0625 -9.1875 C 5.6875 -9.1875 5.335938 -9.097656 5.015625 -8.921875 C 4.703125 -8.753906 4.269531 -8.414062 3.71875 -7.90625 L 3.71875 -1.515625 C 3.71875 -1.109375 3.820312 -0.820312 4.03125 -0.65625 C 4.25 -0.488281 4.644531 -0.382812 5.21875 -0.34375 L 5.21875 0 L 0.40625 0 L 0.40625 -0.34375 C 0.976562 -0.382812 1.351562 -0.515625 1.53125 -0.734375 C 1.71875 -0.953125 1.8125 -1.390625 1.8125 -2.046875 L 1.8125 -7.671875 C 1.8125 -8.234375 1.75 -8.613281 1.625 -8.8125 C 1.507812 -9.019531 1.289062 -9.125 0.96875 -9.125 C 0.6875 -9.125 0.484375 -9.09375 0.359375 -9.03125 L 0.359375 -9.421875 C 1.484375 -9.753906 2.53125 -10.09375 3.5 -10.4375 L 3.65625 -10.390625 L 3.65625 -8.609375 C 4.425781 -9.328125 5.035156 -9.8125 5.484375 -10.0625 C 5.929688 -10.3125 6.421875 -10.4375 6.953125 -10.4375 C 7.785156 -10.4375 8.4375 -10.140625 8.90625 -9.546875 C 9.382812 -8.953125 9.625 -8.113281 9.625 -7.03125 L 9.625 -1.84375 C 9.625 -1.28125 9.710938 -0.90625 9.890625 -0.71875 C 10.078125 -0.53125 10.453125 -0.40625 11.015625 -0.34375 Z M 11.015625 0 "/></g></g><g style="fill:#000000;fill-opacity:1;"><g transform="translate(59.397464, 255.324917)"><path style="stroke:none" d=""/></g></g><g style="fill:#000000;fill-opacity:1;"><g transform="translate(65.073111, 255.324917)"><path style="stroke:none" d="M 8.40625 -14.59375 C 7.476562 -14.53125 6.894531 -14.378906 6.65625 -14.140625 C 6.425781 -13.910156 6.3125 -13.382812 6.3125 -12.5625 L 6.3125 -4.15625 C 6.3125 -2.726562 5.976562 -1.625 5.3125 -0.84375 C 4.644531 -0.0703125 3.695312 0.3125 2.46875 0.3125 C 1.820312 0.3125 1.285156 0.160156 0.859375 -0.140625 C 0.441406 -0.441406 0.234375 -0.832031 0.234375 -1.3125 C 0.234375 -1.613281 0.34375 -1.878906 0.5625 -2.109375 C 0.78125 -2.335938 1.039062 -2.453125 1.34375 -2.453125 C 1.894531 -2.453125 2.285156 -2.066406 2.515625 -1.296875 C 2.597656 -1.003906 2.679688 -0.804688 2.765625 -0.703125 C 2.859375 -0.597656 2.984375 -0.546875 3.140625 -0.546875 C 3.710938 -0.546875 4 -1.046875 4 -2.046875 L 4 -12.5625 C 4 -13.382812 3.875 -13.910156 3.625 -14.140625 C 3.382812 -14.378906 2.804688 -14.53125 1.890625 -14.59375 L 1.890625 -15.03125 L 8.40625 -15.03125 Z M 8.40625 -14.59375 "/></g></g><g style="fill:#000000;fill-opacity:1;"><g transform="translate(73.904404, 255.324917)"><path style="stroke:none" d="M 10.671875 -5.3125 C 10.671875 -3.738281 10.1875 -2.421875 9.21875 -1.359375 C 8.25 -0.296875 7.050781 0.234375 5.625 0.234375 C 4.207031 0.234375 3.023438 -0.273438 2.078125 -1.296875 C 1.128906 -2.328125 0.65625 -3.601562 0.65625 -5.125 C 0.65625 -6.6875 1.117188 -7.960938 2.046875 -8.953125 C 2.984375 -9.941406 4.191406 -10.4375 5.671875 -10.4375 C 7.128906 -10.4375 8.328125 -9.953125 9.265625 -8.984375 C 10.203125 -8.015625 10.671875 -6.789062 10.671875 -5.3125 Z M 8.625 -4.515625 C 8.625 -6.078125 8.320312 -7.347656 7.71875 -8.328125 C 7.113281 -9.316406 6.332031 -9.8125 5.375 -9.8125 C 4.570312 -9.8125 3.925781 -9.484375 3.4375 -8.828125 C 2.945312 -8.179688 2.703125 -7.320312 2.703125 -6.25 C 2.703125 -4.5625 3.035156 -3.097656 3.703125 -1.859375 C 4.210938 -0.890625 4.945312 -0.40625 5.90625 -0.40625 C 6.75 -0.40625 7.410156 -0.769531 7.890625 -1.5 C 8.378906 -2.226562 8.625 -3.234375 8.625 -4.515625 Z M 8.625 -4.515625 "/></g></g><g style="fill:#000000;fill-opacity:1;"><g transform="translate(85.255676, 255.324917)"><path style="stroke:none" d="M 9.625 -3.5625 C 8.644531 -1.03125 7.039062 0.234375 4.8125 0.234375 C 3.507812 0.234375 2.472656 -0.222656 1.703125 -1.140625 C 0.941406 -2.054688 0.5625 -3.296875 0.5625 -4.859375 C 0.5625 -6.503906 1 -7.84375 1.875 -8.875 C 2.757812 -9.914062 3.90625 -10.4375 5.3125 -10.4375 C 6.519531 -10.4375 7.488281 -10.007812 8.21875 -9.15625 C 8.71875 -8.519531 9.039062 -7.5625 9.1875 -6.28125 L 2.203125 -6.28125 C 2.242188 -5 2.472656 -3.957031 2.890625 -3.15625 C 3.535156 -1.945312 4.488281 -1.34375 5.75 -1.34375 C 6.46875 -1.34375 7.097656 -1.519531 7.640625 -1.875 C 8.179688 -2.238281 8.722656 -2.851562 9.265625 -3.71875 Z M 6.875 -7.015625 C 6.726562 -7.992188 6.492188 -8.671875 6.171875 -9.046875 C 5.859375 -9.429688 5.351562 -9.625 4.65625 -9.625 C 3.289062 -9.625 2.488281 -8.753906 2.25 -7.015625 Z M 6.875 -7.015625 "/></g></g><g style="fill:#000000;fill-opacity:1;"><g transform="translate(95.335614, 255.324917)"><path style="stroke:none" d=""/></g></g><g style="fill:#000000;fill-opacity:1;"><g transform="translate(101.01126, 255.324917)"><path style="stroke:none" d="M 7.609375 -9.234375 C 7.609375 -8.921875 7.523438 -8.671875 7.359375 -8.484375 C 7.203125 -8.304688 6.988281 -8.21875 6.71875 -8.21875 C 6.457031 -8.21875 6.15625 -8.367188 5.8125 -8.671875 C 5.570312 -8.898438 5.375 -9.015625 5.21875 -9.015625 C 4.914062 -9.015625 4.570312 -8.796875 4.1875 -8.359375 C 3.8125 -7.921875 3.625 -7.519531 3.625 -7.15625 L 3.625 -2.046875 C 3.625 -1.390625 3.753906 -0.945312 4.015625 -0.71875 C 4.273438 -0.5 4.789062 -0.375 5.5625 -0.34375 L 5.5625 0 L 0.109375 0 L 0.109375 -0.34375 C 0.835938 -0.476562 1.285156 -0.628906 1.453125 -0.796875 C 1.628906 -0.960938 1.71875 -1.332031 1.71875 -1.90625 L 1.71875 -7.578125 C 1.71875 -8.078125 1.660156 -8.425781 1.546875 -8.625 C 1.441406 -8.832031 1.242188 -8.9375 0.953125 -8.9375 C 0.710938 -8.9375 0.445312 -8.910156 0.15625 -8.859375 L 0.15625 -9.21875 C 1.363281 -9.613281 2.484375 -10.019531 3.515625 -10.4375 L 3.625 -10.390625 L 3.625 -8.3125 C 4.1875 -9.113281 4.664062 -9.664062 5.0625 -9.96875 C 5.457031 -10.28125 5.890625 -10.4375 6.359375 -10.4375 C 6.753906 -10.4375 7.0625 -10.332031 7.28125 -10.125 C 7.5 -9.914062 7.609375 -9.617188 7.609375 -9.234375 Z M 7.609375 -9.234375 "/></g></g><g style="fill:#000000;fill-opacity:1;"><g transform="translate(108.571219, 255.324917)"><path style="stroke:none" d="M 9.625 -3.5625 C 8.644531 -1.03125 7.039062 0.234375 4.8125 0.234375 C 3.507812 0.234375 2.472656 -0.222656 1.703125 -1.140625 C 0.941406 -2.054688 0.5625 -3.296875 0.5625 -4.859375 C 0.5625 -6.503906 1 -7.84375 1.875 -8.875 C 2.757812 -9.914062 3.90625 -10.4375 5.3125 -10.4375 C 6.519531 -10.4375 7.488281 -10.007812 8.21875 -9.15625 C 8.71875 -8.519531 9.039062 -7.5625 9.1875 -6.28125 L 2.203125 -6.28125 C 2.242188 -5 2.472656 -3.957031 2.890625 -3.15625 C 3.535156 -1.945312 4.488281 -1.34375 5.75 -1.34375 C 6.46875 -1.34375 7.097656 -1.519531 7.640625 -1.875 C 8.179688 -2.238281 8.722656 -2.851562 9.265625 -3.71875 Z M 6.875 -7.015625 C 6.726562 -7.992188 6.492188 -8.671875 6.171875 -9.046875 C 5.859375 -9.429688 5.351562 -9.625 4.65625 -9.625 C 3.289062 -9.625 2.488281 -8.753906 2.25 -7.015625 Z M 6.875 -7.015625 "/></g></g><g style="fill:#000000;fill-opacity:1;"><g transform="translate(118.651156, 255.324917)"><path style="stroke:none" d="M 17.59375 0 L 12.625 0 L 12.625 -0.34375 C 13.289062 -0.414062 13.707031 -0.539062 13.875 -0.71875 C 14.039062 -0.90625 14.125 -1.320312 14.125 -1.96875 L 14.125 -6.765625 C 14.125 -7.703125 14 -8.351562 13.75 -8.71875 C 13.507812 -9.082031 13.066406 -9.265625 12.421875 -9.265625 C 11.421875 -9.265625 10.59375 -8.800781 9.9375 -7.875 L 9.9375 -2.15625 C 9.9375 -1.445312 10.046875 -0.96875 10.265625 -0.71875 C 10.492188 -0.476562 10.929688 -0.351562 11.578125 -0.34375 L 11.578125 0 L 6.5 0 L 6.5 -0.34375 C 7.144531 -0.382812 7.5625 -0.503906 7.75 -0.703125 C 7.9375 -0.898438 8.03125 -1.316406 8.03125 -1.953125 L 8.03125 -6.875 C 8.03125 -8.46875 7.53125 -9.265625 6.53125 -9.265625 C 6.144531 -9.265625 5.726562 -9.175781 5.28125 -9 C 4.84375 -8.820312 4.484375 -8.609375 4.203125 -8.359375 L 3.859375 -7.921875 L 3.859375 -1.515625 C 3.859375 -1.078125 3.960938 -0.78125 4.171875 -0.625 C 4.390625 -0.46875 4.800781 -0.375 5.40625 -0.34375 L 5.40625 0 L 0.359375 0 L 0.359375 -0.34375 C 0.992188 -0.351562 1.414062 -0.460938 1.625 -0.671875 C 1.84375 -0.890625 1.953125 -1.3125 1.953125 -1.9375 L 1.953125 -7.671875 C 1.953125 -8.210938 1.894531 -8.585938 1.78125 -8.796875 C 1.664062 -9.015625 1.457031 -9.125 1.15625 -9.125 C 0.925781 -9.125 0.6875 -9.09375 0.4375 -9.03125 L 0.4375 -9.421875 C 1.519531 -9.722656 2.578125 -10.0625 3.609375 -10.4375 L 3.765625 -10.390625 L 3.765625 -8.703125 C 4.703125 -9.410156 5.394531 -9.875 5.84375 -10.09375 C 6.300781 -10.320312 6.78125 -10.4375 7.28125 -10.4375 C 8.476562 -10.4375 9.28125 -9.800781 9.6875 -8.53125 C 10.875 -9.800781 12.109375 -10.4375 13.390625 -10.4375 C 15.148438 -10.4375 16.03125 -9.09375 16.03125 -6.40625 L 16.03125 -1.71875 C 16.03125 -0.875 16.351562 -0.429688 17 -0.390625 L 17.59375 -0.34375 Z M 17.59375 0 "/></g></g><g style="fill:#000000;fill-opacity:1;"><g transform="translate(136.313742, 255.324917)"><path style="stroke:none" d="M 9.625 -3.5625 C 8.644531 -1.03125 7.039062 0.234375 4.8125 0.234375 C 3.507812 0.234375 2.472656 -0.222656 1.703125 -1.140625 C 0.941406 -2.054688 0.5625 -3.296875 0.5625 -4.859375 C 0.5625 -6.503906 1 -7.84375 1.875 -8.875 C 2.757812 -9.914062 3.90625 -10.4375 5.3125 -10.4375 C 6.519531 -10.4375 7.488281 -10.007812 8.21875 -9.15625 C 8.71875 -8.519531 9.039062 -7.5625 9.1875 -6.28125 L 2.203125 -6.28125 C 2.242188 -5 2.472656 -3.957031 2.890625 -3.15625 C 3.535156 -1.945312 4.488281 -1.34375 5.75 -1.34375 C 6.46875 -1.34375 7.097656 -1.519531 7.640625 -1.875 C 8.179688 -2.238281 8.722656 -2.851562 9.265625 -3.71875 Z M 6.875 -7.015625 C 6.726562 -7.992188 6.492188 -8.671875 6.171875 -9.046875 C 5.859375 -9.429688 5.351562 -9.625 4.65625 -9.625 C 3.289062 -9.625 2.488281 -8.753906 2.25 -7.015625 Z M 6.875 -7.015625 "/></g></g><g style="fill:#000000;fill-opacity:1;"><g transform="translate(146.39368, 255.324917)"><path style="stroke:none" d="M 17.59375 0 L 12.625 0 L 12.625 -0.34375 C 13.289062 -0.414062 13.707031 -0.539062 13.875 -0.71875 C 14.039062 -0.90625 14.125 -1.320312 14.125 -1.96875 L 14.125 -6.765625 C 14.125 -7.703125 14 -8.351562 13.75 -8.71875 C 13.507812 -9.082031 13.066406 -9.265625 12.421875 -9.265625 C 11.421875 -9.265625 10.59375 -8.800781 9.9375 -7.875 L 9.9375 -2.15625 C 9.9375 -1.445312 10.046875 -0.96875 10.265625 -0.71875 C 10.492188 -0.476562 10.929688 -0.351562 11.578125 -0.34375 L 11.578125 0 L 6.5 0 L 6.5 -0.34375 C 7.144531 -0.382812 7.5625 -0.503906 7.75 -0.703125 C 7.9375 -0.898438 8.03125 -1.316406 8.03125 -1.953125 L 8.03125 -6.875 C 8.03125 -8.46875 7.53125 -9.265625 6.53125 -9.265625 C 6.144531 -9.265625 5.726562 -9.175781 5.28125 -9 C 4.84375 -8.820312 4.484375 -8.609375 4.203125 -8.359375 L 3.859375 -7.921875 L 3.859375 -1.515625 C 3.859375 -1.078125 3.960938 -0.78125 4.171875 -0.625 C 4.390625 -0.46875 4.800781 -0.375 5.40625 -0.34375 L 5.40625 0 L 0.359375 0 L 0.359375 -0.34375 C 0.992188 -0.351562 1.414062 -0.460938 1.625 -0.671875 C 1.84375 -0.890625 1.953125 -1.3125 1.953125 -1.9375 L 1.953125 -7.671875 C 1.953125 -8.210938 1.894531 -8.585938 1.78125 -8.796875 C 1.664062 -9.015625 1.457031 -9.125 1.15625 -9.125 C 0.925781 -9.125 0.6875 -9.09375 0.4375 -9.03125 L 0.4375 -9.421875 C 1.519531 -9.722656 2.578125 -10.0625 3.609375 -10.4375 L 3.765625 -10.390625 L 3.765625 -8.703125 C 4.703125 -9.410156 5.394531 -9.875 5.84375 -10.09375 C 6.300781 -10.320312 6.78125 -10.4375 7.28125 -10.4375 C 8.476562 -10.4375 9.28125 -9.800781 9.6875 -8.53125 C 10.875 -9.800781 12.109375 -10.4375 13.390625 -10.4375 C 15.148438 -10.4375 16.03125 -9.09375 16.03125 -6.40625 L 16.03125 -1.71875 C 16.03125 -0.875 16.351562 -0.429688 17 -0.390625 L 17.59375 -0.34375 Z M 17.59375 0 "/></g></g><g style="fill:#000000;fill-opacity:1;"><g transform="translate(164.056266, 255.324917)"><path style="stroke:none" d="M 10.625 -5.515625 C 10.625 -3.898438 10.113281 -2.535156 9.09375 -1.421875 C 8.070312 -0.316406 6.8125 0.234375 5.3125 0.234375 C 4.40625 0.234375 3.550781 0.078125 2.75 -0.234375 C 1.957031 -0.546875 1.5625 -0.875 1.5625 -1.21875 L 1.5625 -13.015625 C 1.5625 -13.484375 1.488281 -13.789062 1.34375 -13.9375 C 1.207031 -14.09375 0.910156 -14.171875 0.453125 -14.171875 C 0.285156 -14.171875 0.15625 -14.160156 0.0625 -14.140625 L 0.0625 -14.5 L 0.71875 -14.6875 C 1.738281 -14.976562 2.617188 -15.25 3.359375 -15.5 L 3.46875 -15.453125 L 3.46875 -8.515625 C 3.695312 -9.078125 4.101562 -9.535156 4.6875 -9.890625 C 5.28125 -10.253906 5.925781 -10.4375 6.625 -10.4375 C 7.757812 -10.4375 8.707031 -9.960938 9.46875 -9.015625 C 10.238281 -8.078125 10.625 -6.910156 10.625 -5.515625 Z M 8.625 -4.46875 C 8.625 -5.84375 8.363281 -6.941406 7.84375 -7.765625 C 7.320312 -8.597656 6.613281 -9.015625 5.71875 -9.015625 C 5.125 -9.015625 4.597656 -8.835938 4.140625 -8.484375 C 3.691406 -8.140625 3.46875 -7.75 3.46875 -7.3125 L 3.46875 -1.59375 C 3.46875 -1.300781 3.6875 -1.046875 4.125 -0.828125 C 4.570312 -0.609375 5.085938 -0.5 5.671875 -0.5 C 6.609375 -0.5 7.332031 -0.847656 7.84375 -1.546875 C 8.363281 -2.242188 8.625 -3.21875 8.625 -4.46875 Z M 8.625 -4.46875 "/></g></g><g style="fill:#000000;fill-opacity:1;"><g transform="translate(175.407538, 255.324917)"><path style="stroke:none" d="M 9.625 -3.5625 C 8.644531 -1.03125 7.039062 0.234375 4.8125 0.234375 C 3.507812 0.234375 2.472656 -0.222656 1.703125 -1.140625 C 0.941406 -2.054688 0.5625 -3.296875 0.5625 -4.859375 C 0.5625 -6.503906 1 -7.84375 1.875 -8.875 C 2.757812 -9.914062 3.90625 -10.4375 5.3125 -10.4375 C 6.519531 -10.4375 7.488281 -10.007812 8.21875 -9.15625 C 8.71875 -8.519531 9.039062 -7.5625 9.1875 -6.28125 L 2.203125 -6.28125 C 2.242188 -5 2.472656 -3.957031 2.890625 -3.15625 C 3.535156 -1.945312 4.488281 -1.34375 5.75 -1.34375 C 6.46875 -1.34375 7.097656 -1.519531 7.640625 -1.875 C 8.179688 -2.238281 8.722656 -2.851562 9.265625 -3.71875 Z M 6.875 -7.015625 C 6.726562 -7.992188 6.492188 -8.671875 6.171875 -9.046875 C 5.859375 -9.429688 5.351562 -9.625 4.65625 -9.625 C 3.289062 -9.625 2.488281 -8.753906 2.25 -7.015625 Z M 6.875 -7.015625 "/></g></g><g style="fill:#000000;fill-opacity:1;"><g transform="translate(185.487475, 255.324917)"><path style="stroke:none" d="M 7.609375 -9.234375 C 7.609375 -8.921875 7.523438 -8.671875 7.359375 -8.484375 C 7.203125 -8.304688 6.988281 -8.21875 6.71875 -8.21875 C 6.457031 -8.21875 6.15625 -8.367188 5.8125 -8.671875 C 5.570312 -8.898438 5.375 -9.015625 5.21875 -9.015625 C 4.914062 -9.015625 4.570312 -8.796875 4.1875 -8.359375 C 3.8125 -7.921875 3.625 -7.519531 3.625 -7.15625 L 3.625 -2.046875 C 3.625 -1.390625 3.753906 -0.945312 4.015625 -0.71875 C 4.273438 -0.5 4.789062 -0.375 5.5625 -0.34375 L 5.5625 0 L 0.109375 0 L 0.109375 -0.34375 C 0.835938 -0.476562 1.285156 -0.628906 1.453125 -0.796875 C 1.628906 -0.960938 1.71875 -1.332031 1.71875 -1.90625 L 1.71875 -7.578125 C 1.71875 -8.078125 1.660156 -8.425781 1.546875 -8.625 C 1.441406 -8.832031 1.242188 -8.9375 0.953125 -8.9375 C 0.710938 -8.9375 0.445312 -8.910156 0.15625 -8.859375 L 0.15625 -9.21875 C 1.363281 -9.613281 2.484375 -10.019531 3.515625 -10.4375 L 3.625 -10.390625 L 3.625 -8.3125 C 4.1875 -9.113281 4.664062 -9.664062 5.0625 -9.96875 C 5.457031 -10.28125 5.890625 -10.4375 6.359375 -10.4375 C 6.753906 -10.4375 7.0625 -10.332031 7.28125 -10.125 C 7.5 -9.914062 7.609375 -9.617188 7.609375 -9.234375 Z M 7.609375 -9.234375 "/></g></g><g style="fill:#000000;fill-opacity:1;"><g transform="translate(193.047434, 255.324917)"><path style="stroke:none" d="M 7.90625 -2.671875 C 7.90625 -1.890625 7.585938 -1.207031 6.953125 -0.625 C 6.328125 -0.0507812 5.582031 0.234375 4.71875 0.234375 C 4.3125 0.234375 3.753906 0.15625 3.046875 0 C 2.554688 -0.125 2.207031 -0.1875 2 -0.1875 C 1.769531 -0.1875 1.59375 -0.09375 1.46875 0.09375 L 1.1875 0.09375 L 1.1875 -3.453125 L 1.546875 -3.453125 C 1.804688 -2.296875 2.15625 -1.472656 2.59375 -0.984375 C 3.03125 -0.503906 3.640625 -0.265625 4.421875 -0.265625 C 5.003906 -0.265625 5.460938 -0.410156 5.796875 -0.703125 C 6.140625 -1.003906 6.3125 -1.40625 6.3125 -1.90625 C 6.3125 -2.582031 5.914062 -3.148438 5.125 -3.609375 L 3.8125 -4.359375 C 2.84375 -4.921875 2.15625 -5.445312 1.75 -5.9375 C 1.351562 -6.425781 1.15625 -6.988281 1.15625 -7.625 C 1.15625 -8.457031 1.445312 -9.128906 2.03125 -9.640625 C 2.613281 -10.160156 3.367188 -10.421875 4.296875 -10.421875 C 4.847656 -10.421875 5.359375 -10.328125 5.828125 -10.140625 C 6.054688 -10.035156 6.265625 -9.984375 6.453125 -9.984375 C 6.503906 -9.984375 6.609375 -10.046875 6.765625 -10.171875 L 6.8125 -10.21875 L 7.0625 -10.21875 L 7.15625 -7.125 L 6.8125 -7.125 C 6.550781 -8.144531 6.234375 -8.863281 5.859375 -9.28125 C 5.484375 -9.707031 4.96875 -9.921875 4.3125 -9.921875 C 3.78125 -9.921875 3.351562 -9.78125 3.03125 -9.5 C 2.71875 -9.21875 2.5625 -8.84375 2.5625 -8.375 C 2.5625 -7.726562 2.890625 -7.210938 3.546875 -6.828125 L 6 -5.375 C 6.6875 -4.96875 7.175781 -4.5625 7.46875 -4.15625 C 7.757812 -3.75 7.90625 -3.253906 7.90625 -2.671875 Z M 7.90625 -2.671875 "/></g></g><g style="fill:#000000;fill-opacity:1;"><g transform="translate(201.878727, 255.324917)"><path style="stroke:none" d=""/></g></g><g style="fill:#000000;fill-opacity:1;"><g transform="translate(207.554374, 255.324917)"><path style="stroke:none" d="M 15.546875 -7.578125 C 15.546875 -5.273438 14.773438 -3.421875 13.234375 -2.015625 C 12.535156 -1.378906 11.617188 -0.882812 10.484375 -0.53125 C 9.347656 -0.175781 8.125 0 6.8125 0 L 0.359375 0 L 0.359375 -0.4375 C 1.222656 -0.488281 1.769531 -0.632812 2 -0.875 C 2.238281 -1.125 2.359375 -1.65625 2.359375 -2.46875 L 2.359375 -12.5625 C 2.359375 -13.382812 2.25 -13.910156 2.03125 -14.140625 C 1.8125 -14.367188 1.253906 -14.519531 0.359375 -14.59375 L 0.359375 -15.03125 L 6.5 -15.03125 C 9.6875 -15.03125 12.0625 -14.234375 13.625 -12.640625 C 14.90625 -11.359375 15.546875 -9.671875 15.546875 -7.578125 Z M 13.078125 -7.421875 C 13.078125 -9.929688 12.175781 -11.804688 10.375 -13.046875 C 9.300781 -13.804688 7.796875 -14.1875 5.859375 -14.1875 C 5.390625 -14.1875 5.070312 -14.125 4.90625 -14 C 4.75 -13.882812 4.671875 -13.648438 4.671875 -13.296875 L 4.671875 -1.765625 C 4.671875 -1.398438 4.753906 -1.15625 4.921875 -1.03125 C 5.085938 -0.90625 5.398438 -0.84375 5.859375 -0.84375 C 7.734375 -0.84375 9.21875 -1.148438 10.3125 -1.765625 C 12.15625 -2.835938 13.078125 -4.722656 13.078125 -7.421875 Z M 13.078125 -7.421875 "/></g></g><g style="fill:#000000;fill-opacity:1;"><g transform="translate(223.945604, 255.324917)"><path style="stroke:none" d="M 16.03125 0 L 10.234375 0 L 10.234375 -0.4375 C 10.859375 -0.4375 11.285156 -0.503906 11.515625 -0.640625 C 11.722656 -0.742188 11.828125 -0.925781 11.828125 -1.1875 C 11.828125 -1.539062 11.679688 -2.050781 11.390625 -2.71875 L 10.46875 -4.90625 L 4.515625 -4.90625 L 3.46875 -2.25 C 3.351562 -1.925781 3.296875 -1.628906 3.296875 -1.359375 C 3.296875 -0.742188 3.804688 -0.4375 4.828125 -0.4375 L 4.828125 0 L 0.34375 0 L 0.34375 -0.4375 C 0.882812 -0.46875 1.304688 -0.679688 1.609375 -1.078125 C 1.910156 -1.484375 2.425781 -2.507812 3.15625 -4.15625 L 7.875 -15.296875 L 8.328125 -15.296875 L 13.984375 -2.40625 C 14.378906 -1.5625 14.6875 -1.03125 14.90625 -0.8125 C 15.132812 -0.59375 15.507812 -0.46875 16.03125 -0.4375 Z M 10.140625 -5.828125 L 7.515625 -12.078125 L 4.90625 -5.828125 Z M 10.140625 -5.828125 "/></g></g><g style="fill:#000000;fill-opacity:1;"><g transform="translate(240.336833, 255.324917)"><path style="stroke:none" d="M 15.9375 0 L 9.625 0 L 9.625 -0.4375 C 10.5 -0.488281 11.050781 -0.644531 11.28125 -0.90625 C 11.507812 -1.164062 11.625 -1.769531 11.625 -2.71875 L 11.625 -7.15625 L 4.75 -7.15625 L 4.75 -2.46875 C 4.75 -1.664062 4.867188 -1.144531 5.109375 -0.90625 C 5.347656 -0.664062 5.894531 -0.507812 6.75 -0.4375 L 6.75 0 L 0.4375 0 L 0.4375 -0.4375 C 1.3125 -0.488281 1.859375 -0.644531 2.078125 -0.90625 C 2.304688 -1.164062 2.421875 -1.769531 2.421875 -2.71875 L 2.421875 -12.5625 C 2.421875 -13.375 2.304688 -13.894531 2.078125 -14.125 C 1.859375 -14.363281 1.3125 -14.519531 0.4375 -14.59375 L 0.4375 -15.03125 L 6.75 -15.03125 L 6.75 -14.59375 C 5.863281 -14.519531 5.304688 -14.363281 5.078125 -14.125 C 4.859375 -13.894531 4.75 -13.375 4.75 -12.5625 L 4.75 -8.15625 L 11.625 -8.15625 L 11.625 -12.5625 C 11.625 -13.375 11.507812 -13.894531 11.28125 -14.125 C 11.050781 -14.363281 10.5 -14.519531 9.625 -14.59375 L 9.625 -15.03125 L 15.9375 -15.03125 L 15.9375 -14.59375 C 15.0625 -14.519531 14.507812 -14.363281 14.28125 -14.125 C 14.050781 -13.894531 13.9375 -13.375 13.9375 -12.5625 L 13.9375 -2.46875 C 13.9375 -1.664062 14.054688 -1.144531 14.296875 -0.90625 C 14.546875 -0.664062 15.09375 -0.507812 15.9375 -0.4375 Z M 15.9375 0 "/></g></g><g style="fill:#000000;fill-opacity:1;"><g transform="translate(94.68557, 286.540855)"><path style="stroke:none" d="M 8.703125 -14.09375 C 8.703125 -13.84375 8.609375 -13.625 8.421875 -13.4375 C 8.242188 -13.257812 8.015625 -13.171875 7.734375 -13.171875 C 7.378906 -13.171875 7.039062 -13.441406 6.71875 -13.984375 C 6.351562 -14.578125 5.953125 -14.875 5.515625 -14.875 C 4.648438 -14.875 4.21875 -14.195312 4.21875 -12.84375 L 4.21875 -10.21875 L 7.015625 -10.21875 L 7.015625 -9.484375 L 4.25 -9.484375 L 4.25 -2.359375 C 4.25 -1.515625 4.367188 -0.972656 4.609375 -0.734375 C 4.847656 -0.503906 5.429688 -0.375 6.359375 -0.34375 L 6.359375 0 L 0.453125 0 L 0.453125 -0.34375 C 1.273438 -0.382812 1.796875 -0.519531 2.015625 -0.75 C 2.234375 -0.988281 2.34375 -1.523438 2.34375 -2.359375 L 2.34375 -9.484375 L 0.484375 -9.484375 L 0.484375 -10.21875 L 2.34375 -10.21875 C 2.351562 -11.125 2.410156 -11.828125 2.515625 -12.328125 C 2.617188 -12.835938 2.828125 -13.351562 3.140625 -13.875 C 3.773438 -14.957031 4.835938 -15.5 6.328125 -15.5 C 7.015625 -15.5 7.582031 -15.367188 8.03125 -15.109375 C 8.476562 -14.847656 8.703125 -14.507812 8.703125 -14.09375 Z M 8.703125 -14.09375 "/></g></g><g style="fill:#000000;fill-opacity:1;"><g transform="translate(102.245528, 286.540855)"><path style="stroke:none" d="M 10.671875 -5.3125 C 10.671875 -3.738281 10.1875 -2.421875 9.21875 -1.359375 C 8.25 -0.296875 7.050781 0.234375 5.625 0.234375 C 4.207031 0.234375 3.023438 -0.273438 2.078125 -1.296875 C 1.128906 -2.328125 0.65625 -3.601562 0.65625 -5.125 C 0.65625 -6.6875 1.117188 -7.960938 2.046875 -8.953125 C 2.984375 -9.941406 4.191406 -10.4375 5.671875 -10.4375 C 7.128906 -10.4375 8.328125 -9.953125 9.265625 -8.984375 C 10.203125 -8.015625 10.671875 -6.789062 10.671875 -5.3125 Z M 8.625 -4.515625 C 8.625 -6.078125 8.320312 -7.347656 7.71875 -8.328125 C 7.113281 -9.316406 6.332031 -9.8125 5.375 -9.8125 C 4.570312 -9.8125 3.925781 -9.484375 3.4375 -8.828125 C 2.945312 -8.179688 2.703125 -7.320312 2.703125 -6.25 C 2.703125 -4.5625 3.035156 -3.097656 3.703125 -1.859375 C 4.210938 -0.890625 4.945312 -0.40625 5.90625 -0.40625 C 6.75 -0.40625 7.410156 -0.769531 7.890625 -1.5 C 8.378906 -2.226562 8.625 -3.234375 8.625 -4.515625 Z M 8.625 -4.515625 "/></g></g><g style="fill:#000000;fill-opacity:1;"><g transform="translate(113.5968, 286.540855)"><path style="stroke:none" d="M 7.609375 -9.234375 C 7.609375 -8.921875 7.523438 -8.671875 7.359375 -8.484375 C 7.203125 -8.304688 6.988281 -8.21875 6.71875 -8.21875 C 6.457031 -8.21875 6.15625 -8.367188 5.8125 -8.671875 C 5.570312 -8.898438 5.375 -9.015625 5.21875 -9.015625 C 4.914062 -9.015625 4.570312 -8.796875 4.1875 -8.359375 C 3.8125 -7.921875 3.625 -7.519531 3.625 -7.15625 L 3.625 -2.046875 C 3.625 -1.390625 3.753906 -0.945312 4.015625 -0.71875 C 4.273438 -0.5 4.789062 -0.375 5.5625 -0.34375 L 5.5625 0 L 0.109375 0 L 0.109375 -0.34375 C 0.835938 -0.476562 1.285156 -0.628906 1.453125 -0.796875 C 1.628906 -0.960938 1.71875 -1.332031 1.71875 -1.90625 L 1.71875 -7.578125 C 1.71875 -8.078125 1.660156 -8.425781 1.546875 -8.625 C 1.441406 -8.832031 1.242188 -8.9375 0.953125 -8.9375 C 0.710938 -8.9375 0.445312 -8.910156 0.15625 -8.859375 L 0.15625 -9.21875 C 1.363281 -9.613281 2.484375 -10.019531 3.515625 -10.4375 L 3.625 -10.390625 L 3.625 -8.3125 C 4.1875 -9.113281 4.664062 -9.664062 5.0625 -9.96875 C 5.457031 -10.28125 5.890625 -10.4375 6.359375 -10.4375 C 6.753906 -10.4375 7.0625 -10.332031 7.28125 -10.125 C 7.5 -9.914062 7.609375 -9.617188 7.609375 -9.234375 Z M 7.609375 -9.234375 "/></g></g><g style="fill:#000000;fill-opacity:1;"><g transform="translate(121.156759, 286.540855)"><path style="stroke:none" d=""/></g></g><g style="fill:#000000;fill-opacity:1;"><g transform="translate(126.832406, 286.540855)"><path style="stroke:none" d="M 16 -14.59375 C 15.0625 -14.476562 14.472656 -14.253906 14.234375 -13.921875 C 13.992188 -13.585938 13.875 -12.84375 13.875 -11.6875 L 13.875 -5.765625 C 13.875 -4.148438 13.625 -2.898438 13.125 -2.015625 C 12.226562 -0.460938 10.539062 0.3125 8.0625 0.3125 C 6.125 0.3125 4.6875 -0.15625 3.75 -1.09375 C 2.820312 -2.039062 2.359375 -3.5 2.359375 -5.46875 L 2.359375 -12.5625 C 2.359375 -13.382812 2.238281 -13.910156 2 -14.140625 C 1.769531 -14.367188 1.207031 -14.519531 0.3125 -14.59375 L 0.3125 -15.03125 L 6.75 -15.03125 L 6.75 -14.59375 C 5.832031 -14.519531 5.253906 -14.363281 5.015625 -14.125 C 4.785156 -13.894531 4.671875 -13.375 4.671875 -12.5625 L 4.671875 -5.296875 C 4.671875 -3.960938 4.863281 -2.960938 5.25 -2.296875 C 5.863281 -1.222656 6.972656 -0.6875 8.578125 -0.6875 C 9.429688 -0.6875 10.195312 -0.847656 10.875 -1.171875 C 11.550781 -1.492188 12.039062 -1.925781 12.34375 -2.46875 C 12.695312 -3.125 12.875 -4.15625 12.875 -5.5625 L 12.875 -11.6875 C 12.875 -12.820312 12.738281 -13.570312 12.46875 -13.9375 C 12.195312 -14.3125 11.617188 -14.53125 10.734375 -14.59375 L 10.734375 -15.03125 L 16 -15.03125 Z M 16 -14.59375 "/></g></g><g style="fill:#000000;fill-opacity:1;"><g transform="translate(143.223636, 286.540855)"><path style="stroke:none" d="M 10.875 0 L 6.3125 0 L 6.3125 -0.34375 C 6.6875 -0.375 6.929688 -0.421875 7.046875 -0.484375 C 7.160156 -0.554688 7.21875 -0.691406 7.21875 -0.890625 C 7.21875 -1.023438 7.171875 -1.160156 7.078125 -1.296875 L 5.015625 -4.46875 L 3.21875 -1.6875 C 2.914062 -1.207031 2.765625 -0.894531 2.765625 -0.75 C 2.765625 -0.476562 3.066406 -0.34375 3.671875 -0.34375 L 3.671875 0 L 0.390625 0 L 0.390625 -0.34375 C 0.765625 -0.375 1.046875 -0.457031 1.234375 -0.59375 C 1.421875 -0.726562 1.691406 -1.03125 2.046875 -1.5 L 4.625 -5.25 L 2.5 -8.515625 C 2.144531 -9.046875 1.847656 -9.40625 1.609375 -9.59375 C 1.367188 -9.78125 1.082031 -9.875 0.75 -9.875 L 0.546875 -9.875 L 0.546875 -10.21875 L 5.25 -10.21875 L 5.25 -9.875 C 4.59375 -9.863281 4.265625 -9.695312 4.265625 -9.375 C 4.265625 -9.070312 4.613281 -8.398438 5.3125 -7.359375 L 5.625 -6.90625 C 5.988281 -7.445312 6.21875 -7.78125 6.3125 -7.90625 C 6.875 -8.59375 7.15625 -9.082031 7.15625 -9.375 C 7.15625 -9.664062 6.851562 -9.832031 6.25 -9.875 L 6.25 -10.21875 L 9.828125 -10.21875 L 9.828125 -9.875 C 9.054688 -9.84375 8.441406 -9.507812 7.984375 -8.875 L 6.109375 -6.15625 L 9.015625 -1.703125 C 9.378906 -1.191406 9.691406 -0.835938 9.953125 -0.640625 C 10.222656 -0.441406 10.53125 -0.34375 10.875 -0.34375 Z M 10.875 0 "/></g></g><g style="fill:#000000;fill-opacity:1;"><g transform="translate(154.574908, 286.540855)"><path style="stroke:none" d="M 11.140625 -3.8125 C 11.140625 -2.644531 10.695312 -1.664062 9.8125 -0.875 C 8.925781 -0.0820312 7.828125 0.3125 6.515625 0.3125 C 5.609375 0.3125 4.71875 0.140625 3.84375 -0.203125 C 3.382812 -0.367188 3.023438 -0.453125 2.765625 -0.453125 C 2.597656 -0.453125 2.453125 -0.378906 2.328125 -0.234375 C 2.210938 -0.0859375 2.148438 0.0859375 2.140625 0.296875 L 1.640625 0.296875 L 0.953125 -4.515625 L 1.46875 -4.515625 C 2.050781 -3.117188 2.707031 -2.097656 3.4375 -1.453125 C 4.175781 -0.816406 5.050781 -0.5 6.0625 -0.5 C 6.894531 -0.5 7.566406 -0.734375 8.078125 -1.203125 C 8.597656 -1.671875 8.859375 -2.285156 8.859375 -3.046875 C 8.859375 -3.597656 8.75 -4.039062 8.53125 -4.375 C 7.976562 -5.226562 6.851562 -6.113281 5.15625 -7.03125 C 3.882812 -7.695312 2.972656 -8.367188 2.421875 -9.046875 C 1.878906 -9.734375 1.609375 -10.53125 1.609375 -11.4375 C 1.609375 -12.675781 2.046875 -13.660156 2.921875 -14.390625 C 3.710938 -15.023438 4.570312 -15.34375 5.5 -15.34375 C 6.25 -15.34375 7.066406 -15.175781 7.953125 -14.84375 C 8.359375 -14.664062 8.6875 -14.578125 8.9375 -14.578125 C 9.332031 -14.578125 9.578125 -14.832031 9.671875 -15.34375 L 10.140625 -15.34375 L 10.640625 -10.515625 L 10.078125 -10.515625 C 9.773438 -11.648438 9.316406 -12.535156 8.703125 -13.171875 C 7.890625 -14.003906 6.960938 -14.421875 5.921875 -14.421875 C 5.210938 -14.421875 4.640625 -14.226562 4.203125 -13.84375 C 3.773438 -13.457031 3.5625 -12.953125 3.5625 -12.328125 C 3.5625 -11.703125 3.816406 -11.117188 4.328125 -10.578125 C 4.847656 -10.035156 5.707031 -9.4375 6.90625 -8.78125 C 8.40625 -7.96875 9.484375 -7.171875 10.140625 -6.390625 C 10.804688 -5.609375 11.140625 -4.75 11.140625 -3.8125 Z M 11.140625 -3.8125 "/></g></g><g style="fill:#000000;fill-opacity:1;"><g transform="translate(167.197514, 286.540855)"><path style="stroke:none" d="M 5.359375 -13.53125 C 5.359375 -13.332031 5.34375 -13.050781 5.3125 -12.6875 L 4.296875 -4 L 4 -4 L 3.796875 -6.453125 C 3.734375 -7.253906 3.601562 -8.296875 3.40625 -9.578125 C 3.101562 -11.566406 2.953125 -12.90625 2.953125 -13.59375 C 2.953125 -14.125 3.054688 -14.546875 3.265625 -14.859375 C 3.484375 -15.179688 3.78125 -15.34375 4.15625 -15.34375 C 4.957031 -15.34375 5.359375 -14.738281 5.359375 -13.53125 Z M 5.015625 -1.859375 C 5.253906 -1.617188 5.375 -1.320312 5.375 -0.96875 C 5.375 -0.625 5.253906 -0.34375 5.015625 -0.125 C 4.785156 0.09375 4.488281 0.203125 4.125 0.203125 C 3.789062 0.203125 3.507812 0.09375 3.28125 -0.125 C 3.0625 -0.34375 2.953125 -0.625 2.953125 -0.96875 C 2.953125 -1.320312 3.066406 -1.617188 3.296875 -1.859375 C 3.535156 -2.097656 3.820312 -2.21875 4.15625 -2.21875 C 4.488281 -2.21875 4.773438 -2.097656 5.015625 -1.859375 Z M 5.015625 -1.859375 "/></g></g></g></svg>