<svg xmlns="http://www.w3.org/2000/svg" xmlns:xlink="http://www.w3.org/1999/xlink" width="787" zoomAndPan="magnify" viewBox="0 0 590.25 431.999984" height="576" preserveAspectRatio="xMidYMid meet" version="1.0"><defs><g/><clipPath id="4a7e468bba"><path d="M 209 175 L 281 175 L 281 192 L 209 192 Z M 209 175 " clip-rule="nonzero"/></clipPath><clipPath id="9f7853654c"><path d="M 267.15625 207.96875 L 208.355469 183.558594 L 221.851562 151.042969 L 280.65625 175.453125 Z M 267.15625 207.96875 " clip-rule="nonzero"/></clipPath><clipPath id="071c404569"><path d="M 267.15625 207.96875 L 208.355469 183.558594 L 221.851562 151.042969 L 280.65625 175.453125 Z M 267.15625 207.96875 " clip-rule="nonzero"/></clipPath><clipPath id="3a94092175"><path d="M 267.15625 207.96875 L 208.355469 183.558594 L 221.851562 151.042969 L 280.65625 175.453125 Z M 267.15625 207.96875 " clip-rule="nonzero"/></clipPath><clipPath id="33d034f851"><path d="M 137.824219 97.648438 L 351.304688 97.648438 L 351.304688 311.128906 L 137.824219 311.128906 Z M 137.824219 97.648438 " clip-rule="nonzero"/></clipPath><clipPath id="f645eea30b"><path d="M 217.625 151.320312 L 238.945312 151.320312 L 238.945312 172.640625 L 217.625 172.640625 Z M 217.625 151.320312 " clip-rule="nonzero"/></clipPath><clipPath id="1ad2db1907"><path d="M 228.285156 151.320312 C 222.398438 151.320312 217.625 156.09375 217.625 161.980469 C 217.625 167.871094 222.398438 172.640625 228.285156 172.640625 C 234.171875 172.640625 238.945312 167.871094 238.945312 161.980469 C 238.945312 156.09375 234.171875 151.320312 228.285156 151.320312 " clip-rule="nonzero"/></clipPath><clipPath id="391fc01196"><path d="M 250.347656 151.320312 L 271.667969 151.320312 L 271.667969 172.640625 L 250.347656 172.640625 Z M 250.347656 151.320312 " clip-rule="nonzero"/></clipPath><clipPath id="753ae2833a"><path d="M 261.007812 151.320312 C 255.121094 151.320312 250.347656 156.09375 250.347656 161.980469 C 250.347656 167.871094 255.121094 172.640625 261.007812 172.640625 C 266.898438 172.640625 271.667969 167.871094 271.667969 161.980469 C 271.667969 156.09375 266.898438 151.320312 261.007812 151.320312 " clip-rule="nonzero"/></clipPath><clipPath id="b148bb54bb"><path d="M 427 121 L 438 121 L 438 135 L 427 135 Z M 427 121 " clip-rule="nonzero"/></clipPath><clipPath id="34a915108e"><path d="M 346.9375 75.375 L 514.65625 155.242188 L 440.265625 311.460938 L 272.546875 231.597656 Z M 346.9375 75.375 " clip-rule="nonzero"/></clipPath><clipPath id="fa67644418"><path d="M 346.9375 75.375 L 514.65625 155.242188 L 440.265625 311.460938 L 272.546875 231.597656 Z M 346.9375 75.375 " clip-rule="nonzero"/></clipPath><clipPath id="8e8c68365e"><path d="M 346.9375 75.375 L 514.65625 155.242188 L 440.265625 311.460938 L 272.546875 231.597656 Z M 346.9375 75.375 " clip-rule="nonzero"/></clipPath><clipPath id="fda4feeb44"><path d="M 465 147 L 473 147 L 473 157 L 465 157 Z M 465 147 " clip-rule="nonzero"/></clipPath><clipPath id="54eee075a5"><path d="M 346.9375 75.375 L 514.65625 155.242188 L 440.265625 311.460938 L 272.546875 231.597656 Z M 346.9375 75.375 " clip-rule="nonzero"/></clipPath><clipPath id="b374207112"><path d="M 346.9375 75.375 L 514.65625 155.242188 L 440.265625 311.460938 L 272.546875 231.597656 Z M 346.9375 75.375 " clip-rule="nonzero"/></clipPath><clipPath id="565a70a4ea"><path d="M 346.9375 75.375 L 514.65625 155.242188 L 440.265625 311.460938 L 272.546875 231.597656 Z M 346.9375 75.375 " clip-rule="nonzero"/></clipPath><clipPath id="dcbe6ea63b"><path d="M 398 118 L 405 118 L 405 135 L 398 135 Z M 398 118 " clip-rule="nonzero"/></clipPath><clipPath id="bc7b753236"><path d="M 346.9375 75.375 L 514.65625 155.242188 L 440.265625 311.460938 L 272.546875 231.597656 Z M 346.9375 75.375 " clip-rule="nonzero"/></clipPath><clipPath id="6bef5fd668"><path d="M 346.9375 75.375 L 514.65625 155.242188 L 440.265625 311.460938 L 272.546875 231.597656 Z M 346.9375 75.375 " clip-rule="nonzero"/></clipPath><clipPath id="b9aa5aa31c"><path d="M 346.9375 75.375 L 514.65625 155.242188 L 440.265625 311.460938 L 272.546875 231.597656 Z M 346.9375 75.375 " clip-rule="nonzero"/></clipPath><clipPath id="697dbb3e5a"><path d="M 480 174 L 490 174 L 490 178 L 480 178 Z M 480 174 " clip-rule="nonzero"/></clipPath><clipPath id="dde4a7210f"><path d="M 346.9375 75.375 L 514.65625 155.242188 L 440.265625 311.460938 L 272.546875 231.597656 Z M 346.9375 75.375 " clip-rule="nonzero"/></clipPath><clipPath id="a3a91969f4"><path d="M 346.9375 75.375 L 514.65625 155.242188 L 440.265625 311.460938 L 272.546875 231.597656 Z M 346.9375 75.375 " clip-rule="nonzero"/></clipPath><clipPath id="136cbdcfe8"><path d="M 346.9375 75.375 L 514.65625 155.242188 L 440.265625 311.460938 L 272.546875 231.597656 Z M 346.9375 75.375 " clip-rule="nonzero"/></clipPath><clipPath id="02b6350de4"><path d="M 426 148 L 435 148 L 435 162 L 426 162 Z M 426 148 " clip-rule="nonzero"/></clipPath><clipPath id="66a9d28ccb"><path d="M 346.9375 75.375 L 514.65625 155.242188 L 440.265625 311.460938 L 272.546875 231.597656 Z M 346.9375 75.375 " clip-rule="nonzero"/></clipPath><clipPath id="dcc99bde34"><path d="M 346.9375 75.375 L 514.65625 155.242188 L 440.265625 311.460938 L 272.546875 231.597656 Z M 346.9375 75.375 " clip-rule="nonzero"/></clipPath><clipPath id="b5071a137c"><path d="M 346.9375 75.375 L 514.65625 155.242188 L 440.265625 311.460938 L 272.546875 231.597656 Z M 346.9375 75.375 " clip-rule="nonzero"/></clipPath><clipPath id="298cc504d7"><path d="M 405 149 L 413 149 L 413 165 L 405 165 Z M 405 149 " clip-rule="nonzero"/></clipPath><clipPath id="13a1bcd2e7"><path d="M 346.9375 75.375 L 514.65625 155.242188 L 440.265625 311.460938 L 272.546875 231.597656 Z M 346.9375 75.375 " clip-rule="nonzero"/></clipPath><clipPath id="72b63f6684"><path d="M 346.9375 75.375 L 514.65625 155.242188 L 440.265625 311.460938 L 272.546875 231.597656 Z M 346.9375 75.375 " clip-rule="nonzero"/></clipPath><clipPath id="375b5c646f"><path d="M 346.9375 75.375 L 514.65625 155.242188 L 440.265625 311.460938 L 272.546875 231.597656 Z M 346.9375 75.375 " clip-rule="nonzero"/></clipPath><clipPath id="2d48e2f6e9"><path d="M 368 132 L 381 132 L 381 150 L 368 150 Z M 368 132 " clip-rule="nonzero"/></clipPath><clipPath id="6f3514bad1"><path d="M 346.9375 75.375 L 514.65625 155.242188 L 440.265625 311.460938 L 272.546875 231.597656 Z M 346.9375 75.375 " clip-rule="nonzero"/></clipPath><clipPath id="674d9ef682"><path d="M 346.9375 75.375 L 514.65625 155.242188 L 440.265625 311.460938 L 272.546875 231.597656 Z M 346.9375 75.375 " clip-rule="nonzero"/></clipPath><clipPath id="61d3c1352d"><path d="M 346.9375 75.375 L 514.65625 155.242188 L 440.265625 311.460938 L 272.546875 231.597656 Z M 346.9375 75.375 " clip-rule="nonzero"/></clipPath><clipPath id="3689b568d7"><path d="M 401 173 L 462 173 L 462 273 L 401 273 Z M 401 173 " clip-rule="nonzero"/></clipPath><clipPath id="876362c1fd"><path d="M 346.9375 75.375 L 514.65625 155.242188 L 440.265625 311.460938 L 272.546875 231.597656 Z M 346.9375 75.375 " clip-rule="nonzero"/></clipPath><clipPath id="5e5a91b137"><path d="M 346.9375 75.375 L 514.65625 155.242188 L 440.265625 311.460938 L 272.546875 231.597656 Z M 346.9375 75.375 " clip-rule="nonzero"/></clipPath><clipPath id="279ec7c6d4"><path d="M 346.9375 75.375 L 514.65625 155.242188 L 440.265625 311.460938 L 272.546875 231.597656 Z M 346.9375 75.375 " clip-rule="nonzero"/></clipPath><clipPath id="2aa19685cc"><path d="M 386 155 L 399 155 L 399 167 L 386 167 Z M 386 155 " clip-rule="nonzero"/></clipPath><clipPath id="56f1e46971"><path d="M 346.9375 75.375 L 514.65625 155.242188 L 440.265625 311.460938 L 272.546875 231.597656 Z M 346.9375 75.375 " clip-rule="nonzero"/></clipPath><clipPath id="085f0b1d81"><path d="M 346.9375 75.375 L 514.65625 155.242188 L 440.265625 311.460938 L 272.546875 231.597656 Z M 346.9375 75.375 " clip-rule="nonzero"/></clipPath><clipPath id="38cde389c4"><path d="M 346.9375 75.375 L 514.65625 155.242188 L 440.265625 311.460938 L 272.546875 231.597656 Z M 346.9375 75.375 " clip-rule="nonzero"/></clipPath><clipPath id="af1c505323"><path d="M 479 205 L 491 205 L 491 208 L 479 208 Z M 479 205 " clip-rule="nonzero"/></clipPath><clipPath id="d354ac3414"><path d="M 346.9375 75.375 L 514.65625 155.242188 L 440.265625 311.460938 L 272.546875 231.597656 Z M 346.9375 75.375 " clip-rule="nonzero"/></clipPath><clipPath id="3be0ce9b41"><path d="M 346.9375 75.375 L 514.65625 155.242188 L 440.265625 311.460938 L 272.546875 231.597656 Z M 346.9375 75.375 " clip-rule="nonzero"/></clipPath><clipPath id="82765f370a"><path d="M 346.9375 75.375 L 514.65625 155.242188 L 440.265625 311.460938 L 272.546875 231.597656 Z M 346.9375 75.375 " clip-rule="nonzero"/></clipPath><clipPath id="c6896a3e2b"><path d="M 301 155 L 405 155 L 405 246 L 301 246 Z M 301 155 " clip-rule="nonzero"/></clipPath><clipPath id="f3081b76c1"><path d="M 346.9375 75.375 L 514.65625 155.242188 L 440.265625 311.460938 L 272.546875 231.597656 Z M 346.9375 75.375 " clip-rule="nonzero"/></clipPath><clipPath id="84d6d82ba3"><path d="M 346.9375 75.375 L 514.65625 155.242188 L 440.265625 311.460938 L 272.546875 231.597656 Z M 346.9375 75.375 " clip-rule="nonzero"/></clipPath><clipPath id="4b4854e02f"><path d="M 346.9375 75.375 L 514.65625 155.242188 L 440.265625 311.460938 L 272.546875 231.597656 Z M 346.9375 75.375 " clip-rule="nonzero"/></clipPath><clipPath id="cf0805c3a5"><path d="M 326 141 L 337 141 L 337 149 L 326 149 Z M 326 141 " clip-rule="nonzero"/></clipPath><clipPath id="797a5a41a1"><path d="M 346.9375 75.375 L 514.65625 155.242188 L 440.265625 311.460938 L 272.546875 231.597656 Z M 346.9375 75.375 " clip-rule="nonzero"/></clipPath><clipPath id="f17b392e5f"><path d="M 346.9375 75.375 L 514.65625 155.242188 L 440.265625 311.460938 L 272.546875 231.597656 Z M 346.9375 75.375 " clip-rule="nonzero"/></clipPath><clipPath id="448f76ee4b"><path d="M 346.9375 75.375 L 514.65625 155.242188 L 440.265625 311.460938 L 272.546875 231.597656 Z M 346.9375 75.375 " clip-rule="nonzero"/></clipPath><clipPath id="1970f5a099"><path d="M 350 180 L 391 180 L 391 203 L 350 203 Z M 350 180 " clip-rule="nonzero"/></clipPath><clipPath id="9147f8f61a"><path d="M 346.9375 75.375 L 514.65625 155.242188 L 440.265625 311.460938 L 272.546875 231.597656 Z M 346.9375 75.375 " clip-rule="nonzero"/></clipPath><clipPath id="1a126635ec"><path d="M 346.9375 75.375 L 514.65625 155.242188 L 440.265625 311.460938 L 272.546875 231.597656 Z M 346.9375 75.375 " clip-rule="nonzero"/></clipPath><clipPath id="ed80fa81be"><path d="M 346.9375 75.375 L 514.65625 155.242188 L 440.265625 311.460938 L 272.546875 231.597656 Z M 346.9375 75.375 " clip-rule="nonzero"/></clipPath><clipPath id="25c50934ae"><path d="M 314 162 L 324 162 L 324 168 L 314 168 Z M 314 162 " clip-rule="nonzero"/></clipPath><clipPath id="79f53284f9"><path d="M 346.9375 75.375 L 514.65625 155.242188 L 440.265625 311.460938 L 272.546875 231.597656 Z M 346.9375 75.375 " clip-rule="nonzero"/></clipPath><clipPath id="fb9972f820"><path d="M 346.9375 75.375 L 514.65625 155.242188 L 440.265625 311.460938 L 272.546875 231.597656 Z M 346.9375 75.375 " clip-rule="nonzero"/></clipPath><clipPath id="e4a74d364f"><path d="M 346.9375 75.375 L 514.65625 155.242188 L 440.265625 311.460938 L 272.546875 231.597656 Z M 346.9375 75.375 " clip-rule="nonzero"/></clipPath><clipPath id="742b1b3e42"><path d="M 296 180 L 308 180 L 308 186 L 296 186 Z M 296 180 " clip-rule="nonzero"/></clipPath><clipPath id="5b75bdef8b"><path d="M 346.9375 75.375 L 514.65625 155.242188 L 440.265625 311.460938 L 272.546875 231.597656 Z M 346.9375 75.375 " clip-rule="nonzero"/></clipPath><clipPath id="a3640aac6b"><path d="M 346.9375 75.375 L 514.65625 155.242188 L 440.265625 311.460938 L 272.546875 231.597656 Z M 346.9375 75.375 " clip-rule="nonzero"/></clipPath><clipPath id="3d3ea3480a"><path d="M 346.9375 75.375 L 514.65625 155.242188 L 440.265625 311.460938 L 272.546875 231.597656 Z M 346.9375 75.375 " clip-rule="nonzero"/></clipPath></defs><g clip-path="url(#4a7e468bba)"><g clip-path="url(#9f7853654c)"><g clip-path="url(#071c404569)"><g clip-path="url(#3a94092175)"><path fill="#000000" d="M 279.703125 175.097656 C 279.863281 175.164062 279.992188 175.265625 280.097656 175.402344 C 280.203125 175.539062 280.269531 175.691406 280.292969 175.859375 C 280.320312 176.03125 280.300781 176.195312 280.238281 176.355469 C 280.175781 176.515625 280.078125 176.648438 279.945312 176.757812 C 271.457031 183.671875 262.511719 188.214844 253.359375 190.257812 C 245.957031 191.910156 238.546875 191.953125 231.125 190.375 C 218.507812 187.726562 210.5625 181.449219 210.230469 181.183594 C 210.019531 181.011719 209.898438 180.796875 209.867188 180.527344 C 209.839844 180.257812 209.910156 180.019531 210.078125 179.808594 C 210.246094 179.597656 210.464844 179.480469 210.734375 179.449219 C 211 179.417969 211.242188 179.488281 211.453125 179.65625 C 211.558594 179.742188 219.441406 185.949219 231.605469 188.480469 C 242.816406 190.816406 260.085938 190.410156 278.707031 175.242188 C 279.011719 174.996094 279.34375 174.949219 279.703125 175.097656 Z M 279.703125 175.097656 " fill-opacity="1" fill-rule="nonzero"/></g></g></g></g><g clip-path="url(#33d034f851)"><path fill="#000000" d="M 244.5625 97.648438 C 185.710938 97.648438 137.824219 145.535156 137.824219 204.390625 C 137.824219 263.242188 185.710938 311.128906 244.5625 311.128906 C 303.417969 311.128906 351.304688 263.242188 351.304688 204.390625 C 351.304688 145.535156 303.417969 97.648438 244.5625 97.648438 Z M 184.617188 275.910156 C 185.609375 243.667969 212.082031 217.730469 244.5625 217.730469 C 277.046875 217.730469 303.519531 243.667969 304.511719 275.910156 C 288.273438 289.542969 267.375 297.785156 244.5625 297.785156 C 221.753906 297.785156 200.855469 289.542969 184.617188 275.910156 Z M 211.207031 171.035156 C 211.207031 152.640625 226.171875 137.675781 244.5625 137.675781 C 262.957031 137.675781 277.921875 152.640625 277.921875 171.035156 C 277.921875 189.425781 262.957031 204.390625 244.5625 204.390625 C 226.171875 204.390625 211.207031 189.425781 211.207031 171.035156 Z M 316.574219 263.796875 C 311.742188 238.859375 294.25 218.445312 271.082031 209.417969 C 283.257812 200.988281 291.261719 186.929688 291.261719 171.035156 C 291.261719 145.289062 270.308594 124.335938 244.5625 124.335938 C 218.820312 124.335938 197.867188 145.289062 197.867188 171.035156 C 197.867188 186.929688 205.871094 200.988281 218.046875 209.425781 C 194.878906 218.453125 177.386719 238.867188 172.546875 263.804688 C 159.199219 247.644531 151.167969 226.9375 151.167969 204.390625 C 151.167969 152.886719 193.0625 110.992188 244.5625 110.992188 C 296.066406 110.992188 337.960938 152.886719 337.960938 204.390625 C 337.960938 226.9375 329.929688 247.644531 316.574219 263.796875 Z M 316.574219 263.796875 " fill-opacity="1" fill-rule="nonzero"/></g><g clip-path="url(#f645eea30b)"><g clip-path="url(#1ad2db1907)"><path fill="#000000" d="M 217.625 151.320312 L 238.945312 151.320312 L 238.945312 172.640625 L 217.625 172.640625 Z M 217.625 151.320312 " fill-opacity="1" fill-rule="nonzero"/></g></g><g clip-path="url(#391fc01196)"><g clip-path="url(#753ae2833a)"><path fill="#000000" d="M 250.347656 151.320312 L 271.667969 151.320312 L 271.667969 172.640625 L 250.347656 172.640625 Z M 250.347656 151.320312 " fill-opacity="1" fill-rule="nonzero"/></g></g><g clip-path="url(#b148bb54bb)"><g clip-path="url(#34a915108e)"><g clip-path="url(#fa67644418)"><g clip-path="url(#8e8c68365e)"><path fill="#3d2f1c" d="M 430.621094 128.636719 C 432.640625 128.8125 435.15625 125.496094 434.710938 123.582031 C 431.96875 121.726562 428.671875 126.75 430.621094 128.636719 Z M 429.492188 134.542969 C 428.554688 132.136719 427.226562 128.851562 428.085938 126.308594 C 429.613281 121.78125 438.632812 119.03125 437.667969 124.429688 C 436.851562 129.015625 431.117188 129.328125 429.492188 134.542969 " fill-opacity="1" fill-rule="evenodd"/></g></g></g></g><g clip-path="url(#fda4feeb44)"><g clip-path="url(#54eee075a5)"><g clip-path="url(#b374207112)"><g clip-path="url(#565a70a4ea)"><path fill="#3d2f1c" d="M 472.519531 147.75 C 472.804688 147.839844 472.902344 147.992188 472.867188 148.195312 C 469.992188 149.894531 467.933594 153.902344 465.210938 156.035156 C 464.199219 151.679688 470.238281 149.828125 472.519531 147.75 " fill-opacity="1" fill-rule="evenodd"/></g></g></g></g><g clip-path="url(#dcbe6ea63b)"><g clip-path="url(#bc7b753236)"><g clip-path="url(#6bef5fd668)"><g clip-path="url(#b9aa5aa31c)"><path fill="#3d2f1c" d="M 401.621094 127.152344 C 407.335938 120.882812 396.347656 121.558594 401.621094 127.152344 Z M 403.90625 134.125 C 399.308594 133.277344 395.6875 122.40625 400.457031 119.59375 C 407.699219 115.332031 403.976562 131.53125 403.90625 134.125 " fill-opacity="1" fill-rule="evenodd"/></g></g></g></g><g clip-path="url(#697dbb3e5a)"><g clip-path="url(#dde4a7210f)"><g clip-path="url(#a3a91969f4)"><g clip-path="url(#136cbdcfe8)"><path fill="#3d2f1c" d="M 489.675781 174.6875 C 486.683594 175.375 483 176.882812 480.441406 177.015625 C 482.992188 174.75 486.238281 174.453125 489.675781 174.6875 " fill-opacity="1" fill-rule="evenodd"/></g></g></g></g><g clip-path="url(#02b6350de4)"><g clip-path="url(#66a9d28ccb)"><g clip-path="url(#dcc99bde34)"><g clip-path="url(#b5071a137c)"><path fill="#3d2f1c" d="M 429.339844 156.042969 C 430.453125 155.609375 431.9375 152.371094 431.621094 151.25 C 431.316406 151.101562 431.011719 150.957031 430.707031 150.8125 C 429.726562 152.089844 427.878906 155.027344 429.339844 156.042969 Z M 434.539062 149.835938 C 434.894531 153.476562 430.808594 158.234375 429.339844 161.925781 C 423.933594 160.296875 428.003906 144.449219 434.539062 149.835938 " fill-opacity="1" fill-rule="evenodd"/></g></g></g></g><g clip-path="url(#298cc504d7)"><g clip-path="url(#13a1bcd2e7)"><g clip-path="url(#72b63f6684)"><g clip-path="url(#375b5c646f)"><path fill="#3d2f1c" d="M 409.011719 158.128906 C 410.363281 156.664062 411.089844 153.875 409.925781 152.679688 C 407.746094 152.636719 406.738281 157.378906 409.011719 158.128906 Z M 409.359375 164.460938 C 405.351562 163.335938 404.472656 151.707031 408.738281 149.875 C 415.71875 146.875 411.851562 161.054688 409.359375 164.460938 " fill-opacity="1" fill-rule="evenodd"/></g></g></g></g><g clip-path="url(#2d48e2f6e9)"><g clip-path="url(#6f3514bad1)"><g clip-path="url(#674d9ef682)"><g clip-path="url(#61d3c1352d)"><path fill="#3d2f1c" d="M 377.050781 144.03125 C 377.847656 140.902344 377.445312 138.199219 376.550781 135.667969 C 367.90625 131.78125 371.027344 144.34375 377.050781 144.03125 Z M 380.097656 149.402344 C 378.160156 149.527344 379.054688 147.160156 377.554688 146.511719 C 372.941406 144.980469 366.8125 140.742188 368.753906 136.15625 C 370.261719 132.585938 376.132812 131.390625 378.585938 135.515625 C 380.644531 138.980469 379.78125 146.410156 380.097656 149.402344 " fill-opacity="1" fill-rule="evenodd"/></g></g></g></g><g clip-path="url(#3689b568d7)"><g clip-path="url(#876362c1fd)"><g clip-path="url(#5e5a91b137)"><g clip-path="url(#279ec7c6d4)"><path fill="#3d2f1c" d="M 434.4375 261.851562 C 431.445312 263.476562 431.679688 266.578125 428.171875 265.589844 C 424.429688 264.542969 426.300781 261.953125 423.765625 260.132812 C 420.554688 257.824219 411.769531 261.589844 411.976562 264.882812 C 412.136719 267.347656 419.816406 269.070312 421.570312 269.453125 C 430.582031 271.417969 441.574219 271.144531 448.578125 267.464844 C 447.042969 263.726562 437.484375 260.199219 434.4375 261.851562 Z M 432.191406 215.957031 C 431.570312 215.457031 431.332031 216.03125 430.714844 215.53125 C 426.949219 225.867188 426.429688 237.613281 426.921875 247.628906 C 427.1875 253.078125 425.433594 260 429.71875 263.523438 C 433.050781 247.539062 430.929688 231.84375 432.191406 215.957031 Z M 414.917969 188.679688 C 420.132812 194.023438 426.683594 214.800781 436.476562 203.429688 C 430.09375 198.589844 421.734375 191.46875 414.917969 188.679688 Z M 450.53125 192.75 C 451.246094 191.671875 459.660156 181.523438 456.535156 181.320312 C 448.09375 180.765625 440.441406 180.992188 430.148438 180.242188 C 424.761719 179.847656 407.246094 176.347656 405.140625 180.378906 C 403.683594 183.167969 410.6875 192.898438 412.449219 195.628906 C 415.785156 200.785156 420.222656 205.46875 423.699219 209.667969 C 429.050781 216.144531 438.527344 215.601562 441.828125 205.136719 C 435.191406 206.996094 429.953125 213.679688 423.839844 205.253906 C 419.445312 199.203125 410.695312 188.855469 410.273438 182.542969 C 420.90625 188.277344 431.871094 197.144531 442.601562 204.105469 C 445.878906 200.664062 447.347656 197.546875 450.53125 192.75 Z M 406.421875 176.507812 C 421.429688 177.609375 438.925781 181.089844 453.3125 178.664062 C 437.550781 173.304688 420.640625 173.953125 406.421875 176.507812 Z M 461.820312 179.636719 C 453.441406 189.34375 447.808594 204.429688 439.167969 213.675781 C 438.136719 214.773438 436.046875 215.34375 435.261719 216.578125 C 430.097656 224.679688 434.535156 239.011719 434.035156 246.808594 C 433.792969 250.550781 431.703125 257.859375 434.285156 259.816406 C 437.632812 262.355469 452.171875 261.75 452.089844 267.738281 C 452.042969 271.367188 438.3125 272.800781 434.078125 272.605469 C 429.347656 272.394531 424.453125 272.117188 420.242188 271.0625 C 416.609375 270.148438 409.132812 267.933594 409.378906 265.046875 C 409.570312 262.773438 416.007812 258.839844 418.414062 258.425781 C 420.945312 257.988281 423.351562 259.550781 424.625 257.738281 C 427.058594 254.292969 425.261719 241.472656 425.246094 237.019531 C 425.21875 229.636719 426.328125 224.066406 426.765625 216.171875 C 414.878906 208.46875 410.285156 191.738281 403.597656 182.445312 C 401.191406 179.105469 401.226562 178.949219 403.898438 174.746094 C 421.996094 174.015625 442.113281 170.484375 461.820312 179.636719 " fill-opacity="1" fill-rule="evenodd"/></g></g></g></g><g clip-path="url(#2aa19685cc)"><g clip-path="url(#56f1e46971)"><g clip-path="url(#085f0b1d81)"><g clip-path="url(#38cde389c4)"><path fill="#3d2f1c" d="M 390.347656 158.488281 C 390.4375 159.625 392.730469 161.246094 394.011719 160.792969 C 394.871094 159.023438 391.519531 156.867188 390.347656 158.488281 Z M 397.632812 166.722656 C 395.796875 163.359375 385.925781 161.648438 387.050781 157.757812 C 388.824219 151.621094 402.492188 163.082031 397.632812 166.722656 " fill-opacity="1" fill-rule="evenodd"/></g></g></g></g><g clip-path="url(#af1c505323)"><g clip-path="url(#d354ac3414)"><g clip-path="url(#3be0ce9b41)"><g clip-path="url(#82765f370a)"><path fill="#3d2f1c" d="M 490.503906 205.902344 C 488.15625 207.679688 482.460938 207.457031 479.085938 206.347656 C 482.339844 204.644531 486.519531 205.554688 490.503906 205.902344 " fill-opacity="1" fill-rule="evenodd"/></g></g></g></g><g clip-path="url(#c6896a3e2b)"><g clip-path="url(#f3081b76c1)"><g clip-path="url(#84d6d82ba3)"><g clip-path="url(#4b4854e02f)"><path fill="#3d2f1c" d="M 304.316406 233.226562 C 305.582031 235.472656 319.792969 250.554688 321.761719 240.136719 C 322.632812 235.53125 315.820312 232.136719 312.753906 236.6875 C 311.148438 235.484375 309.90625 234.152344 310.070312 232.324219 C 310.835938 231.453125 311.792969 231.121094 312.398438 229.792969 C 309.066406 223.644531 300.972656 227.316406 304.316406 233.226562 Z M 313.699219 232.933594 C 316.367188 232.046875 321.148438 229.6875 322.726562 225.746094 C 319.183594 226.636719 316.664062 230.40625 313.699219 232.933594 Z M 323.632812 225.617188 C 324.726562 224.605469 326.140625 224.484375 326.972656 222.722656 C 325.652344 222.761719 323.726562 223.914062 323.632812 225.617188 Z M 327.851562 221.464844 C 334.667969 218.910156 341.769531 212.550781 347.691406 205.691406 C 340.925781 203.867188 333.226562 215.828125 327.851562 221.464844 Z M 350.351562 191.273438 C 347.914062 197.386719 344.035156 203.933594 354.488281 206.128906 C 358.617188 206.996094 367.074219 203.476562 371.496094 202.183594 C 381.824219 199.167969 390.105469 195.496094 398.40625 189.222656 C 385.019531 179.863281 373.21875 169.9375 365.339844 158.625 C 356.410156 164.210938 353.929688 182.308594 350.351562 191.273438 Z M 371.125 159.417969 C 370.972656 159.347656 370.820312 159.273438 370.667969 159.203125 C 374.039062 169.855469 387.5625 179.882812 399.582031 185.582031 C 394.496094 175.425781 382.992188 166.539062 371.125 159.417969 Z M 350.886719 207.214844 C 342.480469 212.722656 333.914062 219.242188 326.015625 225.910156 C 324.855469 226.886719 319.980469 230.734375 319.683594 232.140625 C 318.859375 236.003906 325.429688 237.640625 323.71875 241.910156 C 318.988281 253.710938 297.382812 234.398438 301.59375 227.167969 C 304.449219 222.265625 311.273438 227.589844 314.394531 227.941406 C 316.339844 228.160156 318.09375 225.558594 319.867188 224.105469 C 326.285156 218.839844 342.855469 208.054688 344.273438 198.746094 C 345.460938 190.953125 351.320312 178.152344 354.148438 170.945312 C 357.210938 163.144531 362.8125 153.238281 369.363281 156.0625 C 380.703125 160.945312 386.378906 168.554688 394.980469 175.824219 C 397.484375 177.9375 404.628906 184.652344 404.03125 187.414062 C 403.433594 190.175781 398.769531 190.894531 397.210938 191.734375 C 384.4375 198.625 366.289062 208.015625 350.886719 207.214844 " fill-opacity="1" fill-rule="evenodd"/></g></g></g></g><g clip-path="url(#cf0805c3a5)"><g clip-path="url(#797a5a41a1)"><g clip-path="url(#f17b392e5f)"><g clip-path="url(#448f76ee4b)"><path fill="#3d2f1c" d="M 336.863281 148.988281 C 333.789062 147.96875 328.300781 144.578125 326.539062 141.832031 C 330.417969 140.472656 334.238281 146.796875 336.863281 148.988281 " fill-opacity="1" fill-rule="evenodd"/></g></g></g></g><g clip-path="url(#1970f5a099)"><g clip-path="url(#9147f8f61a)"><g clip-path="url(#1a126635ec)"><g clip-path="url(#ed80fa81be)"><path fill="#3d2f1c" d="M 382.757812 187.371094 C 379.753906 186.007812 362 182.191406 359.261719 183.75 C 356.5625 185.28125 351.691406 198.898438 353.921875 200.257812 C 356.84375 202.035156 367.144531 198.238281 370.042969 197.007812 C 375.539062 194.671875 380.136719 192.515625 384.714844 189.144531 C 384.464844 188.144531 383.71875 187.808594 382.757812 187.371094 Z M 390.9375 189.027344 C 382.949219 191.585938 374.539062 198.847656 365.246094 200.605469 C 360.671875 201.46875 350.253906 204.96875 350.484375 198.058594 C 355.726562 192.003906 353.917969 180.195312 361.46875 180.878906 C 371.066406 181.746094 382.175781 186.007812 390.9375 189.027344 " fill-opacity="1" fill-rule="evenodd"/></g></g></g></g><g clip-path="url(#25c50934ae)"><g clip-path="url(#79f53284f9)"><g clip-path="url(#fb9972f820)"><g clip-path="url(#e4a74d364f)"><path fill="#3d2f1c" d="M 323.757812 167.679688 C 320.933594 167.410156 316.078125 164.765625 314.609375 162.765625 C 317.878906 160.414062 321.210938 166.171875 323.757812 167.679688 " fill-opacity="1" fill-rule="evenodd"/></g></g></g></g><g clip-path="url(#742b1b3e42)"><g clip-path="url(#5b75bdef8b)"><g clip-path="url(#a3640aac6b)"><g clip-path="url(#3d3ea3480a)"><path fill="#3d2f1c" d="M 307.238281 185.3125 C 304.519531 185.152344 298.367188 182.632812 296.847656 180.640625 C 299.761719 178.5625 305.09375 183.542969 307.238281 185.3125 " fill-opacity="1" fill-rule="evenodd"/></g></g></g></g><g fill="#000000" fill-opacity="1"><g transform="translate(75.515406, 350.98281)"><g><path d="M 15.78125 -14.34375 C 15.0625 -14.269531 14.566406 -14.132812 14.296875 -13.9375 C 13.867188 -13.644531 13.65625 -12.828125 13.65625 -11.484375 L 13.65625 0.25 L 13.28125 0.25 L 3.40625 -12.03125 L 3.40625 -3.28125 C 3.40625 -2.144531 3.539062 -1.394531 3.8125 -1.03125 C 4.082031 -0.664062 4.648438 -0.460938 5.515625 -0.421875 L 5.515625 0 L 0.265625 0 L 0.265625 -0.421875 C 1.191406 -0.484375 1.785156 -0.6875 2.046875 -1.03125 C 2.304688 -1.382812 2.4375 -2.132812 2.4375 -3.28125 L 2.4375 -13.125 C 1.988281 -13.644531 1.632812 -13.976562 1.375 -14.125 C 1.113281 -14.269531 0.742188 -14.34375 0.265625 -14.34375 L 0.265625 -14.765625 L 4.078125 -14.765625 L 12.671875 -3.96875 L 12.671875 -11.484375 C 12.671875 -12.859375 12.457031 -13.691406 12.03125 -13.984375 C 11.71875 -14.160156 11.21875 -14.28125 10.53125 -14.34375 L 10.53125 -14.765625 L 15.78125 -14.765625 Z M 15.78125 -14.34375 "/></g></g></g><g fill="#000000" fill-opacity="1"><g transform="translate(91.622026, 350.98281)"><g><path d="M 10.484375 -5.21875 C 10.484375 -3.675781 10.003906 -2.382812 9.046875 -1.34375 C 8.097656 -0.300781 6.925781 0.21875 5.53125 0.21875 C 4.132812 0.21875 2.96875 -0.28125 2.03125 -1.28125 C 1.101562 -2.28125 0.640625 -3.535156 0.640625 -5.046875 C 0.640625 -6.578125 1.097656 -7.828125 2.015625 -8.796875 C 2.929688 -9.773438 4.117188 -10.265625 5.578125 -10.265625 C 7.003906 -10.265625 8.175781 -9.785156 9.09375 -8.828125 C 10.019531 -7.878906 10.484375 -6.675781 10.484375 -5.21875 Z M 8.484375 -4.4375 C 8.484375 -5.96875 8.179688 -7.21875 7.578125 -8.1875 C 6.984375 -9.15625 6.21875 -9.640625 5.28125 -9.640625 C 4.5 -9.640625 3.863281 -9.316406 3.375 -8.671875 C 2.894531 -8.035156 2.65625 -7.191406 2.65625 -6.140625 C 2.65625 -4.484375 2.984375 -3.046875 3.640625 -1.828125 C 4.140625 -0.878906 4.859375 -0.40625 5.796875 -0.40625 C 6.628906 -0.40625 7.285156 -0.757812 7.765625 -1.46875 C 8.242188 -2.1875 8.484375 -3.175781 8.484375 -4.4375 Z M 8.484375 -4.4375 "/></g></g></g><g fill="#000000" fill-opacity="1"><g transform="translate(102.776197, 350.98281)"><g><path d="M 15.484375 -9.703125 C 15.265625 -9.628906 15.109375 -9.53125 15.015625 -9.40625 C 14.921875 -9.28125 14.769531 -8.976562 14.5625 -8.5 L 11.484375 -0.78125 C 11.191406 -0.0507812 10.984375 0.3125 10.859375 0.3125 C 10.742188 0.3125 10.566406 -0.00390625 10.328125 -0.640625 L 8.296875 -5.90625 L 5.796875 -0.5625 C 5.535156 0.0195312 5.351562 0.3125 5.25 0.3125 C 5.125 0.3125 4.925781 -0.015625 4.65625 -0.671875 L 1.65625 -8.296875 C 1.394531 -8.859375 1.191406 -9.226562 1.046875 -9.40625 C 0.910156 -9.59375 0.71875 -9.691406 0.46875 -9.703125 L 0.46875 -10.046875 L 4.484375 -10.046875 L 4.484375 -9.703125 C 4.097656 -9.660156 3.828125 -9.585938 3.671875 -9.484375 C 3.523438 -9.378906 3.453125 -9.207031 3.453125 -8.96875 C 3.453125 -8.75 3.5 -8.523438 3.59375 -8.296875 L 5.796875 -2.484375 L 7.828125 -6.921875 L 7.390625 -8.171875 C 7.160156 -8.765625 6.945312 -9.15625 6.75 -9.34375 C 6.5625 -9.539062 6.257812 -9.660156 5.84375 -9.703125 L 5.84375 -10.046875 L 10.375 -10.046875 L 10.375 -9.703125 C 9.851562 -9.628906 9.503906 -9.539062 9.328125 -9.4375 C 9.160156 -9.332031 9.078125 -9.15625 9.078125 -8.90625 C 9.078125 -8.707031 9.203125 -8.269531 9.453125 -7.59375 L 11.328125 -2.59375 L 13.34375 -7.546875 C 13.59375 -8.171875 13.71875 -8.660156 13.71875 -9.015625 C 13.71875 -9.203125 13.648438 -9.34375 13.515625 -9.4375 C 13.390625 -9.539062 13.128906 -9.628906 12.734375 -9.703125 L 12.734375 -10.046875 L 15.484375 -10.046875 Z M 15.484375 -9.703125 "/></g></g></g><g fill="#000000" fill-opacity="1"><g transform="translate(118.882817, 350.98281)"><g/></g></g><g fill="#000000" fill-opacity="1"><g transform="translate(124.459909, 350.98281)"><g><path d="M 8.25 -14.34375 C 7.34375 -14.28125 6.773438 -14.132812 6.546875 -13.90625 C 6.316406 -13.675781 6.203125 -13.15625 6.203125 -12.34375 L 6.203125 -4.078125 C 6.203125 -2.679688 5.875 -1.597656 5.21875 -0.828125 C 4.5625 -0.0664062 3.632812 0.3125 2.4375 0.3125 C 1.789062 0.3125 1.257812 0.164062 0.84375 -0.125 C 0.425781 -0.425781 0.21875 -0.816406 0.21875 -1.296875 C 0.21875 -1.585938 0.328125 -1.84375 0.546875 -2.0625 C 0.765625 -2.289062 1.019531 -2.40625 1.3125 -2.40625 C 1.863281 -2.40625 2.253906 -2.023438 2.484375 -1.265625 C 2.554688 -0.984375 2.632812 -0.789062 2.71875 -0.6875 C 2.8125 -0.582031 2.929688 -0.53125 3.078125 -0.53125 C 3.640625 -0.53125 3.921875 -1.023438 3.921875 -2.015625 L 3.921875 -12.34375 C 3.921875 -13.15625 3.800781 -13.675781 3.5625 -13.90625 C 3.332031 -14.132812 2.765625 -14.28125 1.859375 -14.34375 L 1.859375 -14.765625 L 8.25 -14.765625 Z M 8.25 -14.34375 "/></g></g></g><g fill="#000000" fill-opacity="1"><g transform="translate(133.137861, 350.98281)"><g><path d="M 10.484375 -5.21875 C 10.484375 -3.675781 10.003906 -2.382812 9.046875 -1.34375 C 8.097656 -0.300781 6.925781 0.21875 5.53125 0.21875 C 4.132812 0.21875 2.96875 -0.28125 2.03125 -1.28125 C 1.101562 -2.28125 0.640625 -3.535156 0.640625 -5.046875 C 0.640625 -6.578125 1.097656 -7.828125 2.015625 -8.796875 C 2.929688 -9.773438 4.117188 -10.265625 5.578125 -10.265625 C 7.003906 -10.265625 8.175781 -9.785156 9.09375 -8.828125 C 10.019531 -7.878906 10.484375 -6.675781 10.484375 -5.21875 Z M 8.484375 -4.4375 C 8.484375 -5.96875 8.179688 -7.21875 7.578125 -8.1875 C 6.984375 -9.15625 6.21875 -9.640625 5.28125 -9.640625 C 4.5 -9.640625 3.863281 -9.316406 3.375 -8.671875 C 2.894531 -8.035156 2.65625 -7.191406 2.65625 -6.140625 C 2.65625 -4.484375 2.984375 -3.046875 3.640625 -1.828125 C 4.140625 -0.878906 4.859375 -0.40625 5.796875 -0.40625 C 6.628906 -0.40625 7.285156 -0.757812 7.765625 -1.46875 C 8.242188 -2.1875 8.484375 -3.175781 8.484375 -4.4375 Z M 8.484375 -4.4375 "/></g></g></g><g fill="#000000" fill-opacity="1"><g transform="translate(144.292032, 350.98281)"><g><path d="M 9.453125 -3.5 C 8.492188 -1.019531 6.921875 0.21875 4.734375 0.21875 C 3.453125 0.21875 2.4375 -0.226562 1.6875 -1.125 C 0.9375 -2.03125 0.5625 -3.25 0.5625 -4.78125 C 0.5625 -6.394531 0.988281 -7.710938 1.84375 -8.734375 C 2.707031 -9.753906 3.832031 -10.265625 5.21875 -10.265625 C 6.40625 -10.265625 7.359375 -9.835938 8.078125 -8.984375 C 8.566406 -8.367188 8.882812 -7.4375 9.03125 -6.1875 L 2.171875 -6.1875 C 2.210938 -4.914062 2.429688 -3.882812 2.828125 -3.09375 C 3.472656 -1.90625 4.410156 -1.3125 5.640625 -1.3125 C 6.359375 -1.3125 6.976562 -1.488281 7.5 -1.84375 C 8.03125 -2.207031 8.566406 -2.8125 9.109375 -3.65625 Z M 6.765625 -6.890625 C 6.609375 -7.859375 6.375 -8.523438 6.0625 -8.890625 C 5.75 -9.265625 5.253906 -9.453125 4.578125 -9.453125 C 3.234375 -9.453125 2.441406 -8.597656 2.203125 -6.890625 Z M 6.765625 -6.890625 "/></g></g></g><g fill="#000000" fill-opacity="1"><g transform="translate(154.196932, 350.98281)"><g/></g></g><g fill="#000000" fill-opacity="1"><g transform="translate(159.774024, 350.98281)"><g><path d="M 9.1875 -3.28125 C 8.550781 -2.03125 7.941406 -1.175781 7.359375 -0.71875 C 6.597656 -0.09375 5.742188 0.21875 4.796875 0.21875 C 3.554688 0.21875 2.539062 -0.242188 1.75 -1.171875 C 0.957031 -2.097656 0.5625 -3.285156 0.5625 -4.734375 C 0.5625 -6.617188 1.1875 -8.082031 2.4375 -9.125 C 3.351562 -9.882812 4.351562 -10.265625 5.4375 -10.265625 C 6.375 -10.265625 7.179688 -10.035156 7.859375 -9.578125 C 8.535156 -9.128906 8.875 -8.59375 8.875 -7.96875 C 8.875 -7.71875 8.769531 -7.5 8.5625 -7.3125 C 8.351562 -7.125 8.109375 -7.03125 7.828125 -7.03125 C 7.304688 -7.03125 6.953125 -7.375 6.765625 -8.0625 L 6.625 -8.546875 C 6.507812 -8.960938 6.359375 -9.242188 6.171875 -9.390625 C 5.992188 -9.535156 5.707031 -9.609375 5.3125 -9.609375 C 4.40625 -9.609375 3.671875 -9.25 3.109375 -8.53125 C 2.554688 -7.820312 2.28125 -6.890625 2.28125 -5.734375 C 2.28125 -4.453125 2.597656 -3.40625 3.234375 -2.59375 C 3.867188 -1.789062 4.703125 -1.390625 5.734375 -1.390625 C 6.367188 -1.390625 6.914062 -1.539062 7.375 -1.84375 C 7.84375 -2.144531 8.34375 -2.691406 8.875 -3.484375 Z M 9.1875 -3.28125 "/></g></g></g><g fill="#000000" fill-opacity="1"><g transform="translate(169.678923, 350.98281)"><g><path d="M 9.859375 -0.890625 C 9.472656 -0.460938 9.132812 -0.171875 8.84375 -0.015625 C 8.550781 0.140625 8.222656 0.21875 7.859375 0.21875 C 7.390625 0.21875 7.046875 0.0976562 6.828125 -0.140625 C 6.617188 -0.390625 6.484375 -0.8125 6.421875 -1.40625 C 5.140625 -0.320312 4.054688 0.21875 3.171875 0.21875 C 2.484375 0.21875 1.921875 0 1.484375 -0.4375 C 1.046875 -0.882812 0.828125 -1.460938 0.828125 -2.171875 C 0.828125 -2.972656 1.09375 -3.617188 1.625 -4.109375 C 2.101562 -4.523438 2.582031 -4.851562 3.0625 -5.09375 C 3.550781 -5.34375 4.664062 -5.816406 6.40625 -6.515625 L 6.40625 -7.875 C 6.40625 -9.113281 5.835938 -9.734375 4.703125 -9.734375 C 4.253906 -9.734375 3.875 -9.625 3.5625 -9.40625 C 3.25 -9.1875 3.09375 -8.929688 3.09375 -8.640625 C 3.09375 -8.472656 3.117188 -8.289062 3.171875 -8.09375 C 3.203125 -7.882812 3.21875 -7.769531 3.21875 -7.75 C 3.21875 -7.488281 3.113281 -7.265625 2.90625 -7.078125 C 2.707031 -6.898438 2.472656 -6.8125 2.203125 -6.8125 C 1.941406 -6.8125 1.71875 -6.90625 1.53125 -7.09375 C 1.34375 -7.289062 1.25 -7.515625 1.25 -7.765625 C 1.25 -8.367188 1.554688 -8.925781 2.171875 -9.4375 C 2.835938 -9.988281 3.78125 -10.265625 5 -10.265625 C 6.382812 -10.265625 7.3125 -9.832031 7.78125 -8.96875 C 8.070312 -8.507812 8.21875 -7.75 8.21875 -6.6875 L 8.21875 -2.34375 C 8.21875 -1.851562 8.265625 -1.515625 8.359375 -1.328125 C 8.453125 -1.140625 8.625 -1.046875 8.875 -1.046875 C 9.1875 -1.046875 9.515625 -1.1875 9.859375 -1.46875 Z M 6.40625 -2.75 L 6.40625 -5.984375 C 5.0625 -5.492188 4.117188 -5.015625 3.578125 -4.546875 C 3.046875 -4.085938 2.78125 -3.53125 2.78125 -2.875 L 2.78125 -2.78125 C 2.78125 -2.3125 2.914062 -1.910156 3.1875 -1.578125 C 3.46875 -1.242188 3.800781 -1.078125 4.1875 -1.078125 C 4.707031 -1.078125 5.253906 -1.238281 5.828125 -1.5625 C 6.066406 -1.707031 6.222656 -1.851562 6.296875 -2 C 6.367188 -2.15625 6.40625 -2.40625 6.40625 -2.75 Z M 6.40625 -2.75 "/></g></g></g><g fill="#000000" fill-opacity="1"><g transform="translate(179.583823, 350.98281)"><g><path d="M 10.828125 0 L 6.1875 0 L 6.1875 -0.328125 C 6.75 -0.378906 7.125 -0.53125 7.3125 -0.78125 C 7.5 -1.03125 7.59375 -1.503906 7.59375 -2.203125 L 7.59375 -6.875 C 7.59375 -8.3125 7.046875 -9.03125 5.953125 -9.03125 C 5.585938 -9.03125 5.25 -8.941406 4.9375 -8.765625 C 4.625 -8.597656 4.195312 -8.265625 3.65625 -7.765625 L 3.65625 -1.5 C 3.65625 -1.09375 3.757812 -0.804688 3.96875 -0.640625 C 4.175781 -0.484375 4.5625 -0.378906 5.125 -0.328125 L 5.125 0 L 0.40625 0 L 0.40625 -0.328125 C 0.96875 -0.378906 1.335938 -0.507812 1.515625 -0.71875 C 1.691406 -0.9375 1.78125 -1.367188 1.78125 -2.015625 L 1.78125 -7.546875 C 1.78125 -8.085938 1.71875 -8.457031 1.59375 -8.65625 C 1.476562 -8.863281 1.265625 -8.96875 0.953125 -8.96875 C 0.671875 -8.96875 0.472656 -8.9375 0.359375 -8.875 L 0.359375 -9.265625 C 1.460938 -9.585938 2.488281 -9.921875 3.4375 -10.265625 L 3.59375 -10.21875 L 3.59375 -8.453125 C 4.351562 -9.171875 4.953125 -9.648438 5.390625 -9.890625 C 5.828125 -10.140625 6.304688 -10.265625 6.828125 -10.265625 C 7.648438 -10.265625 8.289062 -9.96875 8.75 -9.375 C 9.21875 -8.789062 9.453125 -7.972656 9.453125 -6.921875 L 9.453125 -1.8125 C 9.453125 -1.257812 9.539062 -0.890625 9.71875 -0.703125 C 9.90625 -0.515625 10.273438 -0.390625 10.828125 -0.328125 Z M 10.828125 0 "/></g></g></g><g fill="#000000" fill-opacity="1"><g transform="translate(190.737994, 350.98281)"><g/></g></g><g fill="#000000" fill-opacity="1"><g transform="translate(196.315086, 350.98281)"><g><path d="M 7.46875 -9.078125 C 7.46875 -8.765625 7.390625 -8.519531 7.234375 -8.34375 C 7.078125 -8.164062 6.867188 -8.078125 6.609375 -8.078125 C 6.347656 -8.078125 6.050781 -8.222656 5.71875 -8.515625 C 5.476562 -8.742188 5.28125 -8.859375 5.125 -8.859375 C 4.832031 -8.859375 4.5 -8.640625 4.125 -8.203125 C 3.75 -7.773438 3.5625 -7.382812 3.5625 -7.03125 L 3.5625 -2.015625 C 3.5625 -1.367188 3.6875 -0.929688 3.9375 -0.703125 C 4.195312 -0.484375 4.707031 -0.359375 5.46875 -0.328125 L 5.46875 0 L 0.109375 0 L 0.109375 -0.328125 C 0.828125 -0.460938 1.269531 -0.613281 1.4375 -0.78125 C 1.613281 -0.945312 1.703125 -1.3125 1.703125 -1.875 L 1.703125 -7.453125 C 1.703125 -7.941406 1.644531 -8.285156 1.53125 -8.484375 C 1.414062 -8.691406 1.21875 -8.796875 0.9375 -8.796875 C 0.695312 -8.796875 0.4375 -8.765625 0.15625 -8.703125 L 0.15625 -9.0625 C 1.34375 -9.445312 2.441406 -9.847656 3.453125 -10.265625 L 3.5625 -10.21875 L 3.5625 -8.171875 C 4.113281 -8.953125 4.582031 -9.492188 4.96875 -9.796875 C 5.363281 -10.109375 5.789062 -10.265625 6.25 -10.265625 C 6.632812 -10.265625 6.929688 -10.160156 7.140625 -9.953125 C 7.359375 -9.742188 7.46875 -9.453125 7.46875 -9.078125 Z M 7.46875 -9.078125 "/></g></g></g><g fill="#000000" fill-opacity="1"><g transform="translate(203.743767, 350.98281)"><g><path d="M 9.453125 -3.5 C 8.492188 -1.019531 6.921875 0.21875 4.734375 0.21875 C 3.453125 0.21875 2.4375 -0.226562 1.6875 -1.125 C 0.9375 -2.03125 0.5625 -3.25 0.5625 -4.78125 C 0.5625 -6.394531 0.988281 -7.710938 1.84375 -8.734375 C 2.707031 -9.753906 3.832031 -10.265625 5.21875 -10.265625 C 6.40625 -10.265625 7.359375 -9.835938 8.078125 -8.984375 C 8.566406 -8.367188 8.882812 -7.4375 9.03125 -6.1875 L 2.171875 -6.1875 C 2.210938 -4.914062 2.429688 -3.882812 2.828125 -3.09375 C 3.472656 -1.90625 4.410156 -1.3125 5.640625 -1.3125 C 6.359375 -1.3125 6.976562 -1.488281 7.5 -1.84375 C 8.03125 -2.207031 8.566406 -2.8125 9.109375 -3.65625 Z M 6.765625 -6.890625 C 6.609375 -7.859375 6.375 -8.523438 6.0625 -8.890625 C 5.75 -9.265625 5.253906 -9.453125 4.578125 -9.453125 C 3.234375 -9.453125 2.441406 -8.597656 2.203125 -6.890625 Z M 6.765625 -6.890625 "/></g></g></g><g fill="#000000" fill-opacity="1"><g transform="translate(213.648667, 350.98281)"><g><path d="M 5.734375 0 L 0.46875 0 L 0.46875 -0.328125 C 1.164062 -0.390625 1.625 -0.523438 1.84375 -0.734375 C 2.070312 -0.941406 2.1875 -1.34375 2.1875 -1.9375 L 2.1875 -12.578125 C 2.1875 -13.097656 2.117188 -13.453125 1.984375 -13.640625 C 1.847656 -13.835938 1.601562 -13.9375 1.25 -13.9375 C 1.113281 -13.9375 0.882812 -13.925781 0.5625 -13.90625 L 0.421875 -13.90625 L 0.421875 -14.25 C 1.898438 -14.613281 3.082031 -14.941406 3.96875 -15.234375 L 4.0625 -15.1875 L 4.0625 -1.875 C 4.0625 -1.257812 4.160156 -0.859375 4.359375 -0.671875 C 4.554688 -0.492188 5.015625 -0.378906 5.734375 -0.328125 Z M 5.734375 0 "/></g></g></g><g fill="#000000" fill-opacity="1"><g transform="translate(219.850388, 350.98281)"><g><path d="M 9.859375 -0.890625 C 9.472656 -0.460938 9.132812 -0.171875 8.84375 -0.015625 C 8.550781 0.140625 8.222656 0.21875 7.859375 0.21875 C 7.390625 0.21875 7.046875 0.0976562 6.828125 -0.140625 C 6.617188 -0.390625 6.484375 -0.8125 6.421875 -1.40625 C 5.140625 -0.320312 4.054688 0.21875 3.171875 0.21875 C 2.484375 0.21875 1.921875 0 1.484375 -0.4375 C 1.046875 -0.882812 0.828125 -1.460938 0.828125 -2.171875 C 0.828125 -2.972656 1.09375 -3.617188 1.625 -4.109375 C 2.101562 -4.523438 2.582031 -4.851562 3.0625 -5.09375 C 3.550781 -5.34375 4.664062 -5.816406 6.40625 -6.515625 L 6.40625 -7.875 C 6.40625 -9.113281 5.835938 -9.734375 4.703125 -9.734375 C 4.253906 -9.734375 3.875 -9.625 3.5625 -9.40625 C 3.25 -9.1875 3.09375 -8.929688 3.09375 -8.640625 C 3.09375 -8.472656 3.117188 -8.289062 3.171875 -8.09375 C 3.203125 -7.882812 3.21875 -7.769531 3.21875 -7.75 C 3.21875 -7.488281 3.113281 -7.265625 2.90625 -7.078125 C 2.707031 -6.898438 2.472656 -6.8125 2.203125 -6.8125 C 1.941406 -6.8125 1.71875 -6.90625 1.53125 -7.09375 C 1.34375 -7.289062 1.25 -7.515625 1.25 -7.765625 C 1.25 -8.367188 1.554688 -8.925781 2.171875 -9.4375 C 2.835938 -9.988281 3.78125 -10.265625 5 -10.265625 C 6.382812 -10.265625 7.3125 -9.832031 7.78125 -8.96875 C 8.070312 -8.507812 8.21875 -7.75 8.21875 -6.6875 L 8.21875 -2.34375 C 8.21875 -1.851562 8.265625 -1.515625 8.359375 -1.328125 C 8.453125 -1.140625 8.625 -1.046875 8.875 -1.046875 C 9.1875 -1.046875 9.515625 -1.1875 9.859375 -1.46875 Z M 6.40625 -2.75 L 6.40625 -5.984375 C 5.0625 -5.492188 4.117188 -5.015625 3.578125 -4.546875 C 3.046875 -4.085938 2.78125 -3.53125 2.78125 -2.875 L 2.78125 -2.78125 C 2.78125 -2.3125 2.914062 -1.910156 3.1875 -1.578125 C 3.46875 -1.242188 3.800781 -1.078125 4.1875 -1.078125 C 4.707031 -1.078125 5.253906 -1.238281 5.828125 -1.5625 C 6.066406 -1.707031 6.222656 -1.851562 6.296875 -2 C 6.367188 -2.15625 6.40625 -2.40625 6.40625 -2.75 Z M 6.40625 -2.75 "/></g></g></g><g fill="#000000" fill-opacity="1"><g transform="translate(229.755288, 350.98281)"><g><path d="M 10.6875 0 L 6.203125 0 L 6.203125 -0.328125 C 6.578125 -0.359375 6.816406 -0.40625 6.921875 -0.46875 C 7.035156 -0.539062 7.09375 -0.675781 7.09375 -0.875 C 7.09375 -1.007812 7.050781 -1.140625 6.96875 -1.265625 L 4.9375 -4.390625 L 3.171875 -1.65625 C 2.867188 -1.1875 2.71875 -0.878906 2.71875 -0.734375 C 2.71875 -0.460938 3.015625 -0.328125 3.609375 -0.328125 L 3.609375 0 L 0.375 0 L 0.375 -0.328125 C 0.75 -0.359375 1.03125 -0.441406 1.21875 -0.578125 C 1.40625 -0.710938 1.671875 -1.007812 2.015625 -1.46875 L 4.546875 -5.15625 L 2.453125 -8.359375 C 2.109375 -8.878906 1.816406 -9.234375 1.578125 -9.421875 C 1.347656 -9.609375 1.066406 -9.703125 0.734375 -9.703125 L 0.53125 -9.703125 L 0.53125 -10.046875 L 5.15625 -10.046875 L 5.15625 -9.703125 C 4.507812 -9.691406 4.1875 -9.53125 4.1875 -9.21875 C 4.1875 -8.914062 4.53125 -8.253906 5.21875 -7.234375 L 5.53125 -6.78125 C 5.882812 -7.320312 6.109375 -7.648438 6.203125 -7.765625 C 6.753906 -8.453125 7.03125 -8.9375 7.03125 -9.21875 C 7.03125 -9.5 6.734375 -9.660156 6.140625 -9.703125 L 6.140625 -10.046875 L 9.65625 -10.046875 L 9.65625 -9.703125 C 8.894531 -9.671875 8.296875 -9.34375 7.859375 -8.71875 L 6 -6.046875 L 8.859375 -1.671875 C 9.210938 -1.171875 9.519531 -0.820312 9.78125 -0.625 C 10.039062 -0.425781 10.34375 -0.328125 10.6875 -0.328125 Z M 10.6875 0 "/></g></g></g><g fill="#000000" fill-opacity="1"><g transform="translate(240.909458, 350.98281)"><g/></g></g><g fill="#000000" fill-opacity="1"><g transform="translate(246.48655, 350.98281)"><g><path d="M 9.859375 -0.890625 C 9.472656 -0.460938 9.132812 -0.171875 8.84375 -0.015625 C 8.550781 0.140625 8.222656 0.21875 7.859375 0.21875 C 7.390625 0.21875 7.046875 0.0976562 6.828125 -0.140625 C 6.617188 -0.390625 6.484375 -0.8125 6.421875 -1.40625 C 5.140625 -0.320312 4.054688 0.21875 3.171875 0.21875 C 2.484375 0.21875 1.921875 0 1.484375 -0.4375 C 1.046875 -0.882812 0.828125 -1.460938 0.828125 -2.171875 C 0.828125 -2.972656 1.09375 -3.617188 1.625 -4.109375 C 2.101562 -4.523438 2.582031 -4.851562 3.0625 -5.09375 C 3.550781 -5.34375 4.664062 -5.816406 6.40625 -6.515625 L 6.40625 -7.875 C 6.40625 -9.113281 5.835938 -9.734375 4.703125 -9.734375 C 4.253906 -9.734375 3.875 -9.625 3.5625 -9.40625 C 3.25 -9.1875 3.09375 -8.929688 3.09375 -8.640625 C 3.09375 -8.472656 3.117188 -8.289062 3.171875 -8.09375 C 3.203125 -7.882812 3.21875 -7.769531 3.21875 -7.75 C 3.21875 -7.488281 3.113281 -7.265625 2.90625 -7.078125 C 2.707031 -6.898438 2.472656 -6.8125 2.203125 -6.8125 C 1.941406 -6.8125 1.71875 -6.90625 1.53125 -7.09375 C 1.34375 -7.289062 1.25 -7.515625 1.25 -7.765625 C 1.25 -8.367188 1.554688 -8.925781 2.171875 -9.4375 C 2.835938 -9.988281 3.78125 -10.265625 5 -10.265625 C 6.382812 -10.265625 7.3125 -9.832031 7.78125 -8.96875 C 8.070312 -8.507812 8.21875 -7.75 8.21875 -6.6875 L 8.21875 -2.34375 C 8.21875 -1.851562 8.265625 -1.515625 8.359375 -1.328125 C 8.453125 -1.140625 8.625 -1.046875 8.875 -1.046875 C 9.1875 -1.046875 9.515625 -1.1875 9.859375 -1.46875 Z M 6.40625 -2.75 L 6.40625 -5.984375 C 5.0625 -5.492188 4.117188 -5.015625 3.578125 -4.546875 C 3.046875 -4.085938 2.78125 -3.53125 2.78125 -2.875 L 2.78125 -2.78125 C 2.78125 -2.3125 2.914062 -1.910156 3.1875 -1.578125 C 3.46875 -1.242188 3.800781 -1.078125 4.1875 -1.078125 C 4.707031 -1.078125 5.253906 -1.238281 5.828125 -1.5625 C 6.066406 -1.707031 6.222656 -1.851562 6.296875 -2 C 6.367188 -2.15625 6.40625 -2.40625 6.40625 -2.75 Z M 6.40625 -2.75 "/></g></g></g><g fill="#000000" fill-opacity="1"><g transform="translate(256.39145, 350.98281)"><g><path d="M 10.828125 0 L 6.1875 0 L 6.1875 -0.328125 C 6.75 -0.378906 7.125 -0.53125 7.3125 -0.78125 C 7.5 -1.03125 7.59375 -1.503906 7.59375 -2.203125 L 7.59375 -6.875 C 7.59375 -8.3125 7.046875 -9.03125 5.953125 -9.03125 C 5.585938 -9.03125 5.25 -8.941406 4.9375 -8.765625 C 4.625 -8.597656 4.195312 -8.265625 3.65625 -7.765625 L 3.65625 -1.5 C 3.65625 -1.09375 3.757812 -0.804688 3.96875 -0.640625 C 4.175781 -0.484375 4.5625 -0.378906 5.125 -0.328125 L 5.125 0 L 0.40625 0 L 0.40625 -0.328125 C 0.96875 -0.378906 1.335938 -0.507812 1.515625 -0.71875 C 1.691406 -0.9375 1.78125 -1.367188 1.78125 -2.015625 L 1.78125 -7.546875 C 1.78125 -8.085938 1.71875 -8.457031 1.59375 -8.65625 C 1.476562 -8.863281 1.265625 -8.96875 0.953125 -8.96875 C 0.671875 -8.96875 0.472656 -8.9375 0.359375 -8.875 L 0.359375 -9.265625 C 1.460938 -9.585938 2.488281 -9.921875 3.4375 -10.265625 L 3.59375 -10.21875 L 3.59375 -8.453125 C 4.351562 -9.171875 4.953125 -9.648438 5.390625 -9.890625 C 5.828125 -10.140625 6.304688 -10.265625 6.828125 -10.265625 C 7.648438 -10.265625 8.289062 -9.96875 8.75 -9.375 C 9.21875 -8.789062 9.453125 -7.972656 9.453125 -6.921875 L 9.453125 -1.8125 C 9.453125 -1.257812 9.539062 -0.890625 9.71875 -0.703125 C 9.90625 -0.515625 10.273438 -0.390625 10.828125 -0.328125 Z M 10.828125 0 "/></g></g></g><g fill="#000000" fill-opacity="1"><g transform="translate(267.545621, 350.98281)"><g><path d="M 10.953125 -0.9375 L 7.671875 0.21875 L 7.59375 0.15625 L 7.59375 -1.265625 C 6.875 -0.273438 5.921875 0.21875 4.734375 0.21875 C 3.492188 0.21875 2.492188 -0.222656 1.734375 -1.109375 C 0.984375 -1.992188 0.609375 -3.148438 0.609375 -4.578125 C 0.609375 -6.148438 1.0625 -7.488281 1.96875 -8.59375 C 2.875 -9.707031 3.96875 -10.265625 5.25 -10.265625 C 6.050781 -10.265625 6.832031 -9.941406 7.59375 -9.296875 L 7.59375 -12.78125 C 7.59375 -13.25 7.523438 -13.554688 7.390625 -13.703125 C 7.253906 -13.847656 6.976562 -13.921875 6.5625 -13.921875 C 6.351562 -13.921875 6.1875 -13.914062 6.0625 -13.90625 L 6.0625 -14.25 C 7.414062 -14.613281 8.507812 -14.941406 9.34375 -15.234375 L 9.453125 -15.1875 L 9.453125 -2.546875 C 9.453125 -2.023438 9.515625 -1.679688 9.640625 -1.515625 C 9.773438 -1.347656 10.039062 -1.265625 10.4375 -1.265625 C 10.507812 -1.265625 10.679688 -1.273438 10.953125 -1.296875 Z M 7.59375 -2.28125 L 7.59375 -7.40625 C 7.59375 -8 7.359375 -8.519531 6.890625 -8.96875 C 6.429688 -9.414062 5.90625 -9.640625 5.3125 -9.640625 C 4.457031 -9.640625 3.773438 -9.257812 3.265625 -8.5 C 2.765625 -7.738281 2.515625 -6.726562 2.515625 -5.46875 C 2.515625 -4.09375 2.796875 -2.992188 3.359375 -2.171875 C 3.929688 -1.347656 4.675781 -0.9375 5.59375 -0.9375 C 6.269531 -0.9375 6.804688 -1.160156 7.203125 -1.609375 C 7.460938 -1.890625 7.59375 -2.113281 7.59375 -2.28125 Z M 7.59375 -2.28125 "/></g></g></g><g fill="#000000" fill-opacity="1"><g transform="translate(278.699791, 350.98281)"><g/></g></g><g fill="#000000" fill-opacity="1"><g transform="translate(284.276883, 350.98281)"><g><path d="M 9.453125 -3.5 C 8.492188 -1.019531 6.921875 0.21875 4.734375 0.21875 C 3.453125 0.21875 2.4375 -0.226562 1.6875 -1.125 C 0.9375 -2.03125 0.5625 -3.25 0.5625 -4.78125 C 0.5625 -6.394531 0.988281 -7.710938 1.84375 -8.734375 C 2.707031 -9.753906 3.832031 -10.265625 5.21875 -10.265625 C 6.40625 -10.265625 7.359375 -9.835938 8.078125 -8.984375 C 8.566406 -8.367188 8.882812 -7.4375 9.03125 -6.1875 L 2.171875 -6.1875 C 2.210938 -4.914062 2.429688 -3.882812 2.828125 -3.09375 C 3.472656 -1.90625 4.410156 -1.3125 5.640625 -1.3125 C 6.359375 -1.3125 6.976562 -1.488281 7.5 -1.84375 C 8.03125 -2.207031 8.566406 -2.8125 9.109375 -3.65625 Z M 6.765625 -6.890625 C 6.609375 -7.859375 6.375 -8.523438 6.0625 -8.890625 C 5.75 -9.265625 5.253906 -9.453125 4.578125 -9.453125 C 3.234375 -9.453125 2.441406 -8.597656 2.203125 -6.890625 Z M 6.765625 -6.890625 "/></g></g></g><g fill="#000000" fill-opacity="1"><g transform="translate(294.181783, 350.98281)"><g><path d="M 10.828125 0 L 6.1875 0 L 6.1875 -0.328125 C 6.75 -0.378906 7.125 -0.53125 7.3125 -0.78125 C 7.5 -1.03125 7.59375 -1.503906 7.59375 -2.203125 L 7.59375 -6.875 C 7.59375 -8.3125 7.046875 -9.03125 5.953125 -9.03125 C 5.585938 -9.03125 5.25 -8.941406 4.9375 -8.765625 C 4.625 -8.597656 4.195312 -8.265625 3.65625 -7.765625 L 3.65625 -1.5 C 3.65625 -1.09375 3.757812 -0.804688 3.96875 -0.640625 C 4.175781 -0.484375 4.5625 -0.378906 5.125 -0.328125 L 5.125 0 L 0.40625 0 L 0.40625 -0.328125 C 0.96875 -0.378906 1.335938 -0.507812 1.515625 -0.71875 C 1.691406 -0.9375 1.78125 -1.367188 1.78125 -2.015625 L 1.78125 -7.546875 C 1.78125 -8.085938 1.71875 -8.457031 1.59375 -8.65625 C 1.476562 -8.863281 1.265625 -8.96875 0.953125 -8.96875 C 0.671875 -8.96875 0.472656 -8.9375 0.359375 -8.875 L 0.359375 -9.265625 C 1.460938 -9.585938 2.488281 -9.921875 3.4375 -10.265625 L 3.59375 -10.21875 L 3.59375 -8.453125 C 4.351562 -9.171875 4.953125 -9.648438 5.390625 -9.890625 C 5.828125 -10.140625 6.304688 -10.265625 6.828125 -10.265625 C 7.648438 -10.265625 8.289062 -9.96875 8.75 -9.375 C 9.21875 -8.789062 9.453125 -7.972656 9.453125 -6.921875 L 9.453125 -1.8125 C 9.453125 -1.257812 9.539062 -0.890625 9.71875 -0.703125 C 9.90625 -0.515625 10.273438 -0.390625 10.828125 -0.328125 Z M 10.828125 0 "/></g></g></g><g fill="#000000" fill-opacity="1"><g transform="translate(305.33594, 350.98281)"><g><path d="M 4.3125 0 C 4.3125 1.59375 3.984375 2.800781 3.328125 3.625 C 2.679688 4.445312 1.742188 4.859375 0.515625 4.859375 C -0.0976562 4.859375 -0.597656 4.742188 -0.984375 4.515625 C -1.367188 4.285156 -1.5625 3.992188 -1.5625 3.640625 C -1.5625 3.398438 -1.472656 3.191406 -1.296875 3.015625 C -1.117188 2.847656 -0.898438 2.765625 -0.640625 2.765625 C -0.304688 2.765625 0.046875 3.003906 0.421875 3.484375 C 0.765625 3.898438 1.078125 4.109375 1.359375 4.109375 C 1.703125 4.109375 1.957031 3.972656 2.125 3.703125 C 2.332031 3.328125 2.4375 2.425781 2.4375 1 L 2.4375 -7.453125 C 2.4375 -8.347656 2.195312 -8.796875 1.71875 -8.796875 C 1.476562 -8.796875 1.179688 -8.769531 0.828125 -8.71875 L 0.71875 -8.703125 L 0.71875 -9.0625 C 1.90625 -9.425781 3.0625 -9.828125 4.1875 -10.265625 L 4.3125 -10.203125 Z M 4.5 -13.171875 C 4.5 -12.835938 4.390625 -12.5625 4.171875 -12.34375 C 3.960938 -12.132812 3.695312 -12.03125 3.375 -12.03125 C 3.0625 -12.03125 2.789062 -12.132812 2.5625 -12.34375 C 2.34375 -12.5625 2.234375 -12.835938 2.234375 -13.171875 C 2.234375 -13.484375 2.34375 -13.75 2.5625 -13.96875 C 2.789062 -14.1875 3.0625 -14.296875 3.375 -14.296875 C 3.695312 -14.296875 3.960938 -14.1875 4.171875 -13.96875 C 4.390625 -13.75 4.5 -13.484375 4.5 -13.171875 Z M 4.5 -13.171875 "/></g></g></g><g fill="#000000" fill-opacity="1"><g transform="translate(311.537661, 350.98281)"><g><path d="M 10.484375 -5.21875 C 10.484375 -3.675781 10.003906 -2.382812 9.046875 -1.34375 C 8.097656 -0.300781 6.925781 0.21875 5.53125 0.21875 C 4.132812 0.21875 2.96875 -0.28125 2.03125 -1.28125 C 1.101562 -2.28125 0.640625 -3.535156 0.640625 -5.046875 C 0.640625 -6.578125 1.097656 -7.828125 2.015625 -8.796875 C 2.929688 -9.773438 4.117188 -10.265625 5.578125 -10.265625 C 7.003906 -10.265625 8.175781 -9.785156 9.09375 -8.828125 C 10.019531 -7.878906 10.484375 -6.675781 10.484375 -5.21875 Z M 8.484375 -4.4375 C 8.484375 -5.96875 8.179688 -7.21875 7.578125 -8.1875 C 6.984375 -9.15625 6.21875 -9.640625 5.28125 -9.640625 C 4.5 -9.640625 3.863281 -9.316406 3.375 -8.671875 C 2.894531 -8.035156 2.65625 -7.191406 2.65625 -6.140625 C 2.65625 -4.484375 2.984375 -3.046875 3.640625 -1.828125 C 4.140625 -0.878906 4.859375 -0.40625 5.796875 -0.40625 C 6.628906 -0.40625 7.285156 -0.757812 7.765625 -1.46875 C 8.242188 -2.1875 8.484375 -3.175781 8.484375 -4.4375 Z M 8.484375 -4.4375 "/></g></g></g><g fill="#000000" fill-opacity="1"><g transform="translate(322.691844, 350.98281)"><g><path d="M 10.59375 -9.703125 C 10.332031 -9.671875 10.125 -9.582031 9.96875 -9.4375 C 9.820312 -9.300781 9.675781 -9.054688 9.53125 -8.703125 L 6.09375 0.40625 C 5.5 2.007812 4.90625 3.148438 4.3125 3.828125 C 3.726562 4.515625 3.066406 4.859375 2.328125 4.859375 C 1.847656 4.859375 1.453125 4.734375 1.140625 4.484375 C 0.828125 4.242188 0.671875 3.9375 0.671875 3.5625 C 0.671875 3.300781 0.765625 3.070312 0.953125 2.875 C 1.148438 2.6875 1.375 2.59375 1.625 2.59375 C 1.96875 2.59375 2.363281 2.671875 2.8125 2.828125 C 3.019531 2.929688 3.203125 2.984375 3.359375 2.984375 C 3.523438 2.984375 3.71875 2.882812 3.9375 2.6875 C 4.15625 2.5 4.335938 2.265625 4.484375 1.984375 C 4.679688 1.660156 4.878906 1.21875 5.078125 0.65625 C 5.273438 0.101562 5.375 -0.253906 5.375 -0.421875 C 5.375 -0.566406 5.289062 -0.84375 5.125 -1.25 L 1.453125 -9.015625 C 1.273438 -9.398438 0.894531 -9.640625 0.3125 -9.734375 L 0.3125 -10.046875 L 4.90625 -10.046875 L 4.90625 -9.703125 C 4.425781 -9.691406 4.085938 -9.640625 3.890625 -9.546875 C 3.703125 -9.460938 3.609375 -9.316406 3.609375 -9.109375 C 3.609375 -8.878906 3.6875 -8.59375 3.84375 -8.25 L 6.40625 -2.609375 L 8.5625 -8.765625 C 8.625 -8.898438 8.65625 -9.023438 8.65625 -9.140625 C 8.65625 -9.515625 8.300781 -9.703125 7.59375 -9.703125 L 7.59375 -10.046875 L 10.59375 -10.046875 Z M 10.59375 -9.703125 "/></g></g></g><g fill="#000000" fill-opacity="1"><g transform="translate(333.846002, 350.98281)"><g/></g></g><g fill="#000000" fill-opacity="1"><g transform="translate(339.42308, 350.98281)"><g><path d="M 10.859375 0 L 6.140625 0 L 6.140625 -0.328125 C 6.773438 -0.390625 7.1875 -0.539062 7.375 -0.78125 C 7.5625 -1.019531 7.65625 -1.519531 7.65625 -2.28125 L 7.65625 -6.6875 C 7.65625 -8.269531 7.097656 -9.0625 5.984375 -9.0625 C 5.546875 -9.0625 5.132812 -8.953125 4.75 -8.734375 C 4.375 -8.515625 3.957031 -8.15625 3.5 -7.65625 L 3.5 -2.28125 C 3.5 -1.5 3.585938 -1 3.765625 -0.78125 C 3.941406 -0.5625 4.359375 -0.410156 5.015625 -0.328125 L 5.015625 0 L 0.203125 0 L 0.203125 -0.328125 C 0.835938 -0.421875 1.234375 -0.570312 1.390625 -0.78125 C 1.546875 -0.988281 1.625 -1.488281 1.625 -2.28125 L 1.625 -12.78125 C 1.625 -13.257812 1.550781 -13.566406 1.40625 -13.703125 C 1.269531 -13.847656 0.960938 -13.921875 0.484375 -13.921875 C 0.367188 -13.921875 0.28125 -13.914062 0.21875 -13.90625 L 0.21875 -14.25 L 0.828125 -14.4375 C 1.835938 -14.71875 2.691406 -14.984375 3.390625 -15.234375 L 3.5 -15.171875 L 3.5 -8.390625 C 4.019531 -9.054688 4.53125 -9.535156 5.03125 -9.828125 C 5.539062 -10.117188 6.125 -10.265625 6.78125 -10.265625 C 8.613281 -10.265625 9.53125 -9.082031 9.53125 -6.71875 L 9.53125 -2.28125 C 9.53125 -1.5 9.597656 -1.007812 9.734375 -0.8125 C 9.878906 -0.613281 10.253906 -0.453125 10.859375 -0.328125 Z M 10.859375 0 "/></g></g></g><g fill="#000000" fill-opacity="1"><g transform="translate(350.577237, 350.98281)"><g><path d="M 5.640625 0 L 0.359375 0 L 0.359375 -0.328125 C 1.128906 -0.378906 1.613281 -0.515625 1.8125 -0.734375 C 2.019531 -0.960938 2.125 -1.476562 2.125 -2.28125 L 2.125 -7.453125 C 2.125 -7.941406 2.066406 -8.285156 1.953125 -8.484375 C 1.835938 -8.691406 1.648438 -8.796875 1.390625 -8.796875 C 1.148438 -8.796875 0.894531 -8.769531 0.625 -8.71875 L 0.453125 -8.703125 L 0.453125 -9.03125 L 3.90625 -10.265625 L 4 -10.203125 L 4 -2.28125 C 4 -1.476562 4.085938 -0.96875 4.265625 -0.75 C 4.453125 -0.53125 4.910156 -0.390625 5.640625 -0.328125 Z M 4.1875 -13.171875 C 4.1875 -12.835938 4.078125 -12.5625 3.859375 -12.34375 C 3.648438 -12.132812 3.382812 -12.03125 3.0625 -12.03125 C 2.75 -12.03125 2.476562 -12.132812 2.25 -12.34375 C 2.03125 -12.5625 1.921875 -12.835938 1.921875 -13.171875 C 1.921875 -13.484375 2.03125 -13.75 2.25 -13.96875 C 2.476562 -14.1875 2.75 -14.296875 3.0625 -14.296875 C 3.382812 -14.296875 3.648438 -14.1875 3.859375 -13.96875 C 4.078125 -13.75 4.1875 -13.484375 4.1875 -13.171875 Z M 4.1875 -13.171875 "/></g></g></g><g fill="#000000" fill-opacity="1"><g transform="translate(356.778958, 350.98281)"><g><path d="M 17.296875 0 L 12.40625 0 L 12.40625 -0.328125 C 13.0625 -0.410156 13.46875 -0.539062 13.625 -0.71875 C 13.789062 -0.894531 13.875 -1.300781 13.875 -1.9375 L 13.875 -6.65625 C 13.875 -7.570312 13.753906 -8.207031 13.515625 -8.5625 C 13.285156 -8.925781 12.847656 -9.109375 12.203125 -9.109375 C 11.222656 -9.109375 10.410156 -8.65625 9.765625 -7.75 L 9.765625 -2.125 C 9.765625 -1.425781 9.875 -0.957031 10.09375 -0.71875 C 10.3125 -0.476562 10.738281 -0.347656 11.375 -0.328125 L 11.375 0 L 6.375 0 L 6.375 -0.328125 C 7.019531 -0.378906 7.4375 -0.5 7.625 -0.6875 C 7.8125 -0.882812 7.90625 -1.296875 7.90625 -1.921875 L 7.90625 -6.765625 C 7.90625 -8.328125 7.410156 -9.109375 6.421875 -9.109375 C 6.035156 -9.109375 5.625 -9.019531 5.1875 -8.84375 C 4.757812 -8.675781 4.40625 -8.46875 4.125 -8.21875 L 3.796875 -7.78125 L 3.796875 -1.5 C 3.796875 -1.0625 3.898438 -0.765625 4.109375 -0.609375 C 4.316406 -0.453125 4.71875 -0.359375 5.3125 -0.328125 L 5.3125 0 L 0.359375 0 L 0.359375 -0.328125 C 0.984375 -0.347656 1.398438 -0.460938 1.609375 -0.671875 C 1.816406 -0.878906 1.921875 -1.285156 1.921875 -1.890625 L 1.921875 -7.546875 C 1.921875 -8.078125 1.863281 -8.445312 1.75 -8.65625 C 1.632812 -8.863281 1.429688 -8.96875 1.140625 -8.96875 C 0.910156 -8.96875 0.671875 -8.9375 0.421875 -8.875 L 0.421875 -9.265625 C 1.492188 -9.554688 2.535156 -9.890625 3.546875 -10.265625 L 3.703125 -10.21875 L 3.703125 -8.546875 C 4.628906 -9.242188 5.3125 -9.703125 5.75 -9.921875 C 6.195312 -10.148438 6.664062 -10.265625 7.15625 -10.265625 C 8.332031 -10.265625 9.125 -9.640625 9.53125 -8.390625 C 10.6875 -9.640625 11.898438 -10.265625 13.171875 -10.265625 C 14.890625 -10.265625 15.75 -8.941406 15.75 -6.296875 L 15.75 -1.703125 C 15.75 -0.867188 16.070312 -0.425781 16.71875 -0.375 L 17.296875 -0.328125 Z M 17.296875 0 "/></g></g></g><g fill="#000000" fill-opacity="1"><g transform="translate(374.134836, 350.98281)"><g><path d="M 7.765625 -2.640625 C 7.765625 -1.859375 7.453125 -1.1875 6.828125 -0.625 C 6.210938 -0.0625 5.484375 0.21875 4.640625 0.21875 C 4.234375 0.21875 3.679688 0.144531 2.984375 0 C 2.515625 -0.113281 2.175781 -0.171875 1.96875 -0.171875 C 1.738281 -0.171875 1.566406 -0.0820312 1.453125 0.09375 L 1.15625 0.09375 L 1.15625 -3.390625 L 1.515625 -3.390625 C 1.765625 -2.265625 2.101562 -1.460938 2.53125 -0.984375 C 2.96875 -0.503906 3.570312 -0.265625 4.34375 -0.265625 C 4.914062 -0.265625 5.367188 -0.410156 5.703125 -0.703125 C 6.035156 -0.992188 6.203125 -1.382812 6.203125 -1.875 C 6.203125 -2.539062 5.816406 -3.097656 5.046875 -3.546875 L 3.75 -4.28125 C 2.800781 -4.832031 2.128906 -5.347656 1.734375 -5.828125 C 1.335938 -6.316406 1.140625 -6.875 1.140625 -7.5 C 1.140625 -8.3125 1.425781 -8.96875 2 -9.46875 C 2.570312 -9.976562 3.3125 -10.234375 4.21875 -10.234375 C 4.769531 -10.234375 5.273438 -10.144531 5.734375 -9.96875 C 5.953125 -9.863281 6.15625 -9.8125 6.34375 -9.8125 C 6.394531 -9.8125 6.5 -9.875 6.65625 -10 L 6.6875 -10.046875 L 6.9375 -10.046875 L 7.03125 -7 L 6.6875 -7 C 6.4375 -8 6.125 -8.707031 5.75 -9.125 C 5.382812 -9.539062 4.878906 -9.75 4.234375 -9.75 C 3.710938 -9.75 3.296875 -9.609375 2.984375 -9.328125 C 2.671875 -9.054688 2.515625 -8.691406 2.515625 -8.234375 C 2.515625 -7.597656 2.835938 -7.09375 3.484375 -6.71875 L 5.890625 -5.28125 C 6.578125 -4.882812 7.0625 -4.484375 7.34375 -4.078125 C 7.625 -3.679688 7.765625 -3.203125 7.765625 -2.640625 Z M 7.765625 -2.640625 "/></g></g></g><g fill="#000000" fill-opacity="1"><g transform="translate(382.812788, 350.98281)"><g><path d="M 9.453125 -3.5 C 8.492188 -1.019531 6.921875 0.21875 4.734375 0.21875 C 3.453125 0.21875 2.4375 -0.226562 1.6875 -1.125 C 0.9375 -2.03125 0.5625 -3.25 0.5625 -4.78125 C 0.5625 -6.394531 0.988281 -7.710938 1.84375 -8.734375 C 2.707031 -9.753906 3.832031 -10.265625 5.21875 -10.265625 C 6.40625 -10.265625 7.359375 -9.835938 8.078125 -8.984375 C 8.566406 -8.367188 8.882812 -7.4375 9.03125 -6.1875 L 2.171875 -6.1875 C 2.210938 -4.914062 2.429688 -3.882812 2.828125 -3.09375 C 3.472656 -1.90625 4.410156 -1.3125 5.640625 -1.3125 C 6.359375 -1.3125 6.976562 -1.488281 7.5 -1.84375 C 8.03125 -2.207031 8.566406 -2.8125 9.109375 -3.65625 Z M 6.765625 -6.890625 C 6.609375 -7.859375 6.375 -8.523438 6.0625 -8.890625 C 5.75 -9.265625 5.253906 -9.453125 4.578125 -9.453125 C 3.234375 -9.453125 2.441406 -8.597656 2.203125 -6.890625 Z M 6.765625 -6.890625 "/></g></g></g><g fill="#000000" fill-opacity="1"><g transform="translate(392.717688, 350.98281)"><g><path d="M 5.734375 0 L 0.46875 0 L 0.46875 -0.328125 C 1.164062 -0.390625 1.625 -0.523438 1.84375 -0.734375 C 2.070312 -0.941406 2.1875 -1.34375 2.1875 -1.9375 L 2.1875 -12.578125 C 2.1875 -13.097656 2.117188 -13.453125 1.984375 -13.640625 C 1.847656 -13.835938 1.601562 -13.9375 1.25 -13.9375 C 1.113281 -13.9375 0.882812 -13.925781 0.5625 -13.90625 L 0.421875 -13.90625 L 0.421875 -14.25 C 1.898438 -14.613281 3.082031 -14.941406 3.96875 -15.234375 L 4.0625 -15.1875 L 4.0625 -1.875 C 4.0625 -1.257812 4.160156 -0.859375 4.359375 -0.671875 C 4.554688 -0.492188 5.015625 -0.378906 5.734375 -0.328125 Z M 5.734375 0 "/></g></g></g><g fill="#000000" fill-opacity="1"><g transform="translate(398.919408, 350.98281)"><g><path d="M 8.546875 -13.859375 C 8.546875 -13.609375 8.457031 -13.390625 8.28125 -13.203125 C 8.101562 -13.023438 7.878906 -12.9375 7.609375 -12.9375 C 7.253906 -12.9375 6.921875 -13.207031 6.609375 -13.75 C 6.242188 -14.320312 5.847656 -14.609375 5.421875 -14.609375 C 4.578125 -14.609375 4.15625 -13.945312 4.15625 -12.625 L 4.15625 -10.046875 L 6.890625 -10.046875 L 6.890625 -9.328125 L 4.171875 -9.328125 L 4.171875 -2.328125 C 4.171875 -1.492188 4.289062 -0.957031 4.53125 -0.71875 C 4.769531 -0.488281 5.34375 -0.359375 6.25 -0.328125 L 6.25 0 L 0.453125 0 L 0.453125 -0.328125 C 1.253906 -0.378906 1.757812 -0.519531 1.96875 -0.75 C 2.1875 -0.976562 2.296875 -1.503906 2.296875 -2.328125 L 2.296875 -9.328125 L 0.46875 -9.328125 L 0.46875 -10.046875 L 2.296875 -10.046875 C 2.316406 -10.929688 2.378906 -11.625 2.484375 -12.125 C 2.585938 -12.625 2.785156 -13.128906 3.078125 -13.640625 C 3.703125 -14.703125 4.75 -15.234375 6.21875 -15.234375 C 6.894531 -15.234375 7.453125 -15.101562 7.890625 -14.84375 C 8.328125 -14.582031 8.546875 -14.253906 8.546875 -13.859375 Z M 8.546875 -13.859375 "/></g></g></g><g fill="#000000" fill-opacity="1"><g transform="translate(406.348076, 350.98281)"><g><path d="M 5.265625 -13.296875 C 5.265625 -13.109375 5.25 -12.832031 5.21875 -12.46875 L 4.21875 -3.921875 L 3.921875 -3.921875 L 3.71875 -6.34375 C 3.664062 -7.125 3.539062 -8.148438 3.34375 -9.421875 C 3.050781 -11.367188 2.90625 -12.679688 2.90625 -13.359375 C 2.90625 -13.878906 3.007812 -14.296875 3.21875 -14.609375 C 3.425781 -14.921875 3.710938 -15.078125 4.078125 -15.078125 C 4.867188 -15.078125 5.265625 -14.484375 5.265625 -13.296875 Z M 4.921875 -1.828125 C 5.160156 -1.585938 5.28125 -1.296875 5.28125 -0.953125 C 5.28125 -0.617188 5.164062 -0.34375 4.9375 -0.125 C 4.707031 0.09375 4.414062 0.203125 4.0625 0.203125 C 3.726562 0.203125 3.453125 0.09375 3.234375 -0.125 C 3.015625 -0.34375 2.90625 -0.617188 2.90625 -0.953125 C 2.90625 -1.296875 3.019531 -1.585938 3.25 -1.828125 C 3.476562 -2.066406 3.753906 -2.1875 4.078125 -2.1875 C 4.410156 -2.1875 4.691406 -2.066406 4.921875 -1.828125 Z M 4.921875 -1.828125 "/></g></g></g></svg>