<svg xmlns="http://www.w3.org/2000/svg" xmlns:xlink="http://www.w3.org/1999/xlink" width="618" zoomAndPan="magnify" viewBox="0 0 463.5 470.999988" height="628" preserveAspectRatio="xMidYMid meet" version="1.0"><defs><g/><clipPath id="ac17caf78c"><path d="M 125.699219 75.742188 L 337.949219 75.742188 L 337.949219 349.492188 L 125.699219 349.492188 Z M 125.699219 75.742188 " clip-rule="nonzero"/></clipPath><clipPath id="10c9acb265"><path d="M 183 146 L 281 146 L 281 167 L 183 167 Z M 183 146 " clip-rule="nonzero"/></clipPath><clipPath id="7ffbfb5350"><path d="M 259.875 190.722656 L 180.800781 152.683594 L 201.929688 108.753906 L 281.007812 146.789062 Z M 259.875 190.722656 " clip-rule="nonzero"/></clipPath><clipPath id="bdd8018bc8"><path d="M 259.875 190.722656 L 180.800781 152.683594 L 201.929688 108.753906 L 281.007812 146.789062 Z M 259.875 190.722656 " clip-rule="nonzero"/></clipPath></defs><g clip-path="url(#ac17caf78c)"><path fill="#000000" d="M 337.949219 328.785156 C 337.949219 255.753906 290.398438 196.589844 231.824219 196.589844 C 173.25 196.589844 125.699219 255.753906 125.699219 328.785156 C 125.699219 340.171875 173.25 349.457031 231.824219 349.457031 C 290.398438 349.457031 337.949219 340.171875 337.949219 328.785156 Z M 231.824219 75.78125 C 263.773438 75.78125 289.65625 101.648438 289.65625 133.585938 C 289.65625 165.519531 263.773438 191.390625 231.824219 191.390625 C 199.875 191.390625 173.996094 165.519531 173.996094 133.585938 C 173.996094 101.648438 199.875 75.78125 231.824219 75.78125 Z M 231.824219 75.78125 " fill-opacity="1" fill-rule="evenodd"/></g><g clip-path="url(#10c9acb265)"><g clip-path="url(#7ffbfb5350)"><g clip-path="url(#bdd8018bc8)"><path fill="#ffffff" d="M 279.722656 146.230469 C 279.828125 146.28125 279.925781 146.34375 280.011719 146.421875 C 280.101562 146.496094 280.179688 146.582031 280.246094 146.679688 C 280.3125 146.773438 280.363281 146.878906 280.402344 146.988281 C 280.441406 147.097656 280.46875 147.210938 280.476562 147.328125 C 280.488281 147.441406 280.484375 147.558594 280.464844 147.675781 C 280.445312 147.789062 280.410156 147.898438 280.363281 148.007812 C 280.3125 148.113281 280.253906 148.210938 280.179688 148.300781 C 280.105469 148.394531 280.019531 148.472656 279.925781 148.542969 C 267.699219 157.46875 255.023438 163.089844 242.257812 165.238281 C 237.15625 166.101562 232.023438 166.40625 226.859375 166.160156 C 221.691406 165.914062 216.617188 165.117188 211.625 163.773438 C 194.457031 159.1875 184.007812 149.933594 183.566406 149.539062 C 183.433594 149.417969 183.328125 149.277344 183.253906 149.117188 C 183.175781 148.957031 183.132812 148.785156 183.121094 148.605469 C 183.113281 148.425781 183.136719 148.253906 183.199219 148.085938 C 183.257812 147.914062 183.347656 147.761719 183.464844 147.628906 C 183.585938 147.496094 183.726562 147.390625 183.886719 147.3125 C 184.046875 147.234375 184.21875 147.191406 184.398438 147.179688 C 184.574219 147.171875 184.75 147.195312 184.917969 147.253906 C 185.085938 147.3125 185.238281 147.402344 185.371094 147.523438 C 185.511719 147.648438 195.882812 156.796875 212.4375 161.1875 C 227.695312 165.238281 251.507812 165.945312 278.34375 146.355469 C 278.542969 146.210938 278.769531 146.125 279.015625 146.101562 C 279.265625 146.082031 279.5 146.125 279.722656 146.230469 Z M 279.722656 146.230469 " fill-opacity="1" fill-rule="nonzero"/></g></g></g><g fill="#000000" fill-opacity="1"><g transform="translate(75.377875, 389.762535)"><g><path d="M 18.8125 0 L 12.703125 0 L 12.703125 -0.421875 C 13.566406 -0.472656 14.113281 -0.625 14.34375 -0.875 C 14.570312 -1.132812 14.6875 -1.710938 14.6875 -2.609375 L 14.6875 -12.484375 L 9.109375 0 L 8.8125 0 L 3.328125 -11.984375 L 3.328125 -3.203125 C 3.328125 -2.097656 3.457031 -1.367188 3.71875 -1.015625 C 3.988281 -0.660156 4.546875 -0.460938 5.390625 -0.421875 L 5.390625 0 L 0.265625 0 L 0.265625 -0.421875 C 1.160156 -0.472656 1.734375 -0.671875 1.984375 -1.015625 C 2.242188 -1.359375 2.375 -2.085938 2.375 -3.203125 L 2.375 -12.046875 C 2.375 -12.847656 2.253906 -13.359375 2.015625 -13.578125 C 1.773438 -13.804688 1.207031 -13.953125 0.3125 -14.015625 L 0.3125 -14.421875 L 4.625 -14.421875 L 9.65625 -3.421875 L 14.46875 -14.421875 L 18.8125 -14.421875 L 18.8125 -14.015625 C 18 -13.941406 17.476562 -13.785156 17.25 -13.546875 C 17.03125 -13.316406 16.921875 -12.816406 16.921875 -12.046875 L 16.921875 -2.375 C 16.921875 -1.601562 17.035156 -1.097656 17.265625 -0.859375 C 17.492188 -0.617188 18.007812 -0.472656 18.8125 -0.421875 Z M 18.8125 0 "/></g></g></g><g fill="#000000" fill-opacity="1"><g transform="translate(94.754396, 389.762535)"><g><path d="M 9.640625 -0.875 C 9.253906 -0.445312 8.921875 -0.15625 8.640625 0 C 8.359375 0.144531 8.035156 0.21875 7.671875 0.21875 C 7.222656 0.21875 6.890625 0.0976562 6.671875 -0.140625 C 6.460938 -0.378906 6.332031 -0.789062 6.28125 -1.375 C 5.03125 -0.3125 3.96875 0.21875 3.09375 0.21875 C 2.425781 0.21875 1.878906 0 1.453125 -0.4375 C 1.023438 -0.875 0.8125 -1.429688 0.8125 -2.109375 C 0.8125 -2.898438 1.070312 -3.535156 1.59375 -4.015625 C 2.050781 -4.421875 2.515625 -4.742188 2.984375 -4.984375 C 3.460938 -5.222656 4.550781 -5.679688 6.25 -6.359375 L 6.25 -7.6875 C 6.25 -8.894531 5.695312 -9.5 4.59375 -9.5 C 4.15625 -9.5 3.785156 -9.394531 3.484375 -9.1875 C 3.179688 -8.976562 3.03125 -8.726562 3.03125 -8.4375 C 3.03125 -8.28125 3.050781 -8.101562 3.09375 -7.90625 C 3.125 -7.707031 3.140625 -7.59375 3.140625 -7.5625 C 3.140625 -7.3125 3.039062 -7.09375 2.84375 -6.90625 C 2.644531 -6.726562 2.414062 -6.640625 2.15625 -6.640625 C 1.894531 -6.640625 1.671875 -6.734375 1.484375 -6.921875 C 1.304688 -7.117188 1.21875 -7.335938 1.21875 -7.578125 C 1.21875 -8.179688 1.515625 -8.726562 2.109375 -9.21875 C 2.765625 -9.757812 3.6875 -10.03125 4.875 -10.03125 C 6.226562 -10.03125 7.140625 -9.609375 7.609375 -8.765625 C 7.878906 -8.316406 8.015625 -7.578125 8.015625 -6.546875 L 8.015625 -2.28125 C 8.015625 -1.800781 8.0625 -1.472656 8.15625 -1.296875 C 8.25 -1.117188 8.421875 -1.03125 8.671875 -1.03125 C 8.984375 -1.03125 9.304688 -1.164062 9.640625 -1.4375 Z M 6.25 -2.6875 L 6.25 -5.84375 C 4.945312 -5.363281 4.03125 -4.894531 3.5 -4.4375 C 2.976562 -3.988281 2.71875 -3.445312 2.71875 -2.8125 L 2.71875 -2.71875 C 2.71875 -2.257812 2.851562 -1.863281 3.125 -1.53125 C 3.394531 -1.207031 3.71875 -1.046875 4.09375 -1.046875 C 4.601562 -1.046875 5.132812 -1.207031 5.6875 -1.53125 C 5.914062 -1.675781 6.066406 -1.820312 6.140625 -1.96875 C 6.210938 -2.113281 6.25 -2.351562 6.25 -2.6875 Z M 6.25 -2.6875 "/></g></g></g><g fill="#000000" fill-opacity="1"><g transform="translate(104.431764, 389.762535)"><g><path d="M 10.703125 -0.921875 L 7.5 0.21875 L 7.40625 0.15625 L 7.40625 -1.25 C 6.707031 -0.269531 5.78125 0.21875 4.625 0.21875 C 3.414062 0.21875 2.441406 -0.210938 1.703125 -1.078125 C 0.960938 -1.941406 0.59375 -3.070312 0.59375 -4.46875 C 0.59375 -6.007812 1.035156 -7.320312 1.921875 -8.40625 C 2.804688 -9.488281 3.875 -10.03125 5.125 -10.03125 C 5.90625 -10.03125 6.664062 -9.71875 7.40625 -9.09375 L 7.40625 -12.484375 C 7.40625 -12.941406 7.335938 -13.238281 7.203125 -13.375 C 7.078125 -13.519531 6.8125 -13.59375 6.40625 -13.59375 C 6.207031 -13.59375 6.046875 -13.585938 5.921875 -13.578125 L 5.921875 -13.921875 C 7.242188 -14.273438 8.316406 -14.597656 9.140625 -14.890625 L 9.234375 -14.84375 L 9.234375 -2.484375 C 9.234375 -1.972656 9.296875 -1.640625 9.421875 -1.484375 C 9.546875 -1.328125 9.804688 -1.25 10.203125 -1.25 C 10.273438 -1.25 10.441406 -1.253906 10.703125 -1.265625 Z M 7.40625 -2.21875 L 7.40625 -7.234375 C 7.40625 -7.816406 7.179688 -8.328125 6.734375 -8.765625 C 6.285156 -9.203125 5.769531 -9.421875 5.1875 -9.421875 C 4.351562 -9.421875 3.691406 -9.046875 3.203125 -8.296875 C 2.710938 -7.554688 2.46875 -6.570312 2.46875 -5.34375 C 2.46875 -4 2.742188 -2.925781 3.296875 -2.125 C 3.847656 -1.320312 4.570312 -0.921875 5.46875 -0.921875 C 6.125 -0.921875 6.648438 -1.132812 7.046875 -1.5625 C 7.285156 -1.84375 7.40625 -2.0625 7.40625 -2.21875 Z M 7.40625 -2.21875 "/></g></g></g><g fill="#000000" fill-opacity="1"><g transform="translate(115.329693, 389.762535)"><g><path d="M 9.234375 -3.421875 C 8.296875 -0.992188 6.757812 0.21875 4.625 0.21875 C 3.375 0.21875 2.378906 -0.21875 1.640625 -1.09375 C 0.910156 -1.976562 0.546875 -3.171875 0.546875 -4.671875 C 0.546875 -6.253906 0.96875 -7.539062 1.8125 -8.53125 C 2.65625 -9.53125 3.75 -10.03125 5.09375 -10.03125 C 6.257812 -10.03125 7.191406 -9.613281 7.890625 -8.78125 C 8.367188 -8.175781 8.679688 -7.257812 8.828125 -6.03125 L 2.109375 -6.03125 C 2.160156 -4.800781 2.378906 -3.800781 2.765625 -3.03125 C 3.390625 -1.863281 4.304688 -1.28125 5.515625 -1.28125 C 6.210938 -1.28125 6.816406 -1.453125 7.328125 -1.796875 C 7.847656 -2.148438 8.367188 -2.742188 8.890625 -3.578125 Z M 6.609375 -6.734375 C 6.460938 -7.679688 6.234375 -8.332031 5.921875 -8.6875 C 5.617188 -9.050781 5.132812 -9.234375 4.46875 -9.234375 C 3.15625 -9.234375 2.382812 -8.398438 2.15625 -6.734375 Z M 6.609375 -6.734375 "/></g></g></g><g fill="#000000" fill-opacity="1"><g transform="translate(125.007062, 389.762535)"><g><path d="M 5.609375 0 L 0.453125 0 L 0.453125 -0.328125 C 1.140625 -0.390625 1.59375 -0.519531 1.8125 -0.71875 C 2.03125 -0.925781 2.140625 -1.316406 2.140625 -1.890625 L 2.140625 -12.296875 C 2.140625 -12.804688 2.070312 -13.15625 1.9375 -13.34375 C 1.8125 -13.53125 1.570312 -13.625 1.21875 -13.625 C 1.09375 -13.625 0.867188 -13.609375 0.546875 -13.578125 L 0.421875 -13.578125 L 0.421875 -13.921875 C 1.859375 -14.273438 3.007812 -14.597656 3.875 -14.890625 L 3.96875 -14.84375 L 3.96875 -1.828125 C 3.96875 -1.234375 4.066406 -0.84375 4.265625 -0.65625 C 4.460938 -0.476562 4.910156 -0.367188 5.609375 -0.328125 Z M 5.609375 0 "/></g></g></g><g fill="#000000" fill-opacity="1"><g transform="translate(131.066317, 389.762535)"><g><path d="M 5.515625 0 L 0.34375 0 L 0.34375 -0.328125 C 1.101562 -0.367188 1.582031 -0.5 1.78125 -0.71875 C 1.976562 -0.9375 2.078125 -1.4375 2.078125 -2.21875 L 2.078125 -7.28125 C 2.078125 -7.757812 2.019531 -8.097656 1.90625 -8.296875 C 1.800781 -8.492188 1.613281 -8.59375 1.34375 -8.59375 C 1.113281 -8.59375 0.867188 -8.566406 0.609375 -8.515625 L 0.4375 -8.5 L 0.4375 -8.828125 L 3.8125 -10.03125 L 3.90625 -9.96875 L 3.90625 -2.21875 C 3.90625 -1.4375 3.992188 -0.941406 4.171875 -0.734375 C 4.359375 -0.523438 4.804688 -0.390625 5.515625 -0.328125 Z M 4.09375 -12.859375 C 4.09375 -12.535156 3.988281 -12.269531 3.78125 -12.0625 C 3.570312 -11.851562 3.304688 -11.75 2.984375 -11.75 C 2.679688 -11.75 2.421875 -11.851562 2.203125 -12.0625 C 1.984375 -12.269531 1.875 -12.535156 1.875 -12.859375 C 1.875 -13.160156 1.984375 -13.421875 2.203125 -13.640625 C 2.421875 -13.859375 2.679688 -13.96875 2.984375 -13.96875 C 3.304688 -13.96875 3.570312 -13.859375 3.78125 -13.640625 C 3.988281 -13.421875 4.09375 -13.160156 4.09375 -12.859375 Z M 4.09375 -12.859375 "/></g></g></g><g fill="#000000" fill-opacity="1"><g transform="translate(137.125572, 389.762535)"><g><path d="M 10.578125 0 L 6.03125 0 L 6.03125 -0.328125 C 6.582031 -0.367188 6.945312 -0.515625 7.125 -0.765625 C 7.3125 -1.015625 7.40625 -1.476562 7.40625 -2.15625 L 7.40625 -6.71875 C 7.40625 -8.125 6.875 -8.828125 5.8125 -8.828125 C 5.457031 -8.828125 5.125 -8.742188 4.8125 -8.578125 C 4.507812 -8.410156 4.097656 -8.078125 3.578125 -7.578125 L 3.578125 -1.453125 C 3.578125 -1.066406 3.675781 -0.789062 3.875 -0.625 C 4.082031 -0.46875 4.460938 -0.367188 5.015625 -0.328125 L 5.015625 0 L 0.390625 0 L 0.390625 -0.328125 C 0.941406 -0.367188 1.304688 -0.492188 1.484375 -0.703125 C 1.660156 -0.921875 1.75 -1.34375 1.75 -1.96875 L 1.75 -7.375 C 1.75 -7.90625 1.6875 -8.269531 1.5625 -8.46875 C 1.445312 -8.664062 1.238281 -8.765625 0.9375 -8.765625 C 0.65625 -8.765625 0.457031 -8.734375 0.34375 -8.671875 L 0.34375 -9.046875 C 1.425781 -9.367188 2.429688 -9.695312 3.359375 -10.03125 L 3.515625 -9.984375 L 3.515625 -8.265625 C 4.253906 -8.960938 4.835938 -9.429688 5.265625 -9.671875 C 5.691406 -9.910156 6.160156 -10.03125 6.671875 -10.03125 C 7.472656 -10.03125 8.097656 -9.738281 8.546875 -9.15625 C 9.003906 -8.582031 9.234375 -7.78125 9.234375 -6.75 L 9.234375 -1.765625 C 9.234375 -1.222656 9.320312 -0.863281 9.5 -0.6875 C 9.675781 -0.507812 10.035156 -0.390625 10.578125 -0.328125 Z M 10.578125 0 "/></g></g></g><g fill="#000000" fill-opacity="1"><g transform="translate(148.023501, 389.762535)"><g><path d="M 9.234375 -3.421875 C 8.296875 -0.992188 6.757812 0.21875 4.625 0.21875 C 3.375 0.21875 2.378906 -0.21875 1.640625 -1.09375 C 0.910156 -1.976562 0.546875 -3.171875 0.546875 -4.671875 C 0.546875 -6.253906 0.96875 -7.539062 1.8125 -8.53125 C 2.65625 -9.53125 3.75 -10.03125 5.09375 -10.03125 C 6.257812 -10.03125 7.191406 -9.613281 7.890625 -8.78125 C 8.367188 -8.175781 8.679688 -7.257812 8.828125 -6.03125 L 2.109375 -6.03125 C 2.160156 -4.800781 2.378906 -3.800781 2.765625 -3.03125 C 3.390625 -1.863281 4.304688 -1.28125 5.515625 -1.28125 C 6.210938 -1.28125 6.816406 -1.453125 7.328125 -1.796875 C 7.847656 -2.148438 8.367188 -2.742188 8.890625 -3.578125 Z M 6.609375 -6.734375 C 6.460938 -7.679688 6.234375 -8.332031 5.921875 -8.6875 C 5.617188 -9.050781 5.132812 -9.234375 4.46875 -9.234375 C 3.15625 -9.234375 2.382812 -8.398438 2.15625 -6.734375 Z M 6.609375 -6.734375 "/></g></g></g><g fill="#000000" fill-opacity="1"><g transform="translate(157.700869, 389.762535)"><g/></g></g><g fill="#000000" fill-opacity="1"><g transform="translate(163.149844, 389.762535)"><g><path d="M 10.609375 0 L 6 0 L 6 -0.328125 C 6.625 -0.390625 7.023438 -0.535156 7.203125 -0.765625 C 7.378906 -0.992188 7.46875 -1.476562 7.46875 -2.21875 L 7.46875 -6.546875 C 7.46875 -8.078125 6.925781 -8.84375 5.84375 -8.84375 C 5.414062 -8.84375 5.015625 -8.738281 4.640625 -8.53125 C 4.273438 -8.320312 3.867188 -7.96875 3.421875 -7.46875 L 3.421875 -2.21875 C 3.421875 -1.46875 3.503906 -0.984375 3.671875 -0.765625 C 3.847656 -0.546875 4.257812 -0.398438 4.90625 -0.328125 L 4.90625 0 L 0.203125 0 L 0.203125 -0.328125 C 0.828125 -0.410156 1.210938 -0.550781 1.359375 -0.75 C 1.515625 -0.957031 1.59375 -1.445312 1.59375 -2.21875 L 1.59375 -12.484375 C 1.59375 -12.953125 1.519531 -13.253906 1.375 -13.390625 C 1.238281 -13.523438 0.941406 -13.59375 0.484375 -13.59375 C 0.367188 -13.59375 0.28125 -13.585938 0.21875 -13.578125 L 0.21875 -13.921875 L 0.8125 -14.109375 C 1.789062 -14.378906 2.625 -14.640625 3.3125 -14.890625 L 3.421875 -14.828125 L 3.421875 -8.203125 C 3.929688 -8.847656 4.429688 -9.3125 4.921875 -9.59375 C 5.421875 -9.882812 5.988281 -10.03125 6.625 -10.03125 C 8.414062 -10.03125 9.3125 -8.875 9.3125 -6.5625 L 9.3125 -2.21875 C 9.3125 -1.46875 9.378906 -0.992188 9.515625 -0.796875 C 9.648438 -0.597656 10.015625 -0.441406 10.609375 -0.328125 Z M 10.609375 0 "/></g></g></g><g fill="#000000" fill-opacity="1"><g transform="translate(174.047773, 389.762535)"><g><path d="M 9.234375 -3.421875 C 8.296875 -0.992188 6.757812 0.21875 4.625 0.21875 C 3.375 0.21875 2.378906 -0.21875 1.640625 -1.09375 C 0.910156 -1.976562 0.546875 -3.171875 0.546875 -4.671875 C 0.546875 -6.253906 0.96875 -7.539062 1.8125 -8.53125 C 2.65625 -9.53125 3.75 -10.03125 5.09375 -10.03125 C 6.257812 -10.03125 7.191406 -9.613281 7.890625 -8.78125 C 8.367188 -8.175781 8.679688 -7.257812 8.828125 -6.03125 L 2.109375 -6.03125 C 2.160156 -4.800781 2.378906 -3.800781 2.765625 -3.03125 C 3.390625 -1.863281 4.304688 -1.28125 5.515625 -1.28125 C 6.210938 -1.28125 6.816406 -1.453125 7.328125 -1.796875 C 7.847656 -2.148438 8.367188 -2.742188 8.890625 -3.578125 Z M 6.609375 -6.734375 C 6.460938 -7.679688 6.234375 -8.332031 5.921875 -8.6875 C 5.617188 -9.050781 5.132812 -9.234375 4.46875 -9.234375 C 3.15625 -9.234375 2.382812 -8.398438 2.15625 -6.734375 Z M 6.609375 -6.734375 "/></g></g></g><g fill="#000000" fill-opacity="1"><g transform="translate(183.725142, 389.762535)"><g><path d="M 9.640625 -0.875 C 9.253906 -0.445312 8.921875 -0.15625 8.640625 0 C 8.359375 0.144531 8.035156 0.21875 7.671875 0.21875 C 7.222656 0.21875 6.890625 0.0976562 6.671875 -0.140625 C 6.460938 -0.378906 6.332031 -0.789062 6.28125 -1.375 C 5.03125 -0.3125 3.96875 0.21875 3.09375 0.21875 C 2.425781 0.21875 1.878906 0 1.453125 -0.4375 C 1.023438 -0.875 0.8125 -1.429688 0.8125 -2.109375 C 0.8125 -2.898438 1.070312 -3.535156 1.59375 -4.015625 C 2.050781 -4.421875 2.515625 -4.742188 2.984375 -4.984375 C 3.460938 -5.222656 4.550781 -5.679688 6.25 -6.359375 L 6.25 -7.6875 C 6.25 -8.894531 5.695312 -9.5 4.59375 -9.5 C 4.15625 -9.5 3.785156 -9.394531 3.484375 -9.1875 C 3.179688 -8.976562 3.03125 -8.726562 3.03125 -8.4375 C 3.03125 -8.28125 3.050781 -8.101562 3.09375 -7.90625 C 3.125 -7.707031 3.140625 -7.59375 3.140625 -7.5625 C 3.140625 -7.3125 3.039062 -7.09375 2.84375 -6.90625 C 2.644531 -6.726562 2.414062 -6.640625 2.15625 -6.640625 C 1.894531 -6.640625 1.671875 -6.734375 1.484375 -6.921875 C 1.304688 -7.117188 1.21875 -7.335938 1.21875 -7.578125 C 1.21875 -8.179688 1.515625 -8.726562 2.109375 -9.21875 C 2.765625 -9.757812 3.6875 -10.03125 4.875 -10.03125 C 6.226562 -10.03125 7.140625 -9.609375 7.609375 -8.765625 C 7.878906 -8.316406 8.015625 -7.578125 8.015625 -6.546875 L 8.015625 -2.28125 C 8.015625 -1.800781 8.0625 -1.472656 8.15625 -1.296875 C 8.25 -1.117188 8.421875 -1.03125 8.671875 -1.03125 C 8.984375 -1.03125 9.304688 -1.164062 9.640625 -1.4375 Z M 6.25 -2.6875 L 6.25 -5.84375 C 4.945312 -5.363281 4.03125 -4.894531 3.5 -4.4375 C 2.976562 -3.988281 2.71875 -3.445312 2.71875 -2.8125 L 2.71875 -2.71875 C 2.71875 -2.257812 2.851562 -1.863281 3.125 -1.53125 C 3.394531 -1.207031 3.71875 -1.046875 4.09375 -1.046875 C 4.601562 -1.046875 5.132812 -1.207031 5.6875 -1.53125 C 5.914062 -1.675781 6.066406 -1.820312 6.140625 -1.96875 C 6.210938 -2.113281 6.25 -2.351562 6.25 -2.6875 Z M 6.25 -2.6875 "/></g></g></g><g fill="#000000" fill-opacity="1"><g transform="translate(193.40251, 389.762535)"><g><path d="M 7.296875 -8.875 C 7.296875 -8.5625 7.21875 -8.316406 7.0625 -8.140625 C 6.914062 -7.972656 6.710938 -7.890625 6.453125 -7.890625 C 6.203125 -7.890625 5.910156 -8.035156 5.578125 -8.328125 C 5.347656 -8.546875 5.160156 -8.65625 5.015625 -8.65625 C 4.722656 -8.65625 4.394531 -8.441406 4.03125 -8.015625 C 3.664062 -7.597656 3.484375 -7.210938 3.484375 -6.859375 L 3.484375 -1.96875 C 3.484375 -1.34375 3.609375 -0.921875 3.859375 -0.703125 C 4.109375 -0.484375 4.601562 -0.359375 5.34375 -0.328125 L 5.34375 0 L 0.109375 0 L 0.109375 -0.328125 C 0.804688 -0.453125 1.238281 -0.59375 1.40625 -0.75 C 1.570312 -0.914062 1.65625 -1.273438 1.65625 -1.828125 L 1.65625 -7.28125 C 1.65625 -7.757812 1.597656 -8.097656 1.484375 -8.296875 C 1.378906 -8.492188 1.191406 -8.59375 0.921875 -8.59375 C 0.679688 -8.59375 0.425781 -8.5625 0.15625 -8.5 L 0.15625 -8.84375 C 1.3125 -9.226562 2.382812 -9.625 3.375 -10.03125 L 3.484375 -9.984375 L 3.484375 -7.984375 C 4.023438 -8.753906 4.484375 -9.285156 4.859375 -9.578125 C 5.234375 -9.878906 5.648438 -10.03125 6.109375 -10.03125 C 6.484375 -10.03125 6.773438 -9.925781 6.984375 -9.71875 C 7.191406 -9.519531 7.296875 -9.238281 7.296875 -8.875 Z M 7.296875 -8.875 "/></g></g></g><g fill="#000000" fill-opacity="1"><g transform="translate(200.660542, 389.762535)"><g><path d="M 7.578125 -2.578125 C 7.578125 -1.816406 7.273438 -1.160156 6.671875 -0.609375 C 6.078125 -0.0546875 5.363281 0.21875 4.53125 0.21875 C 4.132812 0.21875 3.597656 0.144531 2.921875 0 C 2.453125 -0.113281 2.117188 -0.171875 1.921875 -0.171875 C 1.703125 -0.171875 1.535156 -0.0820312 1.421875 0.09375 L 1.140625 0.09375 L 1.140625 -3.3125 L 1.484375 -3.3125 C 1.734375 -2.207031 2.066406 -1.421875 2.484375 -0.953125 C 2.898438 -0.492188 3.488281 -0.265625 4.25 -0.265625 C 4.800781 -0.265625 5.238281 -0.40625 5.5625 -0.6875 C 5.894531 -0.96875 6.0625 -1.347656 6.0625 -1.828125 C 6.0625 -2.484375 5.679688 -3.03125 4.921875 -3.46875 L 3.65625 -4.1875 C 2.726562 -4.71875 2.070312 -5.21875 1.6875 -5.6875 C 1.300781 -6.164062 1.109375 -6.710938 1.109375 -7.328125 C 1.109375 -8.117188 1.390625 -8.757812 1.953125 -9.25 C 2.515625 -9.75 3.238281 -10 4.125 -10 C 4.65625 -10 5.148438 -9.914062 5.609375 -9.75 C 5.816406 -9.644531 6.007812 -9.59375 6.1875 -9.59375 C 6.25 -9.59375 6.351562 -9.648438 6.5 -9.765625 L 6.546875 -9.8125 L 6.78125 -9.8125 L 6.859375 -6.84375 L 6.546875 -6.84375 C 6.296875 -7.8125 5.988281 -8.5 5.625 -8.90625 C 5.257812 -9.320312 4.765625 -9.53125 4.140625 -9.53125 C 3.628906 -9.53125 3.222656 -9.394531 2.921875 -9.125 C 2.617188 -8.851562 2.46875 -8.492188 2.46875 -8.046875 C 2.46875 -7.421875 2.78125 -6.925781 3.40625 -6.5625 L 5.75 -5.171875 C 6.414062 -4.773438 6.882812 -4.378906 7.15625 -3.984375 C 7.4375 -3.597656 7.578125 -3.128906 7.578125 -2.578125 Z M 7.578125 -2.578125 "/></g></g></g><g fill="#000000" fill-opacity="1"><g transform="translate(209.139134, 389.762535)"><g/></g></g><g fill="#000000" fill-opacity="1"><g transform="translate(214.588109, 389.762535)"><g><path d="M 9.640625 -0.875 C 9.253906 -0.445312 8.921875 -0.15625 8.640625 0 C 8.359375 0.144531 8.035156 0.21875 7.671875 0.21875 C 7.222656 0.21875 6.890625 0.0976562 6.671875 -0.140625 C 6.460938 -0.378906 6.332031 -0.789062 6.28125 -1.375 C 5.03125 -0.3125 3.96875 0.21875 3.09375 0.21875 C 2.425781 0.21875 1.878906 0 1.453125 -0.4375 C 1.023438 -0.875 0.8125 -1.429688 0.8125 -2.109375 C 0.8125 -2.898438 1.070312 -3.535156 1.59375 -4.015625 C 2.050781 -4.421875 2.515625 -4.742188 2.984375 -4.984375 C 3.460938 -5.222656 4.550781 -5.679688 6.25 -6.359375 L 6.25 -7.6875 C 6.25 -8.894531 5.695312 -9.5 4.59375 -9.5 C 4.15625 -9.5 3.785156 -9.394531 3.484375 -9.1875 C 3.179688 -8.976562 3.03125 -8.726562 3.03125 -8.4375 C 3.03125 -8.28125 3.050781 -8.101562 3.09375 -7.90625 C 3.125 -7.707031 3.140625 -7.59375 3.140625 -7.5625 C 3.140625 -7.3125 3.039062 -7.09375 2.84375 -6.90625 C 2.644531 -6.726562 2.414062 -6.640625 2.15625 -6.640625 C 1.894531 -6.640625 1.671875 -6.734375 1.484375 -6.921875 C 1.304688 -7.117188 1.21875 -7.335938 1.21875 -7.578125 C 1.21875 -8.179688 1.515625 -8.726562 2.109375 -9.21875 C 2.765625 -9.757812 3.6875 -10.03125 4.875 -10.03125 C 6.226562 -10.03125 7.140625 -9.609375 7.609375 -8.765625 C 7.878906 -8.316406 8.015625 -7.578125 8.015625 -6.546875 L 8.015625 -2.28125 C 8.015625 -1.800781 8.0625 -1.472656 8.15625 -1.296875 C 8.25 -1.117188 8.421875 -1.03125 8.671875 -1.03125 C 8.984375 -1.03125 9.304688 -1.164062 9.640625 -1.4375 Z M 6.25 -2.6875 L 6.25 -5.84375 C 4.945312 -5.363281 4.03125 -4.894531 3.5 -4.4375 C 2.976562 -3.988281 2.71875 -3.445312 2.71875 -2.8125 L 2.71875 -2.71875 C 2.71875 -2.257812 2.851562 -1.863281 3.125 -1.53125 C 3.394531 -1.207031 3.71875 -1.046875 4.09375 -1.046875 C 4.601562 -1.046875 5.132812 -1.207031 5.6875 -1.53125 C 5.914062 -1.675781 6.066406 -1.820312 6.140625 -1.96875 C 6.210938 -2.113281 6.25 -2.351562 6.25 -2.6875 Z M 6.25 -2.6875 "/></g></g></g><g fill="#000000" fill-opacity="1"><g transform="translate(224.265477, 389.762535)"><g><path d="M 10.203125 -5.296875 C 10.203125 -3.742188 9.710938 -2.4375 8.734375 -1.375 C 7.753906 -0.3125 6.539062 0.21875 5.09375 0.21875 C 4.226562 0.21875 3.410156 0.0703125 2.640625 -0.21875 C 1.878906 -0.519531 1.5 -0.835938 1.5 -1.171875 L 1.5 -12.484375 C 1.5 -12.941406 1.429688 -13.238281 1.296875 -13.375 C 1.160156 -13.519531 0.875 -13.59375 0.4375 -13.59375 C 0.28125 -13.59375 0.15625 -13.585938 0.0625 -13.578125 L 0.0625 -13.921875 L 0.703125 -14.109375 C 1.671875 -14.378906 2.507812 -14.640625 3.21875 -14.890625 L 3.328125 -14.84375 L 3.328125 -8.171875 C 3.546875 -8.710938 3.9375 -9.15625 4.5 -9.5 C 5.070312 -9.851562 5.691406 -10.03125 6.359375 -10.03125 C 7.453125 -10.03125 8.363281 -9.570312 9.09375 -8.65625 C 9.832031 -7.75 10.203125 -6.628906 10.203125 -5.296875 Z M 8.28125 -4.296875 C 8.28125 -5.617188 8.03125 -6.675781 7.53125 -7.46875 C 7.03125 -8.257812 6.351562 -8.65625 5.5 -8.65625 C 4.925781 -8.65625 4.421875 -8.488281 3.984375 -8.15625 C 3.546875 -7.820312 3.328125 -7.441406 3.328125 -7.015625 L 3.328125 -1.53125 C 3.328125 -1.25 3.535156 -1.003906 3.953125 -0.796875 C 4.378906 -0.585938 4.878906 -0.484375 5.453125 -0.484375 C 6.347656 -0.484375 7.039062 -0.816406 7.53125 -1.484375 C 8.03125 -2.148438 8.28125 -3.085938 8.28125 -4.296875 Z M 8.28125 -4.296875 "/></g></g></g><g fill="#000000" fill-opacity="1"><g transform="translate(235.163406, 389.762535)"><g><path d="M 10.25 -5.09375 C 10.25 -3.582031 9.78125 -2.316406 8.84375 -1.296875 C 7.914062 -0.285156 6.769531 0.21875 5.40625 0.21875 C 4.039062 0.21875 2.898438 -0.269531 1.984375 -1.25 C 1.078125 -2.226562 0.625 -3.453125 0.625 -4.921875 C 0.625 -6.421875 1.070312 -7.644531 1.96875 -8.59375 C 2.863281 -9.550781 4.023438 -10.03125 5.453125 -10.03125 C 6.847656 -10.03125 7.992188 -9.5625 8.890625 -8.625 C 9.796875 -7.695312 10.25 -6.519531 10.25 -5.09375 Z M 8.28125 -4.34375 C 8.28125 -5.832031 7.988281 -7.050781 7.40625 -8 C 6.832031 -8.945312 6.085938 -9.421875 5.171875 -9.421875 C 4.398438 -9.421875 3.773438 -9.109375 3.296875 -8.484375 C 2.828125 -7.859375 2.59375 -7.03125 2.59375 -6 C 2.59375 -4.382812 2.910156 -2.976562 3.546875 -1.78125 C 4.046875 -0.851562 4.753906 -0.390625 5.671875 -0.390625 C 6.484375 -0.390625 7.117188 -0.738281 7.578125 -1.4375 C 8.046875 -2.132812 8.28125 -3.101562 8.28125 -4.34375 Z M 8.28125 -4.34375 "/></g></g></g><g fill="#000000" fill-opacity="1"><g transform="translate(246.061335, 389.762535)"><g><path d="M 10.4375 -0.78125 C 9.300781 -0.476562 8.304688 -0.148438 7.453125 0.203125 L 7.375 0.15625 L 7.375 -1.65625 L 6.4375 -0.71875 C 5.8125 -0.09375 5.0625 0.21875 4.1875 0.21875 C 3.382812 0.21875 2.742188 -0.0351562 2.265625 -0.546875 C 1.785156 -1.066406 1.546875 -1.753906 1.546875 -2.609375 L 1.546875 -8.109375 C 1.546875 -8.617188 1.453125 -8.96875 1.265625 -9.15625 C 1.078125 -9.351562 0.722656 -9.46875 0.203125 -9.5 L 0.203125 -9.8125 L 3.375 -9.8125 L 3.375 -2.703125 C 3.375 -2.253906 3.523438 -1.863281 3.828125 -1.53125 C 4.140625 -1.207031 4.503906 -1.046875 4.921875 -1.046875 C 5.617188 -1.046875 6.273438 -1.304688 6.890625 -1.828125 C 7.140625 -2.015625 7.265625 -2.382812 7.265625 -2.9375 L 7.265625 -8.0625 C 7.265625 -8.601562 7.164062 -8.957031 6.96875 -9.125 C 6.769531 -9.300781 6.328125 -9.40625 5.640625 -9.4375 L 5.640625 -9.8125 L 9.09375 -9.8125 L 9.09375 -2.328125 C 9.09375 -1.816406 9.175781 -1.484375 9.34375 -1.328125 C 9.507812 -1.171875 9.835938 -1.09375 10.328125 -1.09375 L 10.4375 -1.09375 Z M 10.4375 -0.78125 "/></g></g></g><g fill="#000000" fill-opacity="1"><g transform="translate(256.959264, 389.762535)"><g><path d="M 6.078125 -1.4375 C 5.378906 -0.332031 4.5 0.21875 3.4375 0.21875 C 2.164062 0.21875 1.53125 -0.703125 1.53125 -2.546875 L 1.53125 -9.109375 L 0.375 -9.109375 C 0.3125 -9.148438 0.28125 -9.203125 0.28125 -9.265625 C 0.28125 -9.378906 0.40625 -9.515625 0.65625 -9.671875 C 1.25 -10.023438 1.953125 -10.804688 2.765625 -12.015625 C 2.972656 -12.273438 3.117188 -12.476562 3.203125 -12.625 C 3.304688 -12.625 3.359375 -12.53125 3.359375 -12.34375 L 3.359375 -9.8125 L 5.5625 -9.8125 L 5.5625 -9.109375 L 3.359375 -9.109375 L 3.359375 -2.875 C 3.359375 -2.175781 3.441406 -1.675781 3.609375 -1.375 C 3.785156 -1.070312 4.078125 -0.921875 4.484375 -0.921875 C 4.921875 -0.921875 5.359375 -1.171875 5.796875 -1.671875 Z M 6.078125 -1.4375 "/></g></g></g><g fill="#000000" fill-opacity="1"><g transform="translate(263.018519, 389.762535)"><g/></g></g><g fill="#000000" fill-opacity="1"><g transform="translate(268.467494, 389.762535)"><g><path d="M 15.390625 0 L 9.828125 0 L 9.828125 -0.421875 C 10.421875 -0.421875 10.828125 -0.484375 11.046875 -0.609375 C 11.253906 -0.710938 11.359375 -0.890625 11.359375 -1.140625 C 11.359375 -1.484375 11.21875 -1.972656 10.9375 -2.609375 L 10.046875 -4.703125 L 4.34375 -4.703125 L 3.328125 -2.15625 C 3.210938 -1.851562 3.15625 -1.570312 3.15625 -1.3125 C 3.15625 -0.71875 3.648438 -0.421875 4.640625 -0.421875 L 4.640625 0 L 0.328125 0 L 0.328125 -0.421875 C 0.847656 -0.441406 1.253906 -0.644531 1.546875 -1.03125 C 1.835938 -1.414062 2.332031 -2.398438 3.03125 -3.984375 L 7.5625 -14.6875 L 8 -14.6875 L 13.421875 -2.3125 C 13.804688 -1.5 14.101562 -0.984375 14.3125 -0.765625 C 14.53125 -0.554688 14.890625 -0.441406 15.390625 -0.421875 Z M 9.75 -5.609375 L 7.21875 -11.59375 L 4.703125 -5.609375 Z M 9.75 -5.609375 "/></g></g></g><g fill="#000000" fill-opacity="1"><g transform="translate(284.204096, 389.762535)"><g><path d="M 15.28125 3.859375 L 15.15625 3.859375 C 14.988281 3.867188 14.734375 3.875 14.390625 3.875 C 10.859375 3.875 8.328125 2.988281 6.796875 1.21875 L 5.78125 0.015625 C 5.007812 -0.242188 4.40625 -0.503906 3.96875 -0.765625 C 3.539062 -1.023438 3.113281 -1.390625 2.6875 -1.859375 C 1.382812 -3.265625 0.734375 -5.035156 0.734375 -7.171875 C 0.734375 -9.378906 1.398438 -11.191406 2.734375 -12.609375 C 4.078125 -14.023438 5.785156 -14.734375 7.859375 -14.734375 C 9.941406 -14.734375 11.648438 -14.023438 12.984375 -12.609375 C 14.328125 -11.203125 15 -9.40625 15 -7.21875 C 15 -4.769531 14.1875 -2.820312 12.5625 -1.375 C 12.050781 -0.9375 11.5625 -0.609375 11.09375 -0.390625 C 10.625 -0.171875 10.019531 0.0078125 9.28125 0.15625 C 10.164062 1.3125 11.078125 2.148438 12.015625 2.671875 C 12.953125 3.203125 14.039062 3.46875 15.28125 3.46875 Z M 12.515625 -7.265625 C 12.515625 -8.492188 12.347656 -9.601562 12.015625 -10.59375 C 11.679688 -11.582031 11.222656 -12.335938 10.640625 -12.859375 C 9.828125 -13.585938 8.925781 -13.953125 7.9375 -13.953125 C 6.695312 -13.953125 5.632812 -13.476562 4.75 -12.53125 C 4.300781 -12.019531 3.929688 -11.28125 3.640625 -10.3125 C 3.359375 -9.351562 3.21875 -8.347656 3.21875 -7.296875 C 3.21875 -6.023438 3.378906 -4.875 3.703125 -3.84375 C 4.035156 -2.820312 4.492188 -2.054688 5.078125 -1.546875 C 5.878906 -0.835938 6.8125 -0.484375 7.875 -0.484375 C 9.125 -0.484375 10.164062 -0.945312 11 -1.875 C 11.4375 -2.382812 11.796875 -3.140625 12.078125 -4.140625 C 12.367188 -5.140625 12.515625 -6.179688 12.515625 -7.265625 Z M 12.515625 -7.265625 "/></g></g></g><g fill="#000000" fill-opacity="1"><g transform="translate(299.940699, 389.762535)"><g><path d="M 15.359375 -14.015625 C 14.460938 -13.898438 13.894531 -13.679688 13.65625 -13.359375 C 13.425781 -13.035156 13.3125 -12.320312 13.3125 -11.21875 L 13.3125 -5.53125 C 13.3125 -3.976562 13.070312 -2.78125 12.59375 -1.9375 C 11.738281 -0.4375 10.117188 0.3125 7.734375 0.3125 C 5.878906 0.3125 4.503906 -0.140625 3.609375 -1.046875 C 2.710938 -1.960938 2.265625 -3.363281 2.265625 -5.25 L 2.265625 -12.046875 C 2.265625 -12.847656 2.148438 -13.359375 1.921875 -13.578125 C 1.703125 -13.796875 1.164062 -13.941406 0.3125 -14.015625 L 0.3125 -14.421875 L 6.46875 -14.421875 L 6.46875 -14.015625 C 5.601562 -13.941406 5.054688 -13.789062 4.828125 -13.5625 C 4.597656 -13.34375 4.484375 -12.835938 4.484375 -12.046875 L 4.484375 -5.078125 C 4.484375 -3.796875 4.664062 -2.835938 5.03125 -2.203125 C 5.625 -1.171875 6.691406 -0.65625 8.234375 -0.65625 C 9.046875 -0.65625 9.78125 -0.8125 10.4375 -1.125 C 11.09375 -1.4375 11.566406 -1.851562 11.859375 -2.375 C 12.191406 -3 12.359375 -3.988281 12.359375 -5.34375 L 12.359375 -11.21875 C 12.359375 -12.3125 12.226562 -13.035156 11.96875 -13.390625 C 11.707031 -13.742188 11.15625 -13.953125 10.3125 -14.015625 L 10.3125 -14.421875 L 15.359375 -14.421875 Z M 15.359375 -14.015625 "/></g></g></g><g fill="#000000" fill-opacity="1"><g transform="translate(315.677302, 389.762535)"><g><path d="M 15.390625 0 L 9.828125 0 L 9.828125 -0.421875 C 10.421875 -0.421875 10.828125 -0.484375 11.046875 -0.609375 C 11.253906 -0.710938 11.359375 -0.890625 11.359375 -1.140625 C 11.359375 -1.484375 11.21875 -1.972656 10.9375 -2.609375 L 10.046875 -4.703125 L 4.34375 -4.703125 L 3.328125 -2.15625 C 3.210938 -1.851562 3.15625 -1.570312 3.15625 -1.3125 C 3.15625 -0.71875 3.648438 -0.421875 4.640625 -0.421875 L 4.640625 0 L 0.328125 0 L 0.328125 -0.421875 C 0.847656 -0.441406 1.253906 -0.644531 1.546875 -1.03125 C 1.835938 -1.414062 2.332031 -2.398438 3.03125 -3.984375 L 7.5625 -14.6875 L 8 -14.6875 L 13.421875 -2.3125 C 13.804688 -1.5 14.101562 -0.984375 14.3125 -0.765625 C 14.53125 -0.554688 14.890625 -0.441406 15.390625 -0.421875 Z M 9.75 -5.609375 L 7.21875 -11.59375 L 4.703125 -5.609375 Z M 9.75 -5.609375 "/></g></g></g><g fill="#000000" fill-opacity="1"><g transform="translate(331.413905, 389.762535)"><g><path d="M 15.1875 -14.015625 C 14.664062 -13.984375 14.289062 -13.851562 14.0625 -13.625 C 13.84375 -13.394531 13.550781 -12.847656 13.1875 -11.984375 L 8.34375 0.234375 L 8.015625 0.234375 L 2.65625 -11.734375 C 2.195312 -12.703125 1.832031 -13.320312 1.5625 -13.59375 C 1.289062 -13.863281 0.882812 -14.003906 0.34375 -14.015625 L 0.34375 -14.421875 L 6.140625 -14.421875 L 6.140625 -14.015625 C 5.734375 -13.984375 5.523438 -13.96875 5.515625 -13.96875 C 4.847656 -13.925781 4.515625 -13.703125 4.515625 -13.296875 C 4.515625 -13.003906 4.8125 -12.195312 5.40625 -10.875 L 8.703125 -3.515625 L 11.90625 -11.515625 C 12.175781 -12.210938 12.3125 -12.738281 12.3125 -13.09375 C 12.3125 -13.40625 12.195312 -13.628906 11.96875 -13.765625 C 11.738281 -13.898438 11.320312 -13.984375 10.71875 -14.015625 L 10.71875 -14.421875 L 15.1875 -14.421875 Z M 15.1875 -14.015625 "/></g></g></g><g fill="#000000" fill-opacity="1"><g transform="translate(347.150507, 389.762535)"><g><path d="M 6.859375 0 L 0.390625 0 L 0.390625 -0.421875 C 1.304688 -0.441406 1.882812 -0.566406 2.125 -0.796875 C 2.375 -1.035156 2.5 -1.5625 2.5 -2.375 L 2.5 -12.046875 C 2.5 -12.847656 2.378906 -13.359375 2.140625 -13.578125 C 1.898438 -13.804688 1.316406 -13.953125 0.390625 -14.015625 L 0.390625 -14.421875 L 6.859375 -14.421875 L 6.859375 -14.015625 C 5.953125 -13.972656 5.367188 -13.832031 5.109375 -13.59375 C 4.859375 -13.363281 4.734375 -12.847656 4.734375 -12.046875 L 4.734375 -2.375 C 4.734375 -1.570312 4.863281 -1.050781 5.125 -0.8125 C 5.382812 -0.570312 5.960938 -0.441406 6.859375 -0.421875 Z M 6.859375 0 "/></g></g></g><g fill="#000000" fill-opacity="1"><g transform="translate(354.408539, 389.762535)"><g><path d="M 13.015625 -3.6875 L 12.03125 0 L 0.265625 0 L 0.265625 -0.421875 C 1.054688 -0.472656 1.566406 -0.617188 1.796875 -0.859375 C 2.035156 -1.097656 2.15625 -1.601562 2.15625 -2.375 L 2.15625 -12.046875 C 2.15625 -12.816406 2.039062 -13.316406 1.8125 -13.546875 C 1.59375 -13.785156 1.078125 -13.941406 0.265625 -14.015625 L 0.265625 -14.421875 L 11.828125 -14.421875 L 11.90625 -11.3125 L 11.359375 -11.3125 C 11.171875 -12.28125 10.878906 -12.898438 10.484375 -13.171875 C 10.085938 -13.453125 9.273438 -13.59375 8.046875 -13.59375 L 5.09375 -13.59375 C 4.8125 -13.59375 4.617188 -13.546875 4.515625 -13.453125 C 4.421875 -13.359375 4.375 -13.160156 4.375 -12.859375 L 4.375 -8.015625 L 7.734375 -8.015625 C 8.617188 -8.015625 9.203125 -8.140625 9.484375 -8.390625 C 9.773438 -8.640625 9.992188 -9.207031 10.140625 -10.09375 L 10.640625 -10.09375 L 10.640625 -5.03125 L 10.140625 -5.03125 C 9.992188 -5.9375 9.78125 -6.507812 9.5 -6.75 C 9.226562 -7 8.640625 -7.125 7.734375 -7.125 L 4.375 -7.125 L 4.375 -1.75 C 4.375 -1.351562 4.4375 -1.117188 4.5625 -1.046875 C 4.757812 -0.890625 5.460938 -0.8125 6.671875 -0.8125 L 7.265625 -0.8125 C 8.816406 -0.8125 9.925781 -0.992188 10.59375 -1.359375 C 11.257812 -1.734375 11.863281 -2.507812 12.40625 -3.6875 Z M 13.015625 -3.6875 "/></g></g></g><g fill="#000000" fill-opacity="1"><g transform="translate(367.725805, 389.762535)"><g><path d="M 20.3125 -14.015625 C 19.726562 -13.898438 19.332031 -13.753906 19.125 -13.578125 C 18.914062 -13.398438 18.707031 -13.03125 18.5 -12.46875 L 14.0625 0.234375 L 13.734375 0.234375 L 10.25 -8.984375 L 6.890625 0.234375 L 6.5625 0.234375 L 2.359375 -11.46875 C 1.953125 -12.5 1.613281 -13.164062 1.34375 -13.46875 C 1.070312 -13.769531 0.660156 -13.953125 0.109375 -14.015625 L 0.109375 -14.421875 L 5.453125 -14.421875 L 5.453125 -14.015625 C 4.898438 -13.984375 4.523438 -13.921875 4.328125 -13.828125 C 4.128906 -13.734375 4.03125 -13.5625 4.03125 -13.3125 C 4.03125 -13.050781 4.109375 -12.71875 4.265625 -12.3125 L 7.40625 -4.125 L 9.75 -10.265625 L 9.03125 -12.046875 C 8.644531 -12.921875 8.335938 -13.460938 8.109375 -13.671875 C 7.878906 -13.890625 7.453125 -14.003906 6.828125 -14.015625 L 6.828125 -14.421875 L 12.640625 -14.421875 L 12.640625 -14.015625 C 11.523438 -14.003906 10.96875 -13.75 10.96875 -13.25 C 10.96875 -13.019531 11.078125 -12.648438 11.296875 -12.140625 L 11.546875 -11.484375 L 14.421875 -4.046875 L 17.15625 -11.4375 C 17.382812 -12.09375 17.5 -12.640625 17.5 -13.078125 C 17.5 -13.367188 17.382812 -13.582031 17.15625 -13.71875 C 16.9375 -13.851562 16.550781 -13.953125 16 -14.015625 L 16 -14.421875 L 20.3125 -14.421875 Z M 20.3125 -14.015625 "/></g></g></g></svg>