<svg xmlns="http://www.w3.org/2000/svg" xmlns:xlink="http://www.w3.org/1999/xlink" width="484" zoomAndPan="magnify" viewBox="0 0 363 470.25" height="627" preserveAspectRatio="xMidYMid meet" version="1.0"><defs><g/><clipPath id="855eff80d2"><path d="M 75.617188 75 L 287.53125 75 L 287.53125 348.308594 L 75.617188 348.308594 Z M 75.617188 75 " clip-rule="nonzero"/></clipPath></defs><g clip-path="url(#855eff80d2)"><path fill="#000000" d="M 287.53125 327.632812 C 287.53125 254.71875 240.054688 195.648438 181.574219 195.648438 C 123.09375 195.648438 75.617188 254.71875 75.617188 327.632812 C 75.617188 339.003906 123.09375 348.273438 181.574219 348.273438 C 240.054688 348.273438 287.53125 339.003906 287.53125 327.632812 Z M 181.574219 75.03125 C 213.472656 75.03125 239.3125 100.859375 239.3125 132.746094 C 239.3125 164.628906 213.472656 190.457031 181.574219 190.457031 C 149.675781 190.457031 123.835938 164.628906 123.835938 132.746094 C 123.835938 100.859375 149.675781 75.03125 181.574219 75.03125 Z M 181.574219 75.03125 " fill-opacity="1" fill-rule="evenodd"/></g><g fill="#000000" fill-opacity="1"><g transform="translate(108.447357, 388.51416)"><g><path d="M 12.90625 -10.703125 L 12.390625 -10.703125 C 12.140625 -11.910156 11.804688 -12.675781 11.390625 -13 C 10.984375 -13.332031 10.160156 -13.5 8.921875 -13.5 L 7.75 -13.5 L 7.75 -2.375 C 7.75 -1.570312 7.867188 -1.054688 8.109375 -0.828125 C 8.359375 -0.597656 8.9375 -0.457031 9.84375 -0.40625 L 9.84375 0 L 3.484375 0 L 3.484375 -0.40625 C 4.378906 -0.46875 4.941406 -0.617188 5.171875 -0.859375 C 5.410156 -1.097656 5.53125 -1.679688 5.53125 -2.609375 L 5.53125 -13.5 L 4.359375 -13.5 C 3.140625 -13.5 2.320312 -13.332031 1.90625 -13 C 1.488281 -12.664062 1.148438 -11.898438 0.890625 -10.703125 L 0.375 -10.703125 L 0.5 -14.40625 L 12.78125 -14.40625 Z M 12.90625 -10.703125 "/></g></g></g><g fill="#000000" fill-opacity="1"><g transform="translate(121.743417, 388.51416)"><g><path d="M 10.59375 0 L 5.984375 0 L 5.984375 -0.328125 C 6.609375 -0.378906 7.007812 -0.519531 7.1875 -0.75 C 7.375 -0.988281 7.46875 -1.476562 7.46875 -2.21875 L 7.46875 -6.53125 C 7.46875 -8.070312 6.921875 -8.84375 5.828125 -8.84375 C 5.410156 -8.84375 5.015625 -8.734375 4.640625 -8.515625 C 4.273438 -8.304688 3.867188 -7.957031 3.421875 -7.46875 L 3.421875 -2.21875 C 3.421875 -1.46875 3.503906 -0.984375 3.671875 -0.765625 C 3.847656 -0.546875 4.253906 -0.398438 4.890625 -0.328125 L 4.890625 0 L 0.203125 0 L 0.203125 -0.328125 C 0.816406 -0.410156 1.203125 -0.550781 1.359375 -0.75 C 1.515625 -0.957031 1.59375 -1.445312 1.59375 -2.21875 L 1.59375 -12.46875 C 1.59375 -12.9375 1.519531 -13.238281 1.375 -13.375 C 1.238281 -13.507812 0.941406 -13.578125 0.484375 -13.578125 C 0.367188 -13.578125 0.28125 -13.570312 0.21875 -13.5625 L 0.21875 -13.90625 L 0.8125 -14.078125 C 1.789062 -14.359375 2.625 -14.617188 3.3125 -14.859375 L 3.421875 -14.796875 L 3.421875 -8.1875 C 3.921875 -8.832031 4.414062 -9.296875 4.90625 -9.578125 C 5.40625 -9.867188 5.972656 -10.015625 6.609375 -10.015625 C 8.398438 -10.015625 9.296875 -8.859375 9.296875 -6.546875 L 9.296875 -2.21875 C 9.296875 -1.46875 9.363281 -0.992188 9.5 -0.796875 C 9.632812 -0.597656 10 -0.441406 10.59375 -0.328125 Z M 10.59375 0 "/></g></g></g><g fill="#000000" fill-opacity="1"><g transform="translate(132.623994, 388.51416)"><g><path d="M 5.5 0 L 0.34375 0 L 0.34375 -0.328125 C 1.101562 -0.367188 1.578125 -0.5 1.765625 -0.71875 C 1.960938 -0.9375 2.0625 -1.4375 2.0625 -2.21875 L 2.0625 -7.265625 C 2.0625 -7.742188 2.003906 -8.082031 1.890625 -8.28125 C 1.785156 -8.476562 1.601562 -8.578125 1.34375 -8.578125 C 1.113281 -8.578125 0.867188 -8.554688 0.609375 -8.515625 L 0.4375 -8.484375 L 0.4375 -8.8125 L 3.8125 -10.015625 L 3.890625 -9.953125 L 3.890625 -2.21875 C 3.890625 -1.4375 3.976562 -0.9375 4.15625 -0.71875 C 4.34375 -0.507812 4.789062 -0.378906 5.5 -0.328125 Z M 4.09375 -12.84375 C 4.09375 -12.519531 3.984375 -12.253906 3.765625 -12.046875 C 3.554688 -11.835938 3.296875 -11.734375 2.984375 -11.734375 C 2.679688 -11.734375 2.421875 -11.835938 2.203125 -12.046875 C 1.984375 -12.253906 1.875 -12.519531 1.875 -12.84375 C 1.875 -13.144531 1.984375 -13.40625 2.203125 -13.625 C 2.421875 -13.84375 2.679688 -13.953125 2.984375 -13.953125 C 3.296875 -13.953125 3.554688 -13.84375 3.765625 -13.625 C 3.984375 -13.40625 4.09375 -13.144531 4.09375 -12.84375 Z M 4.09375 -12.84375 "/></g></g></g><g fill="#000000" fill-opacity="1"><g transform="translate(138.6736, 388.51416)"><g><path d="M 7.578125 -2.5625 C 7.578125 -1.8125 7.273438 -1.160156 6.671875 -0.609375 C 6.066406 -0.0546875 5.351562 0.21875 4.53125 0.21875 C 4.132812 0.21875 3.597656 0.144531 2.921875 0 C 2.453125 -0.113281 2.117188 -0.171875 1.921875 -0.171875 C 1.703125 -0.171875 1.535156 -0.0820312 1.421875 0.09375 L 1.125 0.09375 L 1.125 -3.3125 L 1.484375 -3.3125 C 1.722656 -2.207031 2.050781 -1.421875 2.46875 -0.953125 C 2.894531 -0.492188 3.488281 -0.265625 4.25 -0.265625 C 4.800781 -0.265625 5.238281 -0.40625 5.5625 -0.6875 C 5.882812 -0.96875 6.046875 -1.347656 6.046875 -1.828125 C 6.046875 -2.484375 5.671875 -3.023438 4.921875 -3.453125 L 3.65625 -4.171875 C 2.726562 -4.710938 2.070312 -5.21875 1.6875 -5.6875 C 1.300781 -6.164062 1.109375 -6.707031 1.109375 -7.3125 C 1.109375 -8.113281 1.382812 -8.757812 1.9375 -9.25 C 2.5 -9.738281 3.222656 -9.984375 4.109375 -9.984375 C 4.648438 -9.984375 5.144531 -9.898438 5.59375 -9.734375 C 5.8125 -9.628906 6.007812 -9.578125 6.1875 -9.578125 C 6.238281 -9.578125 6.335938 -9.632812 6.484375 -9.75 L 6.53125 -9.796875 L 6.765625 -9.796875 L 6.859375 -6.828125 L 6.53125 -6.828125 C 6.28125 -7.804688 5.972656 -8.5 5.609375 -8.90625 C 5.253906 -9.3125 4.765625 -9.515625 4.140625 -9.515625 C 3.628906 -9.515625 3.21875 -9.378906 2.90625 -9.109375 C 2.601562 -8.835938 2.453125 -8.476562 2.453125 -8.03125 C 2.453125 -7.40625 2.765625 -6.910156 3.390625 -6.546875 L 5.75 -5.15625 C 6.414062 -4.769531 6.882812 -4.378906 7.15625 -3.984375 C 7.4375 -3.585938 7.578125 -3.113281 7.578125 -2.5625 Z M 7.578125 -2.5625 "/></g></g></g><g fill="#000000" fill-opacity="1"><g transform="translate(147.138692, 388.51416)"><g/></g></g><g fill="#000000" fill-opacity="1"><g transform="translate(152.578991, 388.51416)"><g><path d="M 5.5 0 L 0.34375 0 L 0.34375 -0.328125 C 1.101562 -0.367188 1.578125 -0.5 1.765625 -0.71875 C 1.960938 -0.9375 2.0625 -1.4375 2.0625 -2.21875 L 2.0625 -7.265625 C 2.0625 -7.742188 2.003906 -8.082031 1.890625 -8.28125 C 1.785156 -8.476562 1.601562 -8.578125 1.34375 -8.578125 C 1.113281 -8.578125 0.867188 -8.554688 0.609375 -8.515625 L 0.4375 -8.484375 L 0.4375 -8.8125 L 3.8125 -10.015625 L 3.890625 -9.953125 L 3.890625 -2.21875 C 3.890625 -1.4375 3.976562 -0.9375 4.15625 -0.71875 C 4.34375 -0.507812 4.789062 -0.378906 5.5 -0.328125 Z M 4.09375 -12.84375 C 4.09375 -12.519531 3.984375 -12.253906 3.765625 -12.046875 C 3.554688 -11.835938 3.296875 -11.734375 2.984375 -11.734375 C 2.679688 -11.734375 2.421875 -11.835938 2.203125 -12.046875 C 1.984375 -12.253906 1.875 -12.519531 1.875 -12.84375 C 1.875 -13.144531 1.984375 -13.40625 2.203125 -13.625 C 2.421875 -13.84375 2.679688 -13.953125 2.984375 -13.953125 C 3.296875 -13.953125 3.554688 -13.84375 3.765625 -13.625 C 3.984375 -13.40625 4.09375 -13.144531 4.09375 -12.84375 Z M 4.09375 -12.84375 "/></g></g></g><g fill="#000000" fill-opacity="1"><g transform="translate(158.628597, 388.51416)"><g><path d="M 7.578125 -2.5625 C 7.578125 -1.8125 7.273438 -1.160156 6.671875 -0.609375 C 6.066406 -0.0546875 5.351562 0.21875 4.53125 0.21875 C 4.132812 0.21875 3.597656 0.144531 2.921875 0 C 2.453125 -0.113281 2.117188 -0.171875 1.921875 -0.171875 C 1.703125 -0.171875 1.535156 -0.0820312 1.421875 0.09375 L 1.125 0.09375 L 1.125 -3.3125 L 1.484375 -3.3125 C 1.722656 -2.207031 2.050781 -1.421875 2.46875 -0.953125 C 2.894531 -0.492188 3.488281 -0.265625 4.25 -0.265625 C 4.800781 -0.265625 5.238281 -0.40625 5.5625 -0.6875 C 5.882812 -0.96875 6.046875 -1.347656 6.046875 -1.828125 C 6.046875 -2.484375 5.671875 -3.023438 4.921875 -3.453125 L 3.65625 -4.171875 C 2.726562 -4.710938 2.070312 -5.21875 1.6875 -5.6875 C 1.300781 -6.164062 1.109375 -6.707031 1.109375 -7.3125 C 1.109375 -8.113281 1.382812 -8.757812 1.9375 -9.25 C 2.5 -9.738281 3.222656 -9.984375 4.109375 -9.984375 C 4.648438 -9.984375 5.144531 -9.898438 5.59375 -9.734375 C 5.8125 -9.628906 6.007812 -9.578125 6.1875 -9.578125 C 6.238281 -9.578125 6.335938 -9.632812 6.484375 -9.75 L 6.53125 -9.796875 L 6.765625 -9.796875 L 6.859375 -6.828125 L 6.53125 -6.828125 C 6.28125 -7.804688 5.972656 -8.5 5.609375 -8.90625 C 5.253906 -9.3125 4.765625 -9.515625 4.140625 -9.515625 C 3.628906 -9.515625 3.21875 -9.378906 2.90625 -9.109375 C 2.601562 -8.835938 2.453125 -8.476562 2.453125 -8.03125 C 2.453125 -7.40625 2.765625 -6.910156 3.390625 -6.546875 L 5.75 -5.15625 C 6.414062 -4.769531 6.882812 -4.378906 7.15625 -3.984375 C 7.4375 -3.585938 7.578125 -3.113281 7.578125 -2.5625 Z M 7.578125 -2.5625 "/></g></g></g><g fill="#000000" fill-opacity="1"><g transform="translate(167.093689, 388.51416)"><g/></g></g><g fill="#000000" fill-opacity="1"><g transform="translate(172.533988, 388.51416)"><g><path d="M 18.78125 0 L 12.6875 0 L 12.6875 -0.40625 C 13.539062 -0.46875 14.082031 -0.625 14.3125 -0.875 C 14.550781 -1.132812 14.671875 -1.710938 14.671875 -2.609375 L 14.671875 -12.46875 L 9.09375 0 L 8.796875 0 L 3.328125 -11.96875 L 3.328125 -3.203125 C 3.328125 -2.097656 3.457031 -1.367188 3.71875 -1.015625 C 3.976562 -0.660156 4.53125 -0.457031 5.375 -0.40625 L 5.375 0 L 0.265625 0 L 0.265625 -0.40625 C 1.160156 -0.46875 1.734375 -0.671875 1.984375 -1.015625 C 2.242188 -1.359375 2.375 -2.085938 2.375 -3.203125 L 2.375 -12.03125 C 2.375 -12.832031 2.253906 -13.34375 2.015625 -13.5625 C 1.773438 -13.789062 1.207031 -13.9375 0.3125 -14 L 0.3125 -14.40625 L 4.609375 -14.40625 L 9.640625 -3.421875 L 14.453125 -14.40625 L 18.78125 -14.40625 L 18.78125 -14 C 17.96875 -13.925781 17.445312 -13.769531 17.21875 -13.53125 C 17 -13.300781 16.890625 -12.800781 16.890625 -12.03125 L 16.890625 -2.375 C 16.890625 -1.601562 17.003906 -1.097656 17.234375 -0.859375 C 17.472656 -0.617188 17.988281 -0.46875 18.78125 -0.40625 Z M 18.78125 0 "/></g></g></g><g fill="#000000" fill-opacity="1"><g transform="translate(191.879655, 388.51416)"><g><path d="M 9.625 -0.875 C 9.238281 -0.445312 8.90625 -0.15625 8.625 0 C 8.34375 0.144531 8.019531 0.21875 7.65625 0.21875 C 7.207031 0.21875 6.878906 0.0976562 6.671875 -0.140625 C 6.460938 -0.378906 6.328125 -0.789062 6.265625 -1.375 C 5.015625 -0.3125 3.957031 0.21875 3.09375 0.21875 C 2.425781 0.21875 1.878906 0 1.453125 -0.4375 C 1.023438 -0.875 0.8125 -1.429688 0.8125 -2.109375 C 0.8125 -2.890625 1.070312 -3.519531 1.59375 -4 C 2.050781 -4.40625 2.515625 -4.726562 2.984375 -4.96875 C 3.460938 -5.207031 4.550781 -5.671875 6.25 -6.359375 L 6.25 -7.6875 C 6.25 -8.882812 5.695312 -9.484375 4.59375 -9.484375 C 4.15625 -9.484375 3.785156 -9.378906 3.484375 -9.171875 C 3.179688 -8.960938 3.03125 -8.710938 3.03125 -8.421875 C 3.03125 -8.265625 3.050781 -8.09375 3.09375 -7.90625 C 3.125 -7.695312 3.140625 -7.578125 3.140625 -7.546875 C 3.140625 -7.304688 3.039062 -7.09375 2.84375 -6.90625 C 2.644531 -6.726562 2.414062 -6.640625 2.15625 -6.640625 C 1.894531 -6.640625 1.671875 -6.734375 1.484375 -6.921875 C 1.304688 -7.109375 1.21875 -7.328125 1.21875 -7.578125 C 1.21875 -8.171875 1.515625 -8.710938 2.109375 -9.203125 C 2.765625 -9.742188 3.6875 -10.015625 4.875 -10.015625 C 6.226562 -10.015625 7.132812 -9.59375 7.59375 -8.75 C 7.875 -8.300781 8.015625 -7.5625 8.015625 -6.53125 L 8.015625 -2.28125 C 8.015625 -1.800781 8.0625 -1.46875 8.15625 -1.28125 C 8.25 -1.101562 8.414062 -1.015625 8.65625 -1.015625 C 8.96875 -1.015625 9.289062 -1.15625 9.625 -1.4375 Z M 6.25 -2.671875 L 6.25 -5.828125 C 4.9375 -5.347656 4.019531 -4.882812 3.5 -4.4375 C 2.976562 -3.988281 2.71875 -3.445312 2.71875 -2.8125 L 2.71875 -2.71875 C 2.71875 -2.257812 2.851562 -1.863281 3.125 -1.53125 C 3.394531 -1.207031 3.71875 -1.046875 4.09375 -1.046875 C 4.601562 -1.046875 5.132812 -1.207031 5.6875 -1.53125 C 5.914062 -1.664062 6.066406 -1.804688 6.140625 -1.953125 C 6.210938 -2.097656 6.25 -2.335938 6.25 -2.671875 Z M 6.25 -2.671875 "/></g></g></g><g fill="#000000" fill-opacity="1"><g transform="translate(201.541615, 388.51416)"><g><path d="M 10.6875 -0.921875 L 7.484375 0.21875 L 7.40625 0.15625 L 7.40625 -1.234375 C 6.707031 -0.265625 5.773438 0.21875 4.609375 0.21875 C 3.410156 0.21875 2.441406 -0.210938 1.703125 -1.078125 C 0.960938 -1.941406 0.59375 -3.070312 0.59375 -4.46875 C 0.59375 -6 1.035156 -7.304688 1.921875 -8.390625 C 2.804688 -9.472656 3.867188 -10.015625 5.109375 -10.015625 C 5.898438 -10.015625 6.664062 -9.703125 7.40625 -9.078125 L 7.40625 -12.46875 C 7.40625 -12.914062 7.335938 -13.210938 7.203125 -13.359375 C 7.078125 -13.503906 6.8125 -13.578125 6.40625 -13.578125 C 6.195312 -13.578125 6.035156 -13.570312 5.921875 -13.5625 L 5.921875 -13.90625 C 7.242188 -14.257812 8.3125 -14.578125 9.125 -14.859375 L 9.234375 -14.828125 L 9.234375 -2.484375 C 9.234375 -1.972656 9.289062 -1.632812 9.40625 -1.46875 C 9.53125 -1.3125 9.789062 -1.234375 10.1875 -1.234375 C 10.257812 -1.234375 10.425781 -1.242188 10.6875 -1.265625 Z M 7.40625 -2.21875 L 7.40625 -7.21875 C 7.40625 -7.800781 7.175781 -8.3125 6.71875 -8.75 C 6.269531 -9.1875 5.757812 -9.40625 5.1875 -9.40625 C 4.351562 -9.40625 3.6875 -9.035156 3.1875 -8.296875 C 2.695312 -7.554688 2.453125 -6.566406 2.453125 -5.328125 C 2.453125 -3.992188 2.726562 -2.925781 3.28125 -2.125 C 3.832031 -1.320312 4.5625 -0.921875 5.46875 -0.921875 C 6.113281 -0.921875 6.632812 -1.132812 7.03125 -1.5625 C 7.28125 -1.84375 7.40625 -2.0625 7.40625 -2.21875 Z M 7.40625 -2.21875 "/></g></g></g><g fill="#000000" fill-opacity="1"><g transform="translate(212.422191, 388.51416)"><g><path d="M 9.234375 -3.421875 C 8.285156 -0.992188 6.742188 0.21875 4.609375 0.21875 C 3.367188 0.21875 2.378906 -0.21875 1.640625 -1.09375 C 0.910156 -1.976562 0.546875 -3.164062 0.546875 -4.65625 C 0.546875 -6.238281 0.960938 -7.523438 1.796875 -8.515625 C 2.640625 -9.515625 3.738281 -10.015625 5.09375 -10.015625 C 6.25 -10.015625 7.175781 -9.597656 7.875 -8.765625 C 8.351562 -8.160156 8.664062 -7.25 8.8125 -6.03125 L 2.109375 -6.03125 C 2.148438 -4.789062 2.367188 -3.789062 2.765625 -3.03125 C 3.390625 -1.863281 4.300781 -1.28125 5.5 -1.28125 C 6.195312 -1.28125 6.800781 -1.453125 7.3125 -1.796875 C 7.832031 -2.148438 8.351562 -2.738281 8.875 -3.5625 Z M 6.59375 -6.71875 C 6.445312 -7.664062 6.222656 -8.320312 5.921875 -8.6875 C 5.617188 -9.050781 5.132812 -9.234375 4.46875 -9.234375 C 3.15625 -9.234375 2.382812 -8.394531 2.15625 -6.71875 Z M 6.59375 -6.71875 "/></g></g></g><g fill="#000000" fill-opacity="1"><g transform="translate(222.08415, 388.51416)"><g><path d="M 5.59375 0 L 0.453125 0 L 0.453125 -0.328125 C 1.140625 -0.378906 1.59375 -0.503906 1.8125 -0.703125 C 2.03125 -0.910156 2.140625 -1.304688 2.140625 -1.890625 L 2.140625 -12.28125 C 2.140625 -12.78125 2.070312 -13.125 1.9375 -13.3125 C 1.800781 -13.507812 1.5625 -13.609375 1.21875 -13.609375 C 1.082031 -13.609375 0.859375 -13.59375 0.546875 -13.5625 L 0.40625 -13.5625 L 0.40625 -13.90625 C 1.84375 -14.257812 3 -14.578125 3.875 -14.859375 L 3.96875 -14.828125 L 3.96875 -1.828125 C 3.96875 -1.234375 4.0625 -0.84375 4.25 -0.65625 C 4.445312 -0.476562 4.894531 -0.367188 5.59375 -0.328125 Z M 5.59375 0 "/></g></g></g><g fill="#000000" fill-opacity="1"><g transform="translate(228.133757, 388.51416)"><g><path d="M 5.5 0 L 0.34375 0 L 0.34375 -0.328125 C 1.101562 -0.367188 1.578125 -0.5 1.765625 -0.71875 C 1.960938 -0.9375 2.0625 -1.4375 2.0625 -2.21875 L 2.0625 -7.265625 C 2.0625 -7.742188 2.003906 -8.082031 1.890625 -8.28125 C 1.785156 -8.476562 1.601562 -8.578125 1.34375 -8.578125 C 1.113281 -8.578125 0.867188 -8.554688 0.609375 -8.515625 L 0.4375 -8.484375 L 0.4375 -8.8125 L 3.8125 -10.015625 L 3.890625 -9.953125 L 3.890625 -2.21875 C 3.890625 -1.4375 3.976562 -0.9375 4.15625 -0.71875 C 4.34375 -0.507812 4.789062 -0.378906 5.5 -0.328125 Z M 4.09375 -12.84375 C 4.09375 -12.519531 3.984375 -12.253906 3.765625 -12.046875 C 3.554688 -11.835938 3.296875 -11.734375 2.984375 -11.734375 C 2.679688 -11.734375 2.421875 -11.835938 2.203125 -12.046875 C 1.984375 -12.253906 1.875 -12.519531 1.875 -12.84375 C 1.875 -13.144531 1.984375 -13.40625 2.203125 -13.625 C 2.421875 -13.84375 2.679688 -13.953125 2.984375 -13.953125 C 3.296875 -13.953125 3.554688 -13.84375 3.765625 -13.625 C 3.984375 -13.40625 4.09375 -13.144531 4.09375 -12.84375 Z M 4.09375 -12.84375 "/></g></g></g><g fill="#000000" fill-opacity="1"><g transform="translate(234.183364, 388.51416)"><g><path d="M 10.5625 0 L 6.03125 0 L 6.03125 -0.328125 C 6.582031 -0.367188 6.945312 -0.507812 7.125 -0.75 C 7.3125 -1 7.40625 -1.46875 7.40625 -2.15625 L 7.40625 -6.703125 C 7.40625 -8.109375 6.875 -8.8125 5.8125 -8.8125 C 5.445312 -8.8125 5.113281 -8.726562 4.8125 -8.5625 C 4.507812 -8.394531 4.09375 -8.066406 3.5625 -7.578125 L 3.5625 -1.453125 C 3.5625 -1.066406 3.660156 -0.789062 3.859375 -0.625 C 4.066406 -0.46875 4.445312 -0.367188 5 -0.328125 L 5 0 L 0.390625 0 L 0.390625 -0.328125 C 0.941406 -0.367188 1.300781 -0.492188 1.46875 -0.703125 C 1.644531 -0.910156 1.734375 -1.328125 1.734375 -1.953125 L 1.734375 -7.359375 C 1.734375 -7.890625 1.675781 -8.253906 1.5625 -8.453125 C 1.445312 -8.648438 1.238281 -8.75 0.9375 -8.75 C 0.65625 -8.75 0.457031 -8.71875 0.34375 -8.65625 L 0.34375 -9.03125 C 1.414062 -9.351562 2.421875 -9.679688 3.359375 -10.015625 L 3.5 -9.96875 L 3.5 -8.25 C 4.238281 -8.945312 4.820312 -9.414062 5.25 -9.65625 C 5.6875 -9.894531 6.15625 -10.015625 6.65625 -10.015625 C 7.457031 -10.015625 8.085938 -9.726562 8.546875 -9.15625 C 9.003906 -8.582031 9.234375 -7.78125 9.234375 -6.75 L 9.234375 -1.765625 C 9.234375 -1.222656 9.316406 -0.859375 9.484375 -0.671875 C 9.660156 -0.492188 10.019531 -0.378906 10.5625 -0.328125 Z M 10.5625 0 "/></g></g></g><g fill="#000000" fill-opacity="1"><g transform="translate(245.06394, 388.51416)"><g><path d="M 9.234375 -3.421875 C 8.285156 -0.992188 6.742188 0.21875 4.609375 0.21875 C 3.367188 0.21875 2.378906 -0.21875 1.640625 -1.09375 C 0.910156 -1.976562 0.546875 -3.164062 0.546875 -4.65625 C 0.546875 -6.238281 0.960938 -7.523438 1.796875 -8.515625 C 2.640625 -9.515625 3.738281 -10.015625 5.09375 -10.015625 C 6.25 -10.015625 7.175781 -9.597656 7.875 -8.765625 C 8.351562 -8.160156 8.664062 -7.25 8.8125 -6.03125 L 2.109375 -6.03125 C 2.148438 -4.789062 2.367188 -3.789062 2.765625 -3.03125 C 3.390625 -1.863281 4.300781 -1.28125 5.5 -1.28125 C 6.195312 -1.28125 6.800781 -1.453125 7.3125 -1.796875 C 7.832031 -2.148438 8.351562 -2.738281 8.875 -3.5625 Z M 6.59375 -6.71875 C 6.445312 -7.664062 6.222656 -8.320312 5.921875 -8.6875 C 5.617188 -9.050781 5.132812 -9.234375 4.46875 -9.234375 C 3.15625 -9.234375 2.382812 -8.394531 2.15625 -6.71875 Z M 6.59375 -6.71875 "/></g></g></g></svg>