<svg xmlns="http://www.w3.org/2000/svg" xmlns:xlink="http://www.w3.org/1999/xlink" width="468" zoomAndPan="magnify" viewBox="0 0 351 287.25" height="383" preserveAspectRatio="xMidYMid meet" version="1.0"><defs><g/><clipPath id="afb8224374"><path d="M 129.355469 75.457031 L 221.71875 75.457031 L 221.71875 167.820312 L 129.355469 167.820312 Z M 129.355469 75.457031 " clip-rule="nonzero"/></clipPath><clipPath id="877488c920"><path d="M 163.269531 98.363281 L 172.492188 98.363281 L 172.492188 107.585938 L 163.269531 107.585938 Z M 163.269531 98.363281 " clip-rule="nonzero"/></clipPath><clipPath id="968d5fdc3c"><path d="M 167.878906 98.363281 C 165.332031 98.363281 163.269531 100.425781 163.269531 102.972656 C 163.269531 105.519531 165.332031 107.585938 167.878906 107.585938 C 170.425781 107.585938 172.492188 105.519531 172.492188 102.972656 C 172.492188 100.425781 170.425781 98.363281 167.878906 98.363281 " clip-rule="nonzero"/></clipPath><clipPath id="eea0c871f6"><path d="M 177.425781 98.363281 L 186.648438 98.363281 L 186.648438 107.585938 L 177.425781 107.585938 Z M 177.425781 98.363281 " clip-rule="nonzero"/></clipPath><clipPath id="0fa057c82d"><path d="M 182.039062 98.363281 C 179.492188 98.363281 177.425781 100.425781 177.425781 102.972656 C 177.425781 105.519531 179.492188 107.585938 182.039062 107.585938 C 184.585938 107.585938 186.648438 105.519531 186.648438 102.972656 C 186.648438 100.425781 184.585938 98.363281 182.039062 98.363281 " clip-rule="nonzero"/></clipPath></defs><g clip-path="url(#afb8224374)"><path fill="#000000" d="M 175.539062 75.457031 C 150.074219 75.457031 129.355469 96.175781 129.355469 121.636719 C 129.355469 147.101562 150.074219 167.820312 175.539062 167.820312 C 201 167.820312 221.71875 147.101562 221.71875 121.636719 C 221.71875 96.175781 201 75.457031 175.539062 75.457031 Z M 149.601562 152.582031 C 150.03125 138.632812 161.484375 127.410156 175.539062 127.410156 C 189.59375 127.410156 201.046875 138.632812 201.476562 152.582031 C 194.449219 158.480469 185.40625 162.046875 175.539062 162.046875 C 165.667969 162.046875 156.625 158.480469 149.601562 152.582031 Z M 161.105469 107.207031 C 161.105469 99.25 167.582031 92.773438 175.539062 92.773438 C 183.496094 92.773438 189.96875 99.25 189.96875 107.207031 C 189.96875 115.164062 183.496094 121.636719 175.539062 121.636719 C 167.582031 121.636719 161.105469 115.164062 161.105469 107.207031 Z M 206.695312 147.339844 C 204.605469 136.550781 197.035156 127.71875 187.011719 123.816406 C 192.277344 120.167969 195.742188 114.085938 195.742188 107.207031 C 195.742188 96.066406 186.675781 87 175.539062 87 C 164.398438 87 155.332031 96.066406 155.332031 107.207031 C 155.332031 114.085938 158.796875 120.167969 164.066406 123.816406 C 154.039062 127.722656 146.472656 136.554688 144.378906 147.34375 C 138.605469 140.351562 135.128906 131.394531 135.128906 121.636719 C 135.128906 99.355469 153.253906 81.230469 175.539062 81.230469 C 197.820312 81.230469 215.949219 99.355469 215.949219 121.636719 C 215.949219 131.394531 212.472656 140.351562 206.695312 147.339844 Z M 206.695312 147.339844 " fill-opacity="1" fill-rule="nonzero"/></g><g clip-path="url(#877488c920)"><g clip-path="url(#968d5fdc3c)"><path fill="#000000" d="M 163.269531 98.363281 L 172.492188 98.363281 L 172.492188 107.585938 L 163.269531 107.585938 Z M 163.269531 98.363281 " fill-opacity="1" fill-rule="nonzero"/></g></g><g clip-path="url(#eea0c871f6)"><g clip-path="url(#0fa057c82d)"><path fill="#000000" d="M 177.425781 98.363281 L 186.648438 98.363281 L 186.648438 107.585938 L 177.425781 107.585938 Z M 177.425781 98.363281 " fill-opacity="1" fill-rule="nonzero"/></g></g><g fill="#000000" fill-opacity="1"><g transform="translate(91.94315, 204.796177)"><g><path d="M 17.1875 0 L 12.984375 0 L 6.78125 -8.03125 L 5.3125 -7.984375 L 5.3125 -2.84375 C 5.3125 -1.90625 5.453125 -1.296875 5.734375 -1.015625 C 6.015625 -0.734375 6.660156 -0.5625 7.671875 -0.5 L 7.671875 0 L 0.4375 0 L 0.4375 -0.5 C 1.414062 -0.5625 2.03125 -0.742188 2.28125 -1.046875 C 2.53125 -1.359375 2.65625 -2.050781 2.65625 -3.125 L 2.65625 -14.421875 C 2.65625 -15.335938 2.53125 -15.929688 2.28125 -16.203125 C 2.03125 -16.472656 1.414062 -16.660156 0.4375 -16.765625 L 0.4375 -17.265625 L 7.640625 -17.265625 C 8.859375 -17.265625 9.96875 -17.109375 10.96875 -16.796875 C 11.976562 -16.484375 12.738281 -16.054688 13.25 -15.515625 C 13.925781 -14.753906 14.265625 -13.804688 14.265625 -12.671875 C 14.265625 -11.390625 13.820312 -10.390625 12.9375 -9.671875 C 12.1875 -9.066406 11.054688 -8.613281 9.546875 -8.3125 L 14.921875 -1.71875 C 15.285156 -1.28125 15.625 -0.972656 15.9375 -0.796875 C 16.257812 -0.628906 16.675781 -0.53125 17.1875 -0.5 Z M 11.421875 -12.71875 C 11.421875 -13.9375 11.03125 -14.835938 10.25 -15.421875 C 9.476562 -16.003906 8.28125 -16.296875 6.65625 -16.296875 C 6.132812 -16.296875 5.78125 -16.226562 5.59375 -16.09375 C 5.40625 -15.96875 5.3125 -15.722656 5.3125 -15.359375 L 5.3125 -8.9375 C 6.582031 -8.976562 7.519531 -9.054688 8.125 -9.171875 C 8.738281 -9.285156 9.34375 -9.503906 9.9375 -9.828125 C 10.925781 -10.347656 11.421875 -11.3125 11.421875 -12.71875 Z M 11.421875 -12.71875 "/></g></g></g><g fill="#000000" fill-opacity="1"><g transform="translate(109.333349, 204.796177)"><g><path d="M 11.0625 -4.09375 C 9.925781 -1.1875 8.082031 0.265625 5.53125 0.265625 C 4.03125 0.265625 2.84375 -0.257812 1.96875 -1.3125 C 1.09375 -2.363281 0.65625 -3.785156 0.65625 -5.578125 C 0.65625 -7.472656 1.15625 -9.015625 2.15625 -10.203125 C 3.164062 -11.398438 4.484375 -12 6.109375 -12 C 7.492188 -12 8.601562 -11.503906 9.4375 -10.515625 C 10.007812 -9.785156 10.382812 -8.6875 10.5625 -7.21875 L 2.53125 -7.21875 C 2.582031 -5.738281 2.84375 -4.539062 3.3125 -3.625 C 4.0625 -2.226562 5.15625 -1.53125 6.59375 -1.53125 C 7.425781 -1.53125 8.148438 -1.738281 8.765625 -2.15625 C 9.390625 -2.582031 10.015625 -3.289062 10.640625 -4.28125 Z M 7.90625 -8.0625 C 7.726562 -9.1875 7.457031 -9.96875 7.09375 -10.40625 C 6.726562 -10.84375 6.144531 -11.0625 5.34375 -11.0625 C 3.78125 -11.0625 2.859375 -10.0625 2.578125 -8.0625 Z M 7.90625 -8.0625 "/></g></g></g><g fill="#000000" fill-opacity="1"><g transform="translate(120.909433, 204.796177)"><g><path d="M 20.203125 0 L 14.5 0 L 14.5 -0.390625 C 15.257812 -0.472656 15.734375 -0.617188 15.921875 -0.828125 C 16.117188 -1.035156 16.21875 -1.515625 16.21875 -2.265625 L 16.21875 -7.765625 C 16.21875 -8.847656 16.078125 -9.597656 15.796875 -10.015625 C 15.523438 -10.429688 15.015625 -10.640625 14.265625 -10.640625 C 13.117188 -10.640625 12.171875 -10.109375 11.421875 -9.046875 L 11.421875 -2.484375 C 11.421875 -1.660156 11.546875 -1.109375 11.796875 -0.828125 C 12.046875 -0.554688 12.546875 -0.410156 13.296875 -0.390625 L 13.296875 0 L 7.453125 0 L 7.453125 -0.390625 C 8.203125 -0.441406 8.6875 -0.578125 8.90625 -0.796875 C 9.125 -1.023438 9.234375 -1.507812 9.234375 -2.25 L 9.234375 -7.90625 C 9.234375 -9.726562 8.660156 -10.640625 7.515625 -10.640625 C 7.054688 -10.640625 6.570312 -10.539062 6.0625 -10.34375 C 5.5625 -10.144531 5.148438 -9.894531 4.828125 -9.59375 L 4.4375 -9.09375 L 4.4375 -1.75 C 4.4375 -1.238281 4.554688 -0.890625 4.796875 -0.703125 C 5.035156 -0.523438 5.503906 -0.421875 6.203125 -0.390625 L 6.203125 0 L 0.421875 0 L 0.421875 -0.390625 C 1.148438 -0.410156 1.632812 -0.539062 1.875 -0.78125 C 2.125 -1.019531 2.25 -1.5 2.25 -2.21875 L 2.25 -8.8125 C 2.25 -9.4375 2.179688 -9.867188 2.046875 -10.109375 C 1.910156 -10.359375 1.671875 -10.484375 1.328125 -10.484375 C 1.066406 -10.484375 0.789062 -10.445312 0.5 -10.375 L 0.5 -10.828125 C 1.75 -11.171875 2.960938 -11.5625 4.140625 -12 L 4.328125 -11.9375 L 4.328125 -9.984375 C 5.410156 -10.804688 6.210938 -11.347656 6.734375 -11.609375 C 7.253906 -11.867188 7.800781 -12 8.375 -12 C 9.75 -12 10.671875 -11.269531 11.140625 -9.8125 C 12.492188 -11.269531 13.910156 -12 15.390625 -12 C 17.398438 -12 18.40625 -10.453125 18.40625 -7.359375 L 18.40625 -1.984375 C 18.40625 -1.003906 18.78125 -0.488281 19.53125 -0.4375 L 20.203125 -0.390625 Z M 20.203125 0 "/></g></g></g><g fill="#000000" fill-opacity="1"><g transform="translate(141.193661, 204.796177)"><g><path d="M 11.0625 -4.09375 C 9.925781 -1.1875 8.082031 0.265625 5.53125 0.265625 C 4.03125 0.265625 2.84375 -0.257812 1.96875 -1.3125 C 1.09375 -2.363281 0.65625 -3.785156 0.65625 -5.578125 C 0.65625 -7.472656 1.15625 -9.015625 2.15625 -10.203125 C 3.164062 -11.398438 4.484375 -12 6.109375 -12 C 7.492188 -12 8.601562 -11.503906 9.4375 -10.515625 C 10.007812 -9.785156 10.382812 -8.6875 10.5625 -7.21875 L 2.53125 -7.21875 C 2.582031 -5.738281 2.84375 -4.539062 3.3125 -3.625 C 4.0625 -2.226562 5.15625 -1.53125 6.59375 -1.53125 C 7.425781 -1.53125 8.148438 -1.738281 8.765625 -2.15625 C 9.390625 -2.582031 10.015625 -3.289062 10.640625 -4.28125 Z M 7.90625 -8.0625 C 7.726562 -9.1875 7.457031 -9.96875 7.09375 -10.40625 C 6.726562 -10.84375 6.144531 -11.0625 5.34375 -11.0625 C 3.78125 -11.0625 2.859375 -10.0625 2.578125 -8.0625 Z M 7.90625 -8.0625 "/></g></g></g><g fill="#000000" fill-opacity="1"><g transform="translate(152.769744, 204.796177)"><g><path d="M 20.203125 0 L 14.5 0 L 14.5 -0.390625 C 15.257812 -0.472656 15.734375 -0.617188 15.921875 -0.828125 C 16.117188 -1.035156 16.21875 -1.515625 16.21875 -2.265625 L 16.21875 -7.765625 C 16.21875 -8.847656 16.078125 -9.597656 15.796875 -10.015625 C 15.523438 -10.429688 15.015625 -10.640625 14.265625 -10.640625 C 13.117188 -10.640625 12.171875 -10.109375 11.421875 -9.046875 L 11.421875 -2.484375 C 11.421875 -1.660156 11.546875 -1.109375 11.796875 -0.828125 C 12.046875 -0.554688 12.546875 -0.410156 13.296875 -0.390625 L 13.296875 0 L 7.453125 0 L 7.453125 -0.390625 C 8.203125 -0.441406 8.6875 -0.578125 8.90625 -0.796875 C 9.125 -1.023438 9.234375 -1.507812 9.234375 -2.25 L 9.234375 -7.90625 C 9.234375 -9.726562 8.660156 -10.640625 7.515625 -10.640625 C 7.054688 -10.640625 6.570312 -10.539062 6.0625 -10.34375 C 5.5625 -10.144531 5.148438 -9.894531 4.828125 -9.59375 L 4.4375 -9.09375 L 4.4375 -1.75 C 4.4375 -1.238281 4.554688 -0.890625 4.796875 -0.703125 C 5.035156 -0.523438 5.503906 -0.421875 6.203125 -0.390625 L 6.203125 0 L 0.421875 0 L 0.421875 -0.390625 C 1.148438 -0.410156 1.632812 -0.539062 1.875 -0.78125 C 2.125 -1.019531 2.25 -1.5 2.25 -2.21875 L 2.25 -8.8125 C 2.25 -9.4375 2.179688 -9.867188 2.046875 -10.109375 C 1.910156 -10.359375 1.671875 -10.484375 1.328125 -10.484375 C 1.066406 -10.484375 0.789062 -10.445312 0.5 -10.375 L 0.5 -10.828125 C 1.75 -11.171875 2.960938 -11.5625 4.140625 -12 L 4.328125 -11.9375 L 4.328125 -9.984375 C 5.410156 -10.804688 6.210938 -11.347656 6.734375 -11.609375 C 7.253906 -11.867188 7.800781 -12 8.375 -12 C 9.75 -12 10.671875 -11.269531 11.140625 -9.8125 C 12.492188 -11.269531 13.910156 -12 15.390625 -12 C 17.398438 -12 18.40625 -10.453125 18.40625 -7.359375 L 18.40625 -1.984375 C 18.40625 -1.003906 18.78125 -0.488281 19.53125 -0.4375 L 20.203125 -0.390625 Z M 20.203125 0 "/></g></g></g><g fill="#000000" fill-opacity="1"><g transform="translate(173.053972, 204.796177)"><g><path d="M 12.203125 -6.34375 C 12.203125 -4.476562 11.613281 -2.910156 10.4375 -1.640625 C 9.269531 -0.367188 7.828125 0.265625 6.109375 0.265625 C 5.054688 0.265625 4.070312 0.0859375 3.15625 -0.265625 C 2.25 -0.628906 1.796875 -1.007812 1.796875 -1.40625 L 1.796875 -14.9375 C 1.796875 -15.476562 1.710938 -15.832031 1.546875 -16 C 1.378906 -16.175781 1.035156 -16.265625 0.515625 -16.265625 C 0.328125 -16.265625 0.179688 -16.257812 0.078125 -16.25 L 0.078125 -16.65625 L 0.828125 -16.875 C 1.992188 -17.207031 3.003906 -17.519531 3.859375 -17.8125 L 3.984375 -17.765625 L 3.984375 -9.78125 C 4.242188 -10.425781 4.710938 -10.957031 5.390625 -11.375 C 6.078125 -11.789062 6.816406 -12 7.609375 -12 C 8.921875 -12 10.015625 -11.453125 10.890625 -10.359375 C 11.765625 -9.273438 12.203125 -7.9375 12.203125 -6.34375 Z M 9.90625 -5.140625 C 9.90625 -6.722656 9.601562 -7.988281 9 -8.9375 C 8.40625 -9.882812 7.597656 -10.359375 6.578125 -10.359375 C 5.890625 -10.359375 5.285156 -10.15625 4.765625 -9.75 C 4.242188 -9.351562 3.984375 -8.898438 3.984375 -8.390625 L 3.984375 -1.828125 C 3.984375 -1.492188 4.234375 -1.203125 4.734375 -0.953125 C 5.242188 -0.703125 5.835938 -0.578125 6.515625 -0.578125 C 7.597656 -0.578125 8.429688 -0.972656 9.015625 -1.765625 C 9.609375 -2.566406 9.90625 -3.691406 9.90625 -5.140625 Z M 9.90625 -5.140625 "/></g></g></g><g fill="#000000" fill-opacity="1"><g transform="translate(186.090107, 204.796177)"><g><path d="M 11.0625 -4.09375 C 9.925781 -1.1875 8.082031 0.265625 5.53125 0.265625 C 4.03125 0.265625 2.84375 -0.257812 1.96875 -1.3125 C 1.09375 -2.363281 0.65625 -3.785156 0.65625 -5.578125 C 0.65625 -7.472656 1.15625 -9.015625 2.15625 -10.203125 C 3.164062 -11.398438 4.484375 -12 6.109375 -12 C 7.492188 -12 8.601562 -11.503906 9.4375 -10.515625 C 10.007812 -9.785156 10.382812 -8.6875 10.5625 -7.21875 L 2.53125 -7.21875 C 2.582031 -5.738281 2.84375 -4.539062 3.3125 -3.625 C 4.0625 -2.226562 5.15625 -1.53125 6.59375 -1.53125 C 7.425781 -1.53125 8.148438 -1.738281 8.765625 -2.15625 C 9.390625 -2.582031 10.015625 -3.289062 10.640625 -4.28125 Z M 7.90625 -8.0625 C 7.726562 -9.1875 7.457031 -9.96875 7.09375 -10.40625 C 6.726562 -10.84375 6.144531 -11.0625 5.34375 -11.0625 C 3.78125 -11.0625 2.859375 -10.0625 2.578125 -8.0625 Z M 7.90625 -8.0625 "/></g></g></g><g fill="#000000" fill-opacity="1"><g transform="translate(197.66619, 204.796177)"><g><path d="M 8.734375 -10.609375 C 8.734375 -10.242188 8.640625 -9.957031 8.453125 -9.75 C 8.273438 -9.539062 8.03125 -9.4375 7.71875 -9.4375 C 7.425781 -9.4375 7.078125 -9.613281 6.671875 -9.96875 C 6.398438 -10.226562 6.175781 -10.359375 6 -10.359375 C 5.644531 -10.359375 5.25 -10.101562 4.8125 -9.59375 C 4.382812 -9.09375 4.171875 -8.632812 4.171875 -8.21875 L 4.171875 -2.34375 C 4.171875 -1.59375 4.316406 -1.085938 4.609375 -0.828125 C 4.910156 -0.566406 5.503906 -0.421875 6.390625 -0.390625 L 6.390625 0 L 0.125 0 L 0.125 -0.390625 C 0.957031 -0.546875 1.472656 -0.71875 1.671875 -0.90625 C 1.878906 -1.101562 1.984375 -1.53125 1.984375 -2.1875 L 1.984375 -8.703125 C 1.984375 -9.285156 1.914062 -9.691406 1.78125 -9.921875 C 1.65625 -10.160156 1.425781 -10.28125 1.09375 -10.28125 C 0.8125 -10.28125 0.507812 -10.242188 0.1875 -10.171875 L 0.1875 -10.59375 C 1.570312 -11.039062 2.859375 -11.507812 4.046875 -12 L 4.171875 -11.9375 L 4.171875 -9.546875 C 4.816406 -10.460938 5.363281 -11.097656 5.8125 -11.453125 C 6.269531 -11.816406 6.765625 -12 7.296875 -12 C 7.753906 -12 8.109375 -11.875 8.359375 -11.625 C 8.609375 -11.382812 8.734375 -11.046875 8.734375 -10.609375 Z M 8.734375 -10.609375 "/></g></g></g><g fill="#000000" fill-opacity="1"><g transform="translate(206.348261, 204.796177)"><g/></g></g><g fill="#000000" fill-opacity="1"><g transform="translate(212.866336, 204.796177)"><g><path d="M 9.65625 -16.765625 C 8.59375 -16.691406 7.925781 -16.519531 7.65625 -16.25 C 7.382812 -15.988281 7.25 -15.378906 7.25 -14.421875 L 7.25 -4.765625 C 7.25 -3.140625 6.863281 -1.878906 6.09375 -0.984375 C 5.332031 -0.0859375 4.25 0.359375 2.84375 0.359375 C 2.09375 0.359375 1.472656 0.1875 0.984375 -0.15625 C 0.503906 -0.5 0.265625 -0.953125 0.265625 -1.515625 C 0.265625 -1.859375 0.390625 -2.160156 0.640625 -2.421875 C 0.890625 -2.679688 1.1875 -2.8125 1.53125 -2.8125 C 2.175781 -2.8125 2.628906 -2.367188 2.890625 -1.484375 C 2.984375 -1.148438 3.082031 -0.921875 3.1875 -0.796875 C 3.289062 -0.679688 3.425781 -0.625 3.59375 -0.625 C 4.257812 -0.625 4.59375 -1.195312 4.59375 -2.34375 L 4.59375 -14.421875 C 4.59375 -15.378906 4.453125 -15.988281 4.171875 -16.25 C 3.890625 -16.519531 3.222656 -16.691406 2.171875 -16.765625 L 2.171875 -17.265625 L 9.65625 -17.265625 Z M 9.65625 -16.765625 "/></g></g></g><g fill="#000000" fill-opacity="1"><g transform="translate(223.008458, 204.796177)"><g><path d="M 12.25 -6.109375 C 12.25 -4.296875 11.691406 -2.78125 10.578125 -1.5625 C 9.472656 -0.34375 8.101562 0.265625 6.46875 0.265625 C 4.832031 0.265625 3.46875 -0.320312 2.375 -1.5 C 1.289062 -2.675781 0.75 -4.140625 0.75 -5.890625 C 0.75 -7.679688 1.285156 -9.144531 2.359375 -10.28125 C 3.429688 -11.425781 4.816406 -12 6.515625 -12 C 8.179688 -12 9.550781 -11.441406 10.625 -10.328125 C 11.707031 -9.210938 12.25 -7.804688 12.25 -6.109375 Z M 9.90625 -5.1875 C 9.90625 -6.976562 9.554688 -8.4375 8.859375 -9.5625 C 8.171875 -10.695312 7.28125 -11.265625 6.1875 -11.265625 C 5.257812 -11.265625 4.515625 -10.890625 3.953125 -10.140625 C 3.390625 -9.390625 3.109375 -8.398438 3.109375 -7.171875 C 3.109375 -5.242188 3.488281 -3.566406 4.25 -2.140625 C 4.84375 -1.023438 5.6875 -0.46875 6.78125 -0.46875 C 7.75 -0.46875 8.507812 -0.882812 9.0625 -1.71875 C 9.625 -2.550781 9.90625 -3.707031 9.90625 -5.1875 Z M 9.90625 -5.1875 "/></g></g></g><g fill="#000000" fill-opacity="1"><g transform="translate(236.044593, 204.796177)"><g><path d="M 11.0625 -4.09375 C 9.925781 -1.1875 8.082031 0.265625 5.53125 0.265625 C 4.03125 0.265625 2.84375 -0.257812 1.96875 -1.3125 C 1.09375 -2.363281 0.65625 -3.785156 0.65625 -5.578125 C 0.65625 -7.472656 1.15625 -9.015625 2.15625 -10.203125 C 3.164062 -11.398438 4.484375 -12 6.109375 -12 C 7.492188 -12 8.601562 -11.503906 9.4375 -10.515625 C 10.007812 -9.785156 10.382812 -8.6875 10.5625 -7.21875 L 2.53125 -7.21875 C 2.582031 -5.738281 2.84375 -4.539062 3.3125 -3.625 C 4.0625 -2.226562 5.15625 -1.53125 6.59375 -1.53125 C 7.425781 -1.53125 8.148438 -1.738281 8.765625 -2.15625 C 9.390625 -2.582031 10.015625 -3.289062 10.640625 -4.28125 Z M 7.90625 -8.0625 C 7.726562 -9.1875 7.457031 -9.96875 7.09375 -10.40625 C 6.726562 -10.84375 6.144531 -11.0625 5.34375 -11.0625 C 3.78125 -11.0625 2.859375 -10.0625 2.578125 -8.0625 Z M 7.90625 -8.0625 "/></g></g></g><g fill="#000000" fill-opacity="1"><g transform="translate(247.620676, 204.796177)"><g><path d="M 10.796875 -13.59375 C 10.796875 -12.59375 10.40625 -11.492188 9.625 -10.296875 C 9.375 -9.929688 8.851562 -9.265625 8.0625 -8.296875 C 7.1875 -7.179688 6.617188 -5.84375 6.359375 -4.28125 L 5.921875 -4.28125 C 5.953125 -5.476562 6.210938 -6.710938 6.703125 -7.984375 L 7.4375 -9.65625 C 8.070312 -11.125 8.390625 -12.476562 8.390625 -13.71875 C 8.390625 -14.582031 8.113281 -15.316406 7.5625 -15.921875 C 7.019531 -16.535156 6.359375 -16.84375 5.578125 -16.84375 C 4.929688 -16.84375 4.359375 -16.675781 3.859375 -16.34375 C 3.359375 -16.019531 3.109375 -15.648438 3.109375 -15.234375 C 3.109375 -15.035156 3.253906 -14.765625 3.546875 -14.421875 C 3.910156 -14.003906 4.09375 -13.628906 4.09375 -13.296875 C 4.09375 -12.984375 3.992188 -12.726562 3.796875 -12.53125 C 3.597656 -12.332031 3.34375 -12.234375 3.03125 -12.234375 C 2.1875 -12.234375 1.765625 -12.769531 1.765625 -13.84375 C 1.765625 -14.925781 2.171875 -15.828125 2.984375 -16.546875 C 3.796875 -17.265625 4.800781 -17.625 6 -17.625 C 6.707031 -17.625 7.410156 -17.484375 8.109375 -17.203125 C 8.816406 -16.929688 9.398438 -16.566406 9.859375 -16.109375 C 10.484375 -15.484375 10.796875 -14.644531 10.796875 -13.59375 Z M 7.59375 -1.140625 C 7.59375 -0.742188 7.457031 -0.421875 7.1875 -0.171875 C 6.914062 0.078125 6.570312 0.203125 6.15625 0.203125 C 5.769531 0.203125 5.445312 0.078125 5.1875 -0.171875 C 4.925781 -0.421875 4.796875 -0.738281 4.796875 -1.125 C 4.796875 -1.539062 4.925781 -1.882812 5.1875 -2.15625 C 5.445312 -2.4375 5.78125 -2.578125 6.1875 -2.578125 C 6.5625 -2.578125 6.890625 -2.429688 7.171875 -2.140625 C 7.453125 -1.859375 7.59375 -1.523438 7.59375 -1.140625 Z M 7.59375 -1.140625 "/></g></g></g></svg>