<svg xmlns="http://www.w3.org/2000/svg" xmlns:xlink="http://www.w3.org/1999/xlink" width="563" zoomAndPan="magnify" viewBox="0 0 422.25 486.749991" height="649" preserveAspectRatio="xMidYMid meet" version="1.0"><defs><g/><clipPath id="0659d6dcde"><path d="M 75.394531 75.285156 L 346.410156 75.285156 L 346.410156 346.304688 L 75.394531 346.304688 Z M 75.394531 75.285156 " clip-rule="nonzero"/></clipPath></defs><g clip-path="url(#0659d6dcde)"><path fill="#000000" d="M 210.902344 75.285156 C 136.179688 75.285156 75.394531 136.070312 75.394531 210.792969 C 75.394531 252.9375 94.402344 291.847656 127.488281 317.519531 C 146.535156 332.5 169.203125 342.042969 192.878906 345.066406 C 198.746094 345.898438 204.824219 346.304688 210.902344 346.304688 C 216.980469 346.304688 223.058594 345.898438 228.769531 345.085938 C 252.601562 342.042969 275.269531 332.519531 294.277344 317.554688 C 327.421875 291.847656 346.410156 252.917969 346.410156 210.792969 C 346.410156 136.070312 285.605469 75.285156 210.902344 75.285156 Z M 288.335938 297.09375 L 288.335938 283.96875 C 288.335938 265 253.683594 249.511719 210.902344 249.511719 C 168.121094 249.511719 133.46875 265 133.46875 283.96875 L 133.46875 297.09375 C 108.863281 275.199219 94.75 244.246094 94.75 210.792969 C 94.75 146.738281 146.84375 94.644531 210.902344 94.644531 C 274.960938 94.644531 327.054688 146.738281 327.054688 210.792969 C 327.054688 244.226562 312.960938 275.140625 288.335938 297.09375 Z M 288.335938 297.09375 " fill-opacity="1" fill-rule="nonzero"/></g><path fill="#000000" d="M 259.296875 181.757812 C 259.296875 183.339844 259.222656 184.921875 259.066406 186.5 C 258.910156 188.078125 258.679688 189.644531 258.367188 191.199219 C 258.058594 192.753906 257.675781 194.289062 257.214844 195.804688 C 256.753906 197.320312 256.222656 198.8125 255.613281 200.277344 C 255.007812 201.742188 254.332031 203.171875 253.582031 204.570312 C 252.835938 205.96875 252.023438 207.328125 251.140625 208.644531 C 250.261719 209.960938 249.320312 211.234375 248.3125 212.457031 C 247.308594 213.683594 246.246094 214.855469 245.125 215.976562 C 244.003906 217.097656 242.828125 218.160156 241.605469 219.167969 C 240.378906 220.171875 239.109375 221.117188 237.789062 221.996094 C 236.472656 222.878906 235.113281 223.691406 233.714844 224.4375 C 232.316406 225.183594 230.886719 225.863281 229.421875 226.46875 C 227.957031 227.074219 226.46875 227.609375 224.949219 228.070312 C 223.433594 228.527344 221.898438 228.914062 220.34375 229.222656 C 218.789062 229.53125 217.222656 229.765625 215.644531 229.917969 C 214.070312 230.074219 212.488281 230.152344 210.902344 230.152344 C 209.316406 230.152344 207.734375 230.074219 206.160156 229.917969 C 204.582031 229.765625 203.015625 229.53125 201.460938 229.222656 C 199.90625 228.914062 198.371094 228.527344 196.855469 228.070312 C 195.335938 227.609375 193.847656 227.074219 192.382812 226.46875 C 190.917969 225.863281 189.488281 225.183594 188.089844 224.4375 C 186.691406 223.691406 185.332031 222.878906 184.015625 221.996094 C 182.695312 221.117188 181.425781 220.171875 180.199219 219.167969 C 178.976562 218.160156 177.800781 217.097656 176.679688 215.976562 C 175.558594 214.855469 174.496094 213.683594 173.492188 212.457031 C 172.484375 211.234375 171.542969 209.960938 170.664062 208.644531 C 169.78125 207.328125 168.96875 205.96875 168.21875 204.570312 C 167.472656 203.171875 166.796875 201.742188 166.191406 200.277344 C 165.582031 198.8125 165.050781 197.320312 164.589844 195.804688 C 164.128906 194.289062 163.746094 192.753906 163.4375 191.199219 C 163.125 189.644531 162.894531 188.078125 162.738281 186.5 C 162.582031 184.921875 162.507812 183.339844 162.507812 181.757812 C 162.507812 180.171875 162.582031 178.589844 162.738281 177.011719 C 162.894531 175.4375 163.125 173.871094 163.4375 172.316406 C 163.746094 170.761719 164.128906 169.226562 164.589844 167.707031 C 165.050781 166.191406 165.582031 164.699219 166.191406 163.234375 C 166.796875 161.773438 167.472656 160.339844 168.21875 158.941406 C 168.96875 157.546875 169.78125 156.1875 170.664062 154.871094 C 171.542969 153.550781 172.484375 152.28125 173.492188 151.054688 C 174.496094 149.828125 175.558594 148.65625 176.679688 147.535156 C 177.800781 146.414062 178.976562 145.351562 180.199219 144.347656 C 181.425781 143.339844 182.695312 142.398438 184.015625 141.515625 C 185.332031 140.636719 186.691406 139.824219 188.089844 139.074219 C 189.488281 138.328125 190.917969 137.652344 192.382812 137.042969 C 193.847656 136.4375 195.335938 135.90625 196.855469 135.445312 C 198.371094 134.984375 199.90625 134.601562 201.460938 134.289062 C 203.015625 133.980469 204.582031 133.75 206.160156 133.59375 C 207.734375 133.4375 209.316406 133.359375 210.902344 133.359375 C 212.488281 133.359375 214.070312 133.4375 215.644531 133.59375 C 217.222656 133.75 218.789062 133.980469 220.34375 134.289062 C 221.898438 134.601562 223.433594 134.984375 224.949219 135.445312 C 226.46875 135.90625 227.957031 136.4375 229.421875 137.042969 C 230.886719 137.652344 232.316406 138.328125 233.714844 139.074219 C 235.113281 139.824219 236.472656 140.636719 237.789062 141.515625 C 239.109375 142.398438 240.378906 143.339844 241.605469 144.347656 C 242.828125 145.351562 244.003906 146.414062 245.125 147.535156 C 246.246094 148.65625 247.308594 149.828125 248.3125 151.054688 C 249.320312 152.28125 250.261719 153.550781 251.140625 154.871094 C 252.023438 156.1875 252.835938 157.546875 253.582031 158.941406 C 254.332031 160.339844 255.007812 161.773438 255.613281 163.234375 C 256.222656 164.699219 256.753906 166.191406 257.214844 167.707031 C 257.675781 169.226562 258.058594 170.761719 258.367188 172.316406 C 258.679688 173.871094 258.910156 175.4375 259.066406 177.011719 C 259.222656 178.589844 259.296875 180.171875 259.296875 181.757812 Z M 259.296875 181.757812 " fill-opacity="1" fill-rule="nonzero"/><g fill="#000000" fill-opacity="1"><g transform="translate(115.947216, 402.352901)"><g><path d="M 20.8125 -17.265625 L 19.96875 -17.265625 C 19.570312 -19.203125 19.039062 -20.4375 18.375 -20.96875 C 17.707031 -21.5 16.378906 -21.765625 14.390625 -21.765625 L 12.5 -21.765625 L 12.5 -3.828125 C 12.5 -2.535156 12.695312 -1.703125 13.09375 -1.328125 C 13.488281 -0.953125 14.410156 -0.734375 15.859375 -0.671875 L 15.859375 0 L 5.609375 0 L 5.609375 -0.671875 C 7.066406 -0.765625 7.976562 -1.003906 8.34375 -1.390625 C 8.71875 -1.773438 8.90625 -2.71875 8.90625 -4.21875 L 8.90625 -21.765625 L 7.015625 -21.765625 C 5.054688 -21.765625 3.742188 -21.492188 3.078125 -20.953125 C 2.410156 -20.410156 1.863281 -19.179688 1.4375 -17.265625 L 0.59375 -17.265625 L 0.8125 -23.234375 L 20.59375 -23.234375 Z M 20.8125 -17.265625 "/></g></g></g><g fill="#000000" fill-opacity="1"><g transform="translate(137.392075, 402.352901)"><g><path d="M 17.09375 0 L 9.65625 0 L 9.65625 -0.53125 C 10.65625 -0.625 11.300781 -0.859375 11.59375 -1.234375 C 11.882812 -1.609375 12.03125 -2.390625 12.03125 -3.578125 L 12.03125 -10.53125 C 12.03125 -13.007812 11.15625 -14.25 9.40625 -14.25 C 8.726562 -14.25 8.085938 -14.078125 7.484375 -13.734375 C 6.890625 -13.398438 6.234375 -12.832031 5.515625 -12.03125 L 5.515625 -3.578125 C 5.515625 -2.359375 5.65625 -1.570312 5.9375 -1.21875 C 6.21875 -0.875 6.867188 -0.644531 7.890625 -0.53125 L 7.890625 0 L 0.3125 0 L 0.3125 -0.53125 C 1.320312 -0.664062 1.945312 -0.894531 2.1875 -1.21875 C 2.4375 -1.550781 2.5625 -2.335938 2.5625 -3.578125 L 2.5625 -20.109375 C 2.5625 -20.859375 2.445312 -21.34375 2.21875 -21.5625 C 2 -21.789062 1.515625 -21.90625 0.765625 -21.90625 C 0.578125 -21.90625 0.4375 -21.890625 0.34375 -21.859375 L 0.34375 -22.421875 L 1.296875 -22.703125 C 2.890625 -23.148438 4.234375 -23.570312 5.328125 -23.96875 L 5.515625 -23.859375 L 5.515625 -13.1875 C 6.328125 -14.25 7.128906 -15.003906 7.921875 -15.453125 C 8.722656 -15.910156 9.640625 -16.140625 10.671875 -16.140625 C 13.546875 -16.140625 14.984375 -14.28125 14.984375 -10.5625 L 14.984375 -3.578125 C 14.984375 -2.359375 15.09375 -1.59375 15.3125 -1.28125 C 15.539062 -0.96875 16.132812 -0.71875 17.09375 -0.53125 Z M 17.09375 0 "/></g></g></g><g fill="#000000" fill-opacity="1"><g transform="translate(154.941052, 402.352901)"><g><path d="M 8.875 0 L 0.5625 0 L 0.5625 -0.53125 C 1.78125 -0.59375 2.546875 -0.800781 2.859375 -1.15625 C 3.171875 -1.507812 3.328125 -2.316406 3.328125 -3.578125 L 3.328125 -11.71875 C 3.328125 -12.488281 3.238281 -13.03125 3.0625 -13.34375 C 2.894531 -13.664062 2.597656 -13.828125 2.171875 -13.828125 C 1.796875 -13.828125 1.398438 -13.789062 0.984375 -13.71875 L 0.703125 -13.6875 L 0.703125 -14.21875 L 6.140625 -16.140625 L 6.28125 -16.03125 L 6.28125 -3.578125 C 6.28125 -2.316406 6.425781 -1.515625 6.71875 -1.171875 C 7.007812 -0.835938 7.726562 -0.625 8.875 -0.53125 Z M 6.59375 -20.703125 C 6.59375 -20.191406 6.421875 -19.765625 6.078125 -19.421875 C 5.742188 -19.085938 5.320312 -18.921875 4.8125 -18.921875 C 4.320312 -18.921875 3.898438 -19.085938 3.546875 -19.421875 C 3.191406 -19.765625 3.015625 -20.191406 3.015625 -20.703125 C 3.015625 -21.191406 3.191406 -21.613281 3.546875 -21.96875 C 3.898438 -22.320312 4.320312 -22.5 4.8125 -22.5 C 5.320312 -22.5 5.742188 -22.320312 6.078125 -21.96875 C 6.421875 -21.613281 6.59375 -21.191406 6.59375 -20.703125 Z M 6.59375 -20.703125 "/></g></g></g><g fill="#000000" fill-opacity="1"><g transform="translate(164.698287, 402.352901)"><g><path d="M 12.21875 -4.140625 C 12.21875 -2.921875 11.726562 -1.867188 10.75 -0.984375 C 9.78125 -0.0976562 8.628906 0.34375 7.296875 0.34375 C 6.671875 0.34375 5.804688 0.226562 4.703125 0 C 3.953125 -0.1875 3.414062 -0.28125 3.09375 -0.28125 C 2.738281 -0.28125 2.46875 -0.140625 2.28125 0.140625 L 1.828125 0.140625 L 1.828125 -5.328125 L 2.390625 -5.328125 C 2.785156 -3.554688 3.320312 -2.296875 4 -1.546875 C 4.675781 -0.796875 5.625 -0.421875 6.84375 -0.421875 C 7.726562 -0.421875 8.429688 -0.648438 8.953125 -1.109375 C 9.484375 -1.566406 9.75 -2.179688 9.75 -2.953125 C 9.75 -4.003906 9.144531 -4.878906 7.9375 -5.578125 L 5.890625 -6.734375 C 4.398438 -7.597656 3.34375 -8.410156 2.71875 -9.171875 C 2.101562 -9.929688 1.796875 -10.804688 1.796875 -11.796875 C 1.796875 -13.078125 2.242188 -14.113281 3.140625 -14.90625 C 4.035156 -15.707031 5.195312 -16.109375 6.625 -16.109375 C 7.5 -16.109375 8.296875 -15.96875 9.015625 -15.6875 C 9.367188 -15.519531 9.6875 -15.4375 9.96875 -15.4375 C 10.0625 -15.4375 10.222656 -15.53125 10.453125 -15.71875 L 10.53125 -15.796875 L 10.921875 -15.796875 L 11.046875 -11.015625 L 10.53125 -11.015625 C 10.132812 -12.585938 9.640625 -13.703125 9.046875 -14.359375 C 8.460938 -15.015625 7.671875 -15.34375 6.671875 -15.34375 C 5.847656 -15.34375 5.191406 -15.125 4.703125 -14.6875 C 4.210938 -14.25 3.96875 -13.671875 3.96875 -12.953125 C 3.96875 -11.941406 4.46875 -11.144531 5.46875 -10.5625 L 9.265625 -8.3125 C 10.335938 -7.6875 11.097656 -7.054688 11.546875 -6.421875 C 11.992188 -5.785156 12.21875 -5.023438 12.21875 -4.140625 Z M 12.21875 -4.140625 "/></g></g></g><g fill="#000000" fill-opacity="1"><g transform="translate(178.351403, 402.352901)"><g/></g></g><g fill="#000000" fill-opacity="1"><g transform="translate(187.125902, 402.352901)"><g><path d="M 8.875 0 L 0.5625 0 L 0.5625 -0.53125 C 1.78125 -0.59375 2.546875 -0.800781 2.859375 -1.15625 C 3.171875 -1.507812 3.328125 -2.316406 3.328125 -3.578125 L 3.328125 -11.71875 C 3.328125 -12.488281 3.238281 -13.03125 3.0625 -13.34375 C 2.894531 -13.664062 2.597656 -13.828125 2.171875 -13.828125 C 1.796875 -13.828125 1.398438 -13.789062 0.984375 -13.71875 L 0.703125 -13.6875 L 0.703125 -14.21875 L 6.140625 -16.140625 L 6.28125 -16.03125 L 6.28125 -3.578125 C 6.28125 -2.316406 6.425781 -1.515625 6.71875 -1.171875 C 7.007812 -0.835938 7.726562 -0.625 8.875 -0.53125 Z M 6.59375 -20.703125 C 6.59375 -20.191406 6.421875 -19.765625 6.078125 -19.421875 C 5.742188 -19.085938 5.320312 -18.921875 4.8125 -18.921875 C 4.320312 -18.921875 3.898438 -19.085938 3.546875 -19.421875 C 3.191406 -19.765625 3.015625 -20.191406 3.015625 -20.703125 C 3.015625 -21.191406 3.191406 -21.613281 3.546875 -21.96875 C 3.898438 -22.320312 4.320312 -22.5 4.8125 -22.5 C 5.320312 -22.5 5.742188 -22.320312 6.078125 -21.96875 C 6.421875 -21.613281 6.59375 -21.191406 6.59375 -20.703125 Z M 6.59375 -20.703125 "/></g></g></g><g fill="#000000" fill-opacity="1"><g transform="translate(196.883136, 402.352901)"><g><path d="M 12.21875 -4.140625 C 12.21875 -2.921875 11.726562 -1.867188 10.75 -0.984375 C 9.78125 -0.0976562 8.628906 0.34375 7.296875 0.34375 C 6.671875 0.34375 5.804688 0.226562 4.703125 0 C 3.953125 -0.1875 3.414062 -0.28125 3.09375 -0.28125 C 2.738281 -0.28125 2.46875 -0.140625 2.28125 0.140625 L 1.828125 0.140625 L 1.828125 -5.328125 L 2.390625 -5.328125 C 2.785156 -3.554688 3.320312 -2.296875 4 -1.546875 C 4.675781 -0.796875 5.625 -0.421875 6.84375 -0.421875 C 7.726562 -0.421875 8.429688 -0.648438 8.953125 -1.109375 C 9.484375 -1.566406 9.75 -2.179688 9.75 -2.953125 C 9.75 -4.003906 9.144531 -4.878906 7.9375 -5.578125 L 5.890625 -6.734375 C 4.398438 -7.597656 3.34375 -8.410156 2.71875 -9.171875 C 2.101562 -9.929688 1.796875 -10.804688 1.796875 -11.796875 C 1.796875 -13.078125 2.242188 -14.113281 3.140625 -14.90625 C 4.035156 -15.707031 5.195312 -16.109375 6.625 -16.109375 C 7.5 -16.109375 8.296875 -15.96875 9.015625 -15.6875 C 9.367188 -15.519531 9.6875 -15.4375 9.96875 -15.4375 C 10.0625 -15.4375 10.222656 -15.53125 10.453125 -15.71875 L 10.53125 -15.796875 L 10.921875 -15.796875 L 11.046875 -11.015625 L 10.53125 -11.015625 C 10.132812 -12.585938 9.640625 -13.703125 9.046875 -14.359375 C 8.460938 -15.015625 7.671875 -15.34375 6.671875 -15.34375 C 5.847656 -15.34375 5.191406 -15.125 4.703125 -14.6875 C 4.210938 -14.25 3.96875 -13.671875 3.96875 -12.953125 C 3.96875 -11.941406 4.46875 -11.144531 5.46875 -10.5625 L 9.265625 -8.3125 C 10.335938 -7.6875 11.097656 -7.054688 11.546875 -6.421875 C 11.992188 -5.785156 12.21875 -5.023438 12.21875 -4.140625 Z M 12.21875 -4.140625 "/></g></g></g><g fill="#000000" fill-opacity="1"><g transform="translate(210.536252, 402.352901)"><g/></g></g><g fill="#000000" fill-opacity="1"><g transform="translate(219.310752, 402.352901)"><g><path d="M 17.234375 -5.890625 C 17.234375 -4.085938 16.546875 -2.570312 15.171875 -1.34375 C 13.804688 -0.125 12.109375 0.484375 10.078125 0.484375 C 8.671875 0.484375 7.289062 0.21875 5.9375 -0.3125 C 5.226562 -0.570312 4.675781 -0.703125 4.28125 -0.703125 C 4.019531 -0.703125 3.796875 -0.585938 3.609375 -0.359375 C 3.421875 -0.140625 3.316406 0.128906 3.296875 0.453125 L 2.53125 0.453125 L 1.46875 -6.984375 L 2.28125 -6.984375 C 3.164062 -4.828125 4.175781 -3.25 5.3125 -2.25 C 6.445312 -1.257812 7.800781 -0.765625 9.375 -0.765625 C 10.65625 -0.765625 11.691406 -1.128906 12.484375 -1.859375 C 13.285156 -2.585938 13.6875 -3.535156 13.6875 -4.703125 C 13.6875 -5.566406 13.519531 -6.253906 13.1875 -6.765625 C 12.320312 -8.078125 10.582031 -9.445312 7.96875 -10.875 C 6 -11.90625 4.59375 -12.945312 3.75 -14 C 2.90625 -15.050781 2.484375 -16.28125 2.484375 -17.6875 C 2.484375 -19.601562 3.164062 -21.125 4.53125 -22.25 C 5.75 -23.226562 7.070312 -23.71875 8.5 -23.71875 C 9.664062 -23.71875 10.925781 -23.460938 12.28125 -22.953125 C 12.914062 -22.671875 13.429688 -22.53125 13.828125 -22.53125 C 14.429688 -22.53125 14.804688 -22.925781 14.953125 -23.71875 L 15.6875 -23.71875 L 16.453125 -16.25 L 15.578125 -16.25 C 15.109375 -18 14.394531 -19.367188 13.4375 -20.359375 C 12.195312 -21.640625 10.769531 -22.28125 9.15625 -22.28125 C 8.0625 -22.28125 7.179688 -21.984375 6.515625 -21.390625 C 5.847656 -20.796875 5.515625 -20.015625 5.515625 -19.046875 C 5.515625 -18.085938 5.910156 -17.1875 6.703125 -16.34375 C 7.492188 -15.507812 8.816406 -14.585938 10.671875 -13.578125 C 12.984375 -12.316406 14.65625 -11.082031 15.6875 -9.875 C 16.71875 -8.675781 17.234375 -7.347656 17.234375 -5.890625 Z M 17.234375 -5.890625 "/></g></g></g><g fill="#000000" fill-opacity="1"><g transform="translate(238.82522, 402.352901)"><g><path d="M 15.515625 -1.40625 C 14.898438 -0.726562 14.363281 -0.265625 13.90625 -0.015625 C 13.457031 0.222656 12.941406 0.34375 12.359375 0.34375 C 11.628906 0.34375 11.09375 0.148438 10.75 -0.234375 C 10.414062 -0.617188 10.203125 -1.273438 10.109375 -2.203125 C 8.097656 -0.503906 6.390625 0.34375 4.984375 0.34375 C 3.910156 0.34375 3.023438 -0.00390625 2.328125 -0.703125 C 1.640625 -1.398438 1.296875 -2.300781 1.296875 -3.40625 C 1.296875 -4.664062 1.71875 -5.679688 2.5625 -6.453125 C 3.3125 -7.109375 4.066406 -7.628906 4.828125 -8.015625 C 5.585938 -8.398438 7.335938 -9.144531 10.078125 -10.25 L 10.078125 -12.390625 C 10.078125 -14.328125 9.1875 -15.296875 7.40625 -15.296875 C 6.707031 -15.296875 6.109375 -15.125 5.609375 -14.78125 C 5.117188 -14.445312 4.875 -14.046875 4.875 -13.578125 C 4.875 -13.316406 4.910156 -13.035156 4.984375 -12.734375 C 5.023438 -12.410156 5.046875 -12.222656 5.046875 -12.171875 C 5.046875 -11.773438 4.890625 -11.429688 4.578125 -11.140625 C 4.265625 -10.847656 3.894531 -10.703125 3.46875 -10.703125 C 3.050781 -10.703125 2.695312 -10.851562 2.40625 -11.15625 C 2.113281 -11.457031 1.96875 -11.8125 1.96875 -12.21875 C 1.96875 -13.175781 2.445312 -14.050781 3.40625 -14.84375 C 4.457031 -15.707031 5.941406 -16.140625 7.859375 -16.140625 C 10.035156 -16.140625 11.5 -15.460938 12.25 -14.109375 C 12.695312 -13.378906 12.921875 -12.1875 12.921875 -10.53125 L 12.921875 -3.6875 C 12.921875 -2.914062 12.992188 -2.382812 13.140625 -2.09375 C 13.296875 -1.800781 13.570312 -1.65625 13.96875 -1.65625 C 14.457031 -1.65625 14.972656 -1.875 15.515625 -2.3125 Z M 10.078125 -4.3125 L 10.078125 -9.40625 C 7.960938 -8.632812 6.484375 -7.882812 5.640625 -7.15625 C 4.804688 -6.4375 4.390625 -5.5625 4.390625 -4.53125 L 4.390625 -4.390625 C 4.390625 -3.640625 4.601562 -3 5.03125 -2.46875 C 5.46875 -1.945312 5.988281 -1.6875 6.59375 -1.6875 C 7.414062 -1.6875 8.269531 -1.941406 9.15625 -2.453125 C 9.53125 -2.691406 9.773438 -2.925781 9.890625 -3.15625 C 10.015625 -3.394531 10.078125 -3.78125 10.078125 -4.3125 Z M 10.078125 -4.3125 "/></g></g></g><g fill="#000000" fill-opacity="1"><g transform="translate(254.408706, 402.352901)"><g><path d="M 9.015625 0 L 0.734375 0 L 0.734375 -0.53125 C 1.835938 -0.625 2.5625 -0.832031 2.90625 -1.15625 C 3.257812 -1.488281 3.4375 -2.117188 3.4375 -3.046875 L 3.4375 -19.796875 C 3.4375 -20.609375 3.332031 -21.164062 3.125 -21.46875 C 2.914062 -21.78125 2.53125 -21.9375 1.96875 -21.9375 C 1.757812 -21.9375 1.394531 -21.910156 0.875 -21.859375 L 0.671875 -21.859375 L 0.671875 -22.421875 C 2.984375 -22.984375 4.84375 -23.5 6.25 -23.96875 L 6.390625 -23.90625 L 6.390625 -2.953125 C 6.390625 -1.992188 6.546875 -1.363281 6.859375 -1.0625 C 7.171875 -0.769531 7.890625 -0.59375 9.015625 -0.53125 Z M 9.015625 0 "/></g></g></g><g fill="#000000" fill-opacity="1"><g transform="translate(264.16594, 402.352901)"><g><path d="M 9.015625 0 L 0.734375 0 L 0.734375 -0.53125 C 1.835938 -0.625 2.5625 -0.832031 2.90625 -1.15625 C 3.257812 -1.488281 3.4375 -2.117188 3.4375 -3.046875 L 3.4375 -19.796875 C 3.4375 -20.609375 3.332031 -21.164062 3.125 -21.46875 C 2.914062 -21.78125 2.53125 -21.9375 1.96875 -21.9375 C 1.757812 -21.9375 1.394531 -21.910156 0.875 -21.859375 L 0.671875 -21.859375 L 0.671875 -22.421875 C 2.984375 -22.984375 4.84375 -23.5 6.25 -23.96875 L 6.390625 -23.90625 L 6.390625 -2.953125 C 6.390625 -1.992188 6.546875 -1.363281 6.859375 -1.0625 C 7.171875 -0.769531 7.890625 -0.59375 9.015625 -0.53125 Z M 9.015625 0 "/></g></g></g><g fill="#000000" fill-opacity="1"><g transform="translate(273.923175, 402.352901)"><g><path d="M 16.671875 -15.265625 C 16.242188 -15.222656 15.914062 -15.085938 15.6875 -14.859375 C 15.457031 -14.640625 15.222656 -14.25 14.984375 -13.6875 L 9.578125 0.625 C 8.640625 3.15625 7.707031 4.957031 6.78125 6.03125 C 5.863281 7.113281 4.820312 7.65625 3.65625 7.65625 C 2.90625 7.65625 2.28125 7.460938 1.78125 7.078125 C 1.289062 6.691406 1.046875 6.203125 1.046875 5.609375 C 1.046875 5.191406 1.195312 4.832031 1.5 4.53125 C 1.8125 4.226562 2.164062 4.078125 2.5625 4.078125 C 3.101562 4.078125 3.722656 4.203125 4.421875 4.453125 C 4.742188 4.617188 5.035156 4.703125 5.296875 4.703125 C 5.554688 4.703125 5.851562 4.550781 6.1875 4.25 C 6.53125 3.945312 6.816406 3.570312 7.046875 3.125 C 7.359375 2.601562 7.671875 1.90625 7.984375 1.03125 C 8.296875 0.15625 8.453125 -0.410156 8.453125 -0.671875 C 8.453125 -0.898438 8.328125 -1.332031 8.078125 -1.96875 L 2.28125 -14.171875 C 2 -14.785156 1.398438 -15.160156 0.484375 -15.296875 L 0.484375 -15.796875 L 7.71875 -15.796875 L 7.71875 -15.265625 C 6.96875 -15.242188 6.441406 -15.160156 6.140625 -15.015625 C 5.835938 -14.878906 5.6875 -14.644531 5.6875 -14.3125 C 5.6875 -13.96875 5.800781 -13.523438 6.03125 -12.984375 L 10.078125 -4.109375 L 13.46875 -13.796875 C 13.5625 -14.003906 13.609375 -14.203125 13.609375 -14.390625 C 13.609375 -14.972656 13.050781 -15.265625 11.9375 -15.265625 L 11.9375 -15.796875 L 16.671875 -15.796875 Z M 16.671875 -15.265625 "/></g></g></g></svg>