<svg xmlns="http://www.w3.org/2000/svg" xmlns:xlink="http://www.w3.org/1999/xlink" width="793" zoomAndPan="magnify" viewBox="0 0 594.75 584.249965" height="779" preserveAspectRatio="xMidYMid meet" version="1.0"><defs><g/><clipPath id="bd9620cbf3"><path d="M 157.898438 75.257812 L 429.164062 75.257812 L 429.164062 346.523438 L 157.898438 346.523438 Z M 157.898438 75.257812 " clip-rule="nonzero"/></clipPath><clipPath id="7090f040e6"><path d="M 257 198 L 329 198 L 329 214 L 257 214 Z M 257 198 " clip-rule="nonzero"/></clipPath><clipPath id="26f17a8736"><path d="M 272.878906 180.894531 L 329.859375 209.359375 L 314.121094 240.867188 L 257.140625 212.402344 Z M 272.878906 180.894531 " clip-rule="nonzero"/></clipPath><clipPath id="4cd4ec70d7"><path d="M 272.878906 180.894531 L 329.859375 209.359375 L 314.121094 240.867188 L 257.140625 212.402344 Z M 272.878906 180.894531 " clip-rule="nonzero"/></clipPath></defs><g clip-path="url(#bd9620cbf3)"><path fill="#000000" d="M 293.53125 75.257812 C 218.738281 75.257812 157.898438 136.097656 157.898438 210.890625 C 157.898438 253.070312 176.925781 292.019531 210.039062 317.710938 C 229.105469 332.707031 251.796875 342.261719 275.492188 345.28125 C 281.363281 346.117188 287.449219 346.523438 293.53125 346.523438 C 299.617188 346.523438 305.699219 346.117188 311.414062 345.300781 C 335.269531 342.261719 357.957031 332.726562 376.984375 317.75 C 410.15625 292.019531 429.164062 253.050781 429.164062 210.890625 C 429.164062 136.097656 368.304688 75.257812 293.53125 75.257812 Z M 371.035156 297.269531 L 371.035156 284.132812 C 371.035156 265.144531 336.351562 249.640625 293.53125 249.640625 C 250.710938 249.640625 216.027344 265.144531 216.027344 284.132812 L 216.027344 297.269531 C 191.398438 275.355469 177.273438 244.371094 177.273438 210.890625 C 177.273438 146.773438 229.414062 94.632812 293.53125 94.632812 C 357.648438 94.632812 409.789062 146.773438 409.789062 210.890625 C 409.789062 244.351562 395.683594 275.296875 371.035156 297.269531 Z M 371.035156 297.269531 " fill-opacity="1" fill-rule="nonzero"/></g><path fill="#000000" d="M 341.972656 181.824219 C 341.972656 183.414062 341.894531 184.996094 341.738281 186.574219 C 341.582031 188.152344 341.351562 189.71875 341.042969 191.277344 C 340.730469 192.832031 340.347656 194.367188 339.886719 195.886719 C 339.425781 197.40625 338.890625 198.898438 338.285156 200.363281 C 337.675781 201.828125 337 203.261719 336.253906 204.660156 C 335.503906 206.058594 334.691406 207.417969 333.808594 208.738281 C 332.925781 210.058594 331.984375 211.328125 330.976562 212.554688 C 329.96875 213.78125 328.90625 214.957031 327.785156 216.078125 C 326.664062 217.199219 325.488281 218.265625 324.261719 219.269531 C 323.035156 220.277344 321.761719 221.222656 320.445312 222.101562 C 319.125 222.984375 317.765625 223.796875 316.367188 224.546875 C 314.96875 225.292969 313.535156 225.972656 312.070312 226.578125 C 310.601562 227.1875 309.109375 227.71875 307.59375 228.179688 C 306.074219 228.640625 304.539062 229.027344 302.980469 229.335938 C 301.425781 229.644531 299.859375 229.878906 298.28125 230.03125 C 296.699219 230.1875 295.117188 230.265625 293.53125 230.265625 C 291.945312 230.265625 290.363281 230.1875 288.785156 230.03125 C 287.203125 229.878906 285.636719 229.644531 284.082031 229.335938 C 282.523438 229.027344 280.988281 228.640625 279.46875 228.179688 C 277.953125 227.71875 276.460938 227.1875 274.996094 226.578125 C 273.527344 225.972656 272.097656 225.292969 270.695312 224.546875 C 269.296875 223.796875 267.9375 222.984375 266.621094 222.101562 C 265.300781 221.222656 264.027344 220.277344 262.800781 219.269531 C 261.574219 218.265625 260.402344 217.199219 259.277344 216.078125 C 258.15625 214.957031 257.09375 213.78125 256.085938 212.554688 C 255.082031 211.328125 254.136719 210.058594 253.253906 208.738281 C 252.375 207.417969 251.558594 206.058594 250.8125 204.660156 C 250.0625 203.261719 249.386719 201.828125 248.777344 200.363281 C 248.171875 198.898438 247.636719 197.40625 247.175781 195.886719 C 246.714844 194.367188 246.332031 192.832031 246.023438 191.277344 C 245.710938 189.71875 245.480469 188.152344 245.324219 186.574219 C 245.167969 184.996094 245.089844 183.414062 245.089844 181.824219 C 245.089844 180.238281 245.167969 178.65625 245.324219 177.078125 C 245.480469 175.5 245.710938 173.929688 246.023438 172.375 C 246.332031 170.820312 246.714844 169.28125 247.175781 167.765625 C 247.636719 166.246094 248.171875 164.753906 248.777344 163.289062 C 249.386719 161.824219 250.0625 160.390625 250.8125 158.992188 C 251.558594 157.59375 252.375 156.234375 253.253906 154.914062 C 254.136719 153.59375 255.082031 152.320312 256.085938 151.09375 C 257.09375 149.871094 258.15625 148.695312 259.277344 147.574219 C 260.402344 146.453125 261.574219 145.386719 262.800781 144.378906 C 264.027344 143.375 265.300781 142.429688 266.621094 141.550781 C 267.9375 140.667969 269.296875 139.851562 270.695312 139.105469 C 272.097656 138.355469 273.527344 137.679688 274.996094 137.074219 C 276.460938 136.464844 277.953125 135.933594 279.46875 135.472656 C 280.988281 135.011719 282.523438 134.625 284.082031 134.316406 C 285.636719 134.007812 287.203125 133.773438 288.785156 133.617188 C 290.363281 133.464844 291.945312 133.386719 293.53125 133.386719 C 295.117188 133.386719 296.699219 133.464844 298.28125 133.617188 C 299.859375 133.773438 301.425781 134.007812 302.980469 134.316406 C 304.539062 134.625 306.074219 135.011719 307.59375 135.472656 C 309.109375 135.933594 310.601562 136.464844 312.070312 137.074219 C 313.535156 137.679688 314.96875 138.355469 316.367188 139.105469 C 317.765625 139.851562 319.125 140.667969 320.445312 141.550781 C 321.761719 142.429688 323.035156 143.375 324.261719 144.378906 C 325.488281 145.386719 326.664062 146.453125 327.785156 147.574219 C 328.90625 148.695312 329.96875 149.871094 330.976562 151.09375 C 331.984375 152.320312 332.925781 153.59375 333.808594 154.914062 C 334.691406 156.234375 335.503906 157.59375 336.253906 158.992188 C 337 160.390625 337.675781 161.824219 338.285156 163.289062 C 338.890625 164.753906 339.425781 166.246094 339.886719 167.765625 C 340.347656 169.28125 340.730469 170.820312 341.042969 172.375 C 341.351562 173.929688 341.582031 175.5 341.738281 177.078125 C 341.894531 178.65625 341.972656 180.238281 341.972656 181.824219 Z M 341.972656 181.824219 " fill-opacity="1" fill-rule="nonzero"/><g clip-path="url(#7090f040e6)"><g clip-path="url(#26f17a8736)"><g clip-path="url(#4cd4ec70d7)"><path fill="#ffffff" d="M 258.066406 212.824219 C 257.914062 212.746094 257.789062 212.636719 257.691406 212.492188 C 257.597656 212.351562 257.542969 212.191406 257.53125 212.019531 C 257.515625 211.851562 257.546875 211.6875 257.621094 211.53125 C 257.695312 211.375 257.800781 211.25 257.941406 211.148438 C 266.890625 204.84375 276.136719 200.933594 285.414062 199.535156 C 292.917969 198.398438 300.316406 198.875 307.613281 200.964844 C 320.019531 204.488281 327.507812 211.308594 327.824219 211.601562 C 328.023438 211.78125 328.128906 212.007812 328.136719 212.277344 C 328.148438 212.550781 328.0625 212.78125 327.878906 212.980469 C 327.695312 213.179688 327.46875 213.285156 327.199219 213.292969 C 326.929688 213.304688 326.695312 213.21875 326.496094 213.035156 C 326.398438 212.945312 318.960938 206.199219 307 202.824219 C 295.972656 199.710938 278.710938 198.910156 259.070312 212.75 C 258.75 212.972656 258.414062 212.996094 258.066406 212.824219 Z M 258.066406 212.824219 " fill-opacity="1" fill-rule="nonzero"/></g></g></g><g fill="#000000" fill-opacity="1"><g transform="translate(77.508406, 402.623159)"><g><path d="M 17.25 -5.90625 C 17.25 -4.101562 16.5625 -2.585938 15.1875 -1.359375 C 13.820312 -0.128906 12.117188 0.484375 10.078125 0.484375 C 8.671875 0.484375 7.289062 0.21875 5.9375 -0.3125 C 5.226562 -0.570312 4.675781 -0.703125 4.28125 -0.703125 C 4.03125 -0.703125 3.8125 -0.585938 3.625 -0.359375 C 3.4375 -0.140625 3.328125 0.128906 3.296875 0.453125 L 2.53125 0.453125 L 1.46875 -6.984375 L 2.28125 -6.984375 C 3.175781 -4.835938 4.191406 -3.265625 5.328125 -2.265625 C 6.460938 -1.265625 7.8125 -0.765625 9.375 -0.765625 C 10.664062 -0.765625 11.707031 -1.128906 12.5 -1.859375 C 13.300781 -2.585938 13.703125 -3.535156 13.703125 -4.703125 C 13.703125 -5.566406 13.535156 -6.257812 13.203125 -6.78125 C 12.335938 -8.09375 10.59375 -9.460938 7.96875 -10.890625 C 6 -11.921875 4.59375 -12.960938 3.75 -14.015625 C 2.914062 -15.066406 2.5 -16.296875 2.5 -17.703125 C 2.5 -19.617188 3.175781 -21.140625 4.53125 -22.265625 C 5.75 -23.253906 7.070312 -23.75 8.5 -23.75 C 9.664062 -23.75 10.929688 -23.488281 12.296875 -22.96875 C 12.921875 -22.6875 13.4375 -22.546875 13.84375 -22.546875 C 14.445312 -22.546875 14.820312 -22.945312 14.96875 -23.75 L 15.703125 -23.75 L 16.46875 -16.265625 L 15.59375 -16.265625 C 15.125 -18.015625 14.410156 -19.382812 13.453125 -20.375 C 12.210938 -21.65625 10.785156 -22.296875 9.171875 -22.296875 C 8.066406 -22.296875 7.179688 -22 6.515625 -21.40625 C 5.847656 -20.8125 5.515625 -20.03125 5.515625 -19.0625 C 5.515625 -18.101562 5.910156 -17.203125 6.703125 -16.359375 C 7.503906 -15.523438 8.828125 -14.601562 10.671875 -13.59375 C 12.992188 -12.332031 14.671875 -11.097656 15.703125 -9.890625 C 16.734375 -8.679688 17.25 -7.351562 17.25 -5.90625 Z M 17.25 -5.90625 "/></g></g></g><g fill="#000000" fill-opacity="1"><g transform="translate(97.040677, 402.623159)"><g><path d="M 15.53125 -1.40625 C 14.914062 -0.726562 14.378906 -0.265625 13.921875 -0.015625 C 13.460938 0.222656 12.941406 0.34375 12.359375 0.34375 C 11.640625 0.34375 11.109375 0.148438 10.765625 -0.234375 C 10.421875 -0.617188 10.203125 -1.28125 10.109375 -2.21875 C 8.097656 -0.507812 6.390625 0.34375 4.984375 0.34375 C 3.910156 0.34375 3.023438 -0.00390625 2.328125 -0.703125 C 1.640625 -1.398438 1.296875 -2.300781 1.296875 -3.40625 C 1.296875 -4.664062 1.71875 -5.6875 2.5625 -6.46875 C 3.3125 -7.125 4.066406 -7.644531 4.828125 -8.03125 C 5.585938 -8.414062 7.335938 -9.15625 10.078125 -10.25 L 10.078125 -12.40625 C 10.078125 -14.34375 9.1875 -15.3125 7.40625 -15.3125 C 6.707031 -15.3125 6.109375 -15.140625 5.609375 -14.796875 C 5.117188 -14.460938 4.875 -14.0625 4.875 -13.59375 C 4.875 -13.332031 4.910156 -13.050781 4.984375 -12.75 C 5.035156 -12.425781 5.0625 -12.238281 5.0625 -12.1875 C 5.0625 -11.789062 4.898438 -11.445312 4.578125 -11.15625 C 4.265625 -10.863281 3.894531 -10.71875 3.46875 -10.71875 C 3.050781 -10.71875 2.695312 -10.867188 2.40625 -11.171875 C 2.113281 -11.472656 1.96875 -11.820312 1.96875 -12.21875 C 1.96875 -13.175781 2.445312 -14.054688 3.40625 -14.859375 C 4.457031 -15.722656 5.945312 -16.15625 7.875 -16.15625 C 10.050781 -16.15625 11.515625 -15.476562 12.265625 -14.125 C 12.703125 -13.394531 12.921875 -12.195312 12.921875 -10.53125 L 12.921875 -3.6875 C 12.921875 -2.914062 12.992188 -2.382812 13.140625 -2.09375 C 13.296875 -1.800781 13.578125 -1.65625 13.984375 -1.65625 C 14.472656 -1.65625 14.988281 -1.875 15.53125 -2.3125 Z M 10.078125 -4.328125 L 10.078125 -9.40625 C 7.972656 -8.632812 6.5 -7.882812 5.65625 -7.15625 C 4.8125 -6.4375 4.390625 -5.5625 4.390625 -4.53125 L 4.390625 -4.390625 C 4.390625 -3.640625 4.601562 -3 5.03125 -2.46875 C 5.46875 -1.945312 5.992188 -1.6875 6.609375 -1.6875 C 7.421875 -1.6875 8.273438 -1.941406 9.171875 -2.453125 C 9.546875 -2.691406 9.789062 -2.925781 9.90625 -3.15625 C 10.019531 -3.394531 10.078125 -3.785156 10.078125 -4.328125 Z M 10.078125 -4.328125 "/></g></g></g><g fill="#000000" fill-opacity="1"><g transform="translate(112.63838, 402.623159)"><g><path d="M 9.03125 0 L 0.734375 0 L 0.734375 -0.53125 C 1.835938 -0.625 2.5625 -0.832031 2.90625 -1.15625 C 3.257812 -1.488281 3.4375 -2.125 3.4375 -3.0625 L 3.4375 -19.8125 C 3.4375 -20.632812 3.332031 -21.195312 3.125 -21.5 C 2.914062 -21.800781 2.53125 -21.953125 1.96875 -21.953125 C 1.757812 -21.953125 1.394531 -21.929688 0.875 -21.890625 L 0.671875 -21.890625 L 0.671875 -22.4375 C 2.984375 -23 4.84375 -23.515625 6.25 -23.984375 L 6.390625 -23.921875 L 6.390625 -2.953125 C 6.390625 -1.992188 6.546875 -1.363281 6.859375 -1.0625 C 7.179688 -0.769531 7.90625 -0.59375 9.03125 -0.53125 Z M 9.03125 0 "/></g></g></g><g fill="#000000" fill-opacity="1"><g transform="translate(122.404516, 402.623159)"><g><path d="M 9.03125 0 L 0.734375 0 L 0.734375 -0.53125 C 1.835938 -0.625 2.5625 -0.832031 2.90625 -1.15625 C 3.257812 -1.488281 3.4375 -2.125 3.4375 -3.0625 L 3.4375 -19.8125 C 3.4375 -20.632812 3.332031 -21.195312 3.125 -21.5 C 2.914062 -21.800781 2.53125 -21.953125 1.96875 -21.953125 C 1.757812 -21.953125 1.394531 -21.929688 0.875 -21.890625 L 0.671875 -21.890625 L 0.671875 -22.4375 C 2.984375 -23 4.84375 -23.515625 6.25 -23.984375 L 6.390625 -23.921875 L 6.390625 -2.953125 C 6.390625 -1.992188 6.546875 -1.363281 6.859375 -1.0625 C 7.179688 -0.769531 7.90625 -0.59375 9.03125 -0.53125 Z M 9.03125 0 "/></g></g></g><g fill="#000000" fill-opacity="1"><g transform="translate(132.170651, 402.623159)"><g><path d="M 16.6875 -15.28125 C 16.257812 -15.226562 15.925781 -15.09375 15.6875 -14.875 C 15.457031 -14.65625 15.226562 -14.265625 15 -13.703125 L 9.59375 0.625 C 8.65625 3.15625 7.722656 4.957031 6.796875 6.03125 C 5.867188 7.113281 4.820312 7.65625 3.65625 7.65625 C 2.90625 7.65625 2.28125 7.460938 1.78125 7.078125 C 1.289062 6.691406 1.046875 6.207031 1.046875 5.625 C 1.046875 5.195312 1.195312 4.832031 1.5 4.53125 C 1.8125 4.226562 2.164062 4.078125 2.5625 4.078125 C 3.101562 4.078125 3.722656 4.203125 4.421875 4.453125 C 4.753906 4.617188 5.046875 4.703125 5.296875 4.703125 C 5.554688 4.703125 5.851562 4.550781 6.1875 4.25 C 6.53125 3.945312 6.820312 3.570312 7.0625 3.125 C 7.363281 2.613281 7.671875 1.914062 7.984375 1.03125 C 8.304688 0.15625 8.46875 -0.410156 8.46875 -0.671875 C 8.46875 -0.898438 8.335938 -1.332031 8.078125 -1.96875 L 2.28125 -14.1875 C 2 -14.800781 1.398438 -15.175781 0.484375 -15.3125 L 0.484375 -15.8125 L 7.734375 -15.8125 L 7.734375 -15.28125 C 6.984375 -15.257812 6.453125 -15.175781 6.140625 -15.03125 C 5.835938 -14.894531 5.6875 -14.660156 5.6875 -14.328125 C 5.6875 -13.972656 5.804688 -13.53125 6.046875 -13 L 10.078125 -4.109375 L 13.484375 -13.796875 C 13.578125 -14.015625 13.625 -14.21875 13.625 -14.40625 C 13.625 -14.988281 13.0625 -15.28125 11.9375 -15.28125 L 11.9375 -15.8125 L 16.6875 -15.8125 Z M 16.6875 -15.28125 "/></g></g></g><g fill="#000000" fill-opacity="1"><g transform="translate(149.735638, 402.623159)"><g/></g></g><g fill="#000000" fill-opacity="1"><g transform="translate(158.518142, 402.623159)"><g><path d="M 17.109375 0 L 9.65625 0 L 9.65625 -0.53125 C 10.664062 -0.625 11.316406 -0.859375 11.609375 -1.234375 C 11.898438 -1.609375 12.046875 -2.390625 12.046875 -3.578125 L 12.046875 -10.53125 C 12.046875 -13.019531 11.164062 -14.265625 9.40625 -14.265625 C 8.726562 -14.265625 8.09375 -14.09375 7.5 -13.75 C 6.90625 -13.40625 6.242188 -12.835938 5.515625 -12.046875 L 5.515625 -3.578125 C 5.515625 -2.359375 5.65625 -1.570312 5.9375 -1.21875 C 6.21875 -0.875 6.875 -0.644531 7.90625 -0.53125 L 7.90625 0 L 0.3125 0 L 0.3125 -0.53125 C 1.320312 -0.664062 1.945312 -0.894531 2.1875 -1.21875 C 2.4375 -1.550781 2.5625 -2.335938 2.5625 -3.578125 L 2.5625 -20.125 C 2.5625 -20.875 2.445312 -21.359375 2.21875 -21.578125 C 2 -21.804688 1.515625 -21.921875 0.765625 -21.921875 C 0.578125 -21.921875 0.4375 -21.910156 0.34375 -21.890625 L 0.34375 -22.4375 L 1.296875 -22.71875 C 2.890625 -23.164062 4.238281 -23.585938 5.34375 -23.984375 L 5.515625 -23.890625 L 5.515625 -13.203125 C 6.335938 -14.253906 7.144531 -15.007812 7.9375 -15.46875 C 8.726562 -15.925781 9.640625 -16.15625 10.671875 -16.15625 C 13.554688 -16.15625 15 -14.296875 15 -10.578125 L 15 -3.578125 C 15 -2.359375 15.109375 -1.59375 15.328125 -1.28125 C 15.554688 -0.96875 16.148438 -0.71875 17.109375 -0.53125 Z M 17.109375 0 "/></g></g></g><g fill="#000000" fill-opacity="1"><g transform="translate(176.08313, 402.623159)"><g><path d="M 15.53125 -1.40625 C 14.914062 -0.726562 14.378906 -0.265625 13.921875 -0.015625 C 13.460938 0.222656 12.941406 0.34375 12.359375 0.34375 C 11.640625 0.34375 11.109375 0.148438 10.765625 -0.234375 C 10.421875 -0.617188 10.203125 -1.28125 10.109375 -2.21875 C 8.097656 -0.507812 6.390625 0.34375 4.984375 0.34375 C 3.910156 0.34375 3.023438 -0.00390625 2.328125 -0.703125 C 1.640625 -1.398438 1.296875 -2.300781 1.296875 -3.40625 C 1.296875 -4.664062 1.71875 -5.6875 2.5625 -6.46875 C 3.3125 -7.125 4.066406 -7.644531 4.828125 -8.03125 C 5.585938 -8.414062 7.335938 -9.15625 10.078125 -10.25 L 10.078125 -12.40625 C 10.078125 -14.34375 9.1875 -15.3125 7.40625 -15.3125 C 6.707031 -15.3125 6.109375 -15.140625 5.609375 -14.796875 C 5.117188 -14.460938 4.875 -14.0625 4.875 -13.59375 C 4.875 -13.332031 4.910156 -13.050781 4.984375 -12.75 C 5.035156 -12.425781 5.0625 -12.238281 5.0625 -12.1875 C 5.0625 -11.789062 4.898438 -11.445312 4.578125 -11.15625 C 4.265625 -10.863281 3.894531 -10.71875 3.46875 -10.71875 C 3.050781 -10.71875 2.695312 -10.867188 2.40625 -11.171875 C 2.113281 -11.472656 1.96875 -11.820312 1.96875 -12.21875 C 1.96875 -13.175781 2.445312 -14.054688 3.40625 -14.859375 C 4.457031 -15.722656 5.945312 -16.15625 7.875 -16.15625 C 10.050781 -16.15625 11.515625 -15.476562 12.265625 -14.125 C 12.703125 -13.394531 12.921875 -12.195312 12.921875 -10.53125 L 12.921875 -3.6875 C 12.921875 -2.914062 12.992188 -2.382812 13.140625 -2.09375 C 13.296875 -1.800781 13.578125 -1.65625 13.984375 -1.65625 C 14.472656 -1.65625 14.988281 -1.875 15.53125 -2.3125 Z M 10.078125 -4.328125 L 10.078125 -9.40625 C 7.972656 -8.632812 6.5 -7.882812 5.65625 -7.15625 C 4.8125 -6.4375 4.390625 -5.5625 4.390625 -4.53125 L 4.390625 -4.390625 C 4.390625 -3.640625 4.601562 -3 5.03125 -2.46875 C 5.46875 -1.945312 5.992188 -1.6875 6.609375 -1.6875 C 7.421875 -1.6875 8.273438 -1.941406 9.171875 -2.453125 C 9.546875 -2.691406 9.789062 -2.925781 9.90625 -3.15625 C 10.019531 -3.394531 10.078125 -3.785156 10.078125 -4.328125 Z M 10.078125 -4.328125 "/></g></g></g><g fill="#000000" fill-opacity="1"><g transform="translate(191.680832, 402.623159)"><g><path d="M 12.21875 -4.140625 C 12.21875 -2.921875 11.734375 -1.867188 10.765625 -0.984375 C 9.796875 -0.0976562 8.644531 0.34375 7.3125 0.34375 C 6.675781 0.34375 5.804688 0.226562 4.703125 0 C 3.953125 -0.1875 3.414062 -0.28125 3.09375 -0.28125 C 2.738281 -0.28125 2.46875 -0.140625 2.28125 0.140625 L 1.828125 0.140625 L 1.828125 -5.34375 L 2.390625 -5.34375 C 2.785156 -3.5625 3.320312 -2.296875 4 -1.546875 C 4.675781 -0.796875 5.625 -0.421875 6.84375 -0.421875 C 7.738281 -0.421875 8.445312 -0.648438 8.96875 -1.109375 C 9.5 -1.566406 9.765625 -2.179688 9.765625 -2.953125 C 9.765625 -4.003906 9.15625 -4.878906 7.9375 -5.578125 L 5.90625 -6.75 C 4.40625 -7.613281 3.34375 -8.425781 2.71875 -9.1875 C 2.101562 -9.945312 1.796875 -10.816406 1.796875 -11.796875 C 1.796875 -13.085938 2.242188 -14.128906 3.140625 -14.921875 C 4.046875 -15.722656 5.210938 -16.125 6.640625 -16.125 C 7.503906 -16.125 8.300781 -15.984375 9.03125 -15.703125 C 9.375 -15.535156 9.6875 -15.453125 9.96875 -15.453125 C 10.0625 -15.453125 10.226562 -15.546875 10.46875 -15.734375 L 10.53125 -15.8125 L 10.921875 -15.8125 L 11.0625 -11.03125 L 10.53125 -11.03125 C 10.132812 -12.59375 9.644531 -13.703125 9.0625 -14.359375 C 8.476562 -15.015625 7.679688 -15.34375 6.671875 -15.34375 C 5.847656 -15.34375 5.191406 -15.125 4.703125 -14.6875 C 4.210938 -14.257812 3.96875 -13.6875 3.96875 -12.96875 C 3.96875 -11.957031 4.472656 -11.160156 5.484375 -10.578125 L 9.265625 -8.328125 C 10.347656 -7.691406 11.109375 -7.054688 11.546875 -6.421875 C 11.992188 -5.796875 12.21875 -5.035156 12.21875 -4.140625 Z M 12.21875 -4.140625 "/></g></g></g><g fill="#000000" fill-opacity="1"><g transform="translate(205.346404, 402.623159)"><g/></g></g><g fill="#000000" fill-opacity="1"><g transform="translate(214.128908, 402.623159)"><g><path d="M 17.03125 0 L 9.734375 0 L 9.734375 -0.53125 C 10.617188 -0.59375 11.207031 -0.820312 11.5 -1.21875 C 11.789062 -1.625 11.9375 -2.378906 11.9375 -3.484375 L 11.9375 -10.8125 C 11.9375 -13.082031 11.082031 -14.21875 9.375 -14.21875 C 8.789062 -14.21875 8.253906 -14.082031 7.765625 -13.8125 C 7.273438 -13.550781 6.609375 -13.019531 5.765625 -12.21875 L 5.765625 -2.359375 C 5.765625 -1.722656 5.925781 -1.273438 6.25 -1.015625 C 6.582031 -0.753906 7.191406 -0.59375 8.078125 -0.53125 L 8.078125 0 L 0.625 0 L 0.625 -0.53125 C 1.519531 -0.59375 2.109375 -0.796875 2.390625 -1.140625 C 2.671875 -1.484375 2.8125 -2.15625 2.8125 -3.15625 L 2.8125 -11.875 C 2.8125 -12.738281 2.71875 -13.328125 2.53125 -13.640625 C 2.34375 -13.960938 2.003906 -14.125 1.515625 -14.125 C 1.066406 -14.125 0.75 -14.078125 0.5625 -13.984375 L 0.5625 -14.578125 C 2.289062 -15.085938 3.90625 -15.613281 5.40625 -16.15625 L 5.65625 -16.09375 L 5.65625 -13.3125 C 6.851562 -14.4375 7.796875 -15.191406 8.484375 -15.578125 C 9.171875 -15.960938 9.925781 -16.15625 10.75 -16.15625 C 12.039062 -16.15625 13.050781 -15.691406 13.78125 -14.765625 C 14.519531 -13.835938 14.890625 -12.546875 14.890625 -10.890625 L 14.890625 -2.84375 C 14.890625 -1.976562 15.03125 -1.398438 15.3125 -1.109375 C 15.59375 -0.816406 16.164062 -0.625 17.03125 -0.53125 Z M 17.03125 0 "/></g></g></g><g fill="#000000" fill-opacity="1"><g transform="translate(231.693895, 402.623159)"><g><path d="M 16.515625 -8.21875 C 16.515625 -5.78125 15.765625 -3.742188 14.265625 -2.109375 C 12.765625 -0.472656 10.910156 0.34375 8.703125 0.34375 C 6.503906 0.34375 4.671875 -0.441406 3.203125 -2.015625 C 1.742188 -3.597656 1.015625 -5.570312 1.015625 -7.9375 C 1.015625 -10.351562 1.734375 -12.328125 3.171875 -13.859375 C 4.617188 -15.390625 6.488281 -16.15625 8.78125 -16.15625 C 11.03125 -16.15625 12.878906 -15.40625 14.328125 -13.90625 C 15.785156 -12.40625 16.515625 -10.507812 16.515625 -8.21875 Z M 13.34375 -6.984375 C 13.34375 -9.398438 12.875 -11.367188 11.9375 -12.890625 C 11 -14.410156 9.796875 -15.171875 8.328125 -15.171875 C 7.085938 -15.171875 6.085938 -14.664062 5.328125 -13.65625 C 4.566406 -12.65625 4.1875 -11.320312 4.1875 -9.65625 C 4.1875 -7.0625 4.695312 -4.800781 5.71875 -2.875 C 6.519531 -1.375 7.65625 -0.625 9.125 -0.625 C 10.4375 -0.625 11.46875 -1.1875 12.21875 -2.3125 C 12.96875 -3.4375 13.34375 -4.992188 13.34375 -6.984375 Z M 13.34375 -6.984375 "/></g></g></g><g fill="#000000" fill-opacity="1"><g transform="translate(249.258883, 402.623159)"><g><path d="M 9.796875 -2.3125 C 8.671875 -0.539062 7.253906 0.34375 5.546875 0.34375 C 3.484375 0.34375 2.453125 -1.140625 2.453125 -4.109375 L 2.453125 -14.6875 L 0.59375 -14.6875 C 0.5 -14.75 0.453125 -14.828125 0.453125 -14.921875 C 0.453125 -15.109375 0.648438 -15.332031 1.046875 -15.59375 C 2.015625 -16.15625 3.148438 -17.410156 4.453125 -19.359375 C 4.785156 -19.773438 5.019531 -20.101562 5.15625 -20.34375 C 5.320312 -20.34375 5.40625 -20.1875 5.40625 -19.875 L 5.40625 -15.8125 L 8.953125 -15.8125 L 8.953125 -14.6875 L 5.40625 -14.6875 L 5.40625 -4.640625 C 5.40625 -3.515625 5.546875 -2.703125 5.828125 -2.203125 C 6.109375 -1.710938 6.578125 -1.46875 7.234375 -1.46875 C 7.941406 -1.46875 8.644531 -1.878906 9.34375 -2.703125 Z M 9.796875 -2.3125 "/></g></g></g><g fill="#000000" fill-opacity="1"><g transform="translate(259.025018, 402.623159)"><g/></g></g><g fill="#000000" fill-opacity="1"><g transform="translate(267.807522, 402.623159)"><g><path d="M 17.109375 0 L 9.65625 0 L 9.65625 -0.53125 C 10.664062 -0.625 11.316406 -0.859375 11.609375 -1.234375 C 11.898438 -1.609375 12.046875 -2.390625 12.046875 -3.578125 L 12.046875 -10.53125 C 12.046875 -13.019531 11.164062 -14.265625 9.40625 -14.265625 C 8.726562 -14.265625 8.09375 -14.09375 7.5 -13.75 C 6.90625 -13.40625 6.242188 -12.835938 5.515625 -12.046875 L 5.515625 -3.578125 C 5.515625 -2.359375 5.65625 -1.570312 5.9375 -1.21875 C 6.21875 -0.875 6.875 -0.644531 7.90625 -0.53125 L 7.90625 0 L 0.3125 0 L 0.3125 -0.53125 C 1.320312 -0.664062 1.945312 -0.894531 2.1875 -1.21875 C 2.4375 -1.550781 2.5625 -2.335938 2.5625 -3.578125 L 2.5625 -20.125 C 2.5625 -20.875 2.445312 -21.359375 2.21875 -21.578125 C 2 -21.804688 1.515625 -21.921875 0.765625 -21.921875 C 0.578125 -21.921875 0.4375 -21.910156 0.34375 -21.890625 L 0.34375 -22.4375 L 1.296875 -22.71875 C 2.890625 -23.164062 4.238281 -23.585938 5.34375 -23.984375 L 5.515625 -23.890625 L 5.515625 -13.203125 C 6.335938 -14.253906 7.144531 -15.007812 7.9375 -15.46875 C 8.726562 -15.925781 9.640625 -16.15625 10.671875 -16.15625 C 13.554688 -16.15625 15 -14.296875 15 -10.578125 L 15 -3.578125 C 15 -2.359375 15.109375 -1.59375 15.328125 -1.28125 C 15.554688 -0.96875 16.148438 -0.71875 17.109375 -0.53125 Z M 17.109375 0 "/></g></g></g><g fill="#000000" fill-opacity="1"><g transform="translate(285.372509, 402.623159)"><g><path d="M 14.890625 -5.515625 C 13.367188 -1.609375 10.890625 0.34375 7.453125 0.34375 C 5.429688 0.34375 3.828125 -0.363281 2.640625 -1.78125 C 1.460938 -3.195312 0.875 -5.109375 0.875 -7.515625 C 0.875 -10.066406 1.550781 -12.144531 2.90625 -13.75 C 4.269531 -15.351562 6.039062 -16.15625 8.21875 -16.15625 C 10.09375 -16.15625 11.59375 -15.488281 12.71875 -14.15625 C 13.488281 -13.175781 13.988281 -11.703125 14.21875 -9.734375 L 3.40625 -9.734375 C 3.476562 -7.742188 3.828125 -6.125 4.453125 -4.875 C 5.460938 -3.007812 6.941406 -2.078125 8.890625 -2.078125 C 10.015625 -2.078125 10.988281 -2.359375 11.8125 -2.921875 C 12.644531 -3.484375 13.484375 -4.429688 14.328125 -5.765625 Z M 10.640625 -10.859375 C 10.410156 -12.378906 10.046875 -13.429688 9.546875 -14.015625 C 9.054688 -14.597656 8.273438 -14.890625 7.203125 -14.890625 C 5.097656 -14.890625 3.859375 -13.546875 3.484375 -10.859375 Z M 10.640625 -10.859375 "/></g></g></g><g fill="#000000" fill-opacity="1"><g transform="translate(300.970212, 402.623159)"><g><path d="M 15.53125 -1.40625 C 14.914062 -0.726562 14.378906 -0.265625 13.921875 -0.015625 C 13.460938 0.222656 12.941406 0.34375 12.359375 0.34375 C 11.640625 0.34375 11.109375 0.148438 10.765625 -0.234375 C 10.421875 -0.617188 10.203125 -1.28125 10.109375 -2.21875 C 8.097656 -0.507812 6.390625 0.34375 4.984375 0.34375 C 3.910156 0.34375 3.023438 -0.00390625 2.328125 -0.703125 C 1.640625 -1.398438 1.296875 -2.300781 1.296875 -3.40625 C 1.296875 -4.664062 1.71875 -5.6875 2.5625 -6.46875 C 3.3125 -7.125 4.066406 -7.644531 4.828125 -8.03125 C 5.585938 -8.414062 7.335938 -9.15625 10.078125 -10.25 L 10.078125 -12.40625 C 10.078125 -14.34375 9.1875 -15.3125 7.40625 -15.3125 C 6.707031 -15.3125 6.109375 -15.140625 5.609375 -14.796875 C 5.117188 -14.460938 4.875 -14.0625 4.875 -13.59375 C 4.875 -13.332031 4.910156 -13.050781 4.984375 -12.75 C 5.035156 -12.425781 5.0625 -12.238281 5.0625 -12.1875 C 5.0625 -11.789062 4.898438 -11.445312 4.578125 -11.15625 C 4.265625 -10.863281 3.894531 -10.71875 3.46875 -10.71875 C 3.050781 -10.71875 2.695312 -10.867188 2.40625 -11.171875 C 2.113281 -11.472656 1.96875 -11.820312 1.96875 -12.21875 C 1.96875 -13.175781 2.445312 -14.054688 3.40625 -14.859375 C 4.457031 -15.722656 5.945312 -16.15625 7.875 -16.15625 C 10.050781 -16.15625 11.515625 -15.476562 12.265625 -14.125 C 12.703125 -13.394531 12.921875 -12.195312 12.921875 -10.53125 L 12.921875 -3.6875 C 12.921875 -2.914062 12.992188 -2.382812 13.140625 -2.09375 C 13.296875 -1.800781 13.578125 -1.65625 13.984375 -1.65625 C 14.472656 -1.65625 14.988281 -1.875 15.53125 -2.3125 Z M 10.078125 -4.328125 L 10.078125 -9.40625 C 7.972656 -8.632812 6.5 -7.882812 5.65625 -7.15625 C 4.8125 -6.4375 4.390625 -5.5625 4.390625 -4.53125 L 4.390625 -4.390625 C 4.390625 -3.640625 4.601562 -3 5.03125 -2.46875 C 5.46875 -1.945312 5.992188 -1.6875 6.609375 -1.6875 C 7.421875 -1.6875 8.273438 -1.941406 9.171875 -2.453125 C 9.546875 -2.691406 9.789062 -2.925781 9.90625 -3.15625 C 10.019531 -3.394531 10.078125 -3.785156 10.078125 -4.328125 Z M 10.078125 -4.328125 "/></g></g></g><g fill="#000000" fill-opacity="1"><g transform="translate(316.567915, 402.623159)"><g><path d="M 11.765625 -14.296875 C 11.765625 -13.804688 11.640625 -13.421875 11.390625 -13.140625 C 11.148438 -12.859375 10.816406 -12.71875 10.390625 -12.71875 C 9.992188 -12.71875 9.523438 -12.953125 8.984375 -13.421875 C 8.617188 -13.765625 8.316406 -13.9375 8.078125 -13.9375 C 7.609375 -13.9375 7.082031 -13.597656 6.5 -12.921875 C 5.914062 -12.242188 5.625 -11.625 5.625 -11.0625 L 5.625 -3.15625 C 5.625 -2.15625 5.820312 -1.476562 6.21875 -1.125 C 6.613281 -0.769531 7.410156 -0.570312 8.609375 -0.53125 L 8.609375 0 L 0.171875 0 L 0.171875 -0.53125 C 1.296875 -0.738281 1.992188 -0.96875 2.265625 -1.21875 C 2.535156 -1.476562 2.671875 -2.054688 2.671875 -2.953125 L 2.671875 -11.734375 C 2.671875 -12.503906 2.582031 -13.046875 2.40625 -13.359375 C 2.226562 -13.679688 1.914062 -13.84375 1.46875 -13.84375 C 1.09375 -13.84375 0.6875 -13.796875 0.25 -13.703125 L 0.25 -14.265625 C 2.125 -14.867188 3.851562 -15.5 5.4375 -16.15625 L 5.625 -16.09375 L 5.625 -12.859375 C 6.488281 -14.097656 7.222656 -14.957031 7.828125 -15.4375 C 8.441406 -15.914062 9.109375 -16.15625 9.828125 -16.15625 C 10.441406 -16.15625 10.914062 -15.988281 11.25 -15.65625 C 11.59375 -15.332031 11.765625 -14.878906 11.765625 -14.296875 Z M 11.765625 -14.296875 "/></g></g></g><g fill="#000000" fill-opacity="1"><g transform="translate(328.266203, 402.623159)"><g><path d="M 17.25 -1.46875 L 12.078125 0.34375 L 11.9375 0.25 L 11.9375 -2 C 10.8125 -0.4375 9.316406 0.34375 7.453125 0.34375 C 5.503906 0.34375 3.929688 -0.347656 2.734375 -1.734375 C 1.546875 -3.128906 0.953125 -4.953125 0.953125 -7.203125 C 0.953125 -9.679688 1.664062 -11.789062 3.09375 -13.53125 C 4.519531 -15.28125 6.238281 -16.15625 8.25 -16.15625 C 9.519531 -16.15625 10.75 -15.648438 11.9375 -14.640625 L 11.9375 -20.125 C 11.9375 -20.851562 11.832031 -21.332031 11.625 -21.5625 C 11.414062 -21.800781 10.984375 -21.921875 10.328125 -21.921875 C 9.992188 -21.921875 9.734375 -21.910156 9.546875 -21.890625 L 9.546875 -22.4375 C 11.679688 -23 13.40625 -23.515625 14.71875 -23.984375 L 14.890625 -23.921875 L 14.890625 -4 C 14.890625 -3.1875 14.988281 -2.648438 15.1875 -2.390625 C 15.382812 -2.128906 15.800781 -2 16.4375 -2 C 16.550781 -2 16.820312 -2.007812 17.25 -2.03125 Z M 11.9375 -3.578125 L 11.9375 -11.65625 C 11.9375 -12.59375 11.570312 -13.410156 10.84375 -14.109375 C 10.125 -14.816406 9.296875 -15.171875 8.359375 -15.171875 C 7.023438 -15.171875 5.957031 -14.570312 5.15625 -13.375 C 4.363281 -12.1875 3.96875 -10.597656 3.96875 -8.609375 C 3.96875 -6.453125 4.410156 -4.722656 5.296875 -3.421875 C 6.191406 -2.117188 7.363281 -1.46875 8.8125 -1.46875 C 9.863281 -1.46875 10.707031 -1.820312 11.34375 -2.53125 C 11.738281 -2.976562 11.9375 -3.328125 11.9375 -3.578125 Z M 11.9375 -3.578125 "/></g></g></g><g fill="#000000" fill-opacity="1"><g transform="translate(345.83119, 402.623159)"><g/></g></g><g fill="#000000" fill-opacity="1"><g transform="translate(354.613694, 402.623159)"><g><path d="M 15.53125 -1.40625 C 14.914062 -0.726562 14.378906 -0.265625 13.921875 -0.015625 C 13.460938 0.222656 12.941406 0.34375 12.359375 0.34375 C 11.640625 0.34375 11.109375 0.148438 10.765625 -0.234375 C 10.421875 -0.617188 10.203125 -1.28125 10.109375 -2.21875 C 8.097656 -0.507812 6.390625 0.34375 4.984375 0.34375 C 3.910156 0.34375 3.023438 -0.00390625 2.328125 -0.703125 C 1.640625 -1.398438 1.296875 -2.300781 1.296875 -3.40625 C 1.296875 -4.664062 1.71875 -5.6875 2.5625 -6.46875 C 3.3125 -7.125 4.066406 -7.644531 4.828125 -8.03125 C 5.585938 -8.414062 7.335938 -9.15625 10.078125 -10.25 L 10.078125 -12.40625 C 10.078125 -14.34375 9.1875 -15.3125 7.40625 -15.3125 C 6.707031 -15.3125 6.109375 -15.140625 5.609375 -14.796875 C 5.117188 -14.460938 4.875 -14.0625 4.875 -13.59375 C 4.875 -13.332031 4.910156 -13.050781 4.984375 -12.75 C 5.035156 -12.425781 5.0625 -12.238281 5.0625 -12.1875 C 5.0625 -11.789062 4.898438 -11.445312 4.578125 -11.15625 C 4.265625 -10.863281 3.894531 -10.71875 3.46875 -10.71875 C 3.050781 -10.71875 2.695312 -10.867188 2.40625 -11.171875 C 2.113281 -11.472656 1.96875 -11.820312 1.96875 -12.21875 C 1.96875 -13.175781 2.445312 -14.054688 3.40625 -14.859375 C 4.457031 -15.722656 5.945312 -16.15625 7.875 -16.15625 C 10.050781 -16.15625 11.515625 -15.476562 12.265625 -14.125 C 12.703125 -13.394531 12.921875 -12.195312 12.921875 -10.53125 L 12.921875 -3.6875 C 12.921875 -2.914062 12.992188 -2.382812 13.140625 -2.09375 C 13.296875 -1.800781 13.578125 -1.65625 13.984375 -1.65625 C 14.472656 -1.65625 14.988281 -1.875 15.53125 -2.3125 Z M 10.078125 -4.328125 L 10.078125 -9.40625 C 7.972656 -8.632812 6.5 -7.882812 5.65625 -7.15625 C 4.8125 -6.4375 4.390625 -5.5625 4.390625 -4.53125 L 4.390625 -4.390625 C 4.390625 -3.640625 4.601562 -3 5.03125 -2.46875 C 5.46875 -1.945312 5.992188 -1.6875 6.609375 -1.6875 C 7.421875 -1.6875 8.273438 -1.941406 9.171875 -2.453125 C 9.546875 -2.691406 9.789062 -2.925781 9.90625 -3.15625 C 10.019531 -3.394531 10.078125 -3.785156 10.078125 -4.328125 Z M 10.078125 -4.328125 "/></g></g></g><g fill="#000000" fill-opacity="1"><g transform="translate(370.211397, 402.623159)"><g><path d="M 16.4375 -8.53125 C 16.4375 -6.03125 15.644531 -3.925781 14.0625 -2.21875 C 12.488281 -0.507812 10.539062 0.34375 8.21875 0.34375 C 6.8125 0.34375 5.492188 0.101562 4.265625 -0.375 C 3.035156 -0.851562 2.421875 -1.359375 2.421875 -1.890625 L 2.421875 -20.125 C 2.421875 -20.851562 2.304688 -21.332031 2.078125 -21.5625 C 1.859375 -21.800781 1.398438 -21.921875 0.703125 -21.921875 C 0.441406 -21.921875 0.242188 -21.910156 0.109375 -21.890625 L 0.109375 -22.4375 L 1.125 -22.71875 C 2.695312 -23.164062 4.054688 -23.585938 5.203125 -23.984375 L 5.375 -23.921875 L 5.375 -13.171875 C 5.726562 -14.035156 6.359375 -14.75 7.265625 -15.3125 C 8.179688 -15.875 9.175781 -16.15625 10.25 -16.15625 C 12.007812 -16.15625 13.476562 -15.421875 14.65625 -13.953125 C 15.84375 -12.492188 16.4375 -10.6875 16.4375 -8.53125 Z M 13.34375 -6.921875 C 13.34375 -9.046875 12.9375 -10.742188 12.125 -12.015625 C 11.320312 -13.296875 10.226562 -13.9375 8.84375 -13.9375 C 7.9375 -13.9375 7.128906 -13.664062 6.421875 -13.125 C 5.722656 -12.59375 5.375 -11.988281 5.375 -11.3125 L 5.375 -2.453125 C 5.375 -2.015625 5.710938 -1.625 6.390625 -1.28125 C 7.066406 -0.9375 7.863281 -0.765625 8.78125 -0.765625 C 10.226562 -0.765625 11.347656 -1.300781 12.140625 -2.375 C 12.941406 -3.457031 13.34375 -4.972656 13.34375 -6.921875 Z M 13.34375 -6.921875 "/></g></g></g><g fill="#000000" fill-opacity="1"><g transform="translate(387.776384, 402.623159)"><g><path d="M 16.515625 -8.21875 C 16.515625 -5.78125 15.765625 -3.742188 14.265625 -2.109375 C 12.765625 -0.472656 10.910156 0.34375 8.703125 0.34375 C 6.503906 0.34375 4.671875 -0.441406 3.203125 -2.015625 C 1.742188 -3.597656 1.015625 -5.570312 1.015625 -7.9375 C 1.015625 -10.351562 1.734375 -12.328125 3.171875 -13.859375 C 4.617188 -15.390625 6.488281 -16.15625 8.78125 -16.15625 C 11.03125 -16.15625 12.878906 -15.40625 14.328125 -13.90625 C 15.785156 -12.40625 16.515625 -10.507812 16.515625 -8.21875 Z M 13.34375 -6.984375 C 13.34375 -9.398438 12.875 -11.367188 11.9375 -12.890625 C 11 -14.410156 9.796875 -15.171875 8.328125 -15.171875 C 7.085938 -15.171875 6.085938 -14.664062 5.328125 -13.65625 C 4.566406 -12.65625 4.1875 -11.320312 4.1875 -9.65625 C 4.1875 -7.0625 4.695312 -4.800781 5.71875 -2.875 C 6.519531 -1.375 7.65625 -0.625 9.125 -0.625 C 10.4375 -0.625 11.46875 -1.1875 12.21875 -2.3125 C 12.96875 -3.4375 13.34375 -4.992188 13.34375 -6.984375 Z M 13.34375 -6.984375 "/></g></g></g><g fill="#000000" fill-opacity="1"><g transform="translate(405.341371, 402.623159)"><g><path d="M 16.828125 -1.265625 C 14.992188 -0.773438 13.390625 -0.25 12.015625 0.3125 L 11.875 0.25 L 11.875 -2.671875 L 10.359375 -1.15625 C 9.347656 -0.15625 8.144531 0.34375 6.75 0.34375 C 5.457031 0.34375 4.425781 -0.0664062 3.65625 -0.890625 C 2.882812 -1.722656 2.5 -2.832031 2.5 -4.21875 L 2.5 -13.0625 C 2.5 -13.882812 2.34375 -14.453125 2.03125 -14.765625 C 1.726562 -15.085938 1.15625 -15.269531 0.3125 -15.3125 L 0.3125 -15.8125 L 5.4375 -15.8125 L 5.4375 -4.359375 C 5.4375 -3.628906 5.679688 -3 6.171875 -2.46875 C 6.671875 -1.945312 7.257812 -1.6875 7.9375 -1.6875 C 9.0625 -1.6875 10.113281 -2.109375 11.09375 -2.953125 C 11.5 -3.253906 11.703125 -3.847656 11.703125 -4.734375 L 11.703125 -13 C 11.703125 -13.863281 11.539062 -14.4375 11.21875 -14.71875 C 10.90625 -15 10.195312 -15.160156 9.09375 -15.203125 L 9.09375 -15.8125 L 14.640625 -15.8125 L 14.640625 -3.765625 C 14.640625 -2.941406 14.773438 -2.398438 15.046875 -2.140625 C 15.316406 -1.878906 15.851562 -1.75 16.65625 -1.75 L 16.828125 -1.75 Z M 16.828125 -1.265625 "/></g></g></g><g fill="#000000" fill-opacity="1"><g transform="translate(422.906358, 402.623159)"><g><path d="M 9.796875 -2.3125 C 8.671875 -0.539062 7.253906 0.34375 5.546875 0.34375 C 3.484375 0.34375 2.453125 -1.140625 2.453125 -4.109375 L 2.453125 -14.6875 L 0.59375 -14.6875 C 0.5 -14.75 0.453125 -14.828125 0.453125 -14.921875 C 0.453125 -15.109375 0.648438 -15.332031 1.046875 -15.59375 C 2.015625 -16.15625 3.148438 -17.410156 4.453125 -19.359375 C 4.785156 -19.773438 5.019531 -20.101562 5.15625 -20.34375 C 5.320312 -20.34375 5.40625 -20.1875 5.40625 -19.875 L 5.40625 -15.8125 L 8.953125 -15.8125 L 8.953125 -14.6875 L 5.40625 -14.6875 L 5.40625 -4.640625 C 5.40625 -3.515625 5.546875 -2.703125 5.828125 -2.203125 C 6.109375 -1.710938 6.578125 -1.46875 7.234375 -1.46875 C 7.941406 -1.46875 8.644531 -1.878906 9.34375 -2.703125 Z M 9.796875 -2.3125 "/></g></g></g><g fill="#000000" fill-opacity="1"><g transform="translate(432.672494, 402.623159)"><g/></g></g><g fill="#000000" fill-opacity="1"><g transform="translate(441.454977, 402.623159)"><g><path d="M 13 -22.578125 C 11.570312 -22.484375 10.675781 -22.253906 10.3125 -21.890625 C 9.945312 -21.535156 9.765625 -20.710938 9.765625 -19.421875 L 9.765625 -6.421875 C 9.765625 -4.222656 9.25 -2.519531 8.21875 -1.3125 C 7.1875 -0.113281 5.722656 0.484375 3.828125 0.484375 C 2.816406 0.484375 1.984375 0.253906 1.328125 -0.203125 C 0.671875 -0.671875 0.34375 -1.28125 0.34375 -2.03125 C 0.34375 -2.5 0.515625 -2.910156 0.859375 -3.265625 C 1.203125 -3.617188 1.609375 -3.796875 2.078125 -3.796875 C 2.941406 -3.796875 3.550781 -3.195312 3.90625 -2 C 4.019531 -1.550781 4.144531 -1.242188 4.28125 -1.078125 C 4.425781 -0.921875 4.613281 -0.84375 4.84375 -0.84375 C 5.738281 -0.84375 6.1875 -1.613281 6.1875 -3.15625 L 6.1875 -19.421875 C 6.1875 -20.710938 6 -21.535156 5.625 -21.890625 C 5.25 -22.253906 4.347656 -22.484375 2.921875 -22.578125 L 2.921875 -23.25 L 13 -23.25 Z M 13 -22.578125 "/></g></g></g><g fill="#000000" fill-opacity="1"><g transform="translate(455.120549, 402.623159)"><g><path d="M 16.515625 -8.21875 C 16.515625 -5.78125 15.765625 -3.742188 14.265625 -2.109375 C 12.765625 -0.472656 10.910156 0.34375 8.703125 0.34375 C 6.503906 0.34375 4.671875 -0.441406 3.203125 -2.015625 C 1.742188 -3.597656 1.015625 -5.570312 1.015625 -7.9375 C 1.015625 -10.351562 1.734375 -12.328125 3.171875 -13.859375 C 4.617188 -15.390625 6.488281 -16.15625 8.78125 -16.15625 C 11.03125 -16.15625 12.878906 -15.40625 14.328125 -13.90625 C 15.785156 -12.40625 16.515625 -10.507812 16.515625 -8.21875 Z M 13.34375 -6.984375 C 13.34375 -9.398438 12.875 -11.367188 11.9375 -12.890625 C 11 -14.410156 9.796875 -15.171875 8.328125 -15.171875 C 7.085938 -15.171875 6.085938 -14.664062 5.328125 -13.65625 C 4.566406 -12.65625 4.1875 -11.320312 4.1875 -9.65625 C 4.1875 -7.0625 4.695312 -4.800781 5.71875 -2.875 C 6.519531 -1.375 7.65625 -0.625 9.125 -0.625 C 10.4375 -0.625 11.46875 -1.1875 12.21875 -2.3125 C 12.96875 -3.4375 13.34375 -4.992188 13.34375 -6.984375 Z M 13.34375 -6.984375 "/></g></g></g><g fill="#000000" fill-opacity="1"><g transform="translate(472.685515, 402.623159)"><g><path d="M 14.890625 -5.515625 C 13.367188 -1.609375 10.890625 0.34375 7.453125 0.34375 C 5.429688 0.34375 3.828125 -0.363281 2.640625 -1.78125 C 1.460938 -3.195312 0.875 -5.109375 0.875 -7.515625 C 0.875 -10.066406 1.550781 -12.144531 2.90625 -13.75 C 4.269531 -15.351562 6.039062 -16.15625 8.21875 -16.15625 C 10.09375 -16.15625 11.59375 -15.488281 12.71875 -14.15625 C 13.488281 -13.175781 13.988281 -11.703125 14.21875 -9.734375 L 3.40625 -9.734375 C 3.476562 -7.742188 3.828125 -6.125 4.453125 -4.875 C 5.460938 -3.007812 6.941406 -2.078125 8.890625 -2.078125 C 10.015625 -2.078125 10.988281 -2.359375 11.8125 -2.921875 C 12.644531 -3.484375 13.484375 -4.429688 14.328125 -5.765625 Z M 10.640625 -10.859375 C 10.410156 -12.378906 10.046875 -13.429688 9.546875 -14.015625 C 9.054688 -14.597656 8.273438 -14.890625 7.203125 -14.890625 C 5.097656 -14.890625 3.859375 -13.546875 3.484375 -10.859375 Z M 10.640625 -10.859375 "/></g></g></g><g fill="#000000" fill-opacity="1"><g transform="translate(488.283218, 402.623159)"><g><path d="M 4.671875 -22.34375 C 4.671875 -21.257812 4.378906 -19.328125 3.796875 -16.546875 L 3.546875 -15.140625 L 2.8125 -15.140625 C 2.0625 -19.097656 1.6875 -21.484375 1.6875 -22.296875 C 1.6875 -22.703125 1.832031 -23.046875 2.125 -23.328125 C 2.414062 -23.609375 2.773438 -23.75 3.203125 -23.75 C 3.597656 -23.75 3.941406 -23.609375 4.234375 -23.328125 C 4.523438 -23.046875 4.671875 -22.71875 4.671875 -22.34375 Z M 4.671875 -22.34375 "/></g></g></g><g fill="#000000" fill-opacity="1"><g transform="translate(494.60659, 402.623159)"><g><path d="M 12.21875 -4.140625 C 12.21875 -2.921875 11.734375 -1.867188 10.765625 -0.984375 C 9.796875 -0.0976562 8.644531 0.34375 7.3125 0.34375 C 6.675781 0.34375 5.804688 0.226562 4.703125 0 C 3.953125 -0.1875 3.414062 -0.28125 3.09375 -0.28125 C 2.738281 -0.28125 2.46875 -0.140625 2.28125 0.140625 L 1.828125 0.140625 L 1.828125 -5.34375 L 2.390625 -5.34375 C 2.785156 -3.5625 3.320312 -2.296875 4 -1.546875 C 4.675781 -0.796875 5.625 -0.421875 6.84375 -0.421875 C 7.738281 -0.421875 8.445312 -0.648438 8.96875 -1.109375 C 9.5 -1.566406 9.765625 -2.179688 9.765625 -2.953125 C 9.765625 -4.003906 9.15625 -4.878906 7.9375 -5.578125 L 5.90625 -6.75 C 4.40625 -7.613281 3.34375 -8.425781 2.71875 -9.1875 C 2.101562 -9.945312 1.796875 -10.816406 1.796875 -11.796875 C 1.796875 -13.085938 2.242188 -14.128906 3.140625 -14.921875 C 4.046875 -15.722656 5.210938 -16.125 6.640625 -16.125 C 7.503906 -16.125 8.300781 -15.984375 9.03125 -15.703125 C 9.375 -15.535156 9.6875 -15.453125 9.96875 -15.453125 C 10.0625 -15.453125 10.226562 -15.546875 10.46875 -15.734375 L 10.53125 -15.8125 L 10.921875 -15.8125 L 11.0625 -11.03125 L 10.53125 -11.03125 C 10.132812 -12.59375 9.644531 -13.703125 9.0625 -14.359375 C 8.476562 -15.015625 7.679688 -15.34375 6.671875 -15.34375 C 5.847656 -15.34375 5.191406 -15.125 4.703125 -14.6875 C 4.210938 -14.257812 3.96875 -13.6875 3.96875 -12.96875 C 3.96875 -11.957031 4.472656 -11.160156 5.484375 -10.578125 L 9.265625 -8.328125 C 10.347656 -7.691406 11.109375 -7.054688 11.546875 -6.421875 C 11.992188 -5.796875 12.21875 -5.035156 12.21875 -4.140625 Z M 12.21875 -4.140625 "/></g></g></g><g fill="#000000" fill-opacity="1"><g transform="translate(508.256416, 402.623159)"><g/></g></g><g fill="#000000" fill-opacity="1"><g transform="translate(79.740598, 451.167914)"><g><path d="M 11.765625 -14.296875 C 11.765625 -13.804688 11.640625 -13.421875 11.390625 -13.140625 C 11.148438 -12.859375 10.816406 -12.71875 10.390625 -12.71875 C 9.992188 -12.71875 9.523438 -12.953125 8.984375 -13.421875 C 8.617188 -13.765625 8.316406 -13.9375 8.078125 -13.9375 C 7.609375 -13.9375 7.082031 -13.597656 6.5 -12.921875 C 5.914062 -12.242188 5.625 -11.625 5.625 -11.0625 L 5.625 -3.15625 C 5.625 -2.15625 5.820312 -1.476562 6.21875 -1.125 C 6.613281 -0.769531 7.410156 -0.570312 8.609375 -0.53125 L 8.609375 0 L 0.171875 0 L 0.171875 -0.53125 C 1.296875 -0.738281 1.992188 -0.96875 2.265625 -1.21875 C 2.535156 -1.476562 2.671875 -2.054688 2.671875 -2.953125 L 2.671875 -11.734375 C 2.671875 -12.503906 2.582031 -13.046875 2.40625 -13.359375 C 2.226562 -13.679688 1.914062 -13.84375 1.46875 -13.84375 C 1.09375 -13.84375 0.6875 -13.796875 0.25 -13.703125 L 0.25 -14.265625 C 2.125 -14.867188 3.851562 -15.5 5.4375 -16.15625 L 5.625 -16.09375 L 5.625 -12.859375 C 6.488281 -14.097656 7.222656 -14.957031 7.828125 -15.4375 C 8.441406 -15.914062 9.109375 -16.15625 9.828125 -16.15625 C 10.441406 -16.15625 10.914062 -15.988281 11.25 -15.65625 C 11.59375 -15.332031 11.765625 -14.878906 11.765625 -14.296875 Z M 11.765625 -14.296875 "/></g></g></g><g fill="#000000" fill-opacity="1"><g transform="translate(91.438886, 451.167914)"><g><path d="M 14.890625 -5.515625 C 13.367188 -1.609375 10.890625 0.34375 7.453125 0.34375 C 5.429688 0.34375 3.828125 -0.363281 2.640625 -1.78125 C 1.460938 -3.195312 0.875 -5.109375 0.875 -7.515625 C 0.875 -10.066406 1.550781 -12.144531 2.90625 -13.75 C 4.269531 -15.351562 6.039062 -16.15625 8.21875 -16.15625 C 10.09375 -16.15625 11.59375 -15.488281 12.71875 -14.15625 C 13.488281 -13.175781 13.988281 -11.703125 14.21875 -9.734375 L 3.40625 -9.734375 C 3.476562 -7.742188 3.828125 -6.125 4.453125 -4.875 C 5.460938 -3.007812 6.941406 -2.078125 8.890625 -2.078125 C 10.015625 -2.078125 10.988281 -2.359375 11.8125 -2.921875 C 12.644531 -3.484375 13.484375 -4.429688 14.328125 -5.765625 Z M 10.640625 -10.859375 C 10.410156 -12.378906 10.046875 -13.429688 9.546875 -14.015625 C 9.054688 -14.597656 8.273438 -14.890625 7.203125 -14.890625 C 5.097656 -14.890625 3.859375 -13.546875 3.484375 -10.859375 Z M 10.640625 -10.859375 "/></g></g></g><g fill="#000000" fill-opacity="1"><g transform="translate(107.036589, 451.167914)"><g><path d="M 12.21875 -4.140625 C 12.21875 -2.921875 11.734375 -1.867188 10.765625 -0.984375 C 9.796875 -0.0976562 8.644531 0.34375 7.3125 0.34375 C 6.675781 0.34375 5.804688 0.226562 4.703125 0 C 3.953125 -0.1875 3.414062 -0.28125 3.09375 -0.28125 C 2.738281 -0.28125 2.46875 -0.140625 2.28125 0.140625 L 1.828125 0.140625 L 1.828125 -5.34375 L 2.390625 -5.34375 C 2.785156 -3.5625 3.320312 -2.296875 4 -1.546875 C 4.675781 -0.796875 5.625 -0.421875 6.84375 -0.421875 C 7.738281 -0.421875 8.445312 -0.648438 8.96875 -1.109375 C 9.5 -1.566406 9.765625 -2.179688 9.765625 -2.953125 C 9.765625 -4.003906 9.15625 -4.878906 7.9375 -5.578125 L 5.90625 -6.75 C 4.40625 -7.613281 3.34375 -8.425781 2.71875 -9.1875 C 2.101562 -9.945312 1.796875 -10.816406 1.796875 -11.796875 C 1.796875 -13.085938 2.242188 -14.128906 3.140625 -14.921875 C 4.046875 -15.722656 5.210938 -16.125 6.640625 -16.125 C 7.503906 -16.125 8.300781 -15.984375 9.03125 -15.703125 C 9.375 -15.535156 9.6875 -15.453125 9.96875 -15.453125 C 10.0625 -15.453125 10.226562 -15.546875 10.46875 -15.734375 L 10.53125 -15.8125 L 10.921875 -15.8125 L 11.0625 -11.03125 L 10.53125 -11.03125 C 10.132812 -12.59375 9.644531 -13.703125 9.0625 -14.359375 C 8.476562 -15.015625 7.679688 -15.34375 6.671875 -15.34375 C 5.847656 -15.34375 5.191406 -15.125 4.703125 -14.6875 C 4.210938 -14.257812 3.96875 -13.6875 3.96875 -12.96875 C 3.96875 -11.957031 4.472656 -11.160156 5.484375 -10.578125 L 9.265625 -8.328125 C 10.347656 -7.691406 11.109375 -7.054688 11.546875 -6.421875 C 11.992188 -5.796875 12.21875 -5.035156 12.21875 -4.140625 Z M 12.21875 -4.140625 "/></g></g></g><g fill="#000000" fill-opacity="1"><g transform="translate(120.70216, 451.167914)"><g><path d="M 14.890625 -5.515625 C 13.367188 -1.609375 10.890625 0.34375 7.453125 0.34375 C 5.429688 0.34375 3.828125 -0.363281 2.640625 -1.78125 C 1.460938 -3.195312 0.875 -5.109375 0.875 -7.515625 C 0.875 -10.066406 1.550781 -12.144531 2.90625 -13.75 C 4.269531 -15.351562 6.039062 -16.15625 8.21875 -16.15625 C 10.09375 -16.15625 11.59375 -15.488281 12.71875 -14.15625 C 13.488281 -13.175781 13.988281 -11.703125 14.21875 -9.734375 L 3.40625 -9.734375 C 3.476562 -7.742188 3.828125 -6.125 4.453125 -4.875 C 5.460938 -3.007812 6.941406 -2.078125 8.890625 -2.078125 C 10.015625 -2.078125 10.988281 -2.359375 11.8125 -2.921875 C 12.644531 -3.484375 13.484375 -4.429688 14.328125 -5.765625 Z M 10.640625 -10.859375 C 10.410156 -12.378906 10.046875 -13.429688 9.546875 -14.015625 C 9.054688 -14.597656 8.273438 -14.890625 7.203125 -14.890625 C 5.097656 -14.890625 3.859375 -13.546875 3.484375 -10.859375 Z M 10.640625 -10.859375 "/></g></g></g><g fill="#000000" fill-opacity="1"><g transform="translate(136.299863, 451.167914)"><g><path d="M 15.53125 -1.40625 C 14.914062 -0.726562 14.378906 -0.265625 13.921875 -0.015625 C 13.460938 0.222656 12.941406 0.34375 12.359375 0.34375 C 11.640625 0.34375 11.109375 0.148438 10.765625 -0.234375 C 10.421875 -0.617188 10.203125 -1.28125 10.109375 -2.21875 C 8.097656 -0.507812 6.390625 0.34375 4.984375 0.34375 C 3.910156 0.34375 3.023438 -0.00390625 2.328125 -0.703125 C 1.640625 -1.398438 1.296875 -2.300781 1.296875 -3.40625 C 1.296875 -4.664062 1.71875 -5.6875 2.5625 -6.46875 C 3.3125 -7.125 4.066406 -7.644531 4.828125 -8.03125 C 5.585938 -8.414062 7.335938 -9.15625 10.078125 -10.25 L 10.078125 -12.40625 C 10.078125 -14.34375 9.1875 -15.3125 7.40625 -15.3125 C 6.707031 -15.3125 6.109375 -15.140625 5.609375 -14.796875 C 5.117188 -14.460938 4.875 -14.0625 4.875 -13.59375 C 4.875 -13.332031 4.910156 -13.050781 4.984375 -12.75 C 5.035156 -12.425781 5.0625 -12.238281 5.0625 -12.1875 C 5.0625 -11.789062 4.898438 -11.445312 4.578125 -11.15625 C 4.265625 -10.863281 3.894531 -10.71875 3.46875 -10.71875 C 3.050781 -10.71875 2.695312 -10.867188 2.40625 -11.171875 C 2.113281 -11.472656 1.96875 -11.820312 1.96875 -12.21875 C 1.96875 -13.175781 2.445312 -14.054688 3.40625 -14.859375 C 4.457031 -15.722656 5.945312 -16.15625 7.875 -16.15625 C 10.050781 -16.15625 11.515625 -15.476562 12.265625 -14.125 C 12.703125 -13.394531 12.921875 -12.195312 12.921875 -10.53125 L 12.921875 -3.6875 C 12.921875 -2.914062 12.992188 -2.382812 13.140625 -2.09375 C 13.296875 -1.800781 13.578125 -1.65625 13.984375 -1.65625 C 14.472656 -1.65625 14.988281 -1.875 15.53125 -2.3125 Z M 10.078125 -4.328125 L 10.078125 -9.40625 C 7.972656 -8.632812 6.5 -7.882812 5.65625 -7.15625 C 4.8125 -6.4375 4.390625 -5.5625 4.390625 -4.53125 L 4.390625 -4.390625 C 4.390625 -3.640625 4.601562 -3 5.03125 -2.46875 C 5.46875 -1.945312 5.992188 -1.6875 6.609375 -1.6875 C 7.421875 -1.6875 8.273438 -1.941406 9.171875 -2.453125 C 9.546875 -2.691406 9.789062 -2.925781 9.90625 -3.15625 C 10.019531 -3.394531 10.078125 -3.785156 10.078125 -4.328125 Z M 10.078125 -4.328125 "/></g></g></g><g fill="#000000" fill-opacity="1"><g transform="translate(151.897566, 451.167914)"><g><path d="M 11.765625 -14.296875 C 11.765625 -13.804688 11.640625 -13.421875 11.390625 -13.140625 C 11.148438 -12.859375 10.816406 -12.71875 10.390625 -12.71875 C 9.992188 -12.71875 9.523438 -12.953125 8.984375 -13.421875 C 8.617188 -13.765625 8.316406 -13.9375 8.078125 -13.9375 C 7.609375 -13.9375 7.082031 -13.597656 6.5 -12.921875 C 5.914062 -12.242188 5.625 -11.625 5.625 -11.0625 L 5.625 -3.15625 C 5.625 -2.15625 5.820312 -1.476562 6.21875 -1.125 C 6.613281 -0.769531 7.410156 -0.570312 8.609375 -0.53125 L 8.609375 0 L 0.171875 0 L 0.171875 -0.53125 C 1.296875 -0.738281 1.992188 -0.96875 2.265625 -1.21875 C 2.535156 -1.476562 2.671875 -2.054688 2.671875 -2.953125 L 2.671875 -11.734375 C 2.671875 -12.503906 2.582031 -13.046875 2.40625 -13.359375 C 2.226562 -13.679688 1.914062 -13.84375 1.46875 -13.84375 C 1.09375 -13.84375 0.6875 -13.796875 0.25 -13.703125 L 0.25 -14.265625 C 2.125 -14.867188 3.851562 -15.5 5.4375 -16.15625 L 5.625 -16.09375 L 5.625 -12.859375 C 6.488281 -14.097656 7.222656 -14.957031 7.828125 -15.4375 C 8.441406 -15.914062 9.109375 -16.15625 9.828125 -16.15625 C 10.441406 -16.15625 10.914062 -15.988281 11.25 -15.65625 C 11.59375 -15.332031 11.765625 -14.878906 11.765625 -14.296875 Z M 11.765625 -14.296875 "/></g></g></g><g fill="#000000" fill-opacity="1"><g transform="translate(163.595854, 451.167914)"><g><path d="M 14.46875 -5.15625 C 13.46875 -3.195312 12.507812 -1.851562 11.59375 -1.125 C 10.394531 -0.144531 9.046875 0.34375 7.546875 0.34375 C 5.609375 0.34375 4.007812 -0.382812 2.75 -1.84375 C 1.5 -3.3125 0.875 -5.179688 0.875 -7.453125 C 0.875 -10.421875 1.859375 -12.722656 3.828125 -14.359375 C 5.273438 -15.554688 6.859375 -16.15625 8.578125 -16.15625 C 10.046875 -16.15625 11.3125 -15.796875 12.375 -15.078125 C 13.445312 -14.367188 13.984375 -13.523438 13.984375 -12.546875 C 13.984375 -12.140625 13.816406 -11.789062 13.484375 -11.5 C 13.160156 -11.207031 12.773438 -11.0625 12.328125 -11.0625 C 11.503906 -11.0625 10.941406 -11.601562 10.640625 -12.6875 L 10.4375 -13.453125 C 10.25 -14.109375 10.015625 -14.550781 9.734375 -14.78125 C 9.453125 -15.019531 8.992188 -15.140625 8.359375 -15.140625 C 6.929688 -15.140625 5.773438 -14.578125 4.890625 -13.453125 C 4.015625 -12.328125 3.578125 -10.851562 3.578125 -9.03125 C 3.578125 -7.007812 4.082031 -5.359375 5.09375 -4.078125 C 6.101562 -2.804688 7.414062 -2.171875 9.03125 -2.171875 C 10.03125 -2.171875 10.894531 -2.410156 11.625 -2.890625 C 12.351562 -3.378906 13.140625 -4.242188 13.984375 -5.484375 Z M 14.46875 -5.15625 "/></g></g></g><g fill="#000000" fill-opacity="1"><g transform="translate(179.193557, 451.167914)"><g><path d="M 17.109375 0 L 9.65625 0 L 9.65625 -0.53125 C 10.664062 -0.625 11.316406 -0.859375 11.609375 -1.234375 C 11.898438 -1.609375 12.046875 -2.390625 12.046875 -3.578125 L 12.046875 -10.53125 C 12.046875 -13.019531 11.164062 -14.265625 9.40625 -14.265625 C 8.726562 -14.265625 8.09375 -14.09375 7.5 -13.75 C 6.90625 -13.40625 6.242188 -12.835938 5.515625 -12.046875 L 5.515625 -3.578125 C 5.515625 -2.359375 5.65625 -1.570312 5.9375 -1.21875 C 6.21875 -0.875 6.875 -0.644531 7.90625 -0.53125 L 7.90625 0 L 0.3125 0 L 0.3125 -0.53125 C 1.320312 -0.664062 1.945312 -0.894531 2.1875 -1.21875 C 2.4375 -1.550781 2.5625 -2.335938 2.5625 -3.578125 L 2.5625 -20.125 C 2.5625 -20.875 2.445312 -21.359375 2.21875 -21.578125 C 2 -21.804688 1.515625 -21.921875 0.765625 -21.921875 C 0.578125 -21.921875 0.4375 -21.910156 0.34375 -21.890625 L 0.34375 -22.4375 L 1.296875 -22.71875 C 2.890625 -23.164062 4.238281 -23.585938 5.34375 -23.984375 L 5.515625 -23.890625 L 5.515625 -13.203125 C 6.335938 -14.253906 7.144531 -15.007812 7.9375 -15.46875 C 8.726562 -15.925781 9.640625 -16.15625 10.671875 -16.15625 C 13.554688 -16.15625 15 -14.296875 15 -10.578125 L 15 -3.578125 C 15 -2.359375 15.109375 -1.59375 15.328125 -1.28125 C 15.554688 -0.96875 16.148438 -0.71875 17.109375 -0.53125 Z M 17.109375 0 "/></g></g></g><g fill="#000000" fill-opacity="1"><g transform="translate(196.758544, 451.167914)"><g/></g></g><g fill="#000000" fill-opacity="1"><g transform="translate(205.541048, 451.167914)"><g><path d="M 16.515625 -8.21875 C 16.515625 -5.78125 15.765625 -3.742188 14.265625 -2.109375 C 12.765625 -0.472656 10.910156 0.34375 8.703125 0.34375 C 6.503906 0.34375 4.671875 -0.441406 3.203125 -2.015625 C 1.742188 -3.597656 1.015625 -5.570312 1.015625 -7.9375 C 1.015625 -10.351562 1.734375 -12.328125 3.171875 -13.859375 C 4.617188 -15.390625 6.488281 -16.15625 8.78125 -16.15625 C 11.03125 -16.15625 12.878906 -15.40625 14.328125 -13.90625 C 15.785156 -12.40625 16.515625 -10.507812 16.515625 -8.21875 Z M 13.34375 -6.984375 C 13.34375 -9.398438 12.875 -11.367188 11.9375 -12.890625 C 11 -14.410156 9.796875 -15.171875 8.328125 -15.171875 C 7.085938 -15.171875 6.085938 -14.664062 5.328125 -13.65625 C 4.566406 -12.65625 4.1875 -11.320312 4.1875 -9.65625 C 4.1875 -7.0625 4.695312 -4.800781 5.71875 -2.875 C 6.519531 -1.375 7.65625 -0.625 9.125 -0.625 C 10.4375 -0.625 11.46875 -1.1875 12.21875 -2.3125 C 12.96875 -3.4375 13.34375 -4.992188 13.34375 -6.984375 Z M 13.34375 -6.984375 "/></g></g></g><g fill="#000000" fill-opacity="1"><g transform="translate(223.106035, 451.167914)"><g><path d="M 17.03125 0 L 9.734375 0 L 9.734375 -0.53125 C 10.617188 -0.59375 11.207031 -0.820312 11.5 -1.21875 C 11.789062 -1.625 11.9375 -2.378906 11.9375 -3.484375 L 11.9375 -10.8125 C 11.9375 -13.082031 11.082031 -14.21875 9.375 -14.21875 C 8.789062 -14.21875 8.253906 -14.082031 7.765625 -13.8125 C 7.273438 -13.550781 6.609375 -13.019531 5.765625 -12.21875 L 5.765625 -2.359375 C 5.765625 -1.722656 5.925781 -1.273438 6.25 -1.015625 C 6.582031 -0.753906 7.191406 -0.59375 8.078125 -0.53125 L 8.078125 0 L 0.625 0 L 0.625 -0.53125 C 1.519531 -0.59375 2.109375 -0.796875 2.390625 -1.140625 C 2.671875 -1.484375 2.8125 -2.15625 2.8125 -3.15625 L 2.8125 -11.875 C 2.8125 -12.738281 2.71875 -13.328125 2.53125 -13.640625 C 2.34375 -13.960938 2.003906 -14.125 1.515625 -14.125 C 1.066406 -14.125 0.75 -14.078125 0.5625 -13.984375 L 0.5625 -14.578125 C 2.289062 -15.085938 3.90625 -15.613281 5.40625 -16.15625 L 5.65625 -16.09375 L 5.65625 -13.3125 C 6.851562 -14.4375 7.796875 -15.191406 8.484375 -15.578125 C 9.171875 -15.960938 9.925781 -16.15625 10.75 -16.15625 C 12.039062 -16.15625 13.050781 -15.691406 13.78125 -14.765625 C 14.519531 -13.835938 14.890625 -12.546875 14.890625 -10.890625 L 14.890625 -2.84375 C 14.890625 -1.976562 15.03125 -1.398438 15.3125 -1.109375 C 15.59375 -0.816406 16.164062 -0.625 17.03125 -0.53125 Z M 17.03125 0 "/></g></g></g><g fill="#000000" fill-opacity="1"><g transform="translate(240.671022, 451.167914)"><g/></g></g><g fill="#000000" fill-opacity="1"><g transform="translate(249.453526, 451.167914)"><g><path d="M 9.796875 -2.3125 C 8.671875 -0.539062 7.253906 0.34375 5.546875 0.34375 C 3.484375 0.34375 2.453125 -1.140625 2.453125 -4.109375 L 2.453125 -14.6875 L 0.59375 -14.6875 C 0.5 -14.75 0.453125 -14.828125 0.453125 -14.921875 C 0.453125 -15.109375 0.648438 -15.332031 1.046875 -15.59375 C 2.015625 -16.15625 3.148438 -17.410156 4.453125 -19.359375 C 4.785156 -19.773438 5.019531 -20.101562 5.15625 -20.34375 C 5.320312 -20.34375 5.40625 -20.1875 5.40625 -19.875 L 5.40625 -15.8125 L 8.953125 -15.8125 L 8.953125 -14.6875 L 5.40625 -14.6875 L 5.40625 -4.640625 C 5.40625 -3.515625 5.546875 -2.703125 5.828125 -2.203125 C 6.109375 -1.710938 6.578125 -1.46875 7.234375 -1.46875 C 7.941406 -1.46875 8.644531 -1.878906 9.34375 -2.703125 Z M 9.796875 -2.3125 "/></g></g></g><g fill="#000000" fill-opacity="1"><g transform="translate(259.219662, 451.167914)"><g><path d="M 17.109375 0 L 9.65625 0 L 9.65625 -0.53125 C 10.664062 -0.625 11.316406 -0.859375 11.609375 -1.234375 C 11.898438 -1.609375 12.046875 -2.390625 12.046875 -3.578125 L 12.046875 -10.53125 C 12.046875 -13.019531 11.164062 -14.265625 9.40625 -14.265625 C 8.726562 -14.265625 8.09375 -14.09375 7.5 -13.75 C 6.90625 -13.40625 6.242188 -12.835938 5.515625 -12.046875 L 5.515625 -3.578125 C 5.515625 -2.359375 5.65625 -1.570312 5.9375 -1.21875 C 6.21875 -0.875 6.875 -0.644531 7.90625 -0.53125 L 7.90625 0 L 0.3125 0 L 0.3125 -0.53125 C 1.320312 -0.664062 1.945312 -0.894531 2.1875 -1.21875 C 2.4375 -1.550781 2.5625 -2.335938 2.5625 -3.578125 L 2.5625 -20.125 C 2.5625 -20.875 2.445312 -21.359375 2.21875 -21.578125 C 2 -21.804688 1.515625 -21.921875 0.765625 -21.921875 C 0.578125 -21.921875 0.4375 -21.910156 0.34375 -21.890625 L 0.34375 -22.4375 L 1.296875 -22.71875 C 2.890625 -23.164062 4.238281 -23.585938 5.34375 -23.984375 L 5.515625 -23.890625 L 5.515625 -13.203125 C 6.335938 -14.253906 7.144531 -15.007812 7.9375 -15.46875 C 8.726562 -15.925781 9.640625 -16.15625 10.671875 -16.15625 C 13.554688 -16.15625 15 -14.296875 15 -10.578125 L 15 -3.578125 C 15 -2.359375 15.109375 -1.59375 15.328125 -1.28125 C 15.554688 -0.96875 16.148438 -0.71875 17.109375 -0.53125 Z M 17.109375 0 "/></g></g></g><g fill="#000000" fill-opacity="1"><g transform="translate(276.784649, 451.167914)"><g><path d="M 14.890625 -5.515625 C 13.367188 -1.609375 10.890625 0.34375 7.453125 0.34375 C 5.429688 0.34375 3.828125 -0.363281 2.640625 -1.78125 C 1.460938 -3.195312 0.875 -5.109375 0.875 -7.515625 C 0.875 -10.066406 1.550781 -12.144531 2.90625 -13.75 C 4.269531 -15.351562 6.039062 -16.15625 8.21875 -16.15625 C 10.09375 -16.15625 11.59375 -15.488281 12.71875 -14.15625 C 13.488281 -13.175781 13.988281 -11.703125 14.21875 -9.734375 L 3.40625 -9.734375 C 3.476562 -7.742188 3.828125 -6.125 4.453125 -4.875 C 5.460938 -3.007812 6.941406 -2.078125 8.890625 -2.078125 C 10.015625 -2.078125 10.988281 -2.359375 11.8125 -2.921875 C 12.644531 -3.484375 13.484375 -4.429688 14.328125 -5.765625 Z M 10.640625 -10.859375 C 10.410156 -12.378906 10.046875 -13.429688 9.546875 -14.015625 C 9.054688 -14.597656 8.273438 -14.890625 7.203125 -14.890625 C 5.097656 -14.890625 3.859375 -13.546875 3.484375 -10.859375 Z M 10.640625 -10.859375 "/></g></g></g><g fill="#000000" fill-opacity="1"><g transform="translate(292.382352, 451.167914)"><g/></g></g><g fill="#000000" fill-opacity="1"><g transform="translate(301.164856, 451.167914)"><g><path d="M 24.171875 -11.484375 C 24.171875 -7.953125 23.085938 -5.070312 20.921875 -2.84375 C 18.753906 -0.625 15.9375 0.484375 12.46875 0.484375 C 10.925781 0.484375 9.421875 0.164062 7.953125 -0.46875 C 6.492188 -1.113281 5.25 -1.988281 4.21875 -3.09375 C 3.28125 -4.09375 2.539062 -5.347656 2 -6.859375 C 1.457031 -8.367188 1.1875 -9.957031 1.1875 -11.625 C 1.1875 -15.164062 2.265625 -18.070312 4.421875 -20.34375 C 6.578125 -22.613281 9.332031 -23.75 12.6875 -23.75 C 16.125 -23.75 18.96875 -22.519531 21.21875 -20.0625 C 23.1875 -17.90625 24.171875 -15.046875 24.171875 -11.484375 Z M 20.15625 -11.515625 C 20.15625 -15.847656 19.160156 -18.914062 17.171875 -20.71875 C 15.859375 -21.894531 14.363281 -22.484375 12.6875 -22.484375 C 10.71875 -22.484375 9.039062 -21.722656 7.65625 -20.203125 C 6.90625 -19.378906 6.304688 -18.175781 5.859375 -16.59375 C 5.421875 -15.007812 5.203125 -13.332031 5.203125 -11.5625 C 5.203125 -9.613281 5.46875 -7.8125 6 -6.15625 C 6.539062 -4.507812 7.269531 -3.289062 8.1875 -2.5 C 9.46875 -1.34375 10.941406 -0.765625 12.609375 -0.765625 C 14.484375 -0.765625 16.039062 -1.390625 17.28125 -2.640625 C 18.125 -3.453125 18.695312 -4.304688 19 -5.203125 C 19.769531 -7.210938 20.15625 -9.316406 20.15625 -11.515625 Z M 20.15625 -11.515625 "/></g></g></g><g fill="#000000" fill-opacity="1"><g transform="translate(326.528694, 451.167914)"><g><path d="M 20.96875 -5.9375 L 19.390625 0 L 0.421875 0 L 0.421875 -0.671875 C 1.710938 -0.765625 2.546875 -1.003906 2.921875 -1.390625 C 3.296875 -1.773438 3.484375 -2.585938 3.484375 -3.828125 L 3.484375 -19.421875 C 3.484375 -20.660156 3.300781 -21.46875 2.9375 -21.84375 C 2.570312 -22.21875 1.734375 -22.460938 0.421875 -22.578125 L 0.421875 -23.25 L 19.078125 -23.25 L 19.171875 -18.234375 L 18.296875 -18.234375 C 17.992188 -19.796875 17.523438 -20.800781 16.890625 -21.25 C 16.265625 -21.695312 14.957031 -21.921875 12.96875 -21.921875 L 8.21875 -21.921875 C 7.75 -21.921875 7.4375 -21.84375 7.28125 -21.6875 C 7.132812 -21.539062 7.0625 -21.21875 7.0625 -20.71875 L 7.0625 -12.921875 L 12.46875 -12.921875 C 13.894531 -12.921875 14.835938 -13.117188 15.296875 -13.515625 C 15.753906 -13.921875 16.097656 -14.835938 16.328125 -16.265625 L 17.140625 -16.265625 L 17.140625 -8.109375 L 16.328125 -8.109375 C 16.097656 -9.566406 15.757812 -10.492188 15.3125 -10.890625 C 14.863281 -11.285156 13.914062 -11.484375 12.46875 -11.484375 L 7.0625 -11.484375 L 7.0625 -2.8125 C 7.0625 -2.175781 7.15625 -1.800781 7.34375 -1.6875 C 7.664062 -1.425781 8.800781 -1.296875 10.75 -1.296875 L 11.703125 -1.296875 C 14.203125 -1.296875 15.988281 -1.59375 17.0625 -2.1875 C 18.144531 -2.789062 19.117188 -4.039062 19.984375 -5.9375 Z M 20.96875 -5.9375 "/></g></g></g><g fill="#000000" fill-opacity="1"><g transform="translate(347.993118, 451.167914)"><g/></g></g><g fill="#000000" fill-opacity="1"><g transform="translate(356.775622, 451.167914)"><g><path d="M 16.4375 -8.53125 C 16.4375 -6.03125 15.644531 -3.925781 14.0625 -2.21875 C 12.488281 -0.507812 10.539062 0.34375 8.21875 0.34375 C 6.8125 0.34375 5.492188 0.101562 4.265625 -0.375 C 3.035156 -0.851562 2.421875 -1.359375 2.421875 -1.890625 L 2.421875 -20.125 C 2.421875 -20.851562 2.304688 -21.332031 2.078125 -21.5625 C 1.859375 -21.800781 1.398438 -21.921875 0.703125 -21.921875 C 0.441406 -21.921875 0.242188 -21.910156 0.109375 -21.890625 L 0.109375 -22.4375 L 1.125 -22.71875 C 2.695312 -23.164062 4.054688 -23.585938 5.203125 -23.984375 L 5.375 -23.921875 L 5.375 -13.171875 C 5.726562 -14.035156 6.359375 -14.75 7.265625 -15.3125 C 8.179688 -15.875 9.175781 -16.15625 10.25 -16.15625 C 12.007812 -16.15625 13.476562 -15.421875 14.65625 -13.953125 C 15.84375 -12.492188 16.4375 -10.6875 16.4375 -8.53125 Z M 13.34375 -6.921875 C 13.34375 -9.046875 12.9375 -10.742188 12.125 -12.015625 C 11.320312 -13.296875 10.226562 -13.9375 8.84375 -13.9375 C 7.9375 -13.9375 7.128906 -13.664062 6.421875 -13.125 C 5.722656 -12.59375 5.375 -11.988281 5.375 -11.3125 L 5.375 -2.453125 C 5.375 -2.015625 5.710938 -1.625 6.390625 -1.28125 C 7.066406 -0.9375 7.863281 -0.765625 8.78125 -0.765625 C 10.226562 -0.765625 11.347656 -1.300781 12.140625 -2.375 C 12.941406 -3.457031 13.34375 -4.972656 13.34375 -6.921875 Z M 13.34375 -6.921875 "/></g></g></g><g fill="#000000" fill-opacity="1"><g transform="translate(374.340609, 451.167914)"><g><path d="M 14.890625 -5.515625 C 13.367188 -1.609375 10.890625 0.34375 7.453125 0.34375 C 5.429688 0.34375 3.828125 -0.363281 2.640625 -1.78125 C 1.460938 -3.195312 0.875 -5.109375 0.875 -7.515625 C 0.875 -10.066406 1.550781 -12.144531 2.90625 -13.75 C 4.269531 -15.351562 6.039062 -16.15625 8.21875 -16.15625 C 10.09375 -16.15625 11.59375 -15.488281 12.71875 -14.15625 C 13.488281 -13.175781 13.988281 -11.703125 14.21875 -9.734375 L 3.40625 -9.734375 C 3.476562 -7.742188 3.828125 -6.125 4.453125 -4.875 C 5.460938 -3.007812 6.941406 -2.078125 8.890625 -2.078125 C 10.015625 -2.078125 10.988281 -2.359375 11.8125 -2.921875 C 12.644531 -3.484375 13.484375 -4.429688 14.328125 -5.765625 Z M 10.640625 -10.859375 C 10.410156 -12.378906 10.046875 -13.429688 9.546875 -14.015625 C 9.054688 -14.597656 8.273438 -14.890625 7.203125 -14.890625 C 5.097656 -14.890625 3.859375 -13.546875 3.484375 -10.859375 Z M 10.640625 -10.859375 "/></g></g></g><g fill="#000000" fill-opacity="1"><g transform="translate(389.938312, 451.167914)"><g><path d="M 14.46875 -5.15625 C 13.46875 -3.195312 12.507812 -1.851562 11.59375 -1.125 C 10.394531 -0.144531 9.046875 0.34375 7.546875 0.34375 C 5.609375 0.34375 4.007812 -0.382812 2.75 -1.84375 C 1.5 -3.3125 0.875 -5.179688 0.875 -7.453125 C 0.875 -10.421875 1.859375 -12.722656 3.828125 -14.359375 C 5.273438 -15.554688 6.859375 -16.15625 8.578125 -16.15625 C 10.046875 -16.15625 11.3125 -15.796875 12.375 -15.078125 C 13.445312 -14.367188 13.984375 -13.523438 13.984375 -12.546875 C 13.984375 -12.140625 13.816406 -11.789062 13.484375 -11.5 C 13.160156 -11.207031 12.773438 -11.0625 12.328125 -11.0625 C 11.503906 -11.0625 10.941406 -11.601562 10.640625 -12.6875 L 10.4375 -13.453125 C 10.25 -14.109375 10.015625 -14.550781 9.734375 -14.78125 C 9.453125 -15.019531 8.992188 -15.140625 8.359375 -15.140625 C 6.929688 -15.140625 5.773438 -14.578125 4.890625 -13.453125 C 4.015625 -12.328125 3.578125 -10.851562 3.578125 -9.03125 C 3.578125 -7.007812 4.082031 -5.359375 5.09375 -4.078125 C 6.101562 -2.804688 7.414062 -2.171875 9.03125 -2.171875 C 10.03125 -2.171875 10.894531 -2.410156 11.625 -2.890625 C 12.351562 -3.378906 13.140625 -4.242188 13.984375 -5.484375 Z M 14.46875 -5.15625 "/></g></g></g><g fill="#000000" fill-opacity="1"><g transform="translate(405.536015, 451.167914)"><g><path d="M 15.53125 -1.40625 C 14.914062 -0.726562 14.378906 -0.265625 13.921875 -0.015625 C 13.460938 0.222656 12.941406 0.34375 12.359375 0.34375 C 11.640625 0.34375 11.109375 0.148438 10.765625 -0.234375 C 10.421875 -0.617188 10.203125 -1.28125 10.109375 -2.21875 C 8.097656 -0.507812 6.390625 0.34375 4.984375 0.34375 C 3.910156 0.34375 3.023438 -0.00390625 2.328125 -0.703125 C 1.640625 -1.398438 1.296875 -2.300781 1.296875 -3.40625 C 1.296875 -4.664062 1.71875 -5.6875 2.5625 -6.46875 C 3.3125 -7.125 4.066406 -7.644531 4.828125 -8.03125 C 5.585938 -8.414062 7.335938 -9.15625 10.078125 -10.25 L 10.078125 -12.40625 C 10.078125 -14.34375 9.1875 -15.3125 7.40625 -15.3125 C 6.707031 -15.3125 6.109375 -15.140625 5.609375 -14.796875 C 5.117188 -14.460938 4.875 -14.0625 4.875 -13.59375 C 4.875 -13.332031 4.910156 -13.050781 4.984375 -12.75 C 5.035156 -12.425781 5.0625 -12.238281 5.0625 -12.1875 C 5.0625 -11.789062 4.898438 -11.445312 4.578125 -11.15625 C 4.265625 -10.863281 3.894531 -10.71875 3.46875 -10.71875 C 3.050781 -10.71875 2.695312 -10.867188 2.40625 -11.171875 C 2.113281 -11.472656 1.96875 -11.820312 1.96875 -12.21875 C 1.96875 -13.175781 2.445312 -14.054688 3.40625 -14.859375 C 4.457031 -15.722656 5.945312 -16.15625 7.875 -16.15625 C 10.050781 -16.15625 11.515625 -15.476562 12.265625 -14.125 C 12.703125 -13.394531 12.921875 -12.195312 12.921875 -10.53125 L 12.921875 -3.6875 C 12.921875 -2.914062 12.992188 -2.382812 13.140625 -2.09375 C 13.296875 -1.800781 13.578125 -1.65625 13.984375 -1.65625 C 14.472656 -1.65625 14.988281 -1.875 15.53125 -2.3125 Z M 10.078125 -4.328125 L 10.078125 -9.40625 C 7.972656 -8.632812 6.5 -7.882812 5.65625 -7.15625 C 4.8125 -6.4375 4.390625 -5.5625 4.390625 -4.53125 L 4.390625 -4.390625 C 4.390625 -3.640625 4.601562 -3 5.03125 -2.46875 C 5.46875 -1.945312 5.992188 -1.6875 6.609375 -1.6875 C 7.421875 -1.6875 8.273438 -1.941406 9.171875 -2.453125 C 9.546875 -2.691406 9.789062 -2.925781 9.90625 -3.15625 C 10.019531 -3.394531 10.078125 -3.785156 10.078125 -4.328125 Z M 10.078125 -4.328125 "/></g></g></g><g fill="#000000" fill-opacity="1"><g transform="translate(421.133717, 451.167914)"><g><path d="M 16.828125 -1.265625 C 14.992188 -0.773438 13.390625 -0.25 12.015625 0.3125 L 11.875 0.25 L 11.875 -2.671875 L 10.359375 -1.15625 C 9.347656 -0.15625 8.144531 0.34375 6.75 0.34375 C 5.457031 0.34375 4.425781 -0.0664062 3.65625 -0.890625 C 2.882812 -1.722656 2.5 -2.832031 2.5 -4.21875 L 2.5 -13.0625 C 2.5 -13.882812 2.34375 -14.453125 2.03125 -14.765625 C 1.726562 -15.085938 1.15625 -15.269531 0.3125 -15.3125 L 0.3125 -15.8125 L 5.4375 -15.8125 L 5.4375 -4.359375 C 5.4375 -3.628906 5.679688 -3 6.171875 -2.46875 C 6.671875 -1.945312 7.257812 -1.6875 7.9375 -1.6875 C 9.0625 -1.6875 10.113281 -2.109375 11.09375 -2.953125 C 11.5 -3.253906 11.703125 -3.847656 11.703125 -4.734375 L 11.703125 -13 C 11.703125 -13.863281 11.539062 -14.4375 11.21875 -14.71875 C 10.90625 -15 10.195312 -15.160156 9.09375 -15.203125 L 9.09375 -15.8125 L 14.640625 -15.8125 L 14.640625 -3.765625 C 14.640625 -2.941406 14.773438 -2.398438 15.046875 -2.140625 C 15.316406 -1.878906 15.851562 -1.75 16.65625 -1.75 L 16.828125 -1.75 Z M 16.828125 -1.265625 "/></g></g></g><g fill="#000000" fill-opacity="1"><g transform="translate(438.698683, 451.167914)"><g><path d="M 12.21875 -4.140625 C 12.21875 -2.921875 11.734375 -1.867188 10.765625 -0.984375 C 9.796875 -0.0976562 8.644531 0.34375 7.3125 0.34375 C 6.675781 0.34375 5.804688 0.226562 4.703125 0 C 3.953125 -0.1875 3.414062 -0.28125 3.09375 -0.28125 C 2.738281 -0.28125 2.46875 -0.140625 2.28125 0.140625 L 1.828125 0.140625 L 1.828125 -5.34375 L 2.390625 -5.34375 C 2.785156 -3.5625 3.320312 -2.296875 4 -1.546875 C 4.675781 -0.796875 5.625 -0.421875 6.84375 -0.421875 C 7.738281 -0.421875 8.445312 -0.648438 8.96875 -1.109375 C 9.5 -1.566406 9.765625 -2.179688 9.765625 -2.953125 C 9.765625 -4.003906 9.15625 -4.878906 7.9375 -5.578125 L 5.90625 -6.75 C 4.40625 -7.613281 3.34375 -8.425781 2.71875 -9.1875 C 2.101562 -9.945312 1.796875 -10.816406 1.796875 -11.796875 C 1.796875 -13.085938 2.242188 -14.128906 3.140625 -14.921875 C 4.046875 -15.722656 5.210938 -16.125 6.640625 -16.125 C 7.503906 -16.125 8.300781 -15.984375 9.03125 -15.703125 C 9.375 -15.535156 9.6875 -15.453125 9.96875 -15.453125 C 10.0625 -15.453125 10.226562 -15.546875 10.46875 -15.734375 L 10.53125 -15.8125 L 10.921875 -15.8125 L 11.0625 -11.03125 L 10.53125 -11.03125 C 10.132812 -12.59375 9.644531 -13.703125 9.0625 -14.359375 C 8.476562 -15.015625 7.679688 -15.34375 6.671875 -15.34375 C 5.847656 -15.34375 5.191406 -15.125 4.703125 -14.6875 C 4.210938 -14.257812 3.96875 -13.6875 3.96875 -12.96875 C 3.96875 -11.957031 4.472656 -11.160156 5.484375 -10.578125 L 9.265625 -8.328125 C 10.347656 -7.691406 11.109375 -7.054688 11.546875 -6.421875 C 11.992188 -5.796875 12.21875 -5.035156 12.21875 -4.140625 Z M 12.21875 -4.140625 "/></g></g></g><g fill="#000000" fill-opacity="1"><g transform="translate(452.364255, 451.167914)"><g><path d="M 14.890625 -5.515625 C 13.367188 -1.609375 10.890625 0.34375 7.453125 0.34375 C 5.429688 0.34375 3.828125 -0.363281 2.640625 -1.78125 C 1.460938 -3.195312 0.875 -5.109375 0.875 -7.515625 C 0.875 -10.066406 1.550781 -12.144531 2.90625 -13.75 C 4.269531 -15.351562 6.039062 -16.15625 8.21875 -16.15625 C 10.09375 -16.15625 11.59375 -15.488281 12.71875 -14.15625 C 13.488281 -13.175781 13.988281 -11.703125 14.21875 -9.734375 L 3.40625 -9.734375 C 3.476562 -7.742188 3.828125 -6.125 4.453125 -4.875 C 5.460938 -3.007812 6.941406 -2.078125 8.890625 -2.078125 C 10.015625 -2.078125 10.988281 -2.359375 11.8125 -2.921875 C 12.644531 -3.484375 13.484375 -4.429688 14.328125 -5.765625 Z M 10.640625 -10.859375 C 10.410156 -12.378906 10.046875 -13.429688 9.546875 -14.015625 C 9.054688 -14.597656 8.273438 -14.890625 7.203125 -14.890625 C 5.097656 -14.890625 3.859375 -13.546875 3.484375 -10.859375 Z M 10.640625 -10.859375 "/></g></g></g><g fill="#000000" fill-opacity="1"><g transform="translate(467.961958, 451.167914)"><g/></g></g><g fill="#000000" fill-opacity="1"><g transform="translate(476.744483, 451.167914)"><g><path d="M 16.515625 -8.21875 C 16.515625 -5.78125 15.765625 -3.742188 14.265625 -2.109375 C 12.765625 -0.472656 10.910156 0.34375 8.703125 0.34375 C 6.503906 0.34375 4.671875 -0.441406 3.203125 -2.015625 C 1.742188 -3.597656 1.015625 -5.570312 1.015625 -7.9375 C 1.015625 -10.351562 1.734375 -12.328125 3.171875 -13.859375 C 4.617188 -15.390625 6.488281 -16.15625 8.78125 -16.15625 C 11.03125 -16.15625 12.878906 -15.40625 14.328125 -13.90625 C 15.785156 -12.40625 16.515625 -10.507812 16.515625 -8.21875 Z M 13.34375 -6.984375 C 13.34375 -9.398438 12.875 -11.367188 11.9375 -12.890625 C 11 -14.410156 9.796875 -15.171875 8.328125 -15.171875 C 7.085938 -15.171875 6.085938 -14.664062 5.328125 -13.65625 C 4.566406 -12.65625 4.1875 -11.320312 4.1875 -9.65625 C 4.1875 -7.0625 4.695312 -4.800781 5.71875 -2.875 C 6.519531 -1.375 7.65625 -0.625 9.125 -0.625 C 10.4375 -0.625 11.46875 -1.1875 12.21875 -2.3125 C 12.96875 -3.4375 13.34375 -4.992188 13.34375 -6.984375 Z M 13.34375 -6.984375 "/></g></g></g><g fill="#000000" fill-opacity="1"><g transform="translate(494.309449, 451.167914)"><g><path d="M 13.453125 -21.8125 C 13.453125 -21.414062 13.3125 -21.078125 13.03125 -20.796875 C 12.75 -20.515625 12.398438 -20.375 11.984375 -20.375 C 11.421875 -20.375 10.890625 -20.796875 10.390625 -21.640625 C 9.828125 -22.546875 9.207031 -23 8.53125 -23 C 7.195312 -23 6.53125 -21.957031 6.53125 -19.875 L 6.53125 -15.8125 L 10.859375 -15.8125 L 10.859375 -14.6875 L 6.5625 -14.6875 L 6.5625 -3.65625 C 6.5625 -2.34375 6.75 -1.503906 7.125 -1.140625 C 7.5 -0.773438 8.398438 -0.570312 9.828125 -0.53125 L 9.828125 0 L 0.703125 0 L 0.703125 -0.53125 C 1.960938 -0.59375 2.765625 -0.804688 3.109375 -1.171875 C 3.453125 -1.535156 3.625 -2.363281 3.625 -3.65625 L 3.625 -14.6875 L 0.734375 -14.6875 L 0.734375 -15.8125 L 3.625 -15.8125 C 3.644531 -17.207031 3.734375 -18.296875 3.890625 -19.078125 C 4.054688 -19.867188 4.375 -20.664062 4.84375 -21.46875 C 5.832031 -23.144531 7.484375 -23.984375 9.796875 -23.984375 C 10.847656 -23.984375 11.71875 -23.78125 12.40625 -23.375 C 13.101562 -22.96875 13.453125 -22.445312 13.453125 -21.8125 Z M 13.453125 -21.8125 "/></g></g></g><g fill="#000000" fill-opacity="1"><g transform="translate(506.002553, 451.167914)"><g/></g></g><g fill="#000000" fill-opacity="1"><g transform="translate(164.542216, 499.712668)"><g><path d="M 8.890625 0 L 0.5625 0 L 0.5625 -0.53125 C 1.78125 -0.59375 2.546875 -0.800781 2.859375 -1.15625 C 3.179688 -1.507812 3.34375 -2.316406 3.34375 -3.578125 L 3.34375 -11.734375 C 3.34375 -12.503906 3.253906 -13.046875 3.078125 -13.359375 C 2.898438 -13.679688 2.597656 -13.84375 2.171875 -13.84375 C 1.796875 -13.84375 1.398438 -13.804688 0.984375 -13.734375 L 0.703125 -13.703125 L 0.703125 -14.21875 L 6.140625 -16.15625 L 6.28125 -16.046875 L 6.28125 -3.578125 C 6.28125 -2.316406 6.425781 -1.515625 6.71875 -1.171875 C 7.019531 -0.835938 7.742188 -0.625 8.890625 -0.53125 Z M 6.609375 -20.71875 C 6.609375 -20.207031 6.4375 -19.78125 6.09375 -19.4375 C 5.75 -19.101562 5.320312 -18.9375 4.8125 -18.9375 C 4.320312 -18.9375 3.898438 -19.101562 3.546875 -19.4375 C 3.191406 -19.78125 3.015625 -20.207031 3.015625 -20.71875 C 3.015625 -21.21875 3.191406 -21.640625 3.546875 -21.984375 C 3.898438 -22.335938 4.320312 -22.515625 4.8125 -22.515625 C 5.320312 -22.515625 5.75 -22.335938 6.09375 -21.984375 C 6.4375 -21.640625 6.609375 -21.21875 6.609375 -20.71875 Z M 6.609375 -20.71875 "/></g></g></g><g fill="#000000" fill-opacity="1"><g transform="translate(174.308352, 499.712668)"><g><path d="M 17.03125 0 L 9.734375 0 L 9.734375 -0.53125 C 10.617188 -0.59375 11.207031 -0.820312 11.5 -1.21875 C 11.789062 -1.625 11.9375 -2.378906 11.9375 -3.484375 L 11.9375 -10.8125 C 11.9375 -13.082031 11.082031 -14.21875 9.375 -14.21875 C 8.789062 -14.21875 8.253906 -14.082031 7.765625 -13.8125 C 7.273438 -13.550781 6.609375 -13.019531 5.765625 -12.21875 L 5.765625 -2.359375 C 5.765625 -1.722656 5.925781 -1.273438 6.25 -1.015625 C 6.582031 -0.753906 7.191406 -0.59375 8.078125 -0.53125 L 8.078125 0 L 0.625 0 L 0.625 -0.53125 C 1.519531 -0.59375 2.109375 -0.796875 2.390625 -1.140625 C 2.671875 -1.484375 2.8125 -2.15625 2.8125 -3.15625 L 2.8125 -11.875 C 2.8125 -12.738281 2.71875 -13.328125 2.53125 -13.640625 C 2.34375 -13.960938 2.003906 -14.125 1.515625 -14.125 C 1.066406 -14.125 0.75 -14.078125 0.5625 -13.984375 L 0.5625 -14.578125 C 2.289062 -15.085938 3.90625 -15.613281 5.40625 -16.15625 L 5.65625 -16.09375 L 5.65625 -13.3125 C 6.851562 -14.4375 7.796875 -15.191406 8.484375 -15.578125 C 9.171875 -15.960938 9.925781 -16.15625 10.75 -16.15625 C 12.039062 -16.15625 13.050781 -15.691406 13.78125 -14.765625 C 14.519531 -13.835938 14.890625 -12.546875 14.890625 -10.890625 L 14.890625 -2.84375 C 14.890625 -1.976562 15.03125 -1.398438 15.3125 -1.109375 C 15.59375 -0.816406 16.164062 -0.625 17.03125 -0.53125 Z M 17.03125 0 "/></g></g></g><g fill="#000000" fill-opacity="1"><g transform="translate(191.873339, 499.712668)"><g><path d="M 13.453125 -21.8125 C 13.453125 -21.414062 13.3125 -21.078125 13.03125 -20.796875 C 12.75 -20.515625 12.398438 -20.375 11.984375 -20.375 C 11.421875 -20.375 10.890625 -20.796875 10.390625 -21.640625 C 9.828125 -22.546875 9.207031 -23 8.53125 -23 C 7.195312 -23 6.53125 -21.957031 6.53125 -19.875 L 6.53125 -15.8125 L 10.859375 -15.8125 L 10.859375 -14.6875 L 6.5625 -14.6875 L 6.5625 -3.65625 C 6.5625 -2.34375 6.75 -1.503906 7.125 -1.140625 C 7.5 -0.773438 8.398438 -0.570312 9.828125 -0.53125 L 9.828125 0 L 0.703125 0 L 0.703125 -0.53125 C 1.960938 -0.59375 2.765625 -0.804688 3.109375 -1.171875 C 3.453125 -1.535156 3.625 -2.363281 3.625 -3.65625 L 3.625 -14.6875 L 0.734375 -14.6875 L 0.734375 -15.8125 L 3.625 -15.8125 C 3.644531 -17.207031 3.734375 -18.296875 3.890625 -19.078125 C 4.054688 -19.867188 4.375 -20.664062 4.84375 -21.46875 C 5.832031 -23.144531 7.484375 -23.984375 9.796875 -23.984375 C 10.847656 -23.984375 11.71875 -23.78125 12.40625 -23.375 C 13.101562 -22.96875 13.453125 -22.445312 13.453125 -21.8125 Z M 13.453125 -21.8125 "/></g></g></g><g fill="#000000" fill-opacity="1"><g transform="translate(203.571626, 499.712668)"><g><path d="M 16.515625 -8.21875 C 16.515625 -5.78125 15.765625 -3.742188 14.265625 -2.109375 C 12.765625 -0.472656 10.910156 0.34375 8.703125 0.34375 C 6.503906 0.34375 4.671875 -0.441406 3.203125 -2.015625 C 1.742188 -3.597656 1.015625 -5.570312 1.015625 -7.9375 C 1.015625 -10.351562 1.734375 -12.328125 3.171875 -13.859375 C 4.617188 -15.390625 6.488281 -16.15625 8.78125 -16.15625 C 11.03125 -16.15625 12.878906 -15.40625 14.328125 -13.90625 C 15.785156 -12.40625 16.515625 -10.507812 16.515625 -8.21875 Z M 13.34375 -6.984375 C 13.34375 -9.398438 12.875 -11.367188 11.9375 -12.890625 C 11 -14.410156 9.796875 -15.171875 8.328125 -15.171875 C 7.085938 -15.171875 6.085938 -14.664062 5.328125 -13.65625 C 4.566406 -12.65625 4.1875 -11.320312 4.1875 -9.65625 C 4.1875 -7.0625 4.695312 -4.800781 5.71875 -2.875 C 6.519531 -1.375 7.65625 -0.625 9.125 -0.625 C 10.4375 -0.625 11.46875 -1.1875 12.21875 -2.3125 C 12.96875 -3.4375 13.34375 -4.992188 13.34375 -6.984375 Z M 13.34375 -6.984375 "/></g></g></g><g fill="#000000" fill-opacity="1"><g transform="translate(221.136614, 499.712668)"><g><path d="M 11.765625 -14.296875 C 11.765625 -13.804688 11.640625 -13.421875 11.390625 -13.140625 C 11.148438 -12.859375 10.816406 -12.71875 10.390625 -12.71875 C 9.992188 -12.71875 9.523438 -12.953125 8.984375 -13.421875 C 8.617188 -13.765625 8.316406 -13.9375 8.078125 -13.9375 C 7.609375 -13.9375 7.082031 -13.597656 6.5 -12.921875 C 5.914062 -12.242188 5.625 -11.625 5.625 -11.0625 L 5.625 -3.15625 C 5.625 -2.15625 5.820312 -1.476562 6.21875 -1.125 C 6.613281 -0.769531 7.410156 -0.570312 8.609375 -0.53125 L 8.609375 0 L 0.171875 0 L 0.171875 -0.53125 C 1.296875 -0.738281 1.992188 -0.96875 2.265625 -1.21875 C 2.535156 -1.476562 2.671875 -2.054688 2.671875 -2.953125 L 2.671875 -11.734375 C 2.671875 -12.503906 2.582031 -13.046875 2.40625 -13.359375 C 2.226562 -13.679688 1.914062 -13.84375 1.46875 -13.84375 C 1.09375 -13.84375 0.6875 -13.796875 0.25 -13.703125 L 0.25 -14.265625 C 2.125 -14.867188 3.851562 -15.5 5.4375 -16.15625 L 5.625 -16.09375 L 5.625 -12.859375 C 6.488281 -14.097656 7.222656 -14.957031 7.828125 -15.4375 C 8.441406 -15.914062 9.109375 -16.15625 9.828125 -16.15625 C 10.441406 -16.15625 10.914062 -15.988281 11.25 -15.65625 C 11.59375 -15.332031 11.765625 -14.878906 11.765625 -14.296875 Z M 11.765625 -14.296875 "/></g></g></g><g fill="#000000" fill-opacity="1"><g transform="translate(232.834901, 499.712668)"><g><path d="M 27.21875 0 L 19.53125 0 L 19.53125 -0.53125 C 20.5625 -0.644531 21.203125 -0.84375 21.453125 -1.125 C 21.710938 -1.40625 21.84375 -2.050781 21.84375 -3.0625 L 21.84375 -10.46875 C 21.84375 -11.914062 21.65625 -12.921875 21.28125 -13.484375 C 20.90625 -14.046875 20.21875 -14.328125 19.21875 -14.328125 C 17.664062 -14.328125 16.390625 -13.613281 15.390625 -12.1875 L 15.390625 -3.34375 C 15.390625 -2.238281 15.554688 -1.5 15.890625 -1.125 C 16.234375 -0.75 16.90625 -0.550781 17.90625 -0.53125 L 17.90625 0 L 10.046875 0 L 10.046875 -0.53125 C 11.054688 -0.59375 11.707031 -0.773438 12 -1.078125 C 12.289062 -1.390625 12.4375 -2.035156 12.4375 -3.015625 L 12.4375 -10.640625 C 12.4375 -13.097656 11.660156 -14.328125 10.109375 -14.328125 C 9.503906 -14.328125 8.863281 -14.191406 8.1875 -13.921875 C 7.507812 -13.648438 6.945312 -13.316406 6.5 -12.921875 L 5.96875 -12.265625 L 5.96875 -2.359375 C 5.96875 -1.671875 6.128906 -1.203125 6.453125 -0.953125 C 6.785156 -0.710938 7.421875 -0.570312 8.359375 -0.53125 L 8.359375 0 L 0.5625 0 L 0.5625 -0.53125 C 1.539062 -0.550781 2.191406 -0.722656 2.515625 -1.046875 C 2.847656 -1.378906 3.015625 -2.023438 3.015625 -2.984375 L 3.015625 -11.875 C 3.015625 -12.71875 2.925781 -13.300781 2.75 -13.625 C 2.582031 -13.957031 2.265625 -14.125 1.796875 -14.125 C 1.441406 -14.125 1.066406 -14.078125 0.671875 -13.984375 L 0.671875 -14.578125 C 2.359375 -15.046875 3.992188 -15.570312 5.578125 -16.15625 L 5.828125 -16.09375 L 5.828125 -13.453125 C 7.285156 -14.554688 8.363281 -15.28125 9.0625 -15.625 C 9.757812 -15.976562 10.5 -16.15625 11.28125 -16.15625 C 13.125 -16.15625 14.363281 -15.171875 15 -13.203125 C 16.820312 -15.171875 18.726562 -16.15625 20.71875 -16.15625 C 23.4375 -16.15625 24.796875 -14.070312 24.796875 -9.90625 L 24.796875 -2.671875 C 24.796875 -1.359375 25.300781 -0.664062 26.3125 -0.59375 L 27.21875 -0.53125 Z M 27.21875 0 "/></g></g></g><g fill="#000000" fill-opacity="1"><g transform="translate(260.166024, 499.712668)"><g><path d="M 15.53125 -1.40625 C 14.914062 -0.726562 14.378906 -0.265625 13.921875 -0.015625 C 13.460938 0.222656 12.941406 0.34375 12.359375 0.34375 C 11.640625 0.34375 11.109375 0.148438 10.765625 -0.234375 C 10.421875 -0.617188 10.203125 -1.28125 10.109375 -2.21875 C 8.097656 -0.507812 6.390625 0.34375 4.984375 0.34375 C 3.910156 0.34375 3.023438 -0.00390625 2.328125 -0.703125 C 1.640625 -1.398438 1.296875 -2.300781 1.296875 -3.40625 C 1.296875 -4.664062 1.71875 -5.6875 2.5625 -6.46875 C 3.3125 -7.125 4.066406 -7.644531 4.828125 -8.03125 C 5.585938 -8.414062 7.335938 -9.15625 10.078125 -10.25 L 10.078125 -12.40625 C 10.078125 -14.34375 9.1875 -15.3125 7.40625 -15.3125 C 6.707031 -15.3125 6.109375 -15.140625 5.609375 -14.796875 C 5.117188 -14.460938 4.875 -14.0625 4.875 -13.59375 C 4.875 -13.332031 4.910156 -13.050781 4.984375 -12.75 C 5.035156 -12.425781 5.0625 -12.238281 5.0625 -12.1875 C 5.0625 -11.789062 4.898438 -11.445312 4.578125 -11.15625 C 4.265625 -10.863281 3.894531 -10.71875 3.46875 -10.71875 C 3.050781 -10.71875 2.695312 -10.867188 2.40625 -11.171875 C 2.113281 -11.472656 1.96875 -11.820312 1.96875 -12.21875 C 1.96875 -13.175781 2.445312 -14.054688 3.40625 -14.859375 C 4.457031 -15.722656 5.945312 -16.15625 7.875 -16.15625 C 10.050781 -16.15625 11.515625 -15.476562 12.265625 -14.125 C 12.703125 -13.394531 12.921875 -12.195312 12.921875 -10.53125 L 12.921875 -3.6875 C 12.921875 -2.914062 12.992188 -2.382812 13.140625 -2.09375 C 13.296875 -1.800781 13.578125 -1.65625 13.984375 -1.65625 C 14.472656 -1.65625 14.988281 -1.875 15.53125 -2.3125 Z M 10.078125 -4.328125 L 10.078125 -9.40625 C 7.972656 -8.632812 6.5 -7.882812 5.65625 -7.15625 C 4.8125 -6.4375 4.390625 -5.5625 4.390625 -4.53125 L 4.390625 -4.390625 C 4.390625 -3.640625 4.601562 -3 5.03125 -2.46875 C 5.46875 -1.945312 5.992188 -1.6875 6.609375 -1.6875 C 7.421875 -1.6875 8.273438 -1.941406 9.171875 -2.453125 C 9.546875 -2.691406 9.789062 -2.925781 9.90625 -3.15625 C 10.019531 -3.394531 10.078125 -3.785156 10.078125 -4.328125 Z M 10.078125 -4.328125 "/></g></g></g><g fill="#000000" fill-opacity="1"><g transform="translate(275.763727, 499.712668)"><g><path d="M 9.796875 -2.3125 C 8.671875 -0.539062 7.253906 0.34375 5.546875 0.34375 C 3.484375 0.34375 2.453125 -1.140625 2.453125 -4.109375 L 2.453125 -14.6875 L 0.59375 -14.6875 C 0.5 -14.75 0.453125 -14.828125 0.453125 -14.921875 C 0.453125 -15.109375 0.648438 -15.332031 1.046875 -15.59375 C 2.015625 -16.15625 3.148438 -17.410156 4.453125 -19.359375 C 4.785156 -19.773438 5.019531 -20.101562 5.15625 -20.34375 C 5.320312 -20.34375 5.40625 -20.1875 5.40625 -19.875 L 5.40625 -15.8125 L 8.953125 -15.8125 L 8.953125 -14.6875 L 5.40625 -14.6875 L 5.40625 -4.640625 C 5.40625 -3.515625 5.546875 -2.703125 5.828125 -2.203125 C 6.109375 -1.710938 6.578125 -1.46875 7.234375 -1.46875 C 7.941406 -1.46875 8.644531 -1.878906 9.34375 -2.703125 Z M 9.796875 -2.3125 "/></g></g></g><g fill="#000000" fill-opacity="1"><g transform="translate(285.529862, 499.712668)"><g><path d="M 8.890625 0 L 0.5625 0 L 0.5625 -0.53125 C 1.78125 -0.59375 2.546875 -0.800781 2.859375 -1.15625 C 3.179688 -1.507812 3.34375 -2.316406 3.34375 -3.578125 L 3.34375 -11.734375 C 3.34375 -12.503906 3.253906 -13.046875 3.078125 -13.359375 C 2.898438 -13.679688 2.597656 -13.84375 2.171875 -13.84375 C 1.796875 -13.84375 1.398438 -13.804688 0.984375 -13.734375 L 0.703125 -13.703125 L 0.703125 -14.21875 L 6.140625 -16.15625 L 6.28125 -16.046875 L 6.28125 -3.578125 C 6.28125 -2.316406 6.425781 -1.515625 6.71875 -1.171875 C 7.019531 -0.835938 7.742188 -0.625 8.890625 -0.53125 Z M 6.609375 -20.71875 C 6.609375 -20.207031 6.4375 -19.78125 6.09375 -19.4375 C 5.75 -19.101562 5.320312 -18.9375 4.8125 -18.9375 C 4.320312 -18.9375 3.898438 -19.101562 3.546875 -19.4375 C 3.191406 -19.78125 3.015625 -20.207031 3.015625 -20.71875 C 3.015625 -21.21875 3.191406 -21.640625 3.546875 -21.984375 C 3.898438 -22.335938 4.320312 -22.515625 4.8125 -22.515625 C 5.320312 -22.515625 5.75 -22.335938 6.09375 -21.984375 C 6.4375 -21.640625 6.609375 -21.21875 6.609375 -20.71875 Z M 6.609375 -20.71875 "/></g></g></g><g fill="#000000" fill-opacity="1"><g transform="translate(295.295998, 499.712668)"><g><path d="M 16.515625 -8.21875 C 16.515625 -5.78125 15.765625 -3.742188 14.265625 -2.109375 C 12.765625 -0.472656 10.910156 0.34375 8.703125 0.34375 C 6.503906 0.34375 4.671875 -0.441406 3.203125 -2.015625 C 1.742188 -3.597656 1.015625 -5.570312 1.015625 -7.9375 C 1.015625 -10.351562 1.734375 -12.328125 3.171875 -13.859375 C 4.617188 -15.390625 6.488281 -16.15625 8.78125 -16.15625 C 11.03125 -16.15625 12.878906 -15.40625 14.328125 -13.90625 C 15.785156 -12.40625 16.515625 -10.507812 16.515625 -8.21875 Z M 13.34375 -6.984375 C 13.34375 -9.398438 12.875 -11.367188 11.9375 -12.890625 C 11 -14.410156 9.796875 -15.171875 8.328125 -15.171875 C 7.085938 -15.171875 6.085938 -14.664062 5.328125 -13.65625 C 4.566406 -12.65625 4.1875 -11.320312 4.1875 -9.65625 C 4.1875 -7.0625 4.695312 -4.800781 5.71875 -2.875 C 6.519531 -1.375 7.65625 -0.625 9.125 -0.625 C 10.4375 -0.625 11.46875 -1.1875 12.21875 -2.3125 C 12.96875 -3.4375 13.34375 -4.992188 13.34375 -6.984375 Z M 13.34375 -6.984375 "/></g></g></g><g fill="#000000" fill-opacity="1"><g transform="translate(312.860985, 499.712668)"><g><path d="M 17.03125 0 L 9.734375 0 L 9.734375 -0.53125 C 10.617188 -0.59375 11.207031 -0.820312 11.5 -1.21875 C 11.789062 -1.625 11.9375 -2.378906 11.9375 -3.484375 L 11.9375 -10.8125 C 11.9375 -13.082031 11.082031 -14.21875 9.375 -14.21875 C 8.789062 -14.21875 8.253906 -14.082031 7.765625 -13.8125 C 7.273438 -13.550781 6.609375 -13.019531 5.765625 -12.21875 L 5.765625 -2.359375 C 5.765625 -1.722656 5.925781 -1.273438 6.25 -1.015625 C 6.582031 -0.753906 7.191406 -0.59375 8.078125 -0.53125 L 8.078125 0 L 0.625 0 L 0.625 -0.53125 C 1.519531 -0.59375 2.109375 -0.796875 2.390625 -1.140625 C 2.671875 -1.484375 2.8125 -2.15625 2.8125 -3.15625 L 2.8125 -11.875 C 2.8125 -12.738281 2.71875 -13.328125 2.53125 -13.640625 C 2.34375 -13.960938 2.003906 -14.125 1.515625 -14.125 C 1.066406 -14.125 0.75 -14.078125 0.5625 -13.984375 L 0.5625 -14.578125 C 2.289062 -15.085938 3.90625 -15.613281 5.40625 -16.15625 L 5.65625 -16.09375 L 5.65625 -13.3125 C 6.851562 -14.4375 7.796875 -15.191406 8.484375 -15.578125 C 9.171875 -15.960938 9.925781 -16.15625 10.75 -16.15625 C 12.039062 -16.15625 13.050781 -15.691406 13.78125 -14.765625 C 14.519531 -13.835938 14.890625 -12.546875 14.890625 -10.890625 L 14.890625 -2.84375 C 14.890625 -1.976562 15.03125 -1.398438 15.3125 -1.109375 C 15.59375 -0.816406 16.164062 -0.625 17.03125 -0.53125 Z M 17.03125 0 "/></g></g></g><g fill="#000000" fill-opacity="1"><g transform="translate(330.425972, 499.712668)"><g/></g></g><g fill="#000000" fill-opacity="1"><g transform="translate(339.208476, 499.712668)"><g><path d="M 12.21875 -4.140625 C 12.21875 -2.921875 11.734375 -1.867188 10.765625 -0.984375 C 9.796875 -0.0976562 8.644531 0.34375 7.3125 0.34375 C 6.675781 0.34375 5.804688 0.226562 4.703125 0 C 3.953125 -0.1875 3.414062 -0.28125 3.09375 -0.28125 C 2.738281 -0.28125 2.46875 -0.140625 2.28125 0.140625 L 1.828125 0.140625 L 1.828125 -5.34375 L 2.390625 -5.34375 C 2.785156 -3.5625 3.320312 -2.296875 4 -1.546875 C 4.675781 -0.796875 5.625 -0.421875 6.84375 -0.421875 C 7.738281 -0.421875 8.445312 -0.648438 8.96875 -1.109375 C 9.5 -1.566406 9.765625 -2.179688 9.765625 -2.953125 C 9.765625 -4.003906 9.15625 -4.878906 7.9375 -5.578125 L 5.90625 -6.75 C 4.40625 -7.613281 3.34375 -8.425781 2.71875 -9.1875 C 2.101562 -9.945312 1.796875 -10.816406 1.796875 -11.796875 C 1.796875 -13.085938 2.242188 -14.128906 3.140625 -14.921875 C 4.046875 -15.722656 5.210938 -16.125 6.640625 -16.125 C 7.503906 -16.125 8.300781 -15.984375 9.03125 -15.703125 C 9.375 -15.535156 9.6875 -15.453125 9.96875 -15.453125 C 10.0625 -15.453125 10.226562 -15.546875 10.46875 -15.734375 L 10.53125 -15.8125 L 10.921875 -15.8125 L 11.0625 -11.03125 L 10.53125 -11.03125 C 10.132812 -12.59375 9.644531 -13.703125 9.0625 -14.359375 C 8.476562 -15.015625 7.679688 -15.34375 6.671875 -15.34375 C 5.847656 -15.34375 5.191406 -15.125 4.703125 -14.6875 C 4.210938 -14.257812 3.96875 -13.6875 3.96875 -12.96875 C 3.96875 -11.957031 4.472656 -11.160156 5.484375 -10.578125 L 9.265625 -8.328125 C 10.347656 -7.691406 11.109375 -7.054688 11.546875 -6.421875 C 11.992188 -5.796875 12.21875 -5.035156 12.21875 -4.140625 Z M 12.21875 -4.140625 "/></g></g></g><g fill="#000000" fill-opacity="1"><g transform="translate(352.874048, 499.712668)"><g><path d="M 8.890625 0 L 0.5625 0 L 0.5625 -0.53125 C 1.78125 -0.59375 2.546875 -0.800781 2.859375 -1.15625 C 3.179688 -1.507812 3.34375 -2.316406 3.34375 -3.578125 L 3.34375 -11.734375 C 3.34375 -12.503906 3.253906 -13.046875 3.078125 -13.359375 C 2.898438 -13.679688 2.597656 -13.84375 2.171875 -13.84375 C 1.796875 -13.84375 1.398438 -13.804688 0.984375 -13.734375 L 0.703125 -13.703125 L 0.703125 -14.21875 L 6.140625 -16.15625 L 6.28125 -16.046875 L 6.28125 -3.578125 C 6.28125 -2.316406 6.425781 -1.515625 6.71875 -1.171875 C 7.019531 -0.835938 7.742188 -0.625 8.890625 -0.53125 Z M 6.609375 -20.71875 C 6.609375 -20.207031 6.4375 -19.78125 6.09375 -19.4375 C 5.75 -19.101562 5.320312 -18.9375 4.8125 -18.9375 C 4.320312 -18.9375 3.898438 -19.101562 3.546875 -19.4375 C 3.191406 -19.78125 3.015625 -20.207031 3.015625 -20.71875 C 3.015625 -21.21875 3.191406 -21.640625 3.546875 -21.984375 C 3.898438 -22.335938 4.320312 -22.515625 4.8125 -22.515625 C 5.320312 -22.515625 5.75 -22.335938 6.09375 -21.984375 C 6.4375 -21.640625 6.609375 -21.21875 6.609375 -20.71875 Z M 6.609375 -20.71875 "/></g></g></g><g fill="#000000" fill-opacity="1"><g transform="translate(362.640184, 499.712668)"><g><path d="M 9.03125 0 L 0.734375 0 L 0.734375 -0.53125 C 1.835938 -0.625 2.5625 -0.832031 2.90625 -1.15625 C 3.257812 -1.488281 3.4375 -2.125 3.4375 -3.0625 L 3.4375 -19.8125 C 3.4375 -20.632812 3.332031 -21.195312 3.125 -21.5 C 2.914062 -21.800781 2.53125 -21.953125 1.96875 -21.953125 C 1.757812 -21.953125 1.394531 -21.929688 0.875 -21.890625 L 0.671875 -21.890625 L 0.671875 -22.4375 C 2.984375 -23 4.84375 -23.515625 6.25 -23.984375 L 6.390625 -23.921875 L 6.390625 -2.953125 C 6.390625 -1.992188 6.546875 -1.363281 6.859375 -1.0625 C 7.179688 -0.769531 7.90625 -0.59375 9.03125 -0.53125 Z M 9.03125 0 "/></g></g></g><g fill="#000000" fill-opacity="1"><g transform="translate(372.406319, 499.712668)"><g><path d="M 16.515625 -8.21875 C 16.515625 -5.78125 15.765625 -3.742188 14.265625 -2.109375 C 12.765625 -0.472656 10.910156 0.34375 8.703125 0.34375 C 6.503906 0.34375 4.671875 -0.441406 3.203125 -2.015625 C 1.742188 -3.597656 1.015625 -5.570312 1.015625 -7.9375 C 1.015625 -10.351562 1.734375 -12.328125 3.171875 -13.859375 C 4.617188 -15.390625 6.488281 -16.15625 8.78125 -16.15625 C 11.03125 -16.15625 12.878906 -15.40625 14.328125 -13.90625 C 15.785156 -12.40625 16.515625 -10.507812 16.515625 -8.21875 Z M 13.34375 -6.984375 C 13.34375 -9.398438 12.875 -11.367188 11.9375 -12.890625 C 11 -14.410156 9.796875 -15.171875 8.328125 -15.171875 C 7.085938 -15.171875 6.085938 -14.664062 5.328125 -13.65625 C 4.566406 -12.65625 4.1875 -11.320312 4.1875 -9.65625 C 4.1875 -7.0625 4.695312 -4.800781 5.71875 -2.875 C 6.519531 -1.375 7.65625 -0.625 9.125 -0.625 C 10.4375 -0.625 11.46875 -1.1875 12.21875 -2.3125 C 12.96875 -3.4375 13.34375 -4.992188 13.34375 -6.984375 Z M 13.34375 -6.984375 "/></g></g></g><g fill="#000000" fill-opacity="1"><g transform="translate(389.971306, 499.712668)"><g><path d="M 12.21875 -4.140625 C 12.21875 -2.921875 11.734375 -1.867188 10.765625 -0.984375 C 9.796875 -0.0976562 8.644531 0.34375 7.3125 0.34375 C 6.675781 0.34375 5.804688 0.226562 4.703125 0 C 3.953125 -0.1875 3.414062 -0.28125 3.09375 -0.28125 C 2.738281 -0.28125 2.46875 -0.140625 2.28125 0.140625 L 1.828125 0.140625 L 1.828125 -5.34375 L 2.390625 -5.34375 C 2.785156 -3.5625 3.320312 -2.296875 4 -1.546875 C 4.675781 -0.796875 5.625 -0.421875 6.84375 -0.421875 C 7.738281 -0.421875 8.445312 -0.648438 8.96875 -1.109375 C 9.5 -1.566406 9.765625 -2.179688 9.765625 -2.953125 C 9.765625 -4.003906 9.15625 -4.878906 7.9375 -5.578125 L 5.90625 -6.75 C 4.40625 -7.613281 3.34375 -8.425781 2.71875 -9.1875 C 2.101562 -9.945312 1.796875 -10.816406 1.796875 -11.796875 C 1.796875 -13.085938 2.242188 -14.128906 3.140625 -14.921875 C 4.046875 -15.722656 5.210938 -16.125 6.640625 -16.125 C 7.503906 -16.125 8.300781 -15.984375 9.03125 -15.703125 C 9.375 -15.535156 9.6875 -15.453125 9.96875 -15.453125 C 10.0625 -15.453125 10.226562 -15.546875 10.46875 -15.734375 L 10.53125 -15.8125 L 10.921875 -15.8125 L 11.0625 -11.03125 L 10.53125 -11.03125 C 10.132812 -12.59375 9.644531 -13.703125 9.0625 -14.359375 C 8.476562 -15.015625 7.679688 -15.34375 6.671875 -15.34375 C 5.847656 -15.34375 5.191406 -15.125 4.703125 -14.6875 C 4.210938 -14.257812 3.96875 -13.6875 3.96875 -12.96875 C 3.96875 -11.957031 4.472656 -11.160156 5.484375 -10.578125 L 9.265625 -8.328125 C 10.347656 -7.691406 11.109375 -7.054688 11.546875 -6.421875 C 11.992188 -5.796875 12.21875 -5.035156 12.21875 -4.140625 Z M 12.21875 -4.140625 "/></g></g></g><g fill="#000000" fill-opacity="1"><g transform="translate(403.636878, 499.712668)"><g><path d="M 6.359375 -1.515625 C 6.359375 -0.992188 6.15625 -0.546875 5.75 -0.171875 C 5.351562 0.203125 4.890625 0.390625 4.359375 0.390625 C 3.835938 0.390625 3.390625 0.203125 3.015625 -0.171875 C 2.640625 -0.546875 2.453125 -0.992188 2.453125 -1.515625 C 2.453125 -2.046875 2.644531 -2.507812 3.03125 -2.90625 C 3.425781 -3.3125 3.878906 -3.515625 4.390625 -3.515625 C 4.929688 -3.515625 5.394531 -3.3125 5.78125 -2.90625 C 6.164062 -2.507812 6.359375 -2.046875 6.359375 -1.515625 Z M 6.359375 -1.515625 "/></g></g></g><g fill="#000000" fill-opacity="1"><g transform="translate(412.419382, 499.712668)"><g><path d="M 6.359375 -1.515625 C 6.359375 -0.992188 6.15625 -0.546875 5.75 -0.171875 C 5.351562 0.203125 4.890625 0.390625 4.359375 0.390625 C 3.835938 0.390625 3.390625 0.203125 3.015625 -0.171875 C 2.640625 -0.546875 2.453125 -0.992188 2.453125 -1.515625 C 2.453125 -2.046875 2.644531 -2.507812 3.03125 -2.90625 C 3.425781 -3.3125 3.878906 -3.515625 4.390625 -3.515625 C 4.929688 -3.515625 5.394531 -3.3125 5.78125 -2.90625 C 6.164062 -2.507812 6.359375 -2.046875 6.359375 -1.515625 Z M 6.359375 -1.515625 "/></g></g></g><g fill="#000000" fill-opacity="1"><g transform="translate(421.201886, 499.712668)"><g><path d="M 6.359375 -1.515625 C 6.359375 -0.992188 6.15625 -0.546875 5.75 -0.171875 C 5.351562 0.203125 4.890625 0.390625 4.359375 0.390625 C 3.835938 0.390625 3.390625 0.203125 3.015625 -0.171875 C 2.640625 -0.546875 2.453125 -0.992188 2.453125 -1.515625 C 2.453125 -2.046875 2.644531 -2.507812 3.03125 -2.90625 C 3.425781 -3.3125 3.878906 -3.515625 4.390625 -3.515625 C 4.929688 -3.515625 5.394531 -3.3125 5.78125 -2.90625 C 6.164062 -2.507812 6.359375 -2.046875 6.359375 -1.515625 Z M 6.359375 -1.515625 "/></g></g></g></svg>