<svg xmlns="http://www.w3.org/2000/svg" xmlns:xlink="http://www.w3.org/1999/xlink" width="857" zoomAndPan="magnify" viewBox="0 0 642.75 452.999989" height="604" preserveAspectRatio="xMidYMid meet" version="1.0"><defs><g/><clipPath id="27ce6c68a8"><path d="M 196.4375 75.285156 L 439.4375 75.285156 L 439.4375 318.285156 L 196.4375 318.285156 Z M 196.4375 75.285156 " clip-rule="nonzero"/></clipPath><clipPath id="efb701c17f"><path d="M 282 184 L 358 184 L 358 201 L 282 201 Z M 282 184 " clip-rule="nonzero"/></clipPath><clipPath id="0465349b98"><path d="M 342.59375 218.777344 L 280.902344 191.378906 L 296.125 157.105469 L 357.816406 184.503906 Z M 342.59375 218.777344 " clip-rule="nonzero"/></clipPath><clipPath id="50a5113d60"><path d="M 342.59375 218.777344 L 280.902344 191.378906 L 296.125 157.105469 L 357.816406 184.503906 Z M 342.59375 218.777344 " clip-rule="nonzero"/></clipPath></defs><g clip-path="url(#27ce6c68a8)"><path fill="#000000" d="M 317.9375 75.285156 C 250.9375 75.285156 196.4375 129.785156 196.4375 196.785156 C 196.4375 234.570312 213.480469 269.457031 243.144531 292.472656 C 260.222656 305.910156 280.546875 314.464844 301.777344 317.171875 C 307.035156 317.917969 312.484375 318.285156 317.9375 318.285156 C 323.386719 318.285156 328.835938 317.917969 333.957031 317.191406 C 355.324219 314.464844 375.648438 305.925781 392.691406 292.507812 C 422.410156 269.457031 439.4375 234.554688 439.4375 196.785156 C 439.4375 129.785156 384.917969 75.285156 317.9375 75.285156 Z M 387.363281 274.160156 L 387.363281 262.394531 C 387.363281 245.382812 356.292969 231.5 317.9375 231.5 C 279.578125 231.5 248.507812 245.382812 248.507812 262.394531 L 248.507812 274.160156 C 226.445312 254.53125 213.792969 226.777344 213.792969 196.785156 C 213.792969 139.347656 260.5 92.640625 317.9375 92.640625 C 375.371094 92.640625 422.078125 139.347656 422.078125 196.785156 C 422.078125 226.757812 409.441406 254.480469 387.363281 274.160156 Z M 387.363281 274.160156 " fill-opacity="1" fill-rule="nonzero"/></g><path fill="#000000" d="M 361.328125 170.75 C 361.328125 172.167969 361.257812 173.585938 361.121094 175 C 360.980469 176.414062 360.773438 177.820312 360.496094 179.214844 C 360.21875 180.609375 359.871094 181.984375 359.460938 183.34375 C 359.046875 184.703125 358.570312 186.039062 358.023438 187.355469 C 357.480469 188.667969 356.875 189.949219 356.203125 191.203125 C 355.535156 192.457031 354.804688 193.675781 354.015625 194.855469 C 353.226562 196.039062 352.378906 197.179688 351.480469 198.277344 C 350.578125 199.375 349.625 200.425781 348.617188 201.429688 C 347.613281 202.4375 346.5625 203.390625 345.464844 204.292969 C 344.363281 205.191406 343.226562 206.039062 342.042969 206.828125 C 340.863281 207.617188 339.644531 208.347656 338.390625 209.015625 C 337.136719 209.6875 335.855469 210.292969 334.542969 210.839844 C 333.226562 211.382812 331.890625 211.859375 330.53125 212.273438 C 329.171875 212.683594 327.796875 213.03125 326.402344 213.308594 C 325.007812 213.585938 323.601562 213.792969 322.1875 213.933594 C 320.773438 214.070312 319.355469 214.140625 317.9375 214.140625 C 316.515625 214.140625 315.097656 214.070312 313.683594 213.933594 C 312.269531 213.792969 310.863281 213.585938 309.46875 213.308594 C 308.078125 213.03125 306.699219 212.683594 305.339844 212.273438 C 303.980469 211.859375 302.644531 211.382812 301.328125 210.839844 C 300.015625 210.292969 298.734375 209.6875 297.480469 209.015625 C 296.226562 208.347656 295.007812 207.617188 293.828125 206.828125 C 292.644531 206.039062 291.507812 205.191406 290.40625 204.292969 C 289.308594 203.390625 288.257812 202.4375 287.253906 201.429688 C 286.246094 200.425781 285.292969 199.375 284.390625 198.277344 C 283.492188 197.179688 282.644531 196.039062 281.855469 194.855469 C 281.066406 193.675781 280.335938 192.457031 279.667969 191.203125 C 278.996094 189.949219 278.390625 188.667969 277.847656 187.355469 C 277.300781 186.039062 276.824219 184.703125 276.410156 183.34375 C 276 181.984375 275.652344 180.609375 275.375 179.214844 C 275.097656 177.820312 274.890625 176.414062 274.75 175 C 274.613281 173.585938 274.542969 172.167969 274.542969 170.75 C 274.542969 169.328125 274.613281 167.910156 274.75 166.496094 C 274.890625 165.082031 275.097656 163.675781 275.375 162.28125 C 275.652344 160.890625 276 159.511719 276.410156 158.152344 C 276.824219 156.792969 277.300781 155.457031 277.847656 154.140625 C 278.390625 152.828125 278.996094 151.546875 279.667969 150.292969 C 280.335938 149.039062 281.066406 147.820312 281.855469 146.640625 C 282.644531 145.457031 283.492188 144.320312 284.390625 143.21875 C 285.292969 142.121094 286.246094 141.070312 287.253906 140.066406 C 288.257812 139.058594 289.308594 138.105469 290.40625 137.207031 C 291.507812 136.304688 292.644531 135.457031 293.828125 134.667969 C 295.007812 133.878906 296.226562 133.148438 297.480469 132.480469 C 298.734375 131.808594 300.015625 131.203125 301.328125 130.660156 C 302.644531 130.113281 303.980469 129.636719 305.339844 129.222656 C 306.699219 128.8125 308.078125 128.464844 309.46875 128.1875 C 310.863281 127.910156 312.269531 127.703125 313.683594 127.5625 C 315.097656 127.425781 316.515625 127.355469 317.9375 127.355469 C 319.355469 127.355469 320.773438 127.425781 322.1875 127.5625 C 323.601562 127.703125 325.007812 127.910156 326.402344 128.1875 C 327.796875 128.464844 329.171875 128.8125 330.53125 129.222656 C 331.890625 129.636719 333.226562 130.113281 334.542969 130.660156 C 335.855469 131.203125 337.136719 131.808594 338.390625 132.480469 C 339.644531 133.148438 340.863281 133.878906 342.042969 134.667969 C 343.226562 135.457031 344.363281 136.304688 345.464844 137.207031 C 346.5625 138.105469 347.613281 139.058594 348.617188 140.066406 C 349.625 141.070312 350.578125 142.121094 351.480469 143.21875 C 352.378906 144.320312 353.226562 145.457031 354.015625 146.640625 C 354.804688 147.820312 355.535156 149.039062 356.203125 150.292969 C 356.875 151.546875 357.480469 152.828125 358.023438 154.140625 C 358.570312 155.457031 359.046875 156.792969 359.460938 158.152344 C 359.871094 159.511719 360.21875 160.890625 360.496094 162.28125 C 360.773438 163.675781 360.980469 165.082031 361.121094 166.496094 C 361.257812 167.910156 361.328125 169.328125 361.328125 170.75 Z M 361.328125 170.75 " fill-opacity="1" fill-rule="nonzero"/><g clip-path="url(#efb701c17f)"><g clip-path="url(#0465349b98)"><g clip-path="url(#50a5113d60)"><path fill="#ffffff" d="M 356.8125 184.105469 C 356.980469 184.179688 357.117188 184.292969 357.222656 184.4375 C 357.332031 184.585938 357.398438 184.75 357.417969 184.929688 C 357.441406 185.113281 357.414062 185.289062 357.34375 185.457031 C 357.273438 185.625 357.167969 185.765625 357.023438 185.878906 C 347.832031 193.027344 338.214844 197.644531 328.449219 199.59375 C 320.554688 201.175781 312.691406 201.039062 304.863281 199.179688 C 291.554688 196.054688 283.304688 189.183594 282.960938 188.890625 C 282.855469 188.804688 282.769531 188.699219 282.707031 188.574219 C 282.644531 188.453125 282.605469 188.324219 282.59375 188.183594 C 282.582031 188.046875 282.597656 187.914062 282.640625 187.78125 C 282.683594 187.652344 282.746094 187.53125 282.835938 187.425781 C 282.925781 187.320312 283.03125 187.238281 283.152344 187.171875 C 283.273438 187.109375 283.40625 187.070312 283.542969 187.058594 C 283.679688 187.046875 283.8125 187.0625 283.945312 187.105469 C 284.074219 187.144531 284.195312 187.210938 284.296875 187.300781 C 284.410156 187.390625 292.597656 194.1875 305.429688 197.175781 C 317.253906 199.933594 335.582031 199.921875 355.753906 184.234375 C 356.082031 183.980469 356.433594 183.9375 356.8125 184.105469 Z M 356.8125 184.105469 " fill-opacity="1" fill-rule="nonzero"/></g></g></g><g fill="#000000" fill-opacity="1"><g transform="translate(75.457892, 370.530529)"><g><path d="M 5.703125 -1.359375 C 5.703125 -0.890625 5.523438 -0.488281 5.171875 -0.15625 C 4.816406 0.175781 4.394531 0.34375 3.90625 0.34375 C 3.445312 0.34375 3.046875 0.175781 2.703125 -0.15625 C 2.367188 -0.488281 2.203125 -0.890625 2.203125 -1.359375 C 2.203125 -1.835938 2.375 -2.253906 2.71875 -2.609375 C 3.070312 -2.972656 3.476562 -3.15625 3.9375 -3.15625 C 4.425781 -3.15625 4.84375 -2.972656 5.1875 -2.609375 C 5.53125 -2.253906 5.703125 -1.835938 5.703125 -1.359375 Z M 5.703125 -1.359375 "/></g></g></g><g fill="#000000" fill-opacity="1"><g transform="translate(83.341668, 370.530529)"><g><path d="M 5.703125 -1.359375 C 5.703125 -0.890625 5.523438 -0.488281 5.171875 -0.15625 C 4.816406 0.175781 4.394531 0.34375 3.90625 0.34375 C 3.445312 0.34375 3.046875 0.175781 2.703125 -0.15625 C 2.367188 -0.488281 2.203125 -0.890625 2.203125 -1.359375 C 2.203125 -1.835938 2.375 -2.253906 2.71875 -2.609375 C 3.070312 -2.972656 3.476562 -3.15625 3.9375 -3.15625 C 4.425781 -3.15625 4.84375 -2.972656 5.1875 -2.609375 C 5.53125 -2.253906 5.703125 -1.835938 5.703125 -1.359375 Z M 5.703125 -1.359375 "/></g></g></g><g fill="#000000" fill-opacity="1"><g transform="translate(91.225445, 370.530529)"><g><path d="M 5.703125 -1.359375 C 5.703125 -0.890625 5.523438 -0.488281 5.171875 -0.15625 C 4.816406 0.175781 4.394531 0.34375 3.90625 0.34375 C 3.445312 0.34375 3.046875 0.175781 2.703125 -0.15625 C 2.367188 -0.488281 2.203125 -0.890625 2.203125 -1.359375 C 2.203125 -1.835938 2.375 -2.253906 2.71875 -2.609375 C 3.070312 -2.972656 3.476562 -3.15625 3.9375 -3.15625 C 4.425781 -3.15625 4.84375 -2.972656 5.1875 -2.609375 C 5.53125 -2.253906 5.703125 -1.835938 5.703125 -1.359375 Z M 5.703125 -1.359375 "/></g></g></g><g fill="#000000" fill-opacity="1"><g transform="translate(99.109222, 370.530529)"><g><path d="M 14.75 -7.65625 C 14.75 -5.40625 14.039062 -3.515625 12.625 -1.984375 C 11.207031 -0.453125 9.457031 0.3125 7.375 0.3125 C 6.113281 0.3125 4.929688 0.0976562 3.828125 -0.328125 C 2.722656 -0.765625 2.171875 -1.222656 2.171875 -1.703125 L 2.171875 -18.0625 C 2.171875 -18.71875 2.070312 -19.148438 1.875 -19.359375 C 1.675781 -19.566406 1.257812 -19.671875 0.625 -19.671875 C 0.394531 -19.671875 0.21875 -19.660156 0.09375 -19.640625 L 0.09375 -20.15625 L 1.015625 -20.40625 C 2.421875 -20.800781 3.640625 -21.175781 4.671875 -21.53125 L 4.828125 -21.46875 L 4.828125 -11.828125 C 5.140625 -12.597656 5.703125 -13.234375 6.515625 -13.734375 C 7.335938 -14.242188 8.234375 -14.5 9.203125 -14.5 C 10.785156 -14.5 12.101562 -13.84375 13.15625 -12.53125 C 14.21875 -11.21875 14.75 -9.59375 14.75 -7.65625 Z M 11.984375 -6.21875 C 11.984375 -8.125 11.617188 -9.648438 10.890625 -10.796875 C 10.171875 -11.941406 9.191406 -12.515625 7.953125 -12.515625 C 7.128906 -12.515625 6.398438 -12.269531 5.765625 -11.78125 C 5.140625 -11.300781 4.828125 -10.757812 4.828125 -10.15625 L 4.828125 -2.203125 C 4.828125 -1.804688 5.128906 -1.453125 5.734375 -1.140625 C 6.347656 -0.835938 7.066406 -0.6875 7.890625 -0.6875 C 9.191406 -0.6875 10.195312 -1.171875 10.90625 -2.140625 C 11.625 -3.109375 11.984375 -4.46875 11.984375 -6.21875 Z M 11.984375 -6.21875 "/></g></g></g><g fill="#000000" fill-opacity="1"><g transform="translate(114.876763, 370.530529)"><g><path d="M 15.109375 -1.140625 C 13.460938 -0.691406 12.019531 -0.21875 10.78125 0.28125 L 10.65625 0.21875 L 10.65625 -2.390625 L 9.296875 -1.046875 C 8.398438 -0.140625 7.316406 0.3125 6.046875 0.3125 C 4.890625 0.3125 3.960938 -0.0546875 3.265625 -0.796875 C 2.578125 -1.546875 2.234375 -2.539062 2.234375 -3.78125 L 2.234375 -11.734375 C 2.234375 -12.460938 2.097656 -12.96875 1.828125 -13.25 C 1.554688 -13.539062 1.039062 -13.707031 0.28125 -13.75 L 0.28125 -14.1875 L 4.890625 -14.1875 L 4.890625 -3.90625 C 4.890625 -3.257812 5.109375 -2.695312 5.546875 -2.21875 C 5.992188 -1.75 6.519531 -1.515625 7.125 -1.515625 C 8.132812 -1.515625 9.082031 -1.894531 9.96875 -2.65625 C 10.320312 -2.925781 10.5 -3.457031 10.5 -4.25 L 10.5 -11.671875 C 10.5 -12.441406 10.359375 -12.953125 10.078125 -13.203125 C 9.796875 -13.460938 9.160156 -13.613281 8.171875 -13.65625 L 8.171875 -14.1875 L 13.15625 -14.1875 L 13.15625 -3.375 C 13.15625 -2.632812 13.273438 -2.148438 13.515625 -1.921875 C 13.753906 -1.691406 14.234375 -1.578125 14.953125 -1.578125 L 15.109375 -1.578125 Z M 15.109375 -1.140625 "/></g></g></g><g fill="#000000" fill-opacity="1"><g transform="translate(130.644305, 370.530529)"><g><path d="M 8.796875 -2.078125 C 7.785156 -0.484375 6.515625 0.3125 4.984375 0.3125 C 3.128906 0.3125 2.203125 -1.019531 2.203125 -3.6875 L 2.203125 -13.1875 L 0.53125 -13.1875 C 0.445312 -13.25 0.40625 -13.320312 0.40625 -13.40625 C 0.40625 -13.570312 0.585938 -13.769531 0.953125 -14 C 1.804688 -14.5 2.820312 -15.625 4 -17.375 C 4.300781 -17.75 4.515625 -18.039062 4.640625 -18.25 C 4.785156 -18.25 4.859375 -18.113281 4.859375 -17.84375 L 4.859375 -14.1875 L 8.046875 -14.1875 L 8.046875 -13.1875 L 4.859375 -13.1875 L 4.859375 -4.15625 C 4.859375 -3.15625 4.984375 -2.429688 5.234375 -1.984375 C 5.484375 -1.546875 5.90625 -1.328125 6.5 -1.328125 C 7.125 -1.328125 7.753906 -1.691406 8.390625 -2.421875 Z M 8.796875 -2.078125 "/></g></g></g><g fill="#000000" fill-opacity="1"><g transform="translate(139.411062, 370.530529)"><g/></g></g><g fill="#000000" fill-opacity="1"><g transform="translate(147.294839, 370.530529)"><g><path d="M 15.484375 -5.296875 C 15.484375 -3.679688 14.867188 -2.320312 13.640625 -1.21875 C 12.410156 -0.113281 10.878906 0.4375 9.046875 0.4375 C 7.785156 0.4375 6.546875 0.195312 5.328125 -0.28125 C 4.703125 -0.507812 4.207031 -0.625 3.84375 -0.625 C 3.613281 -0.625 3.414062 -0.523438 3.25 -0.328125 C 3.082031 -0.128906 2.988281 0.113281 2.96875 0.40625 L 2.265625 0.40625 L 1.328125 -6.28125 L 2.046875 -6.28125 C 2.847656 -4.34375 3.757812 -2.925781 4.78125 -2.03125 C 5.800781 -1.132812 7.015625 -0.6875 8.421875 -0.6875 C 9.578125 -0.6875 10.507812 -1.015625 11.21875 -1.671875 C 11.9375 -2.328125 12.296875 -3.175781 12.296875 -4.21875 C 12.296875 -5 12.148438 -5.617188 11.859375 -6.078125 C 11.078125 -7.253906 9.507812 -8.488281 7.15625 -9.78125 C 5.394531 -10.695312 4.132812 -11.628906 3.375 -12.578125 C 2.613281 -13.523438 2.234375 -14.628906 2.234375 -15.890625 C 2.234375 -17.617188 2.84375 -18.984375 4.0625 -19.984375 C 5.15625 -20.867188 6.34375 -21.3125 7.625 -21.3125 C 8.675781 -21.3125 9.8125 -21.082031 11.03125 -20.625 C 11.601562 -20.375 12.066406 -20.25 12.421875 -20.25 C 12.972656 -20.25 13.3125 -20.601562 13.4375 -21.3125 L 14.09375 -21.3125 L 14.78125 -14.59375 L 14 -14.59375 C 13.582031 -16.175781 12.941406 -17.40625 12.078125 -18.28125 C 10.960938 -19.4375 9.679688 -20.015625 8.234375 -20.015625 C 7.242188 -20.015625 6.445312 -19.75 5.84375 -19.21875 C 5.25 -18.6875 4.953125 -17.988281 4.953125 -17.125 C 4.953125 -16.257812 5.304688 -15.445312 6.015625 -14.6875 C 6.734375 -13.9375 7.921875 -13.109375 9.578125 -12.203125 C 11.660156 -11.066406 13.164062 -9.957031 14.09375 -8.875 C 15.019531 -7.789062 15.484375 -6.597656 15.484375 -5.296875 Z M 15.484375 -5.296875 "/></g></g></g><g fill="#000000" fill-opacity="1"><g transform="translate(164.828341, 370.530529)"><g><path d="M 13.9375 -1.265625 C 13.382812 -0.648438 12.90625 -0.234375 12.5 -0.015625 C 12.09375 0.203125 11.625 0.3125 11.09375 0.3125 C 10.445312 0.3125 9.96875 0.140625 9.65625 -0.203125 C 9.351562 -0.546875 9.160156 -1.140625 9.078125 -1.984375 C 7.273438 -0.453125 5.742188 0.3125 4.484375 0.3125 C 3.515625 0.3125 2.71875 0 2.09375 -0.625 C 1.476562 -1.257812 1.171875 -2.070312 1.171875 -3.0625 C 1.171875 -4.195312 1.546875 -5.109375 2.296875 -5.796875 C 2.972656 -6.390625 3.648438 -6.859375 4.328125 -7.203125 C 5.015625 -7.546875 6.585938 -8.210938 9.046875 -9.203125 L 9.046875 -11.125 C 9.046875 -12.875 8.25 -13.75 6.65625 -13.75 C 6.019531 -13.75 5.484375 -13.59375 5.046875 -13.28125 C 4.609375 -12.976562 4.390625 -12.617188 4.390625 -12.203125 C 4.390625 -11.972656 4.421875 -11.722656 4.484375 -11.453125 C 4.523438 -11.148438 4.546875 -10.976562 4.546875 -10.9375 C 4.546875 -10.582031 4.398438 -10.269531 4.109375 -10 C 3.828125 -9.738281 3.492188 -9.609375 3.109375 -9.609375 C 2.734375 -9.609375 2.414062 -9.742188 2.15625 -10.015625 C 1.894531 -10.296875 1.765625 -10.613281 1.765625 -10.96875 C 1.765625 -11.832031 2.195312 -12.625 3.0625 -13.34375 C 4.007812 -14.113281 5.34375 -14.5 7.0625 -14.5 C 9.019531 -14.5 10.332031 -13.890625 11 -12.671875 C 11.40625 -12.023438 11.609375 -10.953125 11.609375 -9.453125 L 11.609375 -3.3125 C 11.609375 -2.613281 11.675781 -2.132812 11.8125 -1.875 C 11.945312 -1.613281 12.191406 -1.484375 12.546875 -1.484375 C 12.992188 -1.484375 13.457031 -1.679688 13.9375 -2.078125 Z M 9.046875 -3.875 L 9.046875 -8.453125 C 7.160156 -7.753906 5.835938 -7.078125 5.078125 -6.421875 C 4.316406 -5.773438 3.9375 -4.988281 3.9375 -4.0625 L 3.9375 -3.9375 C 3.9375 -3.269531 4.128906 -2.695312 4.515625 -2.21875 C 4.910156 -1.75 5.378906 -1.515625 5.921875 -1.515625 C 6.660156 -1.515625 7.429688 -1.742188 8.234375 -2.203125 C 8.566406 -2.410156 8.785156 -2.617188 8.890625 -2.828125 C 8.992188 -3.046875 9.046875 -3.394531 9.046875 -3.875 Z M 9.046875 -3.875 "/></g></g></g><g fill="#000000" fill-opacity="1"><g transform="translate(178.829922, 370.530529)"><g><path d="M 8.109375 0 L 0.65625 0 L 0.65625 -0.46875 C 1.644531 -0.550781 2.296875 -0.738281 2.609375 -1.03125 C 2.929688 -1.332031 3.09375 -1.90625 3.09375 -2.75 L 3.09375 -17.78125 C 3.09375 -18.519531 2.992188 -19.023438 2.796875 -19.296875 C 2.609375 -19.566406 2.265625 -19.703125 1.765625 -19.703125 C 1.578125 -19.703125 1.25 -19.679688 0.78125 -19.640625 L 0.59375 -19.640625 L 0.59375 -20.15625 C 2.675781 -20.65625 4.347656 -21.113281 5.609375 -21.53125 L 5.734375 -21.46875 L 5.734375 -2.65625 C 5.734375 -1.789062 5.875 -1.222656 6.15625 -0.953125 C 6.445312 -0.691406 7.097656 -0.53125 8.109375 -0.46875 Z M 8.109375 0 "/></g></g></g><g fill="#000000" fill-opacity="1"><g transform="translate(187.596679, 370.530529)"><g><path d="M 8.109375 0 L 0.65625 0 L 0.65625 -0.46875 C 1.644531 -0.550781 2.296875 -0.738281 2.609375 -1.03125 C 2.929688 -1.332031 3.09375 -1.90625 3.09375 -2.75 L 3.09375 -17.78125 C 3.09375 -18.519531 2.992188 -19.023438 2.796875 -19.296875 C 2.609375 -19.566406 2.265625 -19.703125 1.765625 -19.703125 C 1.578125 -19.703125 1.25 -19.679688 0.78125 -19.640625 L 0.59375 -19.640625 L 0.59375 -20.15625 C 2.675781 -20.65625 4.347656 -21.113281 5.609375 -21.53125 L 5.734375 -21.46875 L 5.734375 -2.65625 C 5.734375 -1.789062 5.875 -1.222656 6.15625 -0.953125 C 6.445312 -0.691406 7.097656 -0.53125 8.109375 -0.46875 Z M 8.109375 0 "/></g></g></g><g fill="#000000" fill-opacity="1"><g transform="translate(196.363435, 370.530529)"><g><path d="M 14.984375 -13.71875 C 14.597656 -13.675781 14.300781 -13.550781 14.09375 -13.34375 C 13.882812 -13.144531 13.675781 -12.796875 13.46875 -12.296875 L 8.609375 0.5625 C 7.765625 2.832031 6.925781 4.453125 6.09375 5.421875 C 5.269531 6.390625 4.332031 6.875 3.28125 6.875 C 2.601562 6.875 2.046875 6.695312 1.609375 6.34375 C 1.171875 6 0.953125 5.566406 0.953125 5.046875 C 0.953125 4.671875 1.085938 4.34375 1.359375 4.0625 C 1.628906 3.789062 1.941406 3.65625 2.296875 3.65625 C 2.785156 3.65625 3.34375 3.769531 3.96875 4 C 4.269531 4.144531 4.535156 4.21875 4.765625 4.21875 C 4.992188 4.21875 5.257812 4.082031 5.5625 3.8125 C 5.863281 3.539062 6.125 3.207031 6.34375 2.8125 C 6.613281 2.34375 6.890625 1.710938 7.171875 0.921875 C 7.453125 0.140625 7.59375 -0.363281 7.59375 -0.59375 C 7.59375 -0.8125 7.476562 -1.203125 7.25 -1.765625 L 2.046875 -12.734375 C 1.796875 -13.285156 1.257812 -13.625 0.4375 -13.75 L 0.4375 -14.1875 L 6.9375 -14.1875 L 6.9375 -13.71875 C 6.257812 -13.695312 5.785156 -13.625 5.515625 -13.5 C 5.242188 -13.375 5.109375 -13.160156 5.109375 -12.859375 C 5.109375 -12.546875 5.210938 -12.148438 5.421875 -11.671875 L 9.046875 -3.6875 L 12.109375 -12.390625 C 12.191406 -12.578125 12.234375 -12.753906 12.234375 -12.921875 C 12.234375 -13.453125 11.726562 -13.71875 10.71875 -13.71875 L 10.71875 -14.1875 L 14.984375 -14.1875 Z M 14.984375 -13.71875 "/></g></g></g><g fill="#000000" fill-opacity="1"><g transform="translate(212.130977, 370.530529)"><g/></g></g><g fill="#000000" fill-opacity="1"><g transform="translate(220.008654, 370.530529)"><g><path d="M 15.078125 -3.3125 C 14.109375 -1.945312 13.296875 -1.003906 12.640625 -0.484375 C 11.992188 0.0234375 11.269531 0.28125 10.46875 0.28125 C 10.050781 0.28125 9.710938 0.160156 9.453125 -0.078125 C 9.203125 -0.316406 9.078125 -0.640625 9.078125 -1.046875 C 9.078125 -1.398438 9.289062 -2.363281 9.71875 -3.9375 L 11.453125 -10.46875 C 11.597656 -11.050781 11.671875 -11.398438 11.671875 -11.515625 C 11.671875 -11.722656 11.578125 -11.90625 11.390625 -12.0625 C 11.210938 -12.21875 11.007812 -12.296875 10.78125 -12.296875 C 10.238281 -12.296875 9.492188 -11.863281 8.546875 -11 C 7.597656 -10.144531 6.710938 -9.09375 5.890625 -7.84375 C 5.265625 -6.882812 4.773438 -5.941406 4.421875 -5.015625 C 4.078125 -4.085938 3.59375 -2.414062 2.96875 0 L 0.59375 0 L 4.859375 -16.140625 C 4.960938 -16.628906 5.066406 -17.019531 5.171875 -17.3125 C 5.460938 -18.257812 5.609375 -18.972656 5.609375 -19.453125 C 5.609375 -19.679688 5.503906 -19.859375 5.296875 -19.984375 C 5.085938 -20.117188 4.882812 -20.191406 4.6875 -20.203125 C 4.488281 -20.210938 4.175781 -20.21875 3.75 -20.21875 C 3.644531 -20.21875 3.5625 -20.21875 3.5 -20.21875 L 3.5 -20.6875 C 5.09375 -20.875 6.742188 -21.15625 8.453125 -21.53125 L 8.609375 -21.375 L 4.828125 -7.25 C 7.640625 -11.6875 10.046875 -13.90625 12.046875 -13.90625 C 12.648438 -13.90625 13.144531 -13.707031 13.53125 -13.3125 C 13.925781 -12.925781 14.125 -12.421875 14.125 -11.796875 C 14.125 -10.890625 13.617188 -8.859375 12.609375 -5.703125 C 11.921875 -3.578125 11.578125 -2.265625 11.578125 -1.765625 C 11.578125 -1.390625 11.742188 -1.203125 12.078125 -1.203125 C 12.328125 -1.203125 12.609375 -1.351562 12.921875 -1.65625 C 13.242188 -1.957031 13.820312 -2.632812 14.65625 -3.6875 Z M 15.078125 -3.3125 "/></g></g></g><g fill="#000000" fill-opacity="1"><g transform="translate(235.776196, 370.530529)"><g><path d="M 15.015625 -3.15625 C 13.835938 -1.726562 12.96875 -0.789062 12.40625 -0.34375 C 11.851562 0.09375 11.257812 0.3125 10.625 0.3125 C 9.78125 0.3125 9.359375 -0.117188 9.359375 -0.984375 C 9.359375 -1.503906 9.601562 -2.710938 10.09375 -4.609375 C 8.707031 -2.648438 7.582031 -1.332031 6.71875 -0.65625 C 5.851562 0.0078125 4.863281 0.34375 3.75 0.34375 C 2.738281 0.34375 1.945312 0.0351562 1.375 -0.578125 C 0.8125 -1.203125 0.53125 -2.0625 0.53125 -3.15625 C 0.53125 -4.769531 0.988281 -6.421875 1.90625 -8.109375 C 2.820312 -9.804688 3.984375 -11.195312 5.390625 -12.28125 C 6.796875 -13.363281 8.179688 -13.90625 9.546875 -13.90625 C 10.960938 -13.90625 11.804688 -13.296875 12.078125 -12.078125 L 12.421875 -13.59375 L 12.515625 -13.6875 L 14.4375 -13.90625 L 14.65625 -13.8125 C 14.632812 -13.726562 14.570312 -13.507812 14.46875 -13.15625 C 12.601562 -6.34375 11.671875 -2.523438 11.671875 -1.703125 C 11.671875 -1.429688 11.816406 -1.296875 12.109375 -1.296875 C 12.359375 -1.296875 12.90625 -1.722656 13.75 -2.578125 L 14.625 -3.46875 Z M 11.515625 -11.28125 C 11.515625 -11.832031 11.347656 -12.285156 11.015625 -12.640625 C 10.691406 -13.003906 10.269531 -13.195312 9.75 -13.21875 C 8.394531 -13.320312 7.015625 -12.351562 5.609375 -10.3125 C 4.960938 -9.320312 4.394531 -8.160156 3.90625 -6.828125 C 3.425781 -5.492188 3.1875 -4.394531 3.1875 -3.53125 C 3.1875 -2.8125 3.347656 -2.242188 3.671875 -1.828125 C 3.992188 -1.410156 4.441406 -1.203125 5.015625 -1.203125 C 6.023438 -1.203125 6.9375 -1.660156 7.75 -2.578125 C 8.820312 -3.753906 9.71875 -5.164062 10.4375 -6.8125 C 11.15625 -8.46875 11.515625 -9.957031 11.515625 -11.28125 Z M 11.515625 -11.28125 "/></g></g></g><g fill="#000000" fill-opacity="1"><g transform="translate(251.543738, 370.530529)"><g><path d="M 9.578125 -3.75 C 9.578125 -2.550781 9.148438 -1.566406 8.296875 -0.796875 C 7.453125 -0.0351562 6.367188 0.34375 5.046875 0.34375 C 4.578125 0.34375 4 0.238281 3.3125 0.03125 C 2.550781 -0.15625 2.035156 -0.25 1.765625 -0.25 C 1.492188 -0.25 1.242188 -0.03125 1.015625 0.40625 L 0.5 0.40625 L 1.140625 -4.609375 L 1.640625 -4.609375 C 1.890625 -3.109375 2.265625 -2.015625 2.765625 -1.328125 C 3.273438 -0.648438 3.972656 -0.3125 4.859375 -0.3125 C 5.546875 -0.3125 6.101562 -0.535156 6.53125 -0.984375 C 6.96875 -1.441406 7.1875 -2.03125 7.1875 -2.75 C 7.1875 -3.625 6.597656 -4.832031 5.421875 -6.375 C 4.097656 -8.070312 3.4375 -9.425781 3.4375 -10.4375 C 3.4375 -11.488281 3.78125 -12.328125 4.46875 -12.953125 C 5.164062 -13.585938 6.09375 -13.90625 7.25 -13.90625 C 7.78125 -13.90625 8.367188 -13.800781 9.015625 -13.59375 C 9.585938 -13.445312 9.96875 -13.375 10.15625 -13.375 C 10.570312 -13.375 10.882812 -13.5625 11.09375 -13.9375 L 11.546875 -13.9375 L 10.90625 -9.546875 L 10.40625 -9.546875 C 10.09375 -11.972656 9.125 -13.1875 7.5 -13.1875 C 6.957031 -13.1875 6.523438 -13.03125 6.203125 -12.71875 C 5.890625 -12.414062 5.734375 -12.003906 5.734375 -11.484375 C 5.734375 -10.679688 6.300781 -9.578125 7.4375 -8.171875 C 8.863281 -6.398438 9.578125 -4.925781 9.578125 -3.75 Z M 9.578125 -3.75 "/></g></g></g><g fill="#000000" fill-opacity="1"><g transform="translate(263.801621, 370.530529)"><g/></g></g><g fill="#000000" fill-opacity="1"><g transform="translate(271.685397, 370.530529)"><g><path d="M 15.359375 0 L 8.671875 0 L 8.671875 -0.46875 C 9.578125 -0.550781 10.160156 -0.757812 10.421875 -1.09375 C 10.679688 -1.4375 10.8125 -2.144531 10.8125 -3.21875 L 10.8125 -9.453125 C 10.8125 -11.679688 10.023438 -12.796875 8.453125 -12.796875 C 7.835938 -12.796875 7.257812 -12.644531 6.71875 -12.34375 C 6.1875 -12.039062 5.597656 -11.53125 4.953125 -10.8125 L 4.953125 -3.21875 C 4.953125 -2.125 5.078125 -1.414062 5.328125 -1.09375 C 5.578125 -0.78125 6.164062 -0.570312 7.09375 -0.46875 L 7.09375 0 L 0.28125 0 L 0.28125 -0.46875 C 1.1875 -0.59375 1.75 -0.800781 1.96875 -1.09375 C 2.1875 -1.394531 2.296875 -2.101562 2.296875 -3.21875 L 2.296875 -18.0625 C 2.296875 -18.738281 2.195312 -19.175781 2 -19.375 C 1.800781 -19.570312 1.363281 -19.671875 0.6875 -19.671875 C 0.519531 -19.671875 0.394531 -19.660156 0.3125 -19.640625 L 0.3125 -20.15625 L 1.171875 -20.40625 C 2.597656 -20.800781 3.804688 -21.175781 4.796875 -21.53125 L 4.953125 -21.4375 L 4.953125 -11.859375 C 5.679688 -12.804688 6.40625 -13.484375 7.125 -13.890625 C 7.84375 -14.296875 8.660156 -14.5 9.578125 -14.5 C 12.171875 -14.5 13.46875 -12.828125 13.46875 -9.484375 L 13.46875 -3.21875 C 13.46875 -2.125 13.566406 -1.429688 13.765625 -1.140625 C 13.960938 -0.859375 14.492188 -0.632812 15.359375 -0.46875 Z M 15.359375 0 "/></g></g></g><g fill="#000000" fill-opacity="1"><g transform="translate(287.452939, 370.530529)"><g><path d="M 13.375 -4.953125 C 12 -1.441406 9.769531 0.3125 6.6875 0.3125 C 4.875 0.3125 3.4375 -0.320312 2.375 -1.59375 C 1.3125 -2.863281 0.78125 -4.582031 0.78125 -6.75 C 0.78125 -9.039062 1.390625 -10.90625 2.609375 -12.34375 C 3.835938 -13.78125 5.425781 -14.5 7.375 -14.5 C 9.0625 -14.5 10.410156 -13.898438 11.421875 -12.703125 C 12.109375 -11.816406 12.554688 -10.492188 12.765625 -8.734375 L 3.0625 -8.734375 C 3.125 -6.941406 3.4375 -5.492188 4 -4.390625 C 4.90625 -2.703125 6.234375 -1.859375 7.984375 -1.859375 C 8.984375 -1.859375 9.859375 -2.109375 10.609375 -2.609375 C 11.359375 -3.117188 12.109375 -3.972656 12.859375 -5.171875 Z M 9.546875 -9.75 C 9.335938 -11.113281 9.015625 -12.054688 8.578125 -12.578125 C 8.140625 -13.109375 7.4375 -13.375 6.46875 -13.375 C 4.570312 -13.375 3.457031 -12.164062 3.125 -9.75 Z M 9.546875 -9.75 "/></g></g></g><g fill="#000000" fill-opacity="1"><g transform="translate(301.45452, 370.530529)"><g><path d="M 13.9375 -1.265625 C 13.382812 -0.648438 12.90625 -0.234375 12.5 -0.015625 C 12.09375 0.203125 11.625 0.3125 11.09375 0.3125 C 10.445312 0.3125 9.96875 0.140625 9.65625 -0.203125 C 9.351562 -0.546875 9.160156 -1.140625 9.078125 -1.984375 C 7.273438 -0.453125 5.742188 0.3125 4.484375 0.3125 C 3.515625 0.3125 2.71875 0 2.09375 -0.625 C 1.476562 -1.257812 1.171875 -2.070312 1.171875 -3.0625 C 1.171875 -4.195312 1.546875 -5.109375 2.296875 -5.796875 C 2.972656 -6.390625 3.648438 -6.859375 4.328125 -7.203125 C 5.015625 -7.546875 6.585938 -8.210938 9.046875 -9.203125 L 9.046875 -11.125 C 9.046875 -12.875 8.25 -13.75 6.65625 -13.75 C 6.019531 -13.75 5.484375 -13.59375 5.046875 -13.28125 C 4.609375 -12.976562 4.390625 -12.617188 4.390625 -12.203125 C 4.390625 -11.972656 4.421875 -11.722656 4.484375 -11.453125 C 4.523438 -11.148438 4.546875 -10.976562 4.546875 -10.9375 C 4.546875 -10.582031 4.398438 -10.269531 4.109375 -10 C 3.828125 -9.738281 3.492188 -9.609375 3.109375 -9.609375 C 2.734375 -9.609375 2.414062 -9.742188 2.15625 -10.015625 C 1.894531 -10.296875 1.765625 -10.613281 1.765625 -10.96875 C 1.765625 -11.832031 2.195312 -12.625 3.0625 -13.34375 C 4.007812 -14.113281 5.34375 -14.5 7.0625 -14.5 C 9.019531 -14.5 10.332031 -13.890625 11 -12.671875 C 11.40625 -12.023438 11.609375 -10.953125 11.609375 -9.453125 L 11.609375 -3.3125 C 11.609375 -2.613281 11.675781 -2.132812 11.8125 -1.875 C 11.945312 -1.613281 12.191406 -1.484375 12.546875 -1.484375 C 12.992188 -1.484375 13.457031 -1.679688 13.9375 -2.078125 Z M 9.046875 -3.875 L 9.046875 -8.453125 C 7.160156 -7.753906 5.835938 -7.078125 5.078125 -6.421875 C 4.316406 -5.773438 3.9375 -4.988281 3.9375 -4.0625 L 3.9375 -3.9375 C 3.9375 -3.269531 4.128906 -2.695312 4.515625 -2.21875 C 4.910156 -1.75 5.378906 -1.515625 5.921875 -1.515625 C 6.660156 -1.515625 7.429688 -1.742188 8.234375 -2.203125 C 8.566406 -2.410156 8.785156 -2.617188 8.890625 -2.828125 C 8.992188 -3.046875 9.046875 -3.394531 9.046875 -3.875 Z M 9.046875 -3.875 "/></g></g></g><g fill="#000000" fill-opacity="1"><g transform="translate(315.456101, 370.530529)"><g><path d="M 10.5625 -12.828125 C 10.5625 -12.390625 10.453125 -12.046875 10.234375 -11.796875 C 10.015625 -11.546875 9.710938 -11.421875 9.328125 -11.421875 C 8.972656 -11.421875 8.554688 -11.628906 8.078125 -12.046875 C 7.734375 -12.359375 7.457031 -12.515625 7.25 -12.515625 C 6.832031 -12.515625 6.359375 -12.207031 5.828125 -11.59375 C 5.304688 -10.988281 5.046875 -10.4375 5.046875 -9.9375 L 5.046875 -2.84375 C 5.046875 -1.9375 5.222656 -1.320312 5.578125 -1 C 5.929688 -0.6875 6.644531 -0.507812 7.71875 -0.46875 L 7.71875 0 L 0.15625 0 L 0.15625 -0.46875 C 1.164062 -0.65625 1.789062 -0.863281 2.03125 -1.09375 C 2.269531 -1.332031 2.390625 -1.851562 2.390625 -2.65625 L 2.390625 -10.53125 C 2.390625 -11.226562 2.3125 -11.71875 2.15625 -12 C 2 -12.28125 1.722656 -12.421875 1.328125 -12.421875 C 0.984375 -12.421875 0.613281 -12.378906 0.21875 -12.296875 L 0.21875 -12.796875 C 1.90625 -13.347656 3.460938 -13.914062 4.890625 -14.5 L 5.046875 -14.4375 L 5.046875 -11.546875 C 5.828125 -12.660156 6.488281 -13.429688 7.03125 -13.859375 C 7.570312 -14.285156 8.171875 -14.5 8.828125 -14.5 C 9.378906 -14.5 9.804688 -14.351562 10.109375 -14.0625 C 10.410156 -13.769531 10.5625 -13.359375 10.5625 -12.828125 Z M 10.5625 -12.828125 "/></g></g></g><g fill="#000000" fill-opacity="1"><g transform="translate(325.95729, 370.530529)"><g><path d="M 15.484375 -1.328125 L 10.84375 0.3125 L 10.71875 0.21875 L 10.71875 -1.796875 C 9.707031 -0.390625 8.363281 0.3125 6.6875 0.3125 C 4.9375 0.3125 3.523438 -0.3125 2.453125 -1.5625 C 1.378906 -2.8125 0.84375 -4.445312 0.84375 -6.46875 C 0.84375 -8.695312 1.484375 -10.59375 2.765625 -12.15625 C 4.054688 -13.71875 5.601562 -14.5 7.40625 -14.5 C 8.539062 -14.5 9.644531 -14.050781 10.71875 -13.15625 L 10.71875 -18.0625 C 10.71875 -18.71875 10.625 -19.148438 10.4375 -19.359375 C 10.25 -19.566406 9.859375 -19.671875 9.265625 -19.671875 C 8.972656 -19.671875 8.742188 -19.660156 8.578125 -19.640625 L 8.578125 -20.15625 C 10.492188 -20.65625 12.039062 -21.113281 13.21875 -21.53125 L 13.375 -21.46875 L 13.375 -3.59375 C 13.375 -2.851562 13.460938 -2.367188 13.640625 -2.140625 C 13.816406 -1.910156 14.1875 -1.796875 14.75 -1.796875 C 14.863281 -1.796875 15.109375 -1.804688 15.484375 -1.828125 Z M 10.71875 -3.21875 L 10.71875 -10.46875 C 10.71875 -11.3125 10.390625 -12.046875 9.734375 -12.671875 C 9.085938 -13.304688 8.34375 -13.625 7.5 -13.625 C 6.300781 -13.625 5.34375 -13.085938 4.625 -12.015625 C 3.914062 -10.941406 3.5625 -9.507812 3.5625 -7.71875 C 3.5625 -5.789062 3.957031 -4.242188 4.75 -3.078125 C 5.550781 -1.910156 6.609375 -1.328125 7.921875 -1.328125 C 8.859375 -1.328125 9.613281 -1.640625 10.1875 -2.265625 C 10.539062 -2.671875 10.71875 -2.988281 10.71875 -3.21875 Z M 10.71875 -3.21875 "/></g></g></g><g fill="#000000" fill-opacity="1"><g transform="translate(341.724832, 370.530529)"><g/></g></g><g fill="#000000" fill-opacity="1"><g transform="translate(349.608608, 370.530529)"><g><path d="M 14.8125 -7.375 C 14.8125 -5.1875 14.140625 -3.359375 12.796875 -1.890625 C 11.453125 -0.421875 9.789062 0.3125 7.8125 0.3125 C 5.84375 0.3125 4.203125 -0.394531 2.890625 -1.8125 C 1.578125 -3.226562 0.921875 -5 0.921875 -7.125 C 0.921875 -9.289062 1.566406 -11.0625 2.859375 -12.4375 C 4.148438 -13.8125 5.828125 -14.5 7.890625 -14.5 C 9.898438 -14.5 11.554688 -13.828125 12.859375 -12.484375 C 14.160156 -11.140625 14.8125 -9.4375 14.8125 -7.375 Z M 11.984375 -6.28125 C 11.984375 -8.4375 11.5625 -10.195312 10.71875 -11.5625 C 9.875 -12.9375 8.789062 -13.625 7.46875 -13.625 C 6.351562 -13.625 5.453125 -13.171875 4.765625 -12.265625 C 4.085938 -11.359375 3.75 -10.160156 3.75 -8.671875 C 3.75 -6.335938 4.210938 -4.304688 5.140625 -2.578125 C 5.859375 -1.234375 6.878906 -0.5625 8.203125 -0.5625 C 9.378906 -0.5625 10.300781 -1.066406 10.96875 -2.078125 C 11.644531 -3.085938 11.984375 -4.488281 11.984375 -6.28125 Z M 11.984375 -6.28125 "/></g></g></g><g fill="#000000" fill-opacity="1"><g transform="translate(365.37615, 370.530529)"><g><path d="M 12.078125 -19.578125 C 12.078125 -19.222656 11.945312 -18.914062 11.6875 -18.65625 C 11.4375 -18.40625 11.125 -18.28125 10.75 -18.28125 C 10.25 -18.28125 9.773438 -18.660156 9.328125 -19.421875 C 8.828125 -20.242188 8.269531 -20.65625 7.65625 -20.65625 C 6.457031 -20.65625 5.859375 -19.71875 5.859375 -17.84375 L 5.859375 -14.1875 L 9.75 -14.1875 L 9.75 -13.1875 L 5.890625 -13.1875 L 5.890625 -3.28125 C 5.890625 -2.101562 6.054688 -1.347656 6.390625 -1.015625 C 6.734375 -0.691406 7.546875 -0.507812 8.828125 -0.46875 L 8.828125 0 L 0.625 0 L 0.625 -0.46875 C 1.757812 -0.53125 2.476562 -0.722656 2.78125 -1.046875 C 3.09375 -1.378906 3.25 -2.125 3.25 -3.28125 L 3.25 -13.1875 L 0.65625 -13.1875 L 0.65625 -14.1875 L 3.25 -14.1875 C 3.269531 -15.445312 3.351562 -16.425781 3.5 -17.125 C 3.644531 -17.832031 3.925781 -18.546875 4.34375 -19.265625 C 5.226562 -20.773438 6.710938 -21.53125 8.796875 -21.53125 C 9.742188 -21.53125 10.523438 -21.347656 11.140625 -20.984375 C 11.765625 -20.617188 12.078125 -20.148438 12.078125 -19.578125 Z M 12.078125 -19.578125 "/></g></g></g><g fill="#000000" fill-opacity="1"><g transform="translate(375.877339, 370.530529)"><g/></g></g><g fill="#000000" fill-opacity="1"><g transform="translate(383.761116, 370.530529)"><g><path d="M 22.265625 0 L 14.21875 0 L 14.21875 -0.59375 C 15.082031 -0.59375 15.671875 -0.691406 15.984375 -0.890625 C 16.273438 -1.035156 16.421875 -1.285156 16.421875 -1.640625 C 16.421875 -2.140625 16.222656 -2.851562 15.828125 -3.78125 L 14.53125 -6.8125 L 6.28125 -6.8125 L 4.828125 -3.125 C 4.660156 -2.675781 4.578125 -2.265625 4.578125 -1.890625 C 4.578125 -1.023438 5.289062 -0.59375 6.71875 -0.59375 L 6.71875 0 L 0.46875 0 L 0.46875 -0.59375 C 1.226562 -0.632812 1.816406 -0.929688 2.234375 -1.484375 C 2.660156 -2.046875 3.378906 -3.472656 4.390625 -5.765625 L 10.9375 -21.25 L 11.578125 -21.25 L 19.421875 -3.34375 C 19.972656 -2.164062 20.40625 -1.421875 20.71875 -1.109375 C 21.03125 -0.804688 21.546875 -0.632812 22.265625 -0.59375 Z M 14.09375 -8.109375 L 10.4375 -16.78125 L 6.8125 -8.109375 Z M 14.09375 -8.109375 "/></g></g></g><g fill="#000000" fill-opacity="1"><g transform="translate(406.529443, 370.530529)"><g><path d="M 22.109375 5.578125 L 21.921875 5.578125 C 21.679688 5.597656 21.3125 5.609375 20.8125 5.609375 C 15.707031 5.609375 12.050781 4.328125 9.84375 1.765625 L 8.359375 0.03125 C 7.242188 -0.34375 6.375 -0.71875 5.75 -1.09375 C 5.132812 -1.476562 4.507812 -2.007812 3.875 -2.6875 C 2.007812 -4.71875 1.078125 -7.28125 1.078125 -10.375 C 1.078125 -13.570312 2.039062 -16.191406 3.96875 -18.234375 C 5.90625 -20.285156 8.375 -21.3125 11.375 -21.3125 C 14.382812 -21.3125 16.851562 -20.289062 18.78125 -18.25 C 20.71875 -16.21875 21.6875 -13.613281 21.6875 -10.4375 C 21.6875 -6.90625 20.507812 -4.085938 18.15625 -1.984375 C 17.425781 -1.359375 16.722656 -0.882812 16.046875 -0.5625 C 15.378906 -0.25 14.507812 0.0078125 13.4375 0.21875 C 14.71875 1.90625 16.035156 3.125 17.390625 3.875 C 18.742188 4.632812 20.316406 5.015625 22.109375 5.015625 Z M 18.09375 -10.5 C 18.09375 -12.289062 17.851562 -13.898438 17.375 -15.328125 C 16.894531 -16.753906 16.234375 -17.847656 15.390625 -18.609375 C 14.210938 -19.660156 12.910156 -20.1875 11.484375 -20.1875 C 9.691406 -20.1875 8.15625 -19.5 6.875 -18.125 C 6.21875 -17.394531 5.6875 -16.328125 5.28125 -14.921875 C 4.875 -13.523438 4.671875 -12.070312 4.671875 -10.5625 C 4.671875 -8.707031 4.90625 -7.039062 5.375 -5.5625 C 5.84375 -4.082031 6.5 -2.972656 7.34375 -2.234375 C 8.5 -1.203125 9.84375 -0.6875 11.375 -0.6875 C 13.1875 -0.6875 14.703125 -1.363281 15.921875 -2.71875 C 16.554688 -3.445312 17.078125 -4.535156 17.484375 -5.984375 C 17.890625 -7.441406 18.09375 -8.945312 18.09375 -10.5 Z M 18.09375 -10.5 "/></g></g></g><g fill="#000000" fill-opacity="1"><g transform="translate(429.297769, 370.530529)"><g><path d="M 22.234375 -20.28125 C 20.929688 -20.101562 20.109375 -19.785156 19.765625 -19.328125 C 19.429688 -18.867188 19.265625 -17.835938 19.265625 -16.234375 L 19.265625 -8.015625 C 19.265625 -5.765625 18.914062 -4.03125 18.21875 -2.8125 C 16.976562 -0.644531 14.632812 0.4375 11.1875 0.4375 C 8.5 0.4375 6.507812 -0.21875 5.21875 -1.53125 C 3.925781 -2.84375 3.28125 -4.863281 3.28125 -7.59375 L 3.28125 -17.4375 C 3.28125 -18.59375 3.113281 -19.328125 2.78125 -19.640625 C 2.457031 -19.953125 1.675781 -20.164062 0.4375 -20.28125 L 0.4375 -20.875 L 9.359375 -20.875 L 9.359375 -20.28125 C 8.097656 -20.164062 7.304688 -19.945312 6.984375 -19.625 C 6.660156 -19.300781 6.5 -18.570312 6.5 -17.4375 L 6.5 -7.34375 C 6.5 -5.5 6.757812 -4.113281 7.28125 -3.1875 C 8.144531 -1.695312 9.691406 -0.953125 11.921875 -0.953125 C 13.097656 -0.953125 14.15625 -1.175781 15.09375 -1.625 C 16.039062 -2.070312 16.726562 -2.675781 17.15625 -3.4375 C 17.632812 -4.34375 17.875 -5.769531 17.875 -7.71875 L 17.875 -16.234375 C 17.875 -17.816406 17.6875 -18.863281 17.3125 -19.375 C 16.9375 -19.894531 16.140625 -20.195312 14.921875 -20.28125 L 14.921875 -20.875 L 22.234375 -20.875 Z M 22.234375 -20.28125 "/></g></g></g><g fill="#000000" fill-opacity="1"><g transform="translate(452.066096, 370.530529)"><g><path d="M 22.265625 0 L 14.21875 0 L 14.21875 -0.59375 C 15.082031 -0.59375 15.671875 -0.691406 15.984375 -0.890625 C 16.273438 -1.035156 16.421875 -1.285156 16.421875 -1.640625 C 16.421875 -2.140625 16.222656 -2.851562 15.828125 -3.78125 L 14.53125 -6.8125 L 6.28125 -6.8125 L 4.828125 -3.125 C 4.660156 -2.675781 4.578125 -2.265625 4.578125 -1.890625 C 4.578125 -1.023438 5.289062 -0.59375 6.71875 -0.59375 L 6.71875 0 L 0.46875 0 L 0.46875 -0.59375 C 1.226562 -0.632812 1.816406 -0.929688 2.234375 -1.484375 C 2.660156 -2.046875 3.378906 -3.472656 4.390625 -5.765625 L 10.9375 -21.25 L 11.578125 -21.25 L 19.421875 -3.34375 C 19.972656 -2.164062 20.40625 -1.421875 20.71875 -1.109375 C 21.03125 -0.804688 21.546875 -0.632812 22.265625 -0.59375 Z M 14.09375 -8.109375 L 10.4375 -16.78125 L 6.8125 -8.109375 Z M 14.09375 -8.109375 "/></g></g></g><g fill="#000000" fill-opacity="1"><g transform="translate(474.834423, 370.530529)"><g><path d="M 21.984375 -20.28125 C 21.222656 -20.238281 20.675781 -20.046875 20.34375 -19.703125 C 20.019531 -19.367188 19.597656 -18.582031 19.078125 -17.34375 L 12.078125 0.34375 L 11.609375 0.34375 L 3.84375 -16.96875 C 3.175781 -18.375 2.644531 -19.269531 2.25 -19.65625 C 1.863281 -20.050781 1.28125 -20.257812 0.5 -20.28125 L 0.5 -20.875 L 8.890625 -20.875 L 8.890625 -20.28125 C 8.304688 -20.238281 8.003906 -20.21875 7.984375 -20.21875 C 7.015625 -20.144531 6.53125 -19.816406 6.53125 -19.234375 C 6.53125 -18.816406 6.957031 -17.648438 7.8125 -15.734375 L 12.578125 -5.078125 L 17.21875 -16.65625 C 17.613281 -17.65625 17.8125 -18.421875 17.8125 -18.953125 C 17.8125 -19.390625 17.644531 -19.707031 17.3125 -19.90625 C 16.976562 -20.113281 16.378906 -20.238281 15.515625 -20.28125 L 15.515625 -20.875 L 21.984375 -20.875 Z M 21.984375 -20.28125 "/></g></g></g><g fill="#000000" fill-opacity="1"><g transform="translate(497.602738, 370.530529)"><g><path d="M 9.9375 0 L 0.5625 0 L 0.5625 -0.59375 C 1.882812 -0.632812 2.722656 -0.820312 3.078125 -1.15625 C 3.441406 -1.5 3.625 -2.257812 3.625 -3.4375 L 3.625 -17.4375 C 3.625 -18.59375 3.445312 -19.332031 3.09375 -19.65625 C 2.75 -19.988281 1.90625 -20.195312 0.5625 -20.28125 L 0.5625 -20.875 L 9.9375 -20.875 L 9.9375 -20.28125 C 8.613281 -20.21875 7.765625 -20.015625 7.390625 -19.671875 C 7.023438 -19.335938 6.84375 -18.59375 6.84375 -17.4375 L 6.84375 -3.4375 C 6.84375 -2.28125 7.03125 -1.523438 7.40625 -1.171875 C 7.789062 -0.828125 8.632812 -0.632812 9.9375 -0.59375 Z M 9.9375 0 "/></g></g></g><g fill="#000000" fill-opacity="1"><g transform="translate(508.103927, 370.530529)"><g><path d="M 18.828125 -5.328125 L 17.40625 0 L 0.375 0 L 0.375 -0.59375 C 1.53125 -0.675781 2.273438 -0.890625 2.609375 -1.234375 C 2.953125 -1.585938 3.125 -2.320312 3.125 -3.4375 L 3.125 -17.4375 C 3.125 -18.550781 2.957031 -19.273438 2.625 -19.609375 C 2.300781 -19.941406 1.550781 -20.164062 0.375 -20.28125 L 0.375 -20.875 L 17.125 -20.875 L 17.21875 -16.359375 L 16.421875 -16.359375 C 16.148438 -17.773438 15.726562 -18.679688 15.15625 -19.078125 C 14.59375 -19.472656 13.421875 -19.671875 11.640625 -19.671875 L 7.375 -19.671875 C 6.957031 -19.671875 6.679688 -19.601562 6.546875 -19.46875 C 6.410156 -19.332031 6.34375 -19.046875 6.34375 -18.609375 L 6.34375 -11.609375 L 11.1875 -11.609375 C 12.46875 -11.609375 13.3125 -11.785156 13.71875 -12.140625 C 14.132812 -12.492188 14.445312 -13.3125 14.65625 -14.59375 L 15.390625 -14.59375 L 15.390625 -7.28125 L 14.65625 -7.28125 C 14.445312 -8.582031 14.144531 -9.410156 13.75 -9.765625 C 13.351562 -10.128906 12.5 -10.3125 11.1875 -10.3125 L 6.34375 -10.3125 L 6.34375 -2.515625 C 6.34375 -1.953125 6.425781 -1.617188 6.59375 -1.515625 C 6.882812 -1.285156 7.90625 -1.171875 9.65625 -1.171875 L 10.5 -1.171875 C 12.75 -1.171875 14.359375 -1.4375 15.328125 -1.96875 C 16.296875 -2.507812 17.164062 -3.628906 17.9375 -5.328125 Z M 18.828125 -5.328125 "/></g></g></g><g fill="#000000" fill-opacity="1"><g transform="translate(527.371861, 370.530529)"><g><path d="M 29.390625 -20.28125 C 28.546875 -20.101562 27.972656 -19.890625 27.671875 -19.640625 C 27.367188 -19.390625 27.066406 -18.851562 26.765625 -18.03125 L 20.34375 0.34375 L 19.859375 0.34375 L 14.8125 -12.984375 L 9.96875 0.34375 L 9.484375 0.34375 L 3.40625 -16.578125 C 2.8125 -18.078125 2.320312 -19.046875 1.9375 -19.484375 C 1.550781 -19.929688 0.957031 -20.195312 0.15625 -20.28125 L 0.15625 -20.875 L 7.890625 -20.875 L 7.890625 -20.28125 C 7.085938 -20.238281 6.539062 -20.144531 6.25 -20 C 5.96875 -19.863281 5.828125 -19.617188 5.828125 -19.265625 C 5.828125 -18.890625 5.945312 -18.40625 6.1875 -17.8125 L 10.71875 -5.953125 L 14.09375 -14.84375 L 13.046875 -17.4375 C 12.503906 -18.695312 12.0625 -19.476562 11.71875 -19.78125 C 11.382812 -20.09375 10.769531 -20.257812 9.875 -20.28125 L 9.875 -20.875 L 18.28125 -20.875 L 18.28125 -20.28125 C 16.664062 -20.257812 15.859375 -19.890625 15.859375 -19.171875 C 15.859375 -18.835938 16.015625 -18.300781 16.328125 -17.5625 L 16.71875 -16.609375 L 20.875 -5.859375 L 24.8125 -16.546875 C 25.144531 -17.492188 25.3125 -18.285156 25.3125 -18.921875 C 25.3125 -19.335938 25.148438 -19.644531 24.828125 -19.84375 C 24.503906 -20.050781 23.941406 -20.195312 23.140625 -20.28125 L 23.140625 -20.875 L 29.390625 -20.875 Z M 29.390625 -20.28125 "/></g></g></g><g fill="#000000" fill-opacity="1"><g transform="translate(557.140984, 370.530529)"><g><path d="M 7.4375 -18.796875 C 7.4375 -18.515625 7.414062 -18.125 7.375 -17.625 L 5.953125 -5.546875 L 5.546875 -5.546875 L 5.265625 -8.953125 C 5.179688 -10.066406 5.003906 -11.519531 4.734375 -13.3125 C 4.304688 -16.0625 4.09375 -17.921875 4.09375 -18.890625 C 4.09375 -19.617188 4.238281 -20.203125 4.53125 -20.640625 C 4.832031 -21.085938 5.242188 -21.3125 5.765625 -21.3125 C 6.878906 -21.3125 7.4375 -20.472656 7.4375 -18.796875 Z M 6.96875 -2.578125 C 7.300781 -2.242188 7.46875 -1.832031 7.46875 -1.34375 C 7.46875 -0.863281 7.304688 -0.472656 6.984375 -0.171875 C 6.660156 0.128906 6.242188 0.28125 5.734375 0.28125 C 5.273438 0.28125 4.882812 0.128906 4.5625 -0.171875 C 4.25 -0.472656 4.09375 -0.863281 4.09375 -1.34375 C 4.09375 -1.832031 4.253906 -2.242188 4.578125 -2.578125 C 4.910156 -2.921875 5.304688 -3.09375 5.765625 -3.09375 C 6.234375 -3.09375 6.632812 -2.921875 6.96875 -2.578125 Z M 6.96875 -2.578125 "/></g></g></g></svg>