<svg xmlns="http://www.w3.org/2000/svg" xmlns:xlink="http://www.w3.org/1999/xlink" width="562" zoomAndPan="magnify" viewBox="0 0 421.5 422.250001" height="563" preserveAspectRatio="xMidYMid meet" version="1.0"><defs><clipPath id="a766ff7d5d"><path d="M 75.359375 75.277344 L 346.699219 75.277344 L 346.699219 346.617188 L 75.359375 346.617188 Z M 75.359375 75.277344 " clip-rule="nonzero"/></clipPath><clipPath id="bd9ef72cd7"><path d="M 175 198 L 246 198 L 246 214 L 175 214 Z M 175 198 " clip-rule="nonzero"/></clipPath><clipPath id="7f27e1a73c"><path d="M 190.371094 180.945312 L 247.367188 209.417969 L 231.625 240.933594 L 174.625 212.460938 Z M 190.371094 180.945312 " clip-rule="nonzero"/></clipPath><clipPath id="3775e081e2"><path d="M 190.371094 180.945312 L 247.367188 209.417969 L 231.625 240.933594 L 174.625 212.460938 Z M 190.371094 180.945312 " clip-rule="nonzero"/></clipPath><clipPath id="bcc44febab"><path d="M 190.371094 180.945312 L 247.367188 209.417969 L 231.625 240.933594 L 174.625 212.460938 Z M 190.371094 180.945312 " clip-rule="nonzero"/></clipPath></defs><g clip-path="url(#a766ff7d5d)"><path fill="#000000" d="M 211.027344 75.277344 C 136.214844 75.277344 75.359375 136.136719 75.359375 210.949219 C 75.359375 253.140625 94.390625 292.097656 127.511719 317.796875 C 146.585938 332.796875 169.28125 342.355469 192.984375 345.378906 C 198.855469 346.210938 204.941406 346.617188 211.027344 346.617188 C 217.113281 346.617188 223.199219 346.210938 228.917969 345.398438 C 252.777344 342.355469 275.472656 332.816406 294.503906 317.835938 C 327.683594 292.097656 346.699219 253.121094 346.699219 210.949219 C 346.699219 136.136719 285.820312 75.277344 211.027344 75.277344 Z M 288.554688 297.351562 L 288.554688 284.210938 C 288.554688 265.214844 253.859375 249.710938 211.027344 249.710938 C 168.195312 249.710938 133.503906 265.214844 133.503906 284.210938 L 133.503906 297.351562 C 108.867188 275.429688 94.738281 244.4375 94.738281 210.949219 C 94.738281 146.816406 146.894531 94.660156 211.027344 94.660156 C 275.160156 94.660156 327.316406 146.816406 327.316406 210.949219 C 327.316406 244.417969 313.207031 275.371094 288.554688 297.351562 Z M 288.554688 297.351562 " fill-opacity="1" fill-rule="nonzero"/></g><path fill="#000000" d="M 259.480469 181.875 C 259.480469 183.460938 259.402344 185.046875 259.25 186.625 C 259.09375 188.203125 258.859375 189.773438 258.550781 191.328125 C 258.242188 192.882812 257.855469 194.421875 257.394531 195.941406 C 256.933594 197.460938 256.402344 198.953125 255.792969 200.417969 C 255.1875 201.882812 254.507812 203.316406 253.761719 204.714844 C 253.011719 206.117188 252.199219 207.476562 251.316406 208.792969 C 250.433594 210.113281 249.488281 211.386719 248.484375 212.613281 C 247.476562 213.839844 246.410156 215.015625 245.289062 216.136719 C 244.167969 217.257812 242.992188 218.324219 241.765625 219.332031 C 240.539062 220.335938 239.265625 221.28125 237.949219 222.164062 C 236.628906 223.042969 235.269531 223.859375 233.867188 224.609375 C 232.46875 225.355469 231.035156 226.035156 229.570312 226.640625 C 228.105469 227.25 226.613281 227.78125 225.09375 228.242188 C 223.574219 228.703125 222.039062 229.089844 220.480469 229.398438 C 218.925781 229.707031 217.355469 229.941406 215.777344 230.097656 C 214.199219 230.25 212.613281 230.328125 211.027344 230.328125 C 209.441406 230.328125 207.859375 230.25 206.277344 230.097656 C 204.699219 229.941406 203.132812 229.707031 201.574219 229.398438 C 200.019531 229.089844 198.480469 228.703125 196.960938 228.242188 C 195.445312 227.78125 193.953125 227.25 192.484375 226.640625 C 191.019531 226.035156 189.585938 225.355469 188.1875 224.609375 C 186.789062 223.859375 185.429688 223.042969 184.109375 222.164062 C 182.789062 221.28125 181.515625 220.335938 180.289062 219.332031 C 179.0625 218.324219 177.886719 217.257812 176.765625 216.136719 C 175.644531 215.015625 174.578125 213.839844 173.574219 212.613281 C 172.566406 211.386719 171.621094 210.113281 170.742188 208.792969 C 169.859375 207.476562 169.042969 206.117188 168.296875 204.714844 C 167.546875 203.316406 166.871094 201.882812 166.261719 200.417969 C 165.65625 198.953125 165.121094 197.460938 164.660156 195.941406 C 164.199219 194.421875 163.816406 192.882812 163.503906 191.328125 C 163.195312 189.773438 162.964844 188.203125 162.808594 186.625 C 162.652344 185.046875 162.574219 183.460938 162.574219 181.875 C 162.574219 180.289062 162.652344 178.707031 162.808594 177.125 C 162.964844 175.546875 163.195312 173.980469 163.503906 172.421875 C 163.816406 170.867188 164.199219 169.328125 164.660156 167.808594 C 165.121094 166.292969 165.65625 164.800781 166.261719 163.332031 C 166.871094 161.867188 167.546875 160.433594 168.296875 159.035156 C 169.042969 157.636719 169.859375 156.277344 170.742188 154.957031 C 171.621094 153.636719 172.566406 152.363281 173.574219 151.136719 C 174.578125 149.910156 175.644531 148.734375 176.765625 147.613281 C 177.886719 146.492188 179.0625 145.425781 180.289062 144.421875 C 181.515625 143.414062 182.789062 142.46875 184.109375 141.585938 C 185.429688 140.707031 186.789062 139.890625 188.1875 139.144531 C 189.585938 138.394531 191.019531 137.71875 192.484375 137.109375 C 193.953125 136.503906 195.445312 135.96875 196.960938 135.507812 C 198.480469 135.046875 200.019531 134.664062 201.574219 134.351562 C 203.132812 134.042969 204.699219 133.8125 206.277344 133.65625 C 207.859375 133.5 209.441406 133.421875 211.027344 133.421875 C 212.613281 133.421875 214.199219 133.5 215.777344 133.65625 C 217.355469 133.8125 218.925781 134.042969 220.480469 134.351562 C 222.039062 134.664062 223.574219 135.046875 225.09375 135.507812 C 226.613281 135.96875 228.105469 136.503906 229.570312 137.109375 C 231.035156 137.71875 232.46875 138.394531 233.867188 139.144531 C 235.269531 139.890625 236.628906 140.707031 237.949219 141.585938 C 239.265625 142.46875 240.539062 143.414062 241.765625 144.421875 C 242.992188 145.425781 244.167969 146.492188 245.289062 147.613281 C 246.410156 148.734375 247.476562 149.910156 248.484375 151.136719 C 249.488281 152.363281 250.433594 153.636719 251.316406 154.957031 C 252.199219 156.277344 253.011719 157.636719 253.761719 159.035156 C 254.507812 160.433594 255.1875 161.867188 255.792969 163.332031 C 256.402344 164.800781 256.933594 166.292969 257.394531 167.808594 C 257.855469 169.328125 258.242188 170.867188 258.550781 172.421875 C 258.859375 173.980469 259.09375 175.546875 259.25 177.125 C 259.402344 178.707031 259.480469 180.289062 259.480469 181.875 Z M 259.480469 181.875 " fill-opacity="1" fill-rule="nonzero"/><g clip-path="url(#bd9ef72cd7)"><g clip-path="url(#7f27e1a73c)"><g clip-path="url(#3775e081e2)"><g clip-path="url(#bcc44febab)"><path fill="#ffffff" d="M 175.550781 212.882812 C 175.398438 212.804688 175.273438 212.695312 175.179688 212.550781 C 175.082031 212.40625 175.027344 212.25 175.015625 212.078125 C 175.003906 211.90625 175.035156 211.746094 175.105469 211.589844 C 175.179688 211.433594 175.285156 211.308594 175.425781 211.207031 C 184.382812 204.898438 193.628906 200.988281 202.910156 199.589844 C 210.414062 198.453125 217.816406 198.929688 225.113281 201.019531 C 237.523438 204.546875 245.015625 211.367188 245.328125 211.65625 C 245.527344 211.839844 245.632812 212.066406 245.644531 212.335938 C 245.65625 212.605469 245.570312 212.839844 245.386719 213.039062 C 245.203125 213.238281 244.976562 213.34375 244.707031 213.351562 C 244.4375 213.363281 244.203125 213.277344 244.003906 213.09375 C 243.902344 213 236.464844 206.257812 224.5 202.878906 C 213.472656 199.765625 196.203125 198.964844 176.554688 212.808594 C 176.238281 213.03125 175.902344 213.054688 175.550781 212.882812 Z M 175.550781 212.882812 " fill-opacity="1" fill-rule="nonzero"/></g></g></g></g></svg>