<svg xmlns="http://www.w3.org/2000/svg" xmlns:xlink="http://www.w3.org/1999/xlink" width="633" zoomAndPan="magnify" viewBox="0 0 474.75 449.249995" height="599" preserveAspectRatio="xMidYMid meet" version="1.2"><defs><clipPath id="25c7c8edc8"><path d="M 0.269531 0 L 474.230469 0 L 474.230469 448.5 L 0.269531 448.5 Z M 0.269531 0 "/></clipPath><clipPath id="884451909c"><path d="M 97.667969 0 L 368.714844 0 L 368.714844 271.046875 L 97.667969 271.046875 Z M 97.667969 0 "/></clipPath><clipPath id="94d6b30d0b"><path d="M 197 123 L 268 123 L 268 138 L 197 138 Z M 197 123 "/></clipPath><clipPath id="b2e03982e1"><path d="M 212.554688 105.550781 L 269.492188 133.996094 L 253.765625 165.476562 L 196.828125 137.035156 Z M 212.554688 105.550781 "/></clipPath><clipPath id="45697fe4fb"><path d="M 212.554688 105.550781 L 269.492188 133.996094 L 253.765625 165.476562 L 196.828125 137.035156 Z M 212.554688 105.550781 "/></clipPath></defs><g id="6d5417178a"><g clip-rule="nonzero" clip-path="url(#25c7c8edc8)"><path style=" stroke:none;fill-rule:nonzero;fill:#ffffff;fill-opacity:1;" d="M 0.269531 0 L 474.230469 0 L 474.230469 448.5 L 0.269531 448.5 Z M 0.269531 0 "/></g><g clip-rule="nonzero" clip-path="url(#884451909c)"><path style=" stroke:none;fill-rule:nonzero;fill:#000000;fill-opacity:1;" d="M 233.191406 0 C 158.460938 0 97.667969 60.792969 97.667969 135.523438 C 97.667969 177.671875 116.679688 216.585938 149.765625 242.257812 C 168.816406 257.242188 191.488281 266.789062 215.167969 269.808594 C 221.03125 270.640625 227.113281 271.046875 233.191406 271.046875 C 239.269531 271.046875 245.351562 270.640625 251.0625 269.828125 C 274.894531 266.789062 297.566406 257.261719 316.578125 242.296875 C 349.722656 216.585938 368.714844 177.652344 368.714844 135.523438 C 368.714844 60.792969 307.902344 0 233.191406 0 Z M 310.632812 221.832031 L 310.632812 208.707031 C 310.632812 189.734375 275.976562 174.246094 233.191406 174.246094 C 190.40625 174.246094 155.75 189.734375 155.75 208.707031 L 155.75 221.832031 C 131.140625 199.9375 117.027344 168.980469 117.027344 135.523438 C 117.027344 71.460938 169.128906 19.359375 233.191406 19.359375 C 297.253906 19.359375 349.355469 71.460938 349.355469 135.523438 C 349.355469 168.960938 335.261719 199.878906 310.632812 221.832031 Z M 310.632812 221.832031 "/></g><path style=" stroke:none;fill-rule:nonzero;fill:#000000;fill-opacity:1;" d="M 281.59375 106.484375 C 281.59375 108.066406 281.515625 109.648438 281.359375 111.226562 C 281.203125 112.804688 280.972656 114.371094 280.664062 115.925781 C 280.351562 117.480469 279.96875 119.015625 279.507812 120.53125 C 279.046875 122.050781 278.515625 123.539062 277.910156 125.003906 C 277.300781 126.46875 276.625 127.902344 275.878906 129.300781 C 275.128906 130.695312 274.316406 132.054688 273.4375 133.375 C 272.554688 134.691406 271.613281 135.964844 270.605469 137.1875 C 269.601562 138.414062 268.539062 139.585938 267.417969 140.707031 C 266.296875 141.828125 265.121094 142.890625 263.898438 143.898438 C 262.671875 144.902344 261.398438 145.847656 260.082031 146.726562 C 258.765625 147.609375 257.40625 148.421875 256.007812 149.167969 C 254.609375 149.917969 253.179688 150.59375 251.714844 151.199219 C 250.25 151.804688 248.757812 152.339844 247.242188 152.800781 C 245.726562 153.261719 244.1875 153.644531 242.632812 153.953125 C 241.078125 154.261719 239.511719 154.496094 237.9375 154.652344 C 236.359375 154.804688 234.777344 154.882812 233.191406 154.882812 C 231.605469 154.882812 230.023438 154.804688 228.449219 154.652344 C 226.871094 154.496094 225.304688 154.261719 223.75 153.953125 C 222.195312 153.644531 220.660156 153.261719 219.140625 152.800781 C 217.625 152.339844 216.132812 151.804688 214.667969 151.199219 C 213.203125 150.59375 211.773438 149.917969 210.375 149.167969 C 208.976562 148.421875 207.621094 147.609375 206.300781 146.726562 C 204.984375 145.847656 203.710938 144.902344 202.484375 143.898438 C 201.261719 142.890625 200.085938 141.828125 198.964844 140.707031 C 197.84375 139.585938 196.78125 138.414062 195.777344 137.1875 C 194.769531 135.964844 193.828125 134.691406 192.945312 133.375 C 192.066406 132.054688 191.253906 130.695312 190.503906 129.300781 C 189.757812 127.902344 189.082031 126.46875 188.472656 125.003906 C 187.867188 123.539062 187.335938 122.050781 186.875 120.53125 C 186.414062 119.015625 186.03125 117.480469 185.71875 115.925781 C 185.410156 114.371094 185.179688 112.804688 185.023438 111.226562 C 184.867188 109.648438 184.789062 108.066406 184.789062 106.484375 C 184.789062 104.898438 184.867188 103.316406 185.023438 101.738281 C 185.179688 100.160156 185.410156 98.59375 185.71875 97.039062 C 186.03125 95.484375 186.414062 93.949219 186.875 92.433594 C 187.335938 90.914062 187.867188 89.425781 188.472656 87.960938 C 189.082031 86.496094 189.757812 85.066406 190.503906 83.667969 C 191.253906 82.269531 192.066406 80.910156 192.945312 79.59375 C 193.828125 78.273438 194.769531 77.003906 195.777344 75.777344 C 196.78125 74.550781 197.84375 73.378906 198.964844 72.257812 C 200.085938 71.136719 201.261719 70.074219 202.484375 69.066406 C 203.710938 68.0625 204.984375 67.121094 206.300781 66.238281 C 207.621094 65.359375 208.976562 64.542969 210.375 63.796875 C 211.773438 63.050781 213.203125 62.371094 214.667969 61.765625 C 216.132812 61.160156 217.625 60.625 219.140625 60.164062 C 220.660156 59.707031 222.195312 59.320312 223.75 59.011719 C 225.304688 58.703125 226.871094 58.46875 228.449219 58.316406 C 230.023438 58.160156 231.605469 58.082031 233.191406 58.082031 C 234.777344 58.082031 236.359375 58.160156 237.9375 58.316406 C 239.511719 58.46875 241.078125 58.703125 242.632812 59.011719 C 244.1875 59.320312 245.726562 59.707031 247.242188 60.164062 C 248.757812 60.625 250.25 61.160156 251.714844 61.765625 C 253.179688 62.371094 254.609375 63.050781 256.007812 63.796875 C 257.40625 64.542969 258.765625 65.359375 260.082031 66.238281 C 261.398438 67.121094 262.671875 68.0625 263.898438 69.066406 C 265.121094 70.074219 266.296875 71.136719 267.417969 72.257812 C 268.539062 73.378906 269.601562 74.550781 270.605469 75.777344 C 271.613281 77.003906 272.554688 78.273438 273.4375 79.59375 C 274.316406 80.910156 275.128906 82.269531 275.878906 83.667969 C 276.625 85.066406 277.300781 86.496094 277.910156 87.960938 C 278.515625 89.425781 279.046875 90.914062 279.507812 92.433594 C 279.96875 93.949219 280.351562 95.484375 280.664062 97.039062 C 280.972656 98.59375 281.203125 100.160156 281.359375 101.738281 C 281.515625 103.316406 281.59375 104.898438 281.59375 106.484375 Z M 281.59375 106.484375 "/><g clip-rule="nonzero" clip-path="url(#94d6b30d0b)"><g clip-rule="nonzero" clip-path="url(#b2e03982e1)"><g clip-rule="nonzero" clip-path="url(#45697fe4fb)"><path style=" stroke:none;fill-rule:nonzero;fill:#ffffff;fill-opacity:1;" d="M 197.816406 137.316406 C 197.664062 137.238281 197.539062 137.128906 197.445312 136.988281 C 197.351562 136.847656 197.296875 136.691406 197.285156 136.519531 C 197.273438 136.347656 197.300781 136.1875 197.375 136.03125 C 197.449219 135.878906 197.554688 135.75 197.695312 135.652344 C 206.59375 129.375 215.78125 125.480469 225.003906 124.082031 C 232.460938 122.953125 239.8125 123.421875 247.0625 125.496094 C 259.390625 128.996094 266.828125 135.773438 267.140625 136.0625 C 267.339844 136.242188 267.441406 136.46875 267.453125 136.738281 C 267.464844 137.003906 267.378906 137.238281 267.195312 137.433594 C 267.015625 137.632812 266.789062 137.738281 266.519531 137.746094 C 266.253906 137.757812 266.019531 137.671875 265.820312 137.492188 C 265.722656 137.398438 258.335938 130.695312 246.449219 127.34375 C 235.496094 124.253906 218.34375 123.46875 198.8125 137.242188 C 198.496094 137.464844 198.164062 137.492188 197.816406 137.316406 Z M 197.816406 137.316406 "/></g></g></g><g style="fill:#000000;fill-opacity:1;"><g transform="translate(17.320618, 327.102617)"><path style="stroke:none" d="M 17.234375 -5.890625 C 17.234375 -4.085938 16.546875 -2.570312 15.171875 -1.34375 C 13.804688 -0.125 12.109375 0.484375 10.078125 0.484375 C 8.671875 0.484375 7.289062 0.21875 5.9375 -0.3125 C 5.226562 -0.570312 4.675781 -0.703125 4.28125 -0.703125 C 4.019531 -0.703125 3.796875 -0.585938 3.609375 -0.359375 C 3.421875 -0.140625 3.316406 0.128906 3.296875 0.453125 L 2.53125 0.453125 L 1.46875 -6.984375 L 2.28125 -6.984375 C 3.164062 -4.828125 4.175781 -3.25 5.3125 -2.25 C 6.445312 -1.257812 7.800781 -0.765625 9.375 -0.765625 C 10.664062 -0.765625 11.707031 -1.128906 12.5 -1.859375 C 13.289062 -2.585938 13.6875 -3.535156 13.6875 -4.703125 C 13.6875 -5.566406 13.523438 -6.257812 13.203125 -6.78125 C 12.335938 -8.09375 10.59375 -9.460938 7.96875 -10.890625 C 6 -11.910156 4.59375 -12.945312 3.75 -14 C 2.914062 -15.0625 2.5 -16.289062 2.5 -17.6875 C 2.5 -19.613281 3.175781 -21.140625 4.53125 -22.265625 C 5.75 -23.242188 7.070312 -23.734375 8.5 -23.734375 C 9.664062 -23.734375 10.925781 -23.476562 12.28125 -22.96875 C 12.914062 -22.6875 13.429688 -22.546875 13.828125 -22.546875 C 14.441406 -22.546875 14.816406 -22.941406 14.953125 -23.734375 L 15.6875 -23.734375 L 16.46875 -16.25 L 15.59375 -16.25 C 15.125 -18.007812 14.410156 -19.378906 13.453125 -20.359375 C 12.210938 -21.648438 10.78125 -22.296875 9.15625 -22.296875 C 8.0625 -22.296875 7.179688 -21.992188 6.515625 -21.390625 C 5.847656 -20.796875 5.515625 -20.019531 5.515625 -19.0625 C 5.515625 -18.101562 5.910156 -17.203125 6.703125 -16.359375 C 7.503906 -15.515625 8.828125 -14.59375 10.671875 -13.59375 C 12.992188 -12.320312 14.664062 -11.082031 15.6875 -9.875 C 16.71875 -8.675781 17.234375 -7.347656 17.234375 -5.890625 Z M 17.234375 -5.890625 "/></g></g><g style="fill:#000000;fill-opacity:1;"><g transform="translate(36.837166, 327.102617)"><path style="stroke:none" d="M 15.515625 -1.40625 C 14.910156 -0.726562 14.378906 -0.265625 13.921875 -0.015625 C 13.460938 0.222656 12.941406 0.34375 12.359375 0.34375 C 11.628906 0.34375 11.09375 0.148438 10.75 -0.234375 C 10.414062 -0.617188 10.203125 -1.28125 10.109375 -2.21875 C 8.097656 -0.507812 6.390625 0.34375 4.984375 0.34375 C 3.910156 0.34375 3.023438 -0.00390625 2.328125 -0.703125 C 1.640625 -1.398438 1.296875 -2.300781 1.296875 -3.40625 C 1.296875 -4.664062 1.71875 -5.679688 2.5625 -6.453125 C 3.3125 -7.109375 4.066406 -7.628906 4.828125 -8.015625 C 5.585938 -8.410156 7.335938 -9.15625 10.078125 -10.25 L 10.078125 -12.390625 C 10.078125 -14.335938 9.1875 -15.3125 7.40625 -15.3125 C 6.707031 -15.3125 6.109375 -15.140625 5.609375 -14.796875 C 5.117188 -14.460938 4.875 -14.0625 4.875 -13.59375 C 4.875 -13.332031 4.910156 -13.050781 4.984375 -12.75 C 5.035156 -12.414062 5.0625 -12.226562 5.0625 -12.1875 C 5.0625 -11.789062 4.898438 -11.441406 4.578125 -11.140625 C 4.265625 -10.847656 3.894531 -10.703125 3.46875 -10.703125 C 3.050781 -10.703125 2.695312 -10.851562 2.40625 -11.15625 C 2.113281 -11.46875 1.96875 -11.820312 1.96875 -12.21875 C 1.96875 -13.175781 2.445312 -14.050781 3.40625 -14.84375 C 4.457031 -15.71875 5.941406 -16.15625 7.859375 -16.15625 C 10.035156 -16.15625 11.5 -15.472656 12.25 -14.109375 C 12.695312 -13.390625 12.921875 -12.195312 12.921875 -10.53125 L 12.921875 -3.6875 C 12.921875 -2.914062 12.992188 -2.382812 13.140625 -2.09375 C 13.296875 -1.800781 13.570312 -1.65625 13.96875 -1.65625 C 14.457031 -1.65625 14.972656 -1.875 15.515625 -2.3125 Z M 10.078125 -4.3125 L 10.078125 -9.40625 C 7.972656 -8.632812 6.5 -7.882812 5.65625 -7.15625 C 4.8125 -6.4375 4.390625 -5.5625 4.390625 -4.53125 L 4.390625 -4.390625 C 4.390625 -3.640625 4.601562 -3 5.03125 -2.46875 C 5.46875 -1.945312 5.988281 -1.6875 6.59375 -1.6875 C 7.414062 -1.6875 8.269531 -1.941406 9.15625 -2.453125 C 9.53125 -2.691406 9.773438 -2.925781 9.890625 -3.15625 C 10.015625 -3.394531 10.078125 -3.78125 10.078125 -4.3125 Z M 10.078125 -4.3125 "/></g></g><g style="fill:#000000;fill-opacity:1;"><g transform="translate(52.422313, 327.102617)"><path style="stroke:none" d="M 9.015625 0 L 0.734375 0 L 0.734375 -0.53125 C 1.835938 -0.625 2.5625 -0.832031 2.90625 -1.15625 C 3.257812 -1.488281 3.4375 -2.117188 3.4375 -3.046875 L 3.4375 -19.796875 C 3.4375 -20.617188 3.332031 -21.179688 3.125 -21.484375 C 2.914062 -21.785156 2.53125 -21.9375 1.96875 -21.9375 C 1.757812 -21.9375 1.394531 -21.914062 0.875 -21.875 L 0.671875 -21.875 L 0.671875 -22.4375 C 2.984375 -23 4.84375 -23.515625 6.25 -23.984375 L 6.390625 -23.90625 L 6.390625 -2.953125 C 6.390625 -1.992188 6.546875 -1.363281 6.859375 -1.0625 C 7.179688 -0.769531 7.898438 -0.59375 9.015625 -0.53125 Z M 9.015625 0 "/></g></g><g style="fill:#000000;fill-opacity:1;"><g transform="translate(62.180587, 327.102617)"><path style="stroke:none" d="M 9.015625 0 L 0.734375 0 L 0.734375 -0.53125 C 1.835938 -0.625 2.5625 -0.832031 2.90625 -1.15625 C 3.257812 -1.488281 3.4375 -2.117188 3.4375 -3.046875 L 3.4375 -19.796875 C 3.4375 -20.617188 3.332031 -21.179688 3.125 -21.484375 C 2.914062 -21.785156 2.53125 -21.9375 1.96875 -21.9375 C 1.757812 -21.9375 1.394531 -21.914062 0.875 -21.875 L 0.671875 -21.875 L 0.671875 -22.4375 C 2.984375 -23 4.84375 -23.515625 6.25 -23.984375 L 6.390625 -23.90625 L 6.390625 -2.953125 C 6.390625 -1.992188 6.546875 -1.363281 6.859375 -1.0625 C 7.179688 -0.769531 7.898438 -0.59375 9.015625 -0.53125 Z M 9.015625 0 "/></g></g><g style="fill:#000000;fill-opacity:1;"><g transform="translate(71.938861, 327.102617)"><path style="stroke:none" d="M 16.671875 -15.265625 C 16.253906 -15.222656 15.925781 -15.085938 15.6875 -14.859375 C 15.457031 -14.640625 15.222656 -14.25 14.984375 -13.6875 L 9.578125 0.625 C 8.648438 3.15625 7.722656 4.957031 6.796875 6.03125 C 5.867188 7.113281 4.820312 7.65625 3.65625 7.65625 C 2.90625 7.65625 2.28125 7.460938 1.78125 7.078125 C 1.289062 6.691406 1.046875 6.207031 1.046875 5.625 C 1.046875 5.195312 1.195312 4.832031 1.5 4.53125 C 1.8125 4.226562 2.164062 4.078125 2.5625 4.078125 C 3.101562 4.078125 3.722656 4.203125 4.421875 4.453125 C 4.753906 4.617188 5.046875 4.703125 5.296875 4.703125 C 5.554688 4.703125 5.851562 4.550781 6.1875 4.25 C 6.53125 3.945312 6.820312 3.570312 7.0625 3.125 C 7.363281 2.613281 7.671875 1.914062 7.984375 1.03125 C 8.304688 0.15625 8.46875 -0.410156 8.46875 -0.671875 C 8.46875 -0.898438 8.335938 -1.332031 8.078125 -1.96875 L 2.28125 -14.1875 C 2 -14.789062 1.398438 -15.164062 0.484375 -15.3125 L 0.484375 -15.796875 L 7.71875 -15.796875 L 7.71875 -15.265625 C 6.96875 -15.242188 6.441406 -15.160156 6.140625 -15.015625 C 5.835938 -14.878906 5.6875 -14.648438 5.6875 -14.328125 C 5.6875 -13.972656 5.800781 -13.523438 6.03125 -12.984375 L 10.078125 -4.109375 L 13.484375 -13.796875 C 13.578125 -14.003906 13.625 -14.203125 13.625 -14.390625 C 13.625 -14.972656 13.0625 -15.265625 11.9375 -15.265625 L 11.9375 -15.796875 L 16.671875 -15.796875 Z M 16.671875 -15.265625 "/></g></g><g style="fill:#000000;fill-opacity:1;"><g transform="translate(89.489708, 327.102617)"><path style="stroke:none" d=""/></g></g><g style="fill:#000000;fill-opacity:1;"><g transform="translate(98.265142, 327.102617)"><path style="stroke:none" d="M 17.09375 0 L 9.65625 0 L 9.65625 -0.53125 C 10.664062 -0.625 11.316406 -0.859375 11.609375 -1.234375 C 11.898438 -1.609375 12.046875 -2.390625 12.046875 -3.578125 L 12.046875 -10.53125 C 12.046875 -13.007812 11.164062 -14.25 9.40625 -14.25 C 8.726562 -14.25 8.085938 -14.078125 7.484375 -13.734375 C 6.890625 -13.398438 6.234375 -12.835938 5.515625 -12.046875 L 5.515625 -3.578125 C 5.515625 -2.359375 5.65625 -1.570312 5.9375 -1.21875 C 6.21875 -0.875 6.875 -0.644531 7.90625 -0.53125 L 7.90625 0 L 0.3125 0 L 0.3125 -0.53125 C 1.320312 -0.664062 1.945312 -0.894531 2.1875 -1.21875 C 2.4375 -1.550781 2.5625 -2.335938 2.5625 -3.578125 L 2.5625 -20.125 C 2.5625 -20.863281 2.445312 -21.34375 2.21875 -21.5625 C 2 -21.789062 1.515625 -21.90625 0.765625 -21.90625 C 0.578125 -21.90625 0.4375 -21.894531 0.34375 -21.875 L 0.34375 -22.4375 L 1.296875 -22.71875 C 2.890625 -23.15625 4.238281 -23.578125 5.34375 -23.984375 L 5.515625 -23.875 L 5.515625 -13.203125 C 6.328125 -14.253906 7.128906 -15.007812 7.921875 -15.46875 C 8.722656 -15.925781 9.640625 -16.15625 10.671875 -16.15625 C 13.546875 -16.15625 14.984375 -14.289062 14.984375 -10.5625 L 14.984375 -3.578125 C 14.984375 -2.359375 15.09375 -1.59375 15.3125 -1.28125 C 15.539062 -0.96875 16.132812 -0.71875 17.09375 -0.53125 Z M 17.09375 0 "/></g></g><g style="fill:#000000;fill-opacity:1;"><g transform="translate(115.81599, 327.102617)"><path style="stroke:none" d="M 15.515625 -1.40625 C 14.910156 -0.726562 14.378906 -0.265625 13.921875 -0.015625 C 13.460938 0.222656 12.941406 0.34375 12.359375 0.34375 C 11.628906 0.34375 11.09375 0.148438 10.75 -0.234375 C 10.414062 -0.617188 10.203125 -1.28125 10.109375 -2.21875 C 8.097656 -0.507812 6.390625 0.34375 4.984375 0.34375 C 3.910156 0.34375 3.023438 -0.00390625 2.328125 -0.703125 C 1.640625 -1.398438 1.296875 -2.300781 1.296875 -3.40625 C 1.296875 -4.664062 1.71875 -5.679688 2.5625 -6.453125 C 3.3125 -7.109375 4.066406 -7.628906 4.828125 -8.015625 C 5.585938 -8.410156 7.335938 -9.15625 10.078125 -10.25 L 10.078125 -12.390625 C 10.078125 -14.335938 9.1875 -15.3125 7.40625 -15.3125 C 6.707031 -15.3125 6.109375 -15.140625 5.609375 -14.796875 C 5.117188 -14.460938 4.875 -14.0625 4.875 -13.59375 C 4.875 -13.332031 4.910156 -13.050781 4.984375 -12.75 C 5.035156 -12.414062 5.0625 -12.226562 5.0625 -12.1875 C 5.0625 -11.789062 4.898438 -11.441406 4.578125 -11.140625 C 4.265625 -10.847656 3.894531 -10.703125 3.46875 -10.703125 C 3.050781 -10.703125 2.695312 -10.851562 2.40625 -11.15625 C 2.113281 -11.46875 1.96875 -11.820312 1.96875 -12.21875 C 1.96875 -13.175781 2.445312 -14.050781 3.40625 -14.84375 C 4.457031 -15.71875 5.941406 -16.15625 7.859375 -16.15625 C 10.035156 -16.15625 11.5 -15.472656 12.25 -14.109375 C 12.695312 -13.390625 12.921875 -12.195312 12.921875 -10.53125 L 12.921875 -3.6875 C 12.921875 -2.914062 12.992188 -2.382812 13.140625 -2.09375 C 13.296875 -1.800781 13.570312 -1.65625 13.96875 -1.65625 C 14.457031 -1.65625 14.972656 -1.875 15.515625 -2.3125 Z M 10.078125 -4.3125 L 10.078125 -9.40625 C 7.972656 -8.632812 6.5 -7.882812 5.65625 -7.15625 C 4.8125 -6.4375 4.390625 -5.5625 4.390625 -4.53125 L 4.390625 -4.390625 C 4.390625 -3.640625 4.601562 -3 5.03125 -2.46875 C 5.46875 -1.945312 5.988281 -1.6875 6.59375 -1.6875 C 7.414062 -1.6875 8.269531 -1.941406 9.15625 -2.453125 C 9.53125 -2.691406 9.773438 -2.925781 9.890625 -3.15625 C 10.015625 -3.394531 10.078125 -3.78125 10.078125 -4.3125 Z M 10.078125 -4.3125 "/></g></g><g style="fill:#000000;fill-opacity:1;"><g transform="translate(131.401137, 327.102617)"><path style="stroke:none" d="M 12.21875 -4.140625 C 12.21875 -2.921875 11.726562 -1.867188 10.75 -0.984375 C 9.78125 -0.0976562 8.628906 0.34375 7.296875 0.34375 C 6.671875 0.34375 5.804688 0.226562 4.703125 0 C 3.953125 -0.1875 3.414062 -0.28125 3.09375 -0.28125 C 2.738281 -0.28125 2.46875 -0.140625 2.28125 0.140625 L 1.828125 0.140625 L 1.828125 -5.34375 L 2.390625 -5.34375 C 2.785156 -3.5625 3.320312 -2.296875 4 -1.546875 C 4.675781 -0.796875 5.625 -0.421875 6.84375 -0.421875 C 7.738281 -0.421875 8.445312 -0.648438 8.96875 -1.109375 C 9.5 -1.566406 9.765625 -2.179688 9.765625 -2.953125 C 9.765625 -4.003906 9.15625 -4.878906 7.9375 -5.578125 L 5.890625 -6.734375 C 4.398438 -7.609375 3.34375 -8.425781 2.71875 -9.1875 C 2.101562 -9.945312 1.796875 -10.816406 1.796875 -11.796875 C 1.796875 -13.085938 2.242188 -14.128906 3.140625 -14.921875 C 4.046875 -15.710938 5.210938 -16.109375 6.640625 -16.109375 C 7.503906 -16.109375 8.296875 -15.96875 9.015625 -15.6875 C 9.367188 -15.53125 9.6875 -15.453125 9.96875 -15.453125 C 10.0625 -15.453125 10.226562 -15.546875 10.46875 -15.734375 L 10.53125 -15.796875 L 10.921875 -15.796875 L 11.0625 -11.03125 L 10.53125 -11.03125 C 10.132812 -12.59375 9.644531 -13.703125 9.0625 -14.359375 C 8.476562 -15.015625 7.679688 -15.34375 6.671875 -15.34375 C 5.847656 -15.34375 5.191406 -15.125 4.703125 -14.6875 C 4.210938 -14.257812 3.96875 -13.679688 3.96875 -12.953125 C 3.96875 -11.953125 4.472656 -11.15625 5.484375 -10.5625 L 9.265625 -8.328125 C 10.347656 -7.691406 11.109375 -7.054688 11.546875 -6.421875 C 11.992188 -5.796875 12.21875 -5.035156 12.21875 -4.140625 Z M 12.21875 -4.140625 "/></g></g><g style="fill:#000000;fill-opacity:1;"><g transform="translate(145.055708, 327.102617)"><path style="stroke:none" d=""/></g></g><g style="fill:#000000;fill-opacity:1;"><g transform="translate(153.831142, 327.102617)"><path style="stroke:none" d="M 17.03125 0 L 9.71875 0 L 9.71875 -0.53125 C 10.613281 -0.59375 11.207031 -0.820312 11.5 -1.21875 C 11.789062 -1.625 11.9375 -2.375 11.9375 -3.46875 L 11.9375 -10.8125 C 11.9375 -13.082031 11.082031 -14.21875 9.375 -14.21875 C 8.789062 -14.21875 8.25 -14.082031 7.75 -13.8125 C 7.257812 -13.539062 6.597656 -13.007812 5.765625 -12.21875 L 5.765625 -2.359375 C 5.765625 -1.722656 5.925781 -1.273438 6.25 -1.015625 C 6.570312 -0.753906 7.179688 -0.59375 8.078125 -0.53125 L 8.078125 0 L 0.625 0 L 0.625 -0.53125 C 1.519531 -0.59375 2.109375 -0.796875 2.390625 -1.140625 C 2.671875 -1.484375 2.8125 -2.15625 2.8125 -3.15625 L 2.8125 -11.859375 C 2.8125 -12.734375 2.71875 -13.328125 2.53125 -13.640625 C 2.34375 -13.953125 2.003906 -14.109375 1.515625 -14.109375 C 1.066406 -14.109375 0.75 -14.0625 0.5625 -13.96875 L 0.5625 -14.578125 C 2.289062 -15.085938 3.90625 -15.613281 5.40625 -16.15625 L 5.65625 -16.078125 L 5.65625 -13.3125 C 6.84375 -14.425781 7.78125 -15.175781 8.46875 -15.5625 C 9.164062 -15.957031 9.925781 -16.15625 10.75 -16.15625 C 12.03125 -16.15625 13.039062 -15.691406 13.78125 -14.765625 C 14.519531 -13.835938 14.890625 -12.546875 14.890625 -10.890625 L 14.890625 -2.84375 C 14.890625 -1.976562 15.03125 -1.398438 15.3125 -1.109375 C 15.59375 -0.816406 16.164062 -0.625 17.03125 -0.53125 Z M 17.03125 0 "/></g></g><g style="fill:#000000;fill-opacity:1;"><g transform="translate(171.38199, 327.102617)"><path style="stroke:none" d="M 16.5 -8.21875 C 16.5 -5.78125 15.75 -3.742188 14.25 -2.109375 C 12.75 -0.472656 10.898438 0.34375 8.703125 0.34375 C 6.503906 0.34375 4.671875 -0.441406 3.203125 -2.015625 C 1.742188 -3.597656 1.015625 -5.570312 1.015625 -7.9375 C 1.015625 -10.34375 1.734375 -12.3125 3.171875 -13.84375 C 4.617188 -15.382812 6.488281 -16.15625 8.78125 -16.15625 C 11.019531 -16.15625 12.863281 -15.40625 14.3125 -13.90625 C 15.769531 -12.40625 16.5 -10.507812 16.5 -8.21875 Z M 13.34375 -6.984375 C 13.34375 -9.398438 12.875 -11.367188 11.9375 -12.890625 C 11 -14.410156 9.796875 -15.171875 8.328125 -15.171875 C 7.078125 -15.171875 6.070312 -14.664062 5.3125 -13.65625 C 4.550781 -12.644531 4.171875 -11.3125 4.171875 -9.65625 C 4.171875 -7.0625 4.6875 -4.800781 5.71875 -2.875 C 6.519531 -1.375 7.65625 -0.625 9.125 -0.625 C 10.4375 -0.625 11.46875 -1.1875 12.21875 -2.3125 C 12.96875 -3.4375 13.34375 -4.992188 13.34375 -6.984375 Z M 13.34375 -6.984375 "/></g></g><g style="fill:#000000;fill-opacity:1;"><g transform="translate(188.932837, 327.102617)"><path style="stroke:none" d="M 9.796875 -2.3125 C 8.671875 -0.539062 7.253906 0.34375 5.546875 0.34375 C 3.484375 0.34375 2.453125 -1.140625 2.453125 -4.109375 L 2.453125 -14.671875 L 0.59375 -14.671875 C 0.5 -14.742188 0.453125 -14.828125 0.453125 -14.921875 C 0.453125 -15.109375 0.648438 -15.332031 1.046875 -15.59375 C 2.015625 -16.15625 3.148438 -17.40625 4.453125 -19.34375 C 4.785156 -19.769531 5.019531 -20.097656 5.15625 -20.328125 C 5.320312 -20.328125 5.40625 -20.175781 5.40625 -19.875 L 5.40625 -15.796875 L 8.953125 -15.796875 L 8.953125 -14.671875 L 5.40625 -14.671875 L 5.40625 -4.640625 C 5.40625 -3.515625 5.546875 -2.703125 5.828125 -2.203125 C 6.109375 -1.710938 6.578125 -1.46875 7.234375 -1.46875 C 7.929688 -1.46875 8.632812 -1.878906 9.34375 -2.703125 Z M 9.796875 -2.3125 "/></g></g><g style="fill:#000000;fill-opacity:1;"><g transform="translate(198.691111, 327.102617)"><path style="stroke:none" d=""/></g></g><g style="fill:#000000;fill-opacity:1;"><g transform="translate(207.466545, 327.102617)"><path style="stroke:none" d="M 17.09375 0 L 9.65625 0 L 9.65625 -0.53125 C 10.664062 -0.625 11.316406 -0.859375 11.609375 -1.234375 C 11.898438 -1.609375 12.046875 -2.390625 12.046875 -3.578125 L 12.046875 -10.53125 C 12.046875 -13.007812 11.164062 -14.25 9.40625 -14.25 C 8.726562 -14.25 8.085938 -14.078125 7.484375 -13.734375 C 6.890625 -13.398438 6.234375 -12.835938 5.515625 -12.046875 L 5.515625 -3.578125 C 5.515625 -2.359375 5.65625 -1.570312 5.9375 -1.21875 C 6.21875 -0.875 6.875 -0.644531 7.90625 -0.53125 L 7.90625 0 L 0.3125 0 L 0.3125 -0.53125 C 1.320312 -0.664062 1.945312 -0.894531 2.1875 -1.21875 C 2.4375 -1.550781 2.5625 -2.335938 2.5625 -3.578125 L 2.5625 -20.125 C 2.5625 -20.863281 2.445312 -21.34375 2.21875 -21.5625 C 2 -21.789062 1.515625 -21.90625 0.765625 -21.90625 C 0.578125 -21.90625 0.4375 -21.894531 0.34375 -21.875 L 0.34375 -22.4375 L 1.296875 -22.71875 C 2.890625 -23.15625 4.238281 -23.578125 5.34375 -23.984375 L 5.515625 -23.875 L 5.515625 -13.203125 C 6.328125 -14.253906 7.128906 -15.007812 7.921875 -15.46875 C 8.722656 -15.925781 9.640625 -16.15625 10.671875 -16.15625 C 13.546875 -16.15625 14.984375 -14.289062 14.984375 -10.5625 L 14.984375 -3.578125 C 14.984375 -2.359375 15.09375 -1.59375 15.3125 -1.28125 C 15.539062 -0.96875 16.132812 -0.71875 17.09375 -0.53125 Z M 17.09375 0 "/></g></g><g style="fill:#000000;fill-opacity:1;"><g transform="translate(225.017393, 327.102617)"><path style="stroke:none" d="M 14.890625 -5.515625 C 13.367188 -1.609375 10.882812 0.34375 7.4375 0.34375 C 5.425781 0.34375 3.828125 -0.359375 2.640625 -1.765625 C 1.460938 -3.179688 0.875 -5.097656 0.875 -7.515625 C 0.875 -10.066406 1.550781 -12.144531 2.90625 -13.75 C 4.269531 -15.351562 6.039062 -16.15625 8.21875 -16.15625 C 10.09375 -16.15625 11.585938 -15.488281 12.703125 -14.15625 C 13.484375 -13.164062 13.988281 -11.6875 14.21875 -9.71875 L 3.40625 -9.71875 C 3.476562 -7.726562 3.828125 -6.113281 4.453125 -4.875 C 5.460938 -3.007812 6.9375 -2.078125 8.875 -2.078125 C 10 -2.078125 10.976562 -2.351562 11.8125 -2.90625 C 12.644531 -3.46875 13.484375 -4.421875 14.328125 -5.765625 Z M 10.640625 -10.84375 C 10.398438 -12.363281 10.035156 -13.414062 9.546875 -14 C 9.054688 -14.59375 8.273438 -14.890625 7.203125 -14.890625 C 5.085938 -14.890625 3.84375 -13.539062 3.46875 -10.84375 Z M 10.640625 -10.84375 "/></g></g><g style="fill:#000000;fill-opacity:1;"><g transform="translate(240.602539, 327.102617)"><path style="stroke:none" d="M 15.515625 -1.40625 C 14.910156 -0.726562 14.378906 -0.265625 13.921875 -0.015625 C 13.460938 0.222656 12.941406 0.34375 12.359375 0.34375 C 11.628906 0.34375 11.09375 0.148438 10.75 -0.234375 C 10.414062 -0.617188 10.203125 -1.28125 10.109375 -2.21875 C 8.097656 -0.507812 6.390625 0.34375 4.984375 0.34375 C 3.910156 0.34375 3.023438 -0.00390625 2.328125 -0.703125 C 1.640625 -1.398438 1.296875 -2.300781 1.296875 -3.40625 C 1.296875 -4.664062 1.71875 -5.679688 2.5625 -6.453125 C 3.3125 -7.109375 4.066406 -7.628906 4.828125 -8.015625 C 5.585938 -8.410156 7.335938 -9.15625 10.078125 -10.25 L 10.078125 -12.390625 C 10.078125 -14.335938 9.1875 -15.3125 7.40625 -15.3125 C 6.707031 -15.3125 6.109375 -15.140625 5.609375 -14.796875 C 5.117188 -14.460938 4.875 -14.0625 4.875 -13.59375 C 4.875 -13.332031 4.910156 -13.050781 4.984375 -12.75 C 5.035156 -12.414062 5.0625 -12.226562 5.0625 -12.1875 C 5.0625 -11.789062 4.898438 -11.441406 4.578125 -11.140625 C 4.265625 -10.847656 3.894531 -10.703125 3.46875 -10.703125 C 3.050781 -10.703125 2.695312 -10.851562 2.40625 -11.15625 C 2.113281 -11.46875 1.96875 -11.820312 1.96875 -12.21875 C 1.96875 -13.175781 2.445312 -14.050781 3.40625 -14.84375 C 4.457031 -15.71875 5.941406 -16.15625 7.859375 -16.15625 C 10.035156 -16.15625 11.5 -15.472656 12.25 -14.109375 C 12.695312 -13.390625 12.921875 -12.195312 12.921875 -10.53125 L 12.921875 -3.6875 C 12.921875 -2.914062 12.992188 -2.382812 13.140625 -2.09375 C 13.296875 -1.800781 13.570312 -1.65625 13.96875 -1.65625 C 14.457031 -1.65625 14.972656 -1.875 15.515625 -2.3125 Z M 10.078125 -4.3125 L 10.078125 -9.40625 C 7.972656 -8.632812 6.5 -7.882812 5.65625 -7.15625 C 4.8125 -6.4375 4.390625 -5.5625 4.390625 -4.53125 L 4.390625 -4.390625 C 4.390625 -3.640625 4.601562 -3 5.03125 -2.46875 C 5.46875 -1.945312 5.988281 -1.6875 6.59375 -1.6875 C 7.414062 -1.6875 8.269531 -1.941406 9.15625 -2.453125 C 9.53125 -2.691406 9.773438 -2.925781 9.890625 -3.15625 C 10.015625 -3.394531 10.078125 -3.78125 10.078125 -4.3125 Z M 10.078125 -4.3125 "/></g></g><g style="fill:#000000;fill-opacity:1;"><g transform="translate(256.187686, 327.102617)"><path style="stroke:none" d="M 11.765625 -14.296875 C 11.765625 -13.796875 11.640625 -13.40625 11.390625 -13.125 C 11.148438 -12.84375 10.816406 -12.703125 10.390625 -12.703125 C 9.992188 -12.703125 9.523438 -12.9375 8.984375 -13.40625 C 8.609375 -13.757812 8.304688 -13.9375 8.078125 -13.9375 C 7.609375 -13.9375 7.082031 -13.597656 6.5 -12.921875 C 5.914062 -12.242188 5.625 -11.625 5.625 -11.0625 L 5.625 -3.15625 C 5.625 -2.15625 5.820312 -1.476562 6.21875 -1.125 C 6.613281 -0.769531 7.410156 -0.570312 8.609375 -0.53125 L 8.609375 0 L 0.171875 0 L 0.171875 -0.53125 C 1.296875 -0.738281 1.992188 -0.96875 2.265625 -1.21875 C 2.535156 -1.476562 2.671875 -2.054688 2.671875 -2.953125 L 2.671875 -11.71875 C 2.671875 -12.5 2.582031 -13.046875 2.40625 -13.359375 C 2.226562 -13.671875 1.914062 -13.828125 1.46875 -13.828125 C 1.09375 -13.828125 0.6875 -13.78125 0.25 -13.6875 L 0.25 -14.25 C 2.113281 -14.863281 3.84375 -15.5 5.4375 -16.15625 L 5.625 -16.078125 L 5.625 -12.84375 C 6.488281 -14.082031 7.222656 -14.941406 7.828125 -15.421875 C 8.441406 -15.910156 9.109375 -16.15625 9.828125 -16.15625 C 10.441406 -16.15625 10.914062 -15.988281 11.25 -15.65625 C 11.59375 -15.332031 11.765625 -14.878906 11.765625 -14.296875 Z M 11.765625 -14.296875 "/></g></g><g style="fill:#000000;fill-opacity:1;"><g transform="translate(267.876557, 327.102617)"><path style="stroke:none" d="M 17.234375 -1.46875 L 12.078125 0.34375 L 11.9375 0.25 L 11.9375 -2 C 10.8125 -0.4375 9.3125 0.34375 7.4375 0.34375 C 5.5 0.34375 3.929688 -0.347656 2.734375 -1.734375 C 1.546875 -3.128906 0.953125 -4.953125 0.953125 -7.203125 C 0.953125 -9.679688 1.664062 -11.789062 3.09375 -13.53125 C 4.519531 -15.28125 6.238281 -16.15625 8.25 -16.15625 C 9.507812 -16.15625 10.738281 -15.648438 11.9375 -14.640625 L 11.9375 -20.125 C 11.9375 -20.84375 11.832031 -21.316406 11.625 -21.546875 C 11.414062 -21.785156 10.984375 -21.90625 10.328125 -21.90625 C 9.992188 -21.90625 9.734375 -21.894531 9.546875 -21.875 L 9.546875 -22.4375 C 11.679688 -23 13.398438 -23.515625 14.703125 -23.984375 L 14.890625 -23.90625 L 14.890625 -4 C 14.890625 -3.1875 14.988281 -2.648438 15.1875 -2.390625 C 15.382812 -2.128906 15.800781 -2 16.4375 -2 C 16.550781 -2 16.816406 -2.007812 17.234375 -2.03125 Z M 11.9375 -3.578125 L 11.9375 -11.65625 C 11.9375 -12.59375 11.570312 -13.410156 10.84375 -14.109375 C 10.125 -14.816406 9.296875 -15.171875 8.359375 -15.171875 C 7.023438 -15.171875 5.957031 -14.570312 5.15625 -13.375 C 4.363281 -12.1875 3.96875 -10.597656 3.96875 -8.609375 C 3.96875 -6.453125 4.410156 -4.722656 5.296875 -3.421875 C 6.191406 -2.117188 7.363281 -1.46875 8.8125 -1.46875 C 9.863281 -1.46875 10.707031 -1.820312 11.34375 -2.53125 C 11.738281 -2.96875 11.9375 -3.316406 11.9375 -3.578125 Z M 11.9375 -3.578125 "/></g></g><g style="fill:#000000;fill-opacity:1;"><g transform="translate(285.427404, 327.102617)"><path style="stroke:none" d=""/></g></g><g style="fill:#000000;fill-opacity:1;"><g transform="translate(294.202839, 327.102617)"><path style="stroke:none" d="M 15.515625 -1.40625 C 14.910156 -0.726562 14.378906 -0.265625 13.921875 -0.015625 C 13.460938 0.222656 12.941406 0.34375 12.359375 0.34375 C 11.628906 0.34375 11.09375 0.148438 10.75 -0.234375 C 10.414062 -0.617188 10.203125 -1.28125 10.109375 -2.21875 C 8.097656 -0.507812 6.390625 0.34375 4.984375 0.34375 C 3.910156 0.34375 3.023438 -0.00390625 2.328125 -0.703125 C 1.640625 -1.398438 1.296875 -2.300781 1.296875 -3.40625 C 1.296875 -4.664062 1.71875 -5.679688 2.5625 -6.453125 C 3.3125 -7.109375 4.066406 -7.628906 4.828125 -8.015625 C 5.585938 -8.410156 7.335938 -9.15625 10.078125 -10.25 L 10.078125 -12.390625 C 10.078125 -14.335938 9.1875 -15.3125 7.40625 -15.3125 C 6.707031 -15.3125 6.109375 -15.140625 5.609375 -14.796875 C 5.117188 -14.460938 4.875 -14.0625 4.875 -13.59375 C 4.875 -13.332031 4.910156 -13.050781 4.984375 -12.75 C 5.035156 -12.414062 5.0625 -12.226562 5.0625 -12.1875 C 5.0625 -11.789062 4.898438 -11.441406 4.578125 -11.140625 C 4.265625 -10.847656 3.894531 -10.703125 3.46875 -10.703125 C 3.050781 -10.703125 2.695312 -10.851562 2.40625 -11.15625 C 2.113281 -11.46875 1.96875 -11.820312 1.96875 -12.21875 C 1.96875 -13.175781 2.445312 -14.050781 3.40625 -14.84375 C 4.457031 -15.71875 5.941406 -16.15625 7.859375 -16.15625 C 10.035156 -16.15625 11.5 -15.472656 12.25 -14.109375 C 12.695312 -13.390625 12.921875 -12.195312 12.921875 -10.53125 L 12.921875 -3.6875 C 12.921875 -2.914062 12.992188 -2.382812 13.140625 -2.09375 C 13.296875 -1.800781 13.570312 -1.65625 13.96875 -1.65625 C 14.457031 -1.65625 14.972656 -1.875 15.515625 -2.3125 Z M 10.078125 -4.3125 L 10.078125 -9.40625 C 7.972656 -8.632812 6.5 -7.882812 5.65625 -7.15625 C 4.8125 -6.4375 4.390625 -5.5625 4.390625 -4.53125 L 4.390625 -4.390625 C 4.390625 -3.640625 4.601562 -3 5.03125 -2.46875 C 5.46875 -1.945312 5.988281 -1.6875 6.59375 -1.6875 C 7.414062 -1.6875 8.269531 -1.941406 9.15625 -2.453125 C 9.53125 -2.691406 9.773438 -2.925781 9.890625 -3.15625 C 10.015625 -3.394531 10.078125 -3.78125 10.078125 -4.3125 Z M 10.078125 -4.3125 "/></g></g><g style="fill:#000000;fill-opacity:1;"><g transform="translate(309.787985, 327.102617)"><path style="stroke:none" d="M 16.4375 -8.53125 C 16.4375 -6.03125 15.644531 -3.925781 14.0625 -2.21875 C 12.476562 -0.507812 10.53125 0.34375 8.21875 0.34375 C 6.8125 0.34375 5.492188 0.101562 4.265625 -0.375 C 3.035156 -0.851562 2.421875 -1.359375 2.421875 -1.890625 L 2.421875 -20.125 C 2.421875 -20.84375 2.304688 -21.316406 2.078125 -21.546875 C 1.859375 -21.785156 1.398438 -21.90625 0.703125 -21.90625 C 0.441406 -21.90625 0.242188 -21.894531 0.109375 -21.875 L 0.109375 -22.4375 L 1.125 -22.71875 C 2.6875 -23.15625 4.046875 -23.578125 5.203125 -23.984375 L 5.375 -23.90625 L 5.375 -13.171875 C 5.71875 -14.035156 6.347656 -14.75 7.265625 -15.3125 C 8.179688 -15.875 9.175781 -16.15625 10.25 -16.15625 C 12.007812 -16.15625 13.476562 -15.421875 14.65625 -13.953125 C 15.84375 -12.492188 16.4375 -10.6875 16.4375 -8.53125 Z M 13.34375 -6.921875 C 13.34375 -9.046875 12.9375 -10.742188 12.125 -12.015625 C 11.320312 -13.296875 10.226562 -13.9375 8.84375 -13.9375 C 7.9375 -13.9375 7.128906 -13.664062 6.421875 -13.125 C 5.722656 -12.59375 5.375 -11.988281 5.375 -11.3125 L 5.375 -2.453125 C 5.375 -2.015625 5.710938 -1.625 6.390625 -1.28125 C 7.066406 -0.9375 7.863281 -0.765625 8.78125 -0.765625 C 10.226562 -0.765625 11.347656 -1.300781 12.140625 -2.375 C 12.941406 -3.457031 13.34375 -4.972656 13.34375 -6.921875 Z M 13.34375 -6.921875 "/></g></g><g style="fill:#000000;fill-opacity:1;"><g transform="translate(327.338833, 327.102617)"><path style="stroke:none" d="M 16.5 -8.21875 C 16.5 -5.78125 15.75 -3.742188 14.25 -2.109375 C 12.75 -0.472656 10.898438 0.34375 8.703125 0.34375 C 6.503906 0.34375 4.671875 -0.441406 3.203125 -2.015625 C 1.742188 -3.597656 1.015625 -5.570312 1.015625 -7.9375 C 1.015625 -10.34375 1.734375 -12.3125 3.171875 -13.84375 C 4.617188 -15.382812 6.488281 -16.15625 8.78125 -16.15625 C 11.019531 -16.15625 12.863281 -15.40625 14.3125 -13.90625 C 15.769531 -12.40625 16.5 -10.507812 16.5 -8.21875 Z M 13.34375 -6.984375 C 13.34375 -9.398438 12.875 -11.367188 11.9375 -12.890625 C 11 -14.410156 9.796875 -15.171875 8.328125 -15.171875 C 7.078125 -15.171875 6.070312 -14.664062 5.3125 -13.65625 C 4.550781 -12.644531 4.171875 -11.3125 4.171875 -9.65625 C 4.171875 -7.0625 4.6875 -4.800781 5.71875 -2.875 C 6.519531 -1.375 7.65625 -0.625 9.125 -0.625 C 10.4375 -0.625 11.46875 -1.1875 12.21875 -2.3125 C 12.96875 -3.4375 13.34375 -4.992188 13.34375 -6.984375 Z M 13.34375 -6.984375 "/></g></g><g style="fill:#000000;fill-opacity:1;"><g transform="translate(344.88968, 327.102617)"><path style="stroke:none" d="M 16.8125 -1.265625 C 14.988281 -0.773438 13.382812 -0.25 12 0.3125 L 11.859375 0.25 L 11.859375 -2.671875 L 10.359375 -1.15625 C 9.347656 -0.15625 8.140625 0.34375 6.734375 0.34375 C 5.453125 0.34375 4.425781 -0.0664062 3.65625 -0.890625 C 2.882812 -1.722656 2.5 -2.832031 2.5 -4.21875 L 2.5 -13.0625 C 2.5 -13.882812 2.34375 -14.453125 2.03125 -14.765625 C 1.726562 -15.078125 1.15625 -15.257812 0.3125 -15.3125 L 0.3125 -15.796875 L 5.4375 -15.796875 L 5.4375 -4.359375 C 5.4375 -3.628906 5.679688 -3 6.171875 -2.46875 C 6.671875 -1.945312 7.257812 -1.6875 7.9375 -1.6875 C 9.0625 -1.6875 10.113281 -2.109375 11.09375 -2.953125 C 11.488281 -3.253906 11.6875 -3.847656 11.6875 -4.734375 L 11.6875 -12.984375 C 11.6875 -13.859375 11.53125 -14.429688 11.21875 -14.703125 C 10.90625 -14.984375 10.195312 -15.148438 9.09375 -15.203125 L 9.09375 -15.796875 L 14.640625 -15.796875 L 14.640625 -3.75 C 14.640625 -2.9375 14.773438 -2.398438 15.046875 -2.140625 C 15.316406 -1.878906 15.847656 -1.75 16.640625 -1.75 L 16.8125 -1.75 Z M 16.8125 -1.265625 "/></g></g><g style="fill:#000000;fill-opacity:1;"><g transform="translate(362.440528, 327.102617)"><path style="stroke:none" d="M 9.796875 -2.3125 C 8.671875 -0.539062 7.253906 0.34375 5.546875 0.34375 C 3.484375 0.34375 2.453125 -1.140625 2.453125 -4.109375 L 2.453125 -14.671875 L 0.59375 -14.671875 C 0.5 -14.742188 0.453125 -14.828125 0.453125 -14.921875 C 0.453125 -15.109375 0.648438 -15.332031 1.046875 -15.59375 C 2.015625 -16.15625 3.148438 -17.40625 4.453125 -19.34375 C 4.785156 -19.769531 5.019531 -20.097656 5.15625 -20.328125 C 5.320312 -20.328125 5.40625 -20.175781 5.40625 -19.875 L 5.40625 -15.796875 L 8.953125 -15.796875 L 8.953125 -14.671875 L 5.40625 -14.671875 L 5.40625 -4.640625 C 5.40625 -3.515625 5.546875 -2.703125 5.828125 -2.203125 C 6.109375 -1.710938 6.578125 -1.46875 7.234375 -1.46875 C 7.929688 -1.46875 8.632812 -1.878906 9.34375 -2.703125 Z M 9.796875 -2.3125 "/></g></g><g style="fill:#000000;fill-opacity:1;"><g transform="translate(372.198802, 327.102617)"><path style="stroke:none" d=""/></g></g><g style="fill:#000000;fill-opacity:1;"><g transform="translate(380.974215, 327.102617)"><path style="stroke:none" d="M 12.984375 -22.578125 C 11.554688 -22.484375 10.660156 -22.253906 10.296875 -21.890625 C 9.941406 -21.523438 9.765625 -20.703125 9.765625 -19.421875 L 9.765625 -6.421875 C 9.765625 -4.222656 9.25 -2.519531 8.21875 -1.3125 C 7.1875 -0.113281 5.722656 0.484375 3.828125 0.484375 C 2.816406 0.484375 1.984375 0.253906 1.328125 -0.203125 C 0.671875 -0.671875 0.34375 -1.28125 0.34375 -2.03125 C 0.34375 -2.5 0.515625 -2.910156 0.859375 -3.265625 C 1.203125 -3.617188 1.609375 -3.796875 2.078125 -3.796875 C 2.941406 -3.796875 3.546875 -3.195312 3.890625 -2 C 4.015625 -1.550781 4.144531 -1.242188 4.28125 -1.078125 C 4.425781 -0.921875 4.613281 -0.84375 4.84375 -0.84375 C 5.726562 -0.84375 6.171875 -1.613281 6.171875 -3.15625 L 6.171875 -19.421875 C 6.171875 -20.703125 5.984375 -21.523438 5.609375 -21.890625 C 5.242188 -22.253906 4.347656 -22.484375 2.921875 -22.578125 L 2.921875 -23.25 L 12.984375 -23.25 Z M 12.984375 -22.578125 "/></g></g><g style="fill:#000000;fill-opacity:1;"><g transform="translate(394.628786, 327.102617)"><path style="stroke:none" d="M 16.5 -8.21875 C 16.5 -5.78125 15.75 -3.742188 14.25 -2.109375 C 12.75 -0.472656 10.898438 0.34375 8.703125 0.34375 C 6.503906 0.34375 4.671875 -0.441406 3.203125 -2.015625 C 1.742188 -3.597656 1.015625 -5.570312 1.015625 -7.9375 C 1.015625 -10.34375 1.734375 -12.3125 3.171875 -13.84375 C 4.617188 -15.382812 6.488281 -16.15625 8.78125 -16.15625 C 11.019531 -16.15625 12.863281 -15.40625 14.3125 -13.90625 C 15.769531 -12.40625 16.5 -10.507812 16.5 -8.21875 Z M 13.34375 -6.984375 C 13.34375 -9.398438 12.875 -11.367188 11.9375 -12.890625 C 11 -14.410156 9.796875 -15.171875 8.328125 -15.171875 C 7.078125 -15.171875 6.070312 -14.664062 5.3125 -13.65625 C 4.550781 -12.644531 4.171875 -11.3125 4.171875 -9.65625 C 4.171875 -7.0625 4.6875 -4.800781 5.71875 -2.875 C 6.519531 -1.375 7.65625 -0.625 9.125 -0.625 C 10.4375 -0.625 11.46875 -1.1875 12.21875 -2.3125 C 12.96875 -3.4375 13.34375 -4.992188 13.34375 -6.984375 Z M 13.34375 -6.984375 "/></g></g><g style="fill:#000000;fill-opacity:1;"><g transform="translate(412.179654, 327.102617)"><path style="stroke:none" d="M 14.890625 -5.515625 C 13.367188 -1.609375 10.882812 0.34375 7.4375 0.34375 C 5.425781 0.34375 3.828125 -0.359375 2.640625 -1.765625 C 1.460938 -3.179688 0.875 -5.097656 0.875 -7.515625 C 0.875 -10.066406 1.550781 -12.144531 2.90625 -13.75 C 4.269531 -15.351562 6.039062 -16.15625 8.21875 -16.15625 C 10.09375 -16.15625 11.585938 -15.488281 12.703125 -14.15625 C 13.484375 -13.164062 13.988281 -11.6875 14.21875 -9.71875 L 3.40625 -9.71875 C 3.476562 -7.726562 3.828125 -6.113281 4.453125 -4.875 C 5.460938 -3.007812 6.9375 -2.078125 8.875 -2.078125 C 10 -2.078125 10.976562 -2.351562 11.8125 -2.90625 C 12.644531 -3.46875 13.484375 -4.421875 14.328125 -5.765625 Z M 10.640625 -10.84375 C 10.398438 -12.363281 10.035156 -13.414062 9.546875 -14 C 9.054688 -14.59375 8.273438 -14.890625 7.203125 -14.890625 C 5.085938 -14.890625 3.84375 -13.539062 3.46875 -10.84375 Z M 10.640625 -10.84375 "/></g></g><g style="fill:#000000;fill-opacity:1;"><g transform="translate(427.764801, 327.102617)"><path style="stroke:none" d="M 4.671875 -22.328125 C 4.671875 -21.253906 4.378906 -19.320312 3.796875 -16.53125 L 3.546875 -15.125 L 2.8125 -15.125 C 2.0625 -19.082031 1.6875 -21.472656 1.6875 -22.296875 C 1.6875 -22.691406 1.832031 -23.03125 2.125 -23.3125 C 2.414062 -23.59375 2.769531 -23.734375 3.1875 -23.734375 C 3.59375 -23.734375 3.941406 -23.59375 4.234375 -23.3125 C 4.523438 -23.03125 4.671875 -22.703125 4.671875 -22.328125 Z M 4.671875 -22.328125 "/></g></g><g style="fill:#000000;fill-opacity:1;"><g transform="translate(434.083126, 327.102617)"><path style="stroke:none" d="M 12.21875 -4.140625 C 12.21875 -2.921875 11.726562 -1.867188 10.75 -0.984375 C 9.78125 -0.0976562 8.628906 0.34375 7.296875 0.34375 C 6.671875 0.34375 5.804688 0.226562 4.703125 0 C 3.953125 -0.1875 3.414062 -0.28125 3.09375 -0.28125 C 2.738281 -0.28125 2.46875 -0.140625 2.28125 0.140625 L 1.828125 0.140625 L 1.828125 -5.34375 L 2.390625 -5.34375 C 2.785156 -3.5625 3.320312 -2.296875 4 -1.546875 C 4.675781 -0.796875 5.625 -0.421875 6.84375 -0.421875 C 7.738281 -0.421875 8.445312 -0.648438 8.96875 -1.109375 C 9.5 -1.566406 9.765625 -2.179688 9.765625 -2.953125 C 9.765625 -4.003906 9.15625 -4.878906 7.9375 -5.578125 L 5.890625 -6.734375 C 4.398438 -7.609375 3.34375 -8.425781 2.71875 -9.1875 C 2.101562 -9.945312 1.796875 -10.816406 1.796875 -11.796875 C 1.796875 -13.085938 2.242188 -14.128906 3.140625 -14.921875 C 4.046875 -15.710938 5.210938 -16.109375 6.640625 -16.109375 C 7.503906 -16.109375 8.296875 -15.96875 9.015625 -15.6875 C 9.367188 -15.53125 9.6875 -15.453125 9.96875 -15.453125 C 10.0625 -15.453125 10.226562 -15.546875 10.46875 -15.734375 L 10.53125 -15.796875 L 10.921875 -15.796875 L 11.0625 -11.03125 L 10.53125 -11.03125 C 10.132812 -12.59375 9.644531 -13.703125 9.0625 -14.359375 C 8.476562 -15.015625 7.679688 -15.34375 6.671875 -15.34375 C 5.847656 -15.34375 5.191406 -15.125 4.703125 -14.6875 C 4.210938 -14.257812 3.96875 -13.679688 3.96875 -12.953125 C 3.96875 -11.953125 4.472656 -11.15625 5.484375 -10.5625 L 9.265625 -8.328125 C 10.347656 -7.691406 11.109375 -7.054688 11.546875 -6.421875 C 11.992188 -5.796875 12.21875 -5.035156 12.21875 -4.140625 Z M 12.21875 -4.140625 "/></g></g><g style="fill:#000000;fill-opacity:1;"><g transform="translate(447.743533, 327.102617)"><path style="stroke:none" d=""/></g></g><g style="fill:#000000;fill-opacity:1;"><g transform="translate(37.589062, 375.608294)"><path style="stroke:none" d="M 11.765625 -14.296875 C 11.765625 -13.796875 11.640625 -13.40625 11.390625 -13.125 C 11.148438 -12.84375 10.816406 -12.703125 10.390625 -12.703125 C 9.992188 -12.703125 9.523438 -12.9375 8.984375 -13.40625 C 8.609375 -13.757812 8.304688 -13.9375 8.078125 -13.9375 C 7.609375 -13.9375 7.082031 -13.597656 6.5 -12.921875 C 5.914062 -12.242188 5.625 -11.625 5.625 -11.0625 L 5.625 -3.15625 C 5.625 -2.15625 5.820312 -1.476562 6.21875 -1.125 C 6.613281 -0.769531 7.410156 -0.570312 8.609375 -0.53125 L 8.609375 0 L 0.171875 0 L 0.171875 -0.53125 C 1.296875 -0.738281 1.992188 -0.96875 2.265625 -1.21875 C 2.535156 -1.476562 2.671875 -2.054688 2.671875 -2.953125 L 2.671875 -11.71875 C 2.671875 -12.5 2.582031 -13.046875 2.40625 -13.359375 C 2.226562 -13.671875 1.914062 -13.828125 1.46875 -13.828125 C 1.09375 -13.828125 0.6875 -13.78125 0.25 -13.6875 L 0.25 -14.25 C 2.113281 -14.863281 3.84375 -15.5 5.4375 -16.15625 L 5.625 -16.078125 L 5.625 -12.84375 C 6.488281 -14.082031 7.222656 -14.941406 7.828125 -15.421875 C 8.441406 -15.910156 9.109375 -16.15625 9.828125 -16.15625 C 10.441406 -16.15625 10.914062 -15.988281 11.25 -15.65625 C 11.59375 -15.332031 11.765625 -14.878906 11.765625 -14.296875 Z M 11.765625 -14.296875 "/></g></g><g style="fill:#000000;fill-opacity:1;"><g transform="translate(49.277933, 375.608294)"><path style="stroke:none" d="M 14.890625 -5.515625 C 13.367188 -1.609375 10.882812 0.34375 7.4375 0.34375 C 5.425781 0.34375 3.828125 -0.359375 2.640625 -1.765625 C 1.460938 -3.179688 0.875 -5.097656 0.875 -7.515625 C 0.875 -10.066406 1.550781 -12.144531 2.90625 -13.75 C 4.269531 -15.351562 6.039062 -16.15625 8.21875 -16.15625 C 10.09375 -16.15625 11.585938 -15.488281 12.703125 -14.15625 C 13.484375 -13.164062 13.988281 -11.6875 14.21875 -9.71875 L 3.40625 -9.71875 C 3.476562 -7.726562 3.828125 -6.113281 4.453125 -4.875 C 5.460938 -3.007812 6.9375 -2.078125 8.875 -2.078125 C 10 -2.078125 10.976562 -2.351562 11.8125 -2.90625 C 12.644531 -3.46875 13.484375 -4.421875 14.328125 -5.765625 Z M 10.640625 -10.84375 C 10.398438 -12.363281 10.035156 -13.414062 9.546875 -14 C 9.054688 -14.59375 8.273438 -14.890625 7.203125 -14.890625 C 5.085938 -14.890625 3.84375 -13.539062 3.46875 -10.84375 Z M 10.640625 -10.84375 "/></g></g><g style="fill:#000000;fill-opacity:1;"><g transform="translate(64.863079, 375.608294)"><path style="stroke:none" d="M 12.21875 -4.140625 C 12.21875 -2.921875 11.726562 -1.867188 10.75 -0.984375 C 9.78125 -0.0976562 8.628906 0.34375 7.296875 0.34375 C 6.671875 0.34375 5.804688 0.226562 4.703125 0 C 3.953125 -0.1875 3.414062 -0.28125 3.09375 -0.28125 C 2.738281 -0.28125 2.46875 -0.140625 2.28125 0.140625 L 1.828125 0.140625 L 1.828125 -5.34375 L 2.390625 -5.34375 C 2.785156 -3.5625 3.320312 -2.296875 4 -1.546875 C 4.675781 -0.796875 5.625 -0.421875 6.84375 -0.421875 C 7.738281 -0.421875 8.445312 -0.648438 8.96875 -1.109375 C 9.5 -1.566406 9.765625 -2.179688 9.765625 -2.953125 C 9.765625 -4.003906 9.15625 -4.878906 7.9375 -5.578125 L 5.890625 -6.734375 C 4.398438 -7.609375 3.34375 -8.425781 2.71875 -9.1875 C 2.101562 -9.945312 1.796875 -10.816406 1.796875 -11.796875 C 1.796875 -13.085938 2.242188 -14.128906 3.140625 -14.921875 C 4.046875 -15.710938 5.210938 -16.109375 6.640625 -16.109375 C 7.503906 -16.109375 8.296875 -15.96875 9.015625 -15.6875 C 9.367188 -15.53125 9.6875 -15.453125 9.96875 -15.453125 C 10.0625 -15.453125 10.226562 -15.546875 10.46875 -15.734375 L 10.53125 -15.796875 L 10.921875 -15.796875 L 11.0625 -11.03125 L 10.53125 -11.03125 C 10.132812 -12.59375 9.644531 -13.703125 9.0625 -14.359375 C 8.476562 -15.015625 7.679688 -15.34375 6.671875 -15.34375 C 5.847656 -15.34375 5.191406 -15.125 4.703125 -14.6875 C 4.210938 -14.257812 3.96875 -13.679688 3.96875 -12.953125 C 3.96875 -11.953125 4.472656 -11.15625 5.484375 -10.5625 L 9.265625 -8.328125 C 10.347656 -7.691406 11.109375 -7.054688 11.546875 -6.421875 C 11.992188 -5.796875 12.21875 -5.035156 12.21875 -4.140625 Z M 12.21875 -4.140625 "/></g></g><g style="fill:#000000;fill-opacity:1;"><g transform="translate(78.517651, 375.608294)"><path style="stroke:none" d="M 14.890625 -5.515625 C 13.367188 -1.609375 10.882812 0.34375 7.4375 0.34375 C 5.425781 0.34375 3.828125 -0.359375 2.640625 -1.765625 C 1.460938 -3.179688 0.875 -5.097656 0.875 -7.515625 C 0.875 -10.066406 1.550781 -12.144531 2.90625 -13.75 C 4.269531 -15.351562 6.039062 -16.15625 8.21875 -16.15625 C 10.09375 -16.15625 11.585938 -15.488281 12.703125 -14.15625 C 13.484375 -13.164062 13.988281 -11.6875 14.21875 -9.71875 L 3.40625 -9.71875 C 3.476562 -7.726562 3.828125 -6.113281 4.453125 -4.875 C 5.460938 -3.007812 6.9375 -2.078125 8.875 -2.078125 C 10 -2.078125 10.976562 -2.351562 11.8125 -2.90625 C 12.644531 -3.46875 13.484375 -4.421875 14.328125 -5.765625 Z M 10.640625 -10.84375 C 10.398438 -12.363281 10.035156 -13.414062 9.546875 -14 C 9.054688 -14.59375 8.273438 -14.890625 7.203125 -14.890625 C 5.085938 -14.890625 3.84375 -13.539062 3.46875 -10.84375 Z M 10.640625 -10.84375 "/></g></g><g style="fill:#000000;fill-opacity:1;"><g transform="translate(94.102797, 375.608294)"><path style="stroke:none" d="M 15.515625 -1.40625 C 14.910156 -0.726562 14.378906 -0.265625 13.921875 -0.015625 C 13.460938 0.222656 12.941406 0.34375 12.359375 0.34375 C 11.628906 0.34375 11.09375 0.148438 10.75 -0.234375 C 10.414062 -0.617188 10.203125 -1.28125 10.109375 -2.21875 C 8.097656 -0.507812 6.390625 0.34375 4.984375 0.34375 C 3.910156 0.34375 3.023438 -0.00390625 2.328125 -0.703125 C 1.640625 -1.398438 1.296875 -2.300781 1.296875 -3.40625 C 1.296875 -4.664062 1.71875 -5.679688 2.5625 -6.453125 C 3.3125 -7.109375 4.066406 -7.628906 4.828125 -8.015625 C 5.585938 -8.410156 7.335938 -9.15625 10.078125 -10.25 L 10.078125 -12.390625 C 10.078125 -14.335938 9.1875 -15.3125 7.40625 -15.3125 C 6.707031 -15.3125 6.109375 -15.140625 5.609375 -14.796875 C 5.117188 -14.460938 4.875 -14.0625 4.875 -13.59375 C 4.875 -13.332031 4.910156 -13.050781 4.984375 -12.75 C 5.035156 -12.414062 5.0625 -12.226562 5.0625 -12.1875 C 5.0625 -11.789062 4.898438 -11.441406 4.578125 -11.140625 C 4.265625 -10.847656 3.894531 -10.703125 3.46875 -10.703125 C 3.050781 -10.703125 2.695312 -10.851562 2.40625 -11.15625 C 2.113281 -11.46875 1.96875 -11.820312 1.96875 -12.21875 C 1.96875 -13.175781 2.445312 -14.050781 3.40625 -14.84375 C 4.457031 -15.71875 5.941406 -16.15625 7.859375 -16.15625 C 10.035156 -16.15625 11.5 -15.472656 12.25 -14.109375 C 12.695312 -13.390625 12.921875 -12.195312 12.921875 -10.53125 L 12.921875 -3.6875 C 12.921875 -2.914062 12.992188 -2.382812 13.140625 -2.09375 C 13.296875 -1.800781 13.570312 -1.65625 13.96875 -1.65625 C 14.457031 -1.65625 14.972656 -1.875 15.515625 -2.3125 Z M 10.078125 -4.3125 L 10.078125 -9.40625 C 7.972656 -8.632812 6.5 -7.882812 5.65625 -7.15625 C 4.8125 -6.4375 4.390625 -5.5625 4.390625 -4.53125 L 4.390625 -4.390625 C 4.390625 -3.640625 4.601562 -3 5.03125 -2.46875 C 5.46875 -1.945312 5.988281 -1.6875 6.59375 -1.6875 C 7.414062 -1.6875 8.269531 -1.941406 9.15625 -2.453125 C 9.53125 -2.691406 9.773438 -2.925781 9.890625 -3.15625 C 10.015625 -3.394531 10.078125 -3.78125 10.078125 -4.3125 Z M 10.078125 -4.3125 "/></g></g><g style="fill:#000000;fill-opacity:1;"><g transform="translate(109.687944, 375.608294)"><path style="stroke:none" d="M 11.765625 -14.296875 C 11.765625 -13.796875 11.640625 -13.40625 11.390625 -13.125 C 11.148438 -12.84375 10.816406 -12.703125 10.390625 -12.703125 C 9.992188 -12.703125 9.523438 -12.9375 8.984375 -13.40625 C 8.609375 -13.757812 8.304688 -13.9375 8.078125 -13.9375 C 7.609375 -13.9375 7.082031 -13.597656 6.5 -12.921875 C 5.914062 -12.242188 5.625 -11.625 5.625 -11.0625 L 5.625 -3.15625 C 5.625 -2.15625 5.820312 -1.476562 6.21875 -1.125 C 6.613281 -0.769531 7.410156 -0.570312 8.609375 -0.53125 L 8.609375 0 L 0.171875 0 L 0.171875 -0.53125 C 1.296875 -0.738281 1.992188 -0.96875 2.265625 -1.21875 C 2.535156 -1.476562 2.671875 -2.054688 2.671875 -2.953125 L 2.671875 -11.71875 C 2.671875 -12.5 2.582031 -13.046875 2.40625 -13.359375 C 2.226562 -13.671875 1.914062 -13.828125 1.46875 -13.828125 C 1.09375 -13.828125 0.6875 -13.78125 0.25 -13.6875 L 0.25 -14.25 C 2.113281 -14.863281 3.84375 -15.5 5.4375 -16.15625 L 5.625 -16.078125 L 5.625 -12.84375 C 6.488281 -14.082031 7.222656 -14.941406 7.828125 -15.421875 C 8.441406 -15.910156 9.109375 -16.15625 9.828125 -16.15625 C 10.441406 -16.15625 10.914062 -15.988281 11.25 -15.65625 C 11.59375 -15.332031 11.765625 -14.878906 11.765625 -14.296875 Z M 11.765625 -14.296875 "/></g></g><g style="fill:#000000;fill-opacity:1;"><g transform="translate(121.376815, 375.608294)"><path style="stroke:none" d="M 14.46875 -5.15625 C 13.457031 -3.195312 12.5 -1.851562 11.59375 -1.125 C 10.394531 -0.144531 9.046875 0.34375 7.546875 0.34375 C 5.609375 0.34375 4.007812 -0.382812 2.75 -1.84375 C 1.5 -3.300781 0.875 -5.164062 0.875 -7.4375 C 0.875 -10.414062 1.859375 -12.722656 3.828125 -14.359375 C 5.273438 -15.554688 6.851562 -16.15625 8.5625 -16.15625 C 10.039062 -16.15625 11.3125 -15.796875 12.375 -15.078125 C 13.4375 -14.367188 13.96875 -13.519531 13.96875 -12.53125 C 13.96875 -12.132812 13.800781 -11.789062 13.46875 -11.5 C 13.144531 -11.207031 12.765625 -11.0625 12.328125 -11.0625 C 11.503906 -11.0625 10.941406 -11.597656 10.640625 -12.671875 L 10.421875 -13.453125 C 10.234375 -14.109375 10 -14.550781 9.71875 -14.78125 C 9.4375 -15.007812 8.984375 -15.125 8.359375 -15.125 C 6.929688 -15.125 5.773438 -14.5625 4.890625 -13.4375 C 4.015625 -12.320312 3.578125 -10.847656 3.578125 -9.015625 C 3.578125 -7.003906 4.078125 -5.359375 5.078125 -4.078125 C 6.085938 -2.804688 7.398438 -2.171875 9.015625 -2.171875 C 10.023438 -2.171875 10.890625 -2.410156 11.609375 -2.890625 C 12.335938 -3.367188 13.125 -4.234375 13.96875 -5.484375 Z M 14.46875 -5.15625 "/></g></g><g style="fill:#000000;fill-opacity:1;"><g transform="translate(136.961962, 375.608294)"><path style="stroke:none" d="M 17.09375 0 L 9.65625 0 L 9.65625 -0.53125 C 10.664062 -0.625 11.316406 -0.859375 11.609375 -1.234375 C 11.898438 -1.609375 12.046875 -2.390625 12.046875 -3.578125 L 12.046875 -10.53125 C 12.046875 -13.007812 11.164062 -14.25 9.40625 -14.25 C 8.726562 -14.25 8.085938 -14.078125 7.484375 -13.734375 C 6.890625 -13.398438 6.234375 -12.835938 5.515625 -12.046875 L 5.515625 -3.578125 C 5.515625 -2.359375 5.65625 -1.570312 5.9375 -1.21875 C 6.21875 -0.875 6.875 -0.644531 7.90625 -0.53125 L 7.90625 0 L 0.3125 0 L 0.3125 -0.53125 C 1.320312 -0.664062 1.945312 -0.894531 2.1875 -1.21875 C 2.4375 -1.550781 2.5625 -2.335938 2.5625 -3.578125 L 2.5625 -20.125 C 2.5625 -20.863281 2.445312 -21.34375 2.21875 -21.5625 C 2 -21.789062 1.515625 -21.90625 0.765625 -21.90625 C 0.578125 -21.90625 0.4375 -21.894531 0.34375 -21.875 L 0.34375 -22.4375 L 1.296875 -22.71875 C 2.890625 -23.15625 4.238281 -23.578125 5.34375 -23.984375 L 5.515625 -23.875 L 5.515625 -13.203125 C 6.328125 -14.253906 7.128906 -15.007812 7.921875 -15.46875 C 8.722656 -15.925781 9.640625 -16.15625 10.671875 -16.15625 C 13.546875 -16.15625 14.984375 -14.289062 14.984375 -10.5625 L 14.984375 -3.578125 C 14.984375 -2.359375 15.09375 -1.59375 15.3125 -1.28125 C 15.539062 -0.96875 16.132812 -0.71875 17.09375 -0.53125 Z M 17.09375 0 "/></g></g><g style="fill:#000000;fill-opacity:1;"><g transform="translate(154.512809, 375.608294)"><path style="stroke:none" d=""/></g></g><g style="fill:#000000;fill-opacity:1;"><g transform="translate(163.288243, 375.608294)"><path style="stroke:none" d="M 16.5 -8.21875 C 16.5 -5.78125 15.75 -3.742188 14.25 -2.109375 C 12.75 -0.472656 10.898438 0.34375 8.703125 0.34375 C 6.503906 0.34375 4.671875 -0.441406 3.203125 -2.015625 C 1.742188 -3.597656 1.015625 -5.570312 1.015625 -7.9375 C 1.015625 -10.34375 1.734375 -12.3125 3.171875 -13.84375 C 4.617188 -15.382812 6.488281 -16.15625 8.78125 -16.15625 C 11.019531 -16.15625 12.863281 -15.40625 14.3125 -13.90625 C 15.769531 -12.40625 16.5 -10.507812 16.5 -8.21875 Z M 13.34375 -6.984375 C 13.34375 -9.398438 12.875 -11.367188 11.9375 -12.890625 C 11 -14.410156 9.796875 -15.171875 8.328125 -15.171875 C 7.078125 -15.171875 6.070312 -14.664062 5.3125 -13.65625 C 4.550781 -12.644531 4.171875 -11.3125 4.171875 -9.65625 C 4.171875 -7.0625 4.6875 -4.800781 5.71875 -2.875 C 6.519531 -1.375 7.65625 -0.625 9.125 -0.625 C 10.4375 -0.625 11.46875 -1.1875 12.21875 -2.3125 C 12.96875 -3.4375 13.34375 -4.992188 13.34375 -6.984375 Z M 13.34375 -6.984375 "/></g></g><g style="fill:#000000;fill-opacity:1;"><g transform="translate(180.839091, 375.608294)"><path style="stroke:none" d="M 17.03125 0 L 9.71875 0 L 9.71875 -0.53125 C 10.613281 -0.59375 11.207031 -0.820312 11.5 -1.21875 C 11.789062 -1.625 11.9375 -2.375 11.9375 -3.46875 L 11.9375 -10.8125 C 11.9375 -13.082031 11.082031 -14.21875 9.375 -14.21875 C 8.789062 -14.21875 8.25 -14.082031 7.75 -13.8125 C 7.257812 -13.539062 6.597656 -13.007812 5.765625 -12.21875 L 5.765625 -2.359375 C 5.765625 -1.722656 5.925781 -1.273438 6.25 -1.015625 C 6.570312 -0.753906 7.179688 -0.59375 8.078125 -0.53125 L 8.078125 0 L 0.625 0 L 0.625 -0.53125 C 1.519531 -0.59375 2.109375 -0.796875 2.390625 -1.140625 C 2.671875 -1.484375 2.8125 -2.15625 2.8125 -3.15625 L 2.8125 -11.859375 C 2.8125 -12.734375 2.71875 -13.328125 2.53125 -13.640625 C 2.34375 -13.953125 2.003906 -14.109375 1.515625 -14.109375 C 1.066406 -14.109375 0.75 -14.0625 0.5625 -13.96875 L 0.5625 -14.578125 C 2.289062 -15.085938 3.90625 -15.613281 5.40625 -16.15625 L 5.65625 -16.078125 L 5.65625 -13.3125 C 6.84375 -14.425781 7.78125 -15.175781 8.46875 -15.5625 C 9.164062 -15.957031 9.925781 -16.15625 10.75 -16.15625 C 12.03125 -16.15625 13.039062 -15.691406 13.78125 -14.765625 C 14.519531 -13.835938 14.890625 -12.546875 14.890625 -10.890625 L 14.890625 -2.84375 C 14.890625 -1.976562 15.03125 -1.398438 15.3125 -1.109375 C 15.59375 -0.816406 16.164062 -0.625 17.03125 -0.53125 Z M 17.03125 0 "/></g></g><g style="fill:#000000;fill-opacity:1;"><g transform="translate(198.389938, 375.608294)"><path style="stroke:none" d=""/></g></g><g style="fill:#000000;fill-opacity:1;"><g transform="translate(207.165373, 375.608294)"><path style="stroke:none" d="M 24.75 -22.578125 C 23.300781 -22.390625 22.390625 -22.035156 22.015625 -21.515625 C 21.640625 -21.003906 21.453125 -19.859375 21.453125 -18.078125 L 21.453125 -8.921875 C 21.453125 -6.410156 21.066406 -4.476562 20.296875 -3.125 C 18.910156 -0.71875 16.300781 0.484375 12.46875 0.484375 C 9.46875 0.484375 7.25 -0.242188 5.8125 -1.703125 C 4.375 -3.160156 3.65625 -5.414062 3.65625 -8.46875 L 3.65625 -19.421875 C 3.65625 -20.703125 3.472656 -21.519531 3.109375 -21.875 C 2.742188 -22.226562 1.867188 -22.460938 0.484375 -22.578125 L 0.484375 -23.25 L 10.421875 -23.25 L 10.421875 -22.578125 C 9.023438 -22.460938 8.144531 -22.222656 7.78125 -21.859375 C 7.414062 -21.492188 7.234375 -20.679688 7.234375 -19.421875 L 7.234375 -8.1875 C 7.234375 -6.125 7.523438 -4.578125 8.109375 -3.546875 C 9.066406 -1.878906 10.785156 -1.046875 13.265625 -1.046875 C 14.578125 -1.046875 15.757812 -1.296875 16.8125 -1.796875 C 17.863281 -2.304688 18.625 -2.984375 19.09375 -3.828125 C 19.632812 -4.835938 19.90625 -6.429688 19.90625 -8.609375 L 19.90625 -18.078125 C 19.90625 -19.835938 19.691406 -21.003906 19.265625 -21.578125 C 18.847656 -22.148438 17.960938 -22.484375 16.609375 -22.578125 L 16.609375 -23.25 L 24.75 -23.25 Z M 24.75 -22.578125 "/></g></g><g style="fill:#000000;fill-opacity:1;"><g transform="translate(232.508793, 375.608294)"><path style="stroke:none" d="M 16.8125 0 L 9.765625 0 L 9.765625 -0.53125 C 10.347656 -0.570312 10.726562 -0.644531 10.90625 -0.75 C 11.082031 -0.851562 11.171875 -1.0625 11.171875 -1.375 C 11.171875 -1.582031 11.097656 -1.789062 10.953125 -2 L 7.765625 -6.921875 L 4.984375 -2.59375 C 4.515625 -1.875 4.28125 -1.394531 4.28125 -1.15625 C 4.28125 -0.738281 4.75 -0.53125 5.6875 -0.53125 L 5.6875 0 L 0.59375 0 L 0.59375 -0.53125 C 1.175781 -0.570312 1.613281 -0.695312 1.90625 -0.90625 C 2.207031 -1.125 2.625 -1.59375 3.15625 -2.3125 L 7.15625 -8.109375 L 3.859375 -13.171875 C 3.316406 -13.984375 2.859375 -14.535156 2.484375 -14.828125 C 2.117188 -15.117188 1.675781 -15.265625 1.15625 -15.265625 L 0.84375 -15.265625 L 0.84375 -15.796875 L 8.109375 -15.796875 L 8.109375 -15.265625 C 7.097656 -15.242188 6.59375 -14.988281 6.59375 -14.5 C 6.59375 -14.03125 7.132812 -12.988281 8.21875 -11.375 L 8.703125 -10.671875 C 9.265625 -11.515625 9.617188 -12.03125 9.765625 -12.21875 C 10.628906 -13.289062 11.0625 -14.050781 11.0625 -14.5 C 11.0625 -14.945312 10.59375 -15.203125 9.65625 -15.265625 L 9.65625 -15.796875 L 15.203125 -15.796875 L 15.203125 -15.265625 C 14.003906 -15.222656 13.054688 -14.710938 12.359375 -13.734375 L 9.4375 -9.515625 L 13.9375 -2.640625 C 14.5 -1.835938 14.984375 -1.285156 15.390625 -0.984375 C 15.804688 -0.679688 16.28125 -0.53125 16.8125 -0.53125 Z M 16.8125 0 "/></g></g><g style="fill:#000000;fill-opacity:1;"><g transform="translate(250.05964, 375.608294)"><path style="stroke:none" d="M 17.234375 -5.890625 C 17.234375 -4.085938 16.546875 -2.570312 15.171875 -1.34375 C 13.804688 -0.125 12.109375 0.484375 10.078125 0.484375 C 8.671875 0.484375 7.289062 0.21875 5.9375 -0.3125 C 5.226562 -0.570312 4.675781 -0.703125 4.28125 -0.703125 C 4.019531 -0.703125 3.796875 -0.585938 3.609375 -0.359375 C 3.421875 -0.140625 3.316406 0.128906 3.296875 0.453125 L 2.53125 0.453125 L 1.46875 -6.984375 L 2.28125 -6.984375 C 3.164062 -4.828125 4.175781 -3.25 5.3125 -2.25 C 6.445312 -1.257812 7.800781 -0.765625 9.375 -0.765625 C 10.664062 -0.765625 11.707031 -1.128906 12.5 -1.859375 C 13.289062 -2.585938 13.6875 -3.535156 13.6875 -4.703125 C 13.6875 -5.566406 13.523438 -6.257812 13.203125 -6.78125 C 12.335938 -8.09375 10.59375 -9.460938 7.96875 -10.890625 C 6 -11.910156 4.59375 -12.945312 3.75 -14 C 2.914062 -15.0625 2.5 -16.289062 2.5 -17.6875 C 2.5 -19.613281 3.175781 -21.140625 4.53125 -22.265625 C 5.75 -23.242188 7.070312 -23.734375 8.5 -23.734375 C 9.664062 -23.734375 10.925781 -23.476562 12.28125 -22.96875 C 12.914062 -22.6875 13.429688 -22.546875 13.828125 -22.546875 C 14.441406 -22.546875 14.816406 -22.941406 14.953125 -23.734375 L 15.6875 -23.734375 L 16.46875 -16.25 L 15.59375 -16.25 C 15.125 -18.007812 14.410156 -19.378906 13.453125 -20.359375 C 12.210938 -21.648438 10.78125 -22.296875 9.15625 -22.296875 C 8.0625 -22.296875 7.179688 -21.992188 6.515625 -21.390625 C 5.847656 -20.796875 5.515625 -20.019531 5.515625 -19.0625 C 5.515625 -18.101562 5.910156 -17.203125 6.703125 -16.359375 C 7.503906 -15.515625 8.828125 -14.59375 10.671875 -13.59375 C 12.992188 -12.320312 14.664062 -11.082031 15.6875 -9.875 C 16.71875 -8.675781 17.234375 -7.347656 17.234375 -5.890625 Z M 17.234375 -5.890625 "/></g></g><g style="fill:#000000;fill-opacity:1;"><g transform="translate(269.576188, 375.608294)"><path style="stroke:none" d=""/></g></g><g style="fill:#000000;fill-opacity:1;"><g transform="translate(278.351622, 375.608294)"><path style="stroke:none" d="M 16.4375 -8.53125 C 16.4375 -6.03125 15.644531 -3.925781 14.0625 -2.21875 C 12.476562 -0.507812 10.53125 0.34375 8.21875 0.34375 C 6.8125 0.34375 5.492188 0.101562 4.265625 -0.375 C 3.035156 -0.851562 2.421875 -1.359375 2.421875 -1.890625 L 2.421875 -20.125 C 2.421875 -20.84375 2.304688 -21.316406 2.078125 -21.546875 C 1.859375 -21.785156 1.398438 -21.90625 0.703125 -21.90625 C 0.441406 -21.90625 0.242188 -21.894531 0.109375 -21.875 L 0.109375 -22.4375 L 1.125 -22.71875 C 2.6875 -23.15625 4.046875 -23.578125 5.203125 -23.984375 L 5.375 -23.90625 L 5.375 -13.171875 C 5.71875 -14.035156 6.347656 -14.75 7.265625 -15.3125 C 8.179688 -15.875 9.175781 -16.15625 10.25 -16.15625 C 12.007812 -16.15625 13.476562 -15.421875 14.65625 -13.953125 C 15.84375 -12.492188 16.4375 -10.6875 16.4375 -8.53125 Z M 13.34375 -6.921875 C 13.34375 -9.046875 12.9375 -10.742188 12.125 -12.015625 C 11.320312 -13.296875 10.226562 -13.9375 8.84375 -13.9375 C 7.9375 -13.9375 7.128906 -13.664062 6.421875 -13.125 C 5.722656 -12.59375 5.375 -11.988281 5.375 -11.3125 L 5.375 -2.453125 C 5.375 -2.015625 5.710938 -1.625 6.390625 -1.28125 C 7.066406 -0.9375 7.863281 -0.765625 8.78125 -0.765625 C 10.226562 -0.765625 11.347656 -1.300781 12.140625 -2.375 C 12.941406 -3.457031 13.34375 -4.972656 13.34375 -6.921875 Z M 13.34375 -6.921875 "/></g></g><g style="fill:#000000;fill-opacity:1;"><g transform="translate(295.90247, 375.608294)"><path style="stroke:none" d="M 14.890625 -5.515625 C 13.367188 -1.609375 10.882812 0.34375 7.4375 0.34375 C 5.425781 0.34375 3.828125 -0.359375 2.640625 -1.765625 C 1.460938 -3.179688 0.875 -5.097656 0.875 -7.515625 C 0.875 -10.066406 1.550781 -12.144531 2.90625 -13.75 C 4.269531 -15.351562 6.039062 -16.15625 8.21875 -16.15625 C 10.09375 -16.15625 11.585938 -15.488281 12.703125 -14.15625 C 13.484375 -13.164062 13.988281 -11.6875 14.21875 -9.71875 L 3.40625 -9.71875 C 3.476562 -7.726562 3.828125 -6.113281 4.453125 -4.875 C 5.460938 -3.007812 6.9375 -2.078125 8.875 -2.078125 C 10 -2.078125 10.976562 -2.351562 11.8125 -2.90625 C 12.644531 -3.46875 13.484375 -4.421875 14.328125 -5.765625 Z M 10.640625 -10.84375 C 10.398438 -12.363281 10.035156 -13.414062 9.546875 -14 C 9.054688 -14.59375 8.273438 -14.890625 7.203125 -14.890625 C 5.085938 -14.890625 3.84375 -13.539062 3.46875 -10.84375 Z M 10.640625 -10.84375 "/></g></g><g style="fill:#000000;fill-opacity:1;"><g transform="translate(311.487617, 375.608294)"><path style="stroke:none" d="M 14.46875 -5.15625 C 13.457031 -3.195312 12.5 -1.851562 11.59375 -1.125 C 10.394531 -0.144531 9.046875 0.34375 7.546875 0.34375 C 5.609375 0.34375 4.007812 -0.382812 2.75 -1.84375 C 1.5 -3.300781 0.875 -5.164062 0.875 -7.4375 C 0.875 -10.414062 1.859375 -12.722656 3.828125 -14.359375 C 5.273438 -15.554688 6.851562 -16.15625 8.5625 -16.15625 C 10.039062 -16.15625 11.3125 -15.796875 12.375 -15.078125 C 13.4375 -14.367188 13.96875 -13.519531 13.96875 -12.53125 C 13.96875 -12.132812 13.800781 -11.789062 13.46875 -11.5 C 13.144531 -11.207031 12.765625 -11.0625 12.328125 -11.0625 C 11.503906 -11.0625 10.941406 -11.597656 10.640625 -12.671875 L 10.421875 -13.453125 C 10.234375 -14.109375 10 -14.550781 9.71875 -14.78125 C 9.4375 -15.007812 8.984375 -15.125 8.359375 -15.125 C 6.929688 -15.125 5.773438 -14.5625 4.890625 -13.4375 C 4.015625 -12.320312 3.578125 -10.847656 3.578125 -9.015625 C 3.578125 -7.003906 4.078125 -5.359375 5.078125 -4.078125 C 6.085938 -2.804688 7.398438 -2.171875 9.015625 -2.171875 C 10.023438 -2.171875 10.890625 -2.410156 11.609375 -2.890625 C 12.335938 -3.367188 13.125 -4.234375 13.96875 -5.484375 Z M 14.46875 -5.15625 "/></g></g><g style="fill:#000000;fill-opacity:1;"><g transform="translate(327.072764, 375.608294)"><path style="stroke:none" d="M 15.515625 -1.40625 C 14.910156 -0.726562 14.378906 -0.265625 13.921875 -0.015625 C 13.460938 0.222656 12.941406 0.34375 12.359375 0.34375 C 11.628906 0.34375 11.09375 0.148438 10.75 -0.234375 C 10.414062 -0.617188 10.203125 -1.28125 10.109375 -2.21875 C 8.097656 -0.507812 6.390625 0.34375 4.984375 0.34375 C 3.910156 0.34375 3.023438 -0.00390625 2.328125 -0.703125 C 1.640625 -1.398438 1.296875 -2.300781 1.296875 -3.40625 C 1.296875 -4.664062 1.71875 -5.679688 2.5625 -6.453125 C 3.3125 -7.109375 4.066406 -7.628906 4.828125 -8.015625 C 5.585938 -8.410156 7.335938 -9.15625 10.078125 -10.25 L 10.078125 -12.390625 C 10.078125 -14.335938 9.1875 -15.3125 7.40625 -15.3125 C 6.707031 -15.3125 6.109375 -15.140625 5.609375 -14.796875 C 5.117188 -14.460938 4.875 -14.0625 4.875 -13.59375 C 4.875 -13.332031 4.910156 -13.050781 4.984375 -12.75 C 5.035156 -12.414062 5.0625 -12.226562 5.0625 -12.1875 C 5.0625 -11.789062 4.898438 -11.441406 4.578125 -11.140625 C 4.265625 -10.847656 3.894531 -10.703125 3.46875 -10.703125 C 3.050781 -10.703125 2.695312 -10.851562 2.40625 -11.15625 C 2.113281 -11.46875 1.96875 -11.820312 1.96875 -12.21875 C 1.96875 -13.175781 2.445312 -14.050781 3.40625 -14.84375 C 4.457031 -15.71875 5.941406 -16.15625 7.859375 -16.15625 C 10.035156 -16.15625 11.5 -15.472656 12.25 -14.109375 C 12.695312 -13.390625 12.921875 -12.195312 12.921875 -10.53125 L 12.921875 -3.6875 C 12.921875 -2.914062 12.992188 -2.382812 13.140625 -2.09375 C 13.296875 -1.800781 13.570312 -1.65625 13.96875 -1.65625 C 14.457031 -1.65625 14.972656 -1.875 15.515625 -2.3125 Z M 10.078125 -4.3125 L 10.078125 -9.40625 C 7.972656 -8.632812 6.5 -7.882812 5.65625 -7.15625 C 4.8125 -6.4375 4.390625 -5.5625 4.390625 -4.53125 L 4.390625 -4.390625 C 4.390625 -3.640625 4.601562 -3 5.03125 -2.46875 C 5.46875 -1.945312 5.988281 -1.6875 6.59375 -1.6875 C 7.414062 -1.6875 8.269531 -1.941406 9.15625 -2.453125 C 9.53125 -2.691406 9.773438 -2.925781 9.890625 -3.15625 C 10.015625 -3.394531 10.078125 -3.78125 10.078125 -4.3125 Z M 10.078125 -4.3125 "/></g></g><g style="fill:#000000;fill-opacity:1;"><g transform="translate(342.65791, 375.608294)"><path style="stroke:none" d="M 16.8125 -1.265625 C 14.988281 -0.773438 13.382812 -0.25 12 0.3125 L 11.859375 0.25 L 11.859375 -2.671875 L 10.359375 -1.15625 C 9.347656 -0.15625 8.140625 0.34375 6.734375 0.34375 C 5.453125 0.34375 4.425781 -0.0664062 3.65625 -0.890625 C 2.882812 -1.722656 2.5 -2.832031 2.5 -4.21875 L 2.5 -13.0625 C 2.5 -13.882812 2.34375 -14.453125 2.03125 -14.765625 C 1.726562 -15.078125 1.15625 -15.257812 0.3125 -15.3125 L 0.3125 -15.796875 L 5.4375 -15.796875 L 5.4375 -4.359375 C 5.4375 -3.628906 5.679688 -3 6.171875 -2.46875 C 6.671875 -1.945312 7.257812 -1.6875 7.9375 -1.6875 C 9.0625 -1.6875 10.113281 -2.109375 11.09375 -2.953125 C 11.488281 -3.253906 11.6875 -3.847656 11.6875 -4.734375 L 11.6875 -12.984375 C 11.6875 -13.859375 11.53125 -14.429688 11.21875 -14.703125 C 10.90625 -14.984375 10.195312 -15.148438 9.09375 -15.203125 L 9.09375 -15.796875 L 14.640625 -15.796875 L 14.640625 -3.75 C 14.640625 -2.9375 14.773438 -2.398438 15.046875 -2.140625 C 15.316406 -1.878906 15.847656 -1.75 16.640625 -1.75 L 16.8125 -1.75 Z M 16.8125 -1.265625 "/></g></g><g style="fill:#000000;fill-opacity:1;"><g transform="translate(360.208758, 375.608294)"><path style="stroke:none" d="M 12.21875 -4.140625 C 12.21875 -2.921875 11.726562 -1.867188 10.75 -0.984375 C 9.78125 -0.0976562 8.628906 0.34375 7.296875 0.34375 C 6.671875 0.34375 5.804688 0.226562 4.703125 0 C 3.953125 -0.1875 3.414062 -0.28125 3.09375 -0.28125 C 2.738281 -0.28125 2.46875 -0.140625 2.28125 0.140625 L 1.828125 0.140625 L 1.828125 -5.34375 L 2.390625 -5.34375 C 2.785156 -3.5625 3.320312 -2.296875 4 -1.546875 C 4.675781 -0.796875 5.625 -0.421875 6.84375 -0.421875 C 7.738281 -0.421875 8.445312 -0.648438 8.96875 -1.109375 C 9.5 -1.566406 9.765625 -2.179688 9.765625 -2.953125 C 9.765625 -4.003906 9.15625 -4.878906 7.9375 -5.578125 L 5.890625 -6.734375 C 4.398438 -7.609375 3.34375 -8.425781 2.71875 -9.1875 C 2.101562 -9.945312 1.796875 -10.816406 1.796875 -11.796875 C 1.796875 -13.085938 2.242188 -14.128906 3.140625 -14.921875 C 4.046875 -15.710938 5.210938 -16.109375 6.640625 -16.109375 C 7.503906 -16.109375 8.296875 -15.96875 9.015625 -15.6875 C 9.367188 -15.53125 9.6875 -15.453125 9.96875 -15.453125 C 10.0625 -15.453125 10.226562 -15.546875 10.46875 -15.734375 L 10.53125 -15.796875 L 10.921875 -15.796875 L 11.0625 -11.03125 L 10.53125 -11.03125 C 10.132812 -12.59375 9.644531 -13.703125 9.0625 -14.359375 C 8.476562 -15.015625 7.679688 -15.34375 6.671875 -15.34375 C 5.847656 -15.34375 5.191406 -15.125 4.703125 -14.6875 C 4.210938 -14.257812 3.96875 -13.679688 3.96875 -12.953125 C 3.96875 -11.953125 4.472656 -11.15625 5.484375 -10.5625 L 9.265625 -8.328125 C 10.347656 -7.691406 11.109375 -7.054688 11.546875 -6.421875 C 11.992188 -5.796875 12.21875 -5.035156 12.21875 -4.140625 Z M 12.21875 -4.140625 "/></g></g><g style="fill:#000000;fill-opacity:1;"><g transform="translate(373.863329, 375.608294)"><path style="stroke:none" d="M 14.890625 -5.515625 C 13.367188 -1.609375 10.882812 0.34375 7.4375 0.34375 C 5.425781 0.34375 3.828125 -0.359375 2.640625 -1.765625 C 1.460938 -3.179688 0.875 -5.097656 0.875 -7.515625 C 0.875 -10.066406 1.550781 -12.144531 2.90625 -13.75 C 4.269531 -15.351562 6.039062 -16.15625 8.21875 -16.15625 C 10.09375 -16.15625 11.585938 -15.488281 12.703125 -14.15625 C 13.484375 -13.164062 13.988281 -11.6875 14.21875 -9.71875 L 3.40625 -9.71875 C 3.476562 -7.726562 3.828125 -6.113281 4.453125 -4.875 C 5.460938 -3.007812 6.9375 -2.078125 8.875 -2.078125 C 10 -2.078125 10.976562 -2.351562 11.8125 -2.90625 C 12.644531 -3.46875 13.484375 -4.421875 14.328125 -5.765625 Z M 10.640625 -10.84375 C 10.398438 -12.363281 10.035156 -13.414062 9.546875 -14 C 9.054688 -14.59375 8.273438 -14.890625 7.203125 -14.890625 C 5.085938 -14.890625 3.84375 -13.539062 3.46875 -10.84375 Z M 10.640625 -10.84375 "/></g></g><g style="fill:#000000;fill-opacity:1;"><g transform="translate(389.448476, 375.608294)"><path style="stroke:none" d=""/></g></g><g style="fill:#000000;fill-opacity:1;"><g transform="translate(398.22391, 375.608294)"><path style="stroke:none" d="M 16.5 -8.21875 C 16.5 -5.78125 15.75 -3.742188 14.25 -2.109375 C 12.75 -0.472656 10.898438 0.34375 8.703125 0.34375 C 6.503906 0.34375 4.671875 -0.441406 3.203125 -2.015625 C 1.742188 -3.597656 1.015625 -5.570312 1.015625 -7.9375 C 1.015625 -10.34375 1.734375 -12.3125 3.171875 -13.84375 C 4.617188 -15.382812 6.488281 -16.15625 8.78125 -16.15625 C 11.019531 -16.15625 12.863281 -15.40625 14.3125 -13.90625 C 15.769531 -12.40625 16.5 -10.507812 16.5 -8.21875 Z M 13.34375 -6.984375 C 13.34375 -9.398438 12.875 -11.367188 11.9375 -12.890625 C 11 -14.410156 9.796875 -15.171875 8.328125 -15.171875 C 7.078125 -15.171875 6.070312 -14.664062 5.3125 -13.65625 C 4.550781 -12.644531 4.171875 -11.3125 4.171875 -9.65625 C 4.171875 -7.0625 4.6875 -4.800781 5.71875 -2.875 C 6.519531 -1.375 7.65625 -0.625 9.125 -0.625 C 10.4375 -0.625 11.46875 -1.1875 12.21875 -2.3125 C 12.96875 -3.4375 13.34375 -4.992188 13.34375 -6.984375 Z M 13.34375 -6.984375 "/></g></g><g style="fill:#000000;fill-opacity:1;"><g transform="translate(415.774736, 375.608294)"><path style="stroke:none" d="M 13.453125 -21.796875 C 13.453125 -21.398438 13.3125 -21.0625 13.03125 -20.78125 C 12.75 -20.5 12.394531 -20.359375 11.96875 -20.359375 C 11.40625 -20.359375 10.878906 -20.78125 10.390625 -21.625 C 9.828125 -22.539062 9.207031 -23 8.53125 -23 C 7.195312 -23 6.53125 -21.957031 6.53125 -19.875 L 6.53125 -15.796875 L 10.84375 -15.796875 L 10.84375 -14.671875 L 6.5625 -14.671875 L 6.5625 -3.65625 C 6.5625 -2.34375 6.75 -1.503906 7.125 -1.140625 C 7.5 -0.773438 8.398438 -0.570312 9.828125 -0.53125 L 9.828125 0 L 0.703125 0 L 0.703125 -0.53125 C 1.960938 -0.59375 2.757812 -0.804688 3.09375 -1.171875 C 3.4375 -1.535156 3.609375 -2.363281 3.609375 -3.65625 L 3.609375 -14.671875 L 0.734375 -14.671875 L 0.734375 -15.796875 L 3.609375 -15.796875 C 3.640625 -17.203125 3.734375 -18.296875 3.890625 -19.078125 C 4.054688 -19.867188 4.375 -20.660156 4.84375 -21.453125 C 5.820312 -23.140625 7.472656 -23.984375 9.796875 -23.984375 C 10.847656 -23.984375 11.71875 -23.773438 12.40625 -23.359375 C 13.101562 -22.953125 13.453125 -22.429688 13.453125 -21.796875 Z M 13.453125 -21.796875 "/></g></g><g style="fill:#000000;fill-opacity:1;"><g transform="translate(427.47509, 375.608294)"><path style="stroke:none" d=""/></g></g><g style="fill:#000000;fill-opacity:1;"><g transform="translate(104.306021, 424.11397)"><path style="stroke:none" d="M 8.875 0 L 0.5625 0 L 0.5625 -0.53125 C 1.78125 -0.59375 2.546875 -0.800781 2.859375 -1.15625 C 3.171875 -1.507812 3.328125 -2.316406 3.328125 -3.578125 L 3.328125 -11.71875 C 3.328125 -12.5 3.238281 -13.046875 3.0625 -13.359375 C 2.894531 -13.671875 2.597656 -13.828125 2.171875 -13.828125 C 1.796875 -13.828125 1.398438 -13.796875 0.984375 -13.734375 L 0.703125 -13.6875 L 0.703125 -14.21875 L 6.140625 -16.15625 L 6.28125 -16.046875 L 6.28125 -3.578125 C 6.28125 -2.316406 6.425781 -1.515625 6.71875 -1.171875 C 7.007812 -0.835938 7.726562 -0.625 8.875 -0.53125 Z M 6.59375 -20.71875 C 6.59375 -20.195312 6.421875 -19.765625 6.078125 -19.421875 C 5.742188 -19.085938 5.320312 -18.921875 4.8125 -18.921875 C 4.320312 -18.921875 3.898438 -19.085938 3.546875 -19.421875 C 3.191406 -19.765625 3.015625 -20.195312 3.015625 -20.71875 C 3.015625 -21.207031 3.191406 -21.625 3.546875 -21.96875 C 3.898438 -22.320312 4.320312 -22.5 4.8125 -22.5 C 5.320312 -22.5 5.742188 -22.320312 6.078125 -21.96875 C 6.421875 -21.625 6.59375 -21.207031 6.59375 -20.71875 Z M 6.59375 -20.71875 "/></g></g><g style="fill:#000000;fill-opacity:1;"><g transform="translate(114.064295, 424.11397)"><path style="stroke:none" d="M 17.03125 0 L 9.71875 0 L 9.71875 -0.53125 C 10.613281 -0.59375 11.207031 -0.820312 11.5 -1.21875 C 11.789062 -1.625 11.9375 -2.375 11.9375 -3.46875 L 11.9375 -10.8125 C 11.9375 -13.082031 11.082031 -14.21875 9.375 -14.21875 C 8.789062 -14.21875 8.25 -14.082031 7.75 -13.8125 C 7.257812 -13.539062 6.597656 -13.007812 5.765625 -12.21875 L 5.765625 -2.359375 C 5.765625 -1.722656 5.925781 -1.273438 6.25 -1.015625 C 6.570312 -0.753906 7.179688 -0.59375 8.078125 -0.53125 L 8.078125 0 L 0.625 0 L 0.625 -0.53125 C 1.519531 -0.59375 2.109375 -0.796875 2.390625 -1.140625 C 2.671875 -1.484375 2.8125 -2.15625 2.8125 -3.15625 L 2.8125 -11.859375 C 2.8125 -12.734375 2.71875 -13.328125 2.53125 -13.640625 C 2.34375 -13.953125 2.003906 -14.109375 1.515625 -14.109375 C 1.066406 -14.109375 0.75 -14.0625 0.5625 -13.96875 L 0.5625 -14.578125 C 2.289062 -15.085938 3.90625 -15.613281 5.40625 -16.15625 L 5.65625 -16.078125 L 5.65625 -13.3125 C 6.84375 -14.425781 7.78125 -15.175781 8.46875 -15.5625 C 9.164062 -15.957031 9.925781 -16.15625 10.75 -16.15625 C 12.03125 -16.15625 13.039062 -15.691406 13.78125 -14.765625 C 14.519531 -13.835938 14.890625 -12.546875 14.890625 -10.890625 L 14.890625 -2.84375 C 14.890625 -1.976562 15.03125 -1.398438 15.3125 -1.109375 C 15.59375 -0.816406 16.164062 -0.625 17.03125 -0.53125 Z M 17.03125 0 "/></g></g><g style="fill:#000000;fill-opacity:1;"><g transform="translate(131.615142, 424.11397)"><path style="stroke:none" d="M 13.453125 -21.796875 C 13.453125 -21.398438 13.3125 -21.0625 13.03125 -20.78125 C 12.75 -20.5 12.394531 -20.359375 11.96875 -20.359375 C 11.40625 -20.359375 10.878906 -20.78125 10.390625 -21.625 C 9.828125 -22.539062 9.207031 -23 8.53125 -23 C 7.195312 -23 6.53125 -21.957031 6.53125 -19.875 L 6.53125 -15.796875 L 10.84375 -15.796875 L 10.84375 -14.671875 L 6.5625 -14.671875 L 6.5625 -3.65625 C 6.5625 -2.34375 6.75 -1.503906 7.125 -1.140625 C 7.5 -0.773438 8.398438 -0.570312 9.828125 -0.53125 L 9.828125 0 L 0.703125 0 L 0.703125 -0.53125 C 1.960938 -0.59375 2.757812 -0.804688 3.09375 -1.171875 C 3.4375 -1.535156 3.609375 -2.363281 3.609375 -3.65625 L 3.609375 -14.671875 L 0.734375 -14.671875 L 0.734375 -15.796875 L 3.609375 -15.796875 C 3.640625 -17.203125 3.734375 -18.296875 3.890625 -19.078125 C 4.054688 -19.867188 4.375 -20.660156 4.84375 -21.453125 C 5.820312 -23.140625 7.472656 -23.984375 9.796875 -23.984375 C 10.847656 -23.984375 11.71875 -23.773438 12.40625 -23.359375 C 13.101562 -22.953125 13.453125 -22.429688 13.453125 -21.796875 Z M 13.453125 -21.796875 "/></g></g><g style="fill:#000000;fill-opacity:1;"><g transform="translate(143.304013, 424.11397)"><path style="stroke:none" d="M 16.5 -8.21875 C 16.5 -5.78125 15.75 -3.742188 14.25 -2.109375 C 12.75 -0.472656 10.898438 0.34375 8.703125 0.34375 C 6.503906 0.34375 4.671875 -0.441406 3.203125 -2.015625 C 1.742188 -3.597656 1.015625 -5.570312 1.015625 -7.9375 C 1.015625 -10.34375 1.734375 -12.3125 3.171875 -13.84375 C 4.617188 -15.382812 6.488281 -16.15625 8.78125 -16.15625 C 11.019531 -16.15625 12.863281 -15.40625 14.3125 -13.90625 C 15.769531 -12.40625 16.5 -10.507812 16.5 -8.21875 Z M 13.34375 -6.984375 C 13.34375 -9.398438 12.875 -11.367188 11.9375 -12.890625 C 11 -14.410156 9.796875 -15.171875 8.328125 -15.171875 C 7.078125 -15.171875 6.070312 -14.664062 5.3125 -13.65625 C 4.550781 -12.644531 4.171875 -11.3125 4.171875 -9.65625 C 4.171875 -7.0625 4.6875 -4.800781 5.71875 -2.875 C 6.519531 -1.375 7.65625 -0.625 9.125 -0.625 C 10.4375 -0.625 11.46875 -1.1875 12.21875 -2.3125 C 12.96875 -3.4375 13.34375 -4.992188 13.34375 -6.984375 Z M 13.34375 -6.984375 "/></g></g><g style="fill:#000000;fill-opacity:1;"><g transform="translate(160.854861, 424.11397)"><path style="stroke:none" d="M 11.765625 -14.296875 C 11.765625 -13.796875 11.640625 -13.40625 11.390625 -13.125 C 11.148438 -12.84375 10.816406 -12.703125 10.390625 -12.703125 C 9.992188 -12.703125 9.523438 -12.9375 8.984375 -13.40625 C 8.609375 -13.757812 8.304688 -13.9375 8.078125 -13.9375 C 7.609375 -13.9375 7.082031 -13.597656 6.5 -12.921875 C 5.914062 -12.242188 5.625 -11.625 5.625 -11.0625 L 5.625 -3.15625 C 5.625 -2.15625 5.820312 -1.476562 6.21875 -1.125 C 6.613281 -0.769531 7.410156 -0.570312 8.609375 -0.53125 L 8.609375 0 L 0.171875 0 L 0.171875 -0.53125 C 1.296875 -0.738281 1.992188 -0.96875 2.265625 -1.21875 C 2.535156 -1.476562 2.671875 -2.054688 2.671875 -2.953125 L 2.671875 -11.71875 C 2.671875 -12.5 2.582031 -13.046875 2.40625 -13.359375 C 2.226562 -13.671875 1.914062 -13.828125 1.46875 -13.828125 C 1.09375 -13.828125 0.6875 -13.78125 0.25 -13.6875 L 0.25 -14.25 C 2.113281 -14.863281 3.84375 -15.5 5.4375 -16.15625 L 5.625 -16.078125 L 5.625 -12.84375 C 6.488281 -14.082031 7.222656 -14.941406 7.828125 -15.421875 C 8.441406 -15.910156 9.109375 -16.15625 9.828125 -16.15625 C 10.441406 -16.15625 10.914062 -15.988281 11.25 -15.65625 C 11.59375 -15.332031 11.765625 -14.878906 11.765625 -14.296875 Z M 11.765625 -14.296875 "/></g></g><g style="fill:#000000;fill-opacity:1;"><g transform="translate(172.543731, 424.11397)"><path style="stroke:none" d="M 27.203125 0 L 19.515625 0 L 19.515625 -0.53125 C 20.546875 -0.644531 21.191406 -0.84375 21.453125 -1.125 C 21.710938 -1.40625 21.84375 -2.046875 21.84375 -3.046875 L 21.84375 -10.46875 C 21.84375 -11.914062 21.65625 -12.921875 21.28125 -13.484375 C 20.90625 -14.046875 20.210938 -14.328125 19.203125 -14.328125 C 17.660156 -14.328125 16.382812 -13.613281 15.375 -12.1875 L 15.375 -3.328125 C 15.375 -2.234375 15.539062 -1.5 15.875 -1.125 C 16.21875 -0.75 16.894531 -0.550781 17.90625 -0.53125 L 17.90625 0 L 10.046875 0 L 10.046875 -0.53125 C 11.046875 -0.59375 11.691406 -0.773438 11.984375 -1.078125 C 12.273438 -1.390625 12.421875 -2.035156 12.421875 -3.015625 L 12.421875 -10.640625 C 12.421875 -13.097656 11.648438 -14.328125 10.109375 -14.328125 C 9.503906 -14.328125 8.859375 -14.191406 8.171875 -13.921875 C 7.492188 -13.648438 6.9375 -13.316406 6.5 -12.921875 L 5.96875 -12.25 L 5.96875 -2.359375 C 5.96875 -1.671875 6.128906 -1.203125 6.453125 -0.953125 C 6.785156 -0.710938 7.421875 -0.570312 8.359375 -0.53125 L 8.359375 0 L 0.5625 0 L 0.5625 -0.53125 C 1.539062 -0.550781 2.191406 -0.722656 2.515625 -1.046875 C 2.847656 -1.378906 3.015625 -2.023438 3.015625 -2.984375 L 3.015625 -11.859375 C 3.015625 -12.703125 2.925781 -13.285156 2.75 -13.609375 C 2.582031 -13.941406 2.265625 -14.109375 1.796875 -14.109375 C 1.441406 -14.109375 1.066406 -14.0625 0.671875 -13.96875 L 0.671875 -14.578125 C 2.347656 -15.035156 3.984375 -15.5625 5.578125 -16.15625 L 5.828125 -16.078125 L 5.828125 -13.453125 C 7.273438 -14.546875 8.347656 -15.269531 9.046875 -15.625 C 9.753906 -15.976562 10.492188 -16.15625 11.265625 -16.15625 C 13.117188 -16.15625 14.359375 -15.171875 14.984375 -13.203125 C 16.816406 -15.171875 18.726562 -16.15625 20.71875 -16.15625 C 23.425781 -16.15625 24.78125 -14.070312 24.78125 -9.90625 L 24.78125 -2.671875 C 24.78125 -1.359375 25.285156 -0.664062 26.296875 -0.59375 L 27.203125 -0.53125 Z M 27.203125 0 "/></g></g><g style="fill:#000000;fill-opacity:1;"><g transform="translate(199.852853, 424.11397)"><path style="stroke:none" d="M 15.515625 -1.40625 C 14.910156 -0.726562 14.378906 -0.265625 13.921875 -0.015625 C 13.460938 0.222656 12.941406 0.34375 12.359375 0.34375 C 11.628906 0.34375 11.09375 0.148438 10.75 -0.234375 C 10.414062 -0.617188 10.203125 -1.28125 10.109375 -2.21875 C 8.097656 -0.507812 6.390625 0.34375 4.984375 0.34375 C 3.910156 0.34375 3.023438 -0.00390625 2.328125 -0.703125 C 1.640625 -1.398438 1.296875 -2.300781 1.296875 -3.40625 C 1.296875 -4.664062 1.71875 -5.679688 2.5625 -6.453125 C 3.3125 -7.109375 4.066406 -7.628906 4.828125 -8.015625 C 5.585938 -8.410156 7.335938 -9.15625 10.078125 -10.25 L 10.078125 -12.390625 C 10.078125 -14.335938 9.1875 -15.3125 7.40625 -15.3125 C 6.707031 -15.3125 6.109375 -15.140625 5.609375 -14.796875 C 5.117188 -14.460938 4.875 -14.0625 4.875 -13.59375 C 4.875 -13.332031 4.910156 -13.050781 4.984375 -12.75 C 5.035156 -12.414062 5.0625 -12.226562 5.0625 -12.1875 C 5.0625 -11.789062 4.898438 -11.441406 4.578125 -11.140625 C 4.265625 -10.847656 3.894531 -10.703125 3.46875 -10.703125 C 3.050781 -10.703125 2.695312 -10.851562 2.40625 -11.15625 C 2.113281 -11.46875 1.96875 -11.820312 1.96875 -12.21875 C 1.96875 -13.175781 2.445312 -14.050781 3.40625 -14.84375 C 4.457031 -15.71875 5.941406 -16.15625 7.859375 -16.15625 C 10.035156 -16.15625 11.5 -15.472656 12.25 -14.109375 C 12.695312 -13.390625 12.921875 -12.195312 12.921875 -10.53125 L 12.921875 -3.6875 C 12.921875 -2.914062 12.992188 -2.382812 13.140625 -2.09375 C 13.296875 -1.800781 13.570312 -1.65625 13.96875 -1.65625 C 14.457031 -1.65625 14.972656 -1.875 15.515625 -2.3125 Z M 10.078125 -4.3125 L 10.078125 -9.40625 C 7.972656 -8.632812 6.5 -7.882812 5.65625 -7.15625 C 4.8125 -6.4375 4.390625 -5.5625 4.390625 -4.53125 L 4.390625 -4.390625 C 4.390625 -3.640625 4.601562 -3 5.03125 -2.46875 C 5.46875 -1.945312 5.988281 -1.6875 6.59375 -1.6875 C 7.414062 -1.6875 8.269531 -1.941406 9.15625 -2.453125 C 9.53125 -2.691406 9.773438 -2.925781 9.890625 -3.15625 C 10.015625 -3.394531 10.078125 -3.78125 10.078125 -4.3125 Z M 10.078125 -4.3125 "/></g></g><g style="fill:#000000;fill-opacity:1;"><g transform="translate(215.437999, 424.11397)"><path style="stroke:none" d="M 9.796875 -2.3125 C 8.671875 -0.539062 7.253906 0.34375 5.546875 0.34375 C 3.484375 0.34375 2.453125 -1.140625 2.453125 -4.109375 L 2.453125 -14.671875 L 0.59375 -14.671875 C 0.5 -14.742188 0.453125 -14.828125 0.453125 -14.921875 C 0.453125 -15.109375 0.648438 -15.332031 1.046875 -15.59375 C 2.015625 -16.15625 3.148438 -17.40625 4.453125 -19.34375 C 4.785156 -19.769531 5.019531 -20.097656 5.15625 -20.328125 C 5.320312 -20.328125 5.40625 -20.175781 5.40625 -19.875 L 5.40625 -15.796875 L 8.953125 -15.796875 L 8.953125 -14.671875 L 5.40625 -14.671875 L 5.40625 -4.640625 C 5.40625 -3.515625 5.546875 -2.703125 5.828125 -2.203125 C 6.109375 -1.710938 6.578125 -1.46875 7.234375 -1.46875 C 7.929688 -1.46875 8.632812 -1.878906 9.34375 -2.703125 Z M 9.796875 -2.3125 "/></g></g><g style="fill:#000000;fill-opacity:1;"><g transform="translate(225.196273, 424.11397)"><path style="stroke:none" d="M 8.875 0 L 0.5625 0 L 0.5625 -0.53125 C 1.78125 -0.59375 2.546875 -0.800781 2.859375 -1.15625 C 3.171875 -1.507812 3.328125 -2.316406 3.328125 -3.578125 L 3.328125 -11.71875 C 3.328125 -12.5 3.238281 -13.046875 3.0625 -13.359375 C 2.894531 -13.671875 2.597656 -13.828125 2.171875 -13.828125 C 1.796875 -13.828125 1.398438 -13.796875 0.984375 -13.734375 L 0.703125 -13.6875 L 0.703125 -14.21875 L 6.140625 -16.15625 L 6.28125 -16.046875 L 6.28125 -3.578125 C 6.28125 -2.316406 6.425781 -1.515625 6.71875 -1.171875 C 7.007812 -0.835938 7.726562 -0.625 8.875 -0.53125 Z M 6.59375 -20.71875 C 6.59375 -20.195312 6.421875 -19.765625 6.078125 -19.421875 C 5.742188 -19.085938 5.320312 -18.921875 4.8125 -18.921875 C 4.320312 -18.921875 3.898438 -19.085938 3.546875 -19.421875 C 3.191406 -19.765625 3.015625 -20.195312 3.015625 -20.71875 C 3.015625 -21.207031 3.191406 -21.625 3.546875 -21.96875 C 3.898438 -22.320312 4.320312 -22.5 4.8125 -22.5 C 5.320312 -22.5 5.742188 -22.320312 6.078125 -21.96875 C 6.421875 -21.625 6.59375 -21.207031 6.59375 -20.71875 Z M 6.59375 -20.71875 "/></g></g><g style="fill:#000000;fill-opacity:1;"><g transform="translate(234.954547, 424.11397)"><path style="stroke:none" d="M 16.5 -8.21875 C 16.5 -5.78125 15.75 -3.742188 14.25 -2.109375 C 12.75 -0.472656 10.898438 0.34375 8.703125 0.34375 C 6.503906 0.34375 4.671875 -0.441406 3.203125 -2.015625 C 1.742188 -3.597656 1.015625 -5.570312 1.015625 -7.9375 C 1.015625 -10.34375 1.734375 -12.3125 3.171875 -13.84375 C 4.617188 -15.382812 6.488281 -16.15625 8.78125 -16.15625 C 11.019531 -16.15625 12.863281 -15.40625 14.3125 -13.90625 C 15.769531 -12.40625 16.5 -10.507812 16.5 -8.21875 Z M 13.34375 -6.984375 C 13.34375 -9.398438 12.875 -11.367188 11.9375 -12.890625 C 11 -14.410156 9.796875 -15.171875 8.328125 -15.171875 C 7.078125 -15.171875 6.070312 -14.664062 5.3125 -13.65625 C 4.550781 -12.644531 4.171875 -11.3125 4.171875 -9.65625 C 4.171875 -7.0625 4.6875 -4.800781 5.71875 -2.875 C 6.519531 -1.375 7.65625 -0.625 9.125 -0.625 C 10.4375 -0.625 11.46875 -1.1875 12.21875 -2.3125 C 12.96875 -3.4375 13.34375 -4.992188 13.34375 -6.984375 Z M 13.34375 -6.984375 "/></g></g><g style="fill:#000000;fill-opacity:1;"><g transform="translate(252.505395, 424.11397)"><path style="stroke:none" d="M 17.03125 0 L 9.71875 0 L 9.71875 -0.53125 C 10.613281 -0.59375 11.207031 -0.820312 11.5 -1.21875 C 11.789062 -1.625 11.9375 -2.375 11.9375 -3.46875 L 11.9375 -10.8125 C 11.9375 -13.082031 11.082031 -14.21875 9.375 -14.21875 C 8.789062 -14.21875 8.25 -14.082031 7.75 -13.8125 C 7.257812 -13.539062 6.597656 -13.007812 5.765625 -12.21875 L 5.765625 -2.359375 C 5.765625 -1.722656 5.925781 -1.273438 6.25 -1.015625 C 6.570312 -0.753906 7.179688 -0.59375 8.078125 -0.53125 L 8.078125 0 L 0.625 0 L 0.625 -0.53125 C 1.519531 -0.59375 2.109375 -0.796875 2.390625 -1.140625 C 2.671875 -1.484375 2.8125 -2.15625 2.8125 -3.15625 L 2.8125 -11.859375 C 2.8125 -12.734375 2.71875 -13.328125 2.53125 -13.640625 C 2.34375 -13.953125 2.003906 -14.109375 1.515625 -14.109375 C 1.066406 -14.109375 0.75 -14.0625 0.5625 -13.96875 L 0.5625 -14.578125 C 2.289062 -15.085938 3.90625 -15.613281 5.40625 -16.15625 L 5.65625 -16.078125 L 5.65625 -13.3125 C 6.84375 -14.425781 7.78125 -15.175781 8.46875 -15.5625 C 9.164062 -15.957031 9.925781 -16.15625 10.75 -16.15625 C 12.03125 -16.15625 13.039062 -15.691406 13.78125 -14.765625 C 14.519531 -13.835938 14.890625 -12.546875 14.890625 -10.890625 L 14.890625 -2.84375 C 14.890625 -1.976562 15.03125 -1.398438 15.3125 -1.109375 C 15.59375 -0.816406 16.164062 -0.625 17.03125 -0.53125 Z M 17.03125 0 "/></g></g><g style="fill:#000000;fill-opacity:1;"><g transform="translate(270.056242, 424.11397)"><path style="stroke:none" d=""/></g></g><g style="fill:#000000;fill-opacity:1;"><g transform="translate(278.831676, 424.11397)"><path style="stroke:none" d="M 12.21875 -4.140625 C 12.21875 -2.921875 11.726562 -1.867188 10.75 -0.984375 C 9.78125 -0.0976562 8.628906 0.34375 7.296875 0.34375 C 6.671875 0.34375 5.804688 0.226562 4.703125 0 C 3.953125 -0.1875 3.414062 -0.28125 3.09375 -0.28125 C 2.738281 -0.28125 2.46875 -0.140625 2.28125 0.140625 L 1.828125 0.140625 L 1.828125 -5.34375 L 2.390625 -5.34375 C 2.785156 -3.5625 3.320312 -2.296875 4 -1.546875 C 4.675781 -0.796875 5.625 -0.421875 6.84375 -0.421875 C 7.738281 -0.421875 8.445312 -0.648438 8.96875 -1.109375 C 9.5 -1.566406 9.765625 -2.179688 9.765625 -2.953125 C 9.765625 -4.003906 9.15625 -4.878906 7.9375 -5.578125 L 5.890625 -6.734375 C 4.398438 -7.609375 3.34375 -8.425781 2.71875 -9.1875 C 2.101562 -9.945312 1.796875 -10.816406 1.796875 -11.796875 C 1.796875 -13.085938 2.242188 -14.128906 3.140625 -14.921875 C 4.046875 -15.710938 5.210938 -16.109375 6.640625 -16.109375 C 7.503906 -16.109375 8.296875 -15.96875 9.015625 -15.6875 C 9.367188 -15.53125 9.6875 -15.453125 9.96875 -15.453125 C 10.0625 -15.453125 10.226562 -15.546875 10.46875 -15.734375 L 10.53125 -15.796875 L 10.921875 -15.796875 L 11.0625 -11.03125 L 10.53125 -11.03125 C 10.132812 -12.59375 9.644531 -13.703125 9.0625 -14.359375 C 8.476562 -15.015625 7.679688 -15.34375 6.671875 -15.34375 C 5.847656 -15.34375 5.191406 -15.125 4.703125 -14.6875 C 4.210938 -14.257812 3.96875 -13.679688 3.96875 -12.953125 C 3.96875 -11.953125 4.472656 -11.15625 5.484375 -10.5625 L 9.265625 -8.328125 C 10.347656 -7.691406 11.109375 -7.054688 11.546875 -6.421875 C 11.992188 -5.796875 12.21875 -5.035156 12.21875 -4.140625 Z M 12.21875 -4.140625 "/></g></g><g style="fill:#000000;fill-opacity:1;"><g transform="translate(292.486247, 424.11397)"><path style="stroke:none" d="M 8.875 0 L 0.5625 0 L 0.5625 -0.53125 C 1.78125 -0.59375 2.546875 -0.800781 2.859375 -1.15625 C 3.171875 -1.507812 3.328125 -2.316406 3.328125 -3.578125 L 3.328125 -11.71875 C 3.328125 -12.5 3.238281 -13.046875 3.0625 -13.359375 C 2.894531 -13.671875 2.597656 -13.828125 2.171875 -13.828125 C 1.796875 -13.828125 1.398438 -13.796875 0.984375 -13.734375 L 0.703125 -13.6875 L 0.703125 -14.21875 L 6.140625 -16.15625 L 6.28125 -16.046875 L 6.28125 -3.578125 C 6.28125 -2.316406 6.425781 -1.515625 6.71875 -1.171875 C 7.007812 -0.835938 7.726562 -0.625 8.875 -0.53125 Z M 6.59375 -20.71875 C 6.59375 -20.195312 6.421875 -19.765625 6.078125 -19.421875 C 5.742188 -19.085938 5.320312 -18.921875 4.8125 -18.921875 C 4.320312 -18.921875 3.898438 -19.085938 3.546875 -19.421875 C 3.191406 -19.765625 3.015625 -20.195312 3.015625 -20.71875 C 3.015625 -21.207031 3.191406 -21.625 3.546875 -21.96875 C 3.898438 -22.320312 4.320312 -22.5 4.8125 -22.5 C 5.320312 -22.5 5.742188 -22.320312 6.078125 -21.96875 C 6.421875 -21.625 6.59375 -21.207031 6.59375 -20.71875 Z M 6.59375 -20.71875 "/></g></g><g style="fill:#000000;fill-opacity:1;"><g transform="translate(302.244521, 424.11397)"><path style="stroke:none" d="M 9.015625 0 L 0.734375 0 L 0.734375 -0.53125 C 1.835938 -0.625 2.5625 -0.832031 2.90625 -1.15625 C 3.257812 -1.488281 3.4375 -2.117188 3.4375 -3.046875 L 3.4375 -19.796875 C 3.4375 -20.617188 3.332031 -21.179688 3.125 -21.484375 C 2.914062 -21.785156 2.53125 -21.9375 1.96875 -21.9375 C 1.757812 -21.9375 1.394531 -21.914062 0.875 -21.875 L 0.671875 -21.875 L 0.671875 -22.4375 C 2.984375 -23 4.84375 -23.515625 6.25 -23.984375 L 6.390625 -23.90625 L 6.390625 -2.953125 C 6.390625 -1.992188 6.546875 -1.363281 6.859375 -1.0625 C 7.179688 -0.769531 7.898438 -0.59375 9.015625 -0.53125 Z M 9.015625 0 "/></g></g><g style="fill:#000000;fill-opacity:1;"><g transform="translate(312.002795, 424.11397)"><path style="stroke:none" d="M 16.5 -8.21875 C 16.5 -5.78125 15.75 -3.742188 14.25 -2.109375 C 12.75 -0.472656 10.898438 0.34375 8.703125 0.34375 C 6.503906 0.34375 4.671875 -0.441406 3.203125 -2.015625 C 1.742188 -3.597656 1.015625 -5.570312 1.015625 -7.9375 C 1.015625 -10.34375 1.734375 -12.3125 3.171875 -13.84375 C 4.617188 -15.382812 6.488281 -16.15625 8.78125 -16.15625 C 11.019531 -16.15625 12.863281 -15.40625 14.3125 -13.90625 C 15.769531 -12.40625 16.5 -10.507812 16.5 -8.21875 Z M 13.34375 -6.984375 C 13.34375 -9.398438 12.875 -11.367188 11.9375 -12.890625 C 11 -14.410156 9.796875 -15.171875 8.328125 -15.171875 C 7.078125 -15.171875 6.070312 -14.664062 5.3125 -13.65625 C 4.550781 -12.644531 4.171875 -11.3125 4.171875 -9.65625 C 4.171875 -7.0625 4.6875 -4.800781 5.71875 -2.875 C 6.519531 -1.375 7.65625 -0.625 9.125 -0.625 C 10.4375 -0.625 11.46875 -1.1875 12.21875 -2.3125 C 12.96875 -3.4375 13.34375 -4.992188 13.34375 -6.984375 Z M 13.34375 -6.984375 "/></g></g><g style="fill:#000000;fill-opacity:1;"><g transform="translate(329.553643, 424.11397)"><path style="stroke:none" d="M 12.21875 -4.140625 C 12.21875 -2.921875 11.726562 -1.867188 10.75 -0.984375 C 9.78125 -0.0976562 8.628906 0.34375 7.296875 0.34375 C 6.671875 0.34375 5.804688 0.226562 4.703125 0 C 3.953125 -0.1875 3.414062 -0.28125 3.09375 -0.28125 C 2.738281 -0.28125 2.46875 -0.140625 2.28125 0.140625 L 1.828125 0.140625 L 1.828125 -5.34375 L 2.390625 -5.34375 C 2.785156 -3.5625 3.320312 -2.296875 4 -1.546875 C 4.675781 -0.796875 5.625 -0.421875 6.84375 -0.421875 C 7.738281 -0.421875 8.445312 -0.648438 8.96875 -1.109375 C 9.5 -1.566406 9.765625 -2.179688 9.765625 -2.953125 C 9.765625 -4.003906 9.15625 -4.878906 7.9375 -5.578125 L 5.890625 -6.734375 C 4.398438 -7.609375 3.34375 -8.425781 2.71875 -9.1875 C 2.101562 -9.945312 1.796875 -10.816406 1.796875 -11.796875 C 1.796875 -13.085938 2.242188 -14.128906 3.140625 -14.921875 C 4.046875 -15.710938 5.210938 -16.109375 6.640625 -16.109375 C 7.503906 -16.109375 8.296875 -15.96875 9.015625 -15.6875 C 9.367188 -15.53125 9.6875 -15.453125 9.96875 -15.453125 C 10.0625 -15.453125 10.226562 -15.546875 10.46875 -15.734375 L 10.53125 -15.796875 L 10.921875 -15.796875 L 11.0625 -11.03125 L 10.53125 -11.03125 C 10.132812 -12.59375 9.644531 -13.703125 9.0625 -14.359375 C 8.476562 -15.015625 7.679688 -15.34375 6.671875 -15.34375 C 5.847656 -15.34375 5.191406 -15.125 4.703125 -14.6875 C 4.210938 -14.257812 3.96875 -13.679688 3.96875 -12.953125 C 3.96875 -11.953125 4.472656 -11.15625 5.484375 -10.5625 L 9.265625 -8.328125 C 10.347656 -7.691406 11.109375 -7.054688 11.546875 -6.421875 C 11.992188 -5.796875 12.21875 -5.035156 12.21875 -4.140625 Z M 12.21875 -4.140625 "/></g></g><g style="fill:#000000;fill-opacity:1;"><g transform="translate(343.208214, 424.11397)"><path style="stroke:none" d="M 6.359375 -1.515625 C 6.359375 -0.992188 6.15625 -0.546875 5.75 -0.171875 C 5.351562 0.203125 4.890625 0.390625 4.359375 0.390625 C 3.835938 0.390625 3.390625 0.203125 3.015625 -0.171875 C 2.640625 -0.546875 2.453125 -0.992188 2.453125 -1.515625 C 2.453125 -2.046875 2.644531 -2.507812 3.03125 -2.90625 C 3.414062 -3.3125 3.867188 -3.515625 4.390625 -3.515625 C 4.929688 -3.515625 5.394531 -3.3125 5.78125 -2.90625 C 6.164062 -2.507812 6.359375 -2.046875 6.359375 -1.515625 Z M 6.359375 -1.515625 "/></g></g><g style="fill:#000000;fill-opacity:1;"><g transform="translate(351.983648, 424.11397)"><path style="stroke:none" d="M 6.359375 -1.515625 C 6.359375 -0.992188 6.15625 -0.546875 5.75 -0.171875 C 5.351562 0.203125 4.890625 0.390625 4.359375 0.390625 C 3.835938 0.390625 3.390625 0.203125 3.015625 -0.171875 C 2.640625 -0.546875 2.453125 -0.992188 2.453125 -1.515625 C 2.453125 -2.046875 2.644531 -2.507812 3.03125 -2.90625 C 3.414062 -3.3125 3.867188 -3.515625 4.390625 -3.515625 C 4.929688 -3.515625 5.394531 -3.3125 5.78125 -2.90625 C 6.164062 -2.507812 6.359375 -2.046875 6.359375 -1.515625 Z M 6.359375 -1.515625 "/></g></g><g style="fill:#000000;fill-opacity:1;"><g transform="translate(360.759082, 424.11397)"><path style="stroke:none" d="M 6.359375 -1.515625 C 6.359375 -0.992188 6.15625 -0.546875 5.75 -0.171875 C 5.351562 0.203125 4.890625 0.390625 4.359375 0.390625 C 3.835938 0.390625 3.390625 0.203125 3.015625 -0.171875 C 2.640625 -0.546875 2.453125 -0.992188 2.453125 -1.515625 C 2.453125 -2.046875 2.644531 -2.507812 3.03125 -2.90625 C 3.414062 -3.3125 3.867188 -3.515625 4.390625 -3.515625 C 4.929688 -3.515625 5.394531 -3.3125 5.78125 -2.90625 C 6.164062 -2.507812 6.359375 -2.046875 6.359375 -1.515625 Z M 6.359375 -1.515625 "/></g></g></g></svg>