<svg xmlns="http://www.w3.org/2000/svg" xmlns:xlink="http://www.w3.org/1999/xlink" width="858" zoomAndPan="magnify" viewBox="0 0 643.5 452.25" height="603" preserveAspectRatio="xMidYMid meet" version="1.0"><defs><g/><clipPath id="cf0d7f6d33"><path d="M 196.644531 75.191406 L 439.429688 75.191406 L 439.429688 317.976562 L 196.644531 317.976562 Z M 196.644531 75.191406 " clip-rule="nonzero"/></clipPath><clipPath id="6f88ec297e"><path d="M 282 183 L 358 183 L 358 201 L 282 201 Z M 282 183 " clip-rule="nonzero"/></clipPath><clipPath id="16c821014f"><path d="M 342.671875 218.558594 L 281.039062 191.183594 L 296.246094 156.941406 L 357.882812 184.316406 Z M 342.671875 218.558594 " clip-rule="nonzero"/></clipPath><clipPath id="ebc6041a45"><path d="M 342.671875 218.558594 L 281.039062 191.183594 L 296.246094 156.941406 L 357.882812 184.316406 Z M 342.671875 218.558594 " clip-rule="nonzero"/></clipPath></defs><g clip-path="url(#cf0d7f6d33)"><path fill="#000000" d="M 318.039062 75.191406 C 251.097656 75.191406 196.644531 129.644531 196.644531 196.585938 C 196.644531 234.335938 213.675781 269.195312 243.3125 292.191406 C 260.375 305.613281 280.683594 314.164062 301.894531 316.867188 C 307.148438 317.613281 312.59375 317.976562 318.039062 317.976562 C 323.484375 317.976562 328.929688 317.613281 334.042969 316.886719 C 355.390625 314.164062 375.699219 305.628906 392.730469 292.226562 C 422.417969 269.195312 439.429688 234.320312 439.429688 196.585938 C 439.429688 129.644531 384.960938 75.191406 318.039062 75.191406 Z M 387.40625 273.894531 L 387.40625 262.136719 C 387.40625 245.140625 356.363281 231.269531 318.039062 231.269531 C 279.710938 231.269531 248.671875 245.140625 248.671875 262.136719 L 248.671875 273.894531 C 226.628906 254.28125 213.988281 226.550781 213.988281 196.585938 C 213.988281 139.199219 260.652344 92.53125 318.039062 92.53125 C 375.421875 92.53125 422.089844 139.199219 422.089844 196.585938 C 422.089844 226.535156 409.464844 254.230469 387.40625 273.894531 Z M 387.40625 273.894531 " fill-opacity="1" fill-rule="nonzero"/></g><path fill="#000000" d="M 361.394531 170.570312 C 361.394531 171.992188 361.324219 173.40625 361.183594 174.820312 C 361.042969 176.234375 360.835938 177.636719 360.558594 179.03125 C 360.28125 180.421875 359.9375 181.796875 359.527344 183.15625 C 359.113281 184.515625 358.636719 185.851562 358.09375 187.164062 C 357.550781 188.472656 356.941406 189.757812 356.273438 191.007812 C 355.605469 192.261719 354.875 193.476562 354.085938 194.65625 C 353.296875 195.839844 352.453125 196.976562 351.550781 198.074219 C 350.652344 199.171875 349.699219 200.222656 348.695312 201.226562 C 347.691406 202.230469 346.640625 203.183594 345.542969 204.085938 C 344.445312 204.984375 343.304688 205.832031 342.125 206.621094 C 340.945312 207.410156 339.726562 208.136719 338.476562 208.808594 C 337.222656 209.476562 335.941406 210.082031 334.628906 210.625 C 333.316406 211.167969 331.980469 211.648438 330.625 212.058594 C 329.265625 212.472656 327.890625 212.816406 326.496094 213.09375 C 325.105469 213.371094 323.699219 213.578125 322.289062 213.71875 C 320.875 213.855469 319.457031 213.925781 318.039062 213.925781 C 316.617188 213.925781 315.203125 213.855469 313.789062 213.71875 C 312.375 213.578125 310.972656 213.371094 309.578125 213.09375 C 308.1875 212.816406 306.8125 212.472656 305.453125 212.058594 C 304.09375 211.648438 302.757812 211.167969 301.445312 210.625 C 300.136719 210.082031 298.851562 209.476562 297.601562 208.808594 C 296.347656 208.136719 295.132812 207.410156 293.953125 206.621094 C 292.769531 205.832031 291.632812 204.984375 290.535156 204.085938 C 289.4375 203.183594 288.386719 202.230469 287.382812 201.226562 C 286.378906 200.222656 285.425781 199.171875 284.523438 198.074219 C 283.625 196.976562 282.777344 195.839844 281.988281 194.65625 C 281.199219 193.476562 280.472656 192.261719 279.800781 191.007812 C 279.132812 189.757812 278.527344 188.472656 277.984375 187.164062 C 277.441406 185.851562 276.960938 184.515625 276.550781 183.15625 C 276.136719 181.796875 275.792969 180.421875 275.515625 179.03125 C 275.238281 177.636719 275.03125 176.234375 274.890625 174.820312 C 274.753906 173.40625 274.683594 171.992188 274.683594 170.570312 C 274.683594 169.152344 274.753906 167.734375 274.890625 166.320312 C 275.03125 164.910156 275.238281 163.507812 275.515625 162.113281 C 275.792969 160.722656 276.136719 159.34375 276.550781 157.984375 C 276.960938 156.628906 277.441406 155.292969 277.984375 153.980469 C 278.527344 152.667969 279.132812 151.386719 279.800781 150.132812 C 280.472656 148.882812 281.199219 147.664062 281.988281 146.484375 C 282.777344 145.304688 283.625 144.164062 284.523438 143.066406 C 285.425781 141.96875 286.378906 140.917969 287.382812 139.914062 C 288.386719 138.910156 289.4375 137.957031 290.535156 137.058594 C 291.632812 136.15625 292.769531 135.3125 293.953125 134.523438 C 295.132812 133.734375 296.347656 133.003906 297.601562 132.335938 C 298.851562 131.667969 300.136719 131.058594 301.445312 130.515625 C 302.757812 129.972656 304.09375 129.496094 305.453125 129.082031 C 306.8125 128.671875 308.1875 128.328125 309.578125 128.050781 C 310.972656 127.773438 312.375 127.566406 313.789062 127.425781 C 315.203125 127.285156 316.617188 127.21875 318.039062 127.21875 C 319.457031 127.21875 320.875 127.285156 322.289062 127.425781 C 323.699219 127.566406 325.105469 127.773438 326.496094 128.050781 C 327.890625 128.328125 329.265625 128.671875 330.625 129.082031 C 331.980469 129.496094 333.316406 129.972656 334.628906 130.515625 C 335.941406 131.058594 337.222656 131.667969 338.476562 132.335938 C 339.726562 133.003906 340.945312 133.734375 342.125 134.523438 C 343.304688 135.3125 344.445312 136.15625 345.542969 137.058594 C 346.640625 137.957031 347.691406 138.910156 348.695312 139.914062 C 349.699219 140.917969 350.652344 141.96875 351.550781 143.066406 C 352.453125 144.164062 353.296875 145.304688 354.085938 146.484375 C 354.875 147.664062 355.605469 148.882812 356.273438 150.132812 C 356.941406 151.386719 357.550781 152.667969 358.09375 153.980469 C 358.636719 155.292969 359.113281 156.628906 359.527344 157.984375 C 359.9375 159.34375 360.28125 160.722656 360.558594 162.113281 C 360.835938 163.507812 361.042969 164.910156 361.183594 166.320312 C 361.324219 167.734375 361.394531 169.152344 361.394531 170.570312 Z M 361.394531 170.570312 " fill-opacity="1" fill-rule="nonzero"/><g clip-path="url(#6f88ec297e)"><g clip-path="url(#16c821014f)"><g clip-path="url(#ebc6041a45)"><path fill="#ffffff" d="M 356.882812 183.917969 C 357.046875 183.992188 357.183594 184.101562 357.292969 184.25 C 357.398438 184.398438 357.464844 184.5625 357.484375 184.742188 C 357.507812 184.921875 357.484375 185.097656 357.414062 185.265625 C 357.34375 185.4375 357.234375 185.574219 357.089844 185.6875 C 347.90625 192.828125 338.300781 197.441406 328.542969 199.390625 C 320.652344 200.972656 312.800781 200.832031 304.976562 198.980469 C 291.679688 195.859375 283.4375 188.992188 283.09375 188.699219 C 282.988281 188.609375 282.902344 188.503906 282.839844 188.382812 C 282.777344 188.261719 282.738281 188.128906 282.730469 187.992188 C 282.71875 187.855469 282.730469 187.722656 282.773438 187.589844 C 282.816406 187.460938 282.882812 187.339844 282.96875 187.234375 C 283.058594 187.128906 283.164062 187.046875 283.285156 186.980469 C 283.40625 186.917969 283.539062 186.878906 283.675781 186.867188 C 283.8125 186.855469 283.945312 186.871094 284.078125 186.914062 C 284.207031 186.953125 284.324219 187.019531 284.429688 187.109375 C 284.539062 187.199219 292.722656 193.988281 305.542969 196.976562 C 317.355469 199.730469 335.667969 199.71875 355.824219 184.046875 C 356.152344 183.792969 356.503906 183.75 356.882812 183.917969 Z M 356.882812 183.917969 " fill-opacity="1" fill-rule="nonzero"/></g></g></g><g fill="#000000" fill-opacity="1"><g transform="translate(321.650902, 370.177987)"><g/></g></g></svg>