<svg xmlns="http://www.w3.org/2000/svg" xmlns:xlink="http://www.w3.org/1999/xlink" width="858" zoomAndPan="magnify" viewBox="0 0 643.5 452.25" height="603" preserveAspectRatio="xMidYMid meet" version="1.0"><defs><g/><clipPath id="ac2c5c3b31"><path d="M 196.644531 75.191406 L 439.429688 75.191406 L 439.429688 317.976562 L 196.644531 317.976562 Z M 196.644531 75.191406 " clip-rule="nonzero"/></clipPath><clipPath id="e157ed772f"><path d="M 282 183 L 358 183 L 358 201 L 282 201 Z M 282 183 " clip-rule="nonzero"/></clipPath><clipPath id="5d161bb300"><path d="M 342.671875 218.558594 L 281.039062 191.183594 L 296.246094 156.941406 L 357.882812 184.316406 Z M 342.671875 218.558594 " clip-rule="nonzero"/></clipPath><clipPath id="4293294998"><path d="M 342.671875 218.558594 L 281.039062 191.183594 L 296.246094 156.941406 L 357.882812 184.316406 Z M 342.671875 218.558594 " clip-rule="nonzero"/></clipPath></defs><g clip-path="url(#ac2c5c3b31)"><path fill="#000000" d="M 318.039062 75.191406 C 251.097656 75.191406 196.644531 129.644531 196.644531 196.585938 C 196.644531 234.335938 213.675781 269.195312 243.3125 292.191406 C 260.375 305.613281 280.683594 314.164062 301.894531 316.867188 C 307.148438 317.613281 312.59375 317.976562 318.039062 317.976562 C 323.484375 317.976562 328.929688 317.613281 334.042969 316.886719 C 355.390625 314.164062 375.699219 305.628906 392.730469 292.226562 C 422.417969 269.195312 439.429688 234.320312 439.429688 196.585938 C 439.429688 129.644531 384.960938 75.191406 318.039062 75.191406 Z M 387.40625 273.894531 L 387.40625 262.136719 C 387.40625 245.140625 356.363281 231.269531 318.039062 231.269531 C 279.710938 231.269531 248.671875 245.140625 248.671875 262.136719 L 248.671875 273.894531 C 226.628906 254.28125 213.988281 226.550781 213.988281 196.585938 C 213.988281 139.199219 260.652344 92.53125 318.039062 92.53125 C 375.421875 92.53125 422.089844 139.199219 422.089844 196.585938 C 422.089844 226.535156 409.464844 254.230469 387.40625 273.894531 Z M 387.40625 273.894531 " fill-opacity="1" fill-rule="nonzero"/></g><path fill="#000000" d="M 361.394531 170.570312 C 361.394531 171.992188 361.324219 173.40625 361.183594 174.820312 C 361.042969 176.234375 360.835938 177.636719 360.558594 179.03125 C 360.28125 180.421875 359.9375 181.796875 359.527344 183.15625 C 359.113281 184.515625 358.636719 185.851562 358.09375 187.164062 C 357.550781 188.472656 356.941406 189.757812 356.273438 191.007812 C 355.605469 192.261719 354.875 193.476562 354.085938 194.65625 C 353.296875 195.839844 352.453125 196.976562 351.550781 198.074219 C 350.652344 199.171875 349.699219 200.222656 348.695312 201.226562 C 347.691406 202.230469 346.640625 203.183594 345.542969 204.085938 C 344.445312 204.984375 343.304688 205.832031 342.125 206.621094 C 340.945312 207.410156 339.726562 208.136719 338.476562 208.808594 C 337.222656 209.476562 335.941406 210.082031 334.628906 210.625 C 333.316406 211.167969 331.980469 211.648438 330.625 212.058594 C 329.265625 212.472656 327.890625 212.816406 326.496094 213.09375 C 325.105469 213.371094 323.699219 213.578125 322.289062 213.71875 C 320.875 213.855469 319.457031 213.925781 318.039062 213.925781 C 316.617188 213.925781 315.203125 213.855469 313.789062 213.71875 C 312.375 213.578125 310.972656 213.371094 309.578125 213.09375 C 308.1875 212.816406 306.8125 212.472656 305.453125 212.058594 C 304.09375 211.648438 302.757812 211.167969 301.445312 210.625 C 300.136719 210.082031 298.851562 209.476562 297.601562 208.808594 C 296.347656 208.136719 295.132812 207.410156 293.953125 206.621094 C 292.769531 205.832031 291.632812 204.984375 290.535156 204.085938 C 289.4375 203.183594 288.386719 202.230469 287.382812 201.226562 C 286.378906 200.222656 285.425781 199.171875 284.523438 198.074219 C 283.625 196.976562 282.777344 195.839844 281.988281 194.65625 C 281.199219 193.476562 280.472656 192.261719 279.800781 191.007812 C 279.132812 189.757812 278.527344 188.472656 277.984375 187.164062 C 277.441406 185.851562 276.960938 184.515625 276.550781 183.15625 C 276.136719 181.796875 275.792969 180.421875 275.515625 179.03125 C 275.238281 177.636719 275.03125 176.234375 274.890625 174.820312 C 274.753906 173.40625 274.683594 171.992188 274.683594 170.570312 C 274.683594 169.152344 274.753906 167.734375 274.890625 166.320312 C 275.03125 164.910156 275.238281 163.507812 275.515625 162.113281 C 275.792969 160.722656 276.136719 159.34375 276.550781 157.984375 C 276.960938 156.628906 277.441406 155.292969 277.984375 153.980469 C 278.527344 152.667969 279.132812 151.386719 279.800781 150.132812 C 280.472656 148.882812 281.199219 147.664062 281.988281 146.484375 C 282.777344 145.304688 283.625 144.164062 284.523438 143.066406 C 285.425781 141.96875 286.378906 140.917969 287.382812 139.914062 C 288.386719 138.910156 289.4375 137.957031 290.535156 137.058594 C 291.632812 136.15625 292.769531 135.3125 293.953125 134.523438 C 295.132812 133.734375 296.347656 133.003906 297.601562 132.335938 C 298.851562 131.667969 300.136719 131.058594 301.445312 130.515625 C 302.757812 129.972656 304.09375 129.496094 305.453125 129.082031 C 306.8125 128.671875 308.1875 128.328125 309.578125 128.050781 C 310.972656 127.773438 312.375 127.566406 313.789062 127.425781 C 315.203125 127.285156 316.617188 127.21875 318.039062 127.21875 C 319.457031 127.21875 320.875 127.285156 322.289062 127.425781 C 323.699219 127.566406 325.105469 127.773438 326.496094 128.050781 C 327.890625 128.328125 329.265625 128.671875 330.625 129.082031 C 331.980469 129.496094 333.316406 129.972656 334.628906 130.515625 C 335.941406 131.058594 337.222656 131.667969 338.476562 132.335938 C 339.726562 133.003906 340.945312 133.734375 342.125 134.523438 C 343.304688 135.3125 344.445312 136.15625 345.542969 137.058594 C 346.640625 137.957031 347.691406 138.910156 348.695312 139.914062 C 349.699219 140.917969 350.652344 141.96875 351.550781 143.066406 C 352.453125 144.164062 353.296875 145.304688 354.085938 146.484375 C 354.875 147.664062 355.605469 148.882812 356.273438 150.132812 C 356.941406 151.386719 357.550781 152.667969 358.09375 153.980469 C 358.636719 155.292969 359.113281 156.628906 359.527344 157.984375 C 359.9375 159.34375 360.28125 160.722656 360.558594 162.113281 C 360.835938 163.507812 361.042969 164.910156 361.183594 166.320312 C 361.324219 167.734375 361.394531 169.152344 361.394531 170.570312 Z M 361.394531 170.570312 " fill-opacity="1" fill-rule="nonzero"/><g clip-path="url(#e157ed772f)"><g clip-path="url(#5d161bb300)"><g clip-path="url(#4293294998)"><path fill="#ffffff" d="M 356.882812 183.917969 C 357.046875 183.992188 357.183594 184.101562 357.292969 184.25 C 357.398438 184.398438 357.464844 184.5625 357.484375 184.742188 C 357.507812 184.921875 357.484375 185.097656 357.414062 185.265625 C 357.34375 185.4375 357.234375 185.574219 357.089844 185.6875 C 347.90625 192.828125 338.300781 197.441406 328.542969 199.390625 C 320.652344 200.972656 312.800781 200.832031 304.976562 198.980469 C 291.679688 195.859375 283.4375 188.992188 283.09375 188.699219 C 282.988281 188.609375 282.902344 188.503906 282.839844 188.382812 C 282.777344 188.261719 282.738281 188.128906 282.730469 187.992188 C 282.71875 187.855469 282.730469 187.722656 282.773438 187.589844 C 282.816406 187.460938 282.882812 187.339844 282.96875 187.234375 C 283.058594 187.128906 283.164062 187.046875 283.285156 186.980469 C 283.40625 186.917969 283.539062 186.878906 283.675781 186.867188 C 283.8125 186.855469 283.945312 186.871094 284.078125 186.914062 C 284.207031 186.953125 284.324219 187.019531 284.429688 187.109375 C 284.539062 187.199219 292.722656 193.988281 305.542969 196.976562 C 317.355469 199.730469 335.667969 199.71875 355.824219 184.046875 C 356.152344 183.792969 356.503906 183.75 356.882812 183.917969 Z M 356.882812 183.917969 " fill-opacity="1" fill-rule="nonzero"/></g></g></g><g fill="#000000" fill-opacity="1"><g transform="translate(321.650902, 370.177987)"><g/></g></g><g fill="#000000" fill-opacity="1"><g transform="translate(251.28978, 351.243092)"><g><path d="M 11.515625 -3.9375 C 11.515625 -2.738281 11.054688 -1.726562 10.140625 -0.90625 C 9.222656 -0.0820312 8.085938 0.328125 6.734375 0.328125 C 5.796875 0.328125 4.875 0.144531 3.96875 -0.21875 C 3.5 -0.382812 3.128906 -0.46875 2.859375 -0.46875 C 2.691406 -0.46875 2.546875 -0.394531 2.421875 -0.25 C 2.296875 -0.101562 2.222656 0.0820312 2.203125 0.3125 L 1.6875 0.3125 L 0.984375 -4.671875 L 1.53125 -4.671875 C 2.125 -3.234375 2.796875 -2.179688 3.546875 -1.515625 C 4.304688 -0.847656 5.210938 -0.515625 6.265625 -0.515625 C 7.117188 -0.515625 7.8125 -0.753906 8.34375 -1.234375 C 8.875 -1.722656 9.140625 -2.359375 9.140625 -3.140625 C 9.140625 -3.722656 9.03125 -4.1875 8.8125 -4.53125 C 8.238281 -5.40625 7.078125 -6.316406 5.328125 -7.265625 C 4.015625 -7.953125 3.078125 -8.644531 2.515625 -9.34375 C 1.953125 -10.050781 1.671875 -10.878906 1.671875 -11.828125 C 1.671875 -13.109375 2.125 -14.125 3.03125 -14.875 C 3.84375 -15.53125 4.722656 -15.859375 5.671875 -15.859375 C 6.453125 -15.859375 7.296875 -15.6875 8.203125 -15.34375 C 8.628906 -15.15625 8.972656 -15.0625 9.234375 -15.0625 C 9.640625 -15.0625 9.890625 -15.328125 9.984375 -15.859375 L 10.484375 -15.859375 L 11 -10.859375 L 10.40625 -10.859375 C 10.09375 -12.035156 9.617188 -12.953125 8.984375 -13.609375 C 8.148438 -14.460938 7.195312 -14.890625 6.125 -14.890625 C 5.382812 -14.890625 4.789062 -14.691406 4.34375 -14.296875 C 3.90625 -13.898438 3.6875 -13.378906 3.6875 -12.734375 C 3.6875 -12.097656 3.953125 -11.492188 4.484375 -10.921875 C 5.015625 -10.359375 5.894531 -9.742188 7.125 -9.078125 C 8.675781 -8.234375 9.796875 -7.40625 10.484375 -6.59375 C 11.171875 -5.789062 11.515625 -4.90625 11.515625 -3.9375 Z M 11.515625 -3.9375 "/></g></g></g><g fill="#000000" fill-opacity="1"><g transform="translate(264.328047, 351.243092)"><g><path d="M 10.359375 -0.9375 C 9.953125 -0.488281 9.597656 -0.179688 9.296875 -0.015625 C 8.992188 0.148438 8.644531 0.234375 8.25 0.234375 C 7.769531 0.234375 7.414062 0.101562 7.1875 -0.15625 C 6.957031 -0.414062 6.8125 -0.859375 6.75 -1.484375 C 5.40625 -0.335938 4.265625 0.234375 3.328125 0.234375 C 2.609375 0.234375 2.019531 0 1.5625 -0.46875 C 1.101562 -0.9375 0.875 -1.539062 0.875 -2.28125 C 0.875 -3.125 1.15625 -3.800781 1.71875 -4.3125 C 2.21875 -4.75 2.71875 -5.097656 3.21875 -5.359375 C 3.726562 -5.617188 4.898438 -6.113281 6.734375 -6.84375 L 6.734375 -8.28125 C 6.734375 -9.570312 6.140625 -10.21875 4.953125 -10.21875 C 4.484375 -10.21875 4.082031 -10.101562 3.75 -9.875 C 3.425781 -9.65625 3.265625 -9.390625 3.265625 -9.078125 C 3.265625 -8.898438 3.285156 -8.710938 3.328125 -8.515625 C 3.359375 -8.296875 3.375 -8.171875 3.375 -8.140625 C 3.375 -7.867188 3.269531 -7.632812 3.0625 -7.4375 C 2.851562 -7.25 2.609375 -7.15625 2.328125 -7.15625 C 2.046875 -7.15625 1.804688 -7.253906 1.609375 -7.453125 C 1.410156 -7.660156 1.3125 -7.894531 1.3125 -8.15625 C 1.3125 -8.800781 1.632812 -9.390625 2.28125 -9.921875 C 2.976562 -10.492188 3.96875 -10.78125 5.25 -10.78125 C 6.707031 -10.78125 7.6875 -10.328125 8.1875 -9.421875 C 8.476562 -8.941406 8.625 -8.144531 8.625 -7.03125 L 8.625 -2.46875 C 8.625 -1.945312 8.675781 -1.585938 8.78125 -1.390625 C 8.882812 -1.203125 9.066406 -1.109375 9.328125 -1.109375 C 9.660156 -1.109375 10.003906 -1.253906 10.359375 -1.546875 Z M 6.734375 -2.890625 L 6.734375 -6.28125 C 5.328125 -5.769531 4.34375 -5.269531 3.78125 -4.78125 C 3.21875 -4.300781 2.9375 -3.71875 2.9375 -3.03125 L 2.9375 -2.9375 C 2.9375 -2.4375 3.078125 -2.007812 3.359375 -1.65625 C 3.648438 -1.300781 4 -1.125 4.40625 -1.125 C 4.957031 -1.125 5.53125 -1.296875 6.125 -1.640625 C 6.375 -1.796875 6.535156 -1.953125 6.609375 -2.109375 C 6.691406 -2.265625 6.734375 -2.523438 6.734375 -2.890625 Z M 6.734375 -2.890625 "/></g></g></g><g fill="#000000" fill-opacity="1"><g transform="translate(274.739894, 351.243092)"><g><path d="M 6.03125 0 L 0.5 0 L 0.5 -0.359375 C 1.226562 -0.421875 1.707031 -0.5625 1.9375 -0.78125 C 2.175781 -1 2.296875 -1.421875 2.296875 -2.046875 L 2.296875 -13.234375 C 2.296875 -13.773438 2.222656 -14.144531 2.078125 -14.34375 C 1.941406 -14.550781 1.6875 -14.65625 1.3125 -14.65625 C 1.175781 -14.65625 0.9375 -14.640625 0.59375 -14.609375 L 0.453125 -14.609375 L 0.453125 -14.984375 C 1.992188 -15.359375 3.234375 -15.703125 4.171875 -16.015625 L 4.265625 -15.96875 L 4.265625 -1.96875 C 4.265625 -1.332031 4.367188 -0.914062 4.578125 -0.71875 C 4.796875 -0.519531 5.28125 -0.398438 6.03125 -0.359375 Z M 6.03125 0 "/></g></g></g><g fill="#000000" fill-opacity="1"><g transform="translate(281.259028, 351.243092)"><g><path d="M 6.03125 0 L 0.5 0 L 0.5 -0.359375 C 1.226562 -0.421875 1.707031 -0.5625 1.9375 -0.78125 C 2.175781 -1 2.296875 -1.421875 2.296875 -2.046875 L 2.296875 -13.234375 C 2.296875 -13.773438 2.222656 -14.144531 2.078125 -14.34375 C 1.941406 -14.550781 1.6875 -14.65625 1.3125 -14.65625 C 1.175781 -14.65625 0.9375 -14.640625 0.59375 -14.609375 L 0.453125 -14.609375 L 0.453125 -14.984375 C 1.992188 -15.359375 3.234375 -15.703125 4.171875 -16.015625 L 4.265625 -15.96875 L 4.265625 -1.96875 C 4.265625 -1.332031 4.367188 -0.914062 4.578125 -0.71875 C 4.796875 -0.519531 5.28125 -0.398438 6.03125 -0.359375 Z M 6.03125 0 "/></g></g></g><g fill="#000000" fill-opacity="1"><g transform="translate(287.778162, 351.243092)"><g><path d="M 11.140625 -10.203125 C 10.859375 -10.171875 10.640625 -10.078125 10.484375 -9.921875 C 10.328125 -9.773438 10.171875 -9.515625 10.015625 -9.140625 L 6.40625 0.421875 C 5.78125 2.109375 5.15625 3.3125 4.53125 4.03125 C 3.914062 4.75 3.21875 5.109375 2.4375 5.109375 C 1.9375 5.109375 1.519531 4.976562 1.1875 4.71875 C 0.863281 4.46875 0.703125 4.144531 0.703125 3.75 C 0.703125 3.46875 0.800781 3.222656 1 3.015625 C 1.207031 2.816406 1.445312 2.71875 1.71875 2.71875 C 2.070312 2.71875 2.484375 2.804688 2.953125 2.984375 C 3.171875 3.085938 3.363281 3.140625 3.53125 3.140625 C 3.707031 3.140625 3.910156 3.035156 4.140625 2.828125 C 4.367188 2.628906 4.5625 2.382812 4.71875 2.09375 C 4.914062 1.75 5.117188 1.28125 5.328125 0.6875 C 5.546875 0.101562 5.65625 -0.273438 5.65625 -0.453125 C 5.65625 -0.609375 5.566406 -0.894531 5.390625 -1.3125 L 1.53125 -9.46875 C 1.34375 -9.875 0.941406 -10.125 0.328125 -10.21875 L 0.328125 -10.546875 L 5.15625 -10.546875 L 5.15625 -10.203125 C 4.65625 -10.179688 4.300781 -10.125 4.09375 -10.03125 C 3.894531 -9.9375 3.796875 -9.78125 3.796875 -9.5625 C 3.796875 -9.332031 3.875 -9.035156 4.03125 -8.671875 L 6.734375 -2.75 L 9 -9.21875 C 9.0625 -9.351562 9.09375 -9.484375 9.09375 -9.609375 C 9.09375 -10.003906 8.71875 -10.203125 7.96875 -10.203125 L 7.96875 -10.546875 L 11.140625 -10.546875 Z M 11.140625 -10.203125 "/></g></g></g><g fill="#000000" fill-opacity="1"><g transform="translate(299.503219, 351.243092)"><g/></g></g><g fill="#000000" fill-opacity="1"><g transform="translate(305.365755, 351.243092)"><g><path d="M 5.9375 0 L 0.375 0 L 0.375 -0.359375 C 1.1875 -0.398438 1.695312 -0.535156 1.90625 -0.765625 C 2.125 -1.003906 2.234375 -1.546875 2.234375 -2.390625 L 2.234375 -7.828125 C 2.234375 -8.347656 2.171875 -8.710938 2.046875 -8.921875 C 1.929688 -9.128906 1.734375 -9.234375 1.453125 -9.234375 C 1.203125 -9.234375 0.9375 -9.210938 0.65625 -9.171875 L 0.46875 -9.140625 L 0.46875 -9.5 L 4.109375 -10.78125 L 4.203125 -10.71875 L 4.203125 -2.390625 C 4.203125 -1.546875 4.296875 -1.007812 4.484375 -0.78125 C 4.679688 -0.5625 5.164062 -0.421875 5.9375 -0.359375 Z M 4.40625 -13.84375 C 4.40625 -13.5 4.289062 -13.210938 4.0625 -12.984375 C 3.84375 -12.753906 3.5625 -12.640625 3.21875 -12.640625 C 2.882812 -12.640625 2.597656 -12.753906 2.359375 -12.984375 C 2.128906 -13.210938 2.015625 -13.5 2.015625 -13.84375 C 2.015625 -14.164062 2.128906 -14.441406 2.359375 -14.671875 C 2.597656 -14.910156 2.882812 -15.03125 3.21875 -15.03125 C 3.5625 -15.03125 3.84375 -14.910156 4.0625 -14.671875 C 4.289062 -14.441406 4.40625 -14.164062 4.40625 -13.84375 Z M 4.40625 -13.84375 "/></g></g></g><g fill="#000000" fill-opacity="1"><g transform="translate(311.884888, 351.243092)"><g><path d="M 8.15625 -2.765625 C 8.15625 -1.953125 7.832031 -1.25 7.1875 -0.65625 C 6.539062 -0.0625 5.769531 0.234375 4.875 0.234375 C 4.457031 0.234375 3.878906 0.15625 3.140625 0 C 2.640625 -0.125 2.28125 -0.1875 2.0625 -0.1875 C 1.832031 -0.1875 1.65625 -0.09375 1.53125 0.09375 L 1.21875 0.09375 L 1.21875 -3.5625 L 1.59375 -3.5625 C 1.863281 -2.375 2.222656 -1.53125 2.671875 -1.03125 C 3.128906 -0.53125 3.765625 -0.28125 4.578125 -0.28125 C 5.171875 -0.28125 5.640625 -0.429688 5.984375 -0.734375 C 6.335938 -1.046875 6.515625 -1.457031 6.515625 -1.96875 C 6.515625 -2.675781 6.109375 -3.265625 5.296875 -3.734375 L 3.9375 -4.5 C 2.9375 -5.082031 2.226562 -5.625 1.8125 -6.125 C 1.40625 -6.632812 1.203125 -7.21875 1.203125 -7.875 C 1.203125 -8.738281 1.5 -9.4375 2.09375 -9.96875 C 2.695312 -10.5 3.476562 -10.765625 4.4375 -10.765625 C 5.007812 -10.765625 5.539062 -10.671875 6.03125 -10.484375 C 6.257812 -10.367188 6.46875 -10.3125 6.65625 -10.3125 C 6.71875 -10.3125 6.828125 -10.375 6.984375 -10.5 L 7.03125 -10.546875 L 7.296875 -10.546875 L 7.390625 -7.359375 L 7.03125 -7.359375 C 6.769531 -8.410156 6.441406 -9.15625 6.046875 -9.59375 C 5.660156 -10.03125 5.128906 -10.25 4.453125 -10.25 C 3.910156 -10.25 3.472656 -10.101562 3.140625 -9.8125 C 2.816406 -9.519531 2.65625 -9.132812 2.65625 -8.65625 C 2.65625 -7.976562 2.988281 -7.445312 3.65625 -7.0625 L 6.1875 -5.5625 C 6.90625 -5.132812 7.410156 -4.707031 7.703125 -4.28125 C 8.003906 -3.863281 8.15625 -3.359375 8.15625 -2.765625 Z M 8.15625 -2.765625 "/></g></g></g><g fill="#000000" fill-opacity="1"><g transform="translate(321.006991, 351.243092)"><g/></g></g><g fill="#000000" fill-opacity="1"><g transform="translate(326.869526, 351.243092)"><g><path d="M 11.421875 0 L 6.453125 0 L 6.453125 -0.359375 C 7.117188 -0.421875 7.550781 -0.578125 7.75 -0.828125 C 7.945312 -1.078125 8.046875 -1.597656 8.046875 -2.390625 L 8.046875 -7.03125 C 8.046875 -8.6875 7.457031 -9.515625 6.28125 -9.515625 C 5.832031 -9.515625 5.40625 -9.398438 5 -9.171875 C 4.601562 -8.953125 4.164062 -8.578125 3.6875 -8.046875 L 3.6875 -2.390625 C 3.6875 -1.578125 3.78125 -1.050781 3.96875 -0.8125 C 4.15625 -0.582031 4.59375 -0.429688 5.28125 -0.359375 L 5.28125 0 L 0.21875 0 L 0.21875 -0.359375 C 0.882812 -0.453125 1.300781 -0.609375 1.46875 -0.828125 C 1.632812 -1.046875 1.71875 -1.566406 1.71875 -2.390625 L 1.71875 -13.4375 C 1.71875 -13.9375 1.640625 -14.257812 1.484375 -14.40625 C 1.335938 -14.5625 1.015625 -14.640625 0.515625 -14.640625 C 0.390625 -14.640625 0.296875 -14.628906 0.234375 -14.609375 L 0.234375 -14.984375 L 0.875 -15.171875 C 1.9375 -15.472656 2.832031 -15.753906 3.5625 -16.015625 L 3.6875 -15.953125 L 3.6875 -8.8125 C 4.226562 -9.519531 4.765625 -10.023438 5.296875 -10.328125 C 5.828125 -10.628906 6.4375 -10.78125 7.125 -10.78125 C 9.050781 -10.78125 10.015625 -9.539062 10.015625 -7.0625 L 10.015625 -2.390625 C 10.015625 -1.578125 10.085938 -1.066406 10.234375 -0.859375 C 10.378906 -0.648438 10.773438 -0.484375 11.421875 -0.359375 Z M 11.421875 0 "/></g></g></g><g fill="#000000" fill-opacity="1"><g transform="translate(338.594584, 351.243092)"><g><path d="M 10.359375 -0.9375 C 9.953125 -0.488281 9.597656 -0.179688 9.296875 -0.015625 C 8.992188 0.148438 8.644531 0.234375 8.25 0.234375 C 7.769531 0.234375 7.414062 0.101562 7.1875 -0.15625 C 6.957031 -0.414062 6.8125 -0.859375 6.75 -1.484375 C 5.40625 -0.335938 4.265625 0.234375 3.328125 0.234375 C 2.609375 0.234375 2.019531 0 1.5625 -0.46875 C 1.101562 -0.9375 0.875 -1.539062 0.875 -2.28125 C 0.875 -3.125 1.15625 -3.800781 1.71875 -4.3125 C 2.21875 -4.75 2.71875 -5.097656 3.21875 -5.359375 C 3.726562 -5.617188 4.898438 -6.113281 6.734375 -6.84375 L 6.734375 -8.28125 C 6.734375 -9.570312 6.140625 -10.21875 4.953125 -10.21875 C 4.484375 -10.21875 4.082031 -10.101562 3.75 -9.875 C 3.425781 -9.65625 3.265625 -9.390625 3.265625 -9.078125 C 3.265625 -8.898438 3.285156 -8.710938 3.328125 -8.515625 C 3.359375 -8.296875 3.375 -8.171875 3.375 -8.140625 C 3.375 -7.867188 3.269531 -7.632812 3.0625 -7.4375 C 2.851562 -7.25 2.609375 -7.15625 2.328125 -7.15625 C 2.046875 -7.15625 1.804688 -7.253906 1.609375 -7.453125 C 1.410156 -7.660156 1.3125 -7.894531 1.3125 -8.15625 C 1.3125 -8.800781 1.632812 -9.390625 2.28125 -9.921875 C 2.976562 -10.492188 3.96875 -10.78125 5.25 -10.78125 C 6.707031 -10.78125 7.6875 -10.328125 8.1875 -9.421875 C 8.476562 -8.941406 8.625 -8.144531 8.625 -7.03125 L 8.625 -2.46875 C 8.625 -1.945312 8.675781 -1.585938 8.78125 -1.390625 C 8.882812 -1.203125 9.066406 -1.109375 9.328125 -1.109375 C 9.660156 -1.109375 10.003906 -1.253906 10.359375 -1.546875 Z M 6.734375 -2.890625 L 6.734375 -6.28125 C 5.328125 -5.769531 4.34375 -5.269531 3.78125 -4.78125 C 3.21875 -4.300781 2.9375 -3.71875 2.9375 -3.03125 L 2.9375 -2.9375 C 2.9375 -2.4375 3.078125 -2.007812 3.359375 -1.65625 C 3.648438 -1.300781 4 -1.125 4.40625 -1.125 C 4.957031 -1.125 5.53125 -1.296875 6.125 -1.640625 C 6.375 -1.796875 6.535156 -1.953125 6.609375 -2.109375 C 6.691406 -2.265625 6.734375 -2.523438 6.734375 -2.890625 Z M 6.734375 -2.890625 "/></g></g></g><g fill="#000000" fill-opacity="1"><g transform="translate(349.006431, 351.243092)"><g><path d="M 11.015625 -5.796875 C 11.015625 -4.085938 10.539062 -2.65625 9.59375 -1.5 C 8.65625 -0.34375 7.488281 0.234375 6.09375 0.234375 C 5.59375 0.234375 5.175781 0.160156 4.84375 0.015625 C 4.507812 -0.117188 4.140625 -0.382812 3.734375 -0.78125 L 3.734375 2.90625 C 3.734375 3.644531 3.859375 4.117188 4.109375 4.328125 C 4.359375 4.535156 4.921875 4.648438 5.796875 4.671875 L 5.796875 5.09375 L 0.125 5.09375 L 0.125 4.6875 C 0.8125 4.625 1.253906 4.488281 1.453125 4.28125 C 1.660156 4.082031 1.765625 3.679688 1.765625 3.078125 L 1.765625 -7.90625 C 1.765625 -8.445312 1.703125 -8.800781 1.578125 -8.96875 C 1.453125 -9.144531 1.191406 -9.234375 0.796875 -9.234375 C 0.546875 -9.234375 0.351562 -9.226562 0.21875 -9.21875 L 0.21875 -9.59375 C 1.195312 -9.882812 2.320312 -10.28125 3.59375 -10.78125 L 3.734375 -10.734375 L 3.734375 -8.9375 C 4.734375 -10.164062 5.859375 -10.78125 7.109375 -10.78125 C 8.242188 -10.78125 9.175781 -10.3125 9.90625 -9.375 C 10.644531 -8.4375 11.015625 -7.242188 11.015625 -5.796875 Z M 9 -4.875 C 9 -6.238281 8.738281 -7.328125 8.21875 -8.140625 C 7.695312 -8.960938 7 -9.375 6.125 -9.375 C 5.570312 -9.375 5.035156 -9.203125 4.515625 -8.859375 C 3.992188 -8.515625 3.734375 -8.171875 3.734375 -7.828125 L 3.734375 -2.0625 C 3.734375 -1.71875 4 -1.375 4.53125 -1.03125 C 5.070312 -0.6875 5.617188 -0.515625 6.171875 -0.515625 C 7.015625 -0.515625 7.695312 -0.914062 8.21875 -1.71875 C 8.738281 -2.53125 9 -3.582031 9 -4.875 Z M 9 -4.875 "/></g></g></g><g fill="#000000" fill-opacity="1"><g transform="translate(360.731488, 351.243092)"><g><path d="M 11.015625 -5.796875 C 11.015625 -4.085938 10.539062 -2.65625 9.59375 -1.5 C 8.65625 -0.34375 7.488281 0.234375 6.09375 0.234375 C 5.59375 0.234375 5.175781 0.160156 4.84375 0.015625 C 4.507812 -0.117188 4.140625 -0.382812 3.734375 -0.78125 L 3.734375 2.90625 C 3.734375 3.644531 3.859375 4.117188 4.109375 4.328125 C 4.359375 4.535156 4.921875 4.648438 5.796875 4.671875 L 5.796875 5.09375 L 0.125 5.09375 L 0.125 4.6875 C 0.8125 4.625 1.253906 4.488281 1.453125 4.28125 C 1.660156 4.082031 1.765625 3.679688 1.765625 3.078125 L 1.765625 -7.90625 C 1.765625 -8.445312 1.703125 -8.800781 1.578125 -8.96875 C 1.453125 -9.144531 1.191406 -9.234375 0.796875 -9.234375 C 0.546875 -9.234375 0.351562 -9.226562 0.21875 -9.21875 L 0.21875 -9.59375 C 1.195312 -9.882812 2.320312 -10.28125 3.59375 -10.78125 L 3.734375 -10.734375 L 3.734375 -8.9375 C 4.734375 -10.164062 5.859375 -10.78125 7.109375 -10.78125 C 8.242188 -10.78125 9.175781 -10.3125 9.90625 -9.375 C 10.644531 -8.4375 11.015625 -7.242188 11.015625 -5.796875 Z M 9 -4.875 C 9 -6.238281 8.738281 -7.328125 8.21875 -8.140625 C 7.695312 -8.960938 7 -9.375 6.125 -9.375 C 5.570312 -9.375 5.035156 -9.203125 4.515625 -8.859375 C 3.992188 -8.515625 3.734375 -8.171875 3.734375 -7.828125 L 3.734375 -2.0625 C 3.734375 -1.71875 4 -1.375 4.53125 -1.03125 C 5.070312 -0.6875 5.617188 -0.515625 6.171875 -0.515625 C 7.015625 -0.515625 7.695312 -0.914062 8.21875 -1.71875 C 8.738281 -2.53125 9 -3.582031 9 -4.875 Z M 9 -4.875 "/></g></g></g><g fill="#000000" fill-opacity="1"><g transform="translate(372.456545, 351.243092)"><g><path d="M 11.140625 -10.203125 C 10.859375 -10.171875 10.640625 -10.078125 10.484375 -9.921875 C 10.328125 -9.773438 10.171875 -9.515625 10.015625 -9.140625 L 6.40625 0.421875 C 5.78125 2.109375 5.15625 3.3125 4.53125 4.03125 C 3.914062 4.75 3.21875 5.109375 2.4375 5.109375 C 1.9375 5.109375 1.519531 4.976562 1.1875 4.71875 C 0.863281 4.46875 0.703125 4.144531 0.703125 3.75 C 0.703125 3.46875 0.800781 3.222656 1 3.015625 C 1.207031 2.816406 1.445312 2.71875 1.71875 2.71875 C 2.070312 2.71875 2.484375 2.804688 2.953125 2.984375 C 3.171875 3.085938 3.363281 3.140625 3.53125 3.140625 C 3.707031 3.140625 3.910156 3.035156 4.140625 2.828125 C 4.367188 2.628906 4.5625 2.382812 4.71875 2.09375 C 4.914062 1.75 5.117188 1.28125 5.328125 0.6875 C 5.546875 0.101562 5.65625 -0.273438 5.65625 -0.453125 C 5.65625 -0.609375 5.566406 -0.894531 5.390625 -1.3125 L 1.53125 -9.46875 C 1.34375 -9.875 0.941406 -10.125 0.328125 -10.21875 L 0.328125 -10.546875 L 5.15625 -10.546875 L 5.15625 -10.203125 C 4.65625 -10.179688 4.300781 -10.125 4.09375 -10.03125 C 3.894531 -9.9375 3.796875 -9.78125 3.796875 -9.5625 C 3.796875 -9.332031 3.875 -9.035156 4.03125 -8.671875 L 6.734375 -2.75 L 9 -9.21875 C 9.0625 -9.351562 9.09375 -9.484375 9.09375 -9.609375 C 9.09375 -10.003906 8.71875 -10.203125 7.96875 -10.203125 L 7.96875 -10.546875 L 11.140625 -10.546875 Z M 11.140625 -10.203125 "/></g></g></g><g fill="#000000" fill-opacity="1"><g transform="translate(384.181603, 351.243092)"><g><path d="M 5.53125 -13.984375 C 5.53125 -13.773438 5.515625 -13.484375 5.484375 -13.109375 L 4.4375 -4.125 L 4.125 -4.125 L 3.921875 -6.65625 C 3.859375 -7.488281 3.722656 -8.566406 3.515625 -9.890625 C 3.203125 -11.941406 3.046875 -13.328125 3.046875 -14.046875 C 3.046875 -14.597656 3.15625 -15.035156 3.375 -15.359375 C 3.59375 -15.691406 3.898438 -15.859375 4.296875 -15.859375 C 5.117188 -15.859375 5.53125 -15.234375 5.53125 -13.984375 Z M 5.1875 -1.921875 C 5.4375 -1.671875 5.5625 -1.363281 5.5625 -1 C 5.5625 -0.644531 5.4375 -0.351562 5.1875 -0.125 C 4.945312 0.101562 4.640625 0.21875 4.265625 0.21875 C 3.921875 0.21875 3.628906 0.101562 3.390625 -0.125 C 3.160156 -0.351562 3.046875 -0.644531 3.046875 -1 C 3.046875 -1.363281 3.164062 -1.671875 3.40625 -1.921875 C 3.65625 -2.171875 3.953125 -2.296875 4.296875 -2.296875 C 4.640625 -2.296875 4.9375 -2.171875 5.1875 -1.921875 Z M 5.1875 -1.921875 "/></g></g></g></svg>